<svg xmlns="http://www.w3.org/2000/svg" width="155.556" height="142.667" viewBox="0 0 155.556 142.667">
  <g id="Grupo_30317" data-name="Grupo 30317" transform="translate(-4791 -1300.832)">
    <path id="Trazado_24858" data-name="Trazado 24858" d="M195.444,506.165H68.778V363.5H195.444l28.889,71.333Z" transform="translate(4722.222 937.333)" fill="#9f69c3"/>
    <path id="Trazado_24859" data-name="Trazado 24859" d="M120.067,461.051q-8.314,0-12.767-6.145t-4.452-18.27q0-12.159,4.436-18.271t12.783-6.112q8.313,0,12.749,6.112t4.436,18.271q0,12.125-4.452,18.27T120.067,461.051Zm0-8.544q3.679,0,5.7-3.894t2.021-11.977q0-8.083-2.038-11.978t-5.684-3.894q-7.756,0-7.755,15.872T120.067,452.507Z" transform="translate(4722.222 937.333)" fill="#fff"/>
    <path id="Trazado_24860" data-name="Trazado 24860" d="M160.123,461.051q-8.873,0-12.947-4.338T143.1,443.438l9.693-.428a34.5,34.5,0,0,0,.148,3.484,12.04,12.04,0,0,0,.592,2.694,4.833,4.833,0,0,0,1.248,2.021,5.665,5.665,0,0,0,2.136,1.166,10.523,10.523,0,0,0,3.2.428,7.7,7.7,0,0,0,5.6-1.906,7.666,7.666,0,0,0,.082-10.137A7.05,7.05,0,0,0,160.78,439h-1.84v-7.36h1.709a5.141,5.141,0,0,0,3.927-1.676,5.978,5.978,0,0,0,1.561-4.239,4.776,4.776,0,0,0-1.709-3.943,6.947,6.947,0,0,0-4.5-1.38,6.741,6.741,0,0,0-2.563.443,4.781,4.781,0,0,0-1.725,1.134,5,5,0,0,0-1.019,1.742,9.166,9.166,0,0,0-.493,2.07,20.591,20.591,0,0,0-.115,2.3l-9.562-.46q0-7.459,4.074-11.419t11.305-3.96a16.163,16.163,0,0,1,10.843,3.631,11.373,11.373,0,0,1,4.272,9.02,10.273,10.273,0,0,1-1.823,6.113,10.445,10.445,0,0,1-4.158,3.614,11.707,11.707,0,0,1,3.024,1.348,12.389,12.389,0,0,1,2.645,2.267,10.108,10.108,0,0,1,1.955,3.45,13.882,13.882,0,0,1,.723,4.6,13.416,13.416,0,0,1-4.7,10.729Q167.911,461.051,160.123,461.051Z" transform="translate(4722.222 937.333)" fill="#fff"/>
  </g>
</svg>
