<svg xmlns="http://www.w3.org/2000/svg" width="155.556" height="142.667" viewBox="0 0 155.556 142.667">
  <g id="Grupo_30315" data-name="Grupo 30315" transform="translate(-4791 -989)">
    <path id="Trazado_24852" data-name="Trazado 24852" d="M195.444,194.333H68.778V51.667H195.444L224.333,123Z" transform="translate(4722.222 937.333)" fill="#901ba1"/>
    <path id="Trazado_24853" data-name="Trazado 24853" d="M120.067,149.219q-8.314,0-12.767-6.145t-4.452-18.27q0-12.159,4.436-18.271t12.783-6.112q8.313,0,12.749,6.112t4.436,18.271q0,12.124-4.452,18.27T120.067,149.219Zm0-8.544q3.679,0,5.7-3.894t2.021-11.977q0-8.083-2.038-11.978t-5.684-3.894q-7.756,0-7.755,15.872T120.067,140.675Z" transform="translate(4722.222 937.333)" fill="#fff"/>
    <path id="Trazado_24854" data-name="Trazado 24854" d="M158.907,101.079h9v47.483H158.48V110.805l-10.909,10.154v-9.727Z" transform="translate(4722.222 937.333)" fill="#fff"/>
  </g>
</svg>
