<svg xmlns="http://www.w3.org/2000/svg" width="155.556" height="142.667" viewBox="0 0 155.556 142.667">
  <g id="Grupo_30319" data-name="Grupo 30319" transform="translate(-4791 -1612.664)">
    <path id="Trazado_24864" data-name="Trazado 24864" d="M195.444,818H68.778V675.33H195.444l28.889,71.333Z" transform="translate(4722.222 937.333)" fill="#cc6da8"/>
    <path id="Trazado_24865" data-name="Trazado 24865" d="M120.067,772.882q-8.314,0-12.767-6.145t-4.452-18.27q0-12.159,4.436-18.271t12.783-6.111q8.313,0,12.749,6.111t4.436,18.271q0,12.126-4.452,18.27T120.067,772.882Zm0-8.543q3.679,0,5.7-3.9t2.021-11.977q0-8.083-2.038-11.978t-5.684-3.893q-7.756,0-7.755,15.871T120.067,764.339Z" transform="translate(4722.222 937.333)" fill="#fff"/>
    <path id="Trazado_24866" data-name="Trazado 24866" d="M159.269,741.435q18.237,0,18.237,14.984,0,7.525-4.6,12.011t-12.126,4.485a20.127,20.127,0,0,1-8.494-1.758,14.656,14.656,0,0,1-6.161-5.225,13.986,13.986,0,0,1-2.333-8,14.722,14.722,0,0,1,.2-2.367l9.4-.426a13.805,13.805,0,0,0-.23,2.1,6.39,6.39,0,0,0,2.136,5.241,8.042,8.042,0,0,0,5.29,1.759,7.294,7.294,0,0,0,5.521-2.021,7.527,7.527,0,0,0,1.938-5.439,6.767,6.767,0,0,0-2.365-5.552q-2.367-1.94-7.952-1.94H145.271l1.971-24.546h28.03v8.445H155.753l-.625,8.248Z" transform="translate(4722.222 937.333)" fill="#fff"/>
  </g>
</svg>
