<svg id="Layer" xmlns="http://www.w3.org/2000/svg" width="785.41" height="294.3" viewBox="0 0 785.41 294.3">
  <defs>
    <style>
      .cls-1 {
        fill: #5f5269;
      }

      .cls-2 {
        fill: #fff;
      }

      .cls-3 {
        fill: #ffc800;
      }
    </style>
  </defs>
  <g>
    <g>
      <path class="cls-1" d="M624.63,281.79a30.41,30.41,0,0,1-24.39-12.27,25.67,25.67,0,0,1-41.42-17.12,15.06,15.06,0,0,1-6.15,1.31,14.9,14.9,0,0,1-10.6-4.39.8.8,0,1,1,1.13-1.13,13.41,13.41,0,0,0,15.92,2.27.81.81,0,0,1,.77,0,.79.79,0,0,1,.41.65,24.07,24.07,0,0,0,39.57,16.64.79.79,0,0,1,.62-.19.79.79,0,0,1,.55.34A28.77,28.77,0,0,0,653.35,253a.8.8,0,0,1,.43-.66.8.8,0,0,1,.79,0A16.1,16.1,0,0,0,679,240.87a.77.77,0,0,1,.36-.56.78.78,0,0,1,.66-.1,11.18,11.18,0,0,0,14.34-11.73.8.8,0,0,1,1.59-.15A12.77,12.77,0,0,1,680.4,242a17.7,17.7,0,0,1-25.55,12.43A30.38,30.38,0,0,1,624.63,281.79Z"/>
      <path class="cls-1" d="M629.3,273a.8.8,0,0,1-.22-1.57A21.72,21.72,0,0,0,643.94,257a.8.8,0,0,1,1-.52.81.81,0,0,1,.53,1,23.31,23.31,0,0,1-16,15.44Z"/>
      <path class="cls-1" d="M663.92,250.86a7.16,7.16,0,0,1-2.56-.43.79.79,0,0,1-.46-1,.81.81,0,0,1,1-.46c1.79.7,4.67.09,5.12-.5a.8.8,0,1,1,1.28,1C667.66,250.31,665.77,250.86,663.92,250.86Z"/>
      <g>
        <path class="cls-2" d="M624.5,272.82c-.27,0-.55,0-.83,0a13.39,13.39,0,0,1-4.27-.91Z"/>
        <path class="cls-1" d="M623.67,273.66a10.22,10.22,0,0,1-3.6-.67c-.3-.1-.58-.19-.86-.26a.8.8,0,0,1,.39-1.56c.32.08.64.19,1,.31a8.89,8.89,0,0,0,3.09.58c.25,0,.5,0,.75,0a.8.8,0,1,1,.17,1.59C624.28,273.64,624,273.66,623.67,273.66Z"/>
      </g>
      <g>
        <path class="cls-2" d="M615.07,270.89c-.38,0-.58-.29-.86-.38Z"/>
        <path class="cls-1" d="M615.07,271.69a1.77,1.77,0,0,1-1-.35.5.5,0,0,0-.12-.08.83.83,0,0,1-.45-1,.77.77,0,0,1,1-.48,2.09,2.09,0,0,1,.5.26l.14.08a.79.79,0,0,1,.79.8A.81.81,0,0,1,615.07,271.69Z"/>
      </g>
    </g>
    <g>
      <path class="cls-3" d="M178,176.6l-.18,2.81-.35,4.56-.53,2.63-1.22,3.69-1.06,2.45-1.75,3.33-1.58,2.28-2.81,3.16-1.92,1.93-4.39,3.16-2.28,1.58-2.46,1.22-2.63,1.23-2.8.88-2.63.88-7.9,1.57-4,.53-2.81.18-4.21.35h-2.8l-9.65.35H102.7l-9.82-.53H90.07L77.79,215H71.13l-2.81-.35-2.45-.35-1.41-.53-.87-.88L63.24,211l-.18-2.63.18-2.45v-2.81l.17-1.4v-3l.53-9.29-.18-2.81L63.59,182l-.18-3-.17-1.58v-3l.17-4.56V162.4l.7-9.3v-2.81L63.76,141v-2.81l-.17-9.29.17-2.81.53-9.3.17-2.8-.7-9.3-.17-2.81-.53-5.26V92.41l.7-2.1,1.76-1L68,88.73l2.81-.18h9.47l9.65-.35,15.26.88,9.47-.35h2.8l9.65.17h2.81l10.17.71,3,.35,3,.52,2.81.7,3.86,1.41,2.63,1,3.33,1.93,2.28,1.58,3,2.45,2.11,2.11,1.93,2.45,1.4,2.46,1.93,3.51,1.05,2.45.88,2.63.53,2.81.7,4.56.17,2.81-.17,3-.53,3-1,4L171.63,138l-1.58,2.63-1.93,2.28-4.21,4.21-.52,1.22.52,1.41,1.58,1.58,2.11,1.93,2.1,2.28.88,1.4,1.75,2.45,1.58,2.64,1.23,2.63.7,1.58.88,2.8.7,3,.35,3ZM98.32,130l.17,2.8.35,1.93.7,1.23,1.41.7,2.1.18h4l6-.35,3,.17,4,.18,6,.35h3.86l2.28-.53,2.1-.87,1.76-1.23,1.22-1.58,1.06-1.75.52-2.28v-3l-.52-2.45-1.58-2.11-2.46-1.75-1.05-.53-2.63-.7-1.23-.17-3-.35H124.8l-2.81-.36-4-.35-2.63-.17-8.6.52h-2.28l-1.75.18-1.58.35-1.05.53-.7.87-.53,2.28-.52,4.21-.18,2.81Zm44.2,46.48-.18-2.46-.53-2.45-1.4-2.46-1-1.23-2.28-2.28-2.81-1.75-2.63-.88-1.23-.17-2.45-.18-7.9.35-3,.18H106.73l-2.63.17h-1l-2.1.35-1.58.71-.53.7-.17,1.75v3.86l.17,2.81v3.15l-.35,4.21v2.64l.35,1.92.7,1.06,1.23.7,2.28.17,13.86-.17,10.87-.35,6-.35,2.8-.35,1.93-.88,1.4-1.23.71-1.05,1.22-2.63.53-2.81Z"/>
      <path class="cls-3" d="M313.88,214.14l-2.28.7H299.32l-9.65-.17h-2.8L279,215h-2.28l-1.57-.7-1.41-1.41L268.1,205l-1.58-2.11-5.61-7.54-1.58-2.1-4.91-8.07-1.58-2.11-5.61-7.54-1.23-1.4-1.05-.53-2.11-.17-5.61-.35-2.28.17-1.4,1L233,176.6l-.35,9.65.17,2.81.71,9.82.17,2.81.18,4.21v2.8l-.18,2.81-.35,2.1-.88.88-1.93.53h-2.8l-8.42-.53-8.07.53h-2.81l-8.06-.53-2.11-.35-1-.7-.35-1.76-.18-2.45-.17-2.63.35-4.56.17-2.81.7-9.47V187l-.52-9.47-.18-2.81-.17-9.29v-2.81l.52-9.47v-2.81l-.52-9.47V138l.52-9.48v-2.8l.35-9.3v-2.8l-.17-9.48v-2.8l-.35-5.79.17-2.63.18-1,.52-2.28,1.06-1.41,2.1-.52,1.4-.18,2.64-.17,7.89.35,20.87.7,11.93-.7h2.81l11.57.7h6.67l3,.17,2.63.53,3.68,1L279,91l2.64,1,2.8,1L287,94.34l2.28,1.4L292.66,98l1.92,1.57,1.76,1.76,1.75,2.1,2.46,3.51,1.58,2.28,2.1,3.33,1.23,2.46,1.23,2.63.87,2.81.53,2.8.18,2.81.35,3.86v2.8l-.18,2.81-.35,3-.53,3-.7,2.81L305.81,147l-1.23,2.63L303,152.22l-1.57,2.28-1.58,2.11-1.58,1.93-2.81,2.8-1.93,1.58L290,164.85l-2.1,1.23-2.28,1.23-2.28.52-1.4.53.7,1.4,6.31,9,1.58,2.1,6.31,8.6,1.76,2.1,6.31,8.77,1.76,2.11,5.43,6.31,1.58,1.93.88,1.93Zm-49.29-68.23,2.28-.88L269,143.8l1.75-2.1,1.23-2.63.7-2.81.18-2.8-.18-3-.35-3-.7-2.63-1.23-2.63-1.58-2.1-1.93-1.58-2.45-1.06-3.86-.87-2.81-.35-8.77-.18h-2.81l-8.94.53-2.11.17-1.22.53-1.06,1.05-.17,1.93.17,4,.35,2.8.36,3,.17,3-.35,9.64.18,1.93.35,1,1.22.53,2.11.35,9.12.7h2.81l11.57-.7Z"/>
      <path class="cls-3" d="M464,209.75l.52,2.46-1.22,1.93-1.93.88-2.28.35h-2.46l-4-.35-2.63-.18h-7.9l-10.87.7-2.28-.87-1.05-1.23-.88-1.93-5.44-14.73L420.34,195l-1.57-.35-2.11-.18-10.52-.7h-2.81l-13.15-.35-10.53-.17H377l-2.63.17h-8.07l-2.28.35-1.4.88-1.05,2.11-4,11.92-1.05,2.81-1.93,2.28-2.63.88h-2.81L339,214.14h-2.81l-10.87.7L323,215,320.89,214l-1.4-1.93.17-2.28.36-1.4,1.05-2.8,2.45-5.44,1.06-2.63,4.38-9.83L330,185.2l4.56-9.82,1.06-2.63,4-9.48,1-2.63,4.74-9.82,1.05-2.46L352.82,134l4.91-10.52,1.22-2.81,3.86-7.89L364,110l3.33-8.07,1.06-2.63,3.15-7.19.88-1.93,1.75-1,2.63-.53,8.07-.35h13.68l8.07.18,3,.52,1.93,1.41.88,2.28,2.46,6.84,1,2.63,4.38,8.24,1.06,2.46,3.86,8.59,1.05,2.46,3.15,8.94,1.06,2.46,3.86,8.42,1.05,2.45,3.86,8.6,1,2.46,3.51,8.76,1,2.46,5.44,10.88,4.21,8.24,1.23,2.45L460.51,201Zm-58.58-49.46-.71-2.28-3.86-11.93-.87-2.63-3.51-10.34-.88-2.29-1.75-1.22-2.28-.53-1.93.53-1.75,1.75-4.74,11.93-1.05,2.63-4.56,11.75-.53,2.63.53,2.11,1.93.87,2.45.35H393l8.25.53,2.28-.7,1.4-1.4Z"/>
      <path class="cls-3" d="M602.23,115.74l-.17,2.81v26l.52,10.17v2.81l.35,23.15v3l-.17,1.4-.18,3-.52,8.41.17,10.18-.17,2.45-.71,2.11-1.4,1.93-1.75,1.23-1.58.52-2.46.18-8.94.35-2.81.17-4.38.18h-2.81l-2.28-.53-2.11-.87-2.1-1.58-1.58-2.28-2.63-5.09-1.58-2.28-6.84-8.6-1.75-2.1L547.51,184l-1.58-2.28-6.14-9.12-1.58-2.1-6.84-8.42-1.76-2.11-6.48-8.59-1.58-1.41-1.23.53-.53,2.1-.35,8.77v2.81l.18,8.77v2.81l.17,9.82v2.81l-.52,9.82.17,2.81,1,7,.18,2.81-.53,2.28-1.22,1.23-1.23.35-2.11.35-1.4.17-3,.18-8.07-.18h-2.81l-7.19.35h-2.8l-2.64-.17-1.92-.35-1.41-.88-.7-1.23-.35-1.75-.18-1.23V207.3l.36-5.79.17-2.81-.53-9.29V186.6l.36-21.4.17-2.8.53-9.3.17-2.81v-12.1l-.7-9.29v-2.81l.7-9.3-.17-2.8-.7-9.47-.18-2.81v-4l.18-2.63.35-2.63.35-1.93.52-1.22,1.06-.53,1.92-.35L493,88l5.26.35h13.15l2.11.17.88.71,1,1.57,7.37,7.9,1.75,2.1,6.49,8.42,1.75,2.11,6.49,8.59,1.76,2.11,6.31,8.76,1.58,2.11,6.66,8.42,1.76,2.1,6.31,8.77,1.41,1.23,1.4.18,1.23-.88v-1.93l-1.23-7.37-.18-2.8.53-7.54V130.3l-.7-10.7v-2.81l.7-10.7-.18-2.8-.52-6.49V92.41l.52-2.28.71-1.4,1.22-.7,2.11-.35h1.58l3-.18,7.89.53h2.81l6-.35,2.63.17,4,.18,1.93.35,1.22.52,1.06,1.23.35,2.46.17,1.58.18,3-.35,5.44-.35,2.8Z"/>
      <path class="cls-3" d="M748.16,154.86l-.17,3-.18,4.21-.53,2.8-1.22,4-.88,2.8-1,2.63-1.06,2.81-1.05,3-1,2.63L739,186.6l-1.4,2.28-2.46,2.81-1.75,1.93-3,2.8-3.86,3.86-2.28,1.93L721,204.84l-2.28,1.41-3.5,1.93-2.28,1-3.86,1.4-2.63.88-2.81.7-2.81.53-10.7,1.58-2.63.17-3.86.35h-2.8l-5.62-.17-4.56-.35h-2.8l-5.61.35-4.39.17-3,.18-2.63-.18H639.94l-2.63-.17-7.54-.71-1.41-.7-.87-.87-.35-1.93-.18-2.81.18-1.4.35-5.26v-2.46l.17-4v-2.63l.18-2.8v-2.81l-.18-9.3v-2.8l-.35-9.3.18-2.63.17-3.86.35-2.63.18-3v-2.81l-.35-4.56-.18-3v-1.58l-.17-3,.7-9.3v-2.8l-.18-9.3v-2.8l-.52-9.3V97.5l.17-2.81.53-2.63.35-1.93.7-1,1.93-.53,3-.35,2.63-.35,2.81-.17,15.43.17h2.81l8.42.53,1.4.17h3.16l7.37-.35,2.63-.17h2.8l4.39.35,5.61.35,2.81.35,4.56.7,2.8.53,2.64.7,6.31,2.28,2.63,1.23,2.63,1.4,2.46,1.4,5.79,4,2.28,1.93,2.1,1.75,3.86,3.68,1.75,1.76,1.58,1.93,1.23,2.28,1.93,3.86,1,2.63.88,2.8,1.05,2.81.88,2.81.7,2.8.7,3.86.53,2.81.52,3,.36,2.81.17,4.21.18,2.8Zm-40,15.08,1.23-2.63,1.05-3,.7-2.63.7-3.86.18-2.46.17-4v-5.62l-.17-2.8-.53-4-.7-2.63-.35-1-1.4-2.63-2.63-3.68-.88-.88-1.76-1.93-1.92-1.93-2.11-1.58-3.86-2.28-2.45-1-2.46-.53-2.81-.52-4.38-.18-3-.17h-4.39l-3.86-.18-2.63.18-3.86.52-1.92.53-.88.88-.53,2.1-.17,1.58-.18,2.63.35,5.26.18,2.81.35,3.86.35,2.8.17,2.81v2.81l-.17,3.85v8.42l-.18,3-.17,2.8-.35,3.86v2.46l-.18,4,.18,2.63.52,4.21.71,1.93,1.05.88,2.1.17,16.31-1,4-.17,2.8-.53,3-.88,2.8-1,2.63-1.23,2.28-1.58,3.16-2.8,1.76-2.11Z"/>
    </g>
    <g>
      <g>
        <rect class="cls-2" x="585.99" y="156.65" width="19.17" height="23.96"/>
        <path class="cls-1" d="M605.16,181.37H586a.77.77,0,0,1-.77-.76v-24a.78.78,0,0,1,.77-.77h19.17a.78.78,0,0,1,.77.77v24A.77.77,0,0,1,605.16,181.37Zm-18.41-1.53H604.4V157.41H586.75Z"/>
      </g>
      <g>
        <g>
          <polygon class="cls-2" points="613.46 155.25 613.46 173.78 591.92 173.78 591.92 146.94 606.55 146.94 613.46 155.25"/>
          <path class="cls-1" d="M613.46,174.54H591.92a.76.76,0,0,1-.76-.76V146.94a.76.76,0,0,1,.76-.76h14.63a.76.76,0,1,1,0,1.52H592.69V173h20V155.25a.77.77,0,1,1,1.53,0v18.53A.76.76,0,0,1,613.46,174.54Z"/>
        </g>
        <g>
          <polygon class="cls-2" points="613.46 155.25 606.55 155.25 606.55 146.94 613.46 155.25"/>
          <path class="cls-1" d="M613.48,156h-6.93a.76.76,0,0,1-.76-.76v-8.31a.76.76,0,0,1,1.35-.49l6.82,8.2a.78.78,0,0,1,.28.6A.76.76,0,0,1,613.48,156Zm-6.16-1.53h4.51l-4.51-5.42Z"/>
        </g>
      </g>
    </g>
    <g>
      <g>
        <path class="cls-2" d="M34.68,134.6v1.19c3.39.56,6.42,3.18,6.57,7.91v7.15H25.44V143.7c.15-4.75,3.21-7.37,6.59-7.91V134.6c-3.38-.54-6.44-3.16-6.59-7.91v-8.3H41.25v8.3C41.1,131.42,38.07,134,34.68,134.6Z"/>
        <path class="cls-1" d="M41.25,151.61H25.44a.76.76,0,0,1-.76-.76V143.7a8.52,8.52,0,0,1,6.48-8.5,8.53,8.53,0,0,1-6.48-8.49v-8.32a.76.76,0,0,1,.76-.77H41.25a.77.77,0,0,1,.77.77v8.3c-.14,4.3-2.65,7.55-6.47,8.5A8.61,8.61,0,0,1,42,143.67v7.18A.77.77,0,0,1,41.25,151.61Zm-15-1.53H40.49V143.7a7,7,0,0,0-5.93-7.15.76.76,0,0,1-.64-.76V134.6a.76.76,0,0,1,.64-.76c2.77-.46,5.78-2.58,5.93-7.17v-7.52H26.21v7.54c.14,4.59,3.16,6.71,5.94,7.15a.77.77,0,0,1,.65.76v1.19a.77.77,0,0,1-.65.76c-2.78.44-5.8,2.56-5.94,7.17Z"/>
      </g>
      <path class="cls-1" d="M38.62,146.64H28.07a.76.76,0,0,1-.53-1.31l5.31-5.07a.76.76,0,0,1,1.06,0l5.24,5.07a.79.79,0,0,1,.18.84A.78.78,0,0,1,38.62,146.64ZM30,145.11h6.75l-3.35-3.24Zm3.39-13.58h-.12l-.71-.11c-1.12-.18-3.75-1-3.87-4.82v-.46a.76.76,0,0,1,.76-.76.77.77,0,0,1,.77.76v.43c.06,1.94.93,3.07,2.58,3.34l.59.09.54-.09a.77.77,0,0,1,.25,1.51l-.67.11Z"/>
      <g>
        <rect class="cls-2" x="24.07" y="118.39" width="18.56" height="4.49"/>
        <path class="cls-1" d="M42.63,123.65H24.07a.76.76,0,0,1-.76-.77v-4.49a.76.76,0,0,1,.76-.76H42.63a.76.76,0,0,1,.76.76v4.49A.76.76,0,0,1,42.63,123.65Zm-17.79-1.53h17v-3h-17Z"/>
      </g>
      <g>
        <rect class="cls-2" x="24.07" y="146.35" width="18.56" height="4.49"/>
        <path class="cls-1" d="M42.63,151.61H24.07a.77.77,0,0,1-.76-.77v-4.49a.77.77,0,0,1,.76-.77H42.63a.77.77,0,0,1,.76.77v4.49A.77.77,0,0,1,42.63,151.61Zm-17.79-1.53h17v-3h-17Z"/>
      </g>
    </g>
    <g>
      <path class="cls-1" d="M185.19,212.94H151a.77.77,0,0,1-.77-.76V189.89a.77.77,0,0,1,.77-.76h34.22a.76.76,0,0,1,.76.76v22.29A.76.76,0,0,1,185.19,212.94Zm-33.46-1.53h32.69V190.66H151.73Z"/>
      <path class="cls-1" d="M159,222a.74.74,0,0,1-.54-.23.76.76,0,0,1,0-1.08l9-9.05a.74.74,0,0,1,.54-.23h0a.74.74,0,0,1,.54.23l9,9.05a.76.76,0,1,1-1.08,1.08l-8.51-8.51-8.51,8.51A.78.78,0,0,1,159,222Z"/>
      <path class="cls-1" d="M168.08,223.05a.76.76,0,0,1-.76-.76V212.18a.76.76,0,1,1,1.52,0v10.11A.76.76,0,0,1,168.08,223.05Z"/>
      <path class="cls-1" d="M156.39,207.88a.76.76,0,0,1-.76-.76v-12a.76.76,0,0,1,.76-.76.77.77,0,0,1,.77.76v12A.77.77,0,0,1,156.39,207.88Z"/>
      <path class="cls-1" d="M163.92,207.88a.76.76,0,0,1-.76-.76v-12a.77.77,0,0,1,1.53,0v12A.76.76,0,0,1,163.92,207.88Z"/>
      <path class="cls-1" d="M171.46,207.88a.77.77,0,0,1-.77-.76v-12a.77.77,0,0,1,.77-.76.76.76,0,0,1,.76.76v12A.76.76,0,0,1,171.46,207.88Z"/>
      <path class="cls-1" d="M179,207.88a.77.77,0,0,1-.77-.76v-12a.77.77,0,0,1,.77-.76.76.76,0,0,1,.76.76v12A.76.76,0,0,1,179,207.88Z"/>
      <path class="cls-1" d="M171.46,205.51a.8.8,0,0,1-.42-.13l-7.19-4.73-9.72,4.21a.76.76,0,1,1-.61-1.4l10.1-4.38a.79.79,0,0,1,.73.07l7.06,4.65,7.1-5.68a.77.77,0,0,1,1,0l3,2.4a.75.75,0,0,1,.11,1.07.76.76,0,0,1-1.07.12l-2.49-2-7.05,5.64A.78.78,0,0,1,171.46,205.51Z"/>
    </g>
    <g>
      <g>
        <path class="cls-2" d="M534.63,181.85a15.68,15.68,0,1,1-15.69-15.67A15.67,15.67,0,0,1,534.63,181.85Z"/>
        <path class="cls-1" d="M519,198.31a16.47,16.47,0,0,1-16.44-16.44,16.44,16.44,0,0,1,16.43-16.45,16.45,16.45,0,0,1,0,32.89ZM519,167a14.92,14.92,0,0,0,0,29.83v0A14.92,14.92,0,1,0,519,167Z"/>
      </g>
      <path class="cls-1" d="M519,182.63a.77.77,0,0,1-.75-.91l2.89-15.41a.76.76,0,1,1,1.5.28L520,180.53l12.83-6.06a.76.76,0,1,1,.65,1.38l-14.18,6.7A.73.73,0,0,1,519,182.63Z"/>
      <path class="cls-1" d="M529.71,194a.75.75,0,0,1-.55-.24l-10.76-11.4a.76.76,0,1,1,1.11-1l10.76,11.4a.77.77,0,0,1-.56,1.29Z"/>
      <g>
        <path class="cls-2" d="M526.14,181.86a7.19,7.19,0,1,1-7.19-7.18A7.2,7.2,0,0,1,526.14,181.86Z"/>
        <path class="cls-1" d="M519,189.81a7.95,7.95,0,1,1,7.95-7.95,8,8,0,0,1-7.95,7.95Zm0-14.37a6.42,6.42,0,0,0,0,12.84v0a6.42,6.42,0,0,0,0-12.84Z"/>
      </g>
    </g>
    <g>
      <path class="cls-1" d="M602.13,140.88a.71.71,0,0,1-.32-.07.75.75,0,0,1-.44-.69V118.66a.76.76,0,0,1,.76-.76H620a.76.76,0,0,1,.76.76v16.6a.77.77,0,0,1-.76.77H608.19l-5.56,4.67A.77.77,0,0,1,602.13,140.88Zm.77-21.45v19l4.52-3.8a.74.74,0,0,1,.49-.18h11.27V119.43Z"/>
      <path class="cls-1" d="M615.14,124.46H607a.77.77,0,0,1-.76-.77.76.76,0,0,1,.76-.76h8.15a.76.76,0,0,1,.76.76A.77.77,0,0,1,615.14,124.46Z"/>
      <path class="cls-1" d="M610.71,128.34H607a.77.77,0,0,1,0-1.53h3.72a.77.77,0,0,1,0,1.53Z"/>
    </g>
    <g>
      <g>
        <rect class="cls-2" x="443.67" y="99.15" width="7.53" height="5.93"/>
        <path class="cls-1" d="M451.2,105.85h-7.53a.77.77,0,0,1-.76-.77V99.15a.76.76,0,0,1,.76-.76h7.53a.76.76,0,0,1,.77.76v5.93A.77.77,0,0,1,451.2,105.85Zm-6.76-1.53h6V99.91h-6Z"/>
      </g>
      <g>
        <polygon class="cls-2" points="448.28 111.48 443.73 111.48 441.45 97.66 446.01 97.66 448.28 111.48"/>
        <path class="cls-1" d="M448.3,112.24h-4.57a.76.76,0,0,1-.75-.64L440.7,97.79a.76.76,0,0,1,.17-.62.78.78,0,0,1,.58-.27H446a.76.76,0,0,1,.75.64L449,111.19a.72.72,0,0,1,.06.29A.76.76,0,0,1,448.3,112.24Zm-3.92-1.53h3l-2-12.28h-3Z"/>
      </g>
      <g>
        <path class="cls-2" d="M451.7,99.38h-16c-1.28-.85-1.28-6,0-6.82h16Z"/>
        <path class="cls-1" d="M451.7,100.14h-16a.76.76,0,0,1-.42-.12c-1.21-.8-1.31-3.3-1.31-4s.1-3.25,1.31-4a.7.7,0,0,1,.42-.13h16a.76.76,0,0,1,.76.76v6.82A.76.76,0,0,1,451.7,100.14ZM436,98.61h14.89V93.33H436a5.41,5.41,0,0,0-.51,2.65A5.34,5.34,0,0,0,436,98.61Z"/>
      </g>
      <g>
        <path class="cls-2" d="M474.41,98.46l-12.77,3.76V89.73l12.77,3.77C476.34,94.21,476.34,97.75,474.41,98.46Z"/>
        <path class="cls-1" d="M461.64,103a.74.74,0,0,1-.45-.15.76.76,0,0,1-.31-.62V89.73a.77.77,0,0,1,.31-.62.8.8,0,0,1,.67-.12l12.76,3.78a3.59,3.59,0,0,1,.05,6.41L461.86,103A.78.78,0,0,1,461.64,103Zm.77-12.24V101.2l11.78-3.47a2.13,2.13,0,0,0-.05-3.51Z"/>
      </g>
      <g>
        <path class="cls-2" d="M468.76,82.29v27.37l-9.49-5.18a25.2,25.2,0,0,0-12.1-3.09h-7.55c-1.53-1.41-1.53-9.44,0-10.85h7.57a25.22,25.22,0,0,0,12.07-3.08Z"/>
        <path class="cls-1" d="M468.76,110.43a.71.71,0,0,1-.37-.1l-9.49-5.18a24.5,24.5,0,0,0-11.73-3h-7.55a.78.78,0,0,1-.52-.21c-1.29-1.19-1.4-4.88-1.4-6s.1-4.8,1.4-6a.73.73,0,0,1,.52-.21h7.57a24.51,24.51,0,0,0,11.7-3l9.51-5.17a.75.75,0,0,1,.75,0,.78.78,0,0,1,.38.66v27.37a.78.78,0,0,1-.38.66A.77.77,0,0,1,468.76,110.43ZM440,100.63h7.19a26.15,26.15,0,0,1,12.47,3.18l8.36,4.56V83.58l-8.38,4.56a26.06,26.06,0,0,1-12.43,3.16H440a11.08,11.08,0,0,0-.75,4.67A11.19,11.19,0,0,0,440,100.63Z"/>
      </g>
      <path class="cls-1" d="M464.53,107.5a.76.76,0,0,1-.77-.76V85.21a.77.77,0,1,1,1.53,0v21.53A.76.76,0,0,1,464.53,107.5Z"/>
    </g>
    <g>
      <g>
        <polygon class="cls-2" points="685.41 130.77 678.11 138.07 670.81 130.77 673.63 127.95 678.11 132.43 682.6 127.95 685.41 130.77"/>
        <path class="cls-1" d="M678.11,138.83a.77.77,0,0,1-.54-.22l-7.3-7.3a.76.76,0,0,1,0-1.08l2.81-2.82a.79.79,0,0,1,1.09,0l3.94,3.94,3.95-3.94a.74.74,0,0,1,.54-.23h0a.74.74,0,0,1,.54.23l2.81,2.82a.76.76,0,0,1,0,1.08l-7.3,7.3A.76.76,0,0,1,678.11,138.83Zm-6.22-8.06,6.22,6.22,6.22-6.22L682.6,129l-4,3.94a.73.73,0,0,1-.54.23h0a.74.74,0,0,1-.54-.23L673.63,129Z"/>
      </g>
      <g>
        <polygon class="cls-2" points="685.41 142.01 678.11 149.31 670.81 142.01 673.63 139.19 678.11 143.68 682.6 139.19 685.41 142.01"/>
        <path class="cls-1" d="M678.11,150.08a.78.78,0,0,1-.54-.23l-7.3-7.3a.76.76,0,0,1,0-1.08l2.81-2.82a.8.8,0,0,1,1.09,0l3.94,3.95,3.95-3.95a.77.77,0,0,1,.54-.22h0a.77.77,0,0,1,.54.22l2.81,2.82a.76.76,0,0,1,0,1.08l-7.3,7.3A.76.76,0,0,1,678.11,150.08ZM671.89,142l6.22,6.22,6.22-6.22-1.73-1.73-4,3.94a.76.76,0,0,1-1.08,0l-3.94-3.95Z"/>
      </g>
    </g>
    <g>
      <g>
        <path class="cls-2" d="M347.35,155.7l0,0a9.51,9.51,0,0,0,0-3.88l0,0a3.14,3.14,0,0,1,1.21-.4h.73a12.1,12.1,0,0,0-1.86-4.5l-.51.52a3,3,0,0,1-1.14.59h0a10.25,10.25,0,0,0-2.77-2.76v0a2.9,2.9,0,0,1,.6-1.15l.51-.51a12.1,12.1,0,0,0-4.5-1.86v.73a3.09,3.09,0,0,1-.4,1.21l0,0a9.51,9.51,0,0,0-3.88,0l0,0a3.09,3.09,0,0,1-.4-1.21v-.73a12,12,0,0,0-4.5,1.86l.52.51a3,3,0,0,1,.59,1.15v0a10.21,10.21,0,0,0-2.76,2.76h-.07a2.84,2.84,0,0,1-1.12-.57l-.51-.52a11.81,11.81,0,0,0-1.88,4.5h.73a3.08,3.08,0,0,1,1.23.4l0,0a9.51,9.51,0,0,0,0,3.88l0,0a3.08,3.08,0,0,1-1.23.4h-.73a11.68,11.68,0,0,0,1.88,4.5l.51-.51a2.74,2.74,0,0,1,1.12-.58h.06a10.17,10.17,0,0,0,2.76,2.75.09.09,0,0,0,0,.05,2.87,2.87,0,0,1-.57,1.13l-.52.51a11.68,11.68,0,0,0,4.5,1.88v-.73a3.08,3.08,0,0,1,.4-1.23l0,0a9.51,9.51,0,0,0,3.88,0l0,0a3.08,3.08,0,0,1,.4,1.23v.73a11.81,11.81,0,0,0,4.5-1.88l-.51-.51a2.77,2.77,0,0,1-.58-1.13h0v0a10.5,10.5,0,0,0,2.78-2.78h0a2.93,2.93,0,0,1,1.14.6l.51.51a12,12,0,0,0,1.86-4.5h-.73A3.14,3.14,0,0,1,347.35,155.7Z"/>
        <path class="cls-1" d="M339.58,166.59a.79.79,0,0,1-.49-.17.76.76,0,0,1-.28-.59v-.73a2.13,2.13,0,0,0-.1-.42,10.06,10.06,0,0,1-3,0,2.55,2.55,0,0,0-.11.51v.64a.76.76,0,0,1-.28.59.8.8,0,0,1-.63.16,12.28,12.28,0,0,1-4.8-2,.79.79,0,0,1-.32-.56.76.76,0,0,1,.22-.61l.52-.51a2.5,2.5,0,0,0,.21-.35,11.17,11.17,0,0,1-2.15-2.14,3.35,3.35,0,0,0-.41.28l-.44.45a.79.79,0,0,1-.61.22.77.77,0,0,1-.56-.32,12.65,12.65,0,0,1-2-4.8.8.8,0,0,1,.16-.63.81.81,0,0,1,.59-.28h.73a2.1,2.1,0,0,0,.42-.09,9.86,9.86,0,0,1-.11-1.51,11,11,0,0,1,.11-1.5,2.55,2.55,0,0,0-.51-.11h-.64a.74.74,0,0,1-.58-.28.77.77,0,0,1-.17-.63,12.56,12.56,0,0,1,2-4.79.75.75,0,0,1,.56-.33.76.76,0,0,1,.61.22l.51.51a2.64,2.64,0,0,0,.35.23,11,11,0,0,1,2.15-2.15,2.55,2.55,0,0,0-.27-.4l-.47-.46a.77.77,0,0,1-.22-.61.75.75,0,0,1,.33-.56,12.8,12.8,0,0,1,4.79-2,.8.8,0,0,1,.63.16.76.76,0,0,1,.28.59v.73a2.13,2.13,0,0,0,.1.4,10.06,10.06,0,0,1,3,0,2.5,2.5,0,0,0,.11-.49v-.64a.76.76,0,0,1,.28-.59.8.8,0,0,1,.63-.16,13.1,13.1,0,0,1,4.79,2,.77.77,0,0,1,.11,1.18l-.51.51a1.31,1.31,0,0,0-.23.36,11.17,11.17,0,0,1,2.15,2.14,2.35,2.35,0,0,0,.4-.27l.46-.47a.73.73,0,0,1,.61-.22.77.77,0,0,1,.57.33,13.1,13.1,0,0,1,1.94,4.62.78.78,0,0,1,.06.31.77.77,0,0,1-.77.77h-.74a2.13,2.13,0,0,0-.4.1,10.28,10.28,0,0,1,0,3,2.61,2.61,0,0,0,.5.11h.63a.77.77,0,0,1,.75.91,12.71,12.71,0,0,1-2,4.79.75.75,0,0,1-.56.33.81.81,0,0,1-.61-.22l-.51-.51a1.77,1.77,0,0,0-.35-.23,11.17,11.17,0,0,1-2.14,2.15,2.78,2.78,0,0,0,.28.42l.45.44a.77.77,0,0,1,.22.61.75.75,0,0,1-.33.56,12.56,12.56,0,0,1-4.79,2Zm-8-2.78a11.21,11.21,0,0,0,2.57,1.06,3.74,3.74,0,0,1,.46-1.38l.06-.08a.66.66,0,0,1,.78-.33,9.09,9.09,0,0,0,3.6,0,.78.78,0,0,1,.76.3.21.21,0,0,1,0,.06,4,4,0,0,1,.51,1.43,11.16,11.16,0,0,0,2.57-1.07,3.41,3.41,0,0,1-.6-1.14.78.78,0,0,1-.05-.14.47.47,0,0,1,0-.17.77.77,0,0,1,.33-.72,9.38,9.38,0,0,0,2.57-2.57.78.78,0,0,1,.8-.32H346a3.58,3.58,0,0,1,1.31.65,10.93,10.93,0,0,0,1.05-2.57,3.77,3.77,0,0,1-1.36-.46l-.1-.07a.67.67,0,0,1-.31-.77,9.09,9.09,0,0,0,0-3.6.77.77,0,0,1,.3-.76l.11-.07a3.68,3.68,0,0,1,1.36-.48,11.4,11.4,0,0,0-1.05-2.56,3.65,3.65,0,0,1-1.31.65l-.14,0a.8.8,0,0,1-.73-.33,9.59,9.59,0,0,0-2.56-2.56.78.78,0,0,1-.33-.74s0-.09,0-.13a3.72,3.72,0,0,1,.64-1.31,11,11,0,0,0-2.56-1,3.48,3.48,0,0,1-.47,1.36.49.49,0,0,1-.07.11.74.74,0,0,1-.76.3,9.71,9.71,0,0,0-1.8-.18h0a9.88,9.88,0,0,0-1.8.18.76.76,0,0,1-.77-.31l-.05-.08a3.93,3.93,0,0,1-.49-1.38,11.3,11.3,0,0,0-2.56,1,3.65,3.65,0,0,1,.65,1.31.68.68,0,0,1,0,.2.81.81,0,0,1-.33.66,9.45,9.45,0,0,0-2.56,2.56.76.76,0,0,1-.77.32l-.15,0a3.44,3.44,0,0,1-1.27-.62,11,11,0,0,0-1.06,2.57,3.58,3.58,0,0,1,1.38.47l.14.09a.64.64,0,0,1,.27.74,9.55,9.55,0,0,0-.18,1.8,9.71,9.71,0,0,0,.18,1.8.77.77,0,0,1-.31.76l-.1.07a3.78,3.78,0,0,1-1.38.48,11.21,11.21,0,0,0,1.06,2.57,3.5,3.5,0,0,1,1.34-.65h.15a.65.65,0,0,1,.69.33,9.56,9.56,0,0,0,2.56,2.55.77.77,0,0,1,.31.82A3.36,3.36,0,0,1,331.54,163.81Z"/>
      </g>
      <g>
        <path class="cls-2" d="M340.51,153.73a3.31,3.31,0,1,1-3.3-3.31A3.3,3.3,0,0,1,340.51,153.73Z"/>
        <path class="cls-1" d="M337.21,157.8a4.07,4.07,0,1,1,4.06-4.07A4.07,4.07,0,0,1,337.21,157.8Zm0-6.61a2.54,2.54,0,1,0,2.54,2.54A2.54,2.54,0,0,0,337.21,151.19Z"/>
      </g>
    </g>
    <g>
      <g>
        <path class="cls-2" d="M326.13,176.71l-.05-.05a14,14,0,0,0,0-5.57s0,0,.05-.05a4.47,4.47,0,0,1,1.73-.56h1.05a17.38,17.38,0,0,0-2.66-6.46l-.74.74a4.14,4.14,0,0,1-1.64.84h-.06a14.85,14.85,0,0,0-4-4,.15.15,0,0,1,0-.06,4,4,0,0,1,.85-1.64l.73-.74a17.47,17.47,0,0,0-6.46-2.66v1.05a4.41,4.41,0,0,1-.56,1.73l-.05.06a14,14,0,0,0-5.57,0l-.05-.06a4.41,4.41,0,0,1-.56-1.73v-1.05a17.27,17.27,0,0,0-6.46,2.66l.73.74a4.2,4.2,0,0,1,.86,1.64v0a14.81,14.81,0,0,0-4,4h-.1a4.18,4.18,0,0,1-1.61-.82l-.74-.74a17.1,17.1,0,0,0-2.69,6.46h1.05A4.45,4.45,0,0,1,297,171l.05.05a14,14,0,0,0,0,5.57s0,0-.05.05a4.62,4.62,0,0,1-1.76.57h-1.05a16.9,16.9,0,0,0,2.69,6.46l.74-.74a4,4,0,0,1,1.61-.82h.08a14.74,14.74,0,0,0,4,4s0,0,0,.08a4,4,0,0,1-.83,1.61l-.73.74a16.68,16.68,0,0,0,6.46,2.69v-1.05a4.35,4.35,0,0,1,.56-1.75l.05-.06a15,15,0,0,0,2.78.28,14.27,14.27,0,0,0,2.79-.29s0,0,.05.07a4.35,4.35,0,0,1,.56,1.75v1.05a16.88,16.88,0,0,0,6.46-2.69l-.73-.74a4,4,0,0,1-.83-1.61h0a.2.2,0,0,1,0-.07,15,15,0,0,0,4-4h0a4,4,0,0,1,1.64.85l.74.74a17.17,17.17,0,0,0,2.66-6.46h-1.05A4.64,4.64,0,0,1,326.13,176.71Z"/>
        <path class="cls-1" d="M315,192a.74.74,0,0,1-.49-.18.77.77,0,0,1-.27-.59v-1.05a3.88,3.88,0,0,0-.26-1,14.29,14.29,0,0,1-4.75,0,3.67,3.67,0,0,0-.26,1.05v1a.74.74,0,0,1-.28.59.79.79,0,0,1-.63.16,17.48,17.48,0,0,1-6.75-2.81.76.76,0,0,1-.32-.56.79.79,0,0,1,.21-.61l.74-.74a3.41,3.41,0,0,0,.49-.83,15.53,15.53,0,0,1-3.38-3.39,3.87,3.87,0,0,0-.91.55l-.67.68a.75.75,0,0,1-1.16-.11,17.37,17.37,0,0,1-2.82-6.75.8.8,0,0,1,.16-.63.76.76,0,0,1,.59-.28h1.05a3.77,3.77,0,0,0,1-.26,14.2,14.2,0,0,1,0-4.75,3.83,3.83,0,0,0-1.06-.26h-1a.76.76,0,0,1-.59-.28.78.78,0,0,1-.16-.63,17.85,17.85,0,0,1,2.81-6.75.79.79,0,0,1,.56-.32.75.75,0,0,1,.61.22l.74.74a3.66,3.66,0,0,0,.85.49,15.75,15.75,0,0,1,3.38-3.39,3.42,3.42,0,0,0-.54-.89l-.69-.68a.76.76,0,0,1-.22-.62.79.79,0,0,1,.32-.56,18.08,18.08,0,0,1,6.75-2.78.78.78,0,0,1,.63.16.76.76,0,0,1,.28.59v1.05a3.67,3.67,0,0,0,.26.94,14,14,0,0,1,4.75,0,3.8,3.8,0,0,0,.26-1v-1a.78.78,0,0,1,.27-.59.81.81,0,0,1,.64-.16,18.11,18.11,0,0,1,6.74,2.78.75.75,0,0,1,.33.56.73.73,0,0,1-.22.62l-.73.73a3.15,3.15,0,0,0-.51.85,15.57,15.57,0,0,1,3.39,3.39,3.51,3.51,0,0,0,.9-.55l.69-.69a.74.74,0,0,1,.61-.22.75.75,0,0,1,.56.33,18.14,18.14,0,0,1,2.75,6.57.87.87,0,0,1,.06.32.77.77,0,0,1-.77.76h-1.06a3.67,3.67,0,0,0-.94.26,14.2,14.2,0,0,1,0,4.75,4.17,4.17,0,0,0,1,.27h1a.77.77,0,0,1,.75.91,18.15,18.15,0,0,1-2.78,6.75.76.76,0,0,1-1.17.11l-.74-.74a3.17,3.17,0,0,0-.84-.5,15.57,15.57,0,0,1-3.39,3.39,4.24,4.24,0,0,0,.56.91l.68.67a.72.72,0,0,1,.21.61.77.77,0,0,1-.32.56,17.69,17.69,0,0,1-6.75,2.81Zm-.61-4.4a.77.77,0,0,1,.65.37,4.87,4.87,0,0,1,.72,2.13v.18a16.22,16.22,0,0,0,4.5-1.87l-.08-.07a5.05,5.05,0,0,1-1-1.8.74.74,0,0,1-.07-.21.88.88,0,0,1,.31-.85,13.88,13.88,0,0,0,3.78-3.78.76.76,0,0,1,.81-.31.37.37,0,0,1,.15,0,4.66,4.66,0,0,1,1.85,1l.12.11A16.71,16.71,0,0,0,328,178h-.1a5.3,5.3,0,0,1-2.11-.67l-.13-.09a.8.8,0,0,1-.3-.76,13.09,13.09,0,0,0,0-5.29.78.78,0,0,1,.32-.77.18.18,0,0,1,.09-.06,5.08,5.08,0,0,1,2-.68H328a16.3,16.3,0,0,0-1.85-4.48l-.06.06a4.9,4.9,0,0,1-2,1l-.15,0a.77.77,0,0,1-.73-.33,14.23,14.23,0,0,0-3.77-3.77.77.77,0,0,1-.33-.67,1,1,0,0,1,0-.17,4.91,4.91,0,0,1,1-2l.11-.11a16.62,16.62,0,0,0-4.48-1.85v.1a5.19,5.19,0,0,1-.67,2.11.61.61,0,0,1-.1.14.76.76,0,0,1-.75.29,13.09,13.09,0,0,0-5.29,0,.79.79,0,0,1-.77-.31,1.63,1.63,0,0,1-.11-.17,5.08,5.08,0,0,1-.63-2v-.19a16.6,16.6,0,0,0-4.49,1.85l.06.06a5,5,0,0,1,1.05,2,.3.3,0,0,1,0,.1.75.75,0,0,1-.32.77A14,14,0,0,0,300,166a.75.75,0,0,1-.75.32l-.19,0a4.83,4.83,0,0,1-1.88-.95l-.13-.14a16.6,16.6,0,0,0-1.87,4.49h.1a5.39,5.39,0,0,1,2.14.67l.13.09a.69.69,0,0,1,.3.76,14.18,14.18,0,0,0-.27,2.65,15,15,0,0,0,.26,2.64.74.74,0,0,1-.28.75.61.61,0,0,1-.14.1,5.28,5.28,0,0,1-2,.67h-.19a16,16,0,0,0,1.87,4.49l.07-.07a4.73,4.73,0,0,1,2-1l.17,0a.65.65,0,0,1,.7.33,14,14,0,0,0,3.74,3.75.78.78,0,0,1,.33.77.37.37,0,0,1,0,.15,4.64,4.64,0,0,1-1,1.87l-.13.14a15.67,15.67,0,0,0,4.49,1.87v-.1a5.39,5.39,0,0,1,.67-2.14l.11-.15a.81.81,0,0,1,.74-.27,12.91,12.91,0,0,0,5.29,0Z"/>
      </g>
      <g>
        <path class="cls-2" d="M320.36,173.87a8.79,8.79,0,1,1-8.79-8.78A8.8,8.8,0,0,1,320.36,173.87Z"/>
        <path class="cls-1" d="M311.57,183.42a9.55,9.55,0,1,1,9.55-9.55A9.56,9.56,0,0,1,311.57,183.42Zm0-17.57a8,8,0,1,0,8,8A8,8,0,0,0,311.57,165.85Z"/>
      </g>
    </g>
    <g>
      <path class="cls-1" d="M563.51,88a.77.77,0,0,1-.77-.77,2.64,2.64,0,0,0-2.64-2.64H525.62a.76.76,0,0,1-.76-.76.77.77,0,0,1,.76-.77H560.1a4.17,4.17,0,0,1,4.17,4.17A.77.77,0,0,1,563.51,88Z"/>
      <path class="cls-1" d="M531,92.22c-2.83,0-6.14-.75-6.14-2.88V83.78a.77.77,0,0,1,.76-.77h10.76a.78.78,0,0,1,.77.77v2.53a6,6,0,0,1-5.77,5.91Zm-4.61-7.68v4.8c0,.56,1.76,1.35,4.61,1.35h.34a4.41,4.41,0,0,0,4.28-4.38V84.54Z"/>
      <path class="cls-1" d="M545.92,92.22h-.37a5.87,5.87,0,0,1-5.77-5.91V83.78a.77.77,0,0,1,.76-.77H551.3a.77.77,0,0,1,.76.77v5.55C552.06,91.46,548.75,92.22,545.92,92.22Zm-4.61-7.68V86.3a4.4,4.4,0,0,0,4.27,4.38h.34c2.86,0,4.61-.79,4.61-1.36V84.54Z"/>
      <path class="cls-1" d="M528.18,88.94a.77.77,0,0,1-.76-.77V86.26a.76.76,0,0,1,.76-.77h2a.77.77,0,0,1,0,1.53H529v1.15A.77.77,0,0,1,528.18,88.94Z"/>
    </g>
    <g>
      <path class="cls-1" d="M684.65,159.92H671.57a.76.76,0,0,1-.76-.76.77.77,0,0,1,.76-.77h13.08a.77.77,0,0,1,.76.77A.76.76,0,0,1,684.65,159.92Z"/>
      <path class="cls-1" d="M684.65,164.54H671.57a.77.77,0,0,1,0-1.53h13.08a.77.77,0,0,1,0,1.53Z"/>
      <path class="cls-1" d="M679.17,169.15h-7.6a.76.76,0,0,1-.76-.76.77.77,0,0,1,.76-.77h7.6a.77.77,0,0,1,.76.77A.76.76,0,0,1,679.17,169.15Z"/>
    </g>
    <g>
      <path class="cls-1" d="M315.66,115.29H311a.78.78,0,0,1-.77-.77v-4.66a.77.77,0,0,1,.77-.77h4.66a.77.77,0,0,1,.77.77v4.66A.78.78,0,0,1,315.66,115.29Zm-3.9-1.53h3.14v-3.14h-3.14Z"/>
      <path class="cls-1" d="M351.4,121.36h-31a.76.76,0,0,1-.77-.76V101.41a.77.77,0,0,1,.77-.77h31a.77.77,0,0,1,.76.77V120.6A.76.76,0,0,1,351.4,121.36Zm-30.25-1.53h29.48V102.17H321.15Z"/>
      <path class="cls-1" d="M345.91,108.21H326.84a.77.77,0,0,1-.77-.77.76.76,0,0,1,.77-.76h19.07a.76.76,0,0,1,.77.76A.77.77,0,0,1,345.91,108.21Z"/>
      <path class="cls-1" d="M336.34,114.28h-9.5a.77.77,0,1,1,0-1.53h9.5a.77.77,0,1,1,0,1.53Z"/>
      <path class="cls-1" d="M333.62,131.58h-19a.76.76,0,0,1-.76-.76v-5.39a.76.76,0,0,1,.76-.77h19a.76.76,0,0,1,.76.77v5.39A.76.76,0,0,1,333.62,131.58Zm-18.26-1.53h17.49v-3.86H315.36Z"/>
    </g>
    <g>
      <g>
        <polygon class="cls-2" points="267.7 240.68 222.92 240.68 222.92 225.26 249.84 225.26 261.33 218.38 261.36 225.26 267.7 225.26 267.7 240.68"/>
        <path class="cls-1" d="M267.7,241.46H222.92a.78.78,0,0,1-.79-.78V225.26a.79.79,0,0,1,.79-.79h26.71l11.29-6.77a.8.8,0,0,1,.79,0,.81.81,0,0,1,.41.69l0,6.09h5.55a.79.79,0,0,1,.79.79v15.42A.78.78,0,0,1,267.7,241.46Zm-44-1.57h43.21V226.05h-5.56a.8.8,0,0,1-.79-.79l0-5.49-10.3,6.16a.73.73,0,0,1-.41.12H223.71Z"/>
      </g>
      <g>
        <rect class="cls-2" x="227.56" y="230.04" width="6.25" height="6.25"/>
        <path class="cls-1" d="M233.81,237.07h-6.25a.78.78,0,0,1-.79-.78V230a.79.79,0,0,1,.79-.79h6.25a.8.8,0,0,1,.79.79v6.25A.79.79,0,0,1,233.81,237.07Zm-5.46-1.57H233v-4.67h-4.67Z"/>
      </g>
      <g>
        <path class="cls-1" d="M259.36,231.27h-21a.79.79,0,1,1,0-1.57h21a.79.79,0,0,1,0,1.57Z"/>
        <path class="cls-1" d="M244.51,235.86h-6.18a.79.79,0,1,1,0-1.58h6.18a.79.79,0,0,1,0,1.58Z"/>
        <path class="cls-1" d="M252.44,235.86h-3.09a.79.79,0,0,1,0-1.58h3.09a.79.79,0,0,1,0,1.58Z"/>
      </g>
    </g>
    <g>
      <path class="cls-1" d="M401.12,230.79a13.43,13.43,0,1,1,13.43-13.43A13.44,13.44,0,0,1,401.12,230.79Zm0-25.25A11.83,11.83,0,1,0,413,217.36,11.83,11.83,0,0,0,401.12,205.54Z"/>
      <path class="cls-1" d="M401.12,226.66a9.3,9.3,0,1,1,9.3-9.3A9.31,9.31,0,0,1,401.12,226.66Zm0-17a7.7,7.7,0,1,0,7.7,7.69A7.71,7.71,0,0,0,401.12,209.67Z"/>
      <path class="cls-1" d="M396.34,218.16a.8.8,0,0,1-.8-.8,5.6,5.6,0,0,1,5.58-5.58.81.81,0,0,1,0,1.61,4,4,0,0,0-4,4A.8.8,0,0,1,396.34,218.16Z"/>
      <g>
        <path class="cls-2" d="M410.05,226.29l3.76,3.76Z"/>
        <path class="cls-1" d="M413.81,230.85a.85.85,0,0,1-.57-.23l-3.75-3.76a.8.8,0,0,1,1.13-1.13l3.76,3.75a.81.81,0,0,1,0,1.14A.83.83,0,0,1,413.81,230.85Z"/>
      </g>
      <g>
        <path class="cls-2" d="M415.36,225.82l7,7a4.09,4.09,0,0,1-2.9,7,4.06,4.06,0,0,1-2.89-1.19l-7-7Z"/>
        <path class="cls-1" d="M419.5,240.63A4.84,4.84,0,0,1,416,239.2l-7-7a.79.79,0,0,1,0-1.13l5.79-5.79a.8.8,0,0,1,1.13,0l7,7a4.89,4.89,0,0,1-3.46,8.35Zm-8.79-9,6.46,6.47a3.38,3.38,0,0,0,4.66,0,3.31,3.31,0,0,0,0-4.66L415.36,227Z"/>
      </g>
    </g>
    <path class="cls-1" d="M703.39,198a.79.79,0,0,1-.56-.23L698.07,193l-3.82,3.81a.78.78,0,0,1-.72.22.8.8,0,0,1-.59-.49l-8.3-20.74a.8.8,0,0,1,.18-.87.82.82,0,0,1,.86-.18l20.77,8.29a.8.8,0,0,1,.27,1.31l-3.82,3.81,4.76,4.76a.8.8,0,0,1,0,1.13l-3.7,3.71A.79.79,0,0,1,703.39,198Zm-5.32-6.93h0a.82.82,0,0,1,.57.24l4.75,4.76L706,193.5l-4.75-4.75a.79.79,0,0,1,0-1.13l3.52-3.52L686.82,177,694,194.84l3.52-3.52A.82.82,0,0,1,698.07,191.08Z"/>
    <g>
      <g>
        <g>
          <path class="cls-2" d="M180.74,60.05c-.09,3.78,5.7,3.78,5.61,0V56.77h-5.61Z"/>
          <path class="cls-1" d="M183.55,63.67a3.67,3.67,0,0,1-2.64-1.06A3.48,3.48,0,0,1,180,60V56.77a.79.79,0,0,1,.79-.79h5.61a.79.79,0,0,1,.79.79v3.28a3.46,3.46,0,0,1-1,2.56A3.66,3.66,0,0,1,183.55,63.67Zm-2-6.11v2.49a2,2,0,0,0,.51,1.46,2.31,2.31,0,0,0,3,0,1.88,1.88,0,0,0,.5-1.44V57.56Z"/>
        </g>
        <g>
          <polygon class="cls-2" points="191.52 59.33 175.57 59.33 177.88 54.95 189.21 54.95 191.52 59.33"/>
          <path class="cls-1" d="M191.54,60.12h-16a.82.82,0,0,1-.68-.38.8.8,0,0,1,0-.78l2.32-4.38a.77.77,0,0,1,.69-.42h11.33a.77.77,0,0,1,.69.42l2.24,4.24a.79.79,0,0,1-.6,1.3Zm-14.66-1.58h13.33l-1.48-2.81H178.36Z"/>
        </g>
        <g>
          <path class="cls-2" d="M189.24,48.28c.18-7.67-11.56-7.67-11.38,0V55h11.38Z"/>
          <path class="cls-1" d="M189.24,55.73H177.86a.78.78,0,0,1-.79-.78V48.28a6.23,6.23,0,0,1,1.7-4.63,6.92,6.92,0,0,1,9.55,0A6.29,6.29,0,0,1,190,48.3V55A.79.79,0,0,1,189.24,55.73Zm-10.6-1.57h9.81V48.28a4.75,4.75,0,0,0-1.26-3.53,5.36,5.36,0,0,0-7.29,0,4.78,4.78,0,0,0-1.26,3.52Z"/>
        </g>
      </g>
      <g>
        <g>
          <path class="cls-1" d="M194.79,58.31a.85.85,0,0,1-.31-.06.8.8,0,0,1-.42-1,11.62,11.62,0,0,0,0-9,.79.79,0,1,1,1.45-.61,13.26,13.26,0,0,1,0,10.27A.78.78,0,0,1,194.79,58.31Z"/>
          <path class="cls-1" d="M199.06,60a.85.85,0,0,1-.31-.06.78.78,0,0,1-.41-1,16.15,16.15,0,0,0,0-12.49.79.79,0,0,1,1.46-.61,17.72,17.72,0,0,1,0,13.71A.79.79,0,0,1,199.06,60Z"/>
        </g>
        <g>
          <path class="cls-1" d="M171.62,58.31a.79.79,0,0,1-.72-.48,13.26,13.26,0,0,1,0-10.27.79.79,0,0,1,1.45.61,11.62,11.62,0,0,0,0,9,.8.8,0,0,1-.42,1A.81.81,0,0,1,171.62,58.31Z"/>
          <path class="cls-1" d="M167.35,60a.79.79,0,0,1-.73-.48,17.72,17.72,0,0,1,0-13.71.79.79,0,0,1,1.46.61,16.11,16.11,0,0,0,0,12.49.77.77,0,0,1-.41,1A.85.85,0,0,1,167.35,60Z"/>
        </g>
      </g>
    </g>
    <g>
      <g>
        <path class="cls-2" d="M188.74,114.68c0-6.71-8.52-6.71-8.52,0v44.7l4.26,16.75,4.26-16.75Z"/>
        <path class="cls-1" d="M184.48,176.92a.79.79,0,0,1-.76-.6l-4.26-16.74a.68.68,0,0,1,0-.2v-44.7c0-3.82,2.53-5.82,5-5.82a4.79,4.79,0,0,1,3.5,1.5,6.12,6.12,0,0,1,1.54,4.32v44.7a.69.69,0,0,1,0,.2l-4.25,16.74A.8.8,0,0,1,184.48,176.92ZM181,159.28l3.47,13.65L188,159.28v-44.6a4.56,4.56,0,0,0-1.12-3.23,3.19,3.19,0,0,0-2.35-1c-1.67,0-3.47,1.33-3.47,4.25Z"/>
      </g>
      <path class="cls-1" d="M188.74,119.87h-8.52a.79.79,0,0,1,0-1.58h8.52a.79.79,0,0,1,0,1.58Z"/>
      <path class="cls-1" d="M188.74,124.46h-8.52a.79.79,0,0,1,0-1.58h8.52a.79.79,0,0,1,0,1.58Z"/>
      <path class="cls-1" d="M186.51,167.1h-4.06a.79.79,0,0,1,0-1.58h4.06a.79.79,0,0,1,0,1.58Z"/>
      <path class="cls-1" d="M188.74,159.9h-8.52a.79.79,0,0,1,0-1.58h8.52a.79.79,0,1,1,0,1.58Z"/>
      <path class="cls-1" d="M183.21,155.89a.79.79,0,0,1-.79-.79V124.24a.79.79,0,1,1,1.57,0V155.1A.79.79,0,0,1,183.21,155.89Z"/>
    </g>
    <g>
      <path class="cls-1" d="M557.69,107.13h-6.91a.78.78,0,0,1-.78-.79v-5.26a.78.78,0,0,1,.78-.79h6.91a.79.79,0,0,1,.79.79v5.26A.79.79,0,0,1,557.69,107.13Zm-6.12-1.58h5.33v-3.69h-5.33Z"/>
      <path class="cls-1" d="M557.69,115.92h-6.91a.78.78,0,0,1-.78-.79v-5.26a.78.78,0,0,1,.78-.79h6.91a.79.79,0,0,1,.79.79v5.26A.79.79,0,0,1,557.69,115.92Zm-6.12-1.58h5.33v-3.68h-5.33Z"/>
      <path class="cls-1" d="M557.69,124.71h-6.91a.78.78,0,0,1-.78-.79v-5.26a.79.79,0,0,1,.78-.79h6.91a.79.79,0,0,1,.79.79v5.26A.79.79,0,0,1,557.69,124.71Zm-6.12-1.57h5.33v-3.69h-5.33Z"/>
    </g>
    <g>
      <path class="cls-1" d="M110.06,182.22h-3.7a.77.77,0,0,1-.77-.76V170.3a.77.77,0,0,1,.77-.76h3.7a.76.76,0,0,1,.76.76v11.16A.76.76,0,0,1,110.06,182.22Zm-2.94-1.53h2.17v-9.62h-2.17Z"/>
      <path class="cls-1" d="M117.65,182.22H114a.76.76,0,0,1-.77-.76V170.3a.76.76,0,0,1,.77-.76h3.69a.76.76,0,0,1,.77.76v11.16A.76.76,0,0,1,117.65,182.22Zm-2.93-1.53h2.17v-9.62h-2.17Z"/>
      <path class="cls-1" d="M125.25,182.22h-3.7a.76.76,0,0,1-.76-.76V170.3a.76.76,0,0,1,.76-.76h3.7a.77.77,0,0,1,.77.76v11.16A.77.77,0,0,1,125.25,182.22Zm-2.93-1.53h2.17v-9.62h-2.17Z"/>
    </g>
    <g>
      <g>
        <path class="cls-2" d="M119.89,86.39l-.59,6.75a4.09,4.09,0,0,1-4.07,3.74H82.86a4.1,4.1,0,0,1-4.07-3.74l-.58-6.75.73-16.17A4.09,4.09,0,0,1,83,66.33h32.05a4.08,4.08,0,0,1,4.09,3.89Z"/>
        <path class="cls-1" d="M115.23,97.65H82.86A4.84,4.84,0,0,1,78,93.21l-.58-6.75.73-16.27A4.84,4.84,0,0,1,83,65.56h32.05a4.85,4.85,0,0,1,4.86,4.63l.73,16.17v.1l-.59,6.75A4.89,4.89,0,0,1,115.23,97.65ZM83,67.09a3.31,3.31,0,0,0-3.31,3.17L79,86.43l.57,6.65a3.33,3.33,0,0,0,3.31,3h32.37a3.34,3.34,0,0,0,3.31-3l.59-6.7-.73-16.12a3.32,3.32,0,0,0-3.33-3.17Z"/>
      </g>
      <g>
        <path class="cls-2" d="M119.64,80.85a5.31,5.31,0,0,1-5.29,5.54H83.74a5.3,5.3,0,0,1-5.28-5.53l.48-10.63A4.09,4.09,0,0,1,83,66.32h32a4.09,4.09,0,0,1,4.09,3.91Z"/>
        <path class="cls-1" d="M114.35,87.15H83.74a6.05,6.05,0,0,1-6-6.33l.48-10.63A4.86,4.86,0,0,1,83,65.55h32a4.86,4.86,0,0,1,4.86,4.64l.48,10.63a6.05,6.05,0,0,1-6.05,6.33ZM83,67.08a3.33,3.33,0,0,0-3.33,3.18l-.48,10.63a4.53,4.53,0,0,0,4.52,4.73h30.61a4.53,4.53,0,0,0,4.52-4.73l-.48-10.63a3.33,3.33,0,0,0-3.33-3.18Z"/>
      </g>
      <path class="cls-1" d="M99.06,87.15h0a.77.77,0,0,1-.77-.76.77.77,0,1,1,1.54,0A.75.75,0,0,1,99.06,87.15Z"/>
      <path class="cls-1" d="M106.9,67.07a.76.76,0,0,1-.76-.76V61.13a25.51,25.51,0,0,0-14.18,0v5.18a.77.77,0,0,1-.77.76.76.76,0,0,1-.76-.76v-5.7a.77.77,0,0,1,.46-.71c4.2-1.76,12.12-1.76,16.31,0a.78.78,0,0,1,.47.71v5.7A.76.76,0,0,1,106.9,67.07Z"/>
      <path class="cls-1" d="M106.9,63.25H91.19a.76.76,0,0,1-.76-.76.77.77,0,0,1,.76-.77H106.9a.77.77,0,0,1,.77.77A.76.76,0,0,1,106.9,63.25Z"/>
      <g>
        <rect class="cls-2" x="95.18" y="84.89" width="7.74" height="5.09"/>
        <path class="cls-1" d="M102.92,90.75H95.18a.78.78,0,0,1-.77-.77V84.89a.77.77,0,0,1,.77-.76h7.74a.76.76,0,0,1,.76.76V90A.77.77,0,0,1,102.92,90.75Zm-7-1.53h6.21V85.66H95.94Z"/>
      </g>
    </g>
    <g>
      <path class="cls-1" d="M754.86,121.59a.78.78,0,0,1-.71-.47l-.19-.46a.77.77,0,0,1,1.41-.6l.19.47a.76.76,0,0,1-.41,1A.72.72,0,0,1,754.86,121.59Z"/>
      <path class="cls-1" d="M760.08,143.62a.76.76,0,0,1-.76-.71c0-.31-.05-.62-.08-.93a.78.78,0,0,1,.7-.83.77.77,0,0,1,.83.69c0,.32.05.64.07,1a.76.76,0,0,1-.7.82Zm-.64-5.65a.76.76,0,0,1-.75-.65l-.15-.92a.77.77,0,0,1,1.51-.25l.15.94a.76.76,0,0,1-.64.87Zm-1.08-5.58a.77.77,0,0,1-.75-.59c-.07-.3-.14-.6-.22-.91a.76.76,0,0,1,1.48-.37c.08.31.16.62.23.93a.77.77,0,0,1-.57.92Zm-1.54-5.47a.76.76,0,0,1-.72-.53l-.3-.89a.77.77,0,0,1,.48-1,.76.76,0,0,1,1,.48l.3.91a.76.76,0,0,1-.49,1A.67.67,0,0,1,756.82,126.92Z"/>
      <path class="cls-1" d="M760.27,148.86a.76.76,0,0,1-.76-.76v-.5a.77.77,0,0,1,.76-.77h0a.76.76,0,0,1,.76.76v.51A.76.76,0,0,1,760.27,148.86Z"/>
    </g>
    <path class="cls-1" d="M748.94,110.32a.78.78,0,0,1-.64-.35,70.73,70.73,0,0,0-26.25-24.12.78.78,0,0,1-.32-1,.77.77,0,0,1,1-.31,72.3,72.3,0,0,1,26.82,24.64.76.76,0,0,1-.23,1A.72.72,0,0,1,748.94,110.32Z"/>
    <g>
      <path class="cls-1" d="M418,90.4l.41.91a.77.77,0,0,1-.38,1,.78.78,0,0,1-1-.38l-.41-.92a.77.77,0,1,1,1.4-.62Z"/>
      <path class="cls-1" d="M420.41,95.87l.41.91a.77.77,0,0,1-1.4.63L419,96.5a.76.76,0,0,1,.39-1A.75.75,0,0,1,420.41,95.87Z"/>
      <path class="cls-1" d="M422.87,101.34l.41.91a.77.77,0,1,1-1.4.63l-.41-.91a.77.77,0,0,1,1.4-.63Z"/>
      <path class="cls-1" d="M425.33,106.81l.41.92a.77.77,0,1,1-1.4.62l-.41-.91a.77.77,0,0,1,1.4-.63Z"/>
      <path class="cls-1" d="M427.79,112.29l.41.91a.77.77,0,0,1-.38,1,.78.78,0,0,1-1-.38l-.41-.92a.77.77,0,0,1,1.4-.62Z"/>
      <path class="cls-1" d="M430.25,117.76l.41.91a.77.77,0,0,1-1.4.63l-.41-.91a.76.76,0,0,1,.39-1A.75.75,0,0,1,430.25,117.76Z"/>
      <path class="cls-1" d="M432.71,123.23l.41.91a.77.77,0,0,1-1.4.63l-.4-.91a.75.75,0,0,1,.38-1A.77.77,0,0,1,432.71,123.23Z"/>
      <path class="cls-1" d="M435.17,128.7l.41.92a.77.77,0,1,1-1.4.62l-.4-.91a.75.75,0,0,1,.38-1A.77.77,0,0,1,435.17,128.7Z"/>
      <path class="cls-1" d="M437.63,134.18l.41.91a.76.76,0,0,1-1.39.63l-.41-.92a.76.76,0,0,1,.38-1A.77.77,0,0,1,437.63,134.18Z"/>
      <path class="cls-1" d="M440.09,139.65l.41.91a.77.77,0,0,1-.38,1,.76.76,0,0,1-1-.38l-.42-.91a.76.76,0,0,1,.39-1A.75.75,0,0,1,440.09,139.65Z"/>
      <path class="cls-1" d="M442.55,145.12l.41.91a.77.77,0,0,1-.38,1,.75.75,0,0,1-1-.38l-.42-.91a.77.77,0,0,1,1.4-.63Z"/>
      <path class="cls-1" d="M445,150.59l.41.92a.77.77,0,0,1-.38,1,.76.76,0,0,1-1-.39l-.42-.91a.77.77,0,0,1,1.4-.63Z"/>
      <path class="cls-1" d="M447.47,156.07l.41.91a.76.76,0,1,1-1.39.63l-.42-.92a.77.77,0,1,1,1.4-.62Z"/>
      <path class="cls-1" d="M449.93,161.54l.41.91a.77.77,0,0,1-1.4.63l-.41-.91a.76.76,0,0,1,.39-1A.75.75,0,0,1,449.93,161.54Z"/>
      <path class="cls-1" d="M452.39,167l.41.91a.77.77,0,1,1-1.4.63l-.41-.91a.77.77,0,0,1,1.4-.63Z"/>
      <path class="cls-1" d="M454.85,172.48l.41.92a.77.77,0,1,1-1.4.62l-.41-.91a.77.77,0,0,1,1.4-.63Z"/>
      <path class="cls-1" d="M457.31,178l.41.91a.77.77,0,0,1-.38,1,.78.78,0,0,1-1-.38l-.41-.92a.77.77,0,0,1,1.4-.62Z"/>
      <path class="cls-1" d="M459.77,183.43l.41.91a.77.77,0,0,1-1.4.63l-.4-.91a.76.76,0,0,1,1.39-.63Z"/>
      <path class="cls-1" d="M462.23,188.9l.41.91a.77.77,0,0,1-1.4.63l-.4-.91a.75.75,0,0,1,.38-1A.77.77,0,0,1,462.23,188.9Z"/>
      <path class="cls-1" d="M464.69,194.37l.41.92a.77.77,0,0,1-.38,1,.76.76,0,0,1-1-.39l-.41-.91a.75.75,0,0,1,.38-1A.77.77,0,0,1,464.69,194.37Z"/>
      <path class="cls-1" d="M467.15,199.85l.41.91a.76.76,0,1,1-1.39.63l-.41-.92a.76.76,0,0,1,.38-1A.77.77,0,0,1,467.15,199.85Z"/>
      <path class="cls-1" d="M469.61,205.32l.41.91a.77.77,0,0,1-.38,1,.76.76,0,0,1-1-.38l-.41-.91a.76.76,0,0,1,1.39-.63Z"/>
    </g>
    <path class="cls-1" d="M383.05,158l6.4-17.47a.77.77,0,0,1,1.44.53l-6.41,17.47a.76.76,0,0,1-1,.45A.75.75,0,0,1,383.05,158Z"/>
    <g>
      <path class="cls-1" d="M452.05,122.22h17.22a.77.77,0,1,1,0,1.53H452.05a.77.77,0,1,1,0-1.53Z"/>
      <path class="cls-1" d="M452.05,126.81h17.22a.77.77,0,1,1,0,1.53H452.05a.77.77,0,1,1,0-1.53Z"/>
      <path class="cls-1" d="M452.05,131.4h7.56a.77.77,0,0,1,0,1.53h-7.56a.77.77,0,1,1,0-1.53Z"/>
    </g>
    <path class="cls-1" d="M33,109.49a.76.76,0,0,1-.77-.77V87.33A10.37,10.37,0,0,1,42.56,77h6.53a.77.77,0,0,1,.77.76.78.78,0,0,1-.77.77H42.56a8.84,8.84,0,0,0-8.83,8.83v21.39A.76.76,0,0,1,33,109.49Z"/>
    <path class="cls-1" d="M51.22,206.54h-1a.76.76,0,0,1-.76-.76.77.77,0,0,1,.76-.77h1a.77.77,0,0,1,.76.77A.76.76,0,0,1,51.22,206.54Zm-6,0h-1a.76.76,0,0,1-.76-.76.77.77,0,0,1,.76-.77h1a.77.77,0,0,1,.76.77A.76.76,0,0,1,45.22,206.54ZM39.29,206a.75.75,0,0,1-.26-.05,8.8,8.8,0,0,1-1-.42.76.76,0,0,1-.35-1,.75.75,0,0,1,1-.35c.28.13.56.25.85.36a.76.76,0,0,1-.26,1.48Zm-4.66-3.62A.74.74,0,0,1,34,202a7.78,7.78,0,0,1-.56-.92.76.76,0,0,1,1.34-.73,8.72,8.72,0,0,0,.48.79.77.77,0,0,1-.63,1.2ZM33,196.68a.76.76,0,0,1-.77-.76v-1a.77.77,0,1,1,1.53,0v1A.76.76,0,0,1,33,196.68Zm0-6a.76.76,0,0,1-.77-.76v-1a.77.77,0,1,1,1.53,0v1A.76.76,0,0,1,33,190.68Zm0-6a.76.76,0,0,1-.77-.76v-1a.77.77,0,1,1,1.53,0v1A.76.76,0,0,1,33,184.68Zm0-6a.76.76,0,0,1-.77-.76v-1a.77.77,0,1,1,1.53,0v1A.76.76,0,0,1,33,178.68Zm0-6a.76.76,0,0,1-.77-.76v-1a.77.77,0,1,1,1.53,0v1A.76.76,0,0,1,33,172.68Zm0-6a.76.76,0,0,1-.77-.76v-1a.77.77,0,1,1,1.53,0v1A.76.76,0,0,1,33,166.68Zm0-6a.76.76,0,0,1-.77-.76v-1a.77.77,0,1,1,1.53,0v1A.76.76,0,0,1,33,160.68Z"/>
    <g>
      <path class="cls-1" d="M54.25,81.87a.79.79,0,0,1-.46-.15.76.76,0,0,1-.15-1.07l2.19-2.92-2.19-2.91a.76.76,0,1,1,1.22-.92l2.54,3.37a.78.78,0,0,1,0,.92l-2.54,3.37A.77.77,0,0,1,54.25,81.87Z"/>
      <path class="cls-1" d="M61.41,81.87a.79.79,0,0,1-.46-.15.76.76,0,0,1-.15-1.07L63,77.73,60.8,74.82A.76.76,0,1,1,62,73.9l2.53,3.37a.75.75,0,0,1,0,.92L62,81.56A.77.77,0,0,1,61.41,81.87Z"/>
      <path class="cls-1" d="M68.57,81.87a.79.79,0,0,1-.46-.15A.76.76,0,0,1,68,80.65l2.19-2.92L68,74.82a.76.76,0,1,1,1.22-.92l2.53,3.37a.75.75,0,0,1,0,.92l-2.53,3.37A.77.77,0,0,1,68.57,81.87Z"/>
    </g>
    <g>
      <path class="cls-1" d="M760.27,160a.74.74,0,0,1-.46-.16l-3.37-2.53a.76.76,0,1,1,.92-1.22l2.91,2.19,2.92-2.19a.76.76,0,0,1,1.07.15.77.77,0,0,1-.16,1.07l-3.37,2.53A.74.74,0,0,1,760.27,160Z"/>
      <path class="cls-1" d="M760.27,167.12a.74.74,0,0,1-.46-.16l-3.37-2.53a.76.76,0,1,1,.92-1.22l2.91,2.19,2.92-2.19a.76.76,0,0,1,1.07.15.77.77,0,0,1-.16,1.07L760.73,167A.74.74,0,0,1,760.27,167.12Z"/>
      <path class="cls-1" d="M760.27,174.28a.74.74,0,0,1-.46-.16l-3.37-2.53a.76.76,0,1,1,.92-1.22l2.91,2.19,2.92-2.19a.76.76,0,0,1,1.07.15.77.77,0,0,1-.16,1.07l-3.37,2.53A.74.74,0,0,1,760.27,174.28Z"/>
    </g>
    <g>
      <path class="cls-1" d="M400.32,198.91v-1a.76.76,0,0,1,.76-.76.77.77,0,0,1,.77.76v1a.77.77,0,0,1-.77.77A.76.76,0,0,1,400.32,198.91Z"/>
      <path class="cls-1" d="M400.32,192.91v-1a.76.76,0,0,1,.76-.76.77.77,0,0,1,.77.76v1a.77.77,0,0,1-.77.77A.76.76,0,0,1,400.32,192.91Z"/>
      <path class="cls-1" d="M400.32,186.91v-1a.76.76,0,0,1,.76-.76.77.77,0,0,1,.77.76v1a.77.77,0,0,1-.77.77A.76.76,0,0,1,400.32,186.91Z"/>
    </g>
    <g>
      <path class="cls-2" d="M404,175.88a2.89,2.89,0,1,1-2.89-2.88A2.89,2.89,0,0,1,404,175.88Z"/>
      <path class="cls-1" d="M401.08,179.53a3.65,3.65,0,1,1,3.65-3.65A3.66,3.66,0,0,1,401.08,179.53Zm0-5.77a2.12,2.12,0,1,0,2.12,2.12A2.12,2.12,0,0,0,401.08,173.76Z"/>
    </g>
    <g>
      <path class="cls-2" d="M416.63,83.63a2.88,2.88,0,1,1-2.88-2.88A2.88,2.88,0,0,1,416.63,83.63Z"/>
      <path class="cls-1" d="M413.75,87.28a3.65,3.65,0,1,1,3.65-3.65A3.66,3.66,0,0,1,413.75,87.28Zm0-5.77a2.12,2.12,0,1,0,2.12,2.12A2.12,2.12,0,0,0,413.75,81.51Z"/>
    </g>
    <g>
      <path class="cls-2" d="M477,218.38a2.89,2.89,0,1,1-2.88-2.88A2.88,2.88,0,0,1,477,218.38Z"/>
      <path class="cls-1" d="M474.11,222a3.65,3.65,0,1,1,3.64-3.65A3.65,3.65,0,0,1,474.11,222Zm0-5.77a2.12,2.12,0,1,0,2.11,2.12A2.12,2.12,0,0,0,474.11,216.26Z"/>
    </g>
    <g>
      <path class="cls-1" d="M244.79,210.23a.74.74,0,0,1-.46-.16l-2.91-2.19-2.92,2.19a.76.76,0,0,1-1.07-.15.77.77,0,0,1,.15-1.07l3.38-2.53a.75.75,0,0,1,.92,0l3.37,2.53a.77.77,0,0,1-.46,1.38Z"/>
      <path class="cls-1" d="M244.79,203.07a.74.74,0,0,1-.46-.16l-2.91-2.19-2.92,2.19a.76.76,0,0,1-1.07-.15.77.77,0,0,1,.15-1.07l3.38-2.53a.75.75,0,0,1,.92,0l3.37,2.53a.77.77,0,0,1-.46,1.38Z"/>
      <path class="cls-1" d="M244.79,195.91a.74.74,0,0,1-.46-.16l-2.91-2.19-2.92,2.19a.76.76,0,0,1-1.07-.15.77.77,0,0,1,.15-1.07L241,192a.75.75,0,0,1,.92,0l3.37,2.53a.77.77,0,0,1-.46,1.38Z"/>
    </g>
    <g>
      <path class="cls-1" d="M494.74,116.88h0a.77.77,0,0,1-.57-.26l-4.62-5.28a.77.77,0,0,1,.57-1.27h9.25a.77.77,0,0,1,.57,1.27l-4.62,5.28A.8.8,0,0,1,494.74,116.88Zm-2.93-5.28,2.93,3.35,2.94-3.35Z"/>
      <path class="cls-1" d="M494.74,107.08h0a.77.77,0,0,1-.57-.26l-4.62-5.28a.77.77,0,0,1,.57-1.27h9.25a.77.77,0,0,1,.57,1.27l-4.62,5.28A.8.8,0,0,1,494.74,107.08Zm-2.93-5.28,2.93,3.35,2.94-3.35Z"/>
    </g>
    <g>
      <path class="cls-1" d="M182.51,97.81v-1a.76.76,0,0,1,.76-.77.77.77,0,0,1,.77.77v1a.77.77,0,0,1-.77.76A.76.76,0,0,1,182.51,97.81Z"/>
      <path class="cls-1" d="M182.51,91.81v-1a.76.76,0,0,1,.76-.77.77.77,0,0,1,.77.77v1a.77.77,0,0,1-.77.76A.76.76,0,0,1,182.51,91.81Z"/>
      <path class="cls-1" d="M182.51,85.81v-1a.76.76,0,0,1,.76-.77.77.77,0,0,1,.77.77v1a.77.77,0,0,1-.77.76A.76.76,0,0,1,182.51,85.81Z"/>
      <path class="cls-1" d="M182.51,79.81v-1a.76.76,0,0,1,.76-.77.77.77,0,0,1,.77.77v1a.77.77,0,0,1-.77.76A.76.76,0,0,1,182.51,79.81Z"/>
      <path class="cls-1" d="M182.51,73.81v-1a.76.76,0,0,1,.76-.77.77.77,0,0,1,.77.77v1a.77.77,0,0,1-.77.76A.76.76,0,0,1,182.51,73.81Z"/>
    </g>
    <g>
      <path class="cls-1" d="M628.86,249.4c-2,0-4-1.74-4-5.06v-.62h-6a.8.8,0,0,1-.8-.8v-6.46a.8.8,0,0,1,.8-.8h1a4.06,4.06,0,0,0,2.68-.81,2.08,2.08,0,0,0,.78-1.59c0-1.16-1.08-2.41-3.46-2.41h-1a.8.8,0,0,1-.8-.8v-6.46a.8.8,0,0,1,.8-.8h6.75a.8.8,0,0,1,.8.8v.75c0,2.38,1.25,3.47,2.41,3.47s2.41-1.09,2.41-3.47v-.75a.8.8,0,0,1,.8-.8h6.79a.8.8,0,0,1,.8.8v6.46a.8.8,0,0,1-.8.8h-1.08a4.07,4.07,0,0,0-2.67.81,2.08,2.08,0,0,0-.78,1.6c0,1.16,1.07,2.4,3.42,2.4h1.11a.8.8,0,0,1,.8.8v6.46a.8.8,0,0,1-.8.8h-6v.62C632.87,247.66,630.85,249.4,628.86,249.4Zm-9.16-7.28h5.95a.8.8,0,0,1,.8.8v1.42c0,2.38,1.25,3.46,2.41,3.46s2.41-1.08,2.41-3.46v-1.42a.8.8,0,0,1,.8-.8h6v-4.85h-.28c-3.33,0-5.06-2-5.06-4a3.72,3.72,0,0,1,1.35-2.82,5.64,5.64,0,0,1,3.71-1.19h.28V224.4h-5.19c0,3.29-2,5-4,5s-4-1.72-4-5H619.7v4.85h.24c3.32,0,5.06,2,5.06,4s-1.73,4-5,4h-.27Z"/>
      <path class="cls-1" d="M446.34,249.59c-2,0-4-1.74-4-5.07v-.63h-5.95a.8.8,0,0,1-.8-.8v-5.64h-.32c-3.32,0-5.06-2-5.06-4a3.75,3.75,0,0,1,1.34-2.83,5.68,5.68,0,0,1,3.72-1.19h.32v-5.64a.8.8,0,0,1,.8-.8h6.75a.8.8,0,0,1,.81.8v.73c0,2.38,1.25,3.47,2.41,3.47s2.42-1.09,2.42-3.47v-.73a.8.8,0,0,1,.8-.8h6.79a.8.8,0,0,1,.8.8v6.44a.8.8,0,0,1-.8.8h-1.08a4.08,4.08,0,0,0-2.68.81,2.1,2.1,0,0,0-.79,1.61c0,1.16,1.09,2.41,3.47,2.41h1.08a.8.8,0,0,1,.8.8v6.44a.8.8,0,0,1-.8.8h-6v.63C450.36,247.85,448.34,249.59,446.34,249.59Zm-9.17-7.3h5.95a.8.8,0,0,1,.81.8v1.43c0,2.39,1.25,3.47,2.41,3.47s2.42-1.08,2.42-3.47v-1.43a.8.8,0,0,1,.8-.8h6v-4.84h-.28c-3.33,0-5.07-2-5.07-4a3.72,3.72,0,0,1,1.35-2.83,5.66,5.66,0,0,1,3.72-1.19h.28v-4.84h-5.19c0,3.28-2,5-4,5s-4-1.72-4-5h-5.15v5.64a.8.8,0,0,1-.8.8h-1.12c-2.38,0-3.46,1.25-3.46,2.42s1.08,2.41,3.46,2.41h1.12a.8.8,0,0,1,.8.8Z"/>
      <path class="cls-1" d="M608.78,243.72h-20a.8.8,0,0,1-.8-.8v-6.46a.8.8,0,0,1,.8-.8h1a4.09,4.09,0,0,0,2.67-.81,2.09,2.09,0,0,0,.78-1.59c0-1.16-1.08-2.41-3.45-2.41h-1a.8.8,0,0,1-.8-.8v-6.46a.8.8,0,0,1,.8-.8h6.76a.8.8,0,0,1,.8.8v.75c0,2.37,1.25,3.45,2.41,3.45s2.4-1.08,2.4-3.45v-.75a.8.8,0,0,1,.8-.8h6.79a.8.8,0,0,1,.8.8v5.66h.28c3.34,0,5.07,2,5.07,4s-1.74,4-5.07,4h-.28v5.65A.8.8,0,0,1,608.78,243.72Zm-19.16-1.6H608v-5.66a.8.8,0,0,1,.8-.8h1.08a4.13,4.13,0,0,0,2.69-.81,2.11,2.11,0,0,0,.78-1.6c0-1.16-1.08-2.4-3.44-2.4h-1.11a.8.8,0,0,1-.8-.8V224.4h-5.19c0,3.28-2,5-4,5s-4-1.72-4-5h-5.16v4.85h.25c3.32,0,5,2,5,4a3.71,3.71,0,0,1-1.34,2.81,5.66,5.66,0,0,1-3.71,1.2h-.25Z"/>
    </g>
    <g>
      <g>
        <path class="cls-1" d="M150.47,108.21a.79.79,0,0,1-.64-.33c-9.81-13.43-13.32-24.07-13.34-29.1a14,14,0,1,1,27.95-.06c0,1.68-.65,11-13.31,29.14a.81.81,0,0,1-.65.35Zm0-41.88a12.4,12.4,0,0,0-12.38,12.39c0,1.09.4,10.59,12.37,27.3,9.12-13.31,12.38-23,12.38-27.3A12.4,12.4,0,0,0,150.47,66.33Z"/>
        <g>
          <path class="cls-1" d="M150.47,86.78A7.58,7.58,0,1,1,158,79.2,7.59,7.59,0,0,1,150.47,86.78Zm0-13.55a6,6,0,1,0,6,6A6,6,0,0,0,150.47,73.23Z"/>
          <path class="cls-1" d="M150.47,82.44a3.24,3.24,0,1,1,3.24-3.24A3.25,3.25,0,0,1,150.47,82.44Zm0-4.88a1.64,1.64,0,1,0,1.64,1.64A1.65,1.65,0,0,0,150.47,77.56Z"/>
          <path class="cls-1" d="M155.2,84.85a.8.8,0,0,1-.56-.23l-3.07-3.07a.8.8,0,0,1,1.13-1.13l3.07,3.07a.8.8,0,0,1,0,1.13A.83.83,0,0,1,155.2,84.85Z"/>
          <path class="cls-1" d="M148.68,78.33a.76.76,0,0,1-.56-.23L145.06,75a.79.79,0,0,1,0-1.13.8.8,0,0,1,1.13,0L149.25,77a.8.8,0,0,1,0,1.13A.78.78,0,0,1,148.68,78.33Z"/>
        </g>
        <path class="cls-1" d="M159.8,76.45a.8.8,0,0,1-.76-.55,9,9,0,0,0-5.94-5.82.8.8,0,0,1,.47-1.53,10.63,10.63,0,0,1,7,6.85.8.8,0,0,1-.51,1A1.09,1.09,0,0,1,159.8,76.45Z"/>
      </g>
      <g>
        <path class="cls-1" d="M131.54,71.27a.79.79,0,0,1-.65-.33c-5.35-7.32-7.26-13.16-7.28-15.94a7.93,7.93,0,1,1,15.85,0c0,2.69-1.92,8.3-7.26,16a.8.8,0,0,1-.65.34Zm0-22.63A6.33,6.33,0,0,0,125.22,55c0,2,1.37,7.09,6.3,14.11,6.14-9.08,6.34-13.61,6.34-14.11A6.33,6.33,0,0,0,131.54,48.64Z"/>
        <path class="cls-1" d="M131.54,57.73a2.5,2.5,0,1,1,2.5-2.5A2.5,2.5,0,0,1,131.54,57.73Zm0-3.4a.9.9,0,1,0,.9.9A.9.9,0,0,0,131.54,54.33Z"/>
        <path class="cls-1" d="M135.66,54.33a.79.79,0,0,1-.76-.55,3,3,0,0,0-2-1.92.8.8,0,0,1,.47-1.53,4.59,4.59,0,0,1,3,3,.8.8,0,0,1-.51,1A.73.73,0,0,1,135.66,54.33Z"/>
      </g>
    </g>
    <g>
      <path class="cls-2" d="M98.51,204.69A3.66,3.66,0,1,1,94.85,201,3.66,3.66,0,0,1,98.51,204.69Z"/>
      <path class="cls-1" d="M94.85,209.11a4.43,4.43,0,1,1,4.43-4.42A4.42,4.42,0,0,1,94.85,209.11Zm0-7.32a2.9,2.9,0,1,0,2.9,2.9A2.9,2.9,0,0,0,94.85,201.79Z"/>
    </g>
    <g>
      <path class="cls-1" d="M104.73,203.62h1a.77.77,0,0,1,.76.77.76.76,0,0,1-.76.76h-1a.77.77,0,0,1-.77-.76A.78.78,0,0,1,104.73,203.62Z"/>
      <path class="cls-1" d="M110.73,203.62h1a.77.77,0,0,1,.76.77.76.76,0,0,1-.76.76h-1a.77.77,0,0,1-.77-.76A.78.78,0,0,1,110.73,203.62Z"/>
      <path class="cls-1" d="M116.73,203.62h1a.77.77,0,0,1,.76.77.76.76,0,0,1-.76.76h-1a.77.77,0,0,1-.77-.76A.78.78,0,0,1,116.73,203.62Z"/>
      <path class="cls-1" d="M122.73,203.62h1a.77.77,0,0,1,.76.77.76.76,0,0,1-.76.76h-1a.77.77,0,0,1-.77-.76A.78.78,0,0,1,122.73,203.62Z"/>
      <path class="cls-1" d="M128.73,203.62h1a.77.77,0,0,1,.76.77.76.76,0,0,1-.76.76h-1a.77.77,0,0,1-.77-.76A.78.78,0,0,1,128.73,203.62Z"/>
      <path class="cls-1" d="M134.73,203.62h1a.77.77,0,0,1,.76.77.76.76,0,0,1-.76.76h-1a.77.77,0,0,1-.77-.76A.78.78,0,0,1,134.73,203.62Z"/>
    </g>
    <g>
      <path class="cls-1" d="M241.67,128.05h-4.21a.8.8,0,0,1-.8-.8V123a.8.8,0,0,1,.8-.8h4.21a.8.8,0,0,1,.8.8v4.21A.8.8,0,0,1,241.67,128.05Zm-3.41-1.6h2.61v-2.61h-2.61Z"/>
      <path class="cls-1" d="M249.77,128.05h-4.21a.8.8,0,0,1-.8-.8V123a.8.8,0,0,1,.8-.8h4.21a.79.79,0,0,1,.8.8v4.21A.8.8,0,0,1,249.77,128.05Zm-3.41-1.6H249v-2.61h-2.61Z"/>
      <g>
        <rect class="cls-1" x="253.66" y="123.04" width="4.21" height="4.21"/>
        <path class="cls-1" d="M257.87,128.05h-4.21a.8.8,0,0,1-.8-.8V123a.8.8,0,0,1,.8-.8h4.21a.8.8,0,0,1,.8.8v4.21A.8.8,0,0,1,257.87,128.05Zm-3.41-1.6h2.61v-2.61h-2.61Z"/>
      </g>
      <path class="cls-1" d="M241.67,136.26h-4.21a.8.8,0,0,1-.8-.8v-4.21a.8.8,0,0,1,.8-.8h4.21a.8.8,0,0,1,.8.8v4.21A.8.8,0,0,1,241.67,136.26Zm-3.41-1.6h2.61v-2.61h-2.61Z"/>
      <path class="cls-1" d="M249.77,136.26h-4.21a.8.8,0,0,1-.8-.8v-4.21a.8.8,0,0,1,.8-.8h4.21a.79.79,0,0,1,.8.8v4.21A.8.8,0,0,1,249.77,136.26Zm-3.41-1.6H249v-2.61h-2.61Z"/>
      <path class="cls-1" d="M257.87,136.26h-4.21a.8.8,0,0,1-.8-.8v-4.21a.8.8,0,0,1,.8-.8h4.21a.8.8,0,0,1,.8.8v4.21A.8.8,0,0,1,257.87,136.26Zm-3.41-1.6h2.61v-2.61h-2.61Z"/>
      <path class="cls-1" d="M241.67,144.47h-4.21a.8.8,0,0,1-.8-.8v-4.21a.8.8,0,0,1,.8-.8h4.21a.8.8,0,0,1,.8.8v4.21A.8.8,0,0,1,241.67,144.47Zm-3.41-1.6h2.61v-2.61h-2.61Z"/>
      <g>
        <rect class="cls-1" x="245.56" y="139.46" width="4.22" height="4.21"/>
        <path class="cls-1" d="M249.77,144.47h-4.21a.8.8,0,0,1-.8-.8v-4.21a.8.8,0,0,1,.8-.8h4.21a.79.79,0,0,1,.8.8v4.21A.8.8,0,0,1,249.77,144.47Zm-3.41-1.6H249v-2.61h-2.61Z"/>
      </g>
    </g>
    <g>
      <g>
        <path class="cls-2" d="M567,54.52a18.23,18.23,0,0,0-36.38.27,10.29,10.29,0,0,0-5.47-1.55,10.41,10.41,0,0,0,0,20.81H572a10.41,10.41,0,1,0-5-19.53Z"/>
        <path class="cls-1" d="M572,74.85H525.14a11.21,11.21,0,1,1,4.78-21.35,19,19,0,0,1,37.75-.2,11.41,11.41,0,0,1,4.33-.86,11.21,11.21,0,0,1,0,22.41ZM525.14,54a9.61,9.61,0,0,0,0,19.21H572a9.61,9.61,0,1,0-4.62-18,.78.78,0,0,1-.77,0,.81.81,0,0,1-.42-.65,17.43,17.43,0,0,0-34.78.25.8.8,0,0,1-1.22.64A9.61,9.61,0,0,0,525.14,54Z"/>
      </g>
      <path class="cls-1" d="M537.15,54a.67.67,0,0,1-.24,0,.8.8,0,0,1-.52-1,14.68,14.68,0,0,1,10-9.72.79.79,0,0,1,1,.55.81.81,0,0,1-.55,1,13.08,13.08,0,0,0-9,8.66A.81.81,0,0,1,537.15,54Z"/>
      <path class="cls-1" d="M521,64.36a.8.8,0,0,1-.8-.8,5.29,5.29,0,0,1,5.29-5.28.8.8,0,0,1,0,1.6,3.69,3.69,0,0,0-3.69,3.68A.8.8,0,0,1,521,64.36Z"/>
    </g>
    <g>
      <path class="cls-1" d="M342.77,65.92a.8.8,0,0,1-.8-.8A12.73,12.73,0,0,0,323.13,54a.78.78,0,0,1-.77,0,.8.8,0,0,1-.42-.64,22.88,22.88,0,0,0-37.62-15.83.77.77,0,0,1-.63.18.78.78,0,0,1-.55-.33,27.38,27.38,0,0,0-49.77,14.13.8.8,0,0,1-1.22.64,15.28,15.28,0,0,0-23.3,13,.8.8,0,1,1-1.6,0,16.89,16.89,0,0,1,24.62-15A29,29,0,0,1,284,35.72,24.49,24.49,0,0,1,323.43,52a14.33,14.33,0,0,1,20.14,13.09A.8.8,0,0,1,342.77,65.92Z"/>
      <path class="cls-1" d="M242.69,49.8a1.07,1.07,0,0,1-.25,0,.81.81,0,0,1-.52-1A22.25,22.25,0,0,1,257.15,34a.79.79,0,0,1,1,.55.8.8,0,0,1-.55,1,20.66,20.66,0,0,0-14.13,13.68A.79.79,0,0,1,242.69,49.8Z"/>
    </g>
    <g>
      <path class="cls-1" d="M174.61,257H79.51a12.44,12.44,0,1,1,.13-24.88h9.1a.8.8,0,1,1,0,1.6h-9.1a10.91,10.91,0,0,0-10.9,10.9,10.79,10.79,0,0,0,10.77,10.78h95.1a.8.8,0,0,1,0,1.6Z"/>
      <g>
        <path class="cls-2" d="M92.74,232.94a3.66,3.66,0,1,1-3.66-3.66A3.66,3.66,0,0,1,92.74,232.94Z"/>
        <path class="cls-1" d="M89.08,237.36a4.43,4.43,0,1,1,4.43-4.42A4.42,4.42,0,0,1,89.08,237.36Zm0-7.32a2.9,2.9,0,1,0,2.9,2.9A2.9,2.9,0,0,0,89.08,230Z"/>
      </g>
      <g>
        <path class="cls-2" d="M178.27,256.22a3.66,3.66,0,1,1-3.66-3.66A3.66,3.66,0,0,1,178.27,256.22Z"/>
        <path class="cls-1" d="M174.61,260.64a4.43,4.43,0,1,1,4.42-4.42A4.43,4.43,0,0,1,174.61,260.64Zm0-7.32a2.9,2.9,0,1,0,2.9,2.9A2.9,2.9,0,0,0,174.61,253.32Z"/>
      </g>
    </g>
    <g>
      <path class="cls-1" d="M716.24,242.54a9.82,9.82,0,0,1-9.81-9.81v-7a.8.8,0,0,1,1.6,0v7a8.22,8.22,0,0,0,8.21,8.21,8.12,8.12,0,0,0,8.11-8.11V183.49a.8.8,0,1,1,1.6,0v49.34A9.72,9.72,0,0,1,716.24,242.54Z"/>
      <g>
        <path class="cls-2" d="M707.23,222.64a2.82,2.82,0,1,1-2.82,2.82A2.82,2.82,0,0,1,707.23,222.64Z"/>
        <path class="cls-1" d="M707.23,229a3.59,3.59,0,1,1,3.58-3.58A3.59,3.59,0,0,1,707.23,229Zm0-5.64a2.06,2.06,0,1,0,2,2.06A2.06,2.06,0,0,0,707.23,223.4Z"/>
      </g>
      <g>
        <path class="cls-2" d="M725.15,180.67a2.82,2.82,0,1,1-2.81,2.82A2.83,2.83,0,0,1,725.15,180.67Z"/>
        <path class="cls-1" d="M725.15,187.08a3.59,3.59,0,1,1,3.59-3.59A3.59,3.59,0,0,1,725.15,187.08Zm0-5.64a2.06,2.06,0,1,0,2.06,2.05A2.05,2.05,0,0,0,725.15,181.44Z"/>
      </g>
      <g>
        <path class="cls-2" d="M725.15,170.49a2.82,2.82,0,1,1-2.81,2.82A2.83,2.83,0,0,1,725.15,170.49Z"/>
        <path class="cls-1" d="M725.15,176.9a3.59,3.59,0,1,1,3.59-3.59A3.59,3.59,0,0,1,725.15,176.9Zm0-5.64a2.06,2.06,0,1,0,2.06,2.05A2.05,2.05,0,0,0,725.15,171.26Z"/>
      </g>
      <g>
        <path class="cls-2" d="M725.15,160.31a2.82,2.82,0,1,1-2.81,2.82A2.83,2.83,0,0,1,725.15,160.31Z"/>
        <path class="cls-1" d="M725.15,166.71a3.58,3.58,0,1,1,3.59-3.58A3.58,3.58,0,0,1,725.15,166.71Zm0-5.64a2.06,2.06,0,1,0,2.06,2.06A2.06,2.06,0,0,0,725.15,161.07Z"/>
      </g>
    </g>
    <g>
      <g>
        <path class="cls-2" d="M342.77,77.64a1.94,1.94,0,1,0-1.94-1.94A1.94,1.94,0,0,0,342.77,77.64Z"/>
        <path class="cls-1" d="M342.77,78.41a2.71,2.71,0,1,1,2.71-2.71A2.72,2.72,0,0,1,342.77,78.41Zm0-3.89A1.18,1.18,0,1,0,344,75.7,1.18,1.18,0,0,0,342.77,74.52Z"/>
      </g>
      <g>
        <path class="cls-2" d="M342.77,84.65a1.94,1.94,0,1,0-1.94-1.94A1.94,1.94,0,0,0,342.77,84.65Z"/>
        <path class="cls-1" d="M342.77,85.42a2.71,2.71,0,1,1,2.71-2.71A2.72,2.72,0,0,1,342.77,85.42Zm0-3.89A1.18,1.18,0,1,0,344,82.71,1.18,1.18,0,0,0,342.77,81.53Z"/>
      </g>
      <g>
        <path class="cls-2" d="M342.77,91.67a1.95,1.95,0,1,0-1.94-1.94A1.94,1.94,0,0,0,342.77,91.67Z"/>
        <path class="cls-1" d="M342.77,92.43a2.71,2.71,0,1,1,2.71-2.7A2.71,2.71,0,0,1,342.77,92.43Zm0-3.88A1.18,1.18,0,1,0,344,89.73,1.18,1.18,0,0,0,342.77,88.55Z"/>
      </g>
    </g>
    <g>
      <path class="cls-1" d="M365.31,82.63a16.3,16.3,0,1,1,10.58-3.9A16.3,16.3,0,0,1,365.31,82.63Zm0-31.08a14.78,14.78,0,1,0,11.24,5.19A14.77,14.77,0,0,0,365.3,51.55Z"/>
      <path class="cls-1" d="M379.47,73.48a.74.74,0,0,1-.32-.07L365,67a.78.78,0,0,1-.45-.66.79.79,0,0,1,.39-.7l13.48-7.73a.77.77,0,0,1,.76,1.33l-12.18,7L379.78,72a.77.77,0,0,1,.39,1A.78.78,0,0,1,379.47,73.48Z"/>
      <path class="cls-1" d="M363.62,82.54h-.09a.75.75,0,0,1-.67-.84l1.69-15.45a.75.75,0,0,1,.84-.67.76.76,0,0,1,.68.84l-1.69,15.45A.77.77,0,0,1,363.62,82.54Z"/>
      <g>
        <path class="cls-2" d="M369.93,71.74a7.12,7.12,0,1,1,.79-10A7.13,7.13,0,0,1,369.93,71.74Z"/>
        <path class="cls-1" d="M365.31,74.21a7.89,7.89,0,1,1,5.11-1.89A7.86,7.86,0,0,1,365.31,74.21Zm0-14.24a6.36,6.36,0,1,0,4.84,2.23A6.35,6.35,0,0,0,365.3,60Z"/>
      </g>
    </g>
    <g>
      <polygon class="cls-2" points="315.66 101.61 315.66 96.69 320.59 96.69 315.66 101.61"/>
      <path class="cls-1" d="M315.66,102.38a.76.76,0,0,1-.76-.77V96.69a.76.76,0,0,1,.76-.77h4.93a.77.77,0,0,1,0,1.53h-4.16v4.16A.77.77,0,0,1,315.66,102.38Z"/>
    </g>
    <g>
      <path class="cls-1" d="M611.07,196.12a.75.75,0,0,1-.46-.15l-3.38-2.53a.76.76,0,0,1,.92-1.22l2.92,2.18,2.91-2.18a.76.76,0,0,1,1.07.15.78.78,0,0,1-.15,1.07L611.52,196A.74.74,0,0,1,611.07,196.12Z"/>
      <path class="cls-1" d="M611.07,203.28a.75.75,0,0,1-.46-.15l-3.38-2.53a.76.76,0,0,1,.92-1.22l2.92,2.18,2.91-2.18a.76.76,0,0,1,1.07.15.77.77,0,0,1-.15,1.07l-3.38,2.53A.74.74,0,0,1,611.07,203.28Z"/>
      <path class="cls-1" d="M611.07,210.45a.76.76,0,0,1-.46-.16l-3.38-2.53a.76.76,0,0,1,.92-1.22l2.92,2.18,2.91-2.18a.76.76,0,0,1,1.07.15.77.77,0,0,1-.15,1.07l-3.38,2.53A.75.75,0,0,1,611.07,210.45Z"/>
    </g>
    <g>
      <g>
        <g>
          <path class="cls-2" d="M714.09,93.87c-2.1,2.82-31,2.82-33.12,0V45.14c2.82-3.65,30.3-3.65,33.12,0Z"/>
          <path class="cls-1" d="M697.53,96.77c-3.61,0-15.51-.18-17.19-2.43a.74.74,0,0,1-.16-.47V45.14a.84.84,0,0,1,.16-.48c2.25-2.9,14.71-3,17.19-3s14.94.14,17.19,3a.84.84,0,0,1,.16.48V93.87a.8.8,0,0,1-.15.47C713,96.59,701.14,96.77,697.53,96.77Zm-15.77-3.24c1.07.72,6.43,1.66,15.77,1.66s14.7-.94,15.77-1.66V45.45c-1.31-1.12-7.08-2.25-15.77-2.25s-14.45,1.13-15.77,2.25Z"/>
        </g>
        <g>
          <path class="cls-2" d="M714.09,90.45c-2.1,2.81-31,2.81-33.12,0V41.72c2.82-3.65,30.3-3.65,33.12,0Z"/>
          <path class="cls-1" d="M697.53,93.35c-3.61,0-15.51-.18-17.19-2.43a.74.74,0,0,1-.16-.47V41.72a.79.79,0,0,1,.16-.48c2.25-2.9,14.71-3,17.19-3s14.94.14,17.19,3a.79.79,0,0,1,.16.48V90.45a.8.8,0,0,1-.15.47C713,93.17,701.14,93.35,697.53,93.35Zm-15.77-3.24c1.07.72,6.43,1.66,15.77,1.66s14.7-.94,15.77-1.66V42c-1.31-1.12-7.08-2.26-15.77-2.26S683.08,40.91,681.76,42Z"/>
        </g>
        <g>
          <rect class="cls-2" x="680.97" y="45.41" width="33.13" height="37.05"/>
          <path class="cls-1" d="M714.09,83.25H681a.79.79,0,0,1-.79-.79v-37a.79.79,0,0,1,.79-.79h33.12a.79.79,0,0,1,.79.79V82.46A.79.79,0,0,1,714.09,83.25Zm-32.33-1.57H713.3V46.2H681.76Z"/>
        </g>
      </g>
      <g>
        <path class="cls-2" d="M698.43,42.41a.9.9,0,1,1-.9-.9A.9.9,0,0,1,698.43,42.41Z"/>
        <path class="cls-1" d="M697.53,44.09a1.69,1.69,0,1,1,1.69-1.68A1.69,1.69,0,0,1,697.53,44.09Z"/>
      </g>
      <path class="cls-1" d="M686.32,49.6h-2.6a.79.79,0,1,1,0-1.58h2.6a.79.79,0,0,1,0,1.58Z"/>
      <path class="cls-1" d="M691.74,49.6h-2.6a.79.79,0,1,1,0-1.58h2.6a.79.79,0,0,1,0,1.58Z"/>
      <g>
        <g>
          <path class="cls-2" d="M691.58,71.38a7.12,7.12,0,0,1,9.35,6.75v.08l-14.81,1.14V74.07C686.21,73.7,688.68,72.34,691.58,71.38Z"/>
          <path class="cls-1" d="M686.12,80.14a.78.78,0,0,1-.53-.21.77.77,0,0,1-.26-.58V74.07a.57.57,0,0,1,0-.18c.31-1.33,5.92-3.24,6-3.26a7.91,7.91,0,0,1,10.38,7.5A.86.86,0,0,1,701,79l-14.81,1.15Zm.79-5.77V78.5l13.19-1a6.32,6.32,0,0,0-8.27-5.35A21.29,21.29,0,0,0,686.91,74.37Z"/>
        </g>
        <g>
          <path class="cls-2" d="M703.9,68.71a8,8,0,0,0-9.77,7.84v2.8h14.81V72.93C708.4,70.66,706.33,69.25,703.9,68.71Z"/>
          <path class="cls-1" d="M708.94,80.14H694.13a.8.8,0,0,1-.79-.79v-2.8a8.8,8.8,0,0,1,3.3-6.88,8.91,8.91,0,0,1,7.44-1.73c3,.67,5.06,2.42,5.63,4.8a1.11,1.11,0,0,1,0,.19v6.42A.8.8,0,0,1,708.94,80.14Zm-14-1.58h13.23V73c-.45-1.72-2.06-3-4.42-3.54a7.31,7.31,0,0,0-6.1,1.42,7.21,7.21,0,0,0-2.71,5.65Z"/>
        </g>
      </g>
      <g>
        <path class="cls-2" d="M706.36,71.47v7.88H688.7V71.47C690.4,64.36,704.67,64.36,706.36,71.47Z"/>
        <path class="cls-1" d="M706.36,80.14H688.7a.79.79,0,0,1-.79-.79V71.47a1.11,1.11,0,0,1,0-.19c1-4.1,5.53-5.94,9.6-5.94s8.62,1.84,9.6,5.94a1.11,1.11,0,0,1,0,.19v7.88A.79.79,0,0,1,706.36,80.14Zm-16.87-1.58h16.08v-7c-.82-3.2-4.62-4.64-8-4.64s-7.22,1.44-8,4.64Z"/>
      </g>
      <g>
        <g>
          <path class="cls-2" d="M703.12,55.48v7c0,6.3-11.18,6.3-11.18,0v-7C693,52.1,702.06,52.1,703.12,55.48Z"/>
          <path class="cls-1" d="M697.53,68c-3.17,0-6.38-1.9-6.38-5.52v-7a.59.59,0,0,1,0-.23c.71-2.28,3.86-3.09,6.34-3.09s5.63.81,6.34,3.09a.59.59,0,0,1,0,.23v7C703.91,66.14,700.7,68,697.53,68Zm-4.8-12.42v6.9c0,2.71,2.49,3.94,4.8,3.94s4.8-1.23,4.8-3.94v-6.9c-.44-1.1-2.43-1.88-4.8-1.88S693.17,54.52,692.73,55.62Z"/>
        </g>
        <g>
          <path class="cls-2" d="M703.12,55.48v4.06c-4.1,1.07-9.87.17-11.18-2.73V55.48C693,52.1,702.06,52.1,703.12,55.48Z"/>
          <path class="cls-1" d="M699.55,60.76c-3.09,0-7.12-.95-8.33-3.63a.71.71,0,0,1-.07-.32V55.48a.59.59,0,0,1,0-.23c.71-2.28,3.86-3.09,6.34-3.09s5.63.81,6.34,3.09a.59.59,0,0,1,0,.23v4.06a.78.78,0,0,1-.59.76A15.21,15.21,0,0,1,699.55,60.76Zm-6.82-4.14c.82,1.54,3.52,2.56,6.82,2.56a13.87,13.87,0,0,0,2.78-.27V55.62c-.44-1.1-2.43-1.88-4.8-1.88s-4.36.78-4.8,1.88Z"/>
        </g>
      </g>
      <path class="cls-1" d="M711,80.24H684.15a.79.79,0,1,1,0-1.57H711a.79.79,0,1,1,0,1.57Z"/>
      <g>
        <rect class="cls-2" x="683.55" y="84.93" width="8.73" height="3.7"/>
        <path class="cls-1" d="M692.28,89.41h-8.73a.79.79,0,0,1-.79-.79V84.93a.79.79,0,0,1,.79-.79h8.73a.79.79,0,0,1,.79.79v3.69A.79.79,0,0,1,692.28,89.41Zm-7.94-1.58h7.15V85.71h-7.15Z"/>
      </g>
      <g>
        <rect class="cls-2" x="702" y="84.93" width="8.73" height="3.7"/>
        <path class="cls-1" d="M710.73,89.41H702a.79.79,0,0,1-.79-.79V84.93a.79.79,0,0,1,.79-.79h8.73a.79.79,0,0,1,.79.79v3.69A.79.79,0,0,1,710.73,89.41Zm-7.94-1.58h7.15V85.71h-7.15Z"/>
      </g>
    </g>
    <g>
      <g>
        <path class="cls-2" d="M692.31,218.38a14.2,14.2,0,1,1-14.2-14.2A14.2,14.2,0,0,1,692.31,218.38Z"/>
        <path class="cls-1" d="M678.11,233.38a15,15,0,1,1,15-15A15,15,0,0,1,678.11,233.38Zm0-28.4a13.4,13.4,0,1,0,13.4,13.4A13.41,13.41,0,0,0,678.11,205Z"/>
      </g>
      <g>
        <path class="cls-2" d="M687.76,218.38a9.65,9.65,0,1,1-9.65-9.65A9.65,9.65,0,0,1,687.76,218.38Z"/>
        <path class="cls-1" d="M678.11,228.83a10.45,10.45,0,1,1,10.45-10.45A10.46,10.46,0,0,1,678.11,228.83Zm0-19.3a8.85,8.85,0,1,0,8.85,8.85A8.86,8.86,0,0,0,678.11,209.53Z"/>
      </g>
      <path class="cls-1" d="M683.33,219.18h-5.22a.8.8,0,0,1-.8-.8v-6.84a.8.8,0,1,1,1.6,0v6h4.42a.8.8,0,0,1,0,1.6Z"/>
      <g>
        <path class="cls-2" d="M679.88,218.38a1.77,1.77,0,1,1-1.77-1.77A1.77,1.77,0,0,1,679.88,218.38Z"/>
        <path class="cls-1" d="M678.11,221a2.57,2.57,0,1,1,2.57-2.57A2.57,2.57,0,0,1,678.11,221Zm0-3.54a1,1,0,1,0,1,1A1,1,0,0,0,678.11,217.41Z"/>
      </g>
    </g>
    <g>
      <g>
        <path class="cls-1" d="M343.65,282.28H303.83a.8.8,0,0,1-.8-.8V257a.8.8,0,0,1,.8-.8h39.82a.8.8,0,0,1,.8.8v24.52A.8.8,0,0,1,343.65,282.28Zm-39-1.6h38.22V257.76H304.63Z"/>
        <g>
          <rect class="cls-2" x="314.18" y="248.01" width="39.81" height="24.52"/>
          <path class="cls-1" d="M354,273.33H314.18a.8.8,0,0,1-.8-.8V248a.8.8,0,0,1,.8-.81H354a.8.8,0,0,1,.8.81v24.52A.8.8,0,0,1,354,273.33Zm-39-1.6h38.21V248.81H315Z"/>
        </g>
        <g>
          <path class="cls-2" d="M354,248v2.74l-17.12,10.6a5.38,5.38,0,0,1-5.63,0l-17.06-10.56V248Z"/>
          <path class="cls-1" d="M334.05,263a6.15,6.15,0,0,1-3.23-.92l-17.06-10.56a.8.8,0,0,1-.38-.68V248a.8.8,0,0,1,.8-.81H354a.8.8,0,0,1,.8.81v2.74a.81.81,0,0,1-.37.68L337.29,262A6.15,6.15,0,0,1,334.05,263ZM315,250.34l16.68,10.32a4.59,4.59,0,0,0,4.79,0l16.74-10.36v-1.49H315Z"/>
        </g>
      </g>
      <path class="cls-1" d="M303.83,264.4a.81.81,0,0,1-.37-1.52l4.32-2.23a.8.8,0,1,1,.74,1.42l-4.32,2.24A.84.84,0,0,1,303.83,264.4Z"/>
      <path class="cls-1" d="M303.83,268.81a.81.81,0,0,1-.37-1.52l4.32-2.23a.8.8,0,1,1,.74,1.42l-4.32,2.24A.84.84,0,0,1,303.83,268.81Z"/>
      <path class="cls-1" d="M303.83,273.22a.81.81,0,0,1-.37-1.52l4.32-2.23a.8.8,0,1,1,.74,1.42l-4.32,2.24A.84.84,0,0,1,303.83,273.22Z"/>
      <path class="cls-1" d="M303.83,277.62a.78.78,0,0,1-.71-.43.8.8,0,0,1,.34-1.08l4.32-2.23a.8.8,0,1,1,.74,1.42l-4.32,2.23A.72.72,0,0,1,303.83,277.62Z"/>
      <path class="cls-1" d="M339.65,270a3.31,3.31,0,1,1,3.31-3.31A3.31,3.31,0,0,1,339.65,270Zm0-5a1.71,1.71,0,1,0,1.71,1.71A1.71,1.71,0,0,0,339.65,265Z"/>
      <path class="cls-1" d="M350,266.2a5.86,5.86,0,0,1-2.38-.72c-1.38-.65-1.85-.75-2.35-.2a.81.81,0,0,1-1.13.06.8.8,0,0,1-.06-1.13c1.36-1.52,3-.74,4.22-.18s1.87.79,2.42.22a.79.79,0,0,1,1.13,0,.8.8,0,0,1,0,1.13A2.54,2.54,0,0,1,350,266.2Z"/>
      <path class="cls-1" d="M350,269.44a5.71,5.71,0,0,1-2.38-.72c-1.38-.64-1.86-.75-2.35-.2a.79.79,0,0,1-1.13.06.8.8,0,0,1-.06-1.13c1.36-1.52,3-.74,4.22-.18s1.87.8,2.42.22a.79.79,0,0,1,1.13,0,.8.8,0,0,1,0,1.13A2.54,2.54,0,0,1,350,269.44Z"/>
    </g>
    <g>
      <g>
        <g>
          <path class="cls-2" d="M603.71,52.54c-.13,2.77-5,2.77-5.17,0V48.45h5.17Z"/>
          <path class="cls-1" d="M601.12,55.42a3.16,3.16,0,0,1-3.38-2.84V48.45a.8.8,0,0,1,.8-.8h5.17a.8.8,0,0,1,.8.8v4.09A3.16,3.16,0,0,1,601.12,55.42Zm-1.78-6.17v3.29c0,1,1.14,1.28,1.78,1.28s1.74-.28,1.79-1.32V49.25Z"/>
        </g>
        <g>
          <path class="cls-2" d="M612.65,31a11.49,11.49,0,0,1-4.53,9.16c-2.63,2-4.17,2.54-4.17,5.84H598.3v0c0-3.27-1.54-3.8-4.15-5.78A11.53,11.53,0,1,1,612.65,31Z"/>
          <path class="cls-1" d="M604,46.84H598.3a.8.8,0,0,1-.81-.8c0-2.41-.79-3-2.71-4.36l-1.12-.82A12.22,12.22,0,0,1,588.79,31a12.34,12.34,0,1,1,24.67,0,12.18,12.18,0,0,1-4.86,9.79l-1.1.82c-1.94,1.4-2.75,2-2.75,4.39A.8.8,0,0,1,604,46.84Zm-4.88-1.6h4.11c.23-2.6,1.58-3.58,3.38-4.89l1.07-.79A10.6,10.6,0,0,0,611.85,31a10.73,10.73,0,1,0-21.46,0,10.63,10.63,0,0,0,4.24,8.54c.39.3.75.56,1.09.8C597.52,41.67,598.85,42.64,599.07,45.24Z"/>
        </g>
        <g>
          <path class="cls-2" d="M594.71,31a6.42,6.42,0,0,1,6.4-6.42Z"/>
          <path class="cls-1" d="M594.71,31.84a.8.8,0,0,1-.8-.8,7.22,7.22,0,0,1,7.2-7.22.8.8,0,1,1,0,1.6,5.61,5.61,0,0,0-5.6,5.62A.8.8,0,0,1,594.71,31.84Z"/>
        </g>
        <g>
          <path class="cls-2" d="M607.05,47.75c-.31,4.12-11.55,4.12-11.86,0V44.23h11.86Z"/>
          <path class="cls-1" d="M601.12,51.64c-3.2,0-6.53-1.18-6.72-3.83V44.23a.8.8,0,0,1,.8-.81h11.86a.81.81,0,0,1,.81.81v3.52C607.65,50.46,604.33,51.64,601.12,51.64ZM596,45v2.72c.11,1.47,2.72,2.29,5.12,2.29s5-.82,5.14-2.35V45Z"/>
        </g>
        <g>
          <path class="cls-2" d="M613.51,21.91l5.68-3.57Z"/>
          <path class="cls-1" d="M613.52,22.71a.8.8,0,0,1-.43-1.48l5.67-3.57a.8.8,0,0,1,.85,1.36l-5.67,3.57A.81.81,0,0,1,613.52,22.71Z"/>
        </g>
        <path class="cls-1" d="M618.43,26.5h-3.08a.8.8,0,1,1,0-1.6h3.08a.8.8,0,0,1,0,1.6Z"/>
        <g>
          <path class="cls-2" d="M610.63,19.1l1.44-2.92Z"/>
          <path class="cls-1" d="M610.63,19.9a.78.78,0,0,1-.36-.08.8.8,0,0,1-.36-1.07l1.44-2.93a.81.81,0,0,1,1.08-.36.8.8,0,0,1,.36,1.07l-1.44,2.93A.81.81,0,0,1,610.63,19.9Z"/>
        </g>
      </g>
      <path class="cls-1" d="M654.32,57.93a.77.77,0,0,1-.77-.76v-1a.78.78,0,0,1,.77-.77.77.77,0,0,1,.76.77v1A.76.76,0,0,1,654.32,57.93Zm-1-5.86a.77.77,0,0,1-.7-.47c-.12-.29-.26-.57-.4-.85a.76.76,0,1,1,1.36-.7q.24.47.45,1a.77.77,0,0,1-.41,1A.8.8,0,0,1,653.31,52.07Zm-3.52-4.79a.76.76,0,0,1-.49-.18c-.24-.2-.49-.4-.74-.58a.77.77,0,0,1-.17-1.07.75.75,0,0,1,1.06-.17c.29.21.57.42.84.65a.77.77,0,0,1,.09,1.08A.76.76,0,0,1,649.79,47.28Zm-5.3-2.69a.47.47,0,0,1-.17,0q-.47-.1-.93-.18a.76.76,0,0,1,.24-1.51c.35.06.7.12,1,.2a.77.77,0,0,1-.18,1.51Zm-6-.34h-1a.77.77,0,0,1-.76-.77.76.76,0,0,1,.76-.76h1a.76.76,0,0,1,.76.76A.77.77,0,0,1,638.52,44.25Zm-6,0h-1a.77.77,0,0,1-.76-.77.76.76,0,0,1,.76-.76h1a.76.76,0,0,1,.76.76A.77.77,0,0,1,632.52,44.25Zm-6,0h-1a.77.77,0,0,1-.76-.77.76.76,0,0,1,.76-.76h1a.76.76,0,0,1,.76.76A.77.77,0,0,1,626.52,44.25Zm-6,0h-1a.77.77,0,0,1-.76-.77.76.76,0,0,1,.76-.76h1a.76.76,0,0,1,.76.76A.77.77,0,0,1,620.52,44.25Z"/>
    </g>
    <g>
      <path class="cls-1" d="M202.15,262.48h-2.63l-.83-9.58-3.22,9.58h-1.7l-3.22-9.58-.84,9.58h-2.64l1.06-12.7h3.77l2.7,8,2.74-8h3.77Z"/>
      <path class="cls-1" d="M213.41,262.48l-.92-2.62h-5.34l-.92,2.62h-2.7l4.68-12.7h3.22l4.68,12.7Zm-5.48-4.83h3.78l-1.88-5.39Z"/>
      <path class="cls-1" d="M224.72,262.48l-3.3-5.59h-.77v5.59H218v-12.7h4.6a5.28,5.28,0,0,1,1.85.29,3.25,3.25,0,0,1,1.28.82,3.5,3.5,0,0,1,.72,1.2,4.38,4.38,0,0,1,.24,1.48,3.07,3.07,0,0,1-.7,2.09,3.43,3.43,0,0,1-2,1.09l3.82,5.73ZM220.65,252v3h1.56c1.32,0,2-.51,2-1.51a1.36,1.36,0,0,0-.49-1.12,2.28,2.28,0,0,0-1.49-.41Z"/>
      <path class="cls-1" d="M237.29,262.48l-3.95-5.4h-.93v5.4h-2.63v-12.7h2.63v5h.9l4-5h3.22l-4.92,6.07,5.07,6.63Z"/>
      <path class="cls-1" d="M249.91,252.1H245.2V255h4.18v2.29H245.2v2.88h4.71v2.33h-7.36v-12.7h7.36Z"/>
      <path class="cls-1" d="M260,249.78v2.32h-3v10.38h-2.61V252.1h-3v-2.32Z"/>
      <path class="cls-1" d="M262,262.48v-12.7h2.64v12.7Z"/>
      <path class="cls-1" d="M276.58,249.78h2.63v12.7h-3l-5.63-9.08v9.08H267.9v-12.7h3l5.66,9Z"/>
      <path class="cls-1" d="M288,262.65a6.83,6.83,0,0,1-2.54-.46,5.9,5.9,0,0,1-2-1.3,5.73,5.73,0,0,1-1.33-2.05,7.3,7.3,0,0,1-.48-2.68,7.18,7.18,0,0,1,.5-2.71,5.81,5.81,0,0,1,1.35-2.08,6,6,0,0,1,2.06-1.3,7.1,7.1,0,0,1,2.59-.47,6.93,6.93,0,0,1,3.3.78,5.6,5.6,0,0,1,2.29,2.21l-2.31,1.23a3.41,3.41,0,0,0-1.34-1.44,3.88,3.88,0,0,0-1.94-.49,3.68,3.68,0,0,0-2.77,1.12,4.24,4.24,0,0,0-1.08,3.09,4.42,4.42,0,0,0,1.07,3.1,3.74,3.74,0,0,0,2.88,1.16,4.26,4.26,0,0,0,1.54-.27,3.14,3.14,0,0,0,1.23-.89,3.23,3.23,0,0,0,.71-1.5h-3.48v-2.12h6v6.9h-2.07v-1.76A4.64,4.64,0,0,1,288,262.65Z"/>
    </g>
    <g>
      <path class="cls-1" d="M102.59,237.48a4.65,4.65,0,0,1-1.72-.31,4,4,0,0,1-1.37-.87,3.87,3.87,0,0,1-.91-1.37,4.8,4.8,0,0,1-.33-1.8,4.54,4.54,0,0,1,.57-2.3,3.82,3.82,0,0,1,1.54-1.52,4.67,4.67,0,0,1,2.22-.53,4.48,4.48,0,0,1,2.49.69,3.72,3.72,0,0,1,1.52,1.88L105,232a2.3,2.3,0,0,0-.91-1.14,2.55,2.55,0,0,0-1.46-.41,2.46,2.46,0,0,0-1.85.74,3.09,3.09,0,0,0,0,4,2.44,2.44,0,0,0,1.84.74,2.57,2.57,0,0,0,1.46-.41,2.4,2.4,0,0,0,.91-1.14l1.64.59a3.78,3.78,0,0,1-1.52,1.89A4.48,4.48,0,0,1,102.59,237.48Z"/>
      <path class="cls-1" d="M113,230.45h-3.14v1.92h2.78v1.53h-2.78v1.91H113v1.55H108V228.9H113Z"/>
      <path class="cls-1" d="M119.23,237.36l-2.2-3.72h-.51v3.72h-1.76V228.9h3.07a3.61,3.61,0,0,1,1.23.19,2.2,2.2,0,0,1,.85.55,2.11,2.11,0,0,1,.48.8,2.86,2.86,0,0,1,.16,1,2,2,0,0,1-.46,1.39,2.31,2.31,0,0,1-1.33.73l2.55,3.81Zm-2.71-7v2h1c.88,0,1.32-.34,1.32-1a.92.92,0,0,0-.32-.74,1.53,1.53,0,0,0-1-.27Z"/>
      <path class="cls-1" d="M127.51,228.9v1.55h-2v6.91h-1.74v-6.91h-2V228.9Z"/>
      <path class="cls-1" d="M128.84,237.36V228.9h1.76v8.46Z"/>
      <path class="cls-1" d="M137.77,230.45h-3.22v1.92h2.79v1.53h-2.79v3.46h-1.77V228.9h5Z"/>
      <path class="cls-1" d="M139.27,237.36V228.9H141v8.46Z"/>
      <path class="cls-1" d="M147,237.48a4.7,4.7,0,0,1-1.73-.31,4,4,0,0,1-1.37-.87,3.85,3.85,0,0,1-.9-1.37,4.8,4.8,0,0,1-.33-1.8,4.64,4.64,0,0,1,.56-2.3,3.88,3.88,0,0,1,1.54-1.52,4.68,4.68,0,0,1,2.23-.53,4.47,4.47,0,0,1,2.48.69,3.72,3.72,0,0,1,1.52,1.88l-1.64.6a2.3,2.3,0,0,0-.91-1.14,2.54,2.54,0,0,0-1.45-.41,2.45,2.45,0,0,0-1.85.74,3.08,3.08,0,0,0,0,4,2.46,2.46,0,0,0,1.85.74,2.56,2.56,0,0,0,1.45-.41,2.34,2.34,0,0,0,.91-1.14l1.64.59a3.78,3.78,0,0,1-1.52,1.89A4.47,4.47,0,0,1,147,237.48Z"/>
      <path class="cls-1" d="M158.08,237.36l-.62-1.74h-3.55l-.62,1.74h-1.8l3.12-8.46h2.15l3.12,8.46Zm-3.66-3.21H157l-1.26-3.59Z"/>
      <path class="cls-1" d="M164.48,237.48a4.67,4.67,0,0,1-1.73-.31,4,4,0,0,1-1.37-.87,3.87,3.87,0,0,1-.91-1.37,4.8,4.8,0,0,1-.32-1.8,4.53,4.53,0,0,1,.56-2.3,3.82,3.82,0,0,1,1.54-1.52,4.68,4.68,0,0,1,2.23-.53,4.47,4.47,0,0,1,2.48.69,3.72,3.72,0,0,1,1.52,1.88l-1.64.6a2.3,2.3,0,0,0-.91-1.14,2.54,2.54,0,0,0-1.45-.41,2.49,2.49,0,0,0-1.86.74,3.09,3.09,0,0,0,0,4,2.45,2.45,0,0,0,1.85.74,2.56,2.56,0,0,0,1.45-.41,2.34,2.34,0,0,0,.91-1.14l1.64.59a3.78,3.78,0,0,1-1.52,1.89A4.47,4.47,0,0,1,164.48,237.48Z"/>
      <path class="cls-1" d="M169.92,237.36V228.9h1.76v8.46Z"/>
      <path class="cls-1" d="M177.61,237.48a4.5,4.5,0,0,1-2.22-.53,3.84,3.84,0,0,1-1.55-1.52,5,5,0,0,1,0-4.6,3.84,3.84,0,0,1,1.55-1.52,4.91,4.91,0,0,1,4.44,0,3.76,3.76,0,0,1,1.54,1.52,4.93,4.93,0,0,1,0,4.6,3.82,3.82,0,0,1-1.54,1.52A4.5,4.5,0,0,1,177.61,237.48Zm-1.85-2.35a2.68,2.68,0,0,0,3.7,0,3.09,3.09,0,0,0,0-4,2.68,2.68,0,0,0-3.7,0,3.09,3.09,0,0,0,0,4Zm1.33-7,1.54-2.16.83.59-1.33,1.57Z"/>
      <path class="cls-1" d="M189.34,228.9h1.75v8.46h-2l-3.75-6.05v6.05h-1.76V228.9h2l3.78,6Z"/>
    </g>
    <g>
      <path class="cls-1" d="M280.36,233.26v-8.47h1.76v8.47Z"/>
      <path class="cls-1" d="M290.09,224.79h1.75v8.47h-2l-3.75-6.06v6.06H284.3v-8.47h2l3.78,6Z"/>
      <path class="cls-1" d="M299.42,224.79h1.86l-3.12,8.47h-1.94l-3.11-8.47H295l2.22,6.42Z"/>
      <path class="cls-1" d="M307.47,226.34h-3.14v1.92h2.78v1.53h-2.78v1.91h3.14v1.56h-4.91v-8.47h4.91Z"/>
      <path class="cls-1" d="M312.09,233.37a4.11,4.11,0,0,1-2.35-.64,2.59,2.59,0,0,1-1.14-1.82l1.81-.41a1.58,1.58,0,0,0,.56,1.07,1.92,1.92,0,0,0,1.19.37,1.57,1.57,0,0,0,.93-.26.92.92,0,0,0,.35-.77.82.82,0,0,0-.3-.63,1.82,1.82,0,0,0-.6-.38c-.19-.08-.51-.18-1-.32l-.13,0-.54-.17-.5-.2a3.31,3.31,0,0,1-.5-.25,4.16,4.16,0,0,1-.4-.3,1.36,1.36,0,0,1-.34-.39,2.49,2.49,0,0,1-.21-.49,2.29,2.29,0,0,1-.08-.6,2.21,2.21,0,0,1,.4-1.33,2.35,2.35,0,0,1,1.06-.85,3.9,3.9,0,0,1,1.53-.29,4.36,4.36,0,0,1,1.1.13,3.81,3.81,0,0,1,1,.37,2.51,2.51,0,0,1,.79.7,2.74,2.74,0,0,1,.45,1l-1.7.42a1.37,1.37,0,0,0-1.53-1.21,1.7,1.7,0,0,0-.94.24.85.85,0,0,0-.37.75c0,.31.21.56.62.75a8.93,8.93,0,0,0,1.17.4l.57.18.54.2a4.62,4.62,0,0,1,.54.26l.44.33a1.65,1.65,0,0,1,.38.42,2.17,2.17,0,0,1,.23.53,2.22,2.22,0,0,1,.09.65,2.4,2.4,0,0,1-.17,1,1.9,1.9,0,0,1-.46.72,2.54,2.54,0,0,1-.7.5,3.63,3.63,0,0,1-.86.29A5.07,5.07,0,0,1,312.09,233.37Z"/>
      <path class="cls-1" d="M321.75,224.79v1.55h-2v6.92H318v-6.92h-2v-1.55Z"/>
      <path class="cls-1" d="M323.08,233.26v-8.47h1.76v8.47Z"/>
      <path class="cls-1" d="M330.69,233.37a4.66,4.66,0,0,1-1.69-.3,4.13,4.13,0,0,1-1.35-.87,4,4,0,0,1-.89-1.37,4.91,4.91,0,0,1-.32-1.79,4.77,4.77,0,0,1,.33-1.8,4,4,0,0,1,.91-1.39,4.11,4.11,0,0,1,1.37-.87,4.86,4.86,0,0,1,1.72-.31,4.74,4.74,0,0,1,2.21.52,3.84,3.84,0,0,1,1.52,1.47l-1.54.83a2.33,2.33,0,0,0-.89-1,2.64,2.64,0,0,0-1.3-.32,2.42,2.42,0,0,0-1.84.75,2.82,2.82,0,0,0-.72,2.05,2.94,2.94,0,0,0,.71,2.07,2.48,2.48,0,0,0,1.92.77,2.86,2.86,0,0,0,1-.18,2,2,0,0,0,.82-.59,2.07,2.07,0,0,0,.47-1h-2.31v-1.41h4v4.6h-1.38v-1.18A3.08,3.08,0,0,1,330.69,233.37Z"/>
      <path class="cls-1" d="M342.31,233.26l-.61-1.75h-3.56l-.62,1.75h-1.79l3.11-8.47H341l3.12,8.47ZM338.66,230h2.52l-1.26-3.59Z"/>
      <path class="cls-1" d="M348.71,233.37a4.7,4.7,0,0,1-1.73-.31,3.94,3.94,0,0,1-1.37-.86,4,4,0,0,1-.9-1.38,4.8,4.8,0,0,1-.33-1.8,4.64,4.64,0,0,1,.56-2.3,3.84,3.84,0,0,1,1.55-1.52,4.61,4.61,0,0,1,2.22-.53,4.44,4.44,0,0,1,2.48.69,3.71,3.71,0,0,1,1.52,1.88l-1.64.6a2.3,2.3,0,0,0-.91-1.14,2.59,2.59,0,0,0-1.45-.41,2.49,2.49,0,0,0-1.85.74,2.68,2.68,0,0,0-.73,2,2.76,2.76,0,0,0,.73,2,2.5,2.5,0,0,0,1.85.74,2.55,2.55,0,0,0,1.45-.42,2.3,2.3,0,0,0,.91-1.14l1.64.6a3.73,3.73,0,0,1-1.52,1.89A4.52,4.52,0,0,1,348.71,233.37Z"/>
      <path class="cls-1" d="M354.15,233.26v-8.47h1.76v8.47Z"/>
      <path class="cls-1" d="M361.85,233.37a4.57,4.57,0,0,1-2.23-.53,3.82,3.82,0,0,1-1.54-1.52,5,5,0,0,1,0-4.6,3.82,3.82,0,0,1,1.54-1.52,4.68,4.68,0,0,1,2.23-.53,4.61,4.61,0,0,1,2.22.53,3.88,3.88,0,0,1,1.54,1.52,5,5,0,0,1,0,4.6,3.88,3.88,0,0,1-1.54,1.52A4.55,4.55,0,0,1,361.85,233.37ZM360,231a2.68,2.68,0,0,0,3.7,0,3.09,3.09,0,0,0,0-4,2.68,2.68,0,0,0-3.7,0,3.09,3.09,0,0,0,0,4Zm1.33-7,1.53-2.16.83.59L362.36,224Z"/>
      <path class="cls-1" d="M373.57,224.79h1.75v8.47h-2l-3.75-6.06v6.06h-1.75v-8.47h2l3.77,6Z"/>
    </g>
    <g>
      <path class="cls-1" d="M476.16,229.35v2.06h-2.68v9.22h-2.32v-9.22h-2.7v-2.06Z"/>
      <path class="cls-1" d="M484.48,231.41h-4.19V234H484v2h-3.71v2.55h4.19v2.07h-6.55V229.35h6.55Z"/>
      <path class="cls-1" d="M491.46,240.79a6.43,6.43,0,0,1-2.3-.41,5.4,5.4,0,0,1-1.83-1.16,5.31,5.31,0,0,1-1.21-1.84,6.39,6.39,0,0,1-.43-2.39,6.1,6.1,0,0,1,.75-3.07,5.09,5.09,0,0,1,2.06-2,6.13,6.13,0,0,1,3-.7,6,6,0,0,1,3.31.91,5,5,0,0,1,2,2.52l-2.19.8a3.13,3.13,0,0,0-1.21-1.53,3.52,3.52,0,0,0-1.94-.54,3.31,3.31,0,0,0-2.47,1,4.12,4.12,0,0,0,0,5.32,3.28,3.28,0,0,0,2.46,1,3.41,3.41,0,0,0,1.93-.55,3.07,3.07,0,0,0,1.22-1.52l2.19.79a5,5,0,0,1-2,2.52A5.91,5.91,0,0,1,491.46,240.79Z"/>
      <path class="cls-1" d="M506.43,229.35h2.34v11.28h-2.72l-5-8.07v8.07h-2.33V229.35h2.68l5,8Z"/>
      <path class="cls-1" d="M516.69,240.79a6,6,0,0,1-3-.71,5.16,5.16,0,0,1-2.06-2,6.64,6.64,0,0,1,0-6.13,5.16,5.16,0,0,1,2.06-2,6.63,6.63,0,0,1,5.93,0,5.13,5.13,0,0,1,2.05,2,6.64,6.64,0,0,1,0,6.13,5.09,5.09,0,0,1-2.06,2A6,6,0,0,1,516.69,240.79Zm-2.47-3.14a3.58,3.58,0,0,0,4.94,0,4.17,4.17,0,0,0,0-5.32,3.6,3.6,0,0,0-4.94,0,4.13,4.13,0,0,0,0,5.32Z"/>
      <path class="cls-1" d="M527,238.56h3.54v2.07h-5.88V229.35H527Z"/>
      <path class="cls-1" d="M537.05,240.79a6,6,0,0,1-3-.71,5.16,5.16,0,0,1-2.06-2,6.64,6.64,0,0,1,0-6.13,5.16,5.16,0,0,1,2.06-2,6.63,6.63,0,0,1,5.93,0,5.2,5.2,0,0,1,2.05,2,6.64,6.64,0,0,1,0,6.13,5.16,5.16,0,0,1-2.06,2A6,6,0,0,1,537.05,240.79Zm-2.46-3.14a3.56,3.56,0,0,0,4.93,0,4.13,4.13,0,0,0,0-5.32,3.59,3.59,0,0,0-4.93,0,4.13,4.13,0,0,0,0,5.32Z"/>
      <path class="cls-1" d="M549.86,240.79a6.12,6.12,0,0,1-2.25-.41,5.06,5.06,0,0,1-3-3,6.34,6.34,0,0,1-.43-2.38,6.46,6.46,0,0,1,.44-2.41,5.29,5.29,0,0,1,1.2-1.85,5.5,5.5,0,0,1,1.84-1.16,6.39,6.39,0,0,1,2.3-.41,6.18,6.18,0,0,1,2.93.69,5,5,0,0,1,2,2l-2.05,1.09a3,3,0,0,0-1.19-1.28,3.38,3.38,0,0,0-1.72-.43,3.28,3.28,0,0,0-2.47,1,3.78,3.78,0,0,0-1,2.74,3.9,3.9,0,0,0,1,2.76,3.28,3.28,0,0,0,2.55,1,3.85,3.85,0,0,0,1.38-.24,2.68,2.68,0,0,0,1.09-.79,2.88,2.88,0,0,0,.63-1.34h-3.09V234.5h5.3v6.13h-1.84v-1.56A4.11,4.11,0,0,1,549.86,240.79Z"/>
      <path class="cls-1" d="M557.8,240.63V229.35h2.35v11.28Zm.47-12.34,2-2.87,1.11.78-1.77,2.09Z"/>
      <path class="cls-1" d="M570.62,240.63l-.82-2.32h-4.75l-.82,2.32h-2.39L566,229.35h2.87L573,240.63Zm-4.88-4.28h3.37l-1.68-4.79Z"/>
    </g>
    <g>
      <path class="cls-1" d="M598.23,68.25h-3.66v2.24h3.24v1.78h-3.24v2.24h3.66v1.81H592.5V66.44h5.73Z"/>
      <path class="cls-1" d="M603.62,76.46a4.82,4.82,0,0,1-2.74-.76,3,3,0,0,1-1.33-2.12l2.12-.48a1.84,1.84,0,0,0,.65,1.25,2.18,2.18,0,0,0,1.39.43,1.81,1.81,0,0,0,1.08-.3,1.08,1.08,0,0,0,.41-.9,1,1,0,0,0-.35-.73,2.3,2.3,0,0,0-.7-.45c-.23-.09-.6-.21-1.11-.37l-.15,0-.63-.21c-.16,0-.35-.13-.59-.23a3.74,3.74,0,0,1-.57-.29,4.1,4.1,0,0,1-.48-.35,1.8,1.8,0,0,1-.39-.46,2.06,2.06,0,0,1-.24-.56,2.34,2.34,0,0,1-.1-.71,2.7,2.7,0,0,1,.46-1.55,2.85,2.85,0,0,1,1.25-1,4.35,4.35,0,0,1,1.78-.34,5.43,5.43,0,0,1,1.29.15,4.34,4.34,0,0,1,1.15.44,3,3,0,0,1,.92.81,3.09,3.09,0,0,1,.52,1.2l-2,.49A1.61,1.61,0,0,0,603.5,68a1.88,1.88,0,0,0-1.1.29,1,1,0,0,0-.43.86c0,.36.24.66.72.88a9.77,9.77,0,0,0,1.37.47l.66.21a5.43,5.43,0,0,1,.63.24,3.75,3.75,0,0,1,.63.3,4.48,4.48,0,0,1,.52.38,2.22,2.22,0,0,1,.44.49,3.48,3.48,0,0,1,.27.61,2.7,2.7,0,0,1,.11.77,3,3,0,0,1-.2,1.11,2.61,2.61,0,0,1-.55.84,3.22,3.22,0,0,1-.81.58,4.29,4.29,0,0,1-1,.34A5.78,5.78,0,0,1,603.62,76.46Z"/>
      <path class="cls-1" d="M614.9,66.44v1.81h-2.35v8.07h-2V68.25h-2.36V66.44Z"/>
      <path class="cls-1" d="M621.66,76.32,619.09,72h-.59v4.35h-2V66.44H620a4.26,4.26,0,0,1,1.44.23,2.4,2.4,0,0,1,1,.64,2.6,2.6,0,0,1,.56.93,3.3,3.3,0,0,1,.19,1.15,2.41,2.41,0,0,1-.54,1.63,2.76,2.76,0,0,1-1.55.85l3,4.45Zm-3.16-8.18V70.5h1.21c1,0,1.54-.39,1.54-1.17a1.08,1.08,0,0,0-.38-.87,1.78,1.78,0,0,0-1.16-.32Z"/>
      <path class="cls-1" d="M632.29,76.32l-.72-2h-4.15l-.72,2h-2.1l3.64-9.88h2.51l3.64,9.88ZM628,72.57h3l-1.47-4.19Z"/>
      <path class="cls-1" d="M640.76,66.44v1.81h-2.35v8.07h-2V68.25H634V66.44Z"/>
      <path class="cls-1" d="M648,68.25h-3.67v2.24h3.25v1.78h-3.25v2.24H648v1.81h-5.73V66.44H648Z"/>
      <path class="cls-1" d="M654.05,76.46a5.36,5.36,0,0,1-2-.36,4.76,4.76,0,0,1-1.57-1,4.55,4.55,0,0,1-1-1.6,5.63,5.63,0,0,1-.37-2.09,5.52,5.52,0,0,1,.38-2.1,4.59,4.59,0,0,1,1-1.62,4.74,4.74,0,0,1,1.61-1,5.52,5.52,0,0,1,2-.37,5.45,5.45,0,0,1,2.57.61,4.46,4.46,0,0,1,1.78,1.72l-1.8,1a2.72,2.72,0,0,0-1-1.13,3,3,0,0,0-1.51-.37A2.87,2.87,0,0,0,652,69a3.31,3.31,0,0,0-.84,2.4,3.4,3.4,0,0,0,.84,2.41,2.89,2.89,0,0,0,2.23.9,3.38,3.38,0,0,0,1.21-.21,2.48,2.48,0,0,0,1.5-1.86h-2.7V71h4.64v5.37h-1.61V75A3.61,3.61,0,0,1,654.05,76.46Z"/>
      <path class="cls-1" d="M661,76.32V66.44h2v9.88Z"/>
      <path class="cls-1" d="M672.21,76.32l-.72-2h-4.15l-.72,2h-2.09l3.63-9.88h2.51l3.64,9.88Zm-4.27-3.75h2.95l-1.47-4.19Z"/>
    </g>
    <g>
      <path class="cls-1" d="M413.7,44.74v1.81h-2.35v8.07h-2V46.55H407V44.74Z"/>
      <path class="cls-1" d="M420.47,54.62l-2.57-4.35h-.6v4.35h-2.05V44.74h3.58a4.26,4.26,0,0,1,1.44.23,2.4,2.4,0,0,1,1,.64,2.6,2.6,0,0,1,.56.93,3.3,3.3,0,0,1,.19,1.15,2.41,2.41,0,0,1-.54,1.63,2.76,2.76,0,0,1-1.55.85l3,4.45Zm-3.17-8.18V48.8h1.21c1,0,1.54-.39,1.54-1.17a1.08,1.08,0,0,0-.38-.87,1.78,1.78,0,0,0-1.16-.32Z"/>
      <path class="cls-1" d="M431.09,54.62l-.72-2h-4.15l-.72,2h-2.1L427,44.74h2.51l3.64,9.88Zm-4.27-3.75h2.95l-1.47-4.19Z"/>
      <path class="cls-1" d="M440,49.4a2.3,2.3,0,0,1,1.85,2.45,2.67,2.67,0,0,1-.78,2,3.29,3.29,0,0,1-2.31.74h-4.07V44.74h3.2a3.68,3.68,0,0,1,2.42.71,2.52,2.52,0,0,1,.83,2,2.26,2.26,0,0,1-.29,1.17A1.9,1.9,0,0,1,440,49.4Zm-2.09-3h-1.24v2.33H438a1.24,1.24,0,0,0,.94-.33,1.2,1.2,0,0,0,.32-.86,1.11,1.11,0,0,0-.34-.83A1.51,1.51,0,0,0,437.89,46.44Zm.47,6.42a1.55,1.55,0,0,0,1.13-.35,1.17,1.17,0,0,0,.36-.89,1.21,1.21,0,0,0-.37-.91,1.61,1.61,0,0,0-1.17-.36h-1.66v2.51Z"/>
      <path class="cls-1" d="M450.27,54.62l-.72-2H445.4l-.71,2h-2.1l3.63-9.88h2.51l3.64,9.88ZM446,50.87H449l-1.47-4.19Z"/>
      <path class="cls-1" d="M455.36,54.76a5.61,5.61,0,0,1-2.62-.69l.87-1.69a2.61,2.61,0,0,0,1.5.53,1.09,1.09,0,0,0,.92-.39,2.09,2.09,0,0,0,.3-1.25V44.74h2.05v6.91a3.09,3.09,0,0,1-.83,2.3A3,3,0,0,1,455.36,54.76Z"/>
      <path class="cls-1" d="M465.15,54.76a5.39,5.39,0,0,1-2.59-.62,4.47,4.47,0,0,1-1.8-1.78,5.79,5.79,0,0,1,0-5.37,4.38,4.38,0,0,1,1.8-1.77,5.72,5.72,0,0,1,5.18,0,4.51,4.51,0,0,1,1.8,1.77,5.79,5.79,0,0,1,0,5.37,4.6,4.6,0,0,1-1.8,1.78A5.39,5.39,0,0,1,465.15,54.76ZM463,52a2.9,2.9,0,0,0,2.16.87,2.87,2.87,0,0,0,2.16-.87,3.62,3.62,0,0,0,0-4.66,2.9,2.9,0,0,0-2.16-.86,2.93,2.93,0,0,0-2.16.86A3.62,3.62,0,0,0,463,52Z"/>
      <path class="cls-1" d="M409.29,63.35h-3.67v2.24h3.25v1.78h-3.25v2.24h3.67v1.81h-5.73V61.54h5.73Z"/>
      <path class="cls-1" d="M418.15,61.54h2v9.88h-2.37l-4.38-7.06v7.06h-2V61.54h2.34l4.41,7Z"/>
      <path class="cls-1" d="M432.11,63.35h-3.66v2.24h3.24v1.78h-3.24v2.24h3.66v1.81h-5.73V61.54h5.73Z"/>
      <path class="cls-1" d="M443.62,71.83l-1.71.65-1.26-1.42a5.64,5.64,0,0,1-2.38.5,5.48,5.48,0,0,1-2.62-.62,4.67,4.67,0,0,1-1.83-1.78,5.79,5.79,0,0,1,0-5.37A4.52,4.52,0,0,1,435.65,62a5.45,5.45,0,0,1,2.62-.62,5.55,5.55,0,0,1,2.63.62,4.62,4.62,0,0,1,1.82,1.77,5.36,5.36,0,0,1,.66,2.69A5,5,0,0,1,442.07,70Zm-8.42-5.35a3.3,3.3,0,0,0,.86,2.41,3.22,3.22,0,0,0,4.42,0,3.3,3.3,0,0,0,.86-2.41,3.14,3.14,0,0,0-.87-2.33,3.24,3.24,0,0,0-4.4,0A3.14,3.14,0,0,0,435.2,66.48Z"/>
      <path class="cls-1" d="M449,71.56a5.21,5.21,0,0,1-1.52-.22,3.49,3.49,0,0,1-1.22-.65,2.89,2.89,0,0,1-.83-1.12,4.24,4.24,0,0,1-.29-1.61V61.54h2.05v6.14a2.13,2.13,0,0,0,.49,1.56,2,2,0,0,0,2.64,0,2.09,2.09,0,0,0,.51-1.56V61.54h2.05V68a4.06,4.06,0,0,1-.3,1.61,2.89,2.89,0,0,1-.83,1.12,3.49,3.49,0,0,1-1.22.65A5.23,5.23,0,0,1,449,71.56Z"/>
      <path class="cls-1" d="M455.26,71.42V61.54h2.05v9.88Z"/>
      <path class="cls-1" d="M464,61.54a3,3,0,0,1,2.27.92,3.16,3.16,0,0,1,.86,2.27,3.11,3.11,0,0,1-.85,2.26,3,3,0,0,1-2.28.89h-2.06v3.54h-2.05V61.54Zm-.35,4.62a1.53,1.53,0,0,0,1.13-.38,1.49,1.49,0,0,0,.38-1.07,1.46,1.46,0,0,0-.38-1.06,1.5,1.5,0,0,0-1.13-.39h-1.71v2.9Z"/>
      <path class="cls-1" d="M473.2,71.56a5.36,5.36,0,0,1-2.59-.62,4.47,4.47,0,0,1-1.8-1.78,5.79,5.79,0,0,1,0-5.37,4.38,4.38,0,0,1,1.8-1.77,5.72,5.72,0,0,1,5.18,0,4.51,4.51,0,0,1,1.8,1.77,5.79,5.79,0,0,1,0,5.37,4.6,4.6,0,0,1-1.8,1.78A5.39,5.39,0,0,1,473.2,71.56ZM471,68.81a2.9,2.9,0,0,0,2.16.87,2.87,2.87,0,0,0,2.16-.87,3.62,3.62,0,0,0,0-4.66,2.9,2.9,0,0,0-2.16-.86,2.93,2.93,0,0,0-2.16.86,3.62,3.62,0,0,0,0,4.66Z"/>
    </g>
    <g>
      <path class="cls-1" d="M220.09,78V66.75h2.34V78Z"/>
      <path class="cls-1" d="M233.05,66.75h2.34V78h-2.71l-5-8.07V78h-2.34V66.75H228l5,8Z"/>
      <path class="cls-1" d="M246,66.75h2.34V78h-2.71l-5-8.07V78h-2.34V66.75H241l5,8Z"/>
      <path class="cls-1" d="M256.28,78.2a6.14,6.14,0,0,1-3-.71,5.09,5.09,0,0,1-2.06-2,6.15,6.15,0,0,1-.75-3.07,6.09,6.09,0,0,1,.75-3.06,5,5,0,0,1,2.06-2,6.61,6.61,0,0,1,5.92,0,5.09,5.09,0,0,1,2.06,2,6.09,6.09,0,0,1,.75,3.06,6.15,6.15,0,0,1-.75,3.07,5.16,5.16,0,0,1-2.06,2A6.17,6.17,0,0,1,256.28,78.2Zm-2.47-3.14a3.58,3.58,0,0,0,4.94,0,3.68,3.68,0,0,0,1-2.67,3.63,3.63,0,0,0-1-2.65,3.58,3.58,0,0,0-4.94,0,3.63,3.63,0,0,0-1,2.65A3.68,3.68,0,0,0,253.81,75.06Z"/>
      <path class="cls-1" d="M270.82,66.75h2.49L269.14,78h-2.58l-4.15-11.29h2.49l3,8.56Z"/>
      <path class="cls-1" d="M281.57,78l-.82-2.33H276L275.19,78h-2.4l4.15-11.29h2.87L284,78Zm-4.88-4.29h3.37L278.38,69Z"/>
      <path class="cls-1" d="M290.1,78.2a6.23,6.23,0,0,1-2.3-.42,5.14,5.14,0,0,1-3-3,6.44,6.44,0,0,1-.43-2.4,6.09,6.09,0,0,1,.75-3.06,5,5,0,0,1,2.06-2,6.13,6.13,0,0,1,3-.7,6,6,0,0,1,3.31.91,5,5,0,0,1,2,2.52l-2.19.79A3.05,3.05,0,0,0,292,69.3a3.5,3.5,0,0,0-1.94-.55,3.32,3.32,0,0,0-2.47,1,4.1,4.1,0,0,0,0,5.31,3.29,3.29,0,0,0,2.46,1,3.41,3.41,0,0,0,1.93-.55A3.14,3.14,0,0,0,293.25,74l2.19.8a5,5,0,0,1-2,2.52A6,6,0,0,1,290.1,78.2Z"/>
      <path class="cls-1" d="M297.36,78V66.75h2.34V78Z"/>
      <path class="cls-1" d="M307.62,78.2a6.15,6.15,0,0,1-3-.71,5.16,5.16,0,0,1-2.06-2,6.15,6.15,0,0,1-.75-3.07,6.09,6.09,0,0,1,.75-3.06,5.09,5.09,0,0,1,2.06-2,6.63,6.63,0,0,1,5.93,0,5.07,5.07,0,0,1,2.05,2,6.09,6.09,0,0,1,.75,3.06,6.15,6.15,0,0,1-.75,3.07,5.09,5.09,0,0,1-2.06,2A6.13,6.13,0,0,1,307.62,78.2Zm-2.47-3.14a3.58,3.58,0,0,0,4.94,0,3.67,3.67,0,0,0,1-2.67,3.62,3.62,0,0,0-1-2.65,3.58,3.58,0,0,0-4.94,0,3.59,3.59,0,0,0-1,2.65A3.64,3.64,0,0,0,305.15,75.06Zm1.77-9.36L309,62.82l1.11.79L308.3,65.7Z"/>
      <path class="cls-1" d="M323.25,66.75h2.34V78h-2.72l-5-8.07V78h-2.33V66.75h2.68l5,8Z"/>
    </g>
    <g>
      <path class="cls-1" d="M86.35,188.35a6.57,6.57,0,0,1-.44,2.44,5.59,5.59,0,0,1-1.23,2,5.47,5.47,0,0,1-2,1.28,6.77,6.77,0,0,1-2.55.46,6.5,6.5,0,0,1-3.25-.8,5.46,5.46,0,0,1-2.16-2.18,6.54,6.54,0,0,1-.74-3.15,6.33,6.33,0,0,1,1-3.52,5.25,5.25,0,0,1,2.67-2.15l.85,2.32a3.35,3.35,0,0,0-1.62,1.29,3.65,3.65,0,0,0-.58,2.06,3.55,3.55,0,0,0,1,2.62A4.37,4.37,0,0,0,83,191a3.5,3.5,0,0,0,1-2.61,3.68,3.68,0,0,0-.58-2.06A3.33,3.33,0,0,0,81.85,185l.85-2.32a5.28,5.28,0,0,1,2.68,2.15A6.33,6.33,0,0,1,86.35,188.35Z"/>
      <path class="cls-1" d="M84,178.14v-3.76h2.2v6.25h-12v-2.49Z"/>
      <path class="cls-1" d="M86.19,172.48h-12V170h12Z"/>
      <path class="cls-1" d="M76.38,159.94v4.45h2.73v-3.94h2.16v3.94H84v-4.45h2.2v7h-12v-7Z"/>
      <path class="cls-1" d="M74.19,149.18V146.7h12v2.88l-8.58,5.31h8.58v2.49h-12v-2.85l8.53-5.35Z"/>
      <path class="cls-1" d="M74.19,136.64h2.19v2.85h9.81V142H76.38v2.87H74.19Z"/>
      <path class="cls-1" d="M76.38,127.8v4.45h2.73v-3.94h2.16v3.94H84V127.8h2.2v7h-12v-7Z"/>
      <path class="cls-1" d="M86.35,121.25a5.8,5.8,0,0,1-.91,3.33,3.72,3.72,0,0,1-2.57,1.62l-.59-2.57a2.18,2.18,0,0,0,1.51-.8,2.62,2.62,0,0,0,.53-1.68,2.14,2.14,0,0,0-.37-1.31,1.26,1.26,0,0,0-1.09-.5,1.14,1.14,0,0,0-.89.43,2.48,2.48,0,0,0-.54.84Q81.26,121,81,122l-.06.18c-.1.31-.18.57-.25.76a7,7,0,0,1-.27.72,5,5,0,0,1-.35.7c-.12.18-.26.37-.43.58a2.47,2.47,0,0,1-.56.48,3.31,3.31,0,0,1-.68.29,3.37,3.37,0,0,1-.86.11,3.19,3.19,0,0,1-1.89-.56,3.41,3.41,0,0,1-1.2-1.51,5.44,5.44,0,0,1-.4-2.16A6.55,6.55,0,0,1,74.2,120a5.5,5.5,0,0,1,.54-1.4,3.5,3.5,0,0,1,1-1.12,3.63,3.63,0,0,1,1.46-.63l.6,2.4a2,2,0,0,0-1.72,2.16,2.4,2.4,0,0,0,.35,1.34,1.17,1.17,0,0,0,1,.52c.44,0,.79-.29,1.06-.87a11.81,11.81,0,0,0,.58-1.67c.1-.33.18-.59.25-.8s.16-.46.29-.77a4.36,4.36,0,0,1,.37-.75,5.25,5.25,0,0,1,.46-.64,2.46,2.46,0,0,1,.6-.53,3.17,3.17,0,0,1,.74-.33,3,3,0,0,1,.92-.13,3.7,3.7,0,0,1,1.36.24,3,3,0,0,1,1,.66,4,4,0,0,1,.7,1,4.62,4.62,0,0,1,.41,1.22A6.71,6.71,0,0,1,86.35,121.25Z"/>
    </g>
    <g>
      <path class="cls-1" d="M217.55,199.62l-1.74.62v3.55l1.74.62v1.8l-8.46-3.12v-2.15l8.46-3.12Zm-3.21,3.66v-2.53l-3.6,1.26Z"/>
      <path class="cls-1" d="M217.55,196.55h-8.46v-3.06a4.83,4.83,0,0,1,.3-1.77,3.29,3.29,0,0,1,.86-1.27,3.82,3.82,0,0,1,1.34-.75,6.11,6.11,0,0,1,3.46,0,3.69,3.69,0,0,1,1.33.75,3.31,3.31,0,0,1,.87,1.27,4.83,4.83,0,0,1,.3,1.77ZM216,194.79v-1.22a2.09,2.09,0,0,0-.69-1.71,3.83,3.83,0,0,0-4,0,2.09,2.09,0,0,0-.69,1.71v1.22Z"/>
      <path class="cls-1" d="M217.55,178.1v1.75l-6.38.56,6.38,2.14v1.14l-6.38,2.14,6.38.57v1.75l-8.46-.7v-2.51l5.31-1.81-5.31-1.83v-2.5Z"/>
      <path class="cls-1" d="M217.55,176.26h-8.46V174.5h8.46Z"/>
      <path class="cls-1" d="M209.09,166.53v-1.75h8.46v2l-6.05,3.75h6.05v1.76h-8.46v-2l6-3.78Z"/>
      <path class="cls-1" d="M217.55,162.59h-8.46v-1.76h8.46Z"/>
      <path class="cls-1" d="M217.67,155.83a4.09,4.09,0,0,1-.65,2.35,2.6,2.6,0,0,1-1.81,1.15l-.42-1.82a1.52,1.52,0,0,0,1.07-.56,1.84,1.84,0,0,0,.37-1.19,1.48,1.48,0,0,0-.26-.92.85.85,0,0,0-.77-.35.81.81,0,0,0-.62.29,2,2,0,0,0-.39.6c-.07.2-.18.51-.31,1a.58.58,0,0,0,0,.13q-.1.33-.18.54c0,.14-.11.31-.2.51a3.2,3.2,0,0,1-.24.49,3.16,3.16,0,0,1-.31.41,1.62,1.62,0,0,1-.87.54,2,2,0,0,1-.61.08,2.29,2.29,0,0,1-1.33-.39,2.44,2.44,0,0,1-.85-1.07A3.9,3.9,0,0,1,209,156a4.94,4.94,0,0,1,.12-1.1,3.83,3.83,0,0,1,.38-1,2.27,2.27,0,0,1,.7-.78,2.49,2.49,0,0,1,1-.45l.43,1.7a1.38,1.38,0,0,0-1.22,1.52,1.68,1.68,0,0,0,.25.94.82.82,0,0,0,.74.37c.31,0,.56-.2.75-.61a8.8,8.8,0,0,0,.41-1.18l.17-.56c.05-.15.12-.33.21-.55a3.75,3.75,0,0,1,.26-.53,3.48,3.48,0,0,1,.32-.45,1.81,1.81,0,0,1,.43-.37,2.09,2.09,0,0,1,1.17-.33,2.65,2.65,0,0,1,1,.17,2.09,2.09,0,0,1,.72.47,2.6,2.6,0,0,1,.5.7,3.48,3.48,0,0,1,.29.86A4.89,4.89,0,0,1,217.67,155.83Z"/>
      <path class="cls-1" d="M209.09,146.17h1.54v2h6.92v1.74h-6.92v2h-1.54Z"/>
      <path class="cls-1" d="M217.55,140.37l-3.72,2.2v.51h3.72v1.76h-8.46v-3.07a3.61,3.61,0,0,1,.19-1.23,2.06,2.06,0,0,1,.55-.85,2.41,2.41,0,0,1,.8-.48,2.86,2.86,0,0,1,1-.16,2.06,2.06,0,0,1,1.39.46,2.37,2.37,0,0,1,.73,1.33l3.81-2.55Zm-7,2.71h2v-1c0-.88-.34-1.32-1-1.32a.94.94,0,0,0-.75.32,1.55,1.55,0,0,0-.27,1Z"/>
      <path class="cls-1" d="M217.55,131.27l-1.74.61v3.56l1.74.61v1.8l-8.46-3.12v-2.15l8.46-3.11Zm-3.21,3.65V132.4l-3.6,1.26Z"/>
      <path class="cls-1" d="M217.67,124.87a4.65,4.65,0,0,1-.31,1.72,4.16,4.16,0,0,1-.87,1.38,3.93,3.93,0,0,1-1.38.9,4.71,4.71,0,0,1-1.79.33,4.51,4.51,0,0,1-2.3-.57,3.7,3.7,0,0,1-1.52-1.54,4.5,4.5,0,0,1-.53-2.22,4.55,4.55,0,0,1,.68-2.49,3.76,3.76,0,0,1,1.89-1.51l.6,1.64a2.28,2.28,0,0,0-1.14.9,2.57,2.57,0,0,0-.41,1.46,2.49,2.49,0,0,0,.73,1.85,3.09,3.09,0,0,0,4,0,2.52,2.52,0,0,0,.74-1.85,2.62,2.62,0,0,0-.41-1.45,2.31,2.31,0,0,0-1.15-.91l.6-1.64a3.76,3.76,0,0,1,1.89,1.51A4.48,4.48,0,0,1,217.67,124.87Z"/>
      <path class="cls-1" d="M217.55,119.42h-8.46v-1.75h8.46Z"/>
      <path class="cls-1" d="M208.29,112.25l-2.15-1.53.59-.84,1.56,1.34Zm9.38-.52a4.61,4.61,0,0,1-.53,2.22,3.8,3.8,0,0,1-1.53,1.55,5,5,0,0,1-4.59,0A3.78,3.78,0,0,1,209.5,114a4.91,4.91,0,0,1,0-4.44A3.76,3.76,0,0,1,211,108a5,5,0,0,1,4.59,0,3.78,3.78,0,0,1,1.53,1.54A4.67,4.67,0,0,1,217.67,111.73Zm-2.35,1.85a2.68,2.68,0,0,0,0-3.7,3.1,3.1,0,0,0-4,0,2.71,2.71,0,0,0,0,3.7,3.1,3.1,0,0,0,4,0Z"/>
      <path class="cls-1" d="M209.09,100V98.25h8.46v2L211.5,104h6.05v1.75h-8.46v-2l6-3.77Z"/>
    </g>
    <g>
      <path class="cls-1" d="M342.28,185.42v-9.88h3.58a5.53,5.53,0,0,1,2.06.36,3.62,3.62,0,0,1,1.47,1,4.29,4.29,0,0,1,.88,1.55,7,7,0,0,1,0,4,4.42,4.42,0,0,1-.88,1.56,3.7,3.7,0,0,1-1.47,1,5.53,5.53,0,0,1-2.06.36Zm2.05-1.81h1.42a2.42,2.42,0,0,0,2-.81,4.43,4.43,0,0,0,0-4.65,2.41,2.41,0,0,0-2-.8h-1.42Z"/>
      <path class="cls-1" d="M352.49,185.42v-9.88h2.05v9.88Z"/>
      <path class="cls-1" d="M363.83,175.54h2.05v9.88h-2.37l-4.38-7.06v7.06h-2v-9.88h2.34l4.4,7Z"/>
      <path class="cls-1" d="M374.16,177.35H370.5v2.24h3.25v1.78H370.5v2.24h3.66v1.81h-5.72v-9.88h5.72Z"/>
      <path class="cls-1" d="M381.49,185.42l-2.57-4.35h-.59v4.35h-2.05v-9.88h3.58a4.16,4.16,0,0,1,1.43.23,2.47,2.47,0,0,1,1,.64,2.75,2.75,0,0,1,.56.93,3.55,3.55,0,0,1,.19,1.15,2.41,2.41,0,0,1-.54,1.63,2.76,2.76,0,0,1-1.56.85l3,4.45Zm-3.16-8.18v2.36h1.21q1.53,0,1.53-1.17a1.07,1.07,0,0,0-.37-.87,1.78,1.78,0,0,0-1.16-.32Z"/>
      <path class="cls-1" d="M389.54,185.56a5.39,5.39,0,0,1-2.59-.62,4.53,4.53,0,0,1-1.8-1.78,5.79,5.79,0,0,1,0-5.37A4.51,4.51,0,0,1,387,176a5.74,5.74,0,0,1,5.19,0,4.42,4.42,0,0,1,1.79,1.77,5.79,5.79,0,0,1,0,5.37,4.41,4.41,0,0,1-1.8,1.78A5.36,5.36,0,0,1,389.54,185.56Zm-2.16-2.75a2.9,2.9,0,0,0,2.16.87,2.87,2.87,0,0,0,2.16-.87,3.62,3.62,0,0,0,0-4.66,2.9,2.9,0,0,0-2.16-.86,2.93,2.93,0,0,0-2.16.86,3.65,3.65,0,0,0,0,4.66Z"/>
    </g>
    <g>
      <path class="cls-1" d="M498.13,137.16a6.1,6.1,0,0,1-3.52-1,3.89,3.89,0,0,1-1.72-2.72l2.73-.62a2.29,2.29,0,0,0,.84,1.6,2.79,2.79,0,0,0,1.78.56,2.31,2.31,0,0,0,1.39-.39,1.33,1.33,0,0,0,.52-1.16,1.24,1.24,0,0,0-.45-.94,2.68,2.68,0,0,0-.89-.57c-.29-.12-.77-.27-1.43-.47l-.19-.07-.81-.26-.76-.29a5.63,5.63,0,0,1-.74-.37,5.13,5.13,0,0,1-.61-.46,2.72,2.72,0,0,1-.51-.58,3.27,3.27,0,0,1-.3-.73,3,3,0,0,1-.13-.91,3.38,3.38,0,0,1,.6-2,3.58,3.58,0,0,1,1.59-1.27,5.79,5.79,0,0,1,2.3-.43,6.78,6.78,0,0,1,1.65.19,5.73,5.73,0,0,1,1.48.56,3.6,3.6,0,0,1,1.18,1,3.92,3.92,0,0,1,.68,1.54l-2.55.63a2.07,2.07,0,0,0-2.29-1.82,2.55,2.55,0,0,0-1.41.37,1.26,1.26,0,0,0-.56,1.12c0,.46.31.84.93,1.12a11.36,11.36,0,0,0,1.76.61l.85.26.82.31a7.29,7.29,0,0,1,.79.39,5.91,5.91,0,0,1,.67.49,2.76,2.76,0,0,1,.57.63,3.84,3.84,0,0,1,.35.79,3.41,3.41,0,0,1,.14,1,3.8,3.8,0,0,1-.26,1.43,3,3,0,0,1-.7,1.08,3.7,3.7,0,0,1-1.05.75,5,5,0,0,1-1.29.44A7.52,7.52,0,0,1,498.13,137.16Z"/>
      <path class="cls-1" d="M512.68,126.61H508v2.88h4.17v2.29H508v2.88h4.71V137h-7.37v-12.7h7.37Z"/>
      <path class="cls-1" d="M520.53,137.16a6.88,6.88,0,0,1-3.33-.79,5.87,5.87,0,0,1-2.32-2.29,7.5,7.5,0,0,1,0-6.9,5.85,5.85,0,0,1,2.32-2.28,7.43,7.43,0,0,1,6.67,0,5.89,5.89,0,0,1,2.31,2.28,7.5,7.5,0,0,1,0,6.9,5.87,5.87,0,0,1-2.32,2.29A6.88,6.88,0,0,1,520.53,137.16Zm-2.77-3.53a4,4,0,0,0,5.55,0,4.66,4.66,0,0,0,0-6,4.05,4.05,0,0,0-5.55,0,4.66,4.66,0,0,0,0,6Z"/>
    </g>
    <g>
      <path class="cls-1" d="M639.27,200.72a3.38,3.38,0,0,1,1.05-2.6,3.65,3.65,0,0,1,2.6-1,3.55,3.55,0,0,1,2.58,1,3.44,3.44,0,0,1,1,2.61v2.35h4v2.34H639.27Zm5.28.39a1.75,1.75,0,0,0-.44-1.29,1.93,1.93,0,0,0-2.43,0,1.71,1.71,0,0,0-.45,1.29v2h3.32Z"/>
      <path class="cls-1" d="M648.49,192.82v-3.54h2.07v5.88H639.27v-2.34Z"/>
      <path class="cls-1" d="M650.56,179.63l-2.33.82v4.75l2.33.82v2.39l-11.29-4.15v-2.87l11.29-4.16Zm-4.29,4.88v-3.37l-4.79,1.68Z"/>
      <path class="cls-1" d="M639.27,167.83v-2.34h11.29v2.71l-8.07,5h8.07v2.34H639.27v-2.68l8-5Z"/>
      <path class="cls-1" d="M641.33,156v4.19h2.57V156.5h2v3.71h2.56V156h2.07v6.55H639.27V156Z"/>
      <path class="cls-1" d="M650.56,146.05l-2.33.83v4.74l2.33.82v2.4l-11.29-4.16v-2.87l11.29-4.15Zm-4.29,4.88v-3.37l-4.79,1.68Z"/>
      <path class="cls-1" d="M650.72,137.52a6.19,6.19,0,0,1-.42,2.3,5.47,5.47,0,0,1-1.15,1.84,5.25,5.25,0,0,1-1.84,1.2,6.45,6.45,0,0,1-2.4.44,6.15,6.15,0,0,1-3.07-.75,5.13,5.13,0,0,1-2-2.06,6.15,6.15,0,0,1-.71-3,6,6,0,0,1,.92-3.31,5,5,0,0,1,2.51-2l.8,2.19a3.05,3.05,0,0,0-1.52,1.21,3.39,3.39,0,0,0-.55,1.93,3.33,3.33,0,0,0,1,2.47,4.13,4.13,0,0,0,5.32,0,3.32,3.32,0,0,0,1-2.47,3.41,3.41,0,0,0-.55-1.93,3.12,3.12,0,0,0-1.53-1.21l.8-2.19a5,5,0,0,1,2.52,2A6,6,0,0,1,650.72,137.52Z"/>
      <path class="cls-1" d="M650.56,130.27H639.27v-2.35h11.29Z"/>
      <path class="cls-1" d="M638.22,120.7l-2.88-2,.79-1.11,2.09,1.77Zm12.5-.69a6.14,6.14,0,0,1-.71,3,5.06,5.06,0,0,1-2,2.06,6.09,6.09,0,0,1-3.06.75,6.15,6.15,0,0,1-3.07-.75,5.07,5.07,0,0,1-2-2.06,6.53,6.53,0,0,1,0-5.92,5.13,5.13,0,0,1,2-2.06,6.15,6.15,0,0,1,3.07-.75A6.09,6.09,0,0,1,648,115a5.12,5.12,0,0,1,2,2.06A6.14,6.14,0,0,1,650.72,120Zm-3.14,2.47a3.58,3.58,0,0,0,0-4.94,4.15,4.15,0,0,0-5.33,0,3.6,3.6,0,0,0,0,4.94,4.15,4.15,0,0,0,5.33,0Z"/>
      <path class="cls-1" d="M639.27,104.38V102h11.29v2.71l-8.07,5h8.07v2.34H639.27v-2.68l8-5Z"/>
    </g>
  </g>
</svg>
