<svg xmlns="http://www.w3.org/2000/svg" width="3840" height="2000" viewBox="0 0 3840 2000">
  <defs>
    <style>
      .cls-1 {
        isolation: isolate;
      }

      .cls-2 {
        fill: #f8f9fd;
      }

      .cls-3 {
        fill: #febd54;
      }

      .cls-4 {
        fill: #d1e8ff;
      }

      .cls-5 {
        fill: #4d78eb;
      }

      .cls-6 {
        fill: #fee0af;
      }

      .cls-7 {
        fill: #c48c31;
      }

      .cls-46, .cls-7, .cls-9 {
        opacity: 0.36;
      }

      .cls-8 {
        fill: #feb540;
      }

      .cls-9 {
        fill: #d99b36;
      }

      .cls-10 {
        fill: #84a4fd;
      }

      .cls-11 {
        fill: #2a4387;
      }

      .cls-12 {
        fill: #6a91fd;
      }

      .cls-13 {
        fill: #325bc7;
      }

      .cls-14 {
        fill: #f2f3f7;
      }

      .cls-15 {
        fill: #3d6ff5;
      }

      .cls-16 {
        fill: #fe5454;
      }

      .cls-17 {
        fill: #f7f7f7;
      }

      .cls-18 {
        fill: #4956bd;
      }

      .cls-19 {
        fill: #333c85;
      }

      .cls-20 {
        fill: #a1d0ff;
      }

      .cls-21 {
        fill: #8da6eb;
      }

      .cls-22, .cls-68 {
        fill: #fff;
      }

      .cls-23 {
        fill: #292c47;
      }

      .cls-24 {
        fill: #eea886;
      }

      .cls-25 {
        fill: #424773;
      }

      .cls-26 {
        fill: #323657;
      }

      .cls-27 {
        fill: #b52828;
      }

      .cls-28 {
        fill: #ded7d5;
      }

      .cls-29 {
        fill: #88a3eb;
      }

      .cls-30 {
        fill: #aebeeb;
      }

      .cls-31, .cls-60 {
        fill: #243973;
      }

      .cls-31, .cls-59 {
        opacity: 0.15;
        mix-blend-mode: multiply;
      }

      .cls-32 {
        fill: #202338;
      }

      .cls-33 {
        fill: #81807e;
      }

      .cls-34 {
        fill: #cac7d1;
      }

      .cls-35 {
        fill: #1d2033;
      }

      .cls-36 {
        fill: #eea987;
      }

      .cls-37 {
        fill: #353a3d;
      }

      .cls-38 {
        fill: #c78d71;
      }

      .cls-39 {
        fill: #a09ea6;
      }

      .cls-40 {
        fill: #eae6f2;
      }

      .cls-41 {
        fill: #3a4066;
      }

      .cls-42 {
        fill: #eddad3;
      }

      .cls-43 {
        fill: #c1c5db;
      }

      .cls-44 {
        fill: #aebdf2;
      }

      .cls-45 {
        fill: #c3d2fd;
      }

      .cls-46 {
        fill: #6e4e1b;
      }

      .cls-47 {
        fill: #f2aa43;
      }

      .cls-48 {
        fill: #f8bb66;
      }

      .cls-49 {
        fill: #eba02a;
      }

      .cls-50 {
        fill: #f8c681;
      }

      .cls-51 {
        fill: #f8f8f8;
        mix-blend-mode: soft-light;
      }

      .cls-52 {
        fill: #6069a8;
      }

      .cls-53 {
        fill: #464240;
      }

      .cls-54 {
        fill: #eb4747;
      }

      .cls-55 {
        fill: #a77860;
      }

      .cls-56 {
        fill: #3a5ab0;
      }

      .cls-57 {
        fill: #5e5853;
      }

      .cls-58 {
        fill: #baafa3;
      }

      .cls-61 {
        fill: #ffc655;
      }

      .cls-62 {
        fill: #dea549;
      }

      .cls-63 {
        fill: #fdfdfd;
      }

      .cls-64 {
        fill: #d4c3bd;
      }

      .cls-65 {
        fill: #de9673;
      }

      .cls-66 {
        fill: #e6d3cc;
      }

      .cls-67 {
        fill: #dbd5d2;
      }

      .cls-68 {
        opacity: 0.72;
      }

      .cls-69 {
        fill: #7c95d6;
      }
    </style>
  </defs>
  <g class="cls-1">
    <g id="Слой_1" data-name="Слой 1">
      <g>
        <rect class="cls-2" x="2634.05" y="363.5" width="1033.14" height="925.2"/>
        <path class="cls-3" d="M2632.54,322.56V1297.5H3668.69V322.56Zm1033.14,971.93H2635.55V325.57H3665.68Z"/>
        <g>
          <rect class="cls-4" x="3387.28" y="579.56" width="163.98" height="640.25"/>
          <rect class="cls-5" x="3387.28" y="825.53" width="163.98" height="394.29"/>
        </g>
        <g>
          <rect class="cls-4" x="3086.07" y="432.38" width="163.97" height="787.44" transform="translate(6336.11 1652.2) rotate(180)"/>
          <rect class="cls-5" x="3086.07" y="720.4" width="163.97" height="499.42" transform="translate(6336.11 1940.22) rotate(180)"/>
        </g>
        <g>
          <rect class="cls-4" x="2783.98" y="519.08" width="163.97" height="700.73" transform="translate(5731.92 1738.9) rotate(180)"/>
          <rect class="cls-5" x="2783.98" y="775.39" width="163.97" height="444.43" transform="translate(5731.92 1995.21) rotate(180)"/>
        </g>
        <polygon class="cls-3" points="684.54 978.88 675.51 968.27 749.36 904.9 840.42 904.9 1047.03 728.91 1176.25 838.98 1271.54 838.98 1319.71 880.01 1469.35 752.54 1545.3 752.54 2043.48 329.11 2052.52 339.71 1550.43 766.48 1474.48 766.48 1319.71 898.31 1266.41 852.91 1171.12 852.91 1047.03 747.21 845.55 918.83 754.49 918.83 684.54 978.88"/>
        <g>
          <path class="cls-3" d="M763.41,1631.77V1668a7.44,7.44,0,0,1-7.44,7.44H279.06a7.44,7.44,0,0,1-7.44-7.44v-36.18a7.43,7.43,0,0,1,7.44-7.41H756A7.43,7.43,0,0,1,763.41,1631.77Z"/>
          <path class="cls-6" d="M763.41,1631.77H271.62a7.43,7.43,0,0,1,7.44-7.41H756A7.43,7.43,0,0,1,763.41,1631.77Z"/>
          <path class="cls-7" d="M530,1624.36l-30.55,51H279.06a7.44,7.44,0,0,1-7.44-7.44v-36.18a7.43,7.43,0,0,1,7.44-7.41Z"/>
        </g>
        <g>
          <path class="cls-3" d="M784.37,1529.72v36.17a7.44,7.44,0,0,1-7.44,7.44H300a7.45,7.45,0,0,1-7.45-7.44v-36.17a7.45,7.45,0,0,1,7.45-7.41h476.9A7.43,7.43,0,0,1,784.37,1529.72Z"/>
          <path class="cls-6" d="M784.37,1529.72H292.58a7.45,7.45,0,0,1,7.45-7.41h476.9A7.43,7.43,0,0,1,784.37,1529.72Z"/>
          <path class="cls-7" d="M550.93,1522.31l-30.54,51H300a7.45,7.45,0,0,1-7.45-7.44v-36.17a7.45,7.45,0,0,1,7.45-7.41Z"/>
        </g>
        <g>
          <path class="cls-8" d="M743.75,1580.74v36.18a7.44,7.44,0,0,1-7.44,7.44H259.4a7.44,7.44,0,0,1-7.44-7.44v-36.18a7.43,7.43,0,0,1,7.44-7.41H736.31A7.43,7.43,0,0,1,743.75,1580.74Z"/>
          <path class="cls-6" d="M743.75,1580.74H252a7.43,7.43,0,0,1,7.44-7.41H736.31A7.43,7.43,0,0,1,743.75,1580.74Z"/>
          <path class="cls-9" d="M510.31,1573.33l-30.55,51H259.4a7.44,7.44,0,0,1-7.44-7.44v-36.18a7.43,7.43,0,0,1,7.44-7.41Z"/>
        </g>
        <g>
          <path class="cls-8" d="M743.75,1478.69v36.18a7.44,7.44,0,0,1-7.44,7.44H259.4a7.44,7.44,0,0,1-7.44-7.44v-36.18a7.43,7.43,0,0,1,7.44-7.41H736.31A7.43,7.43,0,0,1,743.75,1478.69Z"/>
          <path class="cls-6" d="M743.75,1478.69H252a7.43,7.43,0,0,1,7.44-7.41H736.31A7.43,7.43,0,0,1,743.75,1478.69Z"/>
          <path class="cls-9" d="M510.31,1471.28l-30.55,51H259.4a7.44,7.44,0,0,1-7.44-7.44v-36.18a7.43,7.43,0,0,1,7.44-7.41Z"/>
        </g>
        <g>
          <path class="cls-3" d="M784.37,1427.67v36.17a7.44,7.44,0,0,1-7.44,7.44H300a7.45,7.45,0,0,1-7.45-7.44v-36.17a7.46,7.46,0,0,1,7.45-7.42h476.9A7.44,7.44,0,0,1,784.37,1427.67Z"/>
          <path class="cls-6" d="M784.37,1427.67H292.58a7.46,7.46,0,0,1,7.45-7.42h476.9A7.44,7.44,0,0,1,784.37,1427.67Z"/>
          <path class="cls-7" d="M550.93,1420.25l-30.54,51H300a7.45,7.45,0,0,1-7.45-7.44v-36.17a7.46,7.46,0,0,1,7.45-7.42Z"/>
        </g>
        <g>
          <path class="cls-3" d="M763.41,1325.61v36.18a7.44,7.44,0,0,1-7.44,7.44H279.06a7.44,7.44,0,0,1-7.44-7.44v-36.18a7.43,7.43,0,0,1,7.44-7.41H756A7.43,7.43,0,0,1,763.41,1325.61Z"/>
          <path class="cls-6" d="M763.41,1325.61H271.62a7.43,7.43,0,0,1,7.44-7.41H756A7.43,7.43,0,0,1,763.41,1325.61Z"/>
          <path class="cls-7" d="M530,1318.2l-30.55,51H279.06a7.44,7.44,0,0,1-7.44-7.44v-36.18a7.43,7.43,0,0,1,7.44-7.41Z"/>
        </g>
        <g>
          <path class="cls-8" d="M748.46,1376.64v36.17a7.44,7.44,0,0,1-7.44,7.44H264.11a7.44,7.44,0,0,1-7.44-7.44v-36.17a7.43,7.43,0,0,1,7.44-7.41H741A7.43,7.43,0,0,1,748.46,1376.64Z"/>
          <path class="cls-6" d="M748.46,1376.64H256.67a7.43,7.43,0,0,1,7.44-7.41H741A7.43,7.43,0,0,1,748.46,1376.64Z"/>
          <path class="cls-9" d="M515,1369.23l-30.54,51H264.11a7.44,7.44,0,0,1-7.44-7.44v-36.17a7.43,7.43,0,0,1,7.44-7.41Z"/>
        </g>
        <g>
          <path class="cls-8" d="M733.81,1274.58v36.2a7.43,7.43,0,0,1-7.45,7.41H249.46a7.44,7.44,0,0,1-7.45-7.41v-36.2a7.45,7.45,0,0,1,7.45-7.42h476.9A7.44,7.44,0,0,1,733.81,1274.58Z"/>
          <path class="cls-6" d="M733.81,1274.58H242a7.45,7.45,0,0,1,7.45-7.42h476.9A7.44,7.44,0,0,1,733.81,1274.58Z"/>
          <path class="cls-9" d="M515,1267.17l-5.86,7.41-34.52,43.61H249.46a7.44,7.44,0,0,1-7.45-7.41v-36.2a7.45,7.45,0,0,1,7.45-7.42Z"/>
        </g>
        <path class="cls-10" d="M2168.4,550.59V1478.7H853V550.59a46.1,46.1,0,0,1,46.07-46.07H2122.33A46.1,46.1,0,0,1,2168.4,550.59Z"/>
        <rect class="cls-11" x="899.51" y="552.24" width="1220.05" height="749.37" transform="translate(3019.07 1853.86) rotate(180)"/>
        <polygon class="cls-12" points="2168.52 1338.6 1511.09 1338.6 853.66 1338.6 709.77 1710.72 1515.4 1710.72 2312.41 1710.72 2168.52 1338.6"/>
        <g>
          <path class="cls-13" d="M903.22,1403.32H984c3.38,0,5.92,1.82,5.29,3.78l-7.82,24.31c-.48,1.5-2.7,2.59-5.29,2.59H894c-3.45,0-6-1.89-5.26-3.88l9.21-24.31C898.51,1404.35,900.69,1403.32,903.22,1403.32Z"/>
          <path class="cls-13" d="M1024.68,1403.32h52.07c2.79,0,4.9,1.75,4.4,3.66l-6.49,24.48c-.39,1.47-2.24,2.54-4.4,2.54h-53c-2.84,0-5-1.81-4.38-3.73l7.42-24.49C1020.73,1404.35,1022.56,1403.32,1024.68,1403.32Z"/>
          <path class="cls-13" d="M1116.29,1403.32h52.47c2.62,0,4.63,1.61,4.26,3.4l-5.15,24.73c-.31,1.46-2.12,2.55-4.26,2.55l-53.41,0c-2.67,0-4.7-1.65-4.25-3.47l6.09-24.76C1112.4,1404.37,1114.19,1403.32,1116.29,1403.32Z"/>
          <path class="cls-13" d="M1208.5,1403.32H1260c2.86,0,5.09,1.72,4.79,3.69l-3.63,24c-.26,1.7-2.33,3-4.8,3H1204c-2.91,0-5.16-1.78-4.78-3.78l4.54-24C1204,1404.56,1206.07,1403.32,1208.5,1403.32Z"/>
          <path class="cls-13" d="M1300.56,1403.32h50.9c3,0,5.32,1.74,5.12,3.79l-2.23,23.56c-.17,1.87-2.42,3.33-5.12,3.33h-51.79c-3,0-5.4-1.8-5.12-3.88l3.12-23.57C1295.68,1404.72,1297.9,1403.32,1300.56,1403.32Z"/>
          <path class="cls-13" d="M1393.16,1403.32h49.24c3.37,0,6.08,1.92,6,4.25l-.85,22.39c-.08,2.25-2.74,4-6,4l-50.09,0c-3.43,0-6.17-2-6-4.36l1.7-22.42C1387.35,1405.05,1390,1403.32,1393.16,1403.32Z"/>
          <path class="cls-13" d="M2115.14,1403.32h-77.46c-4.49,0-7.82,2.87-6.84,5.9l6.75,21c.71,2.22,3.55,3.8,6.84,3.8h78.65c4.59,0,7.94-3,6.78-6.08l-7.94-21C2121.11,1404.81,2118.32,1403.32,2115.14,1403.32Z"/>
          <path class="cls-13" d="M1993.1,1403.32h-47.94c-4.08,0-7.15,2.55-6.42,5.33l5.74,21.65c.57,2.14,3.27,3.7,6.41,3.7h48.77c4.14,0,7.23-2.64,6.38-5.44l-6.55-21.65C1998.85,1404.82,1996.19,1403.32,1993.1,1403.32Z"/>
          <path class="cls-13" d="M1902,1403.32h-49.8c-3.43,0-6.07,2.11-5.58,4.46l4.76,22.87c.4,1.92,2.78,3.35,5.58,3.35l50.67,0c3.5,0,6.16-2.17,5.57-4.55l-5.64-22.91C1907.13,1404.69,1904.78,1403.32,1902,1403.32Z"/>
          <path class="cls-13" d="M1810,1403.32h-49.39c-3.49,0-6.21,2.09-5.85,4.49l3.42,22.54c.31,2.07,2.83,3.65,5.84,3.65h50.24c3.55,0,6.29-2.16,5.83-4.6l-4.26-22.54C1815.47,1404.83,1813,1403.32,1810,1403.32Z"/>
          <path class="cls-13" d="M1718.62,1403.32H1668.3c-3.14,0-5.62,1.84-5.42,4l2.2,23.16c.18,2,2.55,3.52,5.41,3.52h51.2c3.2,0,5.7-1.9,5.41-4.1l-3.07-23.17C1723.77,1404.8,1721.43,1403.32,1718.62,1403.32Z"/>
          <path class="cls-13" d="M1626.59,1403.32h-49.88c-3.18,0-5.74,1.82-5.66,4l.86,22.84c.08,2.13,2.59,3.82,5.66,3.82l50.75,0c3.25,0,5.83-1.88,5.66-4.12l-1.73-22.87C1632.09,1405,1629.61,1403.32,1626.59,1403.32Z"/>
          <path class="cls-13" d="M1484.9,1403.32h49.58c3.15,0,5.73,1.75,5.81,3.93l.74,22.63c.08,2.26-2.54,4.12-5.81,4.12H1484.9c-3.21,0-5.82-1.8-5.82-4v-22.63C1479.08,1405.12,1481.69,1403.32,1484.9,1403.32Z"/>
          <path class="cls-13" d="M880.74,1456.85H997.61c3.34,0,5.88,2.06,5.36,4.34l-5.55,24.14c-.42,1.82-2.69,3.16-5.35,3.16H873.35c-3.45,0-6-2.19-5.31-4.52l7.4-24.15C876,1458.09,878.18,1456.85,880.74,1456.85Z"/>
          <path class="cls-13" d="M2135.05,1456.85H1991.26c-4.42,0-7.74,2.79-6.89,5.79l6.22,21.93c.65,2.28,3.54,3.92,6.89,3.92h145.88c4.59,0,7.95-3,6.79-6.08l-8.31-21.93C2141,1458.34,2138.25,1456.85,2135.05,1456.85Z"/>
          <path class="cls-13" d="M1945,1456.85h-48.29c-4.54,0-8,2.81-7.3,5.91l4.86,21.41c.57,2.49,3.67,4.32,7.31,4.32h49.1c4.61,0,8.1-2.89,7.27-6l-5.67-21.41C1951.64,1458.62,1948.58,1456.85,1945,1456.85Z"/>
          <path class="cls-13" d="M1850.87,1456.85h-50.1c-3.91,0-6.94,2.36-6.48,5.05l3.85,22.6c.39,2.28,3.17,4,6.48,4h51c4,0,7-2.44,6.46-5.16l-4.71-22.61C1856.87,1458.5,1854.12,1456.85,1850.87,1456.85Z"/>
          <path class="cls-13" d="M1755.26,1456.85h-48.53c-4.29,0-7.66,2.53-7.33,5.48l2.44,21.48c.3,2.64,3.49,4.68,7.33,4.68h49.34c4.36,0,7.77-2.61,7.31-5.61l-3.25-21.47C1762.18,1458.82,1759,1456.85,1755.26,1456.85Z"/>
          <path class="cls-13" d="M1660.92,1456.85h-49.78c-3.83,0-6.88,2.2-6.73,4.84l1.26,22.33c.15,2.5,3.12,4.47,6.73,4.47H1663c3.89,0,7-2.27,6.72-5l-2.12-22.32C1667.41,1458.76,1664.47,1456.85,1660.92,1456.85Z"/>
          <path class="cls-13" d="M861.8,1513.25H980.55c3.71,0,6.49,2.37,5.72,4.88l-7.07,23.34c-.56,1.88-3,3.22-5.72,3.22H853c-3.83,0-6.63-2.51-5.66-5.07l8.84-23.35C856.81,1514.5,859.14,1513.25,861.8,1513.25Z"/>
          <path class="cls-13" d="M1024.85,1513.25h54.3c3.37,0,5.93,2.11,5.37,4.41l-5.88,23.89c-.45,1.81-2.72,3.14-5.37,3.14h-55.21c-3.43,0-6-2.17-5.34-4.5l6.78-23.89C1020,1514.53,1022.25,1513.25,1024.85,1513.25Z"/>
          <path class="cls-13" d="M1117.3,1517.32c.53-2.34,3.44-4.07,6.86-4.07h476.6c3.73,0,6.79,2,6.94,4.62l1.27,21.82c.15,2.73-3,5-7,5H1119.2c-4.26,0-7.52-2.64-6.86-5.56Z"/>
          <path class="cls-13" d="M1649.58,1513.25H1697c4.7,0,8.61,2.51,9,5.75l2.15,19c.41,3.62-3.73,6.72-9,6.72H1651c-4.8,0-8.75-2.6-9-5.91l-1.44-19C1640.32,1516.25,1644.42,1513.25,1649.58,1513.25Z"/>
          <path class="cls-13" d="M1747.32,1513.25h48.24c4.34,0,8,2.25,8.5,5.23l3.34,19.59c.6,3.52-3.37,6.62-8.5,6.62h-49c-4.42,0-8.11-2.34-8.52-5.38l-2.59-19.59C1738.34,1516.25,1742.28,1513.25,1747.32,1513.25Z"/>
          <path class="cls-13" d="M1844.71,1513.25h49.62c3.85,0,7.13,2,7.73,4.58l4.68,20.6c.75,3.29-2.92,6.26-7.73,6.26h-50.4c-3.93,0-7.25-2-7.76-4.72l-3.9-20.59C1836.33,1516.13,1840,1513.25,1844.71,1513.25Z"/>
          <path class="cls-13" d="M1941.41,1513.25h52.07c3.13,0,5.83,1.54,6.44,3.67l6.34,22.35c.8,2.81-2.3,5.42-6.43,5.42h-52.92c-3.2,0-5.93-1.6-6.46-3.78l-5.5-22.36C1934.26,1515.78,1937.35,1513.25,1941.41,1513.25Z"/>
          <path class="cls-13" d="M2036.93,1513.25h121.62c2,0,3.77.94,4.27,2.29l9.59,25.32c.73,1.93-1.38,3.83-4.28,3.83H2044.6c-2.09,0-3.89-1-4.32-2.43l-7.67-25.32C2032,1515,2034.13,1513.25,2036.93,1513.25Z"/>
          <path class="cls-13" d="M1565.53,1456.85h-48c-4.08,0-7.38,2.29-7.38,5.11v21.42c0,2.83,3.3,5.11,7.38,5.11h48.83c4.15,0,7.49-2.37,7.38-5.24l-.81-21.42C1572.8,1459.06,1569.53,1456.85,1565.53,1456.85Z"/>
          <path class="cls-13" d="M1472,1456.85H1420.7c-3.2,0-5.83,1.75-6,4l-1.33,23.4c-.13,2.34,2.57,4.28,5.95,4.28h52.23c3.25,0,5.91-1.81,6-4.06l.44-23.4C1478,1458.73,1475.36,1456.85,1472,1456.85Z"/>
          <path class="cls-13" d="M1376.34,1456.85h-49.8c-3.51,0-6.43,1.87-6.7,4.29l-2.54,22.34c-.31,2.7,2.78,5,6.7,5h50.65c3.58,0,6.53-1.93,6.71-4.4l1.69-22.35C1383.26,1459.08,1380.19,1456.85,1376.34,1456.85Z"/>
          <path class="cls-13" d="M1281.83,1456.85h-50.52c-3.21,0-5.92,1.66-6.29,3.87l-3.9,22.88c-.44,2.6,2.5,4.89,6.29,4.89h51.39c3.28,0,6-1.72,6.31-4l3-22.88C1288.48,1459.07,1285.56,1456.85,1281.83,1456.85Z"/>
          <path class="cls-13" d="M1186.05,1456.85h-49c-3.49,0-6.46,1.76-7,4.14l-5,21.84c-.68,3,2.65,5.66,7,5.66h49.79c3.56,0,6.56-1.82,7-4.26l4.13-21.84C1193.64,1459.45,1190.33,1456.85,1186.05,1456.85Z"/>
          <path class="cls-13" d="M1091.84,1456.85h-50.15c-3.08,0-5.74,1.51-6.33,3.6l-6.45,22.72c-.78,2.76,2.27,5.32,6.33,5.32h51c3.14,0,5.83-1.57,6.36-3.71l5.59-22.72C1098.87,1459.34,1095.83,1456.85,1091.84,1456.85Z"/>
          <path class="cls-13" d="M908,1379.34l7.53-19.88c.62-1.65,2.78-2.81,5.24-2.81h18.56c3.52,0,6.1,2.29,5.27,4.65l-7,19.88c-.59,1.68-2.77,2.86-5.27,2.86h-19C909.67,1384,907.08,1381.72,908,1379.34Z"/>
          <path class="cls-13" d="M979.38,1356.65h50.35c2.81,0,4.91,1.79,4.33,3.7l-6.44,21.26c-.43,1.42-2.24,2.43-4.33,2.43H972.13c-2.85,0-5-1.84-4.31-3.76l7.25-21.26C975.54,1357.63,977.32,1356.65,979.38,1356.65Z"/>
          <path class="cls-13" d="M1068.31,1356.65h50.82c2.62,0,4.6,1.63,4.17,3.42l-5.31,21.54c-.34,1.41-2.1,2.43-4.16,2.43h-51.64c-2.66,0-4.66-1.68-4.15-3.48l6.12-21.54C1064.55,1357.64,1066.29,1356.65,1068.31,1356.65Z"/>
          <path class="cls-13" d="M1158.34,1356.65H1207c3.21,0,5.68,2,5.27,4.16l-3.79,20c-.35,1.83-2.61,3.2-5.28,3.2h-49.45c-3.27,0-5.76-2-5.26-4.25l4.55-20C1153.49,1358,1155.72,1356.65,1158.34,1356.65Z"/>
          <path class="cls-13" d="M1247.6,1356.65h48.47c3.21,0,5.73,1.91,5.44,4.13l-2.63,19.83c-.26,2-2.62,3.43-5.44,3.43h-49.22c-3.27,0-5.8-2-5.42-4.22l3.38-19.83C1242.5,1358.09,1244.83,1356.65,1247.6,1356.65Z"/>
          <path class="cls-13" d="M1337,1356.65H1385c3.3,0,5.92,1.91,5.74,4.19l-1.47,19.44c-.16,2.11-2.68,3.76-5.74,3.76h-48.67c-3.35,0-6-2-5.73-4.28l2.21-19.44C1331.52,1358.25,1334,1356.65,1337,1356.65Z"/>
          <path class="cls-13" d="M1425.88,1356.65h48.59c3,0,5.47,1.72,5.43,3.81l-.38,19.88c0,2.05-2.46,3.7-5.43,3.7h-49.34c-3.08,0-5.54-1.77-5.42-3.9l1.13-19.88C1420.57,1358.25,1423,1356.65,1425.88,1356.65Z"/>
          <path class="cls-13" d="M1514.41,1356.65h49.85c2.6,0,4.72,1.44,4.79,3.23l.78,20.76c.08,1.87-2.09,3.4-4.79,3.4h-50.63c-2.64,0-4.79-1.48-4.79-3.31V1360C1509.62,1358.14,1511.77,1356.65,1514.41,1356.65Z"/>
          <path class="cls-13" d="M1604.67,1356.65h47.73c3.09,0,5.64,1.66,5.84,3.79l1.83,19.29c.22,2.33-2.46,4.31-5.84,4.31h-48.47c-3.14,0-5.72-1.71-5.85-3.89l-1.09-19.29C1598.69,1358.57,1601.34,1356.65,1604.67,1356.65Z"/>
          <path class="cls-13" d="M1693.18,1356.65h49c2.67,0,4.91,1.4,5.19,3.24l3.06,20.17c.32,2.13-2.1,4-5.19,4h-49.73c-2.72,0-5-1.45-5.2-3.32l-2.29-20.17C1687.74,1358.45,1690.14,1356.65,1693.18,1356.65Z"/>
          <path class="cls-13" d="M1782.67,1356.65h48.38c2.73,0,5,1.39,5.43,3.26l4.12,19.79c.48,2.29-2.09,4.34-5.43,4.34H1786c-2.78,0-5.12-1.44-5.45-3.35l-3.37-19.79C1776.83,1358.64,1779.38,1356.65,1782.67,1356.65Z"/>
          <path class="cls-13" d="M1872.36,1356.65h47.48c2.85,0,5.29,1.41,5.81,3.35l5.09,19.22c.66,2.51-2.12,4.82-5.81,4.82h-48.21c-2.9,0-5.38-1.46-5.83-3.45l-4.36-19.22C1866,1358.9,1868.73,1356.65,1872.36,1356.65Z"/>
          <path class="cls-13" d="M1961.45,1356.65h47.63c2.71,0,5.06,1.31,5.65,3.14l6.23,19.38c.81,2.5-2,4.87-5.65,4.87H1967c-2.77,0-5.15-1.35-5.68-3.23l-5.5-19.38C1955.07,1359,1957.8,1356.65,1961.45,1356.65Z"/>
          <path class="cls-13" d="M2050.05,1356.65h48.54c2.41,0,4.51,1.13,5.12,2.74l7.6,20.07c.88,2.32-1.65,4.58-5.12,4.58h-49.3c-2.45,0-4.59-1.16-5.15-2.82l-6.84-20.07C2044.12,1358.86,2046.64,1356.65,2050.05,1356.65Z"/>
        </g>
        <g>
          <path class="cls-14" d="M903.22,1400.51H984c3.38,0,5.92,1.82,5.29,3.78l-7.82,24.31c-.48,1.5-2.7,2.59-5.29,2.59H894c-3.45,0-6-1.89-5.26-3.88L898,1403C898.51,1401.55,900.69,1400.51,903.22,1400.51Z"/>
          <path class="cls-14" d="M1024.68,1400.51h52.07c2.79,0,4.9,1.76,4.4,3.66l-6.49,24.48c-.39,1.47-2.24,2.54-4.4,2.54h-53c-2.84,0-5-1.81-4.38-3.73l7.42-24.49C1020.73,1401.54,1022.56,1400.51,1024.68,1400.51Z"/>
          <path class="cls-14" d="M1116.29,1400.51h52.47c2.62,0,4.63,1.61,4.26,3.4l-5.15,24.73c-.31,1.46-2.12,2.55-4.26,2.55l-53.41,0c-2.67,0-4.7-1.66-4.25-3.48L1112,1403C1112.4,1401.56,1114.19,1400.51,1116.29,1400.51Z"/>
          <path class="cls-14" d="M1208.5,1400.51H1260c2.86,0,5.09,1.72,4.79,3.69l-3.63,24c-.26,1.7-2.33,3-4.8,3H1204c-2.91,0-5.16-1.77-4.78-3.77l4.54-24C1204,1401.75,1206.07,1400.51,1208.5,1400.51Z"/>
          <path class="cls-14" d="M1300.56,1400.51h50.9c3,0,5.32,1.74,5.12,3.79l-2.23,23.57c-.17,1.87-2.42,3.32-5.12,3.32h-51.79c-3,0-5.4-1.8-5.12-3.88l3.12-23.57C1295.68,1401.91,1297.9,1400.51,1300.56,1400.51Z"/>
          <path class="cls-14" d="M1393.16,1400.51h49.24c3.37,0,6.08,1.92,6,4.26l-.85,22.39c-.08,2.24-2.74,4-6,4l-50.09,0c-3.43,0-6.17-2-6-4.37l1.7-22.42C1387.35,1402.24,1390,1400.51,1393.16,1400.51Z"/>
          <path class="cls-14" d="M2115.14,1400.51h-77.46c-4.49,0-7.82,2.88-6.84,5.9l6.75,21c.71,2.22,3.55,3.8,6.84,3.8h78.65c4.59,0,7.94-3,6.78-6.08l-7.94-21C2121.11,1402,2118.32,1400.51,2115.14,1400.51Z"/>
          <path class="cls-14" d="M1993.1,1400.51h-47.94c-4.08,0-7.15,2.56-6.42,5.33l5.74,21.65c.57,2.14,3.27,3.7,6.41,3.7h48.77c4.14,0,7.23-2.64,6.38-5.44l-6.55-21.65C1998.85,1402,1996.19,1400.51,1993.1,1400.51Z"/>
          <path class="cls-14" d="M1902,1400.51h-49.8c-3.43,0-6.07,2.11-5.58,4.46l4.76,22.88c.4,1.92,2.78,3.34,5.58,3.34l50.67,0c3.5,0,6.16-2.18,5.57-4.56l-5.64-22.91C1907.13,1401.88,1904.78,1400.51,1902,1400.51Z"/>
          <path class="cls-14" d="M1810,1400.51h-49.39c-3.49,0-6.21,2.09-5.85,4.49l3.42,22.54c.31,2.08,2.83,3.65,5.84,3.65h50.24c3.55,0,6.29-2.16,5.83-4.6l-4.26-22.54C1815.47,1402,1813,1400.51,1810,1400.51Z"/>
          <path class="cls-14" d="M1718.62,1400.51H1668.3c-3.14,0-5.62,1.84-5.42,4l2.2,23.17c.18,2,2.55,3.51,5.41,3.51h51.2c3.2,0,5.7-1.9,5.41-4.1l-3.07-23.16C1723.77,1402,1721.43,1400.51,1718.62,1400.51Z"/>
          <path class="cls-14" d="M1626.59,1400.51h-49.88c-3.18,0-5.74,1.82-5.66,4l.86,22.83c.08,2.13,2.59,3.82,5.66,3.82l50.75,0c3.25,0,5.83-1.89,5.66-4.13l-1.73-22.87C1632.09,1402.15,1629.61,1400.51,1626.59,1400.51Z"/>
          <path class="cls-14" d="M1484.9,1400.51h49.58c3.15,0,5.73,1.75,5.81,3.93l.74,22.63c.08,2.26-2.54,4.12-5.81,4.12H1484.9c-3.21,0-5.82-1.8-5.82-4v-22.64C1479.08,1402.31,1481.69,1400.51,1484.9,1400.51Z"/>
          <path class="cls-14" d="M880.74,1454H997.61c3.34,0,5.88,2.06,5.36,4.34l-5.55,24.14c-.42,1.82-2.69,3.17-5.35,3.17H873.35c-3.45,0-6-2.2-5.31-4.53l7.4-24.14C876,1455.28,878.18,1454,880.74,1454Z"/>
          <path class="cls-14" d="M2135.05,1454H1991.26c-4.42,0-7.74,2.8-6.89,5.8l6.22,21.92c.65,2.28,3.54,3.93,6.89,3.93h145.88c4.59,0,7.95-3,6.79-6.09l-8.31-21.93C2141,1455.53,2138.25,1454,2135.05,1454Z"/>
          <path class="cls-14" d="M1945,1454h-48.29c-4.54,0-8,2.81-7.3,5.91l4.86,21.41c.57,2.49,3.67,4.33,7.31,4.33h49.1c4.61,0,8.1-2.9,7.27-6l-5.67-21.41C1951.64,1455.81,1948.58,1454,1945,1454Z"/>
          <path class="cls-14" d="M1850.87,1454h-50.1c-3.91,0-6.94,2.36-6.48,5l3.85,22.61c.39,2.27,3.17,4,6.48,4h51c4,0,7-2.44,6.46-5.17l-4.71-22.6C1856.87,1455.69,1854.12,1454,1850.87,1454Z"/>
          <path class="cls-14" d="M1755.26,1454h-48.53c-4.29,0-7.66,2.53-7.33,5.49l2.44,21.47c.3,2.64,3.49,4.69,7.33,4.69h49.34c4.36,0,7.77-2.62,7.31-5.62l-3.25-21.47C1762.18,1456,1759,1454,1755.26,1454Z"/>
          <path class="cls-14" d="M1660.92,1454h-49.78c-3.83,0-6.88,2.2-6.73,4.85l1.26,22.32c.15,2.5,3.12,4.48,6.73,4.48H1663c3.89,0,7-2.28,6.72-5l-2.12-22.32C1667.41,1456,1664.47,1454,1660.92,1454Z"/>
          <path class="cls-14" d="M861.8,1510.45H980.55c3.71,0,6.49,2.36,5.72,4.87l-7.07,23.34c-.56,1.88-3,3.22-5.72,3.22H853c-3.83,0-6.63-2.51-5.66-5.07l8.84-23.34C856.81,1511.69,859.14,1510.45,861.8,1510.45Z"/>
          <path class="cls-14" d="M1024.85,1510.45h54.3c3.37,0,5.93,2.1,5.37,4.4l-5.88,23.89c-.45,1.81-2.72,3.14-5.37,3.14h-55.21c-3.43,0-6-2.17-5.34-4.5l6.78-23.89C1020,1511.72,1022.25,1510.45,1024.85,1510.45Z"/>
          <path class="cls-14" d="M1117.3,1514.51c.53-2.34,3.44-4.06,6.86-4.06h476.6c3.73,0,6.79,2,6.94,4.61l1.27,21.82c.15,2.73-3,5-7,5H1119.2c-4.26,0-7.52-2.64-6.86-5.55Z"/>
          <path class="cls-14" d="M1649.58,1510.45H1697c4.7,0,8.61,2.5,9,5.74l2.15,19c.41,3.62-3.73,6.72-9,6.72H1651c-4.8,0-8.75-2.6-9-5.91l-1.44-19C1640.32,1513.44,1644.42,1510.45,1649.58,1510.45Z"/>
          <path class="cls-14" d="M1747.32,1510.45h48.24c4.34,0,8,2.24,8.5,5.23l3.34,19.58c.6,3.53-3.37,6.62-8.5,6.62h-49c-4.42,0-8.11-2.33-8.52-5.38l-2.59-19.59C1738.34,1513.44,1742.28,1510.45,1747.32,1510.45Z"/>
          <path class="cls-14" d="M1844.71,1510.45h49.62c3.85,0,7.13,1.94,7.73,4.57l4.68,20.6c.75,3.29-2.92,6.26-7.73,6.26h-50.4c-3.93,0-7.25-2-7.76-4.71l-3.9-20.6C1836.33,1513.32,1840,1510.45,1844.71,1510.45Z"/>
          <path class="cls-14" d="M1941.41,1510.45h52.07c3.13,0,5.83,1.53,6.44,3.66l6.34,22.36c.8,2.8-2.3,5.41-6.43,5.41h-52.92c-3.2,0-5.93-1.6-6.46-3.78l-5.5-22.35C1934.26,1513,1937.35,1510.45,1941.41,1510.45Z"/>
          <path class="cls-14" d="M2036.93,1510.45h121.62c2,0,3.77.93,4.27,2.28l9.59,25.32c.73,1.94-1.38,3.83-4.28,3.83H2044.6c-2.09,0-3.89-1-4.32-2.43l-7.67-25.32C2032,1512.23,2034.13,1510.45,2036.93,1510.45Z"/>
          <path class="cls-14" d="M1565.53,1454h-48c-4.08,0-7.38,2.29-7.38,5.11v21.43c0,2.82,3.3,5.11,7.38,5.11h48.83c4.15,0,7.49-2.37,7.38-5.25l-.81-21.42C1572.8,1456.25,1569.53,1454,1565.53,1454Z"/>
          <path class="cls-14" d="M1472,1454H1420.7c-3.2,0-5.83,1.75-6,4l-1.33,23.4c-.13,2.34,2.57,4.29,5.95,4.29h52.23c3.25,0,5.91-1.82,6-4.07l.44-23.4C1478,1455.92,1475.36,1454,1472,1454Z"/>
          <path class="cls-14" d="M1376.34,1454h-49.8c-3.51,0-6.43,1.87-6.7,4.29l-2.54,22.34c-.31,2.7,2.78,5,6.7,5h50.65c3.58,0,6.53-1.94,6.71-4.41l1.69-22.34C1383.26,1456.28,1380.19,1454,1376.34,1454Z"/>
          <path class="cls-14" d="M1281.83,1454h-50.52c-3.21,0-5.92,1.67-6.29,3.87l-3.9,22.88c-.44,2.61,2.5,4.9,6.29,4.9h51.39c3.28,0,6-1.73,6.31-4l3-22.87C1288.48,1456.26,1285.56,1454,1281.83,1454Z"/>
          <path class="cls-14" d="M1186.05,1454h-49c-3.49,0-6.46,1.76-7,4.14l-5,21.84c-.68,3,2.65,5.67,7,5.67h49.79c3.56,0,6.56-1.83,7-4.27l4.13-21.84C1193.64,1456.65,1190.33,1454,1186.05,1454Z"/>
          <path class="cls-14" d="M1091.84,1454h-50.15c-3.08,0-5.74,1.51-6.33,3.61l-6.45,22.71c-.78,2.76,2.27,5.33,6.33,5.33h51c3.14,0,5.83-1.57,6.36-3.72l5.59-22.71C1098.87,1456.53,1095.83,1454,1091.84,1454Z"/>
          <path class="cls-14" d="M908,1376.53l7.53-19.88c.62-1.65,2.78-2.8,5.24-2.8h18.56c3.52,0,6.1,2.28,5.27,4.64l-7,19.88c-.59,1.68-2.77,2.87-5.27,2.87h-19C909.67,1381.24,907.08,1378.91,908,1376.53Z"/>
          <path class="cls-14" d="M979.38,1353.85h50.35c2.81,0,4.91,1.79,4.33,3.69l-6.44,21.26c-.43,1.42-2.24,2.44-4.33,2.44H972.13c-2.85,0-5-1.85-4.31-3.77l7.25-21.26C975.54,1354.82,977.32,1353.85,979.38,1353.85Z"/>
          <path class="cls-14" d="M1068.31,1353.85h50.82c2.62,0,4.6,1.63,4.17,3.41L1118,1378.8c-.34,1.41-2.1,2.44-4.16,2.44h-51.64c-2.66,0-4.66-1.68-4.15-3.49l6.12-21.54C1064.55,1354.84,1066.29,1353.85,1068.31,1353.85Z"/>
          <path class="cls-14" d="M1158.34,1353.85H1207c3.21,0,5.68,2,5.27,4.15l-3.79,20c-.35,1.84-2.61,3.21-5.28,3.21h-49.45c-3.27,0-5.76-2-5.26-4.25l4.55-20C1153.49,1355.17,1155.72,1353.85,1158.34,1353.85Z"/>
          <path class="cls-14" d="M1247.6,1353.85h48.47c3.21,0,5.73,1.91,5.44,4.12l-2.63,19.83c-.26,2-2.62,3.44-5.44,3.44h-49.22c-3.27,0-5.8-2-5.42-4.22l3.38-19.84C1242.5,1355.28,1244.83,1353.85,1247.6,1353.85Z"/>
          <path class="cls-14" d="M1337,1353.85H1385c3.3,0,5.92,1.91,5.74,4.18l-1.47,19.44c-.16,2.11-2.68,3.77-5.74,3.77h-48.67c-3.35,0-6-2-5.73-4.29l2.21-19.44C1331.52,1355.44,1334,1353.85,1337,1353.85Z"/>
          <path class="cls-14" d="M1425.88,1353.85h48.59c3,0,5.47,1.71,5.43,3.8l-.38,19.88c0,2-2.46,3.71-5.43,3.71h-49.34c-3.08,0-5.54-1.78-5.42-3.91l1.13-19.87C1420.57,1355.44,1423,1353.85,1425.88,1353.85Z"/>
          <path class="cls-14" d="M1514.41,1353.85h49.85c2.6,0,4.72,1.43,4.79,3.23l.78,20.75c.08,1.87-2.09,3.41-4.79,3.41h-50.63c-2.64,0-4.79-1.49-4.79-3.32v-20.76C1509.62,1355.33,1511.77,1353.85,1514.41,1353.85Z"/>
          <path class="cls-14" d="M1604.67,1353.85h47.73c3.09,0,5.64,1.65,5.84,3.78l1.83,19.29c.22,2.34-2.46,4.32-5.84,4.32h-48.47c-3.14,0-5.72-1.72-5.85-3.9l-1.09-19.28C1598.69,1355.76,1601.34,1353.85,1604.67,1353.85Z"/>
          <path class="cls-14" d="M1693.18,1353.85h49c2.67,0,4.91,1.39,5.19,3.23l3.06,20.17c.32,2.13-2.1,4-5.19,4h-49.73c-2.72,0-5-1.45-5.2-3.33l-2.29-20.17C1687.74,1355.64,1690.14,1353.85,1693.18,1353.85Z"/>
          <path class="cls-14" d="M1782.67,1353.85h48.38c2.73,0,5,1.38,5.43,3.25l4.12,19.8c.48,2.29-2.09,4.34-5.43,4.34H1786c-2.78,0-5.12-1.45-5.45-3.36l-3.37-19.79C1776.83,1355.83,1779.38,1353.85,1782.67,1353.85Z"/>
          <path class="cls-14" d="M1872.36,1353.85h47.48c2.85,0,5.29,1.41,5.81,3.34l5.09,19.23c.66,2.5-2.12,4.82-5.81,4.82h-48.21c-2.9,0-5.38-1.47-5.83-3.45l-4.36-19.23C1866,1356.09,1868.73,1353.85,1872.36,1353.85Z"/>
          <path class="cls-14" d="M1961.45,1353.85h47.63c2.71,0,5.06,1.3,5.65,3.13l6.23,19.38c.81,2.5-2,4.88-5.65,4.88H1967c-2.77,0-5.15-1.36-5.68-3.24l-5.5-19.37C1955.07,1356.15,1957.8,1353.85,1961.45,1353.85Z"/>
          <path class="cls-14" d="M2050.05,1353.85h48.54c2.41,0,4.51,1.12,5.12,2.73l7.6,20.07c.88,2.32-1.65,4.59-5.12,4.59h-49.3c-2.45,0-4.59-1.17-5.15-2.82l-6.84-20.07C2044.12,1356.05,2046.64,1353.85,2050.05,1353.85Z"/>
        </g>
        <path class="cls-15" d="M2270.35,1752H751.46a41.86,41.86,0,0,1-41.87-41.86H2312.22A41.87,41.87,0,0,1,2270.35,1752Z"/>
        <path class="cls-13" d="M1697.2,1589.9c-1.55-6.54-9.77-11.33-19.37-11.33H1343.91c-9.59,0-17.75,4.79-19.31,11.33l-20.92,91.4c0-.09.06-.22.06-.3l20.86-87.35c1.56-6.55,9.72-11.33,19.31-11.33h333.92c9.6,0,17.82,4.78,19.37,11.33l20.87,87.35c0,.08.06.17.06.26Z"/>
        <path class="cls-5" d="M1697.2,1593.66c-1.56-6.55-9.75-11.36-19.34-11.36H1344c-9.6,0-17.78,4.81-19.35,11.36L1303.74,1681c-2,8.27,7.24,15.79,19.35,15.79h375.63c12.11,0,21.32-7.52,19.35-15.79Z"/>
        <g>
          <path class="cls-16" d="M1647,835a219.73,219.73,0,0,1,3.5-66.18l214.78,44.74-124,180.82A218.6,218.6,0,0,1,1647,835Z"/>
          <path class="cls-3" d="M1650.52,768.85c19-91.38,95.54-163.89,193.34-173.5A218.4,218.4,0,0,1,1956.22,614c-27.82,60.83-72.64,159.37-86.61,190.12l-1,2.27c-.33.71-.63,1.39-.91,2l-2.36,5.19Z"/>
          <path class="cls-5" d="M1865.3,813.59l2.36-5.19.91-2,1-2.27,3-6.51.83-1.88,2.8-6.1,80.24-175.53a219.29,219.29,0,0,1,77.14,340.09Z"/>
          <path class="cls-17" d="M1741.26,994.41l124-180.82L2033.59,954.2a219.28,219.28,0,0,1-292.33,40.21Z"/>
          <ellipse class="cls-11" cx="1865.31" cy="813.6" rx="151.23" ry="151.25" transform="translate(1038.8 2673.23) rotate(-89.6)"/>
        </g>
        <g>
          <polygon class="cls-18" points="2367.86 328.09 2342 231 2191.07 370.64 2209.64 474.47 2367.86 328.09"/>
          <polygon class="cls-19" points="2330.16 521.38 2235.83 488.3 2386.83 348.59 2488.83 375.49 2330.16 521.38"/>
          <path class="cls-20" d="M1867.42,829.15l519.41-480.56-19-20.5L1848.21,808.86h0a14,14,0,0,0,19,20.49v0l.13-.12.06,0Z"/>
        </g>
        <path class="cls-5" d="M944.74,1250.86s56.19-391.92,248.4-391.89c204.08,0,212.55,341.25,316.4,340.5,67.93-.49,86.26-145.87,160.23-144s85.43,159.26,152,158.57c67.75-.7,40.35-94.9,109.08-95,77.34-.08,90.26,131.82,90.26,131.82Z"/>
        <rect class="cls-21" x="1120.13" y="858.04" width="146.02" height="1.85"/>
        <rect class="cls-21" x="1635.43" y="1054.52" width="67.19" height="1.85"/>
        <rect class="cls-22" x="1186.93" y="852.76" width="12.42" height="12.42"/>
        <rect class="cls-22" x="1662.81" y="1049.23" width="12.42" height="12.42"/>
        <polygon class="cls-21" points="939.55 874.99 939.3 874.99 939.3 806.27 1003.03 806.27 1003.03 806.52 939.55 806.52 939.55 874.99"/>
        <polygon class="cls-21" points="2737.37 560.43 2734.36 560.43 2734.36 490.32 2799.47 490.32 2799.47 493.33 2737.37 493.33 2737.37 560.43"/>
        <polygon class="cls-21" points="2085.13 1273 2061.87 1273 2061.87 1272.75 2084.88 1272.75 2084.88 1250.87 2085.13 1250.87 2085.13 1273"/>
        <g>
          <rect class="cls-22" x="1372.46" y="1018.44" width="26.02" height="1.94" transform="translate(-314.99 1278.57) rotate(-45.01)"/>
          <rect class="cls-22" x="1384.5" y="1006.41" width="1.94" height="26.02" transform="translate(-315.02 1278.37) rotate(-45)"/>
        </g>
        <g>
          <rect class="cls-22" x="1570.6" y="1132.93" width="26.02" height="1.94" transform="translate(-337.9 1452.24) rotate(-45.01)"/>
          <rect class="cls-22" x="1582.64" y="1120.89" width="1.94" height="26.02" transform="translate(-337.95 1451.99) rotate(-45)"/>
        </g>
        <path class="cls-3" d="M944.74,1250.86s63.19-207.65,203.73-201.63,114.48,166.92,180.59,155.58,45.12-86.56,98.21-86.38,36.74,106.78,98.12,104.77,40.5-63.19,91.15-62.79c52.48.42,58.69,90.45,58.69,90.45Z"/>
        <g>
          <polygon class="cls-23" points="944.38 1198.2 1021.33 1240.49 1098.61 1118.9 1005.14 1086.44 944.38 1198.2"/>
          <polygon class="cls-17" points="949.26 1194.55 1021.22 1234.1 1093.49 1120.39 1006.08 1090.03 949.26 1194.55"/>
          <path class="cls-24" d="M922.9,1173.28s13.4-6.4,19.28-9.75,21-8,22.22-9,44.83-3.78,47.47-6.06,5.22,5.35-6.08,7.82-27,8.53-27.89,13,11.6,5.46,12.87,9.1-.36,2.82-2.14,3.6-14.83-6.44-20.57-4.39-14.5-.79-18.9.71-25.77,8.7-25.77,8.7Z"/>
          <path class="cls-24" d="M1025.08,1225.23s11.25-10.12,16.7-14.36,15.66-16.69,17.16-17.42,21-40.76,24.2-42.37-3-7-9.74,2.69-18.56,22.15-23.06,21.24-.63-13.07-3.56-15.67-2.8-.77-4.23.61.29,16.48-3.87,21.09-4.91,14-8,17.53-18.23,20.9-18.23,20.9Z"/>
          <path class="cls-25" d="M782.76,1766.43s-2.44,16.89-2.74,19.43-27.08-1.5-27.08-1.5l-2.16-20.11S779.41,1764.05,782.76,1766.43Z"/>
          <path class="cls-23" d="M780.31,1783.71s8.48,10.18,16.68,14.61,21.1,6.2,26,10.79c3.5,3.31,12.75,17.59-21.32,17.3s-50.5,2-54.15-3.46,5.28-40.39,5.28-40.39S760.82,1785.47,780.31,1783.71Z"/>
          <path class="cls-25" d="M974.58,1766.43s-2.43,16.89-2.74,19.43-27.07-1.5-27.07-1.5l-2.17-20.11S971.23,1764.05,974.58,1766.43Z"/>
          <path class="cls-23" d="M972.13,1783.71s8.48,10.18,16.68,14.61,38.4,8.08,43.25,12.68c3.5,3.31,9.32,16.66-38.62,15.41-34.06-.89-50.5,2-54.15-3.46s5.28-40.39,5.28-40.39S952.18,1785.67,972.13,1783.71Z"/>
          <path class="cls-23" d="M804.93,1332.39s-25.16,40-23.28,76.08-9.12,75.56-12.9,113.3c-4.21,42.06-21.45,141.65-22.08,164.15s2.68,94.35,2.68,94.35l34.51.79s29-174.1,36.49-191.86,44.73-144.41,46-158.63S804.93,1332.39,804.93,1332.39Z"/>
          <path class="cls-23" d="M937.35,1337.81s19,99,21.46,121.11,4.17,107,5.42,120.8,8.34,180.82,15,201.34H935.12s-33.86-121.4-33.86-178.83-26.17-124.88-43.06-162.77-55.55-38.8-65.93-109.11C792.27,1330.35,923.29,1315.5,937.35,1337.81Z"/>
          <path class="cls-24" d="M846.9,996.43s33.77-12.61,49.34,13.09,14.07,77.14-3,83.47-42.59,3-51.3-13.06-16.58-39.33-16.2-54.86S838,1000.92,846.9,996.43Z"/>
          <path class="cls-24" d="M889.62,1094.17s-1.4,9.11.92,13.6-43.75,4.61-43.75,4.61S843.05,1088,836,1067.32,889.62,1094.17,889.62,1094.17Z"/>
          <path class="cls-23" d="M836,1067.32s3.18,5.25,16.16,3.21,28.81-19.3,34.23-21.19,5.47-5.08,5.47-5.08l-.58,5.67,9.73-.35s-5.25-15.45,2.67-21.74-6.28-72.95-69.38-28.47c0,0-12.43,1.84-11.27,20S828.81,1058.27,836,1067.32Z"/>
          <path class="cls-23" d="M893.27,1107.23s-.14-8.58-4-9.4-42.93-4.58-47.7-2.7v10S850.73,1110.78,893.27,1107.23Z"/>
          <path class="cls-24" d="M891,1037.65c-.72-3.05-8.48-11.76-11.45-2.44s4.49,21.88,8.65,20.81S892.81,1045.38,891,1037.65Z"/>
          <path class="cls-26" d="M1048.21,1208.59h-.07C1048.41,1208.7,1048.45,1208.71,1048.21,1208.59Z"/>
          <path class="cls-16" d="M776.55,1427.59s20.7,6.09,56,10,123.53-1.41,124.09-5.58-19-155.31-17.87-163.1,1.71-35.51,1.71-35.51c.43,7.6,8.18,38.64,17.52,55.56,3.38,6.11,14.71,25.27,20.17,20.91,26.43-21.1,67.36-100.6,70-101.28-2.18-.94-19.39-8.87-21.81-9.67-2.12-.71-21.18,19.48-32.74,32-5.15,5.58-8.8,9.63-8.8,9.63-3.34-7.51-15.49-54.79-19.27-71.15-8.52-36.9-7.21-38.44-7.21-38.44-25.83-7.81-65-23.71-65-23.71l-51.74-2.11s-47.48,10.45-66.18,18.9c-1.77.8-1.78,42.35-6.65,53.25l15.51,32.7s8.95,64.78,10.81,93.59C795.87,1316.79,776.55,1427.59,776.55,1427.59Z"/>
          <path class="cls-16" d="M766.55,1231.22c1.35,4.36,7.49,8,11.47,9.65a14.8,14.8,0,0,0,8.29.83l2-.37h0l35.46-6.58s7.76-89.33-48.44-110.73C773.87,1124.5,754.14,1191.22,766.55,1231.22Z"/>
          <path class="cls-27" d="M778,1240.87h0a14.8,14.8,0,0,0,8.29.83l2-.37h0l-3.5-45.65Z"/>
          <path class="cls-27" d="M984.79,1240.53l4.33,18.35s4.7-18.42,4.47-28C988.44,1236.48,984.79,1240.53,984.79,1240.53Z"/>
          <path class="cls-23" d="M837.29,999.46s-44.25-5.54-.75,68.36Z"/>
          <polygon class="cls-23" points="1063.03 1112.38 1067.53 1104.65 1032.1 1092.43 1027.6 1100.11 1063.03 1112.38"/>
        </g>
        <polygon class="cls-3" points="656.91 852.76 638.44 852.76 638.44 838.83 651.14 838.83 728.95 761.02 785.53 817.59 920.68 682.46 962.26 724.03 1099.29 587.02 1181.4 669.12 1275.02 669.12 1419.53 524.64 1544.15 524.64 1636.28 432.52 1749.06 432.52 1860.95 320.64 1870.81 330.5 1754.83 446.45 1642.05 446.45 1549.92 538.57 1425.3 538.57 1280.8 683.05 1175.63 683.05 1099.29 606.72 962.26 743.73 920.68 702.16 785.53 837.29 728.95 780.73 656.91 852.76"/>
        <polygon class="cls-5" points="1618.6 828.83 1585.12 795.36 1489.33 795.36 1489.33 794.86 1585.32 794.86 1618.95 828.48 1618.6 828.83"/>
        <rect class="cls-10" x="1378.9" y="769.3" width="141.48" height="8.01" rx="1.96"/>
        <rect class="cls-10" x="1378.9" y="751.15" width="88.17" height="8.01" rx="1.96"/>
        <rect class="cls-21" x="1066.4" y="833.73" width="97.96" height="8.01" rx="1.63"/>
        <rect class="cls-21" x="1066.4" y="815.57" width="61.05" height="8.01" rx="1.63"/>
        <rect class="cls-21" x="1628.15" y="1023.85" width="43.8" height="8.01" rx="1.38"/>
        <rect class="cls-21" x="1628.15" y="1006.96" width="56.28" height="8.01" rx="1.56"/>
        <polygon class="cls-5" points="1624.18 723.89 1585.12 684.84 1466.29 684.84 1466.29 684.34 1585.32 684.34 1624.53 723.54 1624.18 723.89"/>
        <rect class="cls-10" x="1378.9" y="658.78" width="100.61" height="8.01" rx="1.96"/>
        <rect class="cls-10" x="1378.9" y="640.63" width="123.85" height="8.01" rx="1.96"/>
        <polygon class="cls-18" points="3269.93 698.34 3268.41 696.81 3311.32 653.91 3441.2 653.91 3441.2 656.06 3312.21 656.06 3269.93 698.34"/>
        <rect class="cls-10" x="3327.45" y="624.36" width="153.2" height="12.2" rx="2.98" transform="translate(6808.1 1260.91) rotate(180)"/>
        <rect class="cls-10" x="3327.45" y="596.72" width="188.58" height="12.2" rx="2.98" transform="translate(6843.48 1205.64) rotate(180)"/>
        <rect class="cls-10" x="2903.76" y="720.38" width="141.83" height="12.2" rx="2.91" transform="translate(5949.34 1452.95) rotate(180)"/>
        <rect class="cls-10" x="2903.76" y="748.01" width="55.02" height="12.2" rx="2.61" transform="translate(5862.54 1508.23) rotate(180)"/>
        <rect class="cls-10" x="2903.76" y="692.74" width="115.41" height="12.2" rx="2.91" transform="translate(5922.93 1397.67) rotate(180)"/>
        <g>
          <g>
            <polygon class="cls-11" points="2875.01 1797.36 2870.68 1797.19 2892.48 1250.02 2515.46 1250.02 2493.65 1797.36 2489.32 1797.19 2511.29 1245.69 2896.99 1245.69 2875.01 1797.36"/>
            <polygon class="cls-11" points="2910.32 1797.36 2888.52 1250.02 2511.5 1250.02 2533.3 1797.19 2528.97 1797.36 2506.99 1245.69 2892.68 1245.69 2914.66 1797.19 2910.32 1797.36"/>
            <polygon class="cls-5" points="2531.13 1619.35 2912.49 1619.35 2890.6 1069.93 2509.24 1069.93 2531.13 1619.35"/>
            <polygon class="cls-17" points="2862.09 1619.35 2480.73 1619.35 2502.62 1069.93 2883.98 1069.93 2862.09 1619.35"/>
            <rect class="cls-28" x="2536.18" y="1163.57" width="117.76" height="24.39" rx="8.44"/>
            <rect class="cls-29" x="2536.18" y="1120.92" width="117.76" height="24.39" rx="8.44"/>
            <rect class="cls-29" x="2555.97" y="1374.94" width="78.19" height="16.2" rx="5.61"/>
            <polygon class="cls-29" points="2698.83 1405.41 2575.46 1405.41 2575.46 1402.96 2696.38 1402.96 2696.38 1364.22 2698.83 1364.22 2698.83 1405.41"/>
            <g>
              <path class="cls-29" d="M2844.68,1141.62a50.08,50.08,0,1,0-94.32,33.72c.38,1.06.8,2.1,1.24,3.12a50.08,50.08,0,0,0,93.08-36.84Zm-34.52,52.21a37.5,37.5,0,0,1-47.07-20.37c-.33-.76-.64-1.55-.92-2.34a37.55,37.55,0,1,1,48,22.71Z"/>
              <path class="cls-16" d="M2761.68,1147.29l-12-3.74a50.19,50.19,0,0,1,46.31-35.14l.38,12.53a37.62,37.62,0,0,0-34.72,26.35Z"/>
              <path class="cls-5" d="M2763.09,1173.46l-11.49,5c-.44-1-.86-2.06-1.24-3.12a49.88,49.88,0,0,1-.65-31.79l12,3.74a37.32,37.32,0,0,0,.49,23.83C2762.45,1171.91,2762.76,1172.7,2763.09,1173.46Z"/>
              <path class="cls-5" d="M2759.36,1190.93a49.65,49.65,0,0,1-7.76-12.47l11.49-5a37.53,37.53,0,0,0,5.82,9.35Z"/>
            </g>
            <polygon class="cls-30" points="2482.93 1619.43 2478.54 1619.43 2500.51 1067.73 2890.6 1067.73 2890.6 1072.12 2504.73 1072.12 2482.93 1619.43"/>
            <polygon class="cls-29" points="2862.09 1619.35 2883.98 1067.73 2890.6 1067.73 2912.49 1619.35 2862.09 1619.35"/>
            <polygon class="cls-29" points="2527.8 1505.5 2525.64 1501.68 2620.58 1447.78 2675.65 1485.16 2834.01 1397.48 2836.14 1401.32 2675.42 1490.31 2620.37 1452.94 2527.8 1505.5"/>
            <g>
              <path class="cls-29" d="M2754.87,1236.29a66.06,66.06,0,1,0-56.51,119.43c1.34.63,2.7,1.22,4.06,1.76a66.06,66.06,0,0,0,52.45-121.19Zm16.52,80.9a49.46,49.46,0,0,1-62.92,24.9c-1-.4-2-.84-3-1.32a49.53,49.53,0,1,1,66-23.58Z"/>
              <path class="cls-5" d="M2682.74,1319l-14.65,7.67a66.15,66.15,0,0,1,10.41-76l12,11.34a49.61,49.61,0,0,0-7.8,57Z"/>
              <path class="cls-16" d="M2708.47,1342.09l-6,15.39c-1.36-.54-2.72-1.13-4.06-1.76a65.76,65.76,0,0,1-30.27-29l14.65-7.67a49.23,49.23,0,0,0,22.69,21.77C2706.43,1341.25,2707.45,1341.69,2708.47,1342.09Z"/>
              <path class="cls-16" d="M2721.29,1361.87a65.65,65.65,0,0,1-18.87-4.39l6-15.39a49.56,49.56,0,0,0,14.15,3.3Z"/>
            </g>
            <polygon class="cls-29" points="2521.91 1572.28 2519.63 1568.54 2619.55 1507.67 2661.06 1544.17 2730.34 1523.18 2791.89 1526.55 2829.35 1491.51 2832.35 1494.72 2793.52 1531.03 2730.87 1527.61 2659.99 1549.08 2619.08 1513.1 2521.91 1572.28"/>
            <path class="cls-29" d="M2574.55,1339.81a9.69,9.69,0,0,1-3.58-.66,9.31,9.31,0,0,1-2.91-1.82,8.82,8.82,0,0,1-2-2.71,8.15,8.15,0,0,1,0-6.7,9,9,0,0,1,4.88-4.59,10,10,0,0,1,7.16,0,9,9,0,0,1,4.88,4.59,8.15,8.15,0,0,1,0,6.7,8.82,8.82,0,0,1-2,2.71,9.31,9.31,0,0,1-2.91,1.82A9.69,9.69,0,0,1,2574.55,1339.81Zm-6.58,22.1,16.22-19.21,15.24-19.8,3,2.6-15.93,19-15.59,20.09Zm6.58-25.39a3.9,3.9,0,0,0,1.82-.43,4.84,4.84,0,0,0,1.47-1.16,5.73,5.73,0,0,0,1-1.67,5.38,5.38,0,0,0,.38-2,5.81,5.81,0,0,0-.38-2.08,5.64,5.64,0,0,0-1-1.7,4.5,4.5,0,0,0-1.5-1.13,4.24,4.24,0,0,0-5.11,1.19,5.82,5.82,0,0,0-1,5.77,5.73,5.73,0,0,0,1,1.67,4.6,4.6,0,0,0,1.47,1.13A4.14,4.14,0,0,0,2574.55,1336.52Zm21.24,28.28a9.69,9.69,0,0,1-3.58-.66,9,9,0,0,1-4.88-4.59,8.15,8.15,0,0,1,0-6.7,8.71,8.71,0,0,1,2-2.71,9.14,9.14,0,0,1,2.91-1.82,10,10,0,0,1,7.16,0,9,9,0,0,1,2.91,1.82,8.55,8.55,0,0,1,2,2.71,8.15,8.15,0,0,1,0,6.7,9,9,0,0,1-4.88,4.59A9.69,9.69,0,0,1,2595.79,1364.8Zm0-3.29a4.23,4.23,0,0,0,3.32-1.56,5.81,5.81,0,0,0,1-5.8,5.41,5.41,0,0,0-1-1.67,4.94,4.94,0,0,0-1.5-1.13,4,4,0,0,0-1.76-.4,3.9,3.9,0,0,0-1.82.43,5,5,0,0,0-1.47,1.16,5.6,5.6,0,0,0-1,1.67,5.37,5.37,0,0,0-.37,2,5.81,5.81,0,0,0,.37,2.08,5.64,5.64,0,0,0,1,1.7,4.71,4.71,0,0,0,1.47,1.13A4.14,4.14,0,0,0,2595.79,1361.51Z"/>
          </g>
          <path class="cls-31" d="M2628.09,1239.69c-1.83-.59-29.27.31-38,.62,0-.16-.12-.35-.16-.51,6.83-1.63,25.62-6.13,28-6.75,2.95-.78,2.79-2.56.42-3.92-2.13-1.24-28.17,4.08-33.18,5.08-4.89.35-15.92,4.58-14.83,1.63,1.24-3.37,9.7-17.73,6.75-20.29s-6.75,7.57-8.85,10.09c-1.59,1.9-6.71,8-7.87,13.27a8.12,8.12,0,0,1-2.1,3.69l-.08-.66s-6.17,1.9-15.6,3.76a193.52,193.52,0,0,1-22.2,3.22c-1.24.12-2.6.24-4,.39-1.67.2-3.41.39-5.24.66-1.28.16-2.6.31-4,.51-3.22.42-6.48.89-9.58,1.27-.78.12-1.52.2-2.26.32s-1.47.19-2.17.27l-1.36,34c.7-.08,1.44-.15,2.18-.27l2.25-.27c3.92-.54,8-1.2,12.26-1.94l1.28-.23c1-.16,2-.35,3-.55l1.32-.23,3.57-.7c22.63-4.46,44.68-10.24,44.68-10.24l-1.21-8.62a8.07,8.07,0,0,0,1.13-.47c1.71-.85,14,3,24.29.12l.47-.23v.08s16-.74,22.75-.32,6.17-2.52,5.66-3.64c-.62-1.48-17-2.29-23.87-2.56a1.71,1.71,0,0,0,.08-.43c8.34-.78,30.78-2.87,33-3.1A2.64,2.64,0,0,0,2627,1250a2.19,2.19,0,0,0-.86-1.82c-1.35-.94-25.61-.28-34.38,0a.51.51,0,0,1,0-.24c4.85-.46,14.51-1.39,22.7-2.25,7.18-.7,13.28-1.4,13.86-1.63C2629.87,1243.53,2629.41,1240.07,2628.09,1239.69Z"/>
          <g>
            <path class="cls-32" d="M2269.61,1775.51s-6.38,11.89-10.54,16.61-20.12,13.15-20.2,27.17c-.1,15.2,26.88,11,37.43,10.43s11.35-8.68,15.79-17.28,8.92-7.15,9.76-14.09-4.3-22.84-4.3-22.84Z"/>
            <path class="cls-33" d="M2297.18,1770.92s1.24,6.49,1,6.64-29.91,5.46-29.74.07c.13-4.28,2.74-9.26,2.74-9.26Z"/>
            <path class="cls-24" d="M2568.83,1212.08s31.12-6.55,33.45-5.2,2.47,3.11-.42,3.85-29.94,7.22-29.94,7.22,37.73-1.38,39.89-.72c1.27.39,1.75,3.76.22,4.31s-39,4.13-39,4.13,35.23-1.22,36.85-.1a2.63,2.63,0,0,1-1.52,4.52c-2.61.27-35.35,3.33-35.35,3.33s25.6.79,26.38,2.61c.49,1.12,1,4-5.56,3.59s-22.32.3-22.32.3Z"/>
            <path class="cls-32" d="M2430.33,1773.26s13,14.51,26.2,17.55,22.43,6.92,22.53,15.25-38,13.82-53.09,5.42c-22.54-12.53-24.83-8.75-27.33-15s3-23,2.84-25C2401.28,1769,2430.33,1773.26,2430.33,1773.26Z"/>
            <path class="cls-33" d="M2428.87,1766.32s1.71,6.8,1.46,6.94-29.74,3.66-28.85-1.8c.72-4.42,1.75-9.23,1.75-9.23Z"/>
            <path class="cls-23" d="M2402.06,1359.3s10.72,104.13,16.3,139.78c6.52,41.68,8.73,76.11,10.55,97.69,2.29,27.13,2.73,160.61,4.33,168.54s-35.52,2.19-35.52,2.19-18.27-174.4-25.08-203.3c-6.34-26.9-29.89-142.75-35.68-135.4s-13,135.19-17.25,156.41-17.32,187.36-17.32,187.36-29.55,5.88-37.41-.77c0,0-3.58-143.18-.84-183,1-15.17-17.77-181.8,6.35-248.89C2283.23,1304.5,2402.06,1359.3,2402.06,1359.3Z"/>
            <path class="cls-34" d="M2218.25,1374.08s18.08,5.49,25.65,4.1,3.75-94.29,4-113.62c.23-15.68,8.81-57.08,8.81-57.08a.42.42,0,0,0,0,.07.06.06,0,0,1,0,0s0,.05,0,.07c.85,3.1,12.43,46.06,12.83,66.71.43,21.42-2.79,103.36-2.79,103.36l31.92,3.11,91.74,2.25,19.13-2.26s-2.28-35-3.13-51.68c-.53-10.58-2.59-29.52-2.06-48,0,0-.33-19.45,1.6-27.82.2-37,2.44-73.58,2.44-73.58q1.88-25.12,2.6-47c-4-2.14-8.9-4.65-12.8-6.49-12-5.74-28.81-13.46-39.58-18.39-6.3-2.9-12.47-5-12.47-5s-43-4.13-46.52-3.91c-1.1.07-6.48,1.94-13.53,4.63-15.26,5.79-44.67,17.58-49.36,20.94-6.87,4.92-21.39,121.76-22,129.94C2213.58,1269.19,2218.25,1374.08,2218.25,1374.08Z"/>
            <path class="cls-35" d="M2406.86,1366.19s-63,5.36-118.11,0v18.09s82.82,12,120.87-3.45Z"/>
            <path class="cls-5" d="M2353.16,1105.48s10.24,24,17.93,77.82c2.95,20.66,8.42,55.42,12.4,90.9v0c3.13,28,10.29,56.67,12.57,78.08,2.35,22.18,9.45,87.53,9.45,87.53l17.22-10.85c2.46-2.28,5.91-5.23,4.91-8.42-4.74-15.29-13.8-65.83-19.15-109.89,0,0,0-.05,0-.09q-.37-3.18-.74-6.31c0-.11,0-.22,0-.34-1-8.81-1.85-17.25-2.44-25a78.4,78.4,0,0,1,.77-17.38c2.4-39.54,3.59-81.23,3.59-81.23,1.26-17.07,2-33,2.47-47.88-2.79-2.13-8.95-5.42-13.27-7.47C2398.81,1125,2360.36,1107.56,2353.16,1105.48Z"/>
            <path class="cls-34" d="M2349.93,1118s1.15,16.46-12.78,16.85-25-13-25-13l23.12,6,14.07-11.92Z"/>
            <path class="cls-24" d="M2533.9,1225.37s10.14-2.83,11.5-8.89c1.15-5.16,6.18-11.17,7.72-13,2.07-2.48,5.81-12.39,8.7-9.88s-5.44,16.6-6.64,19.88,12.86-2.48,16.11-1.48,9.81,25.27-.21,28.09-22.15-1-23.84-.1a62.4,62.4,0,0,1-7.23,2.35Z"/>
            <path class="cls-36" d="M2331.12,991.91s32,5.39,26.53,55.39-33.61,45.6-35.5,45.53-28.37.6-29.76-60.54C2292.39,1032.29,2292,987.08,2331.12,991.91Z"/>
            <path class="cls-36" d="M2345.12,1078.33s0,20.6.84,25.06c.91,4.8-25.65,18.65-42.8,2.51,0,0,3.47-22.5,2.39-30.44S2345.12,1078.33,2345.12,1078.33Z"/>
            <path class="cls-36" d="M2357.78,1035.66s3.54-3.71,4.79.09-4.5,19.88-5.24,21.43c0,0-.65,1.46-1.48.64S2357.78,1035.66,2357.78,1035.66Z"/>
            <path class="cls-36" d="M2292.75,1031.82s-3.39-3.85-4.79-.1,3.71,20.58,4.35,21.62c0,0,1.1,1.73,2,.94S2292.75,1031.82,2292.75,1031.82Z"/>
            <path class="cls-37" d="M2360.34,1028.92c-1.1,6.84-2.14,11.93-2.14,11.93l-4.65,6.07s.28-13.43-.43-15.54c-.27-.8-.59-2.21-.91-3.74-.54-2.53-1.08-5.39-1.46-6.34-.6-1.52-27.38-9.34-51.23,1.64,0,0,.2,2.07.19,4.37,0,2.68-.31,5.68-1.54,6.13-2.28.84-1.33,15.71-1.33,15.71l-3.72-4.29s-1.07-7.77-2.13-16.7a.28.28,0,0,0,0-.06c-.24-2.08-.48-4.23-.72-6.35-.53-9,.36-25.29,12.06-34.88,7.89-3.38,20.5-6.25,41.51.18,0,0,5.24,1.5,6.59,2.8C2363.5,1004.25,2360.34,1028.92,2360.34,1028.92Z"/>
            <path class="cls-38" d="M2307.75,1086.14s5.1,7.08,16.94,6.81,17-6.44,17-6.44-5.61,11.73-17,11.61S2307.75,1086.14,2307.75,1086.14Z"/>
            <path class="cls-39" d="M2347.2,1119l-11.92,8.81s10-21.22,10.22-29.72Z"/>
            <polygon class="cls-40" points="2345.5 1098.12 2353.61 1105.65 2362.14 1131.09 2347.2 1119.03 2345.5 1098.12"/>
            <path class="cls-5" d="M2547.31,1248.9s-70.34,18.51-87.54,14.28c-7.95-2-18.42-12.92-28.37-25.82-3.28-4.25-6.5-8.71-9.56-13.12v0c-12.2-17.62-21.77-34.52-21.77-34.52s-36.08-42.28-7.13-61.12c0,0,12.2-1.24,19.15,3.88,6.4,4.73,22,34.5,24.53,40s29.95,56.75,31.79,57.9,25.34-3,37.76-4.08a198,198,0,0,0,37.08-6.84Z"/>
            <path class="cls-36" d="M2344,1105.7a140.86,140.86,0,0,1-8.69,22.14s-12.51-11-16.44-14.86S2344,1105.7,2344,1105.7Z"/>
            <path class="cls-39" d="M2322.19,1115.59l13.09,12.25s-15.47-1-18.36-3.6Z"/>
            <path class="cls-40" d="M2304.83,1093s10.47,17,17.36,22.57l-11.61,19.28L2292,1101.05Z"/>
            <path class="cls-5" d="M2249.26,1265.44c-1.33,17.94,6.26,117.21-1.32,118.6s-35.41-4.72-35.41-4.72-3.49-107.06-2.37-118.28c.81-8.17,13.82-130.68,20.68-135.6,4-2.85,33.36-13.27,47.78-19,2.63-1,11-4.54,13.34-5.44,3.06,3.4,29.71,65.93,32.24,114.69.77,14.84-2.71,46.18-5.35,71.79-2.83,27.32-5.95,48.64-8.24,71.48-4.52,45-7.68,80.82-7.68,80.82l-44.8-19.94c-7.25-3.63-17.29-18.51-14.56-26.14,10.35-29,23.4-78.56,23.41-104,0,0-5-62.32-9-76C2258,1213.72,2251,1242.63,2249.26,1265.44Z"/>
            <rect class="cls-41" x="2332.37" y="1367.3" width="29.68" height="22.06"/>
            <g>
              <polygon class="cls-42" points="2265.84 1483.79 2168.21 1483.79 2191.12 1418.79 2288.75 1418.79 2265.84 1483.79"/>
              <polygon class="cls-17" points="2265.84 1483.79 2168.21 1483.79 2191.12 1418.79 2288.75 1418.79 2265.84 1483.79"/>
              <polygon class="cls-43" points="2191.12 1548.8 2288.75 1548.8 2265.84 1483.79 2168.21 1483.79 2191.12 1548.8"/>
              <polygon class="cls-17" points="2265.84 1613.81 2168.21 1613.81 2191.12 1548.8 2288.75 1548.8 2265.84 1613.81"/>
              <polygon class="cls-43" points="2191.12 1678.82 2288.75 1678.82 2265.84 1613.81 2168.21 1613.81 2191.12 1678.82"/>
              <polygon class="cls-44" points="2252.52 1432.05 2196.84 1432.05 2197.62 1429.64 2253.31 1429.64 2252.52 1432.05"/>
              <polygon class="cls-44" points="2249.21 1440.78 2193.53 1440.78 2194.31 1438.37 2249.99 1438.37 2249.21 1440.78"/>
              <polygon class="cls-44" points="2234.97 1449.51 2189.92 1449.51 2190.7 1447.1 2235.75 1447.1 2234.97 1449.51"/>
              <polygon class="cls-44" points="2252.52 1561.61 2196.84 1561.61 2197.62 1559.2 2253.31 1559.2 2252.52 1561.61"/>
              <polygon class="cls-44" points="2221.37 1570.34 2193.53 1570.34 2194.31 1567.93 2222.15 1567.93 2221.37 1570.34"/>
            </g>
            <path class="cls-24" d="M2242.37,1385.28s.53,1.66,1.44,4.45c1.59,4.8,6.69,10.29,3.55,16.85s-26.78,2.43-30.37-.63-2.11-13.1,6.14-26S2242.37,1385.28,2242.37,1385.28Z"/>
            <path class="cls-24" d="M2248.09,1404.22a207.56,207.56,0,0,1-2,22.82c-1.53,10.54-4.89,23.4-7.55,23-4-.54-.07-10.77.74-21.31.75-9.71-1-7.92-1-7.92s.54-.48-2.35,9.94c-3.11,11.21-6.91,23.12-9.09,22.88-2.71-.31-3-.58-2.56-4.83-.8,2.39-1.57,2.51-2.61,2.28-5.37-1.22-3.4-18.39-2.61-25.21-.64,5.23-1.67,9-4.48,6.14-3.21-3.28.69-27.44,1.24-36.23C2216.41,1386.25,2248.09,1404.22,2248.09,1404.22Z"/>
            <path class="cls-5" d="M2250.44,1315.62l-.46,78.89s-15.75-.7-37.45-8.71L2211,1274.55Z"/>
          </g>
        </g>
        <polygon class="cls-3" points="276.25 694.64 423.34 694.64 423.34 801.23 423.34 823.69 400.88 801.23 276.25 801.23 276.25 694.64"/>
        <polygon class="cls-3" points="2524.74 871.93 2405.6 871.93 2405.6 958.27 2405.6 976.45 2423.79 958.27 2524.74 958.27 2524.74 871.93"/>
        <g>
          <rect class="cls-22" x="1129.63" y="1048.26" width="26.02" height="1.94" transform="translate(-407.24 1115.57) rotate(-45.01)"/>
          <rect class="cls-22" x="1141.67" y="1036.23" width="1.94" height="26.02" transform="translate(-407.25 1115.37) rotate(-45)"/>
        </g>
        <g>
          <rect class="cls-45" x="1498.91" y="392.48" width="4" height="1" transform="translate(161.67 1176.31) rotate(-45)"/>
          <path class="cls-45" d="M712.66,520.25H708v-1h4.26l2.32-2.31.71.7Zm-12.64,0h-8v-1h8Zm-15.91,0h-8v-1h8Zm-15.92,0h-8v-1h8Zm-15.91,0h-8v-1h8Zm-15.91,0h-8v-1h8Zm-15.92,0h-8v-1h8Zm-15.91,0h-8v-1h8Zm-15.92,0h-8v-1h8Zm-15.91,0h-8v-1h8Zm-15.91,0h-8v-1h8Zm-15.92,0h-8v-1h8Zm-15.91,0h-8v-1h8Zm-15.91,0h-8v-1h8Zm-15.92,0h-8v-1h8Zm-15.91,0h-8v-1h8Zm-15.92,0h-7.95v-1h7.95Zm-15.91,0h-8v-1h8Zm-15.91,0h-8v-1h8Zm-15.92,0h-7.95v-1h7.95Zm-15.91,0h-8v-1h8Zm-15.92,0h-7.95v-1h7.95Zm-15.91,0h-8v-1h8Zm-15.91,0h-8v-1h8Zm-15.92,0h-7.95v-1H334Zm-15.91,0h-8v-1h8Zm-15.92,0h-7.95v-1h7.95Zm-15.91,0h-8v-1h8Zm-15.91,0h-8v-1h8Zm-15.92,0h-8v-1h8Zm-15.91,0h-8v-1h8Zm-15.91,0h-8v-1h8Zm-15.92,0h-8v-1h8ZM720.9,512l-.71-.71,5.63-5.63.7.71Zm11.25-11.25-.71-.71,5.63-5.63.71.71Zm11.25-11.26-.7-.7,5.62-5.63.71.71Zm11.26-11.25-.71-.7,5.63-5.63.7.71ZM765.91,467l-.71-.71,5.63-5.62.71.7Zm11.25-11.25-.7-.71,5.62-5.62.71.7Zm11.26-11.25-.71-.71,5.63-5.63.7.71Zm671.76-10.1h-8v-1H1460v.24l.48.48Zm-15.93,0h-8v-1h8Zm-15.91,0h-8v-1h8Zm-15.92,0h-8v-1h8Zm-15.91,0h-8v-1h8Zm-15.92,0h-7.95v-1h7.95Zm-15.91,0h-8v-1h8Zm-15.91,0h-8v-1h8Zm-15.92,0h-8v-1h8Zm-15.91,0h-8v-1h8Zm-15.92,0h-8v-1h8Zm-15.91,0h-8v-1h8Zm-15.91,0h-8v-1h8Zm-15.92,0h-8v-1h8Zm-15.91,0h-8v-1h8Zm-15.91,0h-8v-1h8Zm-15.92,0h-8v-1h8Zm-15.91,0h-8v-1h8Zm-15.92,0h-8v-1h8Zm-15.91,0h-8v-1h8Zm-15.91,0h-8v-1h8Zm-15.92,0h-8v-1h8Zm-15.91,0h-8v-1h8Zm-15.92,0h-8v-1h8Zm-15.91,0h-8v-1h8Zm-15.91,0h-8v-1h8Zm-15.92,0h-8v-1h8Zm-15.91,0h-8v-1h8Zm-15.92,0h-8v-1h8Zm-15.91,0h-8v-1h8Zm-15.91,0h-8v-1h8Zm-15.92,0h-8v-1h8Zm-15.91,0h-8v-1h8Zm-15.92,0h-8v-1h8Zm-15.91,0h-8v-1h8Zm-15.91,0h-8v-1h8Zm-15.92,0h-8v-1h8Zm-15.91,0h-8v-1h8Zm-15.91,0h-8v-1h8Zm-15.92,0h-8v-1h8Zm-15.91,0h-8v-1h8Zm-15.92,0h-8v-1h8Zm658.4-5.9-.71-.71,5.63-5.63.71.71Zm11.25-11.26-.7-.7,5.62-5.63.71.71ZM1488.6,406l-.71-.7,5.63-5.63.7.71Z"/>
          <polygon class="cls-45" points="187.28 523.75 186.28 523.75 186.28 519.25 190.78 519.25 190.78 520.25 187.28 520.25 187.28 523.75"/>
          <path class="cls-45" d="M187.28,804.17h-1v-7.79h1Zm0-15.58h-1V780.8h1Zm0-15.58h-1v-7.79h1Zm0-15.58h-1v-7.79h1Zm0-15.58h-1v-7.79h1Zm0-15.57h-1v-7.79h1Zm0-15.58h-1v-7.79h1Zm0-15.58h-1v-7.79h1Zm0-15.58h-1v-7.79h1Zm0-15.58h-1v-7.79h1Zm0-15.58h-1v-7.79h1Zm0-15.58h-1V625h1Zm0-15.57h-1v-7.79h1Zm0-15.58h-1v-7.79h1Zm0-15.58h-1v-7.79h1Zm0-15.58h-1V562.7h1Zm0-15.58h-1v-7.79h1Zm0-15.58h-1v-7.79h1Z"/>
          <polygon class="cls-45" points="189.25 819.14 186.28 816.16 186.28 811.96 187.28 811.96 187.28 815.75 189.96 818.43 189.25 819.14"/>
          <path class="cls-45" d="M269.57,899.44l-5.74-5.73.71-.71,5.73,5.73ZM258.09,888l-5.73-5.74.7-.7,5.74,5.73ZM246.62,876.5l-5.74-5.74.71-.71,5.74,5.74ZM235.15,865l-5.74-5.74.71-.71,5.73,5.74Zm-11.48-11.48-5.73-5.73.7-.71,5.74,5.74ZM212.2,842.08l-5.74-5.73.71-.71,5.74,5.74Zm-11.47-11.47L195,824.88l.71-.71,5.73,5.73Z"/>
          <rect class="cls-45" x="276.57" y="904.24" width="1" height="4" transform="translate(-559.69 461.41) rotate(-45)"/>
        </g>
        <path class="cls-45" d="M307.27,907.65a22.51,22.51,0,1,1-22.51-22.5A22.51,22.51,0,0,1,307.27,907.65Z"/>
        <path class="cls-45" d="M2793.19,1067.82a22.51,22.51,0,1,1-22.51-22.5A22.51,22.51,0,0,1,2793.19,1067.82Z"/>
        <path class="cls-45" d="M2190.91,881.67a22.51,22.51,0,1,1-22.51-22.51A22.5,22.5,0,0,1,2190.91,881.67Z"/>
        <path class="cls-45" d="M2888.47,521.38A22.51,22.51,0,1,1,2866,498.87,22.51,22.51,0,0,1,2888.47,521.38Z"/>
        <path class="cls-45" d="M2766.46,1062.81l-5.66-5.66.71-.7,5.66,5.65Zm-11.31-11.31-5.66-5.66.71-.71,5.65,5.66Zm-11.32-11.32-5.66-5.65.71-.71,5.66,5.66Zm-11.31-11.31-5.66-5.65.71-.71,5.65,5.65Zm-11.32-11.31-5.66-5.66.71-.7,5.66,5.65Zm-11.31-11.31-5.66-5.66.71-.71,5.65,5.66Zm-11.32-11.32-5.65-5.65.7-.71,5.66,5.66Zm-11.31-11.31-3.85-3.85v-3h1v2.56l3.55,3.55Zm-2.85-14.82h-1v-8h1Zm0-16h-1v-8h1Zm0-16h-1v-8h1Zm0-16h-1v-8h1Zm0-16h-1v-8h1Zm0-16h-1v-8h1Zm0-16h-1v-8h1Zm0-16h-1v-8h1Zm0-16h-1v-8h1Zm0-16h-1v-8h1Zm0-16h-1v-8h1Zm0-16h-1v-8h1Zm0-16h-1v-8h1Zm0-16h-1v-8h1Zm0-16h-1v-8h1Zm0-16h-1v-8h1Zm0-16h-1v-8h1Zm-4-14.34-5.66-5.66.71-.71,5.65,5.66Zm-11.32-11.31-5.65-5.66.7-.71,5.66,5.66Zm-11.31-11.32-5.66-5.65.71-.71,5.66,5.66Zm-11.32-11.31-5.65-5.66.7-.7,5.66,5.65Zm-11.31-11.31-5.66-5.66.71-.71,5.66,5.66Zm-11.32-11.32-5.65-5.65.7-.71,5.66,5.66Zm-11.31-11.31-5.66-5.66.71-.7,5.66,5.65Zm-11.31-11.31-5.66-5.66.7-.7,5.66,5.65ZM2589.89,608l-5.66-5.66.71-.71,5.66,5.66Zm-11.31-11.32-5.66-5.65.71-.71,5.65,5.66Zm-11.32-11.31-5.66-5.66.71-.7,5.66,5.65ZM2556,574l-5.66-5.66.71-.71,5.65,5.66Zm-11.32-11.32-5.66-5.65.71-.71,5.66,5.66Zm-11.31-11.31-5.66-5.65.71-.71,5.65,5.65ZM2522,540.08l-5.65-5.66.7-.7,5.66,5.65Zm-11.31-11.31-5.66-5.66.71-.71,5.66,5.66Zm-11.32-11.32-5.65-5.65.7-.71,5.66,5.66Zm-11.31-11.31-5.66-5.66.71-.7,5.66,5.65Zm-11.32-11.31-5.65-5.66.7-.71,5.66,5.66Zm-11.31-11.32-5.66-5.65.71-.71,5.66,5.66Z"/>
        <path class="cls-18" d="M3234,837a75.15,75.15,0,1,1,75.17-75.15A75.24,75.24,0,0,1,3234,837Zm0-146a70.85,70.85,0,1,0,70.86,70.84A70.92,70.92,0,0,0,3234,691Z"/>
        <path class="cls-45" d="M2157.33,887.24l-.71-.71,5.66-5.65.71.7Zm11.32-11.31-.71-.71,5.66-5.65.7.7ZM2180,864.62l-.71-.71,5.66-5.66.71.71Zm11.31-11.32-.7-.7,5.65-5.66.71.71ZM2202.59,842l-.71-.71,5.66-5.65.71.7Zm11.31-11.31-.7-.71,5.65-5.66.71.71Zm11.32-11.32-.71-.7,5.66-5.66.71.71Zm11.31-11.31-.7-.71,5.65-5.65.71.71Zm11.32-11.31-.71-.71,5.66-5.65.7.7Zm11.31-11.31-.7-.71,2.65-2.66h4.66v1h-4.25Zm225.75-2.37h-3.14v-1h2.72l3.44-3.44.71.71Zm-11.14,0h-8v-1h8Zm-16,0h-8v-1h8Zm-16,0h-8v-1h8Zm-16,0h-8v-1h8Zm-16,0h-8v-1h8Zm-16,0h-8v-1h8Zm-16,0h-8v-1h8Zm-16,0h-8v-1h8Zm-16,0h-8v-1h8Zm-16,0h-8v-1h8Zm-16,0h-8v-1h8Zm-16,0h-8v-1h8Zm-16,0h-8v-1h8Zm212.53-9.38-.71-.71,5.66-5.66.7.71Zm11.31-11.32-.71-.7,5.66-5.66.71.71Zm11.31-11.31-.7-.71,5.66-5.65.7.7Zm11.32-11.31-.71-.71,5.66-5.66.71.71Zm11.31-11.32-.7-.7,5.65-5.66.71.71Zm11.32-11.31-.71-.71,5.66-5.65.71.7Zm11.31-11.31-.7-.71,5.65-5.65.71.7Zm11.32-11.31-.71-.71,5.66-5.66.71.71Zm11.31-11.32-.7-.7,5.65-5.66.71.71Z"/>
        <path class="cls-46" d="M575.61,1675.37H126.25c-14.94-44.92-8.76-94.37,22.14-138.06,62.94-89.07,204.64-120.65,316.49-70.52C559.14,1509,602.12,1595.82,575.61,1675.37Z"/>
        <g>
          <path class="cls-47" d="M561.15,1619.19l.13-15.68-.47,8.91c-7.42-96.68-108.06-173.38-231.38-173.57-120.23-.2-219.32,72.37-231.55,165.57L96.65,1603v19.31c0,.41,0,.81,0,1.22s0,1,0,1.43v2.52l.08.09c2.45,100.32,105.14,181.16,231.75,181.36,123.52.2,224.67-76.4,232.31-173.27l.07-.23v-.54c.25-3.51.42-7,.43-10.61C561.3,1622.55,561.2,1620.88,561.15,1619.19Z"/>
          <g>
            <ellipse class="cls-48" cx="328.95" cy="1599.2" rx="232.34" ry="185.03"/>
            <path class="cls-48" d="M227.27,1765.57l227.51-321.92c102.7,52.58,137.31,160.48,76.65,246.31S337,1808.21,227.27,1765.57Z"/>
            <path class="cls-9" d="M126.48,1508.45c53.35-75.48,163.26-109.66,263.62-87.8L169,1733.47C93.47,1676.49,73.13,1583.93,126.48,1508.45Z"/>
            <ellipse class="cls-49" cx="328.96" cy="1599.2" rx="176.59" ry="140.63"/>
            <path class="cls-50" d="M256.16,1620.55a25,25,0,0,0,3.23,6.51,62.16,62.16,0,0,0,6.32,8,75.91,75.91,0,0,0,9.08,8.31,73.57,73.57,0,0,0,11.49,7.39l26.19-37-3.76-2.63a208.23,208.23,0,0,1-18.25-15,57.47,57.47,0,0,1-11.59-14.38,27,27,0,0,1-3.3-14.8q.53-7.67,6.6-16.25a45.46,45.46,0,0,1,15.72-14.29,53.17,53.17,0,0,1,19.71-5.89,75.82,75.82,0,0,1,22.27,1.14,113.86,113.86,0,0,1,23.17,7.21l13.29-18.8,11.68,5.24-13.53,19.15a126,126,0,0,1,27.18,18.91A87.66,87.66,0,0,1,420.12,1587l-23.6,12a32.42,32.42,0,0,0-3.91-7.87,73.64,73.64,0,0,0-7.59-9.77,102.42,102.42,0,0,0-10.92-10.32,98.4,98.4,0,0,0-13.85-9.5l-26.18,37.05c.73.64,1.52,1.27,2.37,1.88s1.63,1.25,2.36,1.89a195.21,195.21,0,0,1,17.06,14.6,46.75,46.75,0,0,1,10,13.31,24.61,24.61,0,0,1,2.36,13.2q-.69,6.63-6,14.15a47.72,47.72,0,0,1-14.83,13.86,55.84,55.84,0,0,1-19.07,6.89,73.68,73.68,0,0,1-21.74.39,103.54,103.54,0,0,1-23-5.72l-12.77,18.07L259.06,1686l12.77-18.08a95.83,95.83,0,0,1-23.68-16.75,88.93,88.93,0,0,1-15.09-19.25Zm77.46,28.59q5.31-7.52,1.34-14.25t-15.44-15.64l-24.92,35.26q14.08,5.61,23.83,4A22.39,22.39,0,0,0,333.62,1649.14Zm-23-88.54q-5.57,7.88-.55,15.43T327,1593.15l25-35.44q-14.51-6.27-25.17-5.63T310.66,1560.6Z"/>
            <path class="cls-51" d="M263,1776.65c101.65,24.06,214.27-10,268.48-86.69s32.33-171-46.24-227.76Z"/>
            <path class="cls-51" d="M169,1733.47,390.1,1420.65A269.34,269.34,0,0,1,442.92,1438q6.07,2.73,11.86,5.69L227.27,1765.57q-6.2-2.4-12.27-5.12A237.63,237.63,0,0,1,169,1733.47Z"/>
          </g>
        </g>
        <polygon class="cls-46" points="515 1267.17 323.23 1509.49 323.23 1471.28 311.04 1440.32 356.65 1267.17 515 1267.17"/>
        <g>
          <path class="cls-52" d="M300,1468.24s-17.5,29.66-24.89,34.5c-10,6.58-3.75,13.23,1,13.24s29.09,1.74,34.45-4.34,8-24.31,13-29.08,10.13-23.71-2.43-28.32C310,1450.17,300,1468.24,300,1468.24Z"/>
          <path class="cls-32" d="M307.55,1455.19s-20.05,34.74-23.5,39.87,6.5,5.13,12.68,2.69,21.69-27.35,23.92-31.89c2.66-5.42.47-11.62.47-11.62Z"/>
          <polygon class="cls-52" points="327.85 1473.88 323.23 1509.49 320.77 1509.6 321.54 1483.98 327.85 1473.88"/>
          <path class="cls-52" d="M473.51,1468.24s-17.5,29.66-24.89,34.5c-10,6.58-3.74,13.23,1,13.24s29.09,1.74,34.45-4.34,8-24.31,13-29.08,10.31-24.2-2.42-28.32C483.5,1450.63,473.51,1468.24,473.51,1468.24Z"/>
          <path class="cls-32" d="M480,1455.27s-19,34.66-22.45,39.79,6.51,5.13,12.68,2.69,21.69-27.35,23.92-31.89c2.66-5.42.48-11.62.48-11.62Z"/>
          <polygon class="cls-52" points="501.39 1473.88 496.77 1509.49 494.32 1509.6 495.08 1483.98 501.39 1473.88"/>
          <path class="cls-32" d="M551.16,1198.29l-158.37,72.15s-17.67,5.75-19.66,25.37c-6.18,61.26-52,158.43-52,158.43-14.7,7.19-13.57,1-13.57,1,9.26-29.74,20.54-152.31,24.57-201.59.85-10.44,1.38-17.58,1.49-19.87.08-1.56,1.78-3.59,4.72-6,21.72-17.62,111.14-54.09,111.14-54.09C516.61,1172,551.16,1198.29,551.16,1198.29Z"/>
          <path class="cls-32" d="M571.75,1226.68c-6.26,33.8-56.75,40.49-56.75,40.49H440.94s19.45,43.28,27,79.79c8,38.74,26.77,107.28,26.77,107.28s-1.23,2.33-14.63,1c0,0-58.13-115.85-80.39-145-4.78-6.27-18.5-40.29-20.87-60.58-.79-6.83-.3-12.1,2.25-14.24a183.82,183.82,0,0,1,16.35-11.17c23.19-14.63,63.48-37.14,85.92-42.19,30.06-6.75,77.61-19.41,77.61-19.41S579.59,1184.32,571.75,1226.68Z"/>
          <path class="cls-53" d="M530.6,899.61s11.09-21,5.69-43.45-26.2-44.73-56.65-34.48-55.06,33.9-36.81,61.25-16.51,39.69-7.65,52.7,5.5,26.6,1.75,29.63-15.85,13.82-14.52,26.59,59.07-37.23,59.07-37.23S512.93,891.44,530.6,899.61Z"/>
          <path class="cls-54" d="M437.8,1168.54s4.59,22.27,122.87-5.85C560.67,1162.69,521,1149.52,437.8,1168.54Z"/>
          <path class="cls-11" d="M562,1168.94l5.5,10.5-129.71,3.77c6.84-22.89,4.62-53.9,3.42-77.44C439.76,1077,423.88,1057,425.57,1028c-8.55,1.39-10,1.65-18.6,3,13.1-37.32,17.59-55.81,58.29-70.18,13.25-4.68,22-5.6,36.3-4.42,47.13,3.89,61.34,4.44,84.49,47.15-36.24,5.77-30.27,18.78-41.26,54.82-5.36,17.58-10.95,37.19-8.08,55.73C539.54,1132.27,562,1152.29,562,1168.94Z"/>
          <path class="cls-24" d="M486.79,969.79c19.29-3.64,15.19-14.37,15.19-14.37s-.9-6-1.24-13.71c-.09-2-.15-4-.14-6.12a80.07,80.07,0,0,1,.54-9.48c1.57-13-35-5.22-35-5.22s2.11,26.19-2.94,34S467.5,973.43,486.79,969.79Z"/>
          <path class="cls-24" d="M523.59,955.35s-38.91,44.92-53.29,55.33c0,0-16.53-14.93-6.34-54.36C464,956.32,482.74,946.92,523.59,955.35Z"/>
          <path class="cls-24" d="M522.53,847.24s20.21,38.92.17,75.8-59.42-16.06-62-22.27-16.05-41.34,10.81-52S516.81,836.67,522.53,847.24Z"/>
          <path class="cls-53" d="M515.81,861.05s13.91,18.27,15.56,31.76a72.32,72.32,0,0,0-10.12-50c-15.66-24.52-55.47-1.17-60.8,8.63s-21,18.42,5.29,60.52C465.74,911.93,513,879.13,515.81,861.05Z"/>
          <path class="cls-55" d="M483.52,926.92s3.51,7.67,17.22,14.79c-.09-2-.15-4-.14-6.12A32.73,32.73,0,0,1,483.52,926.92Z"/>
          <path class="cls-24" d="M687.74,1133.91s9.61,4.27,14.16,2.34,11.6-2.32,13.82-2.32c3,0,12.28-3.33,12.11.31s-15.09,6.16-18.15,7.3,9.14,7.85,10.28,10.83-12.64,22.57-20.41,17-12-16.72-13.56-17.43a55.55,55.55,0,0,1-5.83-3.83Z"/>
          <path class="cls-24" d="M718.49,1150.64s22.52,18.67,22.88,21.19-.84,3.7-3,2.05S716,1156.47,716,1156.47s22.57,26.66,23.33,28.63c.45,1.16-1.72,3.57-3,2.79S711.09,1162,711.09,1162s21,24.93,21.14,26.79a2.44,2.44,0,0,1-4.12,1.66c-1.7-1.74-22.63-23.73-22.63-23.73s14.07,19.13,13.2,20.82c-.53,1-2.3,3.19-5.77-1.87s-13-16.08-13-16.08Z"/>
          <path class="cls-5" d="M577.32,1229.44C570.45,1268,515,1267.16,515,1267.16H448.65a178.71,178.71,0,0,0-31.59-23.55h0c-48.95-28.14-83.41-9.71-83.41-9.71-1.67-9.58,22.86-23.13,49.76-35h0c31.4-13.82,66.06-25.26,66.06-25.26a218.14,218.14,0,0,1,51,4.42c28.22-6.79,60.47-15.41,60.47-15.41S584.89,1187,577.32,1229.44Z"/>
          <path class="cls-11" d="M452.56,1176.91s28.45,11,63.32,1l1.63-13-71.8,4Z"/>
          <g>
            <path class="cls-34" d="M453,1182.93a6.26,6.26,0,0,1-8.7,6.2L437,1186a5.23,5.23,0,0,1-3.11-5.64c3.06-19.13,9.61-93.57,0-106.35a46.22,46.22,0,0,1-7-12.48c-6.33,16.32-14.21,37.34-17.33,48.64l-59.76,79.47-20,5.09c25-60.23,45.07-92.14,45.07-92.14,3.91-10.49,15.12-42.28,25.05-70.58,6.27-17.86,12-34.34,15.13-43.2a20.28,20.28,0,0,1,8.74-10.72c9.25-5.53,24.67-14.24,38.66-21l.17-.08,1.34-.65h0c-26.59,40.22-16.22,153.82-11,226.45Z"/>
            <path class="cls-34" d="M551.7,959.75c8.52,1.32,29.63,21.82,40.85,42.51,12.8,23.62,25.83,50.5,35.59,59.34,18,16.27,68.22,73.76,70.61,72.37.91-.54-13.79,17.17-15.66,18-.93.41-82.6-70.35-90.45-81.13-7.44-10.22-27.33-53.12-33.28-52.17l0,0h0a317.07,317.07,0,0,0-14.55,39.59c-.11.38-.23.76-.34,1.14-4.72,16-4.29,33.35-1.73,52.86,1.93,14.73,12.93,38.8,19.56,50.52.79,1.4.59,4.08-.27,6.12h0a4.43,4.43,0,0,1-2.18,2.54l-24,8.88-5.63,2.08a12.27,12.27,0,0,1-16.44-9.91c-5.34-41-12.08-82.91-17.46-98.69-23.59-69.26,9.22-121.29,9.22-121.29S544.22,957,551.7,959.75Z"/>
          </g>
          <path class="cls-53" d="M480.65,886s-7.77,12.08-.59,22.51-1.81,20.68-3.37,31.7,29.95,40.36-5.09,55.12-46.2-9.64-37.26-23.06,15.29-24.32,16-43.46S457.44,879.82,480.65,886Z"/>
          <path class="cls-56" d="M491.85,1199.37l-74.79,44.24h0c-48.95-28.14-83.41-9.71-83.41-9.71-1.67-9.58,22.86-23.13,49.76-35h0a519.61,519.61,0,0,1,54.37,2.13Z"/>
          <polygon class="cls-57" points="491.84 1193.06 365.38 1191.2 429.23 1223.62 491.84 1193.06"/>
          <polygon class="cls-58" points="429.23 1223.62 491.84 1199.37 491.84 1193.06 424.28 1217.43 429.23 1223.62"/>
          <polygon class="cls-58" points="429.23 1223.62 391.62 1120.93 270.35 1122.91 306.2 1217.54 429.23 1223.62"/>
        </g>
        <rect class="cls-3" x="2634.05" y="324.08" width="1033.14" height="60.24"/>
        <rect class="cls-17" x="2678.74" y="347.79" width="131.01" height="12.24" rx="3.32"/>
        <path class="cls-45" d="M2856.52,510.48l-1.73-1.73.71-.7,1.73,1.73Zm-7.39-7.38-5.65-5.66.7-.71,5.66,5.66Zm-11.31-11.32-5.66-5.65.71-.71,5.66,5.66Zm-11.32-11.31-5.65-5.66.7-.7,5.66,5.65Zm-11.31-11.31-5.66-5.66.71-.71,5.66,5.66Zm-152-.45-.71-.71,5.66-5.65.71.7Zm-192.35-1.17-.71-.71,5.66-5.66.71.71Zm186-2.74-5.66-5.66.7-.7,5.66,5.65Zm147.09-7-5.66-5.65.71-.71,5.65,5.66Zm-129.42-.44-.7-.71,5.66-5.66.7.71Zm-192.34-1.18-.71-.7,5.66-5.66.7.71Zm163.35-2.73-5.66-5.66.71-.71,5.66,5.66Zm147.09-7-5.66-5.65.71-.71,5.66,5.65Zm-106.78-.45-.71-.7,5.66-5.66.71.71Zm-192.35-1.17-.71-.71,5.66-5.65.71.71Zm140.73-2.73-5.66-5.66.71-.71,5.65,5.66Zm147.09-7-5.66-5.66.71-.7,5.65,5.65Zm-84.16-.45-.7-.71,5.65-5.65.71.7Zm-192.34-1.17-.71-.71,5.66-5.65.7.7Zm118.09-2.74-5.66-5.65.71-.71,5.66,5.66Zm147.09-6.95-5.66-5.66.71-.71,5.66,5.66Zm-61.52-.45-.71-.71,5.66-5.66.71.71Zm-192.35-1.17-.71-.71,5.66-5.66.71.71Zm95.47-2.74-5.66-5.66.71-.7,5.65,5.65Zm147.09-7-5.66-5.65.71-.71,5.65,5.66Zm-38.9-.44-.7-.71,5.65-5.66.71.71ZM2527.38,411l-.71-.7,5.66-5.66.7.71Zm72.83-2.73-5.65-5.66.7-.71,5.66,5.66Zm147.09-7-5.65-5.66.7-.7,5.66,5.65Zm-16.26-.45-.71-.7,5.66-5.66.71.71Zm-192.35-1.17L2538,399l5.66-5.65.71.7Zm50.21-2.74-5.66-5.65.71-.71,5.65,5.66Zm-38.9-8.57-.7-.71L2555,382l.71.71Zm27.58-2.74-5.65-5.66.7-.7,5.66,5.65ZM2561.32,377l-.71-.71,4.55-4.55,1.82,1.81-.71.71-1.11-1.11Z"/>
        <polygon class="cls-5" points="3599.44 894.61 3598.44 894.61 3598.44 514.19 3433.12 514.19 3433.12 513.19 3599.44 513.19 3599.44 894.61"/>
        <g>
          <path class="cls-29" d="M1599.47,911.15A84.47,84.47,0,1,0,1440.39,968c.64,1.79,1.33,3.55,2.08,5.26a84.47,84.47,0,0,0,157-62.15Zm-58.21,88.07a63.26,63.26,0,0,1-79.4-34.35c-.56-1.29-1.08-2.61-1.56-4a63.33,63.33,0,1,1,81,38.3Z"/>
          <path class="cls-16" d="M1459.47,920.72l-20.18-6.3a84.6,84.6,0,0,1,78.12-59.27l.63,21.13a63.44,63.44,0,0,0-58.57,44.44Z"/>
          <path class="cls-3" d="M1461.86,964.87l-19.39,8.43c-.75-1.71-1.44-3.47-2.08-5.26a84.07,84.07,0,0,1-1.1-53.62l20.18,6.3a63,63,0,0,0,.83,40.2C1460.78,962.26,1461.3,963.58,1461.86,964.87Z"/>
          <path class="cls-3" d="M1455.56,994.33a83.93,83.93,0,0,1-13.09-21l19.39-8.43a62.78,62.78,0,0,0,9.81,15.76Z"/>
        </g>
        <g class="cls-59">
          <path class="cls-60" d="M3215,1542.18c.14.4.26.65.27.7Z"/>
          <path class="cls-60" d="M3454.26,1267.33l-2.59,27.16-.27,3H3244.86c.52-1,1.09-2,1.72-3,1.48-2.53,3.19-5.11,5-7.73-.63-29.15,12.56-43.49,23.22-52.1s11.35-34.39,6.44-51.31-6.41-41.22-.66-54.56,36.17-38,72-21,17,72.12,17,72.12c-2.31,22.46-8.19,34.66-14.3,41.28-.33,3.74-1,14.46.63,23,1.81.24,3.68.57,5.6.93.67.09,1.36.15,2,.27,16.08,2.23,31,8.31,40.36,17.32,6,.3,11.89.69,17.52,1.14C3433,1264.68,3444.08,1265.77,3454.26,1267.33Z"/>
        </g>
        <polygon class="cls-61" points="3043.28 1021.03 3204.64 1021.77 3204.1 1138.7 3203.99 1163.33 3179.47 1138.59 3042.74 1137.96 3043.28 1021.03"/>
        <g>
          <path class="cls-3" d="M3490,1358c-3.3-2.19-7.86-1.67-11-.88l1.15-8.28h-44.05l7.05,50.59h29.95l.66-4.72.64-4.54a17.77,17.77,0,0,0,11.87-4.69c4.76-4.36,7.5-11.38,7.5-19.28C3493.75,1361.51,3491.7,1359.16,3490,1358Zm-7,23.94a12.84,12.84,0,0,1-8,3.39l3.2-23c2.35-.8,6.81-1.84,9.08-.34.4.27,1.61,1.07,1.61,4.2C3488.94,1372.77,3486.78,1378.51,3483,1382Z"/>
          <path class="cls-62" d="M3473.08,1399.45h-29.95l-7.05-50.59h16.22s-5.83,45.66,20.78,50.59Z"/>
          <path class="cls-63" d="M3456.35,1314s-9.26,3.09-5.83,11.32,9.33,13.41,3.77,23.51c0,0,10.29-6.19,5.49-16.48S3452.06,1319.17,3456.35,1314Z"/>
          <path class="cls-63" d="M3469.63,1323.31s-6.79,2.26-4.28,8.3,6.85,9.84,2.77,17.25c0,0,7.55-4.54,4-12.09S3466.49,1327.08,3469.63,1323.31Z"/>
          <path class="cls-63" d="M3444.93,1323.31s-6.79,2.26-4.28,8.3,6.85,9.84,2.77,17.25c0,0,7.55-4.54,4-12.09S3441.79,1327.08,3444.93,1323.31Z"/>
        </g>
        <g>
          <polygon class="cls-11" points="3402.01 1771.36 3366.94 1538.14 3373.69 1537.1 3408.76 1770.32 3402.01 1771.36"/>
          <polygon class="cls-11" points="3359.18 1771.36 3324.11 1538.14 3330.86 1537.1 3365.93 1770.32 3359.18 1771.36"/>
          <polygon class="cls-11" points="3148.22 1771.36 3141.47 1770.32 3176.54 1537.1 3183.3 1538.14 3148.22 1771.36"/>
          <path class="cls-58" d="M3377.91,1540.51l27.48-289s-48.06-6.29-77.09-4.74l-43.64,293.75Z"/>
          <rect class="cls-58" x="3284.66" y="1525.82" width="93.26" height="14.69"/>
          <path class="cls-58" d="M3223.65,1528.74l-14.58-275.42s121.62-13.21,196.32-1.82Z"/>
          <path class="cls-23" d="M3320.76,1164.14s18.78-55.06-17.05-72.13-66.27,7.6-72,21-4.23,37.64.67,54.57,4.19,42.7-6.46,51.32-23.85,22.93-23.2,52.07c.41,18.08,71.15-46.24,71.15-46.24Z"/>
          <path class="cls-64" d="M3273,1756.65s-1.12,38.91,4.44,41.25,26.59-11.19,35.87-24.57-11.63-44.53-15.06-61.71c-1.43-7.19-17.78-20.14-25.75-16.43s-13.78,13.21-13.78,13.21S3278.94,1722.3,3273,1756.65Z"/>
          <path class="cls-65" d="M3258.67,1708.4s6.9,13.28,10.44,23.59,4.22,38.83,6.45,40.81,19.86-6.91,22.22-17.58-4.8-32-11.6-43.2-13.73-16.83-13.73-16.83S3260.44,1697.53,3258.67,1708.4Z"/>
          <polygon class="cls-64" points="3298.2 1711.62 3317.14 1739.26 3313.56 1741.71 3298.92 1720.35 3298.2 1711.62"/>
          <path class="cls-65" d="M3230,1406s9.27,15.63,0,27-71.53,42.66-71.07,60.72,11.86,46.34,16,53.51,19.22,36.94,27.08,54.36,53.29,100.75,62.17,119.54,3.42-75.14,3.42-75.14l-45.44-133.2,106.16-103.4S3315.45,1380.86,3230,1406Z"/>
          <path class="cls-16" d="M3270.41,1229.64s-29.45,6.53-41.14,13.36-37.66,38.25-37.66,51.76,113.54,26.14,113.54,26.14l21.52,78.55s57.39-14,64.22-25.61-22.59-94.27-26.69-111.69-25.57-29.16-49.48-32.51A164.21,164.21,0,0,0,3270.41,1229.64Z"/>
          <path class="cls-24" d="M3340,1408.62s-2.05,13.43,3.42,19.13,30.64,38.88,17.31,71.5c-12.24,29.94-36,29.37-36,29.37H3288s10.67,53.9,7.23,89.42-19.66,116.63-20,120.73-15.53,16.91-20,10.42c0,0-.41-48.84-2.8-67.28s-12.57-92.22-15.65-103.15-21.18-44.06-21.18-47.47-17.68-56.89,20.92-70.55S3288.81,1408.9,3340,1408.62Z"/>
          <path class="cls-66" d="M3237,1786.86s-25.35,29.56-22.5,34.87,27.72,8,43.35,3.45,19-41.93,27.1-57.45c3.41-6.49-1.16-26.83-9.69-29s-19,1.6-19,1.6S3263.25,1763.93,3237,1786.86Z"/>
          <path class="cls-24" d="M3256.22,1740.37s-3,14.67-6.7,24.91-21.15,32.84-20.66,35.79,19.79,7.11,28.33.3,16.39-27.89,18.15-40.89-.09-21.71-.09-21.71S3264.44,1733,3256.22,1740.37Z"/>
          <polygon class="cls-66" points="3284.94 1767.73 3282.29 1801.13 3277.95 1800.79 3280.01 1774.97 3284.94 1767.73"/>
          <path class="cls-23" d="M3360.75,1499.25c-11.56,30.34-36,29.37-36,29.37H3288s-15.32-24.29-52.85-28.46a111.18,111.18,0,0,0-28.31.68l-.38.05c-49.86,7.39-40.24,25.69-40.08,26.17-4.15-10.12-8.5-26.21-7.45-34.87,4.78-39.47,61.81-47.75,71.07-59.13s0-27,0-27c85.43-25.18,98.28,3.41,98.28,3.41,3.74-.52,13.34-6,17.42-6.07,0,0,4.27,9.34,7.29,17.76C3355.66,1428.57,3373.29,1466.32,3360.75,1499.25Z"/>
          <polygon class="cls-11" points="3325.31 1281.96 3337.95 1399.45 3171.59 1399.45 3158.95 1281.96 3325.31 1281.96"/>
          <rect class="cls-11" x="3323.4" y="1388.88" width="27.78" height="10.57"/>
          <rect class="cls-67" x="3064.22" y="1399.45" width="442.06" height="16"/>
          <path class="cls-24" d="M3288.82,1101.4s37.27,11,31.94,62.74-29.66,49-31.94,49.43-31.19,2.28-40.32-60.46S3288.82,1101.4,3288.82,1101.4Z"/>
          <path class="cls-24" d="M3306.58,1204.06s-2,17.12,1.32,27.77-43.41,10.94-43.38,2.19c0-10,4.78-18.26.3-35.31S3306.58,1204.06,3306.58,1204.06Z"/>
          <path class="cls-23" d="M3279.2,1124.46s20.25,32.21,41.56,39.68c0,0,11.64-54.05-36.43-65.37s-40.54,54.59-36.95,72.16C3247.38,1170.93,3257.39,1145.08,3279.2,1124.46Z"/>
          <path class="cls-55" d="M3270.35,1206.24s14.75,15.37,33.6,1.61c0,0-1.55,9.82-15.12,11.08S3270.35,1206.24,3270.35,1206.24Z"/>
          <path class="cls-68" d="M3252,1119.6s10.66-20.64,28.66-21.56,28.71,14.69,28.71,14.69-7-17.58-28.68-17.58S3252,1119.6,3252,1119.6Z"/>
          <path class="cls-24" d="M3312.67,1229.37s-.66,35.79-29.05,36.85-22.48-34.33-22.48-34.33S3281.91,1223.48,3312.67,1229.37Z"/>
          <rect class="cls-69" x="3494.52" y="1415.45" width="11.77" height="367.36"/>
          <rect class="cls-69" x="3064.22" y="1415.45" width="11.77" height="367.36"/>
        </g>
      </g>
    </g>
  </g>
</svg>
