<svg xmlns="http://www.w3.org/2000/svg" width="155.556" height="142.667" viewBox="0 0 155.556 142.667">
  <g id="Grupo_30318" data-name="Grupo 30318" transform="translate(-4791 -1456.748)">
    <path id="Trazado_24861" data-name="Trazado 24861" d="M195.444,662.081H68.778V519.414H195.444l28.889,71.333Z" transform="translate(4722.222 937.333)" fill="#c16ccc"/>
    <path id="Trazado_24862" data-name="Trazado 24862" d="M120.067,616.967q-8.314,0-12.767-6.146t-4.452-18.269q0-12.159,4.436-18.271t12.783-6.112q8.313,0,12.749,6.112t4.436,18.271q0,12.125-4.452,18.269T120.067,616.967Zm0-8.544q3.679,0,5.7-3.894t2.021-11.977q0-8.085-2.038-11.978t-5.684-3.894q-7.756,0-7.755,15.872T120.067,608.423Z" transform="translate(4722.222 937.333)" fill="#fff"/>
    <path id="Trazado_24863" data-name="Trazado 24863" d="M178.591,598.86v8.446h-5.718v9h-9.464v-9H141.557v-8.478l16.825-30h14.491V598.86Zm-28.26,0h13.078V574.511Z" transform="translate(4722.222 937.333)" fill="#fff"/>
  </g>
</svg>
