<svg xmlns="http://www.w3.org/2000/svg" width="155.556" height="142.667" viewBox="0 0 155.556 142.667">
  <g id="Grupo_30316" data-name="Grupo 30316" transform="translate(-4791 -1144.916)">
    <path id="Trazado_24855" data-name="Trazado 24855" d="M195.444,350.249H68.778V207.583H195.444l28.889,71.333Z" transform="translate(4722.222 937.333)" fill="#7d58bd"/>
    <path id="Trazado_24856" data-name="Trazado 24856" d="M120.067,305.135q-8.314,0-12.767-6.145t-4.452-18.27q0-12.159,4.436-18.271t12.783-6.112q8.313,0,12.749,6.112t4.436,18.271q0,12.125-4.452,18.27T120.067,305.135Zm0-8.544q3.679,0,5.7-3.894t2.021-11.977q0-8.084-2.038-11.978t-5.684-3.894q-7.756,0-7.755,15.872T120.067,296.591Z" transform="translate(4722.222 937.333)" fill="#fff"/>
    <path id="Trazado_24857" data-name="Trazado 24857" d="M156.64,296.032h20.242v8.446H143.4v-7.131l18.9-19.289q4.107-4.14,4.107-8.183a5.787,5.787,0,0,0-1.692-4.4,6.66,6.66,0,0,0-4.781-1.611q-6.736,0-6.736,7.657v3.516l-9.431-.953v-2.366q0-7.394,4.337-11.419t11.764-4.026q7.032,0,11.452,3.648a12.3,12.3,0,0,1,4.42,10.022,14.226,14.226,0,0,1-1.495,6.507,27.2,27.2,0,0,1-4.749,6.342Z" transform="translate(4722.222 937.333)" fill="#fff"/>
  </g>
</svg>
