<svg xmlns="http://www.w3.org/2000/svg" width="155.555" height="142.667" viewBox="0 0 155.555 142.667">
  <g id="Grupo_30320" data-name="Grupo 30320" transform="translate(-5012.333 -989)">
    <path id="Trazado_24867" data-name="Trazado 24867" d="M416.778,194.333H290.111V51.667H416.778L445.667,123Z" transform="translate(4722.222 937.333)" fill="#901ba1"/>
    <path id="Trazado_24868" data-name="Trazado 24868" d="M341.4,149.219q-8.314,0-12.767-6.145t-4.452-18.27q0-12.159,4.436-18.271t12.783-6.112q8.313,0,12.749,6.112t4.436,18.271q0,12.124-4.452,18.27T341.4,149.219Zm0-8.544q3.68,0,5.7-3.894t2.021-11.977q0-8.083-2.038-11.978t-5.684-3.894q-7.756,0-7.755,15.872T341.4,140.675Z" transform="translate(4722.222 937.333)" fill="#fff"/>
    <path id="Trazado_24869" data-name="Trazado 24869" d="M399,132.625a15.477,15.477,0,0,1-1.4,6.67,15.733,15.733,0,0,1-3.845,5.274,18.116,18.116,0,0,1-5.635,3.385,19.111,19.111,0,0,1-13.588-.033,16.854,16.854,0,0,1-5.553-3.467,16.32,16.32,0,0,1-5.011-11.8q0-5.782,4.206-11.6l14.787-19.979h10.745l-12.322,16.068a16.1,16.1,0,0,1,2.168-.131,15.494,15.494,0,0,1,5.833,1.117,15.818,15.818,0,0,1,4.913,3.1,14.38,14.38,0,0,1,3.4,4.946A16.618,16.618,0,0,1,399,132.625Zm-9.266-.231a8.111,8.111,0,0,0-2.3-6.128,8.37,8.37,0,0,0-6.211-2.383,8.022,8.022,0,0,0-6.013,2.4,8.47,8.47,0,0,0-2.4,5.981,7.791,7.791,0,0,0,8.313,8.412,8.556,8.556,0,0,0,6.178-2.3A8.019,8.019,0,0,0,389.737,132.394Z" transform="translate(4722.222 937.333)" fill="#fff"/>
  </g>
</svg>
