<svg id="Слой_1" data-name="Слой 1" xmlns="http://www.w3.org/2000/svg" width="3200" height="2000" viewBox="0 0 3200 2000">
  <defs>
    <style>
      .cls-1 {
        fill: #dfebfa;
      }

      .cls-2 {
        fill: #eef6ff;
      }

      .cls-3, .cls-5 {
        fill: #afcdfb;
      }

      .cls-4 {
        fill: #c7dcfb;
      }

      .cls-5 {
        opacity: 0.5;
      }

      .cls-6 {
        fill: #2e3552;
      }

      .cls-7 {
        fill: #162b4c;
      }

      .cls-8 {
        fill: #233862;
      }

      .cls-9 {
        fill: #9cc4ff;
      }

      .cls-10 {
        fill: #cfe3ff;
      }

      .cls-11 {
        fill: #d5e5fb;
      }

      .cls-12 {
        fill: #fff;
      }

      .cls-13 {
        fill: #c6dcf7;
      }

      .cls-14 {
        fill: #2b478b;
      }

      .cls-15 {
        fill: #ffb27d;
      }

      .cls-16 {
        fill: #f99746;
      }

      .cls-17 {
        fill: #ed7d2b;
      }

      .cls-18 {
        fill: #163560;
      }

      .cls-19 {
        fill: #ed975d;
      }

      .cls-20 {
        fill: #d66316;
      }

      .cls-21 {
        fill: #ed985f;
      }

      .cls-22 {
        fill: #2c3a64;
      }

      .cls-23 {
        fill: #2a4e96;
      }

      .cls-24 {
        fill: #1d2a49;
      }

      .cls-25 {
        fill: #bc3f3f;
      }

      .cls-26 {
        fill: #a02e2e;
      }

      .cls-27 {
        fill: #7da6ef;
      }
    </style>
  </defs>
  <g>
    <g>
      <path class="cls-1" d="M2288.26,676.9H2218V520.09l-3.25-1.87h-21v-.08H2071.8v.08h-.11v23.5h.11v16.17h-.11v23.5h.11v16.23h-.11v23.5h.11v.09l-12.92-.09v-123H1922.05v15.57H1922v23.5h.07v20.66H1922v23.5h.07v16.23H1922v23.5h.07v15H1922v23.51h.07v15H1922v23.51h.07V712.3H1922v14.92h.07v1.63H1767.81V863.38h-57.62v33.89h-62.12V838.91H1536.31V680.35h-17.48V664.56h-2.5v15.79h-14.5v0h-72.49V664.56h-2.5v15.77H1408v79.73l-93.88-.44v49.22h-79.59V504.61H998.68V830.53h-72V654.29H690.85V1794.47l1611.36-6.15Z"/>
      <polygon class="cls-1" points="691.08 861.9 691.08 968.77 691.08 1127.74 691.08 1786.68 572.64 1786.68 572.64 1127.74 572.64 968.77 572.64 861.9 691.08 861.9"/>
      <rect class="cls-2" x="1059.35" y="504.61" width="175.14" height="51.57"/>
      <rect class="cls-2" x="1059.35" y="583.98" width="175.14" height="51.57"/>
      <rect class="cls-2" x="1059.35" y="665.02" width="175.14" height="51.57"/>
      <rect class="cls-2" x="1059.35" y="747.34" width="175.14" height="51.57"/>
      <rect class="cls-2" x="1059.35" y="826.76" width="175.14" height="51.57"/>
      <g>
        <rect class="cls-2" x="1922.08" y="498.16" width="87.57" height="31.32"/>
        <rect class="cls-2" x="1922.08" y="546.36" width="87.57" height="31.32"/>
        <rect class="cls-2" x="1922.08" y="595.57" width="87.57" height="31.32"/>
        <rect class="cls-2" x="1922.08" y="645.56" width="87.57" height="31.32"/>
        <rect class="cls-2" x="1922.08" y="693.8" width="87.57" height="31.32"/>
      </g>
      <g>
        <rect class="cls-2" x="1922.08" y="746.89" width="87.57" height="31.32"/>
        <rect class="cls-2" x="1922.08" y="795.1" width="87.57" height="31.32"/>
        <rect class="cls-2" x="1922.08" y="844.31" width="87.57" height="31.32"/>
        <rect class="cls-2" x="1922.08" y="894.3" width="87.57" height="31.32"/>
        <rect class="cls-2" x="1922.08" y="942.54" width="87.57" height="31.32"/>
      </g>
      <g>
        <rect class="cls-2" x="2071.97" y="518.69" width="87.57" height="31.32"/>
        <rect class="cls-2" x="2071.97" y="566.9" width="87.57" height="31.32"/>
        <rect class="cls-2" x="2071.97" y="616.11" width="87.57" height="31.32"/>
        <rect class="cls-2" x="2071.97" y="666.1" width="87.57" height="31.32"/>
        <rect class="cls-2" x="2071.97" y="714.34" width="87.57" height="31.32"/>
      </g>
      <g>
        <rect class="cls-2" x="2071.97" y="764.63" width="87.57" height="31.32"/>
        <rect class="cls-2" x="2071.97" y="812.84" width="87.57" height="31.32"/>
        <rect class="cls-2" x="2071.97" y="862.05" width="87.57" height="31.32"/>
        <rect class="cls-2" x="2071.97" y="912.04" width="87.57" height="31.32"/>
        <rect class="cls-2" x="2071.97" y="960.28" width="87.57" height="31.32"/>
      </g>
      <g>
        <rect class="cls-2" x="2071.97" y="1015.6" width="87.57" height="31.32"/>
        <rect class="cls-2" x="2071.97" y="1063.81" width="87.57" height="31.32"/>
        <rect class="cls-2" x="2071.97" y="1113.02" width="87.57" height="31.32"/>
        <rect class="cls-2" x="2071.97" y="1163.01" width="87.57" height="31.32"/>
        <rect class="cls-2" x="2071.97" y="1211.25" width="87.57" height="31.32"/>
      </g>
      <rect class="cls-1" x="1796.53" y="666.1" width="4.34" height="63.9"/>
      <rect class="cls-1" x="1869.74" y="611.23" width="6.76" height="123.74"/>
      <rect class="cls-1" x="1014.33" y="481.83" width="2.82" height="22.79"/>
      <rect class="cls-1" x="1074.02" y="481.83" width="2.82" height="22.79"/>
      <rect class="cls-1" x="1210.87" y="481.83" width="2.82" height="22.79"/>
      <rect class="cls-1" x="1935.63" y="480.57" width="2.17" height="17.59"/>
      <rect class="cls-1" x="2038.35" y="480.57" width="2.17" height="17.59"/>
      <rect class="cls-1" x="1157.37" y="481.83" width="2.82" height="22.79"/>
    </g>
    <path class="cls-3" d="M1728.08,678.38c-23.93-59.74-125.78-28.27-125.78-28.27s-58,116.24-78.32,121.22,30.23-109.07,30.23-109.07c-40.3.81-136.12,61.53-136.12,61.53s21.18,125.21.31,125.05S1405.31,737,1405.31,737c-37.21,16.08-67.93,65.28-67.93,65.28-36.41,78.53,66.31,121.22,66.31,121.22s6.4,43.55-14.72,96.84h0s-5,10-9.36,26.43l10.51-1.24q.8-4.38,1.9-8.49a.06.06,0,0,1,0,0l0-.12c.53-1.71,1.29-4.14,2.25-7.11h0c2.48-6.66,4.1-11.56,5.08-15.08a0,0,0,0,0,0,0c7.31-20.86,18.17-48.2,26.78-54.67a20.62,20.62,0,0,1-2.81-4.56l2.81,4.56c22.51,36.45,113.23,32.34,162.15,16.19s25.42-27.73-4.26-47.52-85.52-7.11-103.28-14.16,5.6-18.89,39.32-20.23,54.34,30.12,108.93,28.94,83.82-107.54,83.82-107.54c-35.92,15.94-105.16,3.2-109.23-9.36s95-22.85,110-28.51S1752,738.12,1728.08,678.38Z"/>
    <path class="cls-4" d="M2423.41,1501.31c-17.31-79.71-151.24-61.83-151.24-61.83s-97.05,133-123.43,135,60.76-130,60.76-130c-50.53-7.48-183.09,48.24-183.09,48.24s.08,161-26,156.35,7.2-142.52,7.2-142.52c-49.89,12.26-98.65,67.27-98.65,67.27-62,90.49,57.33,165.49,57.33,165.49s-.4,19.12-8.28,47.44c-.69,2.48-1.44,5-2.27,7.68h24.72a28.08,28.08,0,0,1,6.28-4.81,44.2,44.2,0,0,0,2.31,4.81h213.13c-2.65-2.47-5.42-5-8.27-7.68l-3.22-3c-32.93-31-105.4-26.9-126.11-39.45s11-22.44,53.41-17,61.57,49.1,130,59.13q1.58.24,3.15.36a54.34,54.34,0,0,0,9.46,0c62.94-5.55,114.83-117.09,114.83-117.09-48.26,12.35-132.11-18.17-134.56-34.72s123.6-8.54,143.52-12.46S2440.74,1581,2423.41,1501.31Zm-436.65,288.32a18.61,18.61,0,0,1-1.37-2.84,32.8,32.8,0,0,1-1.17-3.43c.45,1.12.92,2.26,1.38,3.43C1986,1787.72,1986.37,1788.66,1986.76,1789.63Z"/>
    <path class="cls-5" d="M328.05,845.51c15.12-58.09,113.06-41,113.06-41s67.39,100.73,86.73,103S487,810.14,487,810.14c37.38-4,133.19,40.93,133.19,40.93s-4.87,118.34,14.42,115.74-1-105-1-105c36.32,10.51,70.53,52.42,70.53,52.42,42.93,68.38-47.09,120-47.09,120s-.81,41,25,87.87h0a140.11,140.11,0,0,1,11.77,23.35l-9.88.1c-.83-2.64-1.74-5.19-2.75-7.64a.05.05,0,0,0,0,0s0-.08,0-.11c-.7-1.52-1.69-3.68-2.93-6.31h0v0c-3.07-5.87-5.15-10.21-6.47-13.35a0,0,0,0,1,0,0c-9.22-18.44-22.48-42.46-31.21-47.44a19.11,19.11,0,0,0,2.06-4.55c-.66,1.45-1.34,3-2.06,4.55-16.54,36.38-101,43.25-148.14,34.06s-26.78-22.67-1.65-44.47,78.3-16.64,93.91-25.25-7.41-16.82-38.77-14.1-46.74,34.26-97.38,39.59-90.22-89.64-90.22-89.64c35.11,10.52,97.68-9.41,100-21.51s-90.63-10-105.15-13.44S312.93,903.6,328.05,845.51Z"/>
    <path class="cls-6" d="M3057,1790.07v1.12a3.28,3.28,0,0,1-3.28,3.28H165.44a3.29,3.29,0,0,1-3.28-3.28v-1.12a3.29,3.29,0,0,1,3.28-3.28H3053.72A3.28,3.28,0,0,1,3057,1790.07Z"/>
    <path class="cls-7" d="M1943.35,1769.23,784,1786.46a19.36,19.36,0,0,1-19-14.58L543.81,901.79a19.34,19.34,0,0,1,18.67-24.11l1162.51-5a19.34,19.34,0,0,1,18.83,14.58l218,857.82A19.34,19.34,0,0,1,1943.35,1769.23Z"/>
    <path class="cls-8" d="M1952.85,1769l-1145.94,4.89c-12.57,0-30.28,8-33.38-4.13l-207.13-858a27.4,27.4,0,0,1,26.43-34.13l1145.94-4.89a27.38,27.38,0,0,1,26.65,20.64l213.85,841.51A27.38,27.38,0,0,1,1952.85,1769Z"/>
    <path class="cls-9" d="M1933.56,1736.63l-436.71,1.85-183.86.78-499.69,2.11a13,13,0,0,1-12.6-9.74L606.39,973.85l-16.3-63.6a13,13,0,0,1,12.49-16.17l1098.34-4.65,21.91-.1a13,13,0,0,1,12.6,9.74l19.17,74.78,49.55,193.23,44,171.56L1946,1720.46A13,13,0,0,1,1933.56,1736.63Z"/>
    <path class="cls-10" d="M1754.6,973.85H606.39l-16.3-63.6a13,13,0,0,1,12.49-16.17l1098.34-4.65,21.91-.1a13,13,0,0,1,12.6,9.74Z"/>
    <g>
      <circle class="cls-11" cx="1462.3" cy="510.07" r="48.25"/>
      <g>
        <path class="cls-12" d="M1446.81,490.71a15.49,15.49,0,1,1,15.49,15.49A15.48,15.48,0,0,1,1446.81,490.71Z"/>
        <path class="cls-12" d="M1462.3,506.2a27.1,27.1,0,0,0-27.1,27.1h54.2A27.1,27.1,0,0,0,1462.3,506.2Z"/>
      </g>
      <circle class="cls-13" cx="1105.64" cy="381.69" r="32.55" transform="translate(687.37 1474.02) rotate(-88.09)"/>
      <g>
        <circle class="cls-12" cx="1105.64" cy="368.64" r="10.45" transform="translate(492.85 1360.01) rotate(-76.72)"/>
        <path class="cls-12" d="M1105.64,379.08a18.29,18.29,0,0,0-18.28,18.29h36.57A18.29,18.29,0,0,0,1105.64,379.08Z"/>
      </g>
      <g>
        <g>
          <g>
            <g>
              <path class="cls-11" d="M1337.75,218.26a2.83,2.83,0,1,1,1.87,3.54A2.82,2.82,0,0,1,1337.75,218.26Z"/>
              <path class="cls-11" d="M1350.28,222.12a2.83,2.83,0,1,1,1.88,3.54A2.83,2.83,0,0,1,1350.28,222.12Z"/>
              <path class="cls-11" d="M1364.85,229.57a2.84,2.84,0,1,1,3.55-1.88A2.85,2.85,0,0,1,1364.85,229.57Z"/>
            </g>
            <g>
              <path class="cls-11" d="M1375.68,229.93a2.83,2.83,0,1,1,1.87,3.54A2.82,2.82,0,0,1,1375.68,229.93Z"/>
              <path class="cls-11" d="M1388.21,233.79a2.83,2.83,0,1,1,1.88,3.54A2.83,2.83,0,0,1,1388.21,233.79Z"/>
              <path class="cls-11" d="M1402.78,241.24a2.84,2.84,0,1,1,3.55-1.88A2.84,2.84,0,0,1,1402.78,241.24Z"/>
            </g>
          </g>
          <g>
            <g>
              <path class="cls-11" d="M1413.1,241.44A2.83,2.83,0,1,1,1415,245,2.83,2.83,0,0,1,1413.1,241.44Z"/>
              <path class="cls-11" d="M1425.63,245.3a2.84,2.84,0,1,1,1.88,3.54A2.83,2.83,0,0,1,1425.63,245.3Z"/>
              <path class="cls-11" d="M1440.2,252.75a2.84,2.84,0,1,1,3.55-1.88A2.84,2.84,0,0,1,1440.2,252.75Z"/>
            </g>
            <g>
              <path class="cls-11" d="M1451,253.11a2.83,2.83,0,1,1,1.87,3.55A2.83,2.83,0,0,1,1451,253.11Z"/>
              <path class="cls-11" d="M1463.56,257a2.84,2.84,0,1,1,1.88,3.54A2.84,2.84,0,0,1,1463.56,257Z"/>
              <path class="cls-11" d="M1478.13,264.42a2.84,2.84,0,1,1,3.55-1.88A2.84,2.84,0,0,1,1478.13,264.42Z"/>
            </g>
          </g>
        </g>
        <g>
          <g>
            <g>
              <path class="cls-11" d="M1489,264.79a2.84,2.84,0,1,1,1.87,3.55A2.83,2.83,0,0,1,1489,264.79Z"/>
              <path class="cls-11" d="M1501.52,268.65a2.84,2.84,0,1,1,1.88,3.54A2.83,2.83,0,0,1,1501.52,268.65Z"/>
              <path class="cls-11" d="M1516.1,276.1a2.83,2.83,0,1,1,3.54-1.88A2.83,2.83,0,0,1,1516.1,276.1Z"/>
            </g>
            <g>
              <path class="cls-11" d="M1526.92,276.46a2.84,2.84,0,1,1,1.87,3.55A2.83,2.83,0,0,1,1526.92,276.46Z"/>
              <path class="cls-11" d="M1539.45,280.32a2.84,2.84,0,1,1,1.88,3.54A2.84,2.84,0,0,1,1539.45,280.32Z"/>
              <path class="cls-11" d="M1554,287.77a2.84,2.84,0,1,1,3.55-1.88A2.84,2.84,0,0,1,1554,287.77Z"/>
            </g>
          </g>
          <g>
            <g>
              <path class="cls-11" d="M1564.34,288a2.84,2.84,0,1,1,1.87,3.54A2.83,2.83,0,0,1,1564.34,288Z"/>
              <path class="cls-11" d="M1576.87,291.83a2.84,2.84,0,1,1,1.88,3.55A2.84,2.84,0,0,1,1576.87,291.83Z"/>
              <path class="cls-11" d="M1591.45,299.28a2.83,2.83,0,1,1,3.54-1.87A2.83,2.83,0,0,1,1591.45,299.28Z"/>
            </g>
            <g>
              <path class="cls-11" d="M1602.27,299.65a2.83,2.83,0,1,1,1.87,3.54A2.83,2.83,0,0,1,1602.27,299.65Z"/>
              <path class="cls-11" d="M1614.8,303.5a2.84,2.84,0,1,1,1.88,3.55A2.84,2.84,0,0,1,1614.8,303.5Z"/>
              <path class="cls-11" d="M1629.37,311a2.83,2.83,0,1,1,3.55-1.87A2.83,2.83,0,0,1,1629.37,311Z"/>
            </g>
          </g>
        </g>
      </g>
      <g>
        <g>
          <g>
            <path class="cls-11" d="M1496.11,460.7a2.83,2.83,0,1,1,4-.61A2.83,2.83,0,0,1,1496.11,460.7Z"/>
            <path class="cls-11" d="M1503.86,450.12a2.83,2.83,0,1,1,4-.61A2.83,2.83,0,0,1,1503.86,450.12Z"/>
            <path class="cls-11" d="M1515.67,438.79a2.83,2.83,0,1,1-.61-4A2.82,2.82,0,0,1,1515.67,438.79Z"/>
          </g>
          <g>
            <path class="cls-11" d="M1519.56,428.69a2.83,2.83,0,1,1,4-.61A2.83,2.83,0,0,1,1519.56,428.69Z"/>
            <path class="cls-11" d="M1527.31,418.11a2.83,2.83,0,1,1,4-.61A2.83,2.83,0,0,1,1527.31,418.11Z"/>
            <path class="cls-11" d="M1539.12,406.78a2.83,2.83,0,1,1-.61-4A2.83,2.83,0,0,1,1539.12,406.78Z"/>
          </g>
        </g>
        <g>
          <g>
            <g>
              <path class="cls-11" d="M1543,396.65a2.83,2.83,0,1,1,4-.61A2.84,2.84,0,0,1,1543,396.65Z"/>
              <path class="cls-11" d="M1550.78,386.07a2.83,2.83,0,1,1,4-.61A2.84,2.84,0,0,1,1550.78,386.07Z"/>
              <path class="cls-11" d="M1562.59,374.74a2.83,2.83,0,1,1-.61-4A2.83,2.83,0,0,1,1562.59,374.74Z"/>
            </g>
            <g>
              <path class="cls-11" d="M1566.48,364.63a2.83,2.83,0,1,1,4-.61A2.84,2.84,0,0,1,1566.48,364.63Z"/>
              <path class="cls-11" d="M1574.23,354.06a2.84,2.84,0,1,1,4-.62A2.85,2.85,0,0,1,1574.23,354.06Z"/>
              <path class="cls-11" d="M1586,342.73a2.83,2.83,0,1,1-.61-4A2.84,2.84,0,0,1,1586,342.73Z"/>
            </g>
          </g>
          <g>
            <g>
              <path class="cls-11" d="M1589.62,333.05a2.83,2.83,0,1,1,4-.61A2.84,2.84,0,0,1,1589.62,333.05Z"/>
              <path class="cls-11" d="M1597.37,322.47a2.83,2.83,0,1,1,4-.61A2.83,2.83,0,0,1,1597.37,322.47Z"/>
              <path class="cls-11" d="M1609.18,311.14a2.83,2.83,0,1,1-.61-4A2.82,2.82,0,0,1,1609.18,311.14Z"/>
            </g>
            <g>
              <path class="cls-11" d="M1613.07,301a2.84,2.84,0,1,1,4-.61A2.84,2.84,0,0,1,1613.07,301Z"/>
              <path class="cls-11" d="M1620.82,290.46a2.83,2.83,0,1,1,4-.61A2.84,2.84,0,0,1,1620.82,290.46Z"/>
              <path class="cls-11" d="M1632.63,279.13a2.83,2.83,0,1,1-.61-4A2.83,2.83,0,0,1,1632.63,279.13Z"/>
            </g>
          </g>
        </g>
      </g>
      <g>
        <g>
          <g>
            <path class="cls-11" d="M1519.56,505.11a2.83,2.83,0,1,1,3.26,2.34A2.85,2.85,0,0,1,1519.56,505.11Z"/>
            <path class="cls-11" d="M1532.5,503a2.83,2.83,0,1,1,3.26,2.34A2.85,2.85,0,0,1,1532.5,503Z"/>
            <path class="cls-11" d="M1548.87,503.18a2.84,2.84,0,1,1,2.34-3.26A2.85,2.85,0,0,1,1548.87,503.18Z"/>
          </g>
          <g>
            <path class="cls-11" d="M1558.72,498.69A2.84,2.84,0,1,1,1562,501,2.85,2.85,0,0,1,1558.72,498.69Z"/>
            <path class="cls-11" d="M1571.66,496.57a2.84,2.84,0,1,1,3.26,2.34A2.85,2.85,0,0,1,1571.66,496.57Z"/>
            <path class="cls-11" d="M1588,496.76a2.84,2.84,0,1,1,2.34-3.26A2.85,2.85,0,0,1,1588,496.76Z"/>
          </g>
        </g>
        <g>
          <g>
            <g>
              <path class="cls-11" d="M1597.92,492.26a2.83,2.83,0,1,1,3.25,2.34A2.82,2.82,0,0,1,1597.92,492.26Z"/>
              <path class="cls-11" d="M1610.86,490.14a2.83,2.83,0,1,1,3.25,2.34A2.83,2.83,0,0,1,1610.86,490.14Z"/>
              <path class="cls-11" d="M1627.22,490.33a2.83,2.83,0,1,1,2.34-3.25A2.82,2.82,0,0,1,1627.22,490.33Z"/>
            </g>
            <g>
              <path class="cls-11" d="M1637.08,485.84a2.83,2.83,0,1,1,3.25,2.34A2.83,2.83,0,0,1,1637.08,485.84Z"/>
              <path class="cls-11" d="M1650,483.72a2.83,2.83,0,1,1,3.25,2.34A2.83,2.83,0,0,1,1650,483.72Z"/>
              <path class="cls-11" d="M1666.38,483.91a2.83,2.83,0,1,1,2.34-3.25A2.82,2.82,0,0,1,1666.38,483.91Z"/>
            </g>
          </g>
          <g>
            <g>
              <path class="cls-11" d="M1675.72,479.51a2.83,2.83,0,1,1,3.25,2.34A2.82,2.82,0,0,1,1675.72,479.51Z"/>
              <path class="cls-11" d="M1688.66,477.39a2.83,2.83,0,1,1,3.25,2.34A2.82,2.82,0,0,1,1688.66,477.39Z"/>
              <path class="cls-11" d="M1705,477.58a2.83,2.83,0,1,1,2.34-3.26A2.83,2.83,0,0,1,1705,477.58Z"/>
            </g>
            <g>
              <path class="cls-11" d="M1714.88,473.09a2.83,2.83,0,1,1,3.25,2.34A2.82,2.82,0,0,1,1714.88,473.09Z"/>
              <path class="cls-11" d="M1727.82,471a2.83,2.83,0,1,1,3.25,2.34A2.82,2.82,0,0,1,1727.82,471Z"/>
              <path class="cls-11" d="M1744.18,471.16a2.83,2.83,0,1,1,2.34-3.26A2.83,2.83,0,0,1,1744.18,471.16Z"/>
            </g>
          </g>
        </g>
      </g>
      <g>
        <g>
          <g>
            <path class="cls-11" d="M1445.08,453.42a2.84,2.84,0,1,1,1.83-3.56A2.83,2.83,0,0,1,1445.08,453.42Z"/>
            <path class="cls-11" d="M1441.09,440.93a2.84,2.84,0,1,1,1.83-3.56A2.85,2.85,0,0,1,1441.09,440.93Z"/>
            <path class="cls-11" d="M1438.88,424.71a2.84,2.84,0,1,1-3.57-1.83A2.84,2.84,0,0,1,1438.88,424.71Z"/>
          </g>
          <g>
            <path class="cls-11" d="M1433,415.62a2.83,2.83,0,1,1,1.84-3.56A2.83,2.83,0,0,1,1433,415.62Z"/>
            <path class="cls-11" d="M1429,403.13a2.83,2.83,0,1,1,1.84-3.56A2.83,2.83,0,0,1,1429,403.13Z"/>
            <path class="cls-11" d="M1426.79,386.91a2.84,2.84,0,1,1-3.56-1.83A2.82,2.82,0,0,1,1426.79,386.91Z"/>
          </g>
        </g>
        <g>
          <g>
            <g>
              <path class="cls-11" d="M1420.9,377.79a2.84,2.84,0,1,1,1.84-3.56A2.84,2.84,0,0,1,1420.9,377.79Z"/>
              <path class="cls-11" d="M1416.91,365.3a2.84,2.84,0,1,1,1.83-3.56A2.84,2.84,0,0,1,1416.91,365.3Z"/>
              <path class="cls-11" d="M1414.7,349.08a2.84,2.84,0,1,1-3.56-1.84A2.84,2.84,0,0,1,1414.7,349.08Z"/>
            </g>
            <g>
              <path class="cls-11" d="M1408.82,340a2.84,2.84,0,1,1,1.83-3.56A2.85,2.85,0,0,1,1408.82,340Z"/>
              <path class="cls-11" d="M1404.82,327.5a2.83,2.83,0,1,1,1.84-3.56A2.84,2.84,0,0,1,1404.82,327.5Z"/>
              <path class="cls-11" d="M1402.61,311.28a2.83,2.83,0,1,1-3.56-1.84A2.82,2.82,0,0,1,1402.61,311.28Z"/>
            </g>
          </g>
          <g>
            <g>
              <path class="cls-11" d="M1396.89,302.7a2.83,2.83,0,1,1,1.84-3.57A2.84,2.84,0,0,1,1396.89,302.7Z"/>
              <path class="cls-11" d="M1392.9,290.21a2.83,2.83,0,1,1,1.84-3.57A2.84,2.84,0,0,1,1392.9,290.21Z"/>
              <path class="cls-11" d="M1390.69,274a2.83,2.83,0,1,1-3.56-1.84A2.83,2.83,0,0,1,1390.69,274Z"/>
            </g>
            <g>
              <path class="cls-11" d="M1384.81,264.9a2.83,2.83,0,1,1,1.84-3.57A2.84,2.84,0,0,1,1384.81,264.9Z"/>
              <path class="cls-11" d="M1380.82,252.41a2.84,2.84,0,1,1,1.83-3.57A2.84,2.84,0,0,1,1380.82,252.41Z"/>
              <path class="cls-11" d="M1378.61,236.19a2.83,2.83,0,1,1-3.56-1.84A2.83,2.83,0,0,1,1378.61,236.19Z"/>
            </g>
          </g>
        </g>
      </g>
      <g>
        <g>
          <g>
            <path class="cls-11" d="M1123.77,365.8a2.84,2.84,0,1,1,3.94.73A2.84,2.84,0,0,1,1123.77,365.8Z"/>
            <path class="cls-11" d="M1134.56,358.35a2.83,2.83,0,1,1,3.94.73A2.83,2.83,0,0,1,1134.56,358.35Z"/>
            <path class="cls-11" d="M1149.44,351.53a2.83,2.83,0,1,1,.72-3.94A2.83,2.83,0,0,1,1149.44,351.53Z"/>
          </g>
          <g>
            <path class="cls-11" d="M1156.43,343.26a2.83,2.83,0,1,1,3.94.72A2.84,2.84,0,0,1,1156.43,343.26Z"/>
            <path class="cls-11" d="M1167.22,335.81a2.84,2.84,0,1,1,3.94.73A2.83,2.83,0,0,1,1167.22,335.81Z"/>
            <path class="cls-11" d="M1182.1,329a2.84,2.84,0,1,1,.72-3.94A2.84,2.84,0,0,1,1182.1,329Z"/>
          </g>
        </g>
        <g>
          <g>
            <g>
              <path class="cls-11" d="M1189.12,320.7a2.83,2.83,0,1,1,3.94.72A2.83,2.83,0,0,1,1189.12,320.7Z"/>
              <path class="cls-11" d="M1199.91,313.25a2.83,2.83,0,1,1,3.94.72A2.83,2.83,0,0,1,1199.91,313.25Z"/>
              <path class="cls-11" d="M1214.79,306.43a2.84,2.84,0,1,1,.72-3.95A2.84,2.84,0,0,1,1214.79,306.43Z"/>
            </g>
            <g>
              <path class="cls-11" d="M1221.78,298.16a2.83,2.83,0,1,1,3.94.72A2.83,2.83,0,0,1,1221.78,298.16Z"/>
              <path class="cls-11" d="M1232.57,290.71a2.83,2.83,0,1,1,3.94.72A2.83,2.83,0,0,1,1232.57,290.71Z"/>
              <path class="cls-11" d="M1247.45,283.88a2.83,2.83,0,1,1,.72-3.94A2.84,2.84,0,0,1,1247.45,283.88Z"/>
            </g>
          </g>
          <g>
            <g>
              <path class="cls-11" d="M1254,275.92a2.83,2.83,0,1,1,3.94.72A2.83,2.83,0,0,1,1254,275.92Z"/>
              <path class="cls-11" d="M1264.79,268.47a2.84,2.84,0,1,1,3.94.72A2.84,2.84,0,0,1,1264.79,268.47Z"/>
              <path class="cls-11" d="M1279.67,261.64a2.83,2.83,0,1,1,.72-3.94A2.83,2.83,0,0,1,1279.67,261.64Z"/>
            </g>
            <g>
              <path class="cls-11" d="M1286.66,253.38a2.83,2.83,0,1,1,3.94.72A2.84,2.84,0,0,1,1286.66,253.38Z"/>
              <path class="cls-11" d="M1297.45,245.93a2.84,2.84,0,1,1,3.94.72A2.85,2.85,0,0,1,1297.45,245.93Z"/>
              <path class="cls-11" d="M1312.33,239.1a2.83,2.83,0,1,1,.72-3.94A2.83,2.83,0,0,1,1312.33,239.1Z"/>
            </g>
          </g>
        </g>
      </g>
      <g>
        <g>
          <g>
            <path class="cls-11" d="M1665.57,327.05a2.84,2.84,0,1,1-.08,4A2.84,2.84,0,0,1,1665.57,327.05Z"/>
            <path class="cls-11" d="M1674.65,336.52a2.83,2.83,0,1,1-.09,4A2.83,2.83,0,0,1,1674.65,336.52Z"/>
            <path class="cls-11" d="M1683.75,350.12a2.83,2.83,0,1,1,4,.08A2.84,2.84,0,0,1,1683.75,350.12Z"/>
          </g>
          <g>
            <path class="cls-11" d="M1693,355.71a2.83,2.83,0,1,1-.09,4A2.83,2.83,0,0,1,1693,355.71Z"/>
            <path class="cls-11" d="M1702.1,365.17a2.84,2.84,0,1,1-.09,4A2.84,2.84,0,0,1,1702.1,365.17Z"/>
            <path class="cls-11" d="M1711.21,378.77a2.83,2.83,0,1,1,4,.09A2.82,2.82,0,0,1,1711.21,378.77Z"/>
          </g>
        </g>
        <g>
          <g>
            <path class="cls-11" d="M1720.51,384.38a2.84,2.84,0,1,1-.09,4A2.83,2.83,0,0,1,1720.51,384.38Z"/>
            <path class="cls-11" d="M1729.58,393.85a2.84,2.84,0,1,1-.09,4A2.83,2.83,0,0,1,1729.58,393.85Z"/>
            <path class="cls-11" d="M1738.68,407.45a2.84,2.84,0,1,1,4,.09A2.83,2.83,0,0,1,1738.68,407.45Z"/>
          </g>
          <g>
            <path class="cls-11" d="M1748,413a2.83,2.83,0,1,1-.09,4A2.85,2.85,0,0,1,1748,413Z"/>
            <path class="cls-11" d="M1757,422.51a2.83,2.83,0,1,1-.08,4A2.84,2.84,0,0,1,1757,422.51Z"/>
            <path class="cls-11" d="M1766.14,436.11a2.83,2.83,0,1,1,4,.08A2.83,2.83,0,0,1,1766.14,436.11Z"/>
          </g>
        </g>
      </g>
      <circle class="cls-11" cx="1360.68" cy="221.93" r="40.1"/>
      <g>
        <path class="cls-12" d="M1347.81,205.84a12.87,12.87,0,1,1,12.87,12.87A12.87,12.87,0,0,1,1347.81,205.84Z"/>
        <path class="cls-12" d="M1360.68,218.71a22.53,22.53,0,0,0-22.53,22.53h45A22.52,22.52,0,0,0,1360.68,218.71Z"/>
      </g>
      <circle class="cls-13" cx="1638.54" cy="292.67" r="61.8"/>
      <g>
        <circle class="cls-12" cx="1638.54" cy="267.88" r="19.83"/>
        <path class="cls-12" d="M1638.54,287.71a34.71,34.71,0,0,0-34.71,34.71h69.42A34.71,34.71,0,0,0,1638.54,287.71Z"/>
      </g>
      <path class="cls-11" d="M1751.53,462a41.72,41.72,0,1,1,41.72,41.72A41.71,41.71,0,0,1,1751.53,462Z"/>
      <path class="cls-12" d="M1798.19,471.93a6.56,6.56,0,0,0-.33-2.26,4.81,4.81,0,0,0-1.15-1.79,9.13,9.13,0,0,0-2.1-1.49,24.45,24.45,0,0,0-3.15-1.36,62.66,62.66,0,0,1-5.8-2.44,19.78,19.78,0,0,1-4.46-2.92,11.63,11.63,0,0,1-2.85-3.82,13,13,0,0,1,0-9.88,10.94,10.94,0,0,1,2.68-3.68,13.72,13.72,0,0,1,4.12-2.52,18.32,18.32,0,0,1,5.36-1.19l.09-6.52,5.25.08-.1,6.61a16.36,16.36,0,0,1,5.1,1.57,12.34,12.34,0,0,1,6.28,7.27,16.6,16.6,0,0,1,.79,5.52l-9.49-.14q.06-3.66-1.54-5.5a5.54,5.54,0,0,0-4.32-1.87,7,7,0,0,0-2.55.37,4.64,4.64,0,0,0-1.77,1.1,4.29,4.29,0,0,0-1,1.68,6.51,6.51,0,0,0-.36,2.1,6.09,6.09,0,0,0,.29,2,4.39,4.39,0,0,0,1.11,1.7,9.09,9.09,0,0,0,2.11,1.5,29.79,29.79,0,0,0,3.28,1.46q3.16,1.24,5.76,2.53a20.14,20.14,0,0,1,4.44,2.94,11.16,11.16,0,0,1,3.8,9,11.86,11.86,0,0,1-1,4.8,10.82,10.82,0,0,1-2.7,3.65,13.16,13.16,0,0,1-4.15,2.44,19.37,19.37,0,0,1-5.38,1.14l-.09,6.07-5.22-.08.09-6a21.64,21.64,0,0,1-5.25-1.26,14.22,14.22,0,0,1-4.48-2.7,12.54,12.54,0,0,1-3.08-4.39,15,15,0,0,1-1.09-6.3l9.48.14a9.22,9.22,0,0,0,.56,3.62,6.07,6.07,0,0,0,1.59,2.34,5.77,5.77,0,0,0,2.29,1.25,9.8,9.8,0,0,0,2.64.39,8.33,8.33,0,0,0,2.71-.35,5.72,5.72,0,0,0,2-1.07,4.59,4.59,0,0,0,1.21-1.65A5.44,5.44,0,0,0,1798.19,471.93Z"/>
    </g>
    <g>
      <g>
        <path class="cls-8" d="M2833.47,1524.13l-72.18,10.28a17.3,17.3,0,0,1-19.51-14.64l-4.46-31.28A17.3,17.3,0,0,1,2752,1469l72.18-10.28a17.3,17.3,0,0,1,19.51,14.64l4.46,31.28A17.3,17.3,0,0,1,2833.47,1524.13Z"/>
        <path class="cls-14" d="M2746.83,1487.11l4.51,31.64a17.33,17.33,0,0,0,10.2,13.4,17,17,0,0,0,5.62,1.42h0a17,17,0,0,0,3.76-.11l72.05-10.28a17.36,17.36,0,0,0,14.7-19.58l-4.51-31.64a17.37,17.37,0,0,0-19.58-14.71l-24.81,3.54-1-6.75a5.72,5.72,0,0,0-6.46-4.85l-2.73.39-15.09,2.15-3.75.53a5.73,5.73,0,0,0-4.85,6.47l1,6.75-14.37,2c-.57.08-1.12.19-1.66.32h0a17.4,17.4,0,0,0-12,10.44h0A17.17,17.17,0,0,0,2746.83,1487.11Zm58.4-25.82-25.78,3.68-1-6.75a2.13,2.13,0,0,1,1.81-2.41l6.47-.92,11.88-1.7,3.21-.45a2,2,0,0,1,.64,0,2.11,2.11,0,0,1,1.77,1.8Z"/>
      </g>
      <path class="cls-15" d="M2778.58,1431s3.79,5,3.94,7.06c1,13.68-5.23,15.57,10.95,23.17,0,0,6.91,2.63,7-2.73s-4.8-5.45-3.9-13c1-8.65.93-8.74-4.75-13.26l-3.76-6.22Z"/>
      <path class="cls-15" d="M2784.56,1437s-3.65,3.81-3.88,5.39c-.74,5.08-2.43,7.28-1.58,7.83,1.76,1.15,4.1-2.62,5.22-6A15.39,15.39,0,0,0,2784.56,1437Z"/>
      <polygon class="cls-15" points="2641.14 1768.49 2644.97 1740.94 2628.9 1727.52 2623.84 1763.99 2641.14 1768.49"/>
      <path class="cls-8" d="M2587.79,1793.1h65.5s1.57-10-1.85-17.56c-3.28-7.27-8.38-11.75-8.85-17.32-4.16,4.29-9.28,7-18.75,5.77-1.16,1.88-7.49,12-11.36,14.73C2608.2,1781.8,2589.11,1780.7,2587.79,1793.1Z"/>
      <path class="cls-16" d="M2601,1396.52c4.29,34.46,7.79,66.94,10.64,97.22,15.24,161.32,12.25,259.92,12.25,259.92s1.1,2.91,10.55,3a54,54,0,0,0,10.58-1.14s34.13-105.34,31.49-165.29a91.8,91.8,0,0,0-2.66-19.4c-8.19-30.67,30.3-148-11.54-191.65S2599,1380.71,2601,1396.52Z"/>
      <path class="cls-17" d="M2601,1396.52c4.29,34.46,7.79,66.94,10.64,97.22l64.87,96.45a91.8,91.8,0,0,0-2.66-19.4c-8.19-30.67,30.3-148-11.54-191.65S2599,1380.71,2601,1396.52Z"/>
      <path class="cls-15" d="M2549.4,1067.85s1.58-7.87,3.36-13.88c.78-2.66-4.7-20.12-8.49-22.27s-13.68,9.61-10.88,18.64c1.43,4.64,3.79,19.73,3.79,19.73Z"/>
      <path class="cls-15" d="M2549.4,1067.85s2.06-4.56,3.93-5.3,3.86-8.21,5.22-11.17c0,0-1.32-1.93-3.63.56-1.41,1.52-4.55,6-4.55,6Z"/>
      <path class="cls-15" d="M2751,1760.23c.93-8.83,1.15-32.06,1.15-32.06s-23.67-7.56-22.79-2.37c4.28,25.54,3.12,38.19,3.12,38.19l9.57,5.72Z"/>
      <path class="cls-16" d="M2620.72,1394.88s91.44,250.65,109.44,359.38c0,0,4.17,2.87,12,1.92,8.82-1.08,11.24-7.21,11.24-7.21s16.52-130.31-16.31-175.56c-22.56-31.08,9.73-167.59-42.81-178.53S2620.72,1394.88,2620.72,1394.88Z"/>
      <path class="cls-18" d="M2636.29,1202.72a30.35,30.35,0,0,0,1.39,3.06,24.53,24.53,0,0,0,2.65,4.09,37.12,37.12,0,0,1-1.1-4.74h0c-.15-.83-.27-1.73-.39-2.7a100.85,100.85,0,0,1-.23-18,98.3,98.3,0,0,0,1.54,17.86c.14.76.29,1.52.47,2.27a41.82,41.82,0,0,0,2.26,7.21c.17.42.36.84.56,1.26,6.11,5.45,13.41,13.78,20.85,23.37,5.12,6.58,10.3,13.76,15.2,21q2.84,4.2,5.53,8.35h0c.76,1.17,1.49,2.31,2.21,3.46h0c.91,1.44,1.78,2.84,2.64,4.25,2.4,3.89,4.63,7.67,6.63,11.25.45.81.9,1.62,1.33,2.41,6.18,11.33,9.86,20.32,9,23.77,0,0,.39-.28,1.13-.78l.7-.48c2.53-1.75,7.5-5.17,13.81-9.45l.41-1.27,3.15-9.76c.7,2.19.23,6.07-.24,8.79,9.89-6.68,22.22-14.91,33.4-22.07h0c8.35-5.35,16.05-10.09,21.61-13.16a140.22,140.22,0,0,0-3.51-14.15c3.27,1.45,6.38,8.29,7.85,11.91.38-.19.74-.35,1.06-.49,0,0,.62-27.94-35.88-54.31-19.12-13.81-32.68-20.38-29.83-33.88s5.33-73.08-36.78-63.66c0,0-6-3.79-8.9-3.79a7.92,7.92,0,0,1,3.28,2.2c-4.58-1-11.23-1.6-17.2.71-3.28,1.27-6.91,5.38-10.45,11.31h0c-.21.39-.44.77-.67,1.17-1.5,2.62-3,5.57-4.38,8.75a147.59,147.59,0,0,0-6.64,18.4h0c-.63,2.16-1.22,4.33-1.75,6.53a2,2,0,0,0-.08.33h0C2632.69,1171.36,2631.36,1190.13,2636.29,1202.72Z"/>
      <path class="cls-15" d="M2644.87,1214.11c-.14,0,11.8,8.68,21.92,7.47,9.52-1.14,17.26-12.11,17.14-12.15-3.76-1.35-4.09-6.84-.6-29.71l-1.81.09-30.31,1.45s-.71,9.37-2,18.1C2648.15,1206.69,2646.67,1213.58,2644.87,1214.11Z"/>
      <path class="cls-19" d="M2651.21,1181.26s-.71,9.37-2,18.1c16.55,2,27.49-11.75,32.3-19.55Z"/>
      <path class="cls-18" d="M2685,1177.05s10.67-12.36,14.48-23.72c2.72-8.11,3.07-39.62-28.63-39.79a42.63,42.63,0,0,0-18.46,4c-7.42,3.55-18.6,11.93-11.74,40.49l1.47,9.52Z"/>
      <path class="cls-12" d="M2594.7,1414.22s53.77,17.93,103.31,5.88c.58-.14,28.89-25.2,28.89-25.2-.69-1.89-5.88-33-6.56-34.69-8.79-22.68-24.85-145.75-38.27-151.83-3.43,3.74-13.22,6.29-21.6,5.55-9.65-.86-12.88-5-12.08-9.51-10.68,5-18.89,9.74-18.89,9.74C2619.74,1228.79,2594.7,1414.22,2594.7,1414.22Z"/>
      <path class="cls-15" d="M2644.47,1188.71s38.9,6.44,42.54-17.84,11.11-39.81-13.57-44.95-30.91,3.4-34.09,11.21S2634.45,1186.41,2644.47,1188.71Z"/>
      <path class="cls-18" d="M2655.77,1122.68s6.44,30.08,22.19,36.73,23.52,3.32,23.52,3.32a46.92,46.92,0,0,1-11.1-29.67S2665.84,1110.32,2655.77,1122.68Z"/>
      <path class="cls-18" d="M2658.07,1125.39s-8.92,5.17-11.78,11.07-5.63,18.5-9.28,17.51c0,0-5.16-20.56,5.51-30.17C2653.83,1113.61,2658.07,1125.39,2658.07,1125.39Z"/>
      <path class="cls-14" d="M2536.92,1068.41c1.58-.56,3.91-1.87,6.95-2.15a21.7,21.7,0,0,1,6.11.64s11,68.22,11.79,71.83,47.07,55.72,59.54,55.51c11.26-.19,24.6,8.51,27.08,10.18,0,0-22.57,40.71-27.67,83.06-4.3,35.75-14.86,168.69-14.86,168.69s.81,8.12-14.37,3.76-19-8-19-8,13.93-137.42,16.86-180.15c.39-5.74,2.93-25.72.05-29.68-19.18-26.33-49.47-69-51.16-78.06C2535.8,1150.74,2536.92,1068.41,2536.92,1068.41Z"/>
      <path class="cls-8" d="M2696.42,1793.1h65.5s1.56-10-1.86-17.56c-3.27-7.27-8.38-11.75-8.84-17.32-4.16,4.29-9.28,7-18.75,5.77-1.16,1.88-7.49,12-11.37,14.73C2716.82,1781.8,2697.73,1780.7,2696.42,1793.1Z"/>
      <path class="cls-14" d="M2667.65,1456.9s4.42,21.36,24.67,20,49.61-11.5,49.61-11.5-1.37-22.26-3.58-53.45c-2.15-30.25-5.09-68.89-8.37-103.71-4.49-47.55-9.58-88-14.1-90.15-14.4-6.9-34.07-10.56-34.07-10.56S2667,1271,2664.4,1302.4C2662,1331.75,2667.65,1456.9,2667.65,1456.9Z"/>
      <path class="cls-12" d="M2657.22,1176.7a17.43,17.43,0,0,1-10.31,1.94c-3.82-.57-4.69-5.11-4.69-5.11a15.16,15.16,0,0,1,6.9,0A29.43,29.43,0,0,1,2657.22,1176.7Z"/>
      <path class="cls-8" d="M2705.38,1282.25s.29,69.65,24.53,119c3.83,7.82,6.56,10.94,8.44,10.67-2.15-30.25-5.09-68.89-8.37-103.71Z"/>
      <path class="cls-14" d="M2705.83,1214s22.34,6.58,32.44,21,42.84,95.76,51.5,125.61,12.51,73.88,12.51,73.88-10.58,4.25-26.63,0c0,0-18.61-66.51-25.67-73.88s-48.5-81.82-48.5-81.82Z"/>
    </g>
    <g>
      <path class="cls-17" d="M2196.3,1386.53s-179.23-62.19-561.17,12.15c-118.17,23-266,69.53-425.39,109l-94.24-329.55,2.75-.7c48.18-12.41,209.41-57.27,396.21-126.78,168.65-62.74,359.1-144.47,499.19-302.83L2149,1221Z"/>
      <path class="cls-16" d="M2149,1221c-60.38-14.31-239.39-43.11-548.68,16.67-120.35,23.26-270.84,70.7-433.13,110.79l-48.9-171c48.18-12.41,209.41-57.27,396.21-126.78,168.65-62.74,359.1-144.47,499.19-302.83Z"/>
      <path class="cls-17" d="M2213.32,1408.61h0a10.28,10.28,0,0,1-12.72-7.06L2007.83,727.47a10.29,10.29,0,0,1,7.06-12.73h0a10.29,10.29,0,0,1,12.73,7.07l192.77,674.08A10.28,10.28,0,0,1,2213.32,1408.61Z"/>
      <path class="cls-20" d="M1016.65,1563.49l193.55-55.35-94.33-329.88-193.56,55.36a14.9,14.9,0,0,0-10.2,18.38l86.16,301.29A14.91,14.91,0,0,0,1016.65,1563.49Z"/>
      <polygon class="cls-16" points="1566.24 1738.53 1394.36 1739.26 1308.61 1557.65 1276.92 1490.52 1276.98 1490.5 1433.73 1441.01 1436.56 1447.37 1465.67 1512.73 1566.24 1738.53"/>
      <polygon class="cls-17" points="1566.24 1738.53 1394.36 1739.26 1308.61 1557.65 1465.67 1512.73 1566.24 1738.53"/>
    </g>
    <g>
      <path class="cls-16" d="M2370.05,790.72h0a11.19,11.19,0,0,1-1.56,15.69l-165.62,135.8a11.17,11.17,0,0,1-15.68-1.55h0a11.18,11.18,0,0,1,1.55-15.69l165.62-135.8A11.19,11.19,0,0,1,2370.05,790.72Z"/>
      <path class="cls-16" d="M2467.84,1139.3h0a11.18,11.18,0,0,1-12.19,10l-213.14-21.09a11.17,11.17,0,0,1-10-12.19h0a11.18,11.18,0,0,1,12.19-10l213.13,21.09A11.18,11.18,0,0,1,2467.84,1139.3Z"/>
      <path class="cls-16" d="M2543.55,963.3h0a11.17,11.17,0,0,1-9,13l-298.65,54.33a11.18,11.18,0,0,1-13-9h0a11.18,11.18,0,0,1,9-13l298.65-54.32A11.18,11.18,0,0,1,2543.55,963.3Z"/>
    </g>
    <g>
      <path class="cls-8" d="M1634.21,1746.31s0-11.59,1.65-15.44,7.71-19.55,7.71-19.55h23.67s4.41,14.31,4.68,19,0,16,0,16Z"/>
      <path class="cls-8" d="M1784.52,1746.31s0-11.59-1.65-15.44-7.71-19.55-7.71-19.55h-23.67s-4.41,14.31-4.68,19,0,16,0,16Z"/>
      <path class="cls-15" d="M1689.68,1095.81s-.84,25.81-4.14,37.37l-26.14,18.23,98.41,14.73-23.47-32.43s-7.09-34.6-3.37-47.4S1689.68,1095.81,1689.68,1095.81Z"/>
      <path class="cls-21" d="M1689.53,1099.37s7.78,18.74,22.44,18.32,18-17,18-17Z"/>
      <path class="cls-22" d="M1680.78,1084.2s-4.73-23.63-8-30.78-6.06-39.09,30.55-40.75c0,0,14,1.66,21.75-3,0,0,0,4.68-1.93,6.33a24.33,24.33,0,0,1,22.57,8c9.91,11-6.6,49.55-5.78,58.63Z"/>
      <path class="cls-15" d="M1710.29,1110.45c-10.62-.18-30.17-14.33-30.17-31.84v-27.33c0-6.4,4.46-11.63,9.91-11.63h40.52c5.45,0,9.91,5.23,9.91,11.63v25.78C1740.46,1095.43,1722.47,1110.67,1710.29,1110.45Z"/>
      <path class="cls-22" d="M1680.12,1065.87s.06-16.42,13.07-18.94,42.11,8,46.24-4-56.27-11.77-59.31-4.13S1680.12,1065.87,1680.12,1065.87Z"/>
      <path class="cls-14" d="M1637.18,1344.94s4.14,126.48-2.06,198.65.05,172.6.05,172.6,19.81,10.92,41.28,0c0,0,23.55-139.42,23.4-172.6-.16-35.34,25.63-193.13,25.63-193.13Z"/>
      <path class="cls-14" d="M1783.66,1716.18s-19.8,10.93-41.27,0c0,0-23.55-139.41-23.4-172.6.07-14.92-4.49-51.69-9.78-89.18-7.25-51.3-15.85-103.94-15.85-103.94l91.72-5.73s-7.56,126.69-1.37,198.85S1783.66,1716.18,1783.66,1716.18Z"/>
      <path class="cls-12" d="M1784,1366s-39.1,7.58-74.77,7.58c-15.56,0-32.47-1.71-45.93-3.51-14.88-2-25.55-4.07-25.55-4.07s-7.93.7-3.24-38.39c3.56-29.74,2.44-56.6,1.65-84.23-.09-3.07,0-6.71.16-10.75,1.52-32.22,11.27-90.22,18.69-93.33,0,0,11-4.11,30.55-6.1,0,.38,11.32,16.93,24.76,18.78,8.35-3.3,14.9-6.12,24-18.25A261.62,261.62,0,0,1,1772,1141s1.4,6.14,6.7,112.74C1780.83,1296,1795.24,1366.12,1784,1366Z"/>
      <path class="cls-8" d="M1719,1543.58c.07-14.92-4.49-51.69-9.78-89.18,5.49-22.4,18.87-44,18.87-44C1745,1457.93,1719,1543.58,1719,1543.58Z"/>
      <path class="cls-12" d="M1600,1266.17c-.93.77,2.32,8.83,7.11,19.34,9.86,21.58,26.24,53.45,26.24,53.45a94.7,94.7,0,0,1-5,14.55c-27.55-21.65-45.32-40.06-56.66-54.19-15.93-19.86-19.2-31.25-19.2-31.25,61.34-124.86,104.51-129.46,104.51-129.46l-5.1,82.52S1602.84,1263.8,1600,1266.17Z"/>
      <path class="cls-15" d="M1630.08,1340.53s14.86-13.77,20.92-6.06,7.16,19.82,2.48,19-14.32-5.23-15.69-3-7.55,6.41-9.42,3.06S1630.08,1340.53,1630.08,1340.53Z"/>
      <path class="cls-15" d="M1633.35,1339a94.7,94.7,0,0,1-5,14.55c-27.55-21.65-45.32-40.06-56.66-54.19,8.55-.63,21-3.69,35.39-13.81C1617,1307.09,1633.35,1339,1633.35,1339Z"/>
      <path class="cls-12" d="M1870.27,1268.07s-3.27,11.39-19.21,31.25c-11.34,14.13-29.1,32.54-56.65,54.19a94.7,94.7,0,0,1-5-14.55s16.37-31.87,26.23-53.45c4.79-10.51,8-18.57,7.11-19.34-2.2-1.84-32.19-27.89-45.57-39.51l-6.36-5.53-3.06-81.3S1808.92,1143.21,1870.27,1268.07Z"/>
      <path class="cls-15" d="M1792.7,1340.53s-14.87-13.77-20.92-6.06-7.16,19.82-2.48,19,14.32-5.23,15.69-3,7.55,6.41,9.42,3.06S1792.7,1340.53,1792.7,1340.53Z"/>
      <path class="cls-15" d="M1789.43,1339a94.7,94.7,0,0,0,5,14.55c27.55-21.65,45.32-40.06,56.66-54.19-8.55-.63-21-3.69-35.39-13.81C1805.81,1307.09,1789.43,1339,1789.43,1339Z"/>
      <path class="cls-17" d="M1686.91,1126.88a10.48,10.48,0,0,0-5.61,6.78s17.53,18,29,18.3Z"/>
      <path class="cls-17" d="M1710.3,1152l22.62-26s4.67,3.08,4.6,8.13C1737.52,1134.1,1720,1152.65,1710.3,1152Z"/>
      <path class="cls-16" d="M1706.22,1150.05S1689,1299.11,1695,1317.28a124.64,124.64,0,0,0,10.53,23.1,6.13,6.13,0,0,0,10.6,0c4.58-8,10.58-19.48,10.58-25.32,0-9.48-13.11-165.11-13.11-165.11Z"/>
      <path class="cls-17" d="M1701.7,1142.74s10.43-1,16.79-.4a1.77,1.77,0,0,1,1.35,2.62c-1.78,3.2-5.42,8.76-9.22,8.76C1705.28,1153.72,1697,1143.11,1701.7,1142.74Z"/>
      <path class="cls-12" d="M1701.83,1092.85a11.62,11.62,0,0,0,9.09,4.31,10.79,10.79,0,0,0,8.49-4.31S1709.66,1091.25,1701.83,1092.85Z"/>
    </g>
    <g>
      <path class="cls-12" d="M1682,950.13l-8,5.77-8.08-5.7a9.9,9.9,0,0,1,16.12-.07Z"/>
      <path class="cls-12" d="M1673.94,932a23.9,23.9,0,0,0-19.56,10.16l5.1,3.59a17.69,17.69,0,0,1,28.84-.11l5.08-3.64A23.91,23.91,0,0,0,1673.94,932Z"/>
      <path class="cls-12" d="M1673.94,905.22a50.59,50.59,0,0,0-41.4,21.5l5.11,3.58A44.39,44.39,0,0,1,1710,930l5.07-3.65A50.58,50.58,0,0,0,1673.94,905.22Z"/>
      <path class="cls-12" d="M1673.94,919.84a36.16,36.16,0,0,0-29.52,15.25l5.1,3.58a30,30,0,0,1,48.71-.18l5.06-3.63A36.17,36.17,0,0,0,1673.94,919.84Z"/>
    </g>
    <g>
      <path class="cls-15" d="M833.77,1083.26s-11.93-21.2,0-25.51,17.33-.34,17.89,4.49-4.54,23.86-4.54,23.86Z"/>
      <path class="cls-16" d="M843.33,1218.84a385.24,385.24,0,0,1-59.8,6.14,331.58,331.58,0,0,1-46-2.07c-3.61-.41-7.08-.88-10.42-1.38-35.21-5.34-54.66-14.81-54.66-14.81s32.18-67.35,58.17-64.77c30.49,3,82.16,30.4,87.3,22.73,5.78-8.65,10.62-82.8,10.62-82.8,13.52-9.26,21.6.5,21.6.5S876.59,1212.84,843.33,1218.84Z"/>
      <path class="cls-17" d="M843.33,1218.84a385.24,385.24,0,0,1-59.8,6.14,331.58,331.58,0,0,1-46-2.07c-8.11-25.8-14-52.15,2.37-36.26C768.72,1214.67,843.33,1218.84,843.33,1218.84Z"/>
      <path class="cls-8" d="M670.05,1762.64s-2.31,26.77,3.35,29.56l72.43-.15s0-8.36-11.64-10.22-32.07-8.66-35.53-23.83S670.05,1762.64,670.05,1762.64Z"/>
      <path class="cls-23" d="M723.23,1438.58c-.36,17.51-1.2,35.57-2.85,51.8-7.82,77-10.57,170.07-11.7,188-1.94,31.14-8.1,80.89-8.1,80.89s-12.2,11.58-36,6.06c0,0-19.71-71.66-24.11-147.11-.07-1.24-.14-2.49-.2-3.73-.51-10-1-21.38-1.59-33.68-3.63-82.38-7.56-204.76-7.56-204.76L722,1354.71S724.12,1394.94,723.23,1438.58Z"/>
      <path class="cls-8" d="M638.7,1580.82c-3.63-82.38-7.56-204.76-7.56-204.76L722,1354.71S656.29,1551.55,638.7,1580.82Z"/>
      <path class="cls-15" d="M493.09,1361.6S478.3,1379,477,1383.81s-3.7,22.2-2.44,27.42,11.11-14.56,14.68-16.67-2.68,7.87-1.46,9.53,8.29-5.82,11-8.36,2.48-16.17,5.79-24.24S493.09,1361.6,493.09,1361.6Z"/>
      <path class="cls-8" d="M489.62,1732.21s-12.9,11.76-10.38,20.12,14.15,13.94,15.72,24.15,7.86,15.79,13.52,15.79h27s4.17-7.19-5.89-9.35-13.86-14.18-13.23-25.32-.94-26-.94-26L494,1726.64Z"/>
      <path class="cls-23" d="M707.71,1377.92s-85.09,182-130.37,261.93S517.91,1742,517.91,1742s-25.94-10.22-28.29-17.19c0,0,17.31-154.21,47.63-191.8,17.14-21.24,37.26-85,38.21-107.28s20.82-75.49,20.82-75.49Z"/>
      <path class="cls-16" d="M732.58,1386.51s-33.83,22.62-81.72,20.52c-21-.92-62.71-6.88-69.44-23.59-1.58-3.93-.42-8.91,2-16.55,6.15-19.87,20.49-57.7,16.16-141.59a136.65,136.65,0,0,1,.56-22c4.51-41.32,28.19-65.79,51.08-73.78C707,1110,725.59,1137,725.59,1137s24.67,19.54,28.39,60.34C761.41,1279,732.58,1386.51,732.58,1386.51Z"/>
      <path class="cls-15" d="M667.52,1124.82s25.61,15.58,53.39,11.17c0,0,5.49-1.39,2.79-7.84a81,81,0,0,0,2.47-8.6,128.79,128.79,0,0,0,3.18-14L713.59,1089l-14.94-15.84C694.53,1111,667.52,1124.82,667.52,1124.82Z"/>
      <path class="cls-21" d="M696.26,1087.47s8.58,22.93,29.91,32.08c2.44-8.9,4-18.21,4-18.21L713.59,1089Z"/>
      <path class="cls-15" d="M747,1104.72s-48.89,6.11-52.32-23.93-12.05-49.49,19-54.66,38.45,5.63,42.08,15.38S759.66,1102.35,747,1104.72Z"/>
      <path class="cls-24" d="M679.29,1021.25c-.43-.53-1.43-1-3.69-1.18a9.22,9.22,0,0,1,4.28-1c.59-3.13,2.47-8.64,7.94-9.79a6.77,6.77,0,0,0-3.47,4.77c6.52-6.2,20.14-10.39,57.26-6,48.93,5.73,31.57,36.54,25.07,40s-22.09-7.37-34-6.87-14.77,17.51-18.87,19.7-2.37-1.89-7.71-4.56-6.2,6.33-4.85,12.24-6.41,13.35-6.41,13.35l-7.23-8.41c-7.24-8.41-13-43.09-9.34-50.29C678.63,1022.54,679,1021.89,679.29,1021.25Z"/>
      <g>
        <polygon class="cls-23" points="828.58 1069.19 745.59 1069.93 745.02 1057.45 827.76 1051.04 828.58 1069.19"/>
        <polygon class="cls-23" points="891.23 1071.28 800.87 1072.59 799.84 1049.89 889.94 1042.9 891.23 1071.28"/>
        <polygon class="cls-8" points="952.16 1073.06 875.96 1073.16 874.57 1042.51 950.46 1035.61 952.16 1073.06"/>
        <path class="cls-8" d="M953.25,1078.23h0a4.25,4.25,0,0,0,4.06-4.44l-1.79-39.37a4.26,4.26,0,0,0-4.45-4.06h0a4.25,4.25,0,0,0-4.06,4.45l1.79,39.36A4.25,4.25,0,0,0,953.25,1078.23Z"/>
        <path class="cls-23" d="M745.33,1072.6h0a3.78,3.78,0,0,1-4-3.61l-.47-10.22a3.79,3.79,0,0,1,3.62-4h0a3.78,3.78,0,0,1,4,3.61l.46,10.21A3.79,3.79,0,0,1,745.33,1072.6Z"/>
      </g>
      <path class="cls-17" d="M583.37,1366.89c6.15-19.87,20.49-57.7,16.16-141.59a136.65,136.65,0,0,1,.56-22h0c18.37-1.58,46.44,18.28,46.44,18.28S629.25,1327,583.37,1366.89Z"/>
      <path class="cls-16" d="M667.52,1124.82s-47.1,8.1-71.66,38.09-64.08,72.27-73.43,87.08-35.28,115.58-35.28,115.58,1.72,3.24,8.87,5.13a16.9,16.9,0,0,0,11.81-1s34.37-58.81,47.3-88.19c5.37-12.21,98.3-60.55,133.24-55.54C702.09,1227.94,667.52,1124.82,667.52,1124.82Z"/>
      <path class="cls-15" d="M828.09,1047.46s10.13,6.2,16.19,3.58,5.52-5,5.52-5S831.5,1040.94,828.09,1047.46Z"/>
      <path class="cls-25" d="M713.23,1157.68s-20.67,130.5-167.33,168.49l-16,31.52,28.07,4.75s167-48.37,164.71-207.07Z"/>
      <polygon class="cls-26" points="710.02 1136.85 703.25 1137.51 703.25 1147.31 713.23 1157.68 722.71 1155.37 722.71 1141.77 715.89 1136.85 710.02 1136.85"/>
      <path class="cls-17" d="M683.46,1110.89s-6.55,1.48-21.53,13.93c0,0,14.89,31.63,46.33,35.41,0,0-.51-14.67,1.76-23.38C710,1136.85,685.11,1127.93,683.46,1110.89Z"/>
      <path class="cls-17" d="M710,1136.85s15.34,8.14,16.48,20.83c0,0,5.86-9.29,4.16-15.73s-7-13.8-7-13.8S724.23,1135.9,710,1136.85Z"/>
    </g>
    <g>
      <path class="cls-8" d="M1062.1,835.81c-15.22,27.74-34.43,40-34.43,40l-82.88.38S1073.71,814.64,1062.1,835.81Z"/>
      <g>
        <path class="cls-15" d="M1002.94,1049.3a7.62,7.62,0,0,0-1.19,8.19,0,0,0,0,0,0,0c2.07,5.39,8.69,11.34,16.36,17.25,1,.76,1.85,1.45,2.61,2.09l.59.51.45.39c7.17,6.35,4.55,7.89,17.45,20.8,14.72,14.72,24.65,14.8,27.45,13.37,2.37-1.21-2.64-9.07-8.2-17.91l-.81-1.29c-.74-1.17-1.47-2.36-2.21-3.54-6.52-10.64-5-15.73-3.82-31.78,1-13,18.82-73.12,18.82-73.12l-27.73-4.21s-7.38,47.7-16.41,55.21c-4.82,4-10.31,4.15-15,7.14-.33.21-.65.42-1,.64A36.33,36.33,0,0,0,1002.94,1049.3Z"/>
        <path class="cls-8" d="M1002.94,1049.3a7.62,7.62,0,0,0-1.19,8.19,0,0,0,0,0,0,0c2.51,5.38,9,11.29,16.38,17.19,1,.77,1.83,1.49,2.59,2.15l.59.51.45.39c7.17,6.35,4.55,7.89,17.45,20.8,14.72,14.72,24.65,14.8,27.45,13.37,2.37-1.21-2.64-9.07-8.2-17.91a61.42,61.42,0,0,1-26.08-18.43c-8.9-10.91-15-25-21.05-33.16-.33.21-.65.42-1,.64A36.33,36.33,0,0,0,1002.94,1049.3Z"/>
        <path class="cls-15" d="M1225.43,1027.65c1.87,8.49,14,6.83,27.52,3.24s10.37.42,29.66-2.1,25-9.84,25.54-12.73c.47-2.56-9.1-3.27-19.37-4.25l-3.88-.39c-11.6-1.22-20.22-8.52-30.85-14.44-10.07-5.61-25.39-29-25.39-29l-26.47,2.62s14.33,20.86,19.89,29.94c3.28,5.35,3.25,12.49,3,18A34.1,34.1,0,0,0,1225.43,1027.65Z"/>
        <path class="cls-8" d="M1253,1030.89c13.52-3.59,10.37.42,29.66-2.1s25-9.84,25.54-12.73c.47-2.56-9.1-3.27-19.37-4.25l-.09.2a54.47,54.47,0,0,1-27.51,9.15c-13.11.58-27.08-2.9-36.14-2.58a34.1,34.1,0,0,0,.39,9.07C1227.3,1036.14,1239.43,1034.48,1253,1030.89Z"/>
        <path class="cls-8" d="M1120.47,860.12,1097,927.3,1066.36,1015a52.17,52.17,0,0,1-17.22-1.23c-7.78-2.08-16.78-7.76-16.78-7.76s7.14-93.68,22.84-147.69c4-13.86,8.61-25.1,13.8-31.48C1094.38,795.64,1120.47,860.12,1120.47,860.12Z"/>
        <path class="cls-14" d="M1093.18,754.69c-16.34-4.91-62.52,2.73-108.86,12.75l-10.06-15.87L873.62,745.7S841.91,819.89,861,866.39c2.8,6.83,7.74,10.5,16.79,10.47,0,0,5.56-.3,5.56-.29s56.16-.31,75.58-.7c50-1,105.08-36.44,112.27-38,11.76-2.6,17,20.93,29.26,45.51S1213.65,991,1213.65,991s15.26-.15,21.51-2.63c6.72-2.68,9.14-6,9.14-6S1130,765.78,1093.18,754.69Z"/>
        <path class="cls-8" d="M957.76,456.7a35.65,35.65,0,0,0-19.42-4.61,59.38,59.38,0,0,1-9.61-.44c-38.18-4.37-60,51.42-61,68.21-1.87,30.95-18.12,36-40.75,55.79-45.38,39.72-31,84.54-5.4,100.8,15.34,9.76,41.82-.83,41.82-.83.39.26,72.17-42,107.57-62.43C1024.43,604.51,979.56,469.1,957.76,456.7Z"/>
        <path class="cls-15" d="M940.61,597c.16.09-17.48,6.51-29.46,1.48-11.28-4.71-20.1-22.93-19.94-22.94,5.08-.34,10.57-4.89,14.29-34.14l2.19.74,36.65,12.37s-2.41,11.73-3.9,22.88C939.19,586.78,938.6,595.73,940.61,597Z"/>
        <path class="cls-19" d="M944.34,554.53s-2.41,11.73-3.9,22.88c-21-3.35-29.59-24-32.75-35.25Z"/>
        <path class="cls-15" d="M950,566s-49.93-5.7-45.9-36.74.3-52.67,32.34-50.35,36.69,15,37.87,25.66S963.08,566.7,950,566Z"/>
        <path class="cls-8" d="M972.15,487.67s-31.33,28.09-53,30.74-30-4.16-30-4.16a84.56,84.56,0,0,0,19.93-28.14,15.22,15.22,0,0,1,12.39-9.23C937,475.24,966.3,474.05,972.15,487.67Z"/>
        <path class="cls-8" d="M952.17,485.6s10.87,10.1,14.38,17.68c3.39,7.32,4.71,25,2.26,32,0,0,16-32.64,6.26-48.15C964.77,470.7,952.17,485.6,952.17,485.6Z"/>
        <path class="cls-9" d="M984,669.54c.48,100.82,1.16,79.74-9.68,89.52-2.61,2.35-10,3.87-19.87,4.72-30.86,2.66-85.29-1.36-87.47-7-7.52-19.62-2.61-25.86-9.16-56-.68-3.21-1.51-6.68-2.49-10.45-5.37-20.69-10.34-27.66,6.6-61.39,15.36-30.56,31.45-55.43,33-54.58,42.58,24.16,45.56,3.09,45.56,3.09S983.76,620.36,984,669.54Z"/>
        <path class="cls-14" d="M1097,927.3,1066.36,1015a52.17,52.17,0,0,1-17.22-1.23c-7.78-2.08-16.78-7.76-16.78-7.76s7.14-93.68,22.84-147.69Z"/>
        <path class="cls-9" d="M940.44,577.41s43.46,6.49,48.92,25S1026.91,730,1026.91,730s-21.94,4.39-32.32-5.58-37.25-93.68-37.25-93.68Z"/>
        <path class="cls-27" d="M954.44,763.78c-30.86,2.66-85.29-1.36-87.47-7-7.52-19.62-2.61-25.86-9.16-56l14.08-42.27s-1.54,46.79,12.49,58.81,56.91,22.62,63.81,32.76C951.52,754.92,953.75,759.82,954.44,763.78Z"/>
        <path class="cls-15" d="M918.64,744.82S949,737.42,954,740s17.2,12.23,18.77,15.63-11-2.39-15.08-3.39c-2.64-.66-9.5,1.88-12.9,3.09-14.29,5.08-23.16,2.79-23.16,2.79Z"/>
        <path class="cls-9" d="M894.85,574.31s-40.89,3.33-54.68,23.38c-19.4,28.22-56.63,147.59-33.64,163C832.43,778,922.88,763,922.88,763s2.74-14.17-1.59-20.91-72.81-16.42-76-19.51,38.16-62.2,38-71.65S894.85,574.31,894.85,574.31Z"/>
        <path class="cls-15" d="M955.62,748.49s6.55,8.12,8.66,9.06a6.31,6.31,0,0,0,3.47.67l-4.46-7.67Z"/>
        <path class="cls-15" d="M954,740l18.76,8.66a3.32,3.32,0,0,1-3.06,1.25c-2.29-.06-8.1-2.06-8.1-2.06Z"/>
      </g>
      <g>
        <g>
          <polygon class="cls-16" points="964.53 770.17 1111.46 767.27 1153.49 656.49 1006.79 659.38 964.53 770.17"/>
          <polygon class="cls-17" points="1113.1 762.96 919.08 766.79 919.16 771.07 1111.46 767.27 1113.1 762.96"/>
        </g>
        <path class="cls-12" d="M1073.29,713.05c1-3.89-1.27-7-5.13-6.9a10,10,0,0,0-8.86,7.17c-1,3.89,1.26,7,5.13,6.9A10,10,0,0,0,1073.29,713.05Z"/>
      </g>
    </g>
    <path class="cls-8" d="M795.11,1740.82h1703.8a21.55,21.55,0,0,1,21.55,21.55v4.7a21.54,21.54,0,0,1-21.57,21.55l-1704.32-1.91a21.54,21.54,0,0,1-21.17-25.47l.52-2.8A21.55,21.55,0,0,1,795.11,1740.82Z"/>
  </g>
</svg>
