<svg xmlns="http://www.w3.org/2000/svg" width="624.5" height="221.466" viewBox="0 0 624.5 221.466">
  <g id="Grupo_26665" data-name="Grupo 26665" transform="translate(-81 -526.534)">
    <path id="Trazado_20832" data-name="Trazado 20832" d="M528,700,413,607,346,715,238,657l-94,87,506,1V539Z" fill="#73bfff" opacity="0.4"/>
    <rect id="Rectángulo_3840" data-name="Rectángulo 3840" width="572" height="4" transform="translate(114 744)" fill="#103859"/>
    <rect id="Rectángulo_3841" data-name="Rectángulo 3841" width="142" height="19" transform="translate(329 563)" fill="#30577c"/>
    <rect id="Rectángulo_3842" data-name="Rectángulo 3842" width="142" height="162" transform="translate(329 582)" fill="#fff"/>
    <g id="Grupo_26516" data-name="Grupo 26516">
      <g id="Grupo_26513" data-name="Grupo 26513">
        <circle id="Elipse_894" data-name="Elipse 894" cx="4" cy="4" r="4" transform="translate(364 569)" fill="#ddffed"/>
      </g>
      <g id="Grupo_26514" data-name="Grupo 26514">
        <circle id="Elipse_895" data-name="Elipse 895" cx="4" cy="4" r="4" transform="translate(352 569)" fill="#ddffed"/>
      </g>
      <g id="Grupo_26515" data-name="Grupo 26515">
        <circle id="Elipse_896" data-name="Elipse 896" cx="4" cy="4" r="4" transform="translate(340 569)" fill="#ddffed"/>
      </g>
    </g>
    <rect id="Rectángulo_3843" data-name="Rectángulo 3843" width="80" height="5" transform="translate(381 570)" fill="#ddffed"/>
    <rect id="Rectángulo_3844" data-name="Rectángulo 3844" width="13" height="5" transform="translate(448 570)" fill="#39d3ff"/>
    <g id="Grupo_26517" data-name="Grupo 26517">
      <rect id="Rectángulo_3845" data-name="Rectángulo 3845" width="116" height="3" transform="translate(342 593)" fill="#c5cfd7"/>
      <rect id="Rectángulo_3846" data-name="Rectángulo 3846" width="116" height="3" transform="translate(342 598)" fill="#c5cfd7"/>
      <rect id="Rectángulo_3847" data-name="Rectángulo 3847" width="116" height="3" transform="translate(342 603)" fill="#c5cfd7"/>
    </g>
    <g id="Grupo_26518" data-name="Grupo 26518">
      <rect id="Rectángulo_3848" data-name="Rectángulo 3848" width="116" height="3" transform="translate(342 656)" fill="#c5cfd7"/>
      <rect id="Rectángulo_3849" data-name="Rectángulo 3849" width="116" height="3" transform="translate(342 661)" fill="#c5cfd7"/>
      <rect id="Rectángulo_3850" data-name="Rectángulo 3850" width="116" height="3" transform="translate(342 666)" fill="#c5cfd7"/>
    </g>
    <g id="Grupo_26519" data-name="Grupo 26519">
      <rect id="Rectángulo_3851" data-name="Rectángulo 3851" width="116" height="3" transform="translate(342 682)" fill="#c5cfd7"/>
      <rect id="Rectángulo_3852" data-name="Rectángulo 3852" width="116" height="3" transform="translate(342 687)" fill="#c5cfd7"/>
      <rect id="Rectángulo_3853" data-name="Rectángulo 3853" width="116" height="3" transform="translate(342 692)" fill="#c5cfd7"/>
    </g>
    <g id="Grupo_26520" data-name="Grupo 26520">
      <rect id="Rectángulo_3854" data-name="Rectángulo 3854" width="116" height="3" transform="translate(342 716)" fill="#c5cfd7"/>
      <rect id="Rectángulo_3855" data-name="Rectángulo 3855" width="116" height="3" transform="translate(342 721)" fill="#c5cfd7"/>
      <rect id="Rectángulo_3856" data-name="Rectángulo 3856" width="116" height="3" transform="translate(342 726)" fill="#c5cfd7"/>
    </g>
    <g id="Grupo_26521" data-name="Grupo 26521">
      <path id="Trazado_20833" data-name="Trazado 20833" d="M368.625,625.368l4.639-3.8A17.95,17.95,0,0,0,360,615.351v6A11.955,11.955,0,0,1,368.625,625.368Z" fill="#30577c"/>
      <path id="Trazado_20834" data-name="Trazado 20834" d="M359.667,645.334a12,12,0,0,1,0-24c.112,0,.222.013.333.016v-6c-.112,0-.221-.017-.333-.017a18,18,0,0,0,0,36c.112,0,.221-.015.333-.018v-6C359.889,645.32,359.779,645.334,359.667,645.334Z" fill="#ff8154"/>
      <path id="Trazado_20835" data-name="Trazado 20835" d="M373.264,621.572l-4.639,3.8A11.977,11.977,0,0,1,360,645.317v6a17.965,17.965,0,0,0,13.264-29.744Z" fill="#39d3ff"/>
    </g>
    <g id="Grupo_26522" data-name="Grupo 26522">
      <rect id="Rectángulo_3857" data-name="Rectángulo 3857" width="4" height="17" transform="translate(453 629)" fill="#39d3ff"/>
    </g>
    <g id="Grupo_26523" data-name="Grupo 26523">
      <rect id="Rectángulo_3858" data-name="Rectángulo 3858" width="4" height="20" transform="translate(447 626)" fill="#30577c"/>
    </g>
    <g id="Grupo_26524" data-name="Grupo 26524">
      <rect id="Rectángulo_3859" data-name="Rectángulo 3859" width="4" height="29" transform="translate(441 617)" fill="#ff8154"/>
    </g>
    <g id="Grupo_26525" data-name="Grupo 26525">
      <rect id="Rectángulo_3860" data-name="Rectángulo 3860" width="4" height="28" transform="translate(435 618)" fill="#39d3ff"/>
    </g>
    <g id="Grupo_26526" data-name="Grupo 26526">
      <rect id="Rectángulo_3861" data-name="Rectángulo 3861" width="4" height="32" transform="translate(429 614)" fill="#30577c"/>
    </g>
    <g id="Grupo_26527" data-name="Grupo 26527">
      <rect id="Rectángulo_3862" data-name="Rectángulo 3862" width="4" height="7" transform="translate(423 639)" fill="#ff8154"/>
    </g>
    <g id="Grupo_26528" data-name="Grupo 26528">
      <rect id="Rectángulo_3863" data-name="Rectángulo 3863" width="4" height="17" transform="translate(417 629)" fill="#39d3ff"/>
    </g>
    <g id="Grupo_26529" data-name="Grupo 26529">
      <rect id="Rectángulo_3864" data-name="Rectángulo 3864" width="4" height="24" transform="translate(411 622)" fill="#30577c"/>
    </g>
    <g id="Grupo_26530" data-name="Grupo 26530">
      <rect id="Rectángulo_3865" data-name="Rectángulo 3865" width="4" height="11" transform="translate(405 635)" fill="#ff8154"/>
    </g>
    <g id="Grupo_26531" data-name="Grupo 26531">
      <rect id="Rectángulo_3866" data-name="Rectángulo 3866" width="4" height="27" transform="translate(399 619)" fill="#39d3ff"/>
    </g>
    <g id="Grupo_26532" data-name="Grupo 26532">
      <rect id="Rectángulo_3867" data-name="Rectángulo 3867" width="4" height="15" transform="translate(393 631)" fill="#30577c"/>
    </g>
    <g id="Grupo_26533" data-name="Grupo 26533">
      <rect id="Rectángulo_3868" data-name="Rectángulo 3868" width="4" height="30" transform="translate(387 616)" fill="#ff8154"/>
    </g>
    <g id="Grupo_26534" data-name="Grupo 26534">
      <rect id="Rectángulo_3869" data-name="Rectángulo 3869" width="107" height="79" rx="4" transform="translate(207 659)" fill="#fff"/>
      <rect id="Rectángulo_3870" data-name="Rectángulo 3870" width="99" height="71" transform="translate(211 663)" fill="#39d3ff"/>
      <path id="Trazado_20836" data-name="Trazado 20836" d="M319,744H201l-2-6H321Z" fill="#30577c"/>
      <path id="Trazado_20837" data-name="Trazado 20837" d="M310,693.66V734H211V716.65a13.978,13.978,0,0,0,6.28-2.3c7.7-5.28,14.29-13.42,24.1-7.03,6.49,4.23,14.67,7.87,21.99,2.94,7.57-5.1,12.39-20.46,23.72-11.93,3.19,2.4,6.2,4.14,10.23,2.42,3.85-1.64,6.57-5.43,10.86-6.67A16.694,16.694,0,0,1,310,693.66Z" fill="#88e5ff"/>
      <rect id="Rectángulo_3871" data-name="Rectángulo 3871" width="37" height="3" transform="translate(218 670)" fill="#2b9ebf"/>
      <rect id="Rectángulo_3872" data-name="Rectángulo 3872" width="27" height="3" transform="translate(218 675)" fill="#2b9ebf"/>
      <rect id="Rectángulo_3873" data-name="Rectángulo 3873" width="16" height="3" transform="translate(218 680)" fill="#2b9ebf"/>
      <rect id="Rectángulo_3874" data-name="Rectángulo 3874" width="13" height="3" transform="translate(255 738)" fill="#839ab0"/>
    </g>
    <rect id="Rectángulo_3875" data-name="Rectángulo 3875" width="106" height="80" transform="translate(485 664)" fill="#fff"/>
    <rect id="Rectángulo_3876" data-name="Rectángulo 3876" width="106" height="13" transform="translate(485 651)" fill="#30577c"/>
    <g id="Grupo_26535" data-name="Grupo 26535">
      <rect id="Rectángulo_3877" data-name="Rectángulo 3877" width="88" height="2" transform="translate(494 671)" fill="#c5cfd7"/>
      <rect id="Rectángulo_3878" data-name="Rectángulo 3878" width="88" height="2" transform="translate(494 675)" fill="#c5cfd7"/>
      <rect id="Rectángulo_3879" data-name="Rectángulo 3879" width="88" height="2" transform="translate(494 679)" fill="#c5cfd7"/>
    </g>
    <rect id="Rectángulo_3880" data-name="Rectángulo 3880" width="88" height="2" transform="translate(494 708)" fill="#c5cfd7"/>
    <rect id="Rectángulo_3881" data-name="Rectángulo 3881" width="88" height="2" transform="translate(494 712)" fill="#c5cfd7"/>
    <rect id="Rectángulo_3882" data-name="Rectángulo 3882" width="52" height="2" transform="translate(530 716)" fill="#c5cfd7"/>
    <rect id="Rectángulo_3883" data-name="Rectángulo 3883" width="52" height="2" transform="translate(530 720)" fill="#c5cfd7"/>
    <rect id="Rectángulo_3884" data-name="Rectángulo 3884" width="52" height="2" transform="translate(530 724)" fill="#c5cfd7"/>
    <rect id="Rectángulo_3885" data-name="Rectángulo 3885" width="52" height="2" transform="translate(530 728)" fill="#c5cfd7"/>
    <rect id="Rectángulo_3886" data-name="Rectángulo 3886" width="52" height="2" transform="translate(530 732)" fill="#c5cfd7"/>
    <rect id="Rectángulo_3887" data-name="Rectángulo 3887" width="52" height="2" transform="translate(530 736)" fill="#c5cfd7"/>
    <g id="Grupo_26566" data-name="Grupo 26566">
      <g id="Grupo_26536" data-name="Grupo 26536">
        <rect id="Rectángulo_3888" data-name="Rectángulo 3888" width="2" height="12" transform="translate(581 693)" fill="#45a6c2"/>
      </g>
      <g id="Grupo_26537" data-name="Grupo 26537">
        <rect id="Rectángulo_3889" data-name="Rectángulo 3889" width="2" height="9" transform="translate(578 696)" fill="#ff8951"/>
      </g>
      <g id="Grupo_26538" data-name="Grupo 26538">
        <rect id="Rectángulo_3890" data-name="Rectángulo 3890" width="2" height="13" transform="translate(575 692)" fill="#45a6c2"/>
      </g>
      <g id="Grupo_26539" data-name="Grupo 26539">
        <rect id="Rectángulo_3891" data-name="Rectángulo 3891" width="2" height="19" transform="translate(572 686)" fill="#ff8951"/>
      </g>
      <g id="Grupo_26540" data-name="Grupo 26540">
        <rect id="Rectángulo_3892" data-name="Rectángulo 3892" width="2" height="6" transform="translate(569 699)" fill="#45a6c2"/>
      </g>
      <g id="Grupo_26541" data-name="Grupo 26541">
        <rect id="Rectángulo_3893" data-name="Rectángulo 3893" width="2" height="10" transform="translate(566 695)" fill="#ff8951"/>
      </g>
      <g id="Grupo_26542" data-name="Grupo 26542">
        <rect id="Rectángulo_3894" data-name="Rectángulo 3894" width="2" height="18" transform="translate(563 687)" fill="#45a6c2"/>
      </g>
      <g id="Grupo_26543" data-name="Grupo 26543">
        <rect id="Rectángulo_3895" data-name="Rectángulo 3895" width="2" height="3" transform="translate(560 702)" fill="#ff8951"/>
      </g>
      <g id="Grupo_26544" data-name="Grupo 26544">
        <rect id="Rectángulo_3896" data-name="Rectángulo 3896" width="2" height="13" transform="translate(557 692)" fill="#45a6c2"/>
      </g>
      <g id="Grupo_26545" data-name="Grupo 26545">
        <rect id="Rectángulo_3897" data-name="Rectángulo 3897" width="2" height="16" transform="translate(554 689)" fill="#ff8951"/>
      </g>
      <g id="Grupo_26546" data-name="Grupo 26546">
        <rect id="Rectángulo_3898" data-name="Rectángulo 3898" width="2" height="14" transform="translate(551 691)" fill="#45a6c2"/>
      </g>
      <g id="Grupo_26547" data-name="Grupo 26547">
        <rect id="Rectángulo_3899" data-name="Rectángulo 3899" width="2" height="12" transform="translate(548 693)" fill="#ff8951"/>
      </g>
      <g id="Grupo_26548" data-name="Grupo 26548">
        <rect id="Rectángulo_3900" data-name="Rectángulo 3900" width="2" height="10" transform="translate(545 695)" fill="#45a6c2"/>
      </g>
      <g id="Grupo_26549" data-name="Grupo 26549">
        <rect id="Rectángulo_3901" data-name="Rectángulo 3901" width="2" height="7" transform="translate(542 698)" fill="#ff8951"/>
      </g>
      <g id="Grupo_26550" data-name="Grupo 26550">
        <rect id="Rectángulo_3902" data-name="Rectángulo 3902" width="2" height="3" transform="translate(539 702)" fill="#45a6c2"/>
      </g>
      <g id="Grupo_26551" data-name="Grupo 26551">
        <rect id="Rectángulo_3903" data-name="Rectángulo 3903" width="2" height="18" transform="translate(536 687)" fill="#ff8951"/>
      </g>
      <g id="Grupo_26552" data-name="Grupo 26552">
        <rect id="Rectángulo_3904" data-name="Rectángulo 3904" width="2" height="7" transform="translate(533 698)" fill="#45a6c2"/>
      </g>
      <g id="Grupo_26553" data-name="Grupo 26553">
        <rect id="Rectángulo_3905" data-name="Rectángulo 3905" width="2" height="12" transform="translate(530 693)" fill="#ff8951"/>
      </g>
      <g id="Grupo_26554" data-name="Grupo 26554">
        <rect id="Rectángulo_3906" data-name="Rectángulo 3906" width="2" height="9" transform="translate(527 696)" fill="#45a6c2"/>
      </g>
      <g id="Grupo_26555" data-name="Grupo 26555">
        <rect id="Rectángulo_3907" data-name="Rectángulo 3907" width="2" height="5" transform="translate(524 700)" fill="#ff8951"/>
      </g>
      <g id="Grupo_26556" data-name="Grupo 26556">
        <rect id="Rectángulo_3908" data-name="Rectángulo 3908" width="2" height="12" transform="translate(521 693)" fill="#45a6c2"/>
      </g>
      <g id="Grupo_26557" data-name="Grupo 26557">
        <rect id="Rectángulo_3909" data-name="Rectángulo 3909" width="2" height="9" transform="translate(518 696)" fill="#ff8951"/>
      </g>
      <g id="Grupo_26558" data-name="Grupo 26558">
        <rect id="Rectángulo_3910" data-name="Rectángulo 3910" width="2" height="16" transform="translate(515 689)" fill="#45a6c2"/>
      </g>
      <g id="Grupo_26559" data-name="Grupo 26559">
        <rect id="Rectángulo_3911" data-name="Rectángulo 3911" width="2" height="13" transform="translate(512 692)" fill="#ff8951"/>
      </g>
      <g id="Grupo_26560" data-name="Grupo 26560">
        <rect id="Rectángulo_3912" data-name="Rectángulo 3912" width="2" height="5" transform="translate(509 700)" fill="#45a6c2"/>
      </g>
      <g id="Grupo_26561" data-name="Grupo 26561">
        <rect id="Rectángulo_3913" data-name="Rectángulo 3913" width="2" height="8" transform="translate(506 697)" fill="#ff8951"/>
      </g>
      <g id="Grupo_26562" data-name="Grupo 26562">
        <rect id="Rectángulo_3914" data-name="Rectángulo 3914" width="2" height="16" transform="translate(503 689)" fill="#45a6c2"/>
      </g>
      <g id="Grupo_26563" data-name="Grupo 26563">
        <rect id="Rectángulo_3915" data-name="Rectángulo 3915" width="2" height="12" transform="translate(500 693)" fill="#ff8951"/>
      </g>
      <g id="Grupo_26564" data-name="Grupo 26564">
        <rect id="Rectángulo_3916" data-name="Rectángulo 3916" width="2" height="9" transform="translate(497 696)" fill="#45a6c2"/>
      </g>
      <g id="Grupo_26565" data-name="Grupo 26565">
        <rect id="Rectángulo_3917" data-name="Rectángulo 3917" width="2" height="16" transform="translate(494 689)" fill="#ff8951"/>
      </g>
    </g>
    <path id="Trazado_20838" data-name="Trazado 20838" d="M496.872,738l7.794-13.5L512.46,738Z" fill="#ff8951"/>
    <path id="Trazado_20839" data-name="Trazado 20839" d="M506.872,738l7.794-18.5L522.46,738Z" fill="#45a6c2"/>
    <rect id="Rectángulo_3918" data-name="Rectángulo 3918" width="75" height="58" rx="2" transform="translate(604 686)" fill="#30577c"/>
    <rect id="Rectángulo_3919" data-name="Rectángulo 3919" width="67" height="50" transform="translate(608 690)" fill="#ff8154"/>
    <rect id="Rectángulo_3920" data-name="Rectángulo 3920" width="5" height="50" transform="translate(670 690)" fill="#ff8154" opacity="0.3" style="mix-blend-mode: multiply;isolation: isolate"/>
    <path id="Trazado_20840" data-name="Trazado 20840" d="M637,721.992V706.4l13.5,7.794Z" fill="#fff"/>
    <rect id="Rectángulo_3921" data-name="Rectángulo 3921" width="2" height="22" transform="translate(614 703)" fill="#fff"/>
    <rect id="Rectángulo_3922" data-name="Rectángulo 3922" width="68" height="53" rx="2" transform="translate(119 691)" fill="#ffbd09"/>
    <path id="Trazado_20841" data-name="Trazado 20841" d="M153,716l-34-23a2,2,0,0,1,2-2h64a2,2,0,0,1,2,2Z" fill="#ffe59d"/>
    <path id="Trazado_20842" data-name="Trazado 20842" d="M153,716l6,4.667L187,693Z" fill="#103859" opacity="0.2" style="mix-blend-mode: multiply;isolation: isolate"/>
    <circle id="Elipse_897" data-name="Elipse 897" cx="37" cy="37" r="37" transform="translate(134 577)" fill="#30577c"/>
    <circle id="Elipse_898" data-name="Elipse 898" cx="32" cy="32" r="32" transform="translate(139 582)" fill="#39d3ff"/>
    <circle id="Elipse_899" data-name="Elipse 899" cx="3.333" cy="3.333" r="3.333" transform="translate(151.666 599)" fill="#d7f6ff"/>
    <rect id="Rectángulo_3923" data-name="Rectángulo 3923" width="9" height="42" transform="translate(167 649)" fill="#30577c"/>
    <rect id="Rectángulo_3924" data-name="Rectángulo 3924" width="9" height="7" transform="translate(167 657)" fill="#ffbd09"/>
    <rect id="Rectángulo_3925" data-name="Rectángulo 3925" width="2" height="40" transform="translate(167 651)" fill="#103859" opacity="0.2" style="mix-blend-mode: multiply;isolation: isolate"/>
    <g id="Grupo_26570" data-name="Grupo 26570">
      <g id="Grupo_26567" data-name="Grupo 26567">
        <rect id="Rectángulo_3926" data-name="Rectángulo 3926" width="4" height="4" transform="translate(505 656)" fill="#39d3ff"/>
      </g>
      <g id="Grupo_26568" data-name="Grupo 26568">
        <rect id="Rectángulo_3927" data-name="Rectángulo 3927" width="4" height="4" transform="translate(499 656)" fill="#39d3ff"/>
      </g>
      <g id="Grupo_26569" data-name="Grupo 26569">
        <rect id="Rectángulo_3928" data-name="Rectángulo 3928" width="4" height="4" transform="translate(493 656)" fill="#39d3ff"/>
      </g>
    </g>
    <g id="Grupo_26577" data-name="Grupo 26577">
      <g id="Grupo_26571" data-name="Grupo 26571">
        <circle id="Elipse_900" data-name="Elipse 900" cx="30" cy="30" r="30" transform="translate(500 555)" fill="#fff8e0"/>
      </g>
      <g id="Grupo_26572" data-name="Grupo 26572">
        <circle id="Elipse_901" data-name="Elipse 901" cx="24" cy="24" r="24" transform="translate(506 561)" fill="#ff754b"/>
      </g>
      <g id="Grupo_26573" data-name="Grupo 26573">
        <circle id="Elipse_902" data-name="Elipse 902" cx="18" cy="18" r="18" transform="translate(512 567)" fill="#fff8e0"/>
      </g>
      <g id="Grupo_26574" data-name="Grupo 26574">
        <circle id="Elipse_903" data-name="Elipse 903" cx="12" cy="12" r="12" transform="translate(518 573)" fill="#ff754b"/>
      </g>
      <g id="Grupo_26575" data-name="Grupo 26575">
        <circle id="Elipse_904" data-name="Elipse 904" cx="6" cy="6" r="6" transform="translate(524 579)" fill="#fff8e0"/>
      </g>
      <g id="Grupo_26576" data-name="Grupo 26576">
        <path id="Trazado_20843" data-name="Trazado 20843" d="M575.1,546H569v-5.6l-5.488,5.5-1.756,7.139L532.67,582.123l-1.3-3.227-3.589,8.825,8.826-3.588-3.227-1.3L562.6,553.6l-.015-.014,7.013-1.852Z" fill="#30577c"/>
      </g>
    </g>
    <rect id="Rectángulo_3929" data-name="Rectángulo 3929" width="7" height="28" transform="translate(421 716)" fill="#ff8154"/>
    <rect id="Rectángulo_3930" data-name="Rectángulo 3930" width="7" height="36" transform="translate(431 708)" fill="#45a6c2"/>
    <rect id="Rectángulo_3931" data-name="Rectángulo 3931" width="7" height="41" transform="translate(441 703)" fill="#ff8154"/>
    <rect id="Rectángulo_3932" data-name="Rectángulo 3932" width="7" height="49" transform="translate(451 695)" fill="#45a6c2"/>
    <path id="Trazado_20844" data-name="Trazado 20844" d="M447.045,659.039l13.632,6.18-54.017,49.66-29.857-20.9-53.347,43.932,5.086,6.176L377.2,704.019l30.143,21.1,58.751-54.014,5.015,14.1,18.989-41.6Z" fill="#ffb227"/>
    <g id="Grupo_26578" data-name="Grupo 26578">
      <path id="Trazado_20845" data-name="Trazado 20845" d="M110.5,660.334a8.009,8.009,0,0,1,8-8c.111,0,.221.012.332.018v-8c-.111,0-.221-.018-.332-.018a16,16,0,1,0,0,32c.111,0,.221-.014.332-.016v-8c-.111,0-.221.016-.332.016A8.008,8.008,0,0,1,110.5,660.334Z" fill="#21ffd4"/>
      <path id="Trazado_20846" data-name="Trazado 20846" d="M118.834,644.352v8a8.007,8.007,0,0,1,7.352,5.777l7.632-2.418A15.994,15.994,0,0,0,118.834,644.352Z" fill="#30577c"/>
      <path id="Trazado_20847" data-name="Trazado 20847" d="M126.186,658.129a7.908,7.908,0,0,1,.316,2.2,8.005,8.005,0,0,1-7.668,7.984v8a15.984,15.984,0,0,0,14.984-20.607Z" fill="#e5f2ff"/>
    </g>
    <g id="Grupo_26583" data-name="Grupo 26583">
      <g id="Grupo_26579" data-name="Grupo 26579">
        <rect id="Rectángulo_3933" data-name="Rectángulo 3933" width="4" height="8" transform="translate(609 633)" fill="#21ffd4"/>
      </g>
      <g id="Grupo_26580" data-name="Grupo 26580">
        <rect id="Rectángulo_3934" data-name="Rectángulo 3934" width="4" height="21" transform="translate(602 620)" fill="#21ffd4"/>
      </g>
      <g id="Grupo_26581" data-name="Grupo 26581">
        <rect id="Rectángulo_3935" data-name="Rectángulo 3935" width="4" height="26" transform="translate(595 615)" fill="#21ffd4"/>
      </g>
      <g id="Grupo_26582" data-name="Grupo 26582">
        <rect id="Rectángulo_3936" data-name="Rectángulo 3936" width="4" height="14" transform="translate(588 627)" fill="#21ffd4"/>
      </g>
    </g>
    <g id="Grupo_26586" data-name="Grupo 26586">
      <path id="Trazado_20848" data-name="Trazado 20848" d="M242.335,597.375l8.88,4.432,9.855-14.573,1.3,1.043-9.8,16.8L239.3,603.66Z" fill="#1c3349"/>
      <g id="Grupo_26584" data-name="Grupo 26584">
        <path id="Trazado_20849" data-name="Trazado 20849" d="M295.666,583A18.666,18.666,0,1,1,277,564.334,18.666,18.666,0,0,1,295.666,583Z" fill="#103859"/>
        <path id="Trazado_20850" data-name="Trazado 20850" d="M277,596.666A13.666,13.666,0,1,1,290.666,583,13.682,13.682,0,0,1,277,596.666Z" fill="#fff"/>
        <path id="Trazado_20851" data-name="Trazado 20851" d="M277,587.666A4.666,4.666,0,1,1,281.666,583,4.672,4.672,0,0,1,277,587.666Z" fill="#ff8154"/>
        <path id="Trazado_20852" data-name="Trazado 20852" d="M280.5,566h-7l1-6h5Z" fill="#103859"/>
        <path id="Trazado_20853" data-name="Trazado 20853" d="M271.452,566.482l-6.062,3.5-2.134-5.7,4.33-2.5Z" fill="#103859"/>
        <path id="Trazado_20854" data-name="Trazado 20854" d="M263.857,571.423l-3.5,6.062-4.7-3.866,2.5-4.33Z" fill="#103859"/>
        <path id="Trazado_20855" data-name="Trazado 20855" d="M260,579.5v7l-6-1v-5Z" fill="#103859"/>
        <path id="Trazado_20856" data-name="Trazado 20856" d="M260.448,588.423l3.5,6.062-5.7,2.134-2.5-4.33Z" fill="#103859"/>
        <path id="Trazado_20857" data-name="Trazado 20857" d="M265.3,595.927l6.062,3.5-3.866,4.7-4.33-2.5Z" fill="#103859"/>
        <path id="Trazado_20858" data-name="Trazado 20858" d="M273.25,600h7l-1,6h-5Z" fill="#103859"/>
        <path id="Trazado_20859" data-name="Trazado 20859" d="M282.174,599.551l6.062-3.5,2.134,5.7-4.33,2.5Z" fill="#103859"/>
        <path id="Trazado_20860" data-name="Trazado 20860" d="M289.677,594.7l3.5-6.062,4.7,3.866-2.5,4.33Z" fill="#103859"/>
        <path id="Trazado_20861" data-name="Trazado 20861" d="M294,586.749v-7l6,1v5Z" fill="#103859"/>
        <path id="Trazado_20862" data-name="Trazado 20862" d="M293.518,577.7l-3.5-6.062,5.7-2.134,2.5,4.33Z" fill="#103859"/>
        <path id="Trazado_20863" data-name="Trazado 20863" d="M288.576,570.106l-6.062-3.5,3.866-4.7,4.33,2.5Z" fill="#103859"/>
      </g>
      <path id="Trazado_20864" data-name="Trazado 20864" d="M267.333,596.333l-1-1.333-1.239,1.1,1.079,1.41Z" fill="#fff"/>
      <path id="Trazado_20865" data-name="Trazado 20865" d="M265.094,596.1l-11.928,10.568-7.5-6.5-4.5,5.333,12.5,4.667,12.506-12.658Z" fill="#1c3349"/>
      <g id="Grupo_26585" data-name="Grupo 26585">
        <path id="Trazado_20866" data-name="Trazado 20866" d="M248.833,585.291,251.312,590l-1.187.334L250.25,595l-2.792.416-2.958.959-5-2.041,1.208-6.793S248.917,585.291,248.833,585.291Z" fill="#ffb385"/>
        <path id="Trazado_20867" data-name="Trazado 20867" d="M239.166,585.666l10.667-4.832.333,4.666-8.916,2.125-1.75,6.709-1.125.541S240.145,587.208,239.166,585.666Z" fill="#1c3349"/>
        <path id="Trazado_20868" data-name="Trazado 20868" d="M241.541,595.042l-1.166,3.5,3.291.333,1.875-4.125Z" fill="#ffb385"/>
      </g>
      <path id="Trazado_20869" data-name="Trazado 20869" d="M234.833,599.207S226.666,622.668,222,628h25s4.666-22.928,2-26.927C249,601.073,241.666,595.741,234.833,599.207Z" fill="#1c3349"/>
      <rect id="Rectángulo_3937" data-name="Rectángulo 3937" width="20" height="2" transform="translate(226 628)" fill="#1c3349"/>
      <path id="Trazado_20870" data-name="Trazado 20870" d="M227.5,630l-4.25,26.75,3,.25L236,629Z" fill="#1c3349"/>
      <path id="Trazado_20871" data-name="Trazado 20871" d="M237.25,629.25,245,657l4-.5-5-27Z" fill="#1c3349"/>
      <path id="Trazado_20872" data-name="Trazado 20872" d="M239.938,596.563l4.875,1.375.313,1.25-5.562-.812Z" fill="#fff"/>
      <path id="Trazado_20873" data-name="Trazado 20873" d="M249,656.5l4,2-8.667.167L245,657Z" fill="#1c3349"/>
      <path id="Trazado_20874" data-name="Trazado 20874" d="M226.25,657l2.813,2.188-6.812-.5,1-1.937Z" fill="#1c3349"/>
      <path id="Trazado_20875" data-name="Trazado 20875" d="M266.333,595l.5-2.083.333.583,2-2.5,1.583,2.333-1.667,2.417-1.75.583Z" fill="#ffb385"/>
    </g>
    <g id="Grupo_26588" data-name="Grupo 26588">
      <g id="Grupo_26587" data-name="Grupo 26587">
        <rect id="Rectángulo_3938" data-name="Rectángulo 3938" width="6" height="8" rx="2" transform="translate(675 604)" fill="#fff"/>
        <path id="Trazado_20876" data-name="Trazado 20876" d="M693.5,583c0,7.17-8.19,12.72-8.19,12.72a8.451,8.451,0,0,0-3.31,6.24V603h-8v-1.04a4.128,4.128,0,0,0-.04-.6,8.542,8.542,0,0,0-3.27-5.64s-8.19-5.55-8.19-12.72a15.5,15.5,0,0,1,31,0Z" fill="#ffbd09"/>
        <rect id="Rectángulo_3939" data-name="Rectángulo 3939" width="8" height="6" transform="translate(674 602)" fill="#30577c"/>
        <path id="Trazado_20877" data-name="Trazado 20877" d="M673.96,601.36a8.542,8.542,0,0,0-3.27-5.64s-8.19-5.55-8.19-12.72a15.49,15.49,0,0,1,19.93-14.85C686.04,580,679,593.65,673.96,601.36Z" fill="#fff" opacity="0.2"/>
      </g>
      <path id="Trazado_20878" data-name="Trazado 20878" d="M653.06,647.81,651.5,682.83l-2.17-.33L645,652h-4.83L634,683h-1.83l1.109-34.61.031-.769.02-.7Z" fill="#1c3349"/>
      <path id="Trazado_20879" data-name="Trazado 20879" d="M626.875,639l1.25-.375-.1-.771-1.438.394Z" fill="#f3f3f3"/>
      <path id="Trazado_20880" data-name="Trazado 20880" d="M633,622.125l.25-6.875-10.875,12,4.212,11,1.438-.394L626.75,628Z" fill="#1c3349"/>
      <path id="Trazado_20881" data-name="Trazado 20881" d="M676.938,617l-.562-1.375-.723.461.7,1.36Z" fill="#f3f3f3"/>
      <path id="Trazado_20882" data-name="Trazado 20882" d="M675.652,616.086l-13.59,8.664L656.25,614.5l-.5,10.375,6.188,3.625,14.418-11.054Z" fill="#1c3349"/>
      <path id="Trazado_20883" data-name="Trazado 20883" d="M649.45,615.87,643,633.38l-3.09-17.149,4.52.659Z" fill="#f3f3f3"/>
      <path id="Trazado_20884" data-name="Trazado 20884" d="M644.188,616.938,641.75,627l1.25,6.38,2.313-5.88Z" fill="#ff6342"/>
      <path id="Trazado_20885" data-name="Trazado 20885" d="M649.45,615.87,643,633.38l-3.09-17.149-6.66-.981L631,647.5l23.75.5,1.5-33.5Z" fill="#1c3349"/>
      <path id="Trazado_20886" data-name="Trazado 20886" d="M652.91,647.81l-.051,1.131-19.58-.551.031-.769Z" fill="#18191c"/>
      <circle id="Elipse_905" data-name="Elipse 905" cx="0.625" cy="0.625" r="0.625" transform="translate(638.063 634.188)" fill="#23262a"/>
      <circle id="Elipse_906" data-name="Elipse 906" cx="0.625" cy="0.625" r="0.625" transform="translate(646.063 634.188)" fill="#23262a"/>
      <circle id="Elipse_907" data-name="Elipse 907" cx="0.625" cy="0.625" r="0.625" transform="translate(638.063 638.188)" fill="#23262a"/>
      <circle id="Elipse_908" data-name="Elipse 908" cx="0.625" cy="0.625" r="0.625" transform="translate(646.063 638.188)" fill="#23262a"/>
      <circle id="Elipse_909" data-name="Elipse 909" cx="0.625" cy="0.625" r="0.625" transform="translate(638.063 642.188)" fill="#23262a"/>
      <circle id="Elipse_910" data-name="Elipse 910" cx="0.625" cy="0.625" r="0.625" transform="translate(646.063 642.188)" fill="#23262a"/>
      <path id="Trazado_20887" data-name="Trazado 20887" d="M644.534,616.947l.466-.115V612h-2v4.741Z" fill="#ffceb4"/>
      <path id="Trazado_20888" data-name="Trazado 20888" d="M639.24,603.894l8.488-3.057,2.438,5.912-.832,6.417-7.038.914-3.4-4.414Z" fill="#ffceb4"/>
      <path id="Trazado_20889" data-name="Trazado 20889" d="M637.658,601.251s9.779-3.881,9.935-5.434c0,0,.583,3.988.135,5.021l-6.5,2.586.156,3.26-.88.155Z" fill="#2f3338"/>
      <path id="Trazado_20890" data-name="Trazado 20890" d="M637.658,601.251l.932,8.8a37.775,37.775,0,0,0,1.6-3.829Z" fill="#2f3338"/>
      <path id="Trazado_20891" data-name="Trazado 20891" d="M626.875,639l-1.375,2.666s-.334.75,1-.25l-.416,3,2.5-3.166-.459-2.625Z" fill="#ffceb4"/>
      <path id="Trazado_20892" data-name="Trazado 20892" d="M651.5,682.83l3,4.254-5.416-1.917.246-2.667Z" fill="#18191c"/>
      <path id="Trazado_20893" data-name="Trazado 20893" d="M632.17,683l-3.42,3.584,6-1.417L634,683Z" fill="#18191c"/>
      <path id="Trazado_20894" data-name="Trazado 20894" d="M676.375,615.625,678,614h3l1.375-4.083,1.042.542-1.667,4.792-2.75.875-2.062.875Z" fill="#ffceb4"/>
    </g>
    <path id="Trazado_20895" data-name="Trazado 20895" d="M315.668,618.332a.5.5,0,0,0-.437-.2l-8.415.594a.5.5,0,0,0,.071,1l6.7-.473-15.884,11.767-10.667-10L268.7,634.6l.6.8,17.664-13.085,10.667,10,16.555-12.262-2.406,6.274a.5.5,0,0,0,.765.58.5.5,0,0,0,.169-.222l3.02-7.876A.5.5,0,0,0,315.668,618.332Z" fill="#c5cfd7"/>
    <g id="Grupo_26589" data-name="Grupo 26589">
      <rect id="Rectángulo_3940" data-name="Rectángulo 3940" width="32" height="1" transform="translate(515 629)" fill="#c5cfd7"/>
      <rect id="Rectángulo_3941" data-name="Rectángulo 3941" width="26" height="1" transform="translate(515 632)" fill="#c5cfd7"/>
      <rect id="Rectángulo_3942" data-name="Rectángulo 3942" width="16" height="1" transform="translate(515 635)" fill="#c5cfd7"/>
    </g>
    <g id="Grupo_26590" data-name="Grupo 26590">
      <rect id="Rectángulo_3943" data-name="Rectángulo 3943" width="32" height="1" transform="translate(156 556)" fill="#c5cfd7"/>
      <rect id="Rectángulo_3944" data-name="Rectángulo 3944" width="26" height="1" transform="translate(156 559)" fill="#c5cfd7"/>
      <rect id="Rectángulo_3945" data-name="Rectángulo 3945" width="16" height="1" transform="translate(156 562)" fill="#c5cfd7"/>
    </g>
    <g id="Grupo_26591" data-name="Grupo 26591">
      <rect id="Rectángulo_3946" data-name="Rectángulo 3946" width="32" height="1" transform="translate(662 546)" fill="#c5cfd7"/>
      <rect id="Rectángulo_3947" data-name="Rectángulo 3947" width="26" height="1" transform="translate(662 549)" fill="#c5cfd7"/>
      <rect id="Rectángulo_3948" data-name="Rectángulo 3948" width="16" height="1" transform="translate(662 552)" fill="#c5cfd7"/>
    </g>
    <g id="Grupo_26592" data-name="Grupo 26592">
      <rect id="Rectángulo_3949" data-name="Rectángulo 3949" width="32" height="1" transform="translate(395 540)" fill="#c5cfd7"/>
      <rect id="Rectángulo_3950" data-name="Rectángulo 3950" width="26" height="1" transform="translate(395 543)" fill="#c5cfd7"/>
      <rect id="Rectángulo_3951" data-name="Rectángulo 3951" width="16" height="1" transform="translate(395 546)" fill="#c5cfd7"/>
    </g>
    <g id="Grupo_26605" data-name="Grupo 26605">
      <g id="Grupo_26594" data-name="Grupo 26594">
        <g id="Grupo_26593" data-name="Grupo 26593">
          <circle id="Elipse_911" data-name="Elipse 911" cx="4.25" cy="4.25" r="4.25" transform="translate(218.25 544.25)" fill="#c5cfd7"/>
        </g>
      </g>
      <g id="Grupo_26596" data-name="Grupo 26596">
        <g id="Grupo_26595" data-name="Grupo 26595">
          <circle id="Elipse_912" data-name="Elipse 912" cx="3.625" cy="3.625" r="3.625" transform="translate(232.875 534.875)" fill="#c5cfd7"/>
        </g>
      </g>
      <g id="Grupo_26598" data-name="Grupo 26598">
        <g id="Grupo_26597" data-name="Grupo 26597">
          <circle id="Elipse_913" data-name="Elipse 913" cx="3" cy="3" r="3" transform="translate(231.5 555.5)" fill="#c5cfd7"/>
        </g>
      </g>
      <g id="Grupo_26601" data-name="Grupo 26601">
        <g id="Grupo_26600" data-name="Grupo 26600">
          <g id="Grupo_26599" data-name="Grupo 26599">
            <rect id="Rectángulo_3952" data-name="Rectángulo 3952" width="17.575" height="1.001" transform="translate(222.325 548.23) rotate(-37.227)" fill="#c5cfd7"/>
          </g>
        </g>
      </g>
      <g id="Grupo_26604" data-name="Grupo 26604">
        <g id="Grupo_26603" data-name="Grupo 26603">
          <g id="Grupo_26602" data-name="Grupo 26602">
            <rect id="Rectángulo_3953" data-name="Rectángulo 3953" width="1.001" height="16.195" transform="matrix(0.672, -0.741, 0.741, 0.672, 222.664, 548.871)" fill="#c5cfd7"/>
          </g>
        </g>
      </g>
    </g>
    <g id="Grupo_26606" data-name="Grupo 26606">
      <path id="Trazado_20896" data-name="Trazado 20896" d="M700.594,647H688.1a21.049,21.049,0,0,1,2.736-5.088l.079-.241a4.808,4.808,0,0,0-.532-3.989,3.873,3.873,0,0,0-2.584-1.456l-.518-.05-.021.516c-.083,2.082-1.789,5.953-4.807,10.911A13.367,13.367,0,0,0,681.1,649.8a2.09,2.09,0,0,0-.1.952V652h-5v13h5.123a4.81,4.81,0,0,0,4.471,4h15c2.5,0,4.406-2.792,4.406-5.251v-13C705,648.282,703.06,647,700.594,647ZM704,652h-9v1h9v4h-9v1h9v4h-9v1h9v.749c0,1.967-1.529,4.251-3.406,4.251h-15A3.957,3.957,0,0,1,682,664.249V664h-5V653h5v-2.251c0-.127-.107-.484-.014-.664.029-.053-.045-.336-.019-.336l1.357-1.559c2.068-3.391,4.5-7.931,4.906-10.869a2.637,2.637,0,0,1,1.369.937,3.753,3.753,0,0,1,.366,3.041,32.83,32.83,0,0,0-3.07,5.9l-.259.8h13.958c1.933,0,3.406.815,3.406,2.749Z" fill="#c5cfd7"/>
    </g>
    <g id="Grupo_26631" data-name="Grupo 26631">
      <g id="Grupo_26609" data-name="Grupo 26609">
        <g id="Grupo_26608" data-name="Grupo 26608">
          <g id="Grupo_26607" data-name="Grupo 26607">
            <path id="Trazado_20897" data-name="Trazado 20897" d="M618.5,577h-25c-1.374,0-3.5-1.626-3.5-3V545c0-1.381,2.007-2,3.5-2h19.208L620,550.793V574C620,575.493,619.882,577,618.5,577Zm-25-33c-.8,0-2.5.266-2.5,1v29c0,.822,1.678,2,2.5,2h25c.733,0,.5-1.2.5-2V551.207L612.294,544Z" fill="#c5cfd7"/>
          </g>
        </g>
      </g>
      <g id="Grupo_26630" data-name="Grupo 26630">
        <g id="Grupo_26613" data-name="Grupo 26613">
          <g id="Grupo_26612" data-name="Grupo 26612">
            <g id="Grupo_26611" data-name="Grupo 26611">
              <g id="Grupo_26610" data-name="Grupo 26610">
                <rect id="Rectángulo_3954" data-name="Rectángulo 3954" width="19" height="1" transform="translate(595 568)" fill="#c5cfd7"/>
              </g>
            </g>
          </g>
        </g>
        <g id="Grupo_26617" data-name="Grupo 26617">
          <g id="Grupo_26616" data-name="Grupo 26616">
            <g id="Grupo_26615" data-name="Grupo 26615">
              <g id="Grupo_26614" data-name="Grupo 26614">
                <rect id="Rectángulo_3955" data-name="Rectángulo 3955" width="19" height="1" transform="translate(595 564)" fill="#c5cfd7"/>
              </g>
            </g>
          </g>
        </g>
        <g id="Grupo_26621" data-name="Grupo 26621">
          <g id="Grupo_26620" data-name="Grupo 26620">
            <g id="Grupo_26619" data-name="Grupo 26619">
              <g id="Grupo_26618" data-name="Grupo 26618">
                <rect id="Rectángulo_3956" data-name="Rectángulo 3956" width="19" height="1" transform="translate(595 560)" fill="#c5cfd7"/>
              </g>
            </g>
          </g>
        </g>
        <g id="Grupo_26625" data-name="Grupo 26625">
          <g id="Grupo_26624" data-name="Grupo 26624">
            <g id="Grupo_26623" data-name="Grupo 26623">
              <g id="Grupo_26622" data-name="Grupo 26622">
                <rect id="Rectángulo_3957" data-name="Rectángulo 3957" width="19" height="1" transform="translate(595 556)" fill="#c5cfd7"/>
              </g>
            </g>
          </g>
        </g>
        <g id="Grupo_26629" data-name="Grupo 26629">
          <g id="Grupo_26628" data-name="Grupo 26628">
            <g id="Grupo_26627" data-name="Grupo 26627">
              <g id="Grupo_26626" data-name="Grupo 26626">
                <rect id="Rectángulo_3958" data-name="Rectángulo 3958" width="19" height="1" transform="translate(595 552)" fill="#c5cfd7"/>
              </g>
            </g>
          </g>
        </g>
      </g>
    </g>
    <g id="Grupo_26648" data-name="Grupo 26648">
      <g id="Grupo_26632" data-name="Grupo 26632">
        <path id="Trazado_20898" data-name="Trazado 20898" d="M81,600v29h31V600Zm30,28H82V606h29Zm0-23H82v-4h29Z" fill="#c5cfd7"/>
      </g>
      <g id="Grupo_26634" data-name="Grupo 26634">
        <g id="Grupo_26633" data-name="Grupo 26633">
          <rect id="Rectángulo_3959" data-name="Rectángulo 3959" width="19" height="1" transform="translate(87 610)" fill="#c5cfd7"/>
        </g>
      </g>
      <g id="Grupo_26647" data-name="Grupo 26647">
        <g id="Grupo_26637" data-name="Grupo 26637">
          <g id="Grupo_26636" data-name="Grupo 26636">
            <g id="Grupo_26635" data-name="Grupo 26635">
              <rect id="Rectángulo_3960" data-name="Rectángulo 3960" width="11" height="1" transform="translate(95 622)" fill="#c5cfd7"/>
            </g>
          </g>
        </g>
        <g id="Grupo_26640" data-name="Grupo 26640">
          <g id="Grupo_26639" data-name="Grupo 26639">
            <g id="Grupo_26638" data-name="Grupo 26638">
              <rect id="Rectángulo_3961" data-name="Rectángulo 3961" width="11" height="1" transform="translate(95 619)" fill="#c5cfd7"/>
            </g>
          </g>
        </g>
        <g id="Grupo_26643" data-name="Grupo 26643">
          <g id="Grupo_26642" data-name="Grupo 26642">
            <g id="Grupo_26641" data-name="Grupo 26641">
              <rect id="Rectángulo_3962" data-name="Rectángulo 3962" width="11" height="1" transform="translate(95 616)" fill="#c5cfd7"/>
            </g>
          </g>
        </g>
        <g id="Grupo_26646" data-name="Grupo 26646">
          <g id="Grupo_26645" data-name="Grupo 26645">
            <g id="Grupo_26644" data-name="Grupo 26644">
              <rect id="Rectángulo_3963" data-name="Rectángulo 3963" width="11" height="1" transform="translate(95 613)" fill="#c5cfd7"/>
            </g>
          </g>
        </g>
      </g>
    </g>
    <g id="Grupo_26652" data-name="Grupo 26652">
      <g id="Grupo_26651" data-name="Grupo 26651">
        <g id="Grupo_26650" data-name="Grupo 26650">
          <g id="Grupo_26649" data-name="Grupo 26649">
            <path id="Trazado_20899" data-name="Trazado 20899" d="M538.736,534.534a4,4,0,1,1,4-4A4,4,0,0,1,538.736,534.534Zm0-7.225a3.225,3.225,0,1,0,3.226,3.226A3.229,3.229,0,0,0,538.736,527.309Z" fill="#c5cfd7"/>
          </g>
        </g>
      </g>
    </g>
    <g id="Grupo_26656" data-name="Grupo 26656">
      <g id="Grupo_26655" data-name="Grupo 26655">
        <g id="Grupo_26654" data-name="Grupo 26654">
          <g id="Grupo_26653" data-name="Grupo 26653">
            <path id="Trazado_20900" data-name="Trazado 20900" d="M348.736,547.534a4,4,0,1,1,4-4A4,4,0,0,1,348.736,547.534Zm0-7.225a3.225,3.225,0,1,0,3.226,3.226A3.229,3.229,0,0,0,348.736,540.309Z" fill="#c5cfd7"/>
          </g>
        </g>
      </g>
    </g>
    <g id="Grupo_26660" data-name="Grupo 26660">
      <g id="Grupo_26659" data-name="Grupo 26659">
        <g id="Grupo_26658" data-name="Grupo 26658">
          <g id="Grupo_26657" data-name="Grupo 26657">
            <path id="Trazado_20901" data-name="Trazado 20901" d="M92.736,696.534a4,4,0,1,1,4-4A4,4,0,0,1,92.736,696.534Zm0-7.225a3.225,3.225,0,1,0,3.226,3.226A3.229,3.229,0,0,0,92.736,689.309Z" fill="#c5cfd7"/>
          </g>
        </g>
      </g>
    </g>
    <g id="Grupo_26664" data-name="Grupo 26664">
      <g id="Grupo_26663" data-name="Grupo 26663">
        <g id="Grupo_26662" data-name="Grupo 26662">
          <g id="Grupo_26661" data-name="Grupo 26661">
            <path id="Trazado_20902" data-name="Trazado 20902" d="M695.736,690.534a4,4,0,1,1,4-4A4,4,0,0,1,695.736,690.534Zm0-7.225a3.225,3.225,0,1,0,3.226,3.226A3.229,3.229,0,0,0,695.736,683.309Z" fill="#c5cfd7"/>
          </g>
        </g>
      </g>
    </g>
    <path id="Trazado_20903" data-name="Trazado 20903" d="M129,587h-3v-3a.5.5,0,0,0-1,0v3h-3a.5.5,0,0,0,0,1h3v3a.5.5,0,0,0,1,0v-3h3a.5.5,0,0,0,0-1Z" fill="#c5cfd7"/>
    <path id="Trazado_20904" data-name="Trazado 20904" d="M491,547h-3v-3a.5.5,0,0,0-1,0v3h-3a.5.5,0,0,0,0,1h3v3a.5.5,0,0,0,1,0v-3h3a.5.5,0,0,0,0-1Z" fill="#c5cfd7"/>
    <path id="Trazado_20905" data-name="Trazado 20905" d="M314,543h-3v-3a.5.5,0,0,0-1,0v3h-3a.5.5,0,0,0,0,1h3v3a.5.5,0,0,0,1,0v-3h3a.5.5,0,0,0,0-1Z" fill="#c5cfd7"/>
    <path id="Trazado_20906" data-name="Trazado 20906" d="M705,611h-3v-3a.5.5,0,0,0-1,0v3h-3a.5.5,0,0,0,0,1h3v3a.5.5,0,0,0,1,0v-3h3a.5.5,0,0,0,0-1Z" fill="#c5cfd7"/>
    <path id="Trazado_20907" data-name="Trazado 20907" d="M496,612h-3v-3a.5.5,0,0,0-1,0v3h-3a.5.5,0,0,0,0,1h3v3a.5.5,0,0,0,1,0v-3h3a.5.5,0,0,0,0-1Z" fill="#c5cfd7"/>
    <path id="Trazado_20908" data-name="Trazado 20908" d="M285,643h-3v-3a.5.5,0,0,0-1,0v3h-3a.5.5,0,0,0,0,1h3v3a.5.5,0,0,0,1,0v-3h3a.5.5,0,0,0,0-1Z" fill="#c5cfd7"/>
  </g>
</svg>
