<svg xmlns="http://www.w3.org/2000/svg" width="908.774" height="546.341" viewBox="0 0 908.774 546.341">
  <g id="Grupo_30002" data-name="Grupo 30002" transform="translate(-45.858 -38.327)">
    <g id="Grupo_30001" data-name="Grupo 30001" transform="translate(45.858 38.327)">
      <path id="Trazado_24882" data-name="Trazado 24882" d="M453.324,124.129c139.185-8.076,285.115,33.993,263.664,94.977s114.68-21.661,169.006.326c38.677,15.654,23.216,63.306,41.927,82.508,42.9,44.026,86.778-11.414,141.38,21.85s-57.188,343.724-114.229,345.458l-650.6-3.953-46.688-4.2s-129.147-70.62-36.763-135.769c62.465-44.05,17.519-76.038,10.725-96.2-7.8-23.154-26-63.593,53.3-93.27s58.827-94.248,56.877-107.619-27.786-96.032,111.4-104.108Z" transform="translate(-175.149 -123.136)" fill="#9bc1f9" opacity="0.1"/>
      <g id="Grupo_29945" data-name="Grupo 29945" transform="translate(81.5 283.156)">
        <g id="Grupo_29938" data-name="Grupo 29938" transform="translate(18.442 15.887)">
          <path id="Trazado_24883" data-name="Trazado 24883" d="M488.516,1189.652c-14.965-22.31-18.589-49.769-18.993-68.876a184.04,184.04,0,0,1,2.747-36.554l-1.037-.335a185.269,185.269,0,0,0-2.773,36.807c.405,19.295,4.069,47.036,19.22,69.622Z" transform="translate(-468.418 -1083.887)" fill="#3c8f7c"/>
        </g>
        <g id="Grupo_29939" data-name="Grupo 29939" transform="translate(16.803)">
          <path id="Trazado_24884" data-name="Trazado 24884" d="M471.992,1045.151a15.776,15.776,0,0,1-4.864,11.23,18.489,18.489,0,0,1-3.961-12.305,15.775,15.775,0,0,1,4.864-11.23A18.487,18.487,0,0,1,471.992,1045.151Z" transform="translate(-463.152 -1032.846)" fill="#3c8f7c"/>
        </g>
        <g id="Grupo_29940" data-name="Grupo 29940" transform="translate(6.367 16.205)">
          <path id="Trazado_24885" data-name="Trazado 24885" d="M439.721,1092.181a18.464,18.464,0,0,1,2.829,12.609,15.968,15.968,0,0,1-9.907-7.273,18.466,18.466,0,0,1-2.829-12.609A15.966,15.966,0,0,1,439.721,1092.181Z" transform="translate(-429.624 -1084.908)" fill="#3c8f7c"/>
        </g>
        <g id="Grupo_29941" data-name="Grupo 29941" transform="translate(0 34.126)">
          <path id="Trazado_24886" data-name="Trazado 24886" d="M420.67,1144.774a17.606,17.606,0,0,1,7.6,10.182,13.639,13.639,0,0,1-11.5-1.679,17.6,17.6,0,0,1-7.6-10.182A13.641,13.641,0,0,1,420.67,1144.774Z" transform="translate(-409.17 -1142.484)" fill="#3c8f7c"/>
        </g>
        <g id="Grupo_29942" data-name="Grupo 29942" transform="translate(1.867 49.47)">
          <ellipse id="Elipse_1046" data-name="Elipse 1046" cx="4.626" cy="8.935" rx="4.626" ry="8.935" transform="matrix(0.568, -0.823, 0.823, 0.568, 0, 7.616)" fill="#3c8f7c"/>
        </g>
        <g id="Grupo_29943" data-name="Grupo 29943" transform="translate(19.164 30.921)">
          <path id="Trazado_24887" data-name="Trazado 24887" d="M476.825,1133.9a11.7,11.7,0,0,1,10.188-.977,13.2,13.2,0,0,1-6.085,8.778,11.7,11.7,0,0,1-10.188.977A13.2,13.2,0,0,1,476.825,1133.9Z" transform="translate(-470.74 -1132.188)" fill="#3c8f7c"/>
        </g>
        <g id="Grupo_29944" data-name="Grupo 29944" transform="translate(19.234 43.191)">
          <path id="Trazado_24888" data-name="Trazado 24888" d="M477.05,1173.324a11.7,11.7,0,0,1,10.188-.978,13.2,13.2,0,0,1-6.085,8.778,11.7,11.7,0,0,1-10.188.978A13.2,13.2,0,0,1,477.05,1173.324Z" transform="translate(-470.965 -1171.607)" fill="#3c8f7c"/>
        </g>
      </g>
      <g id="Grupo_29954" data-name="Grupo 29954" transform="translate(0 394.39)">
        <g id="Grupo_29946" data-name="Grupo 29946" transform="translate(16.353 17.458)">
          <path id="Trazado_24889" data-name="Trazado 24889" d="M288.136,1548.826c-31.372-11.423-53.315-38.667-66.2-59.511a223.6,223.6,0,0,1-20.683-43.014l-1.386.552a225.161,225.161,0,0,0,20.818,43.319c13.007,21.052,35.179,48.574,66.939,60.137Z" transform="translate(-199.869 -1446.301)" fill="#96d9c9"/>
        </g>
        <g id="Grupo_29947" data-name="Grupo 29947" transform="translate(5.649)">
          <path id="Trazado_24890" data-name="Trazado 24890" d="M178.8,1400.339a22.677,22.677,0,0,1,1.825,16.8,19.61,19.61,0,0,1-12.467-10.126,22.675,22.675,0,0,1-1.825-16.8A19.61,19.61,0,0,1,178.8,1400.339Z" transform="translate(-165.482 -1390.213)" fill="#96d9c9"/>
        </g>
        <g id="Grupo_29948" data-name="Grupo 29948" transform="translate(0 29.332)">
          <path id="Trazado_24891" data-name="Trazado 24891" d="M163.224,1485.823a20,20,0,0,1,11.388,11.472,19.114,19.114,0,0,1-15.891.757,20,20,0,0,1-11.388-11.472A19.115,19.115,0,0,1,163.224,1485.823Z" transform="translate(-147.332 -1484.451)" fill="#96d9c9"/>
        </g>
        <g id="Grupo_29949" data-name="Grupo 29949" transform="translate(3.772 47.453)">
          <ellipse id="Elipse_1047" data-name="Elipse 1047" cx="14.745" cy="6.474" rx="14.745" ry="6.474" transform="matrix(0.99, -0.141, 0.141, 0.99, 0, 4.162)" fill="#96d9c9"/>
        </g>
        <g id="Grupo_29950" data-name="Grupo 29950" transform="translate(14.832 65.448)">
          <ellipse id="Elipse_1048" data-name="Elipse 1048" cx="14.745" cy="6.474" rx="14.745" ry="6.474" transform="translate(0 4.162) rotate(-8.113)" fill="#96d9c9"/>
        </g>
        <g id="Grupo_29951" data-name="Grupo 29951" transform="translate(28.855 25.144)">
          <path id="Trazado_24892" data-name="Trazado 24892" d="M240.071,1485.306a22.135,22.135,0,0,1,6.174-14.311,19.225,19.225,0,0,1,4.584,14.119,22.135,22.135,0,0,1-6.174,14.311A19.225,19.225,0,0,1,240.071,1485.306Z" transform="translate(-240.035 -1470.995)" fill="#96d9c9"/>
        </g>
        <g id="Grupo_29952" data-name="Grupo 29952" transform="translate(40.42 43.661)">
          <path id="Trazado_24893" data-name="Trazado 24893" d="M277.213,1544.9a22.215,22.215,0,0,1,5.965-14.419,19.132,19.132,0,0,1,4.793,14.023,22.215,22.215,0,0,1-5.965,14.42A19.135,19.135,0,0,1,277.213,1544.9Z" transform="translate(-277.193 -1530.484)" fill="#96d9c9"/>
        </g>
        <g id="Grupo_29953" data-name="Grupo 29953" transform="translate(44.235 85.148)">
          <path id="Trazado_24894" data-name="Trazado 24894" d="M293.849,1664.715a7.75,7.75,0,0,1,6.744-.318,8.934,8.934,0,0,1-4.4,5.571,7.748,7.748,0,0,1-6.744.318A8.934,8.934,0,0,1,293.849,1664.715Z" transform="translate(-289.447 -1663.773)" fill="#96d9c9"/>
        </g>
      </g>
      <path id="Trazado_24895" data-name="Trazado 24895" d="M426.237,1345.213s24.389-53.846,16.236-65.862c-11.268-16.6-25.278,34.348-25.962,29.87-6.453-42.293-5.1-95.634-35.284-103.718-17.157-4.595,1.134,39.838-1,51.286s-30.671-29.424-48.248-51.049-28.341-9.694-18.151,16.541c9.853,25.368,45.545,55.092,37.555,57.636s-52.791-32.794-59.543-19.771c-8.279,15.969,60.736,44.155,53.812,47.335s-39.8-11.77-39.8.951,45.431,15.9,44.249,21.4c-1.913,8.906-30.451-13.895-32.68-1.538-2.28,12.638,38.74,13.6,37.307,23.482-.823,5.681-11.155-.265-13.024,7.544-4.261,17.809,60.378,42.763,60.378,42.763Z" transform="translate(-246.387 -861.052)" fill="#3c8f7c"/>
      <path id="Trazado_24896" data-name="Trazado 24896" d="M697.811,1716.216c9.813,4.6,7.166,16.013,7.166,16.013s26.607-20.775,36.554-8.649,4.72,35.9-6.947,39.759-113.139,1.156-113.139,1.156S688.983,1712.08,697.811,1716.216Z" transform="translate(-473.873 -1220.195)" fill="#96d9c9"/>
      <g id="Grupo_29965" data-name="Grupo 29965" transform="translate(95.194 381.018)">
        <g id="Grupo_29964" data-name="Grupo 29964">
          <g id="Grupo_29955" data-name="Grupo 29955" transform="translate(21.129 18.376)">
            <path id="Trazado_24897" data-name="Trazado 24897" d="M559.14,1532.208l.939-.8c-21.317-25.971-30.421-58.525-34.3-81.26a224.8,224.8,0,0,1-3.353-43.622l-1.293-.232a226.2,226.2,0,0,0,3.366,43.9C528.408,1473.118,537.6,1505.96,559.14,1532.208Z" transform="translate(-521.052 -1406.292)" fill="#50bfa5"/>
          </g>
          <g id="Grupo_29956" data-name="Grupo 29956" transform="translate(14.804)">
            <path id="Trazado_24898" data-name="Trazado 24898" d="M511.279,1361.739c.631,5.6-.819,10.448-3.622,13.558a25.165,25.165,0,0,1-6.781-14.484c-.632-5.6.819-10.448,3.621-13.558A25.165,25.165,0,0,1,511.279,1361.739Z" transform="translate(-500.73 -1347.255)" fill="#50bfa5"/>
          </g>
          <g id="Grupo_29957" data-name="Grupo 29957" transform="translate(4.276 19.281)">
            <path id="Trazado_24899" data-name="Trazado 24899" d="M479.665,1417.458a24.618,24.618,0,0,1,5.525,14.891c-4.428-.77-9.106-3.631-12.76-8.257a24.619,24.619,0,0,1-5.525-14.891C471.334,1409.972,476.011,1412.832,479.665,1417.458Z" transform="translate(-466.905 -1409.201)" fill="#50bfa5"/>
          </g>
          <g id="Grupo_29958" data-name="Grupo 29958" transform="translate(0 40.708)">
            <path id="Trazado_24900" data-name="Trazado 24900" d="M466.772,1480.465a24.649,24.649,0,0,1,10.61,11.812c-3.848,1.531-8.765,1.132-13.6-1.536a24.65,24.65,0,0,1-10.61-11.812C457.015,1477.4,461.933,1477.8,466.772,1480.465Z" transform="translate(-453.168 -1478.039)" fill="#50bfa5"/>
          </g>
          <g id="Grupo_29959" data-name="Grupo 29959" transform="translate(16.562 68.051)">
            <path id="Trazado_24901" data-name="Trazado 24901" d="M512.072,1566.641a10.276,10.276,0,0,1,4.764,4.644,6.567,6.567,0,0,1-5.694-.2,10.275,10.275,0,0,1-4.764-4.644A6.569,6.569,0,0,1,512.072,1566.641Z" transform="translate(-506.378 -1565.885)" fill="#50bfa5"/>
          </g>
          <g id="Grupo_29960" data-name="Grupo 29960" transform="translate(19.187 77.623)">
            <path id="Trazado_24902" data-name="Trazado 24902" d="M520.506,1597.393a10.276,10.276,0,0,1,4.763,4.644,6.57,6.57,0,0,1-5.694-.2,10.275,10.275,0,0,1-4.763-4.645A6.569,6.569,0,0,1,520.506,1597.393Z" transform="translate(-514.812 -1596.637)" fill="#50bfa5"/>
          </g>
          <g id="Grupo_29961" data-name="Grupo 29961" transform="translate(23.365 35.79)">
            <path id="Trazado_24903" data-name="Trazado 24903" d="M533.705,1464.537a12.77,12.77,0,0,1,11.612-1.573,13.673,13.673,0,0,1-5.472,10.691,12.77,12.77,0,0,1-11.612,1.573A13.675,13.675,0,0,1,533.705,1464.537Z" transform="translate(-528.233 -1462.24)" fill="#50bfa5"/>
          </g>
          <g id="Grupo_29962" data-name="Grupo 29962" transform="translate(25.637 50.389)">
            <path id="Trazado_24904" data-name="Trazado 24904" d="M541.006,1511.437a12.77,12.77,0,0,1,11.612-1.572,13.673,13.673,0,0,1-5.472,10.69,12.768,12.768,0,0,1-11.612,1.572A13.671,13.671,0,0,1,541.006,1511.437Z" transform="translate(-535.534 -1509.141)" fill="#50bfa5"/>
          </g>
          <g id="Grupo_29963" data-name="Grupo 29963" transform="translate(29.042 72.27)">
            <path id="Trazado_24905" data-name="Trazado 24905" d="M550.034,1580.934a8.312,8.312,0,0,1,7.558-1.023,8.9,8.9,0,0,1-3.562,6.958,8.312,8.312,0,0,1-7.558,1.023A8.9,8.9,0,0,1,550.034,1580.934Z" transform="translate(-546.472 -1579.439)" fill="#50bfa5"/>
          </g>
        </g>
      </g>
      <path id="Trazado_24906" data-name="Trazado 24906" d="M448.964,1755.977s-31.165-40.014-44.194-46.144c-13.882-6.532-1.845,16.1-1.845,16.1s-29.683-29.159-36.655-21.878.472,14.094.472,14.094-24.855-4.618-28.479,4.693c-5.569,14.307,35.312,21.424,35.312,21.424s-19.584-4.3-15.666,4.56C363.821,1762.189,448.964,1755.977,448.964,1755.977Z" transform="translate(-278.476 -1211.178)" fill="#50bfa5"/>
      <path id="Trazado_24907" data-name="Trazado 24907" d="M339.418,1721.452c3.624-9.311,28.479-4.693,28.479-4.693s-7.444-6.813-.472-14.094,30.207,9.912,30.207,9.912-3.6-15.8,13.854-3.372c12.467,8.879,36.529,42,36.529,42Z" transform="translate(-279.629 -1209.784)" fill="#96d9c9"/>
      <g id="Grupo_29967" data-name="Grupo 29967" transform="translate(147.572 456.595)">
        <g id="Grupo_29966" data-name="Grupo 29966">
          <path id="Trazado_24908" data-name="Trazado 24908" d="M621.445,1677.668s49.66,3.512,59.333-5.381.077-25,.077-25,17.041-13.471,16.775-22.267-11.368-4.333-11.368-4.333,18.817-24.229,14.354-28.837c-8.313-8.583-30.069,16.6-30.069,16.6s6.456-11.98-.355-13.883c-10.272-2.869-17.827,26.678-17.827,26.678s1.916-11.67-5.164-10.12C634.5,1613.9,621.445,1677.668,621.445,1677.668Z" transform="translate(-621.445 -1590.065)" fill="#50bfa5"/>
        </g>
      </g>
      <path id="Trazado_24909" data-name="Trazado 24909" d="M744.743,1695.169h-4.157l15.49-80.487,3.456.657Z" transform="translate(-555.931 -1150.424)" fill="#0e2e35"/>
      <path id="Trazado_24910" data-name="Trazado 24910" d="M2149.925,1390.932l4.009-9.722c3.111-7.15,11.07-10.564,17.778-7.626h0c16.9,7.4,24.253,28.013,16.414,46.031l-5.73,13.173a16.586,16.586,0,0,0,1.749,16.6A14.652,14.652,0,0,1,2185.59,1464l-3.021,6.945a27.555,27.555,0,0,1-17.184,15.383,16.716,16.716,0,0,0-10.375,9.407l-4.278,9.834c-4.729,10.871-16.831,16.063-27.031,11.6l-5.819-2.549c-10.2-4.467-14.633-16.9-9.9-27.773h0c7.648-13,7.038-22.7,4.328-29.281a39.486,39.486,0,0,1,.372-30.717l.6-1.39a39,39,0,0,1,23.8-21.611C2141.7,1402.372,2146.516,1398.768,2149.925,1390.932Z" transform="translate(-1496.404 -983.645)" fill="#50bfa5"/>
      <path id="Trazado_24911" data-name="Trazado 24911" d="M2012.856,1641.752c8.2-10.672,53.787-67.353,83.118-76.88,32.377-10.517,1.862,31.254,1.862,31.254s57.435-63.018,78.512-57.336c19.321,5.207,0,44.269,0,44.269s21.76-21.63,48.149-21.63c25.683,0-17.831,78.646-20.185,82.752Z" transform="translate(-1432.194 -1097.904)" fill="#96d9c9"/>
      <g id="Grupo_29970" data-name="Grupo 29970" transform="translate(701.028 391.211)">
        <g id="Grupo_29968" data-name="Grupo 29968" transform="translate(0 9.921)">
          <path id="Trazado_24912" data-name="Trazado 24912" d="M2452.242,1433.292c-23.467,36.774-40.563,79.447-50.356,122.846l-2.323-.026c9.751-42.491,27.448-85.5,50.875-122.233,5.445-8.537,11.325-18.666,21.519-22,.2-.064.271.236.083.307C2462.729,1415.71,2457.336,1425.308,2452.242,1433.292Z" transform="translate(-2399.563 -1411.874)" fill="#3c8f7c"/>
        </g>
        <g id="Grupo_29969" data-name="Grupo 29969" transform="translate(7.659 56.203)">
          <path id="Trazado_24913" data-name="Trazado 24913" d="M2424.169,1658.627a476.992,476.992,0,0,1,96.3-97.988c.378-.287.889.375.508.668a472.062,472.062,0,0,0-94.411,97.339Z" transform="translate(-2424.169 -1560.568)" fill="#3c8f7c"/>
        </g>
        <path id="Trazado_24914" data-name="Trazado 24914" d="M2571.771,1390.9c.6.891,2.917,3.216,3.6,6.271a12.955,12.955,0,0,1,.115,6.4,13.944,13.944,0,0,0,3.566-6.191c1.153-3.688.346-8.8-1.088-10.5-2.477-3.832-6.8-4.22-7.643-2.362C2569.425,1386.357,2570.556,1388.868,2571.771,1390.9Z" transform="translate(-2516.948 -1382.364)" fill="#3c8f7c"/>
        <path id="Trazado_24915" data-name="Trazado 24915" d="M2565.955,1495.384c-.876-.624-3.147-2.989-6.177-3.731a12.833,12.833,0,0,0-6.373-.241,13.883,13.883,0,0,1,6.24-3.455c3.7-1.084,8.78-.174,10.441,1.3,3.769,2.56,4.071,6.908,2.2,7.714C2570.432,1497.826,2567.952,1496.642,2565.955,1495.384Z" transform="translate(-2505.518 -1454.026)" fill="#3c8f7c"/>
        <path id="Trazado_24916" data-name="Trazado 24916" d="M2538.736,1541.6c-.876-.624-3.147-2.989-6.177-3.731a12.83,12.83,0,0,0-6.373-.241,13.888,13.888,0,0,1,6.239-3.456c3.7-1.083,8.781-.173,10.441,1.3,3.769,2.56,4.071,6.908,2.2,7.714C2543.213,1544.047,2540.733,1542.863,2538.736,1541.6Z" transform="translate(-2486.771 -1485.86)" fill="#3c8f7c"/>
        <path id="Trazado_24917" data-name="Trazado 24917" d="M2635.824,1648.814c-.876-.624-3.147-2.99-6.177-3.731a12.827,12.827,0,0,0-6.373-.241,13.879,13.879,0,0,1,6.239-3.455c3.7-1.084,8.78-.174,10.441,1.3,3.769,2.56,4.071,6.908,2.2,7.714C2640.3,1651.257,2637.821,1650.073,2635.824,1648.814Z" transform="translate(-2553.64 -1559.7)" fill="#3c8f7c"/>
        <path id="Trazado_24918" data-name="Trazado 24918" d="M2685.427,1604.967c-.876-.624-3.147-2.989-6.178-3.731a12.827,12.827,0,0,0-6.373-.241,13.894,13.894,0,0,1,6.24-3.455c3.7-1.084,8.78-.173,10.44,1.3,3.77,2.559,4.071,6.907,2.2,7.714C2689.9,1607.41,2687.423,1606.226,2685.427,1604.967Z" transform="translate(-2587.802 -1529.501)" fill="#3c8f7c"/>
        <path id="Trazado_24919" data-name="Trazado 24919" d="M2531.925,1443.04c.737.784,3.386,2.715,4.536,5.624a12.959,12.959,0,0,1,1.119,6.3,13.968,13.968,0,0,0,2.549-6.678c.559-3.825-1.042-8.75-2.724-10.2-3.047-3.392-7.38-3.091-7.918-1.124C2528.9,1438.929,2530.407,1441.23,2531.925,1443.04Z" transform="translate(-2488.956 -1418.229)" fill="#3c8f7c"/>
        <path id="Trazado_24920" data-name="Trazado 24920" d="M2488.8,1492.278c1.049.558,4.711,1.57,6.554,4.32a11.186,11.186,0,0,1,2.211,6.549c-.2.18,2.611-4.038,2.489-8.553.26-4.509-2.409-9.315-4.762-10.205-4.356-2.472-9.928-.267-10.385,2.161C2484.379,1489,2486.615,1490.912,2488.8,1492.278Z" transform="translate(-2458.288 -1451.151)" fill="#3c8f7c"/>
        <path id="Trazado_24921" data-name="Trazado 24921" d="M2444.835,1570.815c1.127.373,4.908.752,7.184,3.152a11.172,11.172,0,0,1,3.278,6.082c-.163.21,1.9-4.421,1.021-8.85-.5-4.489-3.937-8.777-6.405-9.256-4.708-1.7-9.832,1.412-9.876,3.883C2439.928,1568.325,2442.453,1569.837,2444.835,1570.815Z" transform="translate(-2427.437 -1504.976)" fill="#3c8f7c"/>
        <path id="Trazado_24922" data-name="Trazado 24922" d="M2573.581,1630.924c.821.514,3.744,1.546,5.086,3.888a9.126,9.126,0,0,1,1.427,5.453c-.17.135,2.353-3.135,2.51-6.815.467-3.653-1.431-7.715-3.294-8.573-3.4-2.259-8.061-.784-8.571,1.165C2570.172,1628,2571.882,1629.688,2573.581,1630.924Z" transform="translate(-2517.383 -1547.872)" fill="#3c8f7c"/>
        <path id="Trazado_24923" data-name="Trazado 24923" d="M2628.965,1415.338a9.9,9.9,0,0,0-3.492-2.478,7.609,7.609,0,0,0-3.759-.422,8.233,8.233,0,0,1,3.842-1.77c2.235-.478,5.2.283,6.12,1.227,2.118,1.679,2.106,4.265.966,4.66C2631.507,1416.98,2630.092,1416.171,2628.965,1415.338Z" transform="translate(-2552.566 -1401.021)" fill="#3c8f7c"/>
        <path id="Trazado_24924" data-name="Trazado 24924" d="M2625.161,1383.817a9.965,9.965,0,0,1-.175,4.288,7.661,7.661,0,0,1-1.962,3.245,8.231,8.231,0,0,0,3.743-1.972c1.742-1.484,2.952-4.307,2.768-5.612-.032-2.709-2.08-4.278-3.088-3.613C2625.417,1380.8,2625.192,1382.414,2625.161,1383.817Z" transform="translate(-2553.467 -1380.001)" fill="#3c8f7c"/>
        <path id="Trazado_24925" data-name="Trazado 24925" d="M2732.877,1567.13a9.894,9.894,0,0,0-3.492-2.478,7.609,7.609,0,0,0-3.759-.422,8.23,8.23,0,0,1,3.842-1.77c2.235-.479,5.2.283,6.119,1.227,2.119,1.68,2.107,4.265.967,4.66C2735.419,1568.771,2734,1567.962,2732.877,1567.13Z" transform="translate(-2624.135 -1505.566)" fill="#3c8f7c"/>
        <path id="Trazado_24926" data-name="Trazado 24926" d="M2727.33,1535.008a9.968,9.968,0,0,1,.175,4.288,7.663,7.663,0,0,1-1.69,3.4,8.236,8.236,0,0,0,3.569-2.273c1.615-1.622,2.591-4.535,2.3-5.821-.254-2.7-2.422-4.093-3.373-3.347C2727.338,1531.975,2727.246,1533.607,2727.33,1535.008Z" transform="translate(-2624.263 -1484.035)" fill="#3c8f7c"/>
      </g>
      <path id="Trazado_24927" data-name="Trazado 24927" d="M2644.462,1725.813c.156.986,1.18,3.85.548,6.68a11.988,11.988,0,0,1-2.42,5.408,12.864,12.864,0,0,0,5.423-3.778c2.416-2.635,3.752-7.243,3.217-9.231-.569-4.192-4.042-6.23-5.477-5.005C2644.28,1721.08,2644.241,1723.632,2644.462,1725.813Z" transform="translate(-1865.913 -1222.64)" fill="#3c8f7c"/>
      <path id="Trazado_24928" data-name="Trazado 24928" d="M2576.641,1750.179c.156.986,1.18,3.85.548,6.68a11.98,11.98,0,0,1-2.42,5.408,12.862,12.862,0,0,0,5.424-3.777c2.416-2.635,3.752-7.243,3.217-9.232-.569-4.192-4.042-6.23-5.477-5.005C2576.46,1745.446,2576.42,1748,2576.641,1750.179Z" transform="translate(-1819.202 -1239.422)" fill="#3c8f7c"/>
      <path id="Trazado_24929" data-name="Trazado 24929" d="M2507.73,1781c.156.986,1.18,3.85.548,6.679a11.984,11.984,0,0,1-2.42,5.408,12.865,12.865,0,0,0,5.423-3.777c2.416-2.635,3.752-7.243,3.217-9.231-.569-4.192-4.042-6.23-5.477-5.005C2507.549,1776.267,2507.509,1778.819,2507.73,1781Z" transform="translate(-1771.74 -1260.649)" fill="#3c8f7c"/>
      <path id="Trazado_24930" data-name="Trazado 24930" d="M2650.927,1784.661c-.434-.814-1.272-3.5-3.311-5.229a11.01,11.01,0,0,0-4.791-2.63,11.862,11.862,0,0,1,6.1-.253c3.246.589,6.793,3.236,7.5,5,1.913,3.408.487,6.855-1.252,6.756C2653.426,1788.25,2651.977,1786.392,2650.927,1784.661Z" transform="translate(-1866.077 -1261.698)" fill="#3c8f7c"/>
      <path id="Trazado_24931" data-name="Trazado 24931" d="M2580.383,1809.715c-.434-.814-1.272-3.5-3.311-5.229a11.009,11.009,0,0,0-4.791-2.63,11.864,11.864,0,0,1,6.1-.253c3.247.589,6.793,3.237,7.5,5,1.912,3.408.487,6.855-1.252,6.756C2582.882,1813.3,2581.433,1811.446,2580.383,1809.715Z" transform="translate(-1817.49 -1278.954)" fill="#3c8f7c"/>
      <path id="Trazado_24932" data-name="Trazado 24932" d="M2709.037,1766.8a9.185,9.185,0,0,0-2.768-2.845,7.056,7.056,0,0,0-3.355-1.017,7.619,7.619,0,0,1,3.8-.967c2.116-.06,4.692,1.132,5.371,2.146,1.65,1.887,1.208,4.24.1,4.408C2711.078,1768.721,2709.924,1767.746,2709.037,1766.8Z" transform="translate(-1907.464 -1251.863)" fill="#3c8f7c"/>
      <path id="Trazado_24933" data-name="Trazado 24933" d="M2707.349,1737.163a9.226,9.226,0,0,1-.875,3.877,7.085,7.085,0,0,1-2.329,2.627,7.611,7.611,0,0,0,3.74-1.168c1.835-1.059,3.408-3.428,3.458-4.648.422-2.474-1.181-4.248-2.21-3.811C2708.086,1734.452,2707.611,1735.89,2707.349,1737.163Z" transform="translate(-1908.31 -1232.585)" fill="#3c8f7c"/>
      <path id="Trazado_24934" data-name="Trazado 24934" d="M2319,757.173a2.041,2.041,0,0,0,2.062-2.48c-.518-1.937-1-3.883-1.5-5.826-1.1-4.29-1.272-4.425-.971-4.787.718-.865,2.451.143,3.053.573,1.337.955,2.445,2.256,3.969,2.929,2.974,1.313,5.925-.38,5.442-3.783-.442-3.115-1.065-6.229-1.707-9.324,3.111,1.664,6.178,3.419,9.31,5.037a1.394,1.394,0,0,0,2.083-1.465c-.333-2.738-1.318-10.846-1.643-13.519-.084-.691-.856-3.866-.156-4.222.628-.319,2.713.988,3.212,1.219,2.757,1.277,3.747,1.69,12.809,5.637a1.633,1.633,0,0,0,2.083-1.912c-3.837-11.132-2.442-11.626-4.4-13.608a.772.772,0,0,0-1.286.28c-.62,1.318-.675,1.676.5,6.79q.454,1.983,1.007,3.94c-10.914-5-13.545-6.526-15.849-4.427-1.6,1.456-1.224,2.093.68,17.432-3.172-1.914-6.441-3.626-9.7-5.409a1.588,1.588,0,0,0-2.375,1.67c1.641,11.15,2.137,11.373,2.017,12.395,0,.028.552.343-.316,0-1.474-.587-3.605-3.617-6.6-4.144-2.638-.463-5.686.9-5.936,3.848-.145,1.714.286,2.465,1.713,8.761a41.146,41.146,0,0,0-9.744.262,6.4,6.4,0,0,0-3.567,1.474,1.7,1.7,0,0,0,.619,2.858C2307.234,758.182,2309.478,756,2319,757.173Z" transform="translate(-1631.782 -528.296)" fill="#f7cc7f"/>
      <path id="Trazado_24935" data-name="Trazado 24935" d="M2448.828,963.56a50.968,50.968,0,0,1,2.019-8.8c.184-.564.4-1.652,1.081-1.837,1.638-.446,3,2.547,7.97,5.291,2.156,1.191,6.51,3.842,8.446,1.044.991-1.434,1.252-3.54,1.736-5.189.368-1.252.785-2.489,1.175-3.733,7.907,5,7.263,5.363,9.473,5.092a1.148,1.148,0,0,0,.91-1.336c-.594-2.108-.517-1.534-10.423-7.945a1.777,1.777,0,0,0-2.654.866c-.5,1.695-2.332,9.494-2.711,10.415-.07-.087-.506-.132-.6-.162-3.566-1.2-6.207-3.4-9.076-5.726-2.351-1.9-5.983-3.007-7.843.172-1.009,1.725-1.963,5.621-2.566,8.66-4.755-3.245-9.488-6.527-14.261-9.74a1.954,1.954,0,0,0-2.925.953c-.788,3.5-1.692,6.958-2.623,10.416a33.1,33.1,0,0,1-7.34-7c-1.533-1.99-4.828.006-.621,4.759a32.007,32.007,0,0,0,8.045,6.915,1.967,1.967,0,0,0,2.933-.956c1.022-3.395,1.891-6.842,2.692-10.3,4.775,3.174,9.586,6.3,14.361,9.476A1.813,1.813,0,0,0,2448.828,963.56Z" transform="translate(-1709.815 -689.78)" fill="#f47458"/>
      <path id="Trazado_24936" data-name="Trazado 24936" d="M2436.487,1140.323a1.961,1.961,0,0,0,1.111,2.388,43.178,43.178,0,0,0,14.3,4.794c2.649.321,2.865-3.7.321-4.168a52.446,52.446,0,0,1-11.8-3.362,41.866,41.866,0,0,1,3.731-8.223,2.019,2.019,0,0,0-.951-2.966c-3.142-.841-15.131-3.665-15.272-3.57a.639.639,0,0,0,.085-.316c.143-1.324,2.332-5.307,2.816-7.282.542-2.217-2.124-3.874-3.833-4.567-3.466-1.405-8.187-.007-11.25-2.428-2.946-2.327,2.375-6.45.9-11.349-1.136-3.776-4.992-3.89-10.952-4.481-1.463-.145-2.893-.27-4,.883a1,1,0,0,0-.224,1.154c1.226,2.081,3.474,1.977,8.88,2.659.688.087,1.912.028,2.351.686,1.464,2.194-2.7,5.784-1.515,10.212.927,3.449,4.357,5.053,7.515,5.594,2.474.423,5.836-.09,8,1.494-.751,2.034-1.563,4.07-2.153,6.147-.645,2.27.042,4.189,2.263,5.055a63.266,63.266,0,0,0,7.725,2.024c1.715.426,3.427.859,5.145,1.27A47.336,47.336,0,0,0,2436.487,1140.323Z" transform="translate(-1699.785 -792.293)" fill="#3cb4c5"/>
      <path id="Trazado_24937" data-name="Trazado 24937" d="M2132.677,643.261c-10.189-15.067-20.019-7.164-17.506-1.421,1.077,2.461,3.983,3.5,6.134,1.718.984-.816.481-2.8-.906-2.78-1.148.016-1.041-1.251.211-1.38,1.686-.175,3.184,1.47,4.274,2.541,2.544,2.5,5.877,5.7,5.264,9.642-.916,5.878-8.441,10.146-15.975,4.317-10.866-8.408-4.3-28.327,9.717-27.786a19.244,19.244,0,0,1,16.958,12.693c.511,1.392,2.425.51,2.306-.769-.9-9.687-10.963-16.274-20.213-15.835-9.488.451-16.463,8.233-17.786,17.37-1.387,9.581,4.189,19.555,14.058,21.426C2130.039,665.048,2139.8,653.8,2132.677,643.261Z" transform="translate(-1495.62 -468.226)" fill="#3cb4c5"/>
      <path id="Trazado_24938" data-name="Trazado 24938" d="M2406.548,1301.345c-1.742-2.192-6-4.488-8.366-1.934a2.6,2.6,0,0,0,.233,4.031c1.429.99,3.158.579,3.944,2.407.675,1.568-.493,3.182-1.785,4.023-3.938,2.564-9.842-.339-12.759-3.281a8.814,8.814,0,0,1,3.856-14.891c2.22-.63,4.467-.243,6.723-.106,1.247.075,2.357-1.6,1.311-2.593-4.027-3.8-10.788-2.473-14.8.721a14.106,14.106,0,0,0-4.433,14.538c1.619,5.724,7.062,9.954,12.619,11.542C2404.644,1319.1,2412.19,1308.446,2406.548,1301.345Z" transform="translate(-1685.036 -924.517)" fill="#3c8f7c"/>
      <g id="Grupo_29971" data-name="Grupo 29971" transform="translate(98.54 197.4)">
        <path id="Trazado_24939" data-name="Trazado 24939" d="M595.218,946.591a45.2,45.2,0,0,0-4.07-21.637c-2.832-5.939-9.839-9.308-16.23-9.317-20.292-.026-22.872,26.991-35.789,37.411-3.947,3.184-8.359,5.778-12.093,9.212-13.791,12.68-7.579,36.152,5.084,47.269,8.787,7.714,22.6,12.1,33.428,6.067,5.653-3.148,9.945-8.381,13-14.114,4.34-8.137,7.137-17.526,10.223-26.2C592.06,966.054,594.813,956.445,595.218,946.591Z" transform="translate(-502.008 -866.363)" fill="#0e2e35"/>
        <path id="Trazado_24940" data-name="Trazado 24940" d="M513.611,840.62s-14.9-26.8-18.529-32.5-13.071-28.34-13.409-29.232,6.505-11.607,4.977-11.974-3.217,5.649-4.847,4.931-6.39-15.2-7.318-14.483c-1.737,1.344,2.565,8.984,1.639,9.466s-3.732-8.406-5.551-8.144,3.459,8.145,2.95,8.842-5.988-6.732-6.98-5.148c-.538.86,5.038,6.484,3.967,7.011s-6.031-3.1-6.557-2.057,4.588,2.481,6.117,5.3,4.133,4.043,5.214,9.269,2.7,24.14,8.236,33.576S501.242,845.8,501.242,845.8Z" transform="translate(-463.918 -757.333)" fill="#f79c8d"/>
        <path id="Trazado_24941" data-name="Trazado 24941" d="M788.479,1233.46l-23.172-17.737s-2.331-16.546-5.452-31.231c-3.91,1.108-7.439,4.185-11.353,5.259l5.892,32.882,30.37,15.721,8.578,11.062,1.951-11.356Z" transform="translate(-659.923 -1051.535)" fill="#f48c7f"/>
        <path id="Trazado_24942" data-name="Trazado 24942" d="M744.32,1089.542c-6.338-19.292-13.426-18.47-13.426-18.47l5.481,40.559c3.914-1.074,9.01-3.464,12.92-4.572A177.231,177.231,0,0,0,744.32,1089.542Z" transform="translate(-647.795 -973.414)" fill="#f7cc7f"/>
        <path id="Trazado_24943" data-name="Trazado 24943" d="M541.786,1781.905s-1.43,9.972-3.889,13.19a25.451,25.451,0,0,0-3.323,4.4c-1.541,3.039-.689,7.563.448,10.054.583,1.279-.041,1.275,1.287,1.687a8.146,8.146,0,0,0,9.794-4.624,23.6,23.6,0,0,0,1.921-8.5c.42-9.054,3.22-13.658,3.22-13.658Z" transform="translate(-512.005 -1462.997)" fill="#f7a491"/>
        <path id="Trazado_24944" data-name="Trazado 24944" d="M694.227,1796.559s.883,11.245.166,14.9c-.383,1.957-2.52,5.985-1.54,7.826a4.934,4.934,0,0,0,2.1,2.3l25.4.411c1.383.022.469-.873-.646-1.7-1.826-1.351-3.3-2.243-9.132-5.08-.38-.185-1.765-1.071-2.265-1.378a17.6,17.6,0,0,1-3.633-3.228c-1.824-2.042-1.983-11.945-1.983-11.945Z" transform="translate(-621.42 -1473.09)" fill="#f7a491"/>
        <path id="Trazado_24945" data-name="Trazado 24945" d="M707.927,1310.1s3.2,18.258,1.1,30.227-12.18,122.919-12.18,122.919l-11.2.635s-2.348-46.346-1.928-52.791,3.744-17.231,3.744-17.231l-1.115-37.419,14.135-49.158Z" transform="translate(-615.268 -1136.107)" fill="#13375b"/>
        <path id="Trazado_24946" data-name="Trazado 24946" d="M586.461,1294.832s-8.82,13.351-10.92,24.4,1.541,45-2.5,59.483c-2.187,7.838-10.475,19.942-11.735,30.07s-6.2,36.658-6.2,36.658l11.2,2.232,26.02-66.257,20.41-59.886,5.228-30.843Z" transform="translate(-526.723 -1124.677)" fill="#355389"/>
        <path id="Trazado_24947" data-name="Trazado 24947" d="M640.755,1059.87s-11.678-.748-16.3,4.316,10.248,45.124,11.088,51.569-4.282,23.582-4.282,23.582,27.432,5.552,35.272.334c0,0,.84-46.346,0-50.95s-7.84-23.327-9.52-25.168S640.755,1059.87,640.755,1059.87Z" transform="translate(-573.876 -965.676)" fill="#fae0b2"/>
        <path id="Trazado_24948" data-name="Trazado 24948" d="M681.794,1008.961s-.06.346-.169.934c-.52,2.823-2.526,12.19-3.88,14.765-1.637,3.112,5.6,13.036,12.573,11.825,2.075-.361-1.754-9.119-1.569-10.047.352-1.776.83-4.2,1.318-6.683l.817-4.158c.745-3.795,1.353-6.9,1.353-6.9Z" transform="translate(-611.028 -930.459)" fill="#f7a491"/>
        <path id="Trazado_24949" data-name="Trazado 24949" d="M690.027,1009.9c.109-.589.169-.934.169-.934l10.443-.262s-.608,3.1-1.353,6.9c-.261,1.328-.538,2.741-.813,4.135a9.764,9.764,0,0,1-4.986-2.514,13.257,13.257,0,0,1-3.777-5.649C689.839,1010.905,689.946,1010.333,690.027,1009.9Z" transform="translate(-619.43 -930.459)" fill="#f47458"/>
        <path id="Trazado_24950" data-name="Trazado 24950" d="M688.521,932.782a9.383,9.383,0,0,0-8.008,3.441c-3.085,4.013-6.411,16.424,1.254,23.171s15.238-.89,16.36-8.988S699.687,932.489,688.521,932.782Z" transform="translate(-610.726 -878.152)" fill="#f7a491"/>
        <path id="Trazado_24951" data-name="Trazado 24951" d="M742.707,979.292c-.915,1.788-2.451,2.779-3.43,2.212s-1.032-2.476-.117-4.265,2.451-2.779,3.43-2.212S743.622,977.5,742.707,979.292Z" transform="translate(-653.038 -907.158)" fill="#f7a491"/>
        <path id="Trazado_24952" data-name="Trazado 24952" d="M678.885,928.3s-6.576,11.8-11.28,12.348-5.322,6.816-5.322,6.816,1.682-14.45,6.339-17.237A17.215,17.215,0,0,1,678.885,928.3Z" transform="translate(-600.539 -875.001)" fill="#0e2e35"/>
        <path id="Trazado_24953" data-name="Trazado 24953" d="M544.956,1843.464c-6.1,1.119-10.162-2.47-12.275-5.158-1.551,3.044-2.308,7.587-1.167,10.088,1,2.2,3.941,2.139,6.253,2.226a6.033,6.033,0,0,0,5.549-3.415A20.507,20.507,0,0,0,544.956,1843.464Z" transform="translate(-510.096 -1501.843)" fill="#b75742"/>
        <path id="Trazado_24954" data-name="Trazado 24954" d="M708.181,1850.818a22.873,22.873,0,0,1-14.46-.571c-.716,2.042-1.666,4.6-1.162,6.08.617,1.808,1.495,2.217,2.27,2.238,6.135.162,22.474.383,27.153.444a.769.769,0,0,0,.594-1.264C721.415,1856.35,708.681,1851.125,708.181,1850.818Z" transform="translate(-621.294 -1510.067)" fill="#b75742"/>
        <path id="Trazado_24955" data-name="Trazado 24955" d="M672.455,970.41c.383,2.1-.387,4.018-1.719,4.293s-2.721-1.2-3.1-3.3.387-4.018,1.719-4.293S672.073,968.314,672.455,970.41Z" transform="translate(-604.157 -901.794)" fill="#f7a491"/>
        <path id="Trazado_24956" data-name="Trazado 24956" d="M584.435,997.005s16.485,17.827,18.936,25.012-2.389,17.463-9.073,17.911-21.559-31.642-21.559-31.642Z" transform="translate(-538.867 -922.405)" fill="#f7cc7f"/>
      </g>
      <g id="Grupo_29988" data-name="Grupo 29988" transform="translate(422.129 223.318)">
        <rect id="Rectángulo_4580" data-name="Rectángulo 4580" width="228.536" height="320.798" rx="37.794" fill="#f7cc7f"/>
        <rect id="Rectángulo_4581" data-name="Rectángulo 4581" width="189.535" height="48.938" transform="translate(20.578 26.386)" fill="#3cb4c5"/>
        <path id="Trazado_24957" data-name="Trazado 24957" d="M1574.671,932.419h184.507v-7.045H1569.643v48.938h5.029Z" transform="translate(-1549.064 -898.988)" fill="#3cb4c5" opacity="0.5" style="mix-blend-mode: multiply;isolation: isolate"/>
        <path id="Rectángulo_4582" data-name="Rectángulo 4582" d="M2.905,0H51.479a2.906,2.906,0,0,1,2.906,2.906V14.725a2.905,2.905,0,0,1-2.905,2.905H2.906A2.906,2.906,0,0,1,0,14.724V2.905A2.905,2.905,0,0,1,2.905,0Z" transform="translate(20.578 89.284)" fill="#f47458"/>
        <rect id="Rectángulo_4583" data-name="Rectángulo 4583" width="54.384" height="17.63" rx="2.905" transform="translate(88.154 89.284)" fill="#f47458"/>
        <rect id="Rectángulo_4584" data-name="Rectángulo 4584" width="54.384" height="17.63" rx="2.905" transform="translate(155.729 89.284)" fill="#f47458"/>
        <rect id="Rectángulo_4585" data-name="Rectángulo 4585" width="42.088" height="39.524" rx="6.514" transform="translate(20.578 120.875)" fill="#f47458"/>
        <path id="Rectángulo_4586" data-name="Rectángulo 4586" d="M6.514,0h29.06a6.514,6.514,0,0,1,6.514,6.514v26.5a6.515,6.515,0,0,1-6.515,6.515H6.514A6.514,6.514,0,0,1,0,33.011V6.514A6.514,6.514,0,0,1,6.514,0Z" transform="translate(69.727 120.875)" fill="#fae0b2"/>
        <path id="Rectángulo_4587" data-name="Rectángulo 4587" d="M6.514,0h29.06a6.514,6.514,0,0,1,6.514,6.514v26.5a6.515,6.515,0,0,1-6.515,6.515H6.514A6.514,6.514,0,0,1,0,33.011V6.514A6.514,6.514,0,0,1,6.514,0Z" transform="translate(118.877 120.875)" fill="#fae0b2"/>
        <path id="Rectángulo_4588" data-name="Rectángulo 4588" d="M6.515,0H35.573a6.515,6.515,0,0,1,6.515,6.515v26.5a6.514,6.514,0,0,1-6.514,6.514H6.514A6.514,6.514,0,0,1,0,33.011V6.515A6.515,6.515,0,0,1,6.515,0Z" transform="translate(20.578 169.601)" fill="#f47458"/>
        <path id="Rectángulo_4589" data-name="Rectángulo 4589" d="M6.515,0H35.573a6.515,6.515,0,0,1,6.515,6.515v26.5a6.515,6.515,0,0,1-6.515,6.515H6.514A6.514,6.514,0,0,1,0,33.011V6.515A6.515,6.515,0,0,1,6.515,0Z" transform="translate(69.727 169.601)" fill="#fae0b2"/>
        <path id="Rectángulo_4590" data-name="Rectángulo 4590" d="M6.515,0H35.574a6.514,6.514,0,0,1,6.514,6.514v26.5a6.514,6.514,0,0,1-6.514,6.514H6.514A6.514,6.514,0,0,1,0,33.011V6.515A6.515,6.515,0,0,1,6.515,0Z" transform="translate(118.877 169.601)" fill="#fae0b2"/>
        <path id="Trazado_24958" data-name="Trazado 24958" d="M2076.868,1228.943h-24.939a8.589,8.589,0,0,0-8.574,8.6v71.044a8.589,8.589,0,0,0,8.574,8.6h24.939a8.589,8.589,0,0,0,8.574-8.6v-71.044A8.589,8.589,0,0,0,2076.868,1228.943Z" transform="translate(-1875.329 -1108.068)" fill="#fae0b2"/>
        <rect id="Rectángulo_4591" data-name="Rectángulo 4591" width="42.088" height="39.524" rx="6.514" transform="translate(20.578 218.327)" fill="#f47458"/>
        <rect id="Rectángulo_4592" data-name="Rectángulo 4592" width="42.088" height="39.524" rx="6.514" transform="translate(69.727 218.327)" fill="#fae0b2"/>
        <rect id="Rectángulo_4593" data-name="Rectángulo 4593" width="42.088" height="39.524" rx="6.514" transform="translate(118.877 218.327)" fill="#fae0b2"/>
        <path id="Rectángulo_4594" data-name="Rectángulo 4594" d="M6.514,0H35.573a6.515,6.515,0,0,1,6.515,6.515v26.5a6.514,6.514,0,0,1-6.514,6.514H6.514A6.514,6.514,0,0,1,0,33.011V6.514A6.514,6.514,0,0,1,6.514,0Z" transform="translate(168.026 218.327)" fill="#fae0b2"/>
        <rect id="Rectángulo_4595" data-name="Rectángulo 4595" width="42.088" height="39.524" rx="6.514" transform="translate(20.578 267.053)" fill="#f47458"/>
        <rect id="Rectángulo_4596" data-name="Rectángulo 4596" width="42.088" height="39.524" rx="6.514" transform="translate(69.727 267.053)" fill="#fae0b2"/>
        <rect id="Rectángulo_4597" data-name="Rectángulo 4597" width="42.088" height="39.524" rx="6.514" transform="translate(118.877 267.053)" fill="#fae0b2"/>
        <rect id="Rectángulo_4598" data-name="Rectángulo 4598" width="42.088" height="39.524" rx="6.514" transform="translate(168.026 267.053)" fill="#e87b50"/>
        <g id="Grupo_29972" data-name="Grupo 29972" transform="translate(34.75 227.704)">
          <path id="Trazado_24959" data-name="Trazado 24959" d="M1629.25,1572.16v2l-9.716,20.394h-3.124l9.682-19.809v-.069h-10.918v-2.515Z" transform="translate(-1615.174 -1572.16)" fill="#fff"/>
        </g>
        <g id="Grupo_29973" data-name="Grupo 29973" transform="translate(83.403 227.325)">
          <path id="Trazado_24960" data-name="Trazado 24960" d="M1771.482,1588.03c0-2.825,1.683-4.823,4.429-5.995l-.034-.1a5.546,5.546,0,0,1-3.536-5.03c0-3.549,2.987-5.96,6.9-5.96,4.326,0,6.489,2.721,6.489,5.512,0,1.895-.927,3.927-3.673,5.237v.1c2.781,1.1,4.5,3.066,4.5,5.787,0,3.893-3.33,6.511-7.588,6.511C1774.3,1594.093,1771.482,1591.3,1771.482,1588.03Zm12.017-.138c0-2.722-1.889-4.031-4.91-4.892-2.609.758-4.017,2.48-4.017,4.616a4.134,4.134,0,0,0,4.463,4.272C1781.748,1591.889,1783.5,1590.2,1783.5,1587.892Zm-8.309-11.2c0,2.24,1.682,3.445,4.257,4.134,1.923-.655,3.4-2.033,3.4-4.065a3.475,3.475,0,0,0-3.777-3.652A3.555,3.555,0,0,0,1775.19,1576.7Z" transform="translate(-1771.482 -1570.943)" fill="#fff"/>
        </g>
        <g id="Grupo_29974" data-name="Grupo 29974" transform="translate(83.369 275.452)">
          <path id="Trazado_24961" data-name="Trazado 24961" d="M1786.514,1736.9c0,7.613-2.815,11.816-7.759,11.816-4.36,0-7.313-4.1-7.382-11.506,0-7.51,3.227-11.644,7.759-11.644C1783.836,1725.564,1786.514,1729.767,1786.514,1736.9Zm-12.12.344c0,5.822,1.785,9.129,4.532,9.129,3.09,0,4.566-3.617,4.566-9.336,0-5.512-1.408-9.129-4.532-9.129C1776.317,1727.906,1774.394,1731.145,1774.394,1737.242Z" transform="translate(-1771.373 -1725.564)" fill="#fff"/>
        </g>
        <g id="Grupo_29975" data-name="Grupo 29975" transform="translate(133.395 227.325)">
          <path id="Trazado_24962" data-name="Trazado 24962" d="M1933.984,1591.578a12.56,12.56,0,0,0,2.438-.1,8.406,8.406,0,0,0,4.67-2.17,9.84,9.84,0,0,0,2.952-5.96h-.1a6.54,6.54,0,0,1-5.253,2.411c-4.017,0-6.592-3.032-6.592-6.855a7.666,7.666,0,0,1,7.622-7.958c4.567,0,7.382,3.721,7.382,9.439,0,4.926-1.648,8.371-3.845,10.507a11.14,11.14,0,0,1-6.489,3,14.035,14.035,0,0,1-2.781.172Zm1.1-12.884c0,2.79,1.683,4.754,4.292,4.754a4.99,4.99,0,0,0,4.395-2.343,2.007,2.007,0,0,0,.275-1.1c0-3.823-1.407-6.752-4.566-6.752C1936.9,1573.251,1935.083,1575.525,1935.083,1578.694Z" transform="translate(-1932.096 -1570.943)" fill="#fff"/>
        </g>
        <g id="Grupo_29976" data-name="Grupo 29976" transform="translate(33.308 178.024)">
          <path id="Trazado_24963" data-name="Trazado 24963" d="M1620.91,1434.944v-6.1h-10.369v-2l9.957-14.3h3.262v13.918h3.124v2.377h-3.124v6.1Zm0-8.475v-7.476q0-1.757.1-3.514h-.1c-.687,1.309-1.236,2.274-1.854,3.307l-5.459,7.613v.069Z" transform="translate(-1610.541 -1412.551)" fill="#fff"/>
        </g>
        <g id="Grupo_29977" data-name="Grupo 29977" transform="translate(83.574 178.024)">
          <path id="Trazado_24964" data-name="Trazado 24964" d="M1785.458,1415.1h-8.514l-.858,5.753a11.91,11.91,0,0,1,1.82-.138,9.407,9.407,0,0,1,4.806,1.206,6.387,6.387,0,0,1,3.193,5.753c0,4.375-3.468,7.648-8.309,7.648a10.9,10.9,0,0,1-5.562-1.378l.755-2.308a9.964,9.964,0,0,0,4.772,1.241c2.85,0,5.287-1.86,5.287-4.858-.034-2.894-1.957-4.961-6.42-4.961a22.957,22.957,0,0,0-3.09.241l1.442-10.749h10.678Z" transform="translate(-1772.034 -1412.551)" fill="#fff"/>
        </g>
        <g id="Grupo_29978" data-name="Grupo 29978" transform="translate(133.155 177.68)">
          <path id="Trazado_24965" data-name="Trazado 24965" d="M1944.438,1413.925a10.88,10.88,0,0,0-2.266.138,9.087,9.087,0,0,0-7.76,7.958h.1a6.643,6.643,0,0,1,5.39-2.584c3.949,0,6.73,2.859,6.73,7.235,0,4.1-2.781,7.889-7.416,7.889-4.773,0-7.9-3.72-7.9-9.543a14.1,14.1,0,0,1,3.777-10.094,12.128,12.128,0,0,1,7.141-3.307,14.448,14.448,0,0,1,2.2-.172Zm-.858,12.919c0-3.2-1.82-5.133-4.6-5.133a4.97,4.97,0,0,0-4.326,2.756,2.583,2.583,0,0,0-.343,1.344c.069,3.686,1.751,6.408,4.91,6.408C1941.829,1432.217,1943.58,1430.047,1943.58,1426.843Z" transform="translate(-1931.323 -1411.444)" fill="#fff"/>
        </g>
        <g id="Grupo_29979" data-name="Grupo 29979" transform="translate(36.364 130.415)">
          <path id="Trazado_24966" data-name="Trazado 24966" d="M1624.89,1262.418h-.069l-3.879,2.1-.584-2.308,4.875-2.618h2.575v22.392h-2.918Z" transform="translate(-1620.358 -1259.593)" fill="#fff"/>
        </g>
        <g id="Grupo_29980" data-name="Grupo 29980" transform="translate(83.677 130.035)">
          <path id="Trazado_24967" data-name="Trazado 24967" d="M1772.365,1281.146v-1.86l2.369-2.308c5.7-5.443,8.275-8.337,8.309-11.713,0-2.274-1.1-4.375-4.429-4.375a7.586,7.586,0,0,0-4.738,1.895l-.961-2.136a9.773,9.773,0,0,1,6.317-2.274c4.806,0,6.832,3.307,6.832,6.511,0,4.134-2.987,7.475-7.691,12.023l-1.785,1.653v.069h10.025v2.515Z" transform="translate(-1772.365 -1258.375)" fill="#fff"/>
        </g>
        <g id="Grupo_29981" data-name="Grupo 29981" transform="translate(133.43 130.035)">
          <path id="Trazado_24968" data-name="Trazado 24968" d="M1933.03,1277.667a10.069,10.069,0,0,0,4.943,1.413c3.88,0,5.082-2.48,5.047-4.341-.034-3.135-2.85-4.478-5.768-4.478h-1.682v-2.274h1.682c2.2,0,4.979-1.136,4.979-3.789,0-1.791-1.133-3.376-3.914-3.376a8.18,8.18,0,0,0-4.463,1.481l-.79-2.2a10.585,10.585,0,0,1,5.836-1.723c4.395,0,6.386,2.618,6.386,5.34,0,2.308-1.373,4.272-4.12,5.271v.068a5.827,5.827,0,0,1,4.978,5.753c0,3.583-2.781,6.718-8.137,6.718a11.317,11.317,0,0,1-5.8-1.516Z" transform="translate(-1932.206 -1258.375)" fill="#fff"/>
        </g>
        <g id="Grupo_29982" data-name="Grupo 29982" transform="translate(38.93 292.571)">
          <ellipse id="Elipse_1049" data-name="Elipse 1049" cx="2.692" cy="2.701" rx="2.692" ry="2.701" fill="#fff"/>
        </g>
        <g id="Grupo_29983" data-name="Grupo 29983" transform="translate(173.082 152.21)">
          <path id="Trazado_24969" data-name="Trazado 24969" d="M2091.575,1343.832h-14.167v-14.215h-3.643v14.215H2059.6v3.655h14.167V1361.7h3.643v-14.215h14.167Z" transform="translate(-2059.599 -1329.617)" fill="#fff"/>
        </g>
        <g id="Grupo_29984" data-name="Grupo 29984" transform="translate(130.491 278.242)">
          <path id="Trazado_24970" data-name="Trazado 24970" d="M1941.625,1751.512l-7.5-7.526,7.5-7.526-1.929-1.935-7.5,7.526-7.5-7.526-1.929,1.935,7.5,7.526-7.5,7.526,1.929,1.935,7.5-7.526,7.5,7.526Z" transform="translate(-1922.767 -1734.525)" fill="#fff"/>
        </g>
        <g id="Grupo_29985" data-name="Grupo 29985" transform="translate(176.332 237.313)">
          <rect id="Rectángulo_4599" data-name="Rectángulo 4599" width="23.724" height="3.645" fill="#fff"/>
        </g>
        <g id="Grupo_29986" data-name="Grupo 29986" transform="translate(177.208 279.445)">
          <rect id="Rectángulo_4600" data-name="Rectángulo 4600" width="23.724" height="3.645" fill="#fff"/>
        </g>
        <g id="Grupo_29987" data-name="Grupo 29987" transform="translate(177.208 288.622)">
          <rect id="Rectángulo_4601" data-name="Rectángulo 4601" width="23.724" height="3.645" fill="#fff"/>
        </g>
      </g>
      <path id="Trazado_24971" data-name="Trazado 24971" d="M1106.943,267.673h0l-.062-.021c-.583-.21-1.176-.4-1.775-.57-.2-.059-.408-.12-.614-.175s-.436-.109-.655-.161-.444-.107-.668-.155-.424-.087-.637-.128q-.358-.069-.718-.129-.307-.05-.615-.1c-.26-.037-.521-.07-.783-.1-.191-.022-.381-.045-.573-.063-.3-.029-.6-.049-.9-.069-.159-.01-.317-.024-.476-.031-.464-.022-.93-.035-1.4-.035H881.783q-.752,0-1.494.038a29.115,29.115,0,0,0-2.927.3q-.721.11-1.429.256A29.111,29.111,0,0,0,852.9,292.09a29.511,29.511,0,0,0-.15,2.978V736.541a29.132,29.132,0,0,0,19.151,27.4h0c.049.018.1.033.149.051.554.2,1.116.376,1.685.54.2.06.409.121.616.176s.436.108.655.161.444.107.668.155.424.087.637.128q.358.069.719.129c.2.034.409.066.615.1.26.037.521.069.783.1.19.022.381.045.572.063.3.029.6.049.9.069.159.01.317.024.476.032.464.022.93.035,1.4.035h215.281a29.1,29.1,0,0,0,29.029-29.128V295.068A29.132,29.132,0,0,0,1106.943,267.673Z" transform="translate(-633.184 -221.491)" fill="#f47458"/>
      <rect id="Rectángulo_4602" data-name="Rectángulo 4602" width="245.195" height="420.33" transform="translate(233.642 84.149)" fill="#f3fcff"/>
      <rect id="Rectángulo_4603" data-name="Rectángulo 4603" width="104.921" height="5.267" rx="0.868" transform="translate(303.978 65.672)" fill="#fff"/>
      <ellipse id="Elipse_1050" data-name="Elipse 1050" cx="12.042" cy="12.083" rx="12.042" ry="12.083" transform="translate(344.056 512.647)" fill="#daeef7" opacity="0.3"/>
      <rect id="Rectángulo_4604" data-name="Rectángulo 4604" width="245.195" height="17.636" transform="translate(233.642 486.843)" fill="#3cb4c5" opacity="0.2"/>
      <rect id="Rectángulo_4605" data-name="Rectángulo 4605" width="245.195" height="22.306" transform="translate(233.642 84.149)" fill="#3cb4c5" opacity="0.2"/>
      <g id="Grupo_29989" data-name="Grupo 29989" transform="translate(48.019 71.556)">
        <path id="Trazado_24972" data-name="Trazado 24972" d="M556.115,426.513H343.17a13.341,13.341,0,0,0-13.318,13.364v88.177a13.341,13.341,0,0,0,13.318,13.364H510.822c6.785,9.5,19.087,26.513,20.173,26.513,1.017,0-.941-16.069-2.32-26.513h27.441a13.341,13.341,0,0,0,13.318-13.364V439.877A13.341,13.341,0,0,0,556.115,426.513Z" transform="translate(-321.06 -403.64)" fill="#daeef7" opacity="0.3" style="mix-blend-mode: multiply;isolation: isolate"/>
        <path id="Trazado_24973" data-name="Trazado 24973" d="M527.869,353.029H314.923a13.341,13.341,0,0,0-13.318,13.364v88.177a13.341,13.341,0,0,0,13.318,13.364H482.575c6.785,9.5,19.087,26.513,20.173,26.513,1.017,0-.941-16.069-2.32-26.513h27.441a13.341,13.341,0,0,0,13.318-13.364V366.393A13.341,13.341,0,0,0,527.869,353.029Z" transform="translate(-301.605 -353.029)" fill="#9bc1f9"/>
        <rect id="Rectángulo_4606" data-name="Rectángulo 4606" width="104.99" height="5.822" rx="0.959" transform="translate(22.022 28.59)" fill="#fff"/>
        <path id="Rectángulo_4607" data-name="Rectángulo 4607" d="M.959,0h43.31a.959.959,0,0,1,.959.959v3.9a.96.96,0,0,1-.96.96H.959A.959.959,0,0,1,0,4.862V.959A.959.959,0,0,1,.959,0Z" transform="translate(22.022 43.951)" fill="#fff"/>
        <path id="Rectángulo_4608" data-name="Rectángulo 4608" d="M.959,0H139.8a.96.96,0,0,1,.96.96v3.9a.96.96,0,0,1-.96.96H.959A.959.959,0,0,1,0,4.862V.959A.959.959,0,0,1,.959,0Z" transform="translate(72.349 43.951)" fill="#fff"/>
        <rect id="Rectángulo_4609" data-name="Rectángulo 4609" width="75.793" height="5.822" rx="0.959" transform="translate(137.742 28.59)" fill="#fff"/>
        <path id="Rectángulo_4610" data-name="Rectángulo 4610" d="M.959,0h189.6a.959.959,0,0,1,.959.959v3.9a.96.96,0,0,1-.96.96H.959A.959.959,0,0,1,0,4.862V.959A.959.959,0,0,1,.959,0Z" transform="translate(22.022 74.062)" fill="#fff"/>
        <path id="Rectángulo_4611" data-name="Rectángulo 4611" d="M.959,0H97.977a.959.959,0,0,1,.959.959v3.9a.96.96,0,0,1-.96.96H.96A.96.96,0,0,1,0,4.862V.959A.959.959,0,0,1,.959,0Z" transform="translate(22.022 59.313)" fill="#fff"/>
        <path id="Rectángulo_4612" data-name="Rectángulo 4612" d="M.959,0H85.874a.959.959,0,0,1,.959.959v3.9a.96.96,0,0,1-.96.96H.959A.959.959,0,0,1,0,4.862V.959A.959.959,0,0,1,.959,0Z" transform="translate(126.702 59.313)" fill="#fff"/>
      </g>
      <path id="Rectángulo_4613" data-name="Rectángulo 4613" d="M.858,0H64.6a.858.858,0,0,1,.858.858V4.344A.857.857,0,0,1,64.6,5.2H.857A.857.857,0,0,1,0,4.344V.858A.858.858,0,0,1,.858,0Z" transform="translate(514.171 46.417) rotate(180)" fill="#fff"/>
      <path id="Trazado_24974" data-name="Trazado 24974" d="M1500.852,208.532H1691.1a11.919,11.919,0,0,1,11.9,11.939v78.776a11.918,11.918,0,0,1-11.9,11.939H1541.317c-6.061,8.488-17.052,23.687-18.022,23.687-.909,0,.84-14.356,2.073-23.687h-24.516a11.919,11.919,0,0,1-11.9-11.939V220.471A11.919,11.919,0,0,1,1500.852,208.532Z" transform="translate(-1071.361 -181.952)" fill="#daeef7" opacity="0.3" style="mix-blend-mode: multiply;isolation: isolate"/>
      <path id="Trazado_24975" data-name="Trazado 24975" d="M1526.087,142.882H1716.33a11.919,11.919,0,0,1,11.9,11.939V233.6a11.919,11.919,0,0,1-11.9,11.939H1566.552c-6.062,8.487-17.052,23.687-18.022,23.687-.909,0,.84-14.356,2.073-23.687h-24.516a11.919,11.919,0,0,1-11.9-11.939V154.821A11.919,11.919,0,0,1,1526.087,142.882Z" transform="translate(-1088.742 -136.736)" fill="#9bc1f9"/>
      <path id="Rectángulo_4614" data-name="Rectángulo 4614" d="M.858,0H57.3a.857.857,0,0,1,.857.857V4.344A.857.857,0,0,1,57.3,5.2H.857A.857.857,0,0,1,0,4.344V.858A.858.858,0,0,1,.858,0Z" transform="translate(615.069 36.889) rotate(180)" fill="#fff"/>
      <path id="Rectángulo_4615" data-name="Rectángulo 4615" d="M.857,0H38.429a.857.857,0,0,1,.857.857V4.344a.857.857,0,0,1-.857.857H.856A.856.856,0,0,1,0,4.344V.857A.857.857,0,0,1,.857,0Z" transform="translate(615.069 53.876) rotate(180)" fill="#fff"/>
      <path id="Rectángulo_4616" data-name="Rectángulo 4616" d="M.857,0H47.489a.857.857,0,0,1,.857.857V4.345a.856.856,0,0,1-.856.856H.857A.857.857,0,0,1,0,4.344V.857A.857.857,0,0,1,.857,0Z" transform="translate(571.038 53.876) rotate(180)" fill="#fff"/>
      <path id="Rectángulo_4617" data-name="Rectángulo 4617" d="M.857,0H66.71a.858.858,0,0,1,.858.858V4.344a.857.857,0,0,1-.857.857H.857A.857.857,0,0,1,0,4.343V.857A.857.857,0,0,1,.857,0Z" transform="translate(516.568 53.876) rotate(180)" fill="#fff"/>
      <path id="Rectángulo_4618" data-name="Rectángulo 4618" d="M.857,0H96.692a.858.858,0,0,1,.858.858V4.344a.857.857,0,0,1-.857.857H.858A.858.858,0,0,1,0,4.343V.857A.857.857,0,0,1,.857,0Z" transform="translate(546.266 36.889) rotate(180)" fill="#fff"/>
      <path id="Rectángulo_4619" data-name="Rectángulo 4619" d="M.857,0H165.5a.857.857,0,0,1,.857.857V4.344a.857.857,0,0,1-.857.857H.858A.858.858,0,0,1,0,4.343V.857A.857.857,0,0,1,.857,0Z" transform="translate(615.069 87.147) rotate(180)" fill="#fff"/>
      <path id="Rectángulo_4620" data-name="Rectángulo 4620" d="M.858,0H85.08a.857.857,0,0,1,.857.857V4.344a.857.857,0,0,1-.857.857H.857A.857.857,0,0,1,0,4.344V.858A.858.858,0,0,1,.858,0Z" transform="translate(615.069 70.707) rotate(180)" fill="#fff"/>
      <path id="Rectángulo_4621" data-name="Rectángulo 4621" d="M.857,0H75.3a.857.857,0,0,1,.857.857V4.344A.857.857,0,0,1,75.3,5.2H.858A.858.858,0,0,1,0,4.343V.857A.857.857,0,0,1,.857,0Z" transform="translate(524.869 70.707) rotate(180)" fill="#fff"/>
      <g id="Grupo_29990" data-name="Grupo 29990" transform="translate(253.963 138.368)">
        <path id="Trazado_24976" data-name="Trazado 24976" d="M1004.271,905.444s-47.526,6.859-40.264,52.725c6.771,42.763,47.526,34.078,57.992,31.935S1004.271,905.444,1004.271,905.444Z" transform="translate(-963.252 -800.312)" fill="#f7cc7f"/>
        <path id="Trazado_24977" data-name="Trazado 24977" d="M1025.182,1091.52c4.873-1,1.364-19.422-3.777-38.827-17.5,3.429-36.986,7.257-53.532,10.523C976.327,1101.842,1015.023,1093.6,1025.182,1091.52Z" transform="translate(-966.435 -901.728)" fill="#e8ba70"/>
        <path id="Trazado_24978" data-name="Trazado 24978" d="M1182.874,1167.674s10.438,37.269,7.69,66.227c-2.563,27,1.281,31.506,11.321,30.648s34.39-6.858,34.817-16.5-4.059-59.155-20.933-85.731S1182.874,1167.674,1182.874,1167.674Z" transform="translate(-1114.515 -969.952)" fill="#96d9c9"/>
        <path id="Trazado_24979" data-name="Trazado 24979" d="M1199.1,1152.975c-6.692,4.5-16.222,15.543-16.222,15.543s10.438,37.269,7.69,66.227c-2.563,27,1.281,31.506,11.321,30.648a84.534,84.534,0,0,0,14.935-2.946C1220.823,1196.076,1203.7,1160.485,1199.1,1152.975Z" transform="translate(-1114.515 -970.796)" fill="#50bfa5"/>
        <path id="Trazado_24980" data-name="Trazado 24980" d="M1293.828,615.208s-78.819,57.386-104.291,74.746l-14.9,22.183,10.573,64.62,25.472,12.538,124.476,24.594-2.884-13.985-22.588-62.691-11.535-71.371-3.364-43.884Z" transform="translate(-1108.843 -600.414)" fill="#96d9c9"/>
        <path id="Trazado_24981" data-name="Trazado 24981" d="M1323.1,965.779l-3.024-18.711L1194.11,977.743l4.513,27.579,25.472,12.538,124.475,24.594-2.884-13.985Z" transform="translate(-1122.254 -828.979)" fill="#50bfa5"/>
        <path id="Trazado_24982" data-name="Trazado 24982" d="M1126.782,844.124s-10.413,54.814,21.146,99.341a5.517,5.517,0,0,1-2.082,6.7l-23.5,6s-10.893,3.858-20.078-11.788-25.418-50.8-15.806-89.589c0,0,2.349-10.5,15.166-12.431l17.088-3.215S1126.3,837.963,1126.782,844.124Z" transform="translate(-1046.087 -754.584)" fill="#3c8f7c"/>
        <path id="Trazado_24983" data-name="Trazado 24983" d="M1539.99,582.473s20.505-15.11,32.36-14.789,23.71,16.074,31.4,28.934,27.875,63.334,29.8,97.412,1.6,82.623-15.059,88.41-37.166-1.286-37.166-1.286-26.914-23.147-42.613-95.161S1539.99,582.473,1539.99,582.473Z" transform="translate(-1355.005 -567.68)" fill="#256653"/>
        <path id="Trazado_24984" data-name="Trazado 24984" d="M1643.746,790.072s19.166-24.914,9.4-92.183C1637.764,591.976,1599,575.959,1599,575.959s-28.694,21.867-1.282,124.218C1620.3,784.515,1643.746,790.072,1643.746,790.072Z" transform="translate(-1392.064 -573.382)" fill="#3c8f7c"/>
        <path id="Trazado_24985" data-name="Trazado 24985" d="M1594.48,835.944a389.348,389.348,0,0,0,9.175,43.07c2.189,8.172,4.385,15.6,6.568,22.355,11.92-4.142,31.2-14.519,22.964-40.842C1625.56,836.137,1605.7,834.646,1594.48,835.944Z" transform="translate(-1398.004 -752.218)" fill="#f7cc7f"/>
        <path id="Trazado_24986" data-name="Trazado 24986" d="M1618.334,936.528c2.189,8.172,4.385,15.6,6.568,22.355,11.755-4.085,30.662-14.234,23.288-39.76l-32.4,7.491Q1616.976,931.443,1618.334,936.528Z" transform="translate(-1412.684 -809.733)" fill="#e8ba70"/>
        <path id="Trazado_24987" data-name="Trazado 24987" d="M1156.445,1079.6a121.49,121.49,0,0,1-18.916-42.89l-41.64,7.885a143.045,143.045,0,0,0,14.9,35.915c9.185,15.646,20.078,11.788,20.078,11.788l23.5-6A5.518,5.518,0,0,0,1156.445,1079.6Z" transform="translate(-1054.605 -890.722)" fill="#3c8f7c" opacity="0.3" style="mix-blend-mode: multiply;isolation: isolate"/>
      </g>
      <g id="Grupo_29995" data-name="Grupo 29995" transform="translate(667.811 87.432)">
        <g id="Grupo_29991" data-name="Grupo 29991" transform="translate(73.09)">
          <path id="Trazado_24988" data-name="Trazado 24988" d="M2580.515,423.711l-.189,20.644,13.083-12.316,41.236-28.006-33.657,7.34s-16.822,6.373-17.655,7.342A42.7,42.7,0,0,0,2580.515,423.711Z" transform="translate(-2563.934 -404.034)" fill="#dd513a"/>
          <path id="Trazado_24989" data-name="Trazado 24989" d="M2527.664,413.311l70.711-9.278-54.13,19.677Z" transform="translate(-2527.664 -404.034)" fill="#f47458"/>
          <path id="Trazado_24990" data-name="Trazado 24990" d="M2617,441.33l-20.382-12.652,49.248-24.644Z" transform="translate(-2575.156 -404.034)" fill="#f47458"/>
        </g>
        <g id="Grupo_29994" data-name="Grupo 29994" transform="translate(0 29.163)">
          <g id="Grupo_29992" data-name="Grupo 29992" transform="translate(0 7.459)">
            <path id="Trazado_24991" data-name="Trazado 24991" d="M2292.846,589.964a45.559,45.559,0,0,1,.32-4.967c.182-1.522.443-3.064.778-4.583l1.64.364c-.324,1.466-.576,2.953-.751,4.42a43.836,43.836,0,0,0-.308,4.783q-.007.7.008,1.394l-1.679.037C2292.844,590.921,2292.841,590.434,2292.846,589.964Zm4.608-20a64.109,64.109,0,0,1,5.411-9.576l1.386.951a62.47,62.47,0,0,0-5.268,9.323Zm52.443-9.878c-.1-.049-.208-.1-.311-.152l.754-1.505c.09.045.181.09.257.126a.967.967,0,0,0,.174.032,7.722,7.722,0,0,0,4.558-1.151,7.142,7.142,0,0,0,2.319-3.4l1.588.55a8.913,8.913,0,0,1-2.877,4.183,9.319,9.319,0,0,1-5.788,1.493A2.186,2.186,0,0,1,2349.9,560.083Zm-40.2-8.292a87.627,87.627,0,0,1,7.9-7.6l1.085,1.286a85.868,85.868,0,0,0-7.749,7.449Zm31.944-3.932a20.556,20.556,0,0,1,0-4.986,24.52,24.52,0,0,1,.5-2.8l1.633.4a22.6,22.6,0,0,0-.47,2.6,18.845,18.845,0,0,0,0,4.575,15.634,15.634,0,0,0,.712,3.083l-1.589.545A17.321,17.321,0,0,1,2341.637,547.86Zm6.959-9.508-.224-.075.522-1.6.243.082a16.9,16.9,0,0,1,8.723,6.653l-1.415.908A15.2,15.2,0,0,0,2348.6,538.352Zm-21.407.349a38.343,38.343,0,0,1,6.792-2.481c1.368-.236,2.627-.407,3.85-.52l.155,1.678c-1.178.11-2.4.274-3.72.5a34.622,34.622,0,0,0-6.394,2.359Zm19.491-8.763a37.628,37.628,0,0,1,7.385-8.246l1.072,1.3a35.972,35.972,0,0,0-7.055,7.877Z" transform="translate(-2292.844 -521.692)" fill="#6db1b5"/>
          </g>
          <g id="Grupo_29993" data-name="Grupo 29993" transform="translate(70.686)">
            <path id="Trazado_24992" data-name="Trazado 24992" d="M2520.58,501.017a32.309,32.309,0,0,1,5.14-1.647l-.373-1.643a34,34,0,0,0-5.407,1.732Z" transform="translate(-2519.94 -497.727)" fill="#6db1b5"/>
          </g>
        </g>
      </g>
      <g id="Grupo_29999" data-name="Grupo 29999" transform="translate(546.5 235.74)">
        <path id="Trazado_24993" data-name="Trazado 24993" d="M1920.959,1120.511l-.86.772a1.057,1.057,0,0,1-1.487-.037l-15.258-16.831a1.044,1.044,0,0,1,.115-1.476l.86-.772a1.055,1.055,0,0,1,1.487.037l15.258,16.83A1.044,1.044,0,0,1,1920.959,1120.511Z" transform="translate(-1903.101 -1032.977)" fill="#13375b"/>
        <path id="Trazado_24994" data-name="Trazado 24994" d="M1980.326,1117.245c-2.039-1.664-17.811,5.28-17.61,7.7s-11.005,25.851-11.005,25.851l-19.363-15.492-.008.005c-.171-.56-2.007-6.586-2.1-7.664-.094-1.13-3.366-3.109-4.885-2.818s1.3,2.2,1.485,2.555c.5.956-1.444,1.314-1.444,1.314s-5.595-3.081-5.714-4.893-1.274-5.609-2.483-4.816c-.624.41-.618,3.1-.423,4.383-.359-1.451-.868-3.09-1.364-3.252-.905-.3-1.355.859-1.191,1.426s1.626,6.729,2.07,7.423c.434.677,9.469,7.981,10.771,9.567,0,0,25.046,28.729,26.829,29.481,1.564.659,7.143-9.241,12.415-15.814S1986.7,1122.444,1980.326,1117.245Z" transform="translate(-1910.739 -1043.384)" fill="#f7a491"/>
        <path id="Trazado_24995" data-name="Trazado 24995" d="M2284.5,1775.623s3.442,3.37,3.52,4.606.3,14.485-1.1,15.722-5.532,2.114-4.205,3.5c1,1.051,8.718.826,13.831.544,1.492-.082,3.364-12.031,3.956-13.788.858-2.551,2.946-8.3,2.166-10.074-.38-.866-2.2-2.646-4.764-4.308-2.7-1.748-5.277-5.639-5.277-5.639Z" transform="translate(-2164.38 -1490.515)" fill="#f48c7f"/>
        <path id="Trazado_24996" data-name="Trazado 24996" d="M2145.823,1821.29s3.08,8.73,3.084,8.753c.229,1.384,1.13,4.8,1.13,6.058,0,4.724-21.231-4.01-16.472-6.1a5.05,5.05,0,0,0,1.923-3.311c.218-2.477-1.789-5.584-1.789-5.584Z" transform="translate(-2061.352 -1528.335)" fill="#f7a491"/>
        <g id="Grupo_29996" data-name="Grupo 29996" transform="translate(45.447 130.385)">
          <path id="Trazado_24997" data-name="Trazado 24997" d="M2054.828,1299.405s-1.548,15.651-1.548,15.885c0,25.317-5,74.771-4.05,79.531,2.32,11.61,27.3,70.834,27.3,70.834l13.5-1.619-17.59-70.909,6.473-28.541,9.16-56.417Z" transform="translate(-2049.11 -1299.405)" fill="#355389"/>
          <path id="Trazado_24998" data-name="Trazado 24998" d="M2121.416,1318.19l2.562,14.834,6.929,61.05,26.391,59.667s-3.712,8.682-9.189,9.9l-42-61.26-26.091-78.387.915-17.415Z" transform="translate(-2070.396 -1304.347)" fill="#13375b"/>
        </g>
        <path id="Trazado_24999" data-name="Trazado 24999" d="M2050.186,1089.032l18.717,1.917s.859-15.4.859-22.741c0-8.91-.757-20.387-1.829-20.14-3.01.693-7.063,2.361-9.476,5.688C2050.106,1065.268,2050.186,1089.032,2050.186,1089.032Z" transform="translate(-2004.404 -995.911)" fill="#86b1f2"/>
        <path id="Trazado_25000" data-name="Trazado 25000" d="M2062.939,1065.325c-.392,2.717-7.587,76.574-7.587,76.574,34.08,16.516,52.886,2.942,52.886,2.942s-1.115-51.864.222-58.922c.884-4.671,1.986-35.705-1.03-36.574a75.29,75.29,0,0,0-13.146-2.8c-4.129-.43-20.17-.68-23.04.288A36.711,36.711,0,0,0,2062.939,1065.325Z" transform="translate(-2007.963 -994.6)" fill="#9bc1f9"/>
        <path id="Trazado_25001" data-name="Trazado 25001" d="M2294.678,1784.038s-7.932,22.41-11.037,23.492c-.825.287-4.781,1.016-5.527,2.771a7.619,7.619,0,0,0,0,2.295h16.533s2.091-9.874,2.918-14.212c0,0,4.377-10.6,3.89-11.563S2294.678,1784.038,2294.678,1784.038Z" transform="translate(-2161.319 -1502.806)" fill="#184655"/>
        <path id="Trazado_25002" data-name="Trazado 25002" d="M2114.841,1857.241l-2.431-7.707s-5.106,2.167-7.659,1.806a77.2,77.2,0,0,1-7.537-1.806c-10.191,3.365-18.539,5-17.02,7.707h34.648Z" transform="translate(-2024.948 -1547.917)" fill="#184655"/>
        <g id="Grupo_29997" data-name="Grupo 29997" transform="translate(40.874 105.365)">
          <path id="Trazado_25003" data-name="Trazado 25003" d="M2036.7,1238.286a4.416,4.416,0,0,1-.514-.383c.606-7.236.5-14.247-1.767-16.618.054-.114.549-1.169,1.066-2.263,2.623,2.036,3.869,7.443,3.38,16.222a14.923,14.923,0,0,1-.346,1.818C2037.76,1237.9,2037.07,1238.442,2036.7,1238.286Z" transform="translate(-2034.42 -1219.022)" fill="#f7a491"/>
        </g>
        <path id="Trazado_25004" data-name="Trazado 25004" d="M2257.6,1180.887a2.052,2.052,0,0,0,.009-.476c-.5-5.115-4.734-48.064-5.448-49.891-.643-1.648-19.625-28.889-19.625-28.889l-9.33,12.754,18.255,24.433c.409,1.553,7,30.546,7,30.546s1.35,5.285,1.955,8.451c-.276.763-.546,1.483-.786,2.074a19.121,19.121,0,0,1-1.967,3.172,21.793,21.793,0,0,0-2.332,4.136c-.193.746-.542,2.3-.739,3.232s-.467,2.025-.513,2.533a4.893,4.893,0,0,1-.59,1.36.817.817,0,0,0,.962,1.179c.663-.221,1.179-1.083,1.5-1.619.9-1.515,1.377-4.282,1.6-4.135s1.011,4.84,1.135,5.37,1.069,5.981,1.6,6.977,1.238.829,1.425.206c.161-.537-.588-8.163-.588-8.163s-.093-.973.331-.669,1.119,7.226,1.414,8.239.969,1.55,1.54.736c.695-.99-.5-8.333-.5-8.333s-.134-.923.259-.837.885,5.986,1.191,6.5a.774.774,0,0,0,1.446-.157c.433-1-.689-7.547-.689-7.547s.055-.521.3-.348,1.023,5.172,1.53,5.635a.537.537,0,0,0,.781.011c.93-.637-.5-5.392-.482-7.757s-1.079-5.022-.753-7.837C2257.5,1181.594,2257.562,1181.16,2257.6,1180.887Z" transform="translate(-2123.569 -1032.806)" fill="#f8a492"/>
        <path id="Trazado_25005" data-name="Trazado 25005" d="M2229.04,1087.81l-16.214,10.924s-9.139-13.645-14.045-18.5c-6.145-6.086,2.239-24.728,6.2-23.673C2213.835,1058.916,2229.04,1087.81,2229.04,1087.81Z" transform="translate(-2105.245 -1001.731)" fill="#9bc1f9"/>
        <path id="Trazado_25006" data-name="Trazado 25006" d="M2145.054,993.98l2.425,16.039s-8.857,19.1-14.145,17.441c-4.437-1.39-1.707-18.288-1.707-18.288s2.418-9.075,1.693-13.616S2145.054,993.98,2145.054,993.98Z" transform="translate(-2059.925 -958.007)" fill="#f7a491"/>
        <path id="Trazado_25007" data-name="Trazado 25007" d="M2138.218,995.557c-.725-4.541,11.734-1.577,11.734-1.577l.2,1.33a7.379,7.379,0,0,1-1.351,2.235,16.378,16.378,0,0,1-10.893,4.947A24.845,24.845,0,0,0,2138.218,995.557Z" transform="translate(-2064.822 -958.007)" fill="#f47458"/>
        <g id="Grupo_29998" data-name="Grupo 29998" transform="translate(65.9)">
          <path id="Trazado_25008" data-name="Trazado 25008" d="M2136.094,912.093c.352-.129,2.823,18.268-1.865,23.329s-13.822,6.719-17.1,2.732c-3.624-4.41-3.442-24.181,3.847-29.388S2136.094,912.093,2136.094,912.093Z" transform="translate(-2114.82 -898.812)" fill="#f7a491"/>
          <path id="Trazado_25009" data-name="Trazado 25009" d="M2129.512,880.624a20.23,20.23,0,0,1,10.623,6.079c2.558.3,6.035,1.722,9.625,7.687,4.415,7.334,1.155,15.459-3.984,19.446s-5.068,8.592-5.068,8.592l-.812-2.382a13.359,13.359,0,0,1-.644-5.61,11,11,0,0,1,.831-3.373c1.236-2.662-2.655-4.431-3.746-6.646-.84-1.706-.881-5.608-2.2-8.427l-1.581-2.152s-3.647-2.847-7.214-2.044S2122.283,879.145,2129.512,880.624Z" transform="translate(-2120.579 -880.511)" fill="#184655"/>
          <path id="Trazado_25010" data-name="Trazado 25010" d="M2166.215,958.927c-.037,2.245.979,4.082,2.271,4.1s2.368-1.779,2.406-4.024-.979-4.082-2.271-4.1S2166.252,956.682,2166.215,958.927Z" transform="translate(-2150.217 -931.747)" fill="#f7a491"/>
        </g>
        <path id="Trazado_25011" data-name="Trazado 25011" d="M2126.123,983.68l-7.066-.367a3.1,3.1,0,0,0,3.127,2.953C2125.967,986.573,2126.123,983.68,2126.123,983.68Z" transform="translate(-2051.839 -951.315)" fill="#fff"/>
      </g>
      <path id="Trazado_25012" data-name="Trazado 25012" d="M1089.112,1694.807l3.456-.657-14.931-79.469-3.456.657Z" transform="translate(-785.69 -1150.424)" fill="#0e2e35"/>
      <path id="Trazado_25013" data-name="Trazado 25013" d="M989.227,1695.169h-4.157l15.49-80.487,3.456.657Z" transform="translate(-724.317 -1150.424)" fill="#0e2e35"/>
      <path id="Trazado_25014" data-name="Trazado 25014" d="M842.574,1695.969l3.375.04L831.1,1615.843l-3.456.657Z" transform="translate(-615.889 -1151.224)" fill="#0e2e35"/>
      <path id="Trazado_25015" data-name="Trazado 25015" d="M791.67,1265.667c-13.684,1.47-31.392,3.022-49.17,33.293-19.43,33.085-9.2,82.505,6.134,96.238s65.422,30.691,107.526,5.3c0,0,25.423-15.384,12.376-40.916-20.078-39.291-17.242-47.484-26.219-62.882S820.716,1262.546,791.67,1265.667Z" transform="translate(-549.909 -909.807)" fill="#fae0b2"/>
      <path id="Trazado_25016" data-name="Trazado 25016" d="M742.5,1304.9c12.134-20.661,24.235-27.942,35.047-30.95a90.824,90.824,0,0,0-12.666,17.155c-19.43,33.085-9.2,82.505,6.134,96.239,13.6,12.179,54.529,26.888,92.985,12.358a39.113,39.113,0,0,1-7.84,6.742c-42.1,25.386-92.191,8.429-107.526-5.3S723.07,1337.989,742.5,1304.9Z" transform="translate(-549.909 -915.751)" fill="#f7cc7f"/>
      <path id="Trazado_25017" data-name="Trazado 25017" d="M1049.26,1427.988l3.517,10.587-10.719-4.23Z" transform="translate(-763.566 -1021.841)" fill="#f79c8d"/>
      <path id="Trazado_25018" data-name="Trazado 25018" d="M1014.559,1326.767c.715.029,2.672.685,5.536,6.1,3.657,6.911,9,27.786,9,27.786l-15.953,5.941-2.049-4.357-3.376-33.545S1014.361,1326.759,1014.559,1326.767Z" transform="translate(-739.915 -952.125)" fill="#dd513a"/>
      <path id="Trazado_25019" data-name="Trazado 25019" d="M899.34,1317.1c4.562.006,15.849,1.337,21.088,3.01,0,0,3.849,33.078-3.465,58.212-1.637,5.626,1.354,23.324,1.354,23.324l-47.27-.624s5.6-42.783,3.49-49.694-2.16-31-2.16-31,.324-.05,10.62-1.83A107.01,107.01,0,0,1,899.34,1317.1Z" transform="translate(-645.784 -945.467)" fill="#f47458"/>
      <path id="Trazado_25020" data-name="Trazado 25020" d="M914.52,1785.968s1.046,12.069,2.969,15.412-.1,9.025-.2,9.8-4.048,1.894-10.322,1.226-6.173-2.117-5.667-4.456,3.846-5.348,4.048-7.576-1.923-10.25-1.923-10.25Z" transform="translate(-666.472 -1268.396)" fill="#f7a491"/>
      <path id="Trazado_25021" data-name="Trazado 25021" d="M911.2,1555.081s32.63-1.812,39.917,2.6-1.318,13.475-1.318,13.475-26.565,11.55-71.038,14.117c-10.531.608-11.439-27.46-9.47-29.783S911.2,1555.081,911.2,1555.081Z" transform="translate(-644 -1108.865)" fill="#256653"/>
      <path id="Trazado_25022" data-name="Trazado 25022" d="M905.33,1849.056c-6.46-.688-5.662-3.862-5.141-6.272.326-1.508,2.18-3.287,3.284-4.969a10.763,10.763,0,0,0,4.323,2.1c2.913.861,6.907-.843,9.452-1.909a31.209,31.209,0,0,1,.864,8.334C918.009,1847.144,911.791,1849.744,905.33,1849.056Z" transform="translate(-665.621 -1304.105)" fill="#184655"/>
      <path id="Trazado_25023" data-name="Trazado 25023" d="M874.2,1579.142c1.3,9.865,7.758,58.974,7.758,58.974l-14.977,1.857s-18.418-64.1-17.473-73.9,7.839-10.629,7.839-10.629S870.751,1553.028,874.2,1579.142Z" transform="translate(-630.926 -1109.582)" fill="#3c8f7c"/>
      <path id="Trazado_25024" data-name="Trazado 25024" d="M857.358,1339.188c4.42-1.658,6.582,38.164,7.177,54.555,7.827.753,21.469.006,24.865-.249,1.6-.12,5.281-1.469,6.87-1.677a15.9,15.9,0,0,1,3.9-.185c.294.051,8.452,3.387,9.149,4.119.866.907,3.205,3.2,2.81,4.186s-4.5-2.758-4.5-2.758l-2.006-1.125c2.5,2.44,7.261,5.653,6.575,6.823-.669,1.141-4.966-2.119-8.029-4.342,2.627,2.373,5.89,6.619,5.138,7.28-.676.6-4.388-4.321-8.355-5.736-1.47-.524-2.935.928-4.092,1.1a8.312,8.312,0,0,1-3,.167l-4.3-1.218c-1.463.132-1.5,1-2.978,1.312-1.715.365-4.53.75-6.715,1.283-12.579,3.074-16.776,4.5-20.627,4.5C847.589,1407.217,846.912,1343.106,857.358,1339.188Z" transform="translate(-631.279 -960.646)" fill="#f7a491"/>
      <path id="Trazado_25025" data-name="Trazado 25025" d="M846.013,1368.34c-.828-16.789-.707-37.483,8.705-41.013,3.713-1.393,10.26,6.983,9.083,41.354C858.777,1369.1,851.4,1369.43,846.013,1368.34Z" transform="translate(-628.322 -952.412)" fill="#dd513a"/>
      <path id="Trazado_25026" data-name="Trazado 25026" d="M981.853,1436.234h-.959l-14.422,35.442.993-.151Z" transform="translate(-711.506 -1027.52)" fill="#f79c8d"/>
      <path id="Trazado_25027" data-name="Trazado 25027" d="M1058.981,1819.137s-1.307,4.19,1.033,6.961,12.063,5.49,13.34,6.99a4.207,4.207,0,0,1,1.18,2.779l-27.291-.751.3-8.242,1.257-5.923Z" transform="translate(-767.137 -1291.241)" fill="#f7a491"/>
      <path id="Trazado_25028" data-name="Trazado 25028" d="M1058.332,1844.549s-7.013,2.837-10.4,1.157-3.285-2.145-4.265-1.519-1.331,8.353-1.331,8.353l30.688.9c2.136-.049,3.215-1.622,1.48-2.968a25.03,25.03,0,0,0-3.346-1.99C1068.758,1847.108,1058.332,1844.549,1058.332,1844.549Z" transform="translate(-763.758 -1308.31)" fill="#184655"/>
      <path id="Trazado_25029" data-name="Trazado 25029" d="M1059.112,1564.3c2.109-4.439,6.907-10.218,15.348-6.737,8.051,3.32,10.211,11.479,7.671,19.834s-19.262,57.469-19.845,64.223l-13.351.088s2.426-38.89,3.022-48.29C1052.529,1584.374,1055.461,1571.983,1059.112,1564.3Z" transform="translate(-768.303 -1110.35)" fill="#3c8f7c"/>
      <path id="Trazado_25030" data-name="Trazado 25030" d="M958.945,1436.234h-44.63a2.91,2.91,0,0,0-2.692,1.813l-13.742,33.63h-24.6a1.247,1.247,0,0,0-1.246,1.249h0a1.248,1.248,0,0,0,1.246,1.249H943.3a4.887,4.887,0,0,0,4.459-2.9L961.6,1440.35A2.919,2.919,0,0,0,958.945,1436.234Z" transform="translate(-646.461 -1027.52)"/>
      <path id="Trazado_25031" data-name="Trazado 25031" d="M1063.365,1491.944a2.457,2.457,0,1,1-1.841-3.214A2.627,2.627,0,0,1,1063.365,1491.944Z" transform="translate(-774.91 -1063.647)" fill="#fff"/>
      <g id="Grupo_30000" data-name="Grupo 30000" transform="translate(239.321 327.812)">
        <path id="Trazado_25032" data-name="Trazado 25032" d="M941.052,1179.736a34.143,34.143,0,0,1-3.948-1.581,19.808,19.808,0,0,0-4.5-1.7c-2.491-.384-6.77-.128-9.133,2.435-2.944,3.193-8.175.577-7.121,17.3,1.193,18.931,11.719,16.854,11.974,16.533s9.388-12.111,9.388-12.111,3.193,6.985,3.193,6.729S957.209,1185.177,941.052,1179.736Z" transform="translate(-916.211 -1176.316)" fill="#0e2e35"/>
        <path id="Trazado_25033" data-name="Trazado 25033" d="M946.423,1274.221l.909,6.764s2.036,9.746-.583,11.625-11.137-11.9-11.137-11.9l.9-17.141Z" transform="translate(-929.573 -1236.409)" fill="#f7a491"/>
        <path id="Trazado_25034" data-name="Trazado 25034" d="M937.569,1269.121a19.409,19.409,0,0,0,10.973,10.834l-.771-5.735-9.912-10.654Z" transform="translate(-930.921 -1236.409)" fill="#f47458"/>
        <path id="Trazado_25035" data-name="Trazado 25035" d="M943.31,1203.386a9.02,9.02,0,0,1,10.388,9.122,68.581,68.581,0,0,1-.76,8.676c-1.206,7.809-6.534,14.685-10.057,14.071s-12.387-7.35-10.826-18.462C933.019,1209.933,937.487,1204.326,943.31,1203.386Z" transform="translate(-926.998 -1194.881)" fill="#f7a491"/>
        <path id="Trazado_25036" data-name="Trazado 25036" d="M928.973,1243.047a2.626,2.626,0,1,1-2-3.551A2.905,2.905,0,0,1,928.973,1243.047Z" transform="translate(-921.471 -1219.809)" fill="#f7a491"/>
        <path id="Trazado_25037" data-name="Trazado 25037" d="M930.926,1208.834s4.259,1.059,5.84-1.681,7.233-8.651,14.417-6.2-6.323-5.959-6.9-5.959-7.472-.048-7.472-.048-5.317,4.374-5.508,4.854-1.724,5.719-1.724,5.719Z" transform="translate(-925.419 -1189.146)" fill="#0e2e35"/>
      </g>
      <path id="Trazado_25038" data-name="Trazado 25038" d="M958.871,1276.287l7.75,1.482a3.45,3.45,0,0,1-4.166,2.367C958.277,1279.461,958.871,1276.287,958.871,1276.287Z" transform="translate(-706.252 -917.358)" fill="#fff"/>
      <path id="Trazado_25039" data-name="Trazado 25039" d="M701.579,998.917l7.75,1.482a3.45,3.45,0,0,1-4.166,2.367C700.984,1002.091,701.579,998.917,701.579,998.917Z" transform="translate(-529.044 -726.322)" fill="#fff"/>
      <path id="Trazado_25040" data-name="Trazado 25040" d="M2523.834,1763.026a122.026,122.026,0,0,0-20.014,3.582c-11.98,3.148-23.5,7.8-34.843,12.742-5.574,2.43-11.185,4.827-16.653,7.491a60.146,60.146,0,0,0-7.485,4.091,83.121,83.121,0,0,0-8.73,7.143l2.6.078a86.494,86.494,0,0,1,17.376-11.332c21.483-10.349,43.8-20.963,67.762-23.6A.1.1,0,0,0,2523.834,1763.026Z" transform="translate(-1723.705 -1252.594)" fill="#3c8f7c"/>
    </g>
  </g>
</svg>
