<svg xmlns="http://www.w3.org/2000/svg" width="606.726" height="290.549" viewBox="0 0 606.726 290.549">
  <g id="Grupo_27477" data-name="Grupo 27477" transform="translate(-46.637 -103.135)">
    <g id="Grupo_27244" data-name="Grupo 27244">
      <g id="Grupo_27242" data-name="Grupo 27242">
        <g id="Grupo_27240" data-name="Grupo 27240">
          <path id="Trazado_21385" data-name="Trazado 21385" d="M506.737,258.247h-2v-2h2Zm-4,0h-2v-2h2Zm6.01,0-.018-2c.635-.006,1.283-.035,1.922-.088l.166,1.992C510.128,258.208,509.432,258.24,508.747,258.246Zm4.126-.341-.309-1.976c.627-.1,1.263-.222,1.89-.368l.453,1.948C514.233,257.666,513.549,257.8,512.873,257.9Zm4.034-.939-.6-1.91c.608-.19,1.218-.406,1.815-.641l.736,1.859C518.22,256.528,517.561,256.761,516.907,256.966Zm3.851-1.523-.867-1.8c.57-.275,1.142-.576,1.7-.9l1,1.733C521.989,254.821,521.373,255.147,520.758,255.443Zm3.588-2.066-1.125-1.654c.535-.364,1.057-.746,1.555-1.139l1.239,1.57C525.48,252.576,524.919,252.987,524.346,253.377Zm3.247-2.564-1.348-1.477c.47-.429.932-.883,1.373-1.351l1.453,1.375C528.6,249.862,528.1,250.352,527.593,250.813Zm2.846-3.008-1.548-1.266c.405-.5.8-1.012,1.165-1.535l1.636,1.15C531.3,246.717,530.875,247.272,530.439,247.8Zm2.383-3.39L531.1,243.39c.333-.558.647-1.127.931-1.691l1.785.9C533.517,243.206,533.18,243.816,532.822,244.415Zm1.865-3.7-1.847-.766c.248-.6.474-1.207.673-1.806l1.9.627C535.2,239.415,534.954,240.069,534.687,240.714Zm1.3-3.936-1.939-.486c.155-.619.289-1.253.4-1.884l1.971.344C536.3,235.431,536.156,236.112,535.989,236.778Zm.71-4.076-1.99-.2c.063-.631.1-1.277.121-1.921l2,.053C536.811,231.325,536.768,232.022,536.7,232.7Zm-1.887-4.048c-.03-.643-.083-1.29-.158-1.921l1.987-.236c.08.679.137,1.373.169,2.063Zm-.455-3.824c-.122-.628-.269-1.259-.436-1.877l1.93-.523c.18.664.338,1.342.469,2.017Zm-1.009-3.714c-.21-.6-.449-1.2-.706-1.791l1.832-.8c.278.635.534,1.284.76,1.928Zm-1.542-3.525c-.3-.567-.623-1.128-.962-1.668l1.7-1.063c.364.583.713,1.188,1.034,1.8Zm-2.042-3.265c-.377-.513-.779-1.022-1.2-1.511l1.522-1.3c.448.525.881,1.072,1.286,1.626Zm-2.5-2.93c-.45-.456-.921-.9-1.4-1.321l1.317-1.5c.518.453,1.025.932,1.508,1.422Zm-2.9-2.536c-.5-.381-1.035-.753-1.578-1.1l1.086-1.679c.584.377,1.155.777,1.7,1.187Zm-3.233-2.09q-.552-.3-1.12-.579l-.58-.283.018-.645c.007-.222.011-.446.012-.669l1.326.006.1-.206c.14.068.28.138.418.208h.155v.078c.211.109.42.22.629.334Zm-1.749-4.081c-.056-.638-.14-1.275-.249-1.9l1.968-.347c.121.677.212,1.373.273,2.068Zm-.666-3.759c-.166-.612-.362-1.223-.581-1.817l1.875-.7c.241.65.455,1.32.635,1.99Zm-1.323-3.576c-.273-.576-.575-1.144-.895-1.687l1.723-1.016c.35.6.679,1.215.979,1.844Zm-1.936-3.289c-.371-.519-.768-1.025-1.179-1.505l1.518-1.3c.449.524.883,1.077,1.288,1.643Zm-2.486-2.9c-.455-.445-.934-.874-1.424-1.274l1.265-1.549c.536.438,1.06.906,1.557,1.392Zm-2.953-2.418c-.529-.358-1.077-.7-1.628-1l.973-1.747c.6.335,1.2.7,1.778,1.1Zm-3.337-1.856c-.58-.258-1.178-.493-1.778-.7l.645-1.893c.657.224,1.311.48,1.946.763Zm-2.56-3.549c-.034-.65-.089-1.295-.161-1.934l1.988-.224q.114,1.017.171,2.05Zm-.438-3.855q-.165-.96-.387-1.9l1.947-.459c.156.666.295,1.339.411,2.019Zm-.888-3.773q-.279-.933-.611-1.841l1.879-.685q.353.963.648,1.954Zm-65.072-2.043-.141-1.995q.924-.064,1.859-.066h.217l-.014,2h-.2Q438.581,171.611,437.727,171.672Zm63.743-1.6q-.385-.891-.823-1.753l1.786-.9q.462.916.873,1.862Zm-60.1-.856-1.812-.844q.435-.936.923-1.84l1.76.948Q441.781,168.335,441.367,169.219Zm58.355-2.6q-.489-.84-1.024-1.646l1.666-1.106q.568.856,1.086,1.747Zm-56.509-.815-1.7-1.052q.543-.877,1.135-1.719l1.635,1.152Q443.726,164.976,443.213,165.8Zm54.364-2.415q-.58-.776-1.208-1.516l1.525-1.293q.667.786,1.285,1.61Zm-52.129-.758-1.564-1.246q.641-.805,1.329-1.571l1.488,1.334Q446.054,161.869,445.448,162.631Zm49.624-2.2q-.669-.7-1.38-1.365l1.366-1.462q.751.7,1.461,1.447Zm-47.031-.685-1.408-1.421q.732-.725,1.5-1.4l1.322,1.5Q448.731,159.059,448.041,159.744Zm44.194-1.963q-.747-.621-1.529-1.2l1.186-1.61q.828.61,1.621,1.268Zm-41.282-.6-1.23-1.576q.812-.633,1.658-1.219l1.137,1.646Q451.717,156.582,450.953,157.179Zm38.154-1.7q-.811-.528-1.658-1.008l.988-1.74q.9.512,1.76,1.071Zm-34.963-.506-1.037-1.71q.877-.533,1.787-1.016l.939,1.766Q454.976,154.47,454.144,154.974Zm31.587-1.411q-.87-.429-1.767-.808l.777-1.842q.951.4,1.875.856Zm-28.159-.4-.83-1.819q.934-.428,1.9-.8l.722,1.864Q458.455,152.757,457.572,153.158Zm24.58-1.1q-.91-.321-1.846-.591l.552-1.922c.661.19,1.316.4,1.96.627Zm-20.964-.3-.611-1.9c.651-.209,1.312-.4,1.977-.571l.5,1.938Q462.11,151.463,461.188,151.758Zm17.238-.774q-.942-.211-1.9-.368l.321-1.973q1.02.165,2.021.39Zm-13.485-.19-.381-1.963q1.005-.195,2.029-.333l.265,1.982Q465.891,150.609,464.941,150.794Zm9.656-.432c-.639-.066-1.285-.113-1.934-.14l.086-2q1.035.044,2.053.149Zm-5.813-.082-.146-1.994c.679-.051,1.365-.081,2.053-.092l.032,2Q469.748,150.209,468.784,150.28Z" fill="#e0c0ff"/>
        </g>
        <g id="Grupo_27241" data-name="Grupo 27241">
          <path id="Trazado_21386" data-name="Trazado 21386" d="M526.828,229.022a18.7,18.7,0,0,0-.182-1.889l1.979-.293a20.655,20.655,0,0,1,.2,2.092Zm-.555-3.746a17.967,17.967,0,0,0-.563-1.807l1.875-.7a20.415,20.415,0,0,1,.626,2.007Zm-1.312-3.547a18.39,18.39,0,0,0-.927-1.653l1.692-1.066a20.753,20.753,0,0,1,1.028,1.833Zm-2.02-3.2a18.367,18.367,0,0,0-1.252-1.426l1.434-1.394a20.592,20.592,0,0,1,1.387,1.58Zm-2.642-2.712a18.511,18.511,0,0,0-1.519-1.139l1.117-1.658a20.648,20.648,0,0,1,1.683,1.26Zm-3.15-2.12c-.208-.112-.42-.22-.634-.324l-1.121-.545.877-1.8,1.119.545c.238.116.475.238.709.364Zm-3.552-1.747-2.308-1.124.017-.643,1.018-.013.42-.861,1.73.844Zm-.229-3.785-2-.062.063-2,2,.063Zm-1.9-4a13.61,13.61,0,0,0-.178-1.853l1.973-.328a15.694,15.694,0,0,1,.205,2.126Zm-.61-3.661a13.741,13.741,0,0,0-.676-1.734l1.808-.853a15.647,15.647,0,0,1,.777,1.988Zm-1.586-3.357a13.321,13.321,0,0,0-1.122-1.482l1.508-1.315a15.593,15.593,0,0,1,1.29,1.7Zm-2.438-2.8a13.5,13.5,0,0,0-1.484-1.122l1.091-1.675a15.511,15.511,0,0,1,1.705,1.287Zm-3.11-2.029a13.675,13.675,0,0,0-1.43-.575l-.326-.11.64-1.9.326.111a15.31,15.31,0,0,1,1.641.66ZM500.074,191l-1.894-.641.64-1.895,1.895.641Zm-1.89-2.644h-2v-2h2Zm0-4h-2v-1.206c0-.256,0-.51-.012-.764l2-.059q.012.41.012.823Zm-2.143-3.887c-.068-.635-.161-1.275-.278-1.9l1.966-.366c.126.677.227,1.368.3,2.054Zm-.7-3.774c-.167-.62-.359-1.238-.569-1.836l1.886-.665c.228.646.435,1.313.615,1.982Zm-1.277-3.62c-.259-.585-.543-1.165-.844-1.724l1.76-.949c.326.6.632,1.231.913,1.864Zm-1.822-3.379c-.344-.536-.714-1.066-1.1-1.576l1.6-1.206c.416.55.816,1.123,1.188,1.7Zm-2.317-3.065c-.418-.473-.864-.941-1.326-1.39l1.392-1.435c.5.485.983.99,1.434,1.5Zm-2.758-2.676c-.491-.409-1-.8-1.523-1.172l1.158-1.631c.561.4,1.115.825,1.644,1.266Zm-3.133-2.225c-.544-.328-1.11-.639-1.684-.926l.894-1.789c.62.31,1.234.647,1.821,1Zm-3.437-1.719c-.589-.239-1.2-.46-1.808-.655l.608-1.9c.66.211,1.318.449,1.954.708Zm-3.659-1.167c-.622-.146-1.256-.269-1.887-.367l.306-1.977c.681.106,1.367.239,2.038.4Zm-3.795-.587c-.637-.048-1.284-.073-1.921-.073v-2c.687,0,1.385.026,2.073.079Z" fill="#e0c0ff"/>
        </g>
      </g>
      <g id="Grupo_27243" data-name="Grupo 27243">
        <path id="Trazado_21387" data-name="Trazado 21387" d="M477.717,182.857a5.5,5.5,0,1,1,5.5-5.5A5.506,5.506,0,0,1,477.717,182.857Zm0-9a3.5,3.5,0,1,0,3.5,3.5A3.5,3.5,0,0,0,477.717,173.857Z" fill="#e0c0ff"/>
      </g>
    </g>
    <g id="Grupo_27250" data-name="Grupo 27250">
      <g id="Grupo_27245" data-name="Grupo 27245">
        <path id="Trazado_21388" data-name="Trazado 21388" d="M313.583,275.714a21.416,21.416,0,0,1-32.2-27.217l9.269,5.362a10.708,10.708,0,0,0,16.1,13.608Z" fill="#fff"/>
        <path id="Trazado_21389" data-name="Trazado 21389" d="M299.953,281.631A22.417,22.417,0,0,1,280.518,248l.5-.867,11,6.363-.5.865a9.709,9.709,0,0,0,14.6,12.34l.769-.639,8.107,9.787-.771.639a22.346,22.346,0,0,1-14.267,5.146Zm-18.182-31.755a20.416,20.416,0,0,0,30.388,25.687l-5.567-6.721a11.707,11.707,0,0,1-17.267-14.6Z" fill="#45566b"/>
      </g>
      <g id="Grupo_27246" data-name="Grupo 27246">
        <path id="Trazado_21390" data-name="Trazado 21390" d="M272.4,243.159a31.867,31.867,0,0,1,19.942-14.89l.162-.04,6.028,25.18-.03.008a5.976,5.976,0,0,0-3.74,2.792Z" fill="#fff"/>
        <path id="Trazado_21391" data-name="Trazado 21391" d="M295.122,257.576l-24.091-14.058.505-.863A33.04,33.04,0,0,1,292.1,227.3l.977-.238.4.938,6.269,26.19-1.018.2a5.005,5.005,0,0,0-3.1,2.323Zm-21.341-14.769,20.685,12.071a7.032,7.032,0,0,1,2.877-2.137l-5.574-23.29A31.054,31.054,0,0,0,273.781,242.807Z" fill="#45566b"/>
      </g>
      <path id="Trazado_21392" data-name="Trazado 21392" d="M278.1,241.874a28.1,28.1,0,0,1,11.527-8.561l4.254,17.768Z" fill="#bc85c6"/>
      <g id="Grupo_27247" data-name="Grupo 27247">
        <path id="Trazado_21393" data-name="Trazado 21393" d="M321.232,257.084a21.414,21.414,0,0,1-7.76,18.722l-6.775-8.293a10.709,10.709,0,0,0,3.881-9.361Z" fill="#fff"/>
        <path id="Trazado_21394" data-name="Trazado 21394" d="M313.33,277.212l-8.039-9.84.774-.633a9.71,9.71,0,0,0,3.518-8.487l-.1-1,12.643-1.266.1.994a22.413,22.413,0,0,1-8.123,19.6Zm-5.252-9.589,5.52,6.756a20.413,20.413,0,0,0,6.715-16.2l-8.683.87a11.713,11.713,0,0,1-3.552,8.572Z" fill="#45566b"/>
      </g>
      <g id="Grupo_27249" data-name="Grupo 27249">
        <path id="Trazado_21395" data-name="Trazado 21395" d="M294.828,238.419a21.416,21.416,0,0,1,26.415,18.773l-10.66,1.014a10.709,10.709,0,0,0-13.207-9.386Z" fill="#e0c0ff"/>
        <g id="Grupo_27248" data-name="Grupo 27248">
          <path id="Trazado_21396" data-name="Trazado 21396" d="M309.682,259.3l-.1-1a9.706,9.706,0,0,0-11.973-8.508l-.972.237-3.022-12.343.97-.238A22.415,22.415,0,0,1,322.238,257.1l.1,1Zm-9.774-11.782a11.706,11.706,0,0,1,11.532,9.606l8.687-.827a20.414,20.414,0,0,0-24.084-17.116l2.077,8.476A11.56,11.56,0,0,1,299.908,247.514Z" fill="#44566b"/>
        </g>
      </g>
    </g>
    <g id="Grupo_27271" data-name="Grupo 27271">
      <g id="Grupo_27264" data-name="Grupo 27264">
        <g id="Grupo_27251" data-name="Grupo 27251">
          <path id="Trazado_21397" data-name="Trazado 21397" d="M490.719,214.817v46.294c8.95-3.422,13.145-12.467,13.145-23.147S499.669,218.24,490.719,214.817Z" fill="#fff"/>
          <path id="Trazado_21398" data-name="Trazado 21398" d="M489.719,262.565v-49.2l1.357.52c8.763,3.35,13.788,12.128,13.788,24.08s-5.025,20.73-13.788,24.081Zm2-46.23v43.259c7.105-3.411,11.145-11.2,11.145-21.63S498.824,219.746,491.719,216.335Z" fill="#43566b"/>
        </g>
        <g id="Grupo_27252" data-name="Grupo 27252">
          <path id="Trazado_21399" data-name="Trazado 21399" d="M441.424,302.048H428.279l-6.573-34.507v-60.8h13.145v60.8Z" fill="#fff"/>
          <path id="Trazado_21400" data-name="Trazado 21400" d="M442.632,303.048H427.451l-6.745-35.507v-61.8h15.146v61.7Zm-13.527-2h11.111l-6.364-33.507v-59.8H422.706v59.7Z" fill="#43566b"/>
        </g>
        <g id="Grupo_27253" data-name="Grupo 27253">
          <rect id="Rectángulo_4279" data-name="Rectángulo 4279" width="2" height="29.865" transform="translate(425.377 268.662) rotate(-10.784)" fill="#43566b"/>
        </g>
        <g id="Grupo_27254" data-name="Grupo 27254">
          <path id="Rectángulo_4280" data-name="Rectángulo 4280" d="M18.792,0H39.015a0,0,0,0,1,0,0V47.528a0,0,0,0,1,0,0H18.792A18.792,18.792,0,0,1,0,28.736V18.792A18.792,18.792,0,0,1,18.792,0Z" transform="translate(406.918 213.317)" fill="#bc85c6"/>
          <path id="Trazado_21401" data-name="Trazado 21401" d="M446.933,261.845H425.709a19.814,19.814,0,0,1-19.791-19.792v-9.945a19.814,19.814,0,0,1,19.791-19.792h21.224Zm-21.224-47.529a17.812,17.812,0,0,0-17.791,17.792v9.945a17.812,17.812,0,0,0,17.791,17.792h19.224V214.316Z" fill="#43566b"/>
        </g>
        <g id="Grupo_27255" data-name="Grupo 27255">
          <path id="Trazado_21402" data-name="Trazado 21402" d="M490.719,275.757l-44.846-14.913V213.317l44.846-13.145Z" fill="#fff"/>
          <path id="Trazado_21403" data-name="Trazado 21403" d="M491.719,277.144l-46.846-15.578v-49l46.846-13.731Zm-44.846-17.021,42.846,14.247V201.506l-42.846,12.559Z" fill="#43566b"/>
        </g>
        <g id="Grupo_27259" data-name="Grupo 27259">
          <g id="Grupo_27256" data-name="Grupo 27256">
            <rect id="Rectángulo_4281" data-name="Rectángulo 4281" width="2" height="1" transform="translate(450.996 256.997) rotate(-73.317)" fill="#43566b"/>
          </g>
          <g id="Grupo_27257" data-name="Grupo 27257">
            <path id="Trazado_21404" data-name="Trazado 21404" d="M481.9,266.27l-2-.6.574-1.916,2,.6Zm-3-.9-2-.6.576-1.917,2,.6Zm-3-.9-2-.6.576-1.916,2,.6Zm-2.995-.9-2-.6.576-1.916,2,.6Zm-2.993-.9-2-.6.574-1.916,2,.6Zm-3-.9-2-.6.574-1.916,2,.6Zm-2.995-.9-2-.6.575-1.916,2,.6Zm-3-.9-2-.6.575-1.916,2,.6Zm-2.995-.9-2-.6.574-1.916,2,.6Zm-2.994-.9-2-.6.574-1.916,2,.6Z" fill="#43566b"/>
          </g>
          <g id="Grupo_27258" data-name="Grupo 27258">
            <rect id="Rectángulo_4282" data-name="Rectángulo 4282" width="2.001" height="1" transform="matrix(0.288, -0.958, 0.958, 0.288, 482.9, 266.568)" fill="#43566b"/>
          </g>
        </g>
        <g id="Grupo_27263" data-name="Grupo 27263">
          <g id="Grupo_27260" data-name="Grupo 27260">
            <rect id="Rectángulo_4283" data-name="Rectángulo 4283" width="1" height="2" transform="translate(450.996 218.932) rotate(-16.682)" fill="#43566b"/>
          </g>
          <g id="Grupo_27261" data-name="Grupo 27261">
            <path id="Trazado_21405" data-name="Trazado 21405" d="M453.526,220.261l-.574-1.916,2-.6.574,1.916Zm2.995-.9-.574-1.916,2-.6.575,1.916Zm3-.9-.575-1.916,2-.6.575,1.916Zm2.994-.9-.575-1.916,2-.6.574,1.916Zm3-.9-.574-1.916,2-.6.574,1.916Zm2.995-.9-.574-1.916,2-.6.574,1.916Zm3-.9-.576-1.916,2-.6.576,1.917Zm2.995-.9-.576-1.916,2-.6.576,1.916Zm2.995-.9-.576-1.916,2-.6.576,1.916Zm2.993-.9-.574-1.916,2-.6.574,1.915Z" fill="#43566b"/>
          </g>
          <g id="Grupo_27262" data-name="Grupo 27262">
            <rect id="Rectángulo_4284" data-name="Rectángulo 4284" width="1" height="2" transform="matrix(0.958, -0.287, 0.287, 0.958, 482.901, 209.36)" fill="#43566b"/>
          </g>
        </g>
      </g>
      <g id="Grupo_27267" data-name="Grupo 27267">
        <g id="Grupo_27265" data-name="Grupo 27265">
          <line id="Línea_214" data-name="Línea 214" x2="13.329" transform="translate(399.134 204.083)" fill="#fff"/>
          <path id="Trazado_21406" data-name="Trazado 21406" d="M412.463,205.083H399.134a1,1,0,0,1,0-2h13.329a1,1,0,0,1,0,2Z" fill="#43566b"/>
        </g>
        <g id="Grupo_27266" data-name="Grupo 27266">
          <line id="Línea_215" data-name="Línea 215" x2="9.801" transform="translate(399.134 207.905)" fill="#fff"/>
          <path id="Trazado_21407" data-name="Trazado 21407" d="M408.935,208.9h-9.8a1,1,0,0,1,0-2h9.8a1,1,0,0,1,0,2Z" fill="#43566b"/>
        </g>
      </g>
      <g id="Grupo_27270" data-name="Grupo 27270">
        <g id="Grupo_27268" data-name="Grupo 27268">
          <line id="Línea_216" data-name="Línea 216" x2="13.329" transform="translate(468.916 288.762)" fill="#fff"/>
          <path id="Trazado_21408" data-name="Trazado 21408" d="M482.245,289.762H468.916a1,1,0,0,1,0-2h13.329a1,1,0,0,1,0,2Z" fill="#43566b"/>
        </g>
        <g id="Grupo_27269" data-name="Grupo 27269">
          <line id="Línea_217" data-name="Línea 217" x2="9.801" transform="translate(468.916 292.584)" fill="#fff"/>
          <path id="Trazado_21409" data-name="Trazado 21409" d="M478.717,293.584h-9.8a1,1,0,0,1,0-2h9.8a1,1,0,0,1,0,2Z" fill="#43566b"/>
        </g>
      </g>
    </g>
    <g id="Grupo_27280" data-name="Grupo 27280">
      <g id="Grupo_27277" data-name="Grupo 27277">
        <g id="Grupo_27272" data-name="Grupo 27272">
          <path id="Trazado_21410" data-name="Trazado 21410" d="M203.344,216.22l28.638,20.324H174.706Z" fill="#bc85c6"/>
          <path id="Trazado_21411" data-name="Trazado 21411" d="M231.981,237.544H174.706a1,1,0,0,1-.579-1.816L202.765,215.4a1,1,0,0,1,1.157,0l28.638,20.324a1,1,0,0,1-.579,1.816Zm-54.138-2h51l-25.5-18.1Z" fill="#43566b"/>
        </g>
        <g id="Grupo_27273" data-name="Grupo 27273">
          <path id="Trazado_21412" data-name="Trazado 21412" d="M203.344,258.415l28.638-21.872H174.706Z" fill="#fff"/>
          <path id="Trazado_21413" data-name="Trazado 21413" d="M203.344,259.415a1,1,0,0,1-.607-.205L174.1,237.339a1,1,0,0,1,.607-1.795h57.275a1,1,0,0,1,.607,1.795L203.951,259.21A1,1,0,0,1,203.344,259.415Zm-25.681-21.871,25.681,19.613,25.68-19.613Z" fill="#43566b"/>
        </g>
        <g id="Grupo_27274" data-name="Grupo 27274">
          <rect id="Rectángulo_4285" data-name="Rectángulo 4285" width="32.68" height="61.276" transform="translate(187.004 206.786)" fill="#fff"/>
          <path id="Trazado_21414" data-name="Trazado 21414" d="M219.684,269.063H187a1,1,0,0,1-1-1V206.786a1,1,0,0,1,1-1h32.681a1,1,0,0,1,1,1v61.277A1,1,0,0,1,219.684,269.063Zm-31.681-2h30.681V207.786H188Z" fill="#43566b"/>
        </g>
        <g id="Grupo_27275" data-name="Grupo 27275">
          <path id="Trazado_21415" data-name="Trazado 21415" d="M203.344,258.415l-28.638-21.872v35.6h57.275v-35.6Z" fill="#bc85c6"/>
          <path id="Trazado_21416" data-name="Trazado 21416" d="M231.981,273.147H174.706a1,1,0,0,1-1-1v-35.6a1,1,0,0,1,1.607-.8l28.031,21.408,28.03-21.408a1,1,0,0,1,1.607.8v35.6A1,1,0,0,1,231.981,273.147Zm-56.275-2h55.275V238.566l-27.03,20.644a1,1,0,0,1-1.214,0l-27.031-20.644Z" fill="#43566b"/>
        </g>
        <g id="Grupo_27276" data-name="Grupo 27276">
          <path id="Trazado_21417" data-name="Trazado 21417" d="M203.344,250.275l28.638,21.872H174.706Z" fill="#bc85c6"/>
          <path id="Trazado_21418" data-name="Trazado 21418" d="M231.981,273.147H174.706a1,1,0,0,1-.607-1.794l28.638-21.873a1,1,0,0,1,1.214,0l28.637,21.873a1,1,0,0,1-.607,1.794Zm-54.318-2h51.361l-25.68-19.613Z" fill="#43566b"/>
        </g>
      </g>
      <g id="Grupo_27278" data-name="Grupo 27278">
        <rect id="Rectángulo_4286" data-name="Rectángulo 4286" width="16.055" height="2" transform="translate(195.316 225.984)" fill="#43566b"/>
      </g>
      <g id="Grupo_27279" data-name="Grupo 27279">
        <rect id="Rectángulo_4287" data-name="Rectángulo 4287" width="16.055" height="2" transform="translate(195.316 232.199)" fill="#43566b"/>
      </g>
    </g>
    <g id="Grupo_27294" data-name="Grupo 27294">
      <g id="Grupo_27284" data-name="Grupo 27284">
        <g id="Grupo_27283" data-name="Grupo 27283">
          <g id="Grupo_27281" data-name="Grupo 27281">
            <path id="Rectángulo_4288" data-name="Rectángulo 4288" d="M6.158,0h55.4a6.156,6.156,0,0,1,6.156,6.156V107.717a6.156,6.156,0,0,1-6.156,6.156H6.158A6.158,6.158,0,0,1,0,107.715V6.158A6.158,6.158,0,0,1,6.158,0Z" transform="translate(333.746 260.742)" fill="#fff"/>
            <path id="Trazado_21419" data-name="Trazado 21419" d="M395.3,375.615H339.9a7.162,7.162,0,0,1-7.156-7.152V266.9a7.164,7.164,0,0,1,7.156-7.156H395.3a7.165,7.165,0,0,1,7.158,7.156V368.463A7.163,7.163,0,0,1,395.3,375.615ZM339.9,261.742a5.163,5.163,0,0,0-5.156,5.156V368.463a5.16,5.16,0,0,0,5.156,5.152H395.3a5.16,5.16,0,0,0,5.158-5.152V266.9a5.163,5.163,0,0,0-5.158-5.156Z" fill="#43566b"/>
          </g>
          <rect id="Rectángulo_4289" data-name="Rectángulo 4289" width="55.395" height="84.636" transform="translate(339.902 274.299)" fill="#bc85c6"/>
          <g id="Grupo_27282" data-name="Grupo 27282">
            <path id="Trazado_21420" data-name="Trazado 21420" d="M395.342,270.022H386.59v-2h8.752Zm-10.752,0h-4v-2h4Zm-10,0h-11v-2h11Zm-13,0h-4v-2h4Zm-10,0h-11v-2h11Z" fill="#43566b"/>
          </g>
        </g>
      </g>
      <g id="Grupo_27290" data-name="Grupo 27290">
        <g id="Grupo_27285" data-name="Grupo 27285">
          <path id="Trazado_21421" data-name="Trazado 21421" d="M357.035,198.341l.273,4.06H376.22l.489-.059c5.387-9.945,5.677-11.278,4.589-19.359l.135-5.394-17.084.091V153.459a2.992,2.992,0,1,0-5.983,0c0-.867-.688,30.928-.688,30.928s-18.766-1.008-18.56,1.161a5.657,5.657,0,0,0-.206,1.511,1.4,1.4,0,0,0,1.17,1.381l14.985,7.023A3.432,3.432,0,0,1,357.035,198.341Z" fill="#fff"/>
          <path id="Trazado_21422" data-name="Trazado 21422" d="M376.279,203.4h-19.9l-.337-4.993a2.435,2.435,0,0,0-1.393-2.039L339.765,189.4a2.392,2.392,0,0,1-1.852-2.337,6.647,6.647,0,0,1,.208-1.651,1.426,1.426,0,0,1,.407-.881c1.677-1.748,12.56-1.462,18.172-1.191l.551-25.082c.058-2.557.09-3.991.192-4.795h-.077a3.992,3.992,0,0,1,7.984,0v23.215l17.109-.091-.159,6.346c1.113,8.3.747,9.812-4.712,19.889l-.246.455Zm-18.036-2h17.838c5.049-9.342,5.275-10.486,4.226-18.285l-.011-.078.112-4.444-17.058.091V153.459a1.992,1.992,0,1,0-3.984,0h-.7l.7.042c-.025.547-.461,20.457-.686,30.908l-.023,1.032-1.031-.055c-7.4-.4-16.027-.323-17.553.47a4.635,4.635,0,0,0-.158,1.2.4.4,0,0,0,.334.395l.259.081,14.986,7.023a4.431,4.431,0,0,1,2.541,3.715Z" fill="#43566b"/>
        </g>
        <g id="Grupo_27286" data-name="Grupo 27286">
          <path id="Trazado_21423" data-name="Trazado 21423" d="M370.333,167.236v9.094a2.993,2.993,0,0,1-2.992,2.992h0a2.992,2.992,0,0,1-2.991-2.992v-9.094a2.991,2.991,0,0,1,2.991-2.991h0A2.992,2.992,0,0,1,370.333,167.236Z" fill="#fff"/>
          <path id="Trazado_21424" data-name="Trazado 21424" d="M367.341,180.322a4,4,0,0,1-3.991-3.992v-9.094a3.992,3.992,0,0,1,7.983,0v9.094A4,4,0,0,1,367.341,180.322Zm0-15.077a1.993,1.993,0,0,0-1.991,1.991v9.094a1.992,1.992,0,1,0,3.983,0v-9.094A1.994,1.994,0,0,0,367.341,165.245Z" fill="#43566b"/>
        </g>
        <g id="Grupo_27287" data-name="Grupo 27287">
          <path id="Trazado_21425" data-name="Trazado 21425" d="M376.316,168.019v9.094a2.991,2.991,0,0,1-2.991,2.991h0a2.991,2.991,0,0,1-2.992-2.991v-9.094a2.991,2.991,0,0,1,2.992-2.992h0A2.991,2.991,0,0,1,376.316,168.019Z" fill="#fff"/>
          <path id="Trazado_21426" data-name="Trazado 21426" d="M373.324,181.1a4,4,0,0,1-3.991-3.992v-9.093a3.992,3.992,0,1,1,7.983,0v9.093A4,4,0,0,1,373.324,181.1Zm0-15.077a1.994,1.994,0,0,0-1.991,1.992v9.093a1.992,1.992,0,1,0,3.983,0v-9.093A1.993,1.993,0,0,0,373.324,166.027Z" fill="#43566b"/>
        </g>
        <g id="Grupo_27288" data-name="Grupo 27288">
          <path id="Trazado_21427" data-name="Trazado 21427" d="M382.3,168.8V177.9a2.991,2.991,0,0,1-2.991,2.991h0a2.992,2.992,0,0,1-2.992-2.991V168.8a2.993,2.993,0,0,1,2.992-2.992h0A2.992,2.992,0,0,1,382.3,168.8Z" fill="#fff"/>
          <path id="Trazado_21428" data-name="Trazado 21428" d="M379.308,181.886a4,4,0,0,1-3.992-3.991V168.8a3.992,3.992,0,1,1,7.984,0V177.9A4,4,0,0,1,379.308,181.886Zm0-15.077a2,2,0,0,0-1.992,1.992V177.9a1.992,1.992,0,0,0,3.984,0V168.8A2,2,0,0,0,379.308,166.809Z" fill="#43566b"/>
        </g>
        <g id="Grupo_27289" data-name="Grupo 27289">
          <path id="Trazado_21429" data-name="Trazado 21429" d="M355.993,250.975h-2V201.4h27.932v32.574h-2V203.4H355.993Z" fill="#43566b"/>
        </g>
      </g>
      <g id="Grupo_27293" data-name="Grupo 27293">
        <g id="Grupo_27291" data-name="Grupo 27291">
          <rect id="Rectángulo_4290" data-name="Rectángulo 4290" width="39.385" height="23.636" transform="translate(348.04 304.935)" fill="#bc85c6"/>
          <path id="Trazado_21430" data-name="Trazado 21430" d="M388.425,329.571H347.04V303.935h41.385Zm-39.385-2h37.385V305.935H349.04Z" fill="#43566b"/>
        </g>
        <g id="Grupo_27292" data-name="Grupo 27292">
          <path id="Trazado_21431" data-name="Trazado 21431" d="M363.555,321.577l8.356-4.824-8.356-4.824Z" fill="#fff"/>
          <path id="Trazado_21432" data-name="Trazado 21432" d="M362.555,323.31V310.2l11.355,6.557Zm2-9.649v6.184l5.355-3.092Z" fill="#43566b"/>
        </g>
      </g>
    </g>
    <g id="Grupo_27295" data-name="Grupo 27295">
      <rect id="Rectángulo_4291" data-name="Rectángulo 4291" width="594.727" height="2" transform="translate(52.637 373.615)" fill="#43566b"/>
    </g>
    <g id="Grupo_27296" data-name="Grupo 27296">
      <circle id="Elipse_982" data-name="Elipse 982" cx="5" cy="5" r="5" transform="translate(47.637 369.615)" fill="#fff"/>
      <path id="Trazado_21433" data-name="Trazado 21433" d="M52.637,380.615a6,6,0,1,1,6-6A6.006,6.006,0,0,1,52.637,380.615Zm0-10a4,4,0,1,0,4,4A4,4,0,0,0,52.637,370.615Z" fill="#43566b"/>
    </g>
    <g id="Grupo_27297" data-name="Grupo 27297">
      <circle id="Elipse_983" data-name="Elipse 983" cx="5" cy="5" r="5" transform="translate(642.363 369.615)" fill="#fff"/>
      <path id="Trazado_21434" data-name="Trazado 21434" d="M647.363,380.615a6,6,0,1,1,6-6A6.007,6.007,0,0,1,647.363,380.615Zm0-10a4,4,0,1,0,4,4A4,4,0,0,0,647.363,370.615Z" fill="#43566b"/>
    </g>
    <g id="Grupo_27301" data-name="Grupo 27301">
      <g id="Grupo_27298" data-name="Grupo 27298">
        <path id="Trazado_21435" data-name="Trazado 21435" d="M501.537,325.2l19.407-14.822H482.131Z" fill="#bc85c6"/>
        <path id="Trazado_21436" data-name="Trazado 21436" d="M501.537,326.425a1.23,1.23,0,0,1-.746-.252l-19.406-14.822a1.229,1.229,0,0,1,.746-2.205h38.813a1.229,1.229,0,0,1,.746,2.205l-19.407,14.822A1.229,1.229,0,0,1,501.537,326.425ZM485.764,311.6l15.773,12.047L517.311,311.6Z" fill="#43566b"/>
      </g>
      <g id="Grupo_27299" data-name="Grupo 27299">
        <path id="Trazado_21437" data-name="Trazado 21437" d="M501.537,325.2l-19.407-14.822V334.5h38.814V310.374Z" fill="#bc85c6"/>
        <path id="Trazado_21438" data-name="Trazado 21438" d="M520.944,335.73H482.131A1.228,1.228,0,0,1,480.9,334.5V310.374a1.229,1.229,0,0,1,1.975-.977l18.66,14.253L520.2,309.4a1.229,1.229,0,0,1,1.975.977V334.5A1.228,1.228,0,0,1,520.944,335.73Zm-37.585-2.457h36.357V312.858l-17.433,13.315a1.23,1.23,0,0,1-1.492,0l-17.432-13.315Z" fill="#43566b"/>
      </g>
      <g id="Grupo_27300" data-name="Grupo 27300">
        <path id="Trazado_21439" data-name="Trazado 21439" d="M501.537,319.68,520.944,334.5H482.131Z" fill="#bc85c6"/>
        <path id="Trazado_21440" data-name="Trazado 21440" d="M520.944,335.73H482.131a1.229,1.229,0,0,1-.746-2.205L500.791,318.7a1.23,1.23,0,0,1,1.492,0l19.407,14.822a1.229,1.229,0,0,1-.746,2.205Zm-35.18-2.457h31.547l-15.774-12.047Z" fill="#43566b"/>
      </g>
    </g>
    <g id="Grupo_27302" data-name="Grupo 27302">
      <path id="Trazado_21441" data-name="Trazado 21441" d="M428.4,197.065l-5.914-5.915,5.914-5.914,5.914,5.914Zm-3.086-5.915,3.086,3.086,3.086-3.086-3.086-3.085Z" fill="#e0c0ff"/>
    </g>
    <g id="Grupo_27305" data-name="Grupo 27305">
      <g id="Grupo_27303" data-name="Grupo 27303">
        <path id="Trazado_21442" data-name="Trazado 21442" d="M277.537,205.4a12.477,12.477,0,0,0-.75-4.273l-3.842-.165,1.566-3.711a12.564,12.564,0,0,0-3.226-2.676l-3.314,2.547-1.266-4.108a12.405,12.405,0,0,0-4.076.12l-.938,4.244-3.633-2.349a12.582,12.582,0,0,0-2.977,2.815l1.965,3.766-4.07.508a12.509,12.509,0,0,0-.439,3.282c0,.316.016.628.039.937l3.631,1.5-2.546,2.741a12.5,12.5,0,0,0,2.519,3.64l3.388-1.071-.171,3.406a12.4,12.4,0,0,0,4.39,1.284l1.769-2.782,1.965,2.6a12.405,12.405,0,0,0,4.278-1.741l-.43-3.243,3.26.745a12.448,12.448,0,0,0,2.231-3.957l-2.573-2.354,3.249-1.664Z" fill="#e0c0ff"/>
        <path id="Trazado_21443" data-name="Trazado 21443" d="M264.3,218.9l-.613-.062a13.36,13.36,0,0,1-4.742-1.388l-.579-.293.131-2.616-2.6.82-.429-.431a13.466,13.466,0,0,1-2.719-3.93l-.277-.607,2.02-2.176-2.871-1.186-.045-.615c-.025-.334-.042-.67-.042-1.011a13.492,13.492,0,0,1,.474-3.544l.175-.647,3.308-.413-1.593-3.052.384-.5A13.525,13.525,0,0,1,257.5,194.2l.547-.369,2.979,1.925.769-3.477.643-.126a13.426,13.426,0,0,1,4.4-.13l.636.084,1.03,3.345,2.7-2.077.579.334a13.536,13.536,0,0,1,3.484,2.889l.4.47-1.248,2.957,3.072.132.229.629a13.445,13.445,0,0,1,.81,4.614l-.024.642-.521.286-1.968,1.008,2,1.825-.213.619a13.424,13.424,0,0,1-2.41,4.275l-.392.469-2.455-.56.324,2.444-.532.344a13.382,13.382,0,0,1-4.622,1.881l-.616.124-1.476-1.95Zm-3.871-2.958a11.422,11.422,0,0,0,2.854.83l2.2-3.462,2.443,3.228a11.378,11.378,0,0,0,2.794-1.137l-.533-4.024,4.049.926a11.37,11.37,0,0,0,1.449-2.56l-3.136-2.87,3.972-2.035a11.443,11.443,0,0,0-.468-2.736l-4.591-.2,1.878-4.45a11.452,11.452,0,0,0-2-1.661l-3.909,3-1.494-4.854a11.348,11.348,0,0,0-2.484.071l-1.1,4.991-4.271-2.762a11.556,11.556,0,0,0-1.816,1.722l2.328,4.464-4.813.6a11.566,11.566,0,0,0-.248,2.375c0,.085,0,.17,0,.254l4.379,1.809-3.057,3.293a11.406,11.406,0,0,0,1.614,2.321l4.164-1.316Z" fill="#43566b"/>
      </g>
      <g id="Grupo_27304" data-name="Grupo 27304">
        <circle id="Elipse_984" data-name="Elipse 984" cx="3.456" cy="3.456" r="3.456" transform="translate(261.581 201.914)" fill="#fff"/>
        <path id="Trazado_21444" data-name="Trazado 21444" d="M265.037,209.826a4.456,4.456,0,1,1,4.456-4.456A4.461,4.461,0,0,1,265.037,209.826Zm0-6.912a2.456,2.456,0,1,0,2.456,2.456A2.459,2.459,0,0,0,265.037,202.914Z" fill="#43566b"/>
      </g>
    </g>
    <g id="Grupo_27306" data-name="Grupo 27306">
      <path id="Trazado_21445" data-name="Trazado 21445" d="M334.053,242.044a5.5,5.5,0,1,1,5.5-5.5A5.506,5.506,0,0,1,334.053,242.044Zm0-9a3.5,3.5,0,1,0,3.5,3.5A3.5,3.5,0,0,0,334.053,233.044Z" fill="#e0c0ff"/>
    </g>
    <g id="Grupo_27307" data-name="Grupo 27307">
      <path id="Trazado_21446" data-name="Trazado 21446" d="M442.9,323.814a4,4,0,1,1,4-4A4,4,0,0,1,442.9,323.814Zm0-6a2,2,0,1,0,2,2A2,2,0,0,0,442.9,317.814Z" fill="#e0c0ff"/>
    </g>
    <g id="Grupo_27308" data-name="Grupo 27308">
      <path id="Trazado_21447" data-name="Trazado 21447" d="M252.95,237.667a4,4,0,1,1,4-4A4,4,0,0,1,252.95,237.667Zm0-6a2,2,0,1,0,2,2A2,2,0,0,0,252.95,231.667Z" fill="#e0c0ff"/>
    </g>
    <g id="Grupo_27309" data-name="Grupo 27309">
      <path id="Trazado_21448" data-name="Trazado 21448" d="M628.853,198.072a4,4,0,1,1,4-4A4,4,0,0,1,628.853,198.072Zm0-6a2,2,0,1,0,2,2A2,2,0,0,0,628.853,192.072Z" fill="#e0c0ff"/>
    </g>
    <g id="Grupo_27310" data-name="Grupo 27310">
      <path id="Trazado_21449" data-name="Trazado 21449" d="M579.056,274.1a4,4,0,1,1,4-4A4,4,0,0,1,579.056,274.1Zm0-6a2,2,0,1,0,2,2A2,2,0,0,0,579.056,268.1Z" fill="#e0c0ff"/>
    </g>
    <g id="Grupo_27322" data-name="Grupo 27322">
      <path id="Trazado_21450" data-name="Trazado 21450" d="M420.179,379.751a26.915,26.915,0,1,0-38.065-.465A26.928,26.928,0,0,0,420.179,379.751Z" fill="#fff" opacity="0.1"/>
      <g id="Grupo_27314" data-name="Grupo 27314">
        <g id="Grupo_27311" data-name="Grupo 27311">
          <path id="Trazado_21451" data-name="Trazado 21451" d="M401.164,392.683a32.195,32.195,0,1,1,32.193-36.213l26.407.2-.064,7.279-26.254-.21A32.233,32.233,0,0,1,401.164,392.683Zm18.33-13.55a25.964,25.964,0,1,0-18.276,7.327,25.9,25.9,0,0,0,18.276-7.327Z" fill="#fff"/>
        </g>
        <g id="Grupo_27313" data-name="Grupo 27313">
          <g id="Grupo_27312" data-name="Grupo 27312">
            <path id="Trazado_21452" data-name="Trazado 21452" d="M401.43,393.684h-.274a33.228,33.228,0,0,1-32.933-33.455,33.194,33.194,0,0,1,66.006-4.751l26.544.205-.083,9.279-26.352-.211A33.03,33.03,0,0,1,401.43,393.684Zm0-64.389a31.195,31.195,0,0,0-.255,62.388h.257a31.04,31.04,0,0,0,31.022-28.041l.092-.907,26.165.209.048-5.279-26.282-.2-.109-.869a31.294,31.294,0,0,0-30.694-27.3Zm.017,58.166h-.235a26.969,26.969,0,0,1,.227-53.938h.211a26.968,26.968,0,0,1,18.543,46.329h0A26.774,26.774,0,0,1,401.444,387.461Zm-.009-51.939a24.969,24.969,0,0,0-.209,49.938A24.974,24.974,0,0,0,426.385,360.7a25.015,25.015,0,0,0-24.754-25.174Z" fill="#44566b"/>
          </g>
        </g>
      </g>
      <g id="Grupo_27315" data-name="Grupo 27315">
        <path id="Trazado_21453" data-name="Trazado 21453" d="M520.522,369.629h-67.3v4.538h-8.24V346.813h8.24v4.537h67.3Z" fill="#bc85c6"/>
        <path id="Trazado_21454" data-name="Trazado 21454" d="M454.224,375.167H443.983V345.813h10.241v4.537h67.3v20.279h-67.3Zm-8.241-2h6.241v-4.538h67.3V352.35h-67.3v-4.537h-6.241Z" fill="#44566b"/>
      </g>
      <g id="Grupo_27317" data-name="Grupo 27317">
        <g id="Grupo_27316" data-name="Grupo 27316">
          <rect id="Rectángulo_4292" data-name="Rectángulo 4292" width="8.24" height="27.354" transform="translate(516.403 346.813)" fill="#fff"/>
          <path id="Trazado_21455" data-name="Trazado 21455" d="M525.644,375.167H515.4V345.813h10.241Zm-8.241-2h6.241V347.813H517.4Z" fill="#43566b"/>
        </g>
      </g>
      <g id="Grupo_27321" data-name="Grupo 27321">
        <g id="Grupo_27318" data-name="Grupo 27318">
          <rect id="Rectángulo_4293" data-name="Rectángulo 4293" width="1.303" height="11.94" transform="translate(482.099 354.52)" fill="#fff"/>
        </g>
        <g id="Grupo_27319" data-name="Grupo 27319">
          <rect id="Rectángulo_4294" data-name="Rectángulo 4294" width="1.303" height="11.94" transform="translate(485.136 354.52)" fill="#fff"/>
        </g>
        <g id="Grupo_27320" data-name="Grupo 27320">
          <rect id="Rectángulo_4295" data-name="Rectángulo 4295" width="1.303" height="11.94" transform="translate(488.177 354.52)" fill="#fff"/>
        </g>
      </g>
    </g>
    <g id="Grupo_27342" data-name="Grupo 27342">
      <g id="Grupo_27328" data-name="Grupo 27328">
        <g id="Grupo_27324" data-name="Grupo 27324">
          <g id="Grupo_27323" data-name="Grupo 27323">
            <path id="Rectángulo_4296" data-name="Rectángulo 4296" d="M4.7,0H47.038a4.7,4.7,0,0,1,4.7,4.7V82.315a4.7,4.7,0,0,1-4.7,4.7H4.706A4.706,4.706,0,0,1,0,82.313V4.7A4.7,4.7,0,0,1,4.7,0Z" transform="translate(101.369 158.63)" fill="#fff"/>
            <path id="Trazado_21456" data-name="Trazado 21456" d="M148.4,246.649H106.074a5.709,5.709,0,0,1-5.7-5.7V163.334a5.711,5.711,0,0,1,5.7-5.7H148.4a5.712,5.712,0,0,1,5.706,5.7v77.613A5.71,5.71,0,0,1,148.4,246.649ZM106.074,159.63a3.708,3.708,0,0,0-3.7,3.7v77.613a3.707,3.707,0,0,0,3.7,3.7H148.4a3.709,3.709,0,0,0,3.706-3.7V163.334a3.71,3.71,0,0,0-3.706-3.7Z" fill="#42566b"/>
          </g>
          <rect id="Rectángulo_4297" data-name="Rectángulo 4297" width="42.332" height="64.676" transform="translate(106.073 168.99)" fill="#bc85c6"/>
        </g>
        <g id="Grupo_27326" data-name="Grupo 27326">
          <path id="Rectángulo_4298" data-name="Rectángulo 4298" d="M5.457,0H26.288a5.455,5.455,0,0,1,5.455,5.455v.5a5.456,5.456,0,0,1-5.456,5.456H5.456A5.456,5.456,0,0,1,0,5.953v-.5A5.457,5.457,0,0,1,5.457,0Z" transform="translate(111.466 205.609)" fill="#fff"/>
          <g id="Grupo_27325" data-name="Grupo 27325">
            <path id="Trazado_21457" data-name="Trazado 21457" d="M122.261,209.153h1.306c.891,0,1.506.3,1.506,1.072a.956.956,0,0,1-.763.957v.027c.642.1,1.018.448,1.018,1.05,0,.864-.683,1.285-1.667,1.285h-1.4Zm1.206,1.874c.75,0,1.057-.267,1.057-.756s-.348-.675-1.031-.675h-.676v1.431Zm.114,2.076c.756,0,1.2-.275,1.2-.87,0-.542-.427-.79-1.2-.79h-.764v1.66Z" fill="#42566b"/>
            <path id="Trazado_21458" data-name="Trazado 21458" d="M126.179,209.153h.555v2.591c0,1.058.448,1.392,1.025,1.392s1.037-.334,1.037-1.392v-2.591h.536v2.578c0,1.412-.676,1.894-1.573,1.894s-1.58-.482-1.58-1.894Z" fill="#42566b"/>
            <path id="Trazado_21459" data-name="Trazado 21459" d="M131.134,211.845l-1.319-2.692h.6l.569,1.239c.141.321.275.629.421.957h.028c.153-.328.308-.636.441-.957l.562-1.239h.583l-1.319,2.692v1.7h-.562Z" fill="#42566b"/>
          </g>
        </g>
        <g id="Grupo_27327" data-name="Grupo 27327">
          <path id="Trazado_21460" data-name="Trazado 21460" d="M133.131,176.794h-2l-.624,2.343h-9.274v0a.23.23,0,0,0-.077.01.237.237,0,0,0-.144.3l1.7,4.844h6.908l1.875-7.032h1.637a.234.234,0,0,0,0-.469Zm-2.965,3.633h-1.009l.128-.82h1.1Zm-.313,1.172h-.881l.147-.938h.984Zm-.312,1.172h-.755l.147-.938h.858Zm-3.322,1.055-.205-.821h1.273l.123.821Zm-1.639,0-.206-.821h1.4l.206.821Zm-1.3-4.219.206.82h-1.635l-.287-.82Zm1.641,0,.2.82h-1.4l-.2-.82Zm.738,1.992-.234-.938h1.509l.14.938Zm1.449.234.142.938h-1.3l-.234-.938Zm-1.69-.234h-1.4l-.236-.938h1.4Zm1.751-.938h1.71l-.148.938h-1.421Zm-.034-.234-.123-.82h2.035l-.13.82Zm-.238,0h-1.531l-.2-.82h1.613Zm-3.354.234.235.938h-1.518l-.328-.938Zm-1.2,1.172h1.5l.233.938h-1.4Zm1.735,0h1.4l.234.938h-1.4Zm3.444,1.172h.987l-.127.8v.019h-.739Zm-.036-.234-.141-.938H128.7l-.147.938Zm-4.733.234h1.377l.2.821h-1.295Zm5.865.821.129-.821h.729l-.22.821Z" fill="#fff"/>
          <path id="Trazado_21461" data-name="Trazado 21461" d="M128.385,184.53a1.054,1.054,0,0,0-1.028.82h-2.4a1.048,1.048,0,1,0,.028.234h2.344a1.054,1.054,0,1,0,1.055-1.054Zm-4.454,1.639a.586.586,0,1,1,.587-.585A.586.586,0,0,1,123.931,186.169Zm4.454,0a.586.586,0,1,1,.585-.585A.586.586,0,0,1,128.385,186.169Z" fill="#fff"/>
        </g>
      </g>
      <path id="Trazado_21462" data-name="Trazado 21462" d="M163.657,226.117l-11.109-22.154a7.252,7.252,0,1,0-12.442,7.455l6.7,13.354a16.709,16.709,0,0,0-6.923,13.682c0,8.789-1.083,15.913,5.957,15.913s16.119-7.124,16.119-15.913q0-1.485-.063-2.894A7.251,7.251,0,0,0,163.657,226.117Z" fill="#f3b390"/>
      <g id="Grupo_27329" data-name="Grupo 27329">
        <path id="Trazado_21463" data-name="Trazado 21463" d="M163.657,226.117l-11.109-22.154a7.211,7.211,0,0,0-4.162-3.217L129.2,192.112c-3.7-1.535-6.372-.8-7.906,2.9a7.252,7.252,0,0,0,3.917,9.479l15.705,8.547,5.884,11.732a16.711,16.711,0,0,0-6.923,13.682c0,2.916-.114,5.64-.017,7.99H114.655L124.2,270.1h36.021l4.24-38.5A7.22,7.22,0,0,0,163.657,226.117Z" fill="#fff"/>
        <path id="Trazado_21464" data-name="Trazado 21464" d="M161.12,271.1H123.528l-10.355-25.653h25.662c-.023-1.235,0-2.549.017-3.923.014-.992.029-2.017.029-3.067a17.861,17.861,0,0,1,6.651-13.988l-5.366-10.7L124.782,205.4a8.251,8.251,0,0,1-4.408-10.764,6.491,6.491,0,0,1,3.74-3.977,7.613,7.613,0,0,1,5.473.535l19.149,8.618a8.222,8.222,0,0,1,4.67,3.642l11.128,22.188a8.185,8.185,0,0,1,.916,6.138Zm-36.242-2h34.45l4.165-37.74a6.2,6.2,0,0,0-.694-4.726l-.036-.066-11.109-22.154a6.2,6.2,0,0,0-3.552-2.706l-.127-.047-19.182-8.634a5.811,5.811,0,0,0-4.028-.478,4.551,4.551,0,0,0-2.544,2.852,6.251,6.251,0,0,0,3.378,8.171l.094.045,15.98,8.7,6.415,12.79-.715.494a15.73,15.73,0,0,0-6.492,12.859c0,1.06-.015,2.1-.029,3.1-.026,1.738-.05,3.381.011,4.852l.044,1.042h-24.77Z" fill="#42566b"/>
      </g>
      <g id="Grupo_27330" data-name="Grupo 27330">
        <path id="Trazado_21465" data-name="Trazado 21465" d="M112.92,227.647a6,6,0,0,1-5.995,5.995h-6.689a6,6,0,0,1-6-5.995h0a6,6,0,0,1,6-5.994h6.689a6,6,0,0,1,5.995,5.994Z" fill="#fff"/>
        <path id="Trazado_21466" data-name="Trazado 21466" d="M106.925,234.642h-6.689a6.994,6.994,0,1,1,0-13.989h6.689a6.994,6.994,0,0,1,0,13.989Zm-6.689-11.989a4.994,4.994,0,1,0,0,9.989h6.689a4.994,4.994,0,0,0,0-9.989Z" fill="#42566b"/>
      </g>
      <g id="Grupo_27331" data-name="Grupo 27331">
        <path id="Trazado_21467" data-name="Trazado 21467" d="M116.825,214.346a5.994,5.994,0,0,1-5.994,6h-10.6a6,6,0,0,1-6-6h0a6,6,0,0,1,6-5.994h10.6a5.994,5.994,0,0,1,5.994,5.994Z" fill="#fff"/>
        <path id="Trazado_21468" data-name="Trazado 21468" d="M110.831,221.341h-10.6a6.994,6.994,0,1,1,0-13.989h10.6a6.994,6.994,0,0,1,0,13.989Zm-10.6-11.989a4.994,4.994,0,1,0,0,9.989h10.6a4.994,4.994,0,0,0,0-9.989Z" fill="#42566b"/>
      </g>
      <g id="Grupo_27332" data-name="Grupo 27332">
        <path id="Trazado_21469" data-name="Trazado 21469" d="M119.823,201.045a6,6,0,0,1-5.995,5.995H100.236a6,6,0,0,1-6-5.995h0a6,6,0,0,1,6-5.994h13.592a6,6,0,0,1,5.995,5.994Z" fill="#fff"/>
        <path id="Trazado_21470" data-name="Trazado 21470" d="M113.828,208.04H100.236a6.994,6.994,0,1,1,0-13.989h13.592a6.994,6.994,0,1,1,0,13.989Zm-13.592-11.989a4.994,4.994,0,1,0,0,9.989h13.592a4.994,4.994,0,1,0,0-9.989Z" fill="#42566b"/>
      </g>
      <g id="Grupo_27333" data-name="Grupo 27333">
        <path id="Trazado_21471" data-name="Trazado 21471" d="M115.917,187.744a6,6,0,0,1-6,5.995h-9.686a6,6,0,0,1-6-5.995h0a6,6,0,0,1,6-5.994h9.686a6,6,0,0,1,6,5.994Z" fill="#fff"/>
        <path id="Trazado_21472" data-name="Trazado 21472" d="M109.922,194.739h-9.686a6.994,6.994,0,1,1,0-13.989h9.686a6.994,6.994,0,1,1,0,13.989Zm-9.686-11.989a4.994,4.994,0,1,0,0,9.989h9.686a4.994,4.994,0,1,0,0-9.989Z" fill="#42566b"/>
      </g>
      <g id="Grupo_27334" data-name="Grupo 27334">
        <path id="Trazado_21473" data-name="Trazado 21473" d="M112.144,188.425a2.727,2.727,0,0,1-2.726,2.726h0a2.725,2.725,0,0,1-2.724-2.726v-1.66a2.724,2.724,0,0,1,2.724-2.725h0a2.726,2.726,0,0,1,2.726,2.725Z" fill="#fff"/>
        <path id="Trazado_21474" data-name="Trazado 21474" d="M109.418,192.15a3.728,3.728,0,0,1-3.724-3.725v-1.66a3.725,3.725,0,1,1,7.45,0v1.66A3.729,3.729,0,0,1,109.418,192.15Zm0-7.11a1.726,1.726,0,0,0-1.724,1.725v1.66a1.725,1.725,0,0,0,3.45,0v-1.66A1.727,1.727,0,0,0,109.418,185.04Z" fill="#42566b"/>
      </g>
      <g id="Grupo_27335" data-name="Grupo 27335">
        <path id="Trazado_21475" data-name="Trazado 21475" d="M116.644,201.425a2.727,2.727,0,0,1-2.726,2.726h0a2.725,2.725,0,0,1-2.724-2.726v-1.66a2.724,2.724,0,0,1,2.724-2.725h0a2.726,2.726,0,0,1,2.726,2.725Z" fill="#fff"/>
        <path id="Trazado_21476" data-name="Trazado 21476" d="M113.918,205.15a3.728,3.728,0,0,1-3.724-3.725v-1.66a3.725,3.725,0,1,1,7.45,0v1.66A3.729,3.729,0,0,1,113.918,205.15Zm0-7.11a1.726,1.726,0,0,0-1.724,1.725v1.66a1.725,1.725,0,0,0,3.45,0v-1.66A1.727,1.727,0,0,0,113.918,198.04Z" fill="#42566b"/>
      </g>
      <g id="Grupo_27336" data-name="Grupo 27336">
        <path id="Trazado_21477" data-name="Trazado 21477" d="M113.727,214.842A2.726,2.726,0,0,1,111,217.567h0a2.724,2.724,0,0,1-2.724-2.725v-1.66A2.724,2.724,0,0,1,111,210.456h0a2.726,2.726,0,0,1,2.726,2.726Z" fill="#fff"/>
        <path id="Trazado_21478" data-name="Trazado 21478" d="M111,218.567a3.728,3.728,0,0,1-3.724-3.725v-1.66a3.725,3.725,0,1,1,7.45,0v1.66A3.729,3.729,0,0,1,111,218.567Zm0-7.111a1.727,1.727,0,0,0-1.724,1.726v1.66a1.725,1.725,0,1,0,3.45,0v-1.66A1.728,1.728,0,0,0,111,211.456Z" fill="#42566b"/>
      </g>
      <g id="Grupo_27337" data-name="Grupo 27337">
        <path id="Trazado_21479" data-name="Trazado 21479" d="M109.894,228.592a2.726,2.726,0,0,1-2.726,2.725h0a2.724,2.724,0,0,1-2.724-2.725v-1.66a2.724,2.724,0,0,1,2.724-2.726h0a2.726,2.726,0,0,1,2.726,2.726Z" fill="#fff"/>
        <path id="Trazado_21480" data-name="Trazado 21480" d="M107.168,232.317a3.728,3.728,0,0,1-3.724-3.725v-1.66a3.725,3.725,0,1,1,7.45,0v1.66A3.729,3.729,0,0,1,107.168,232.317Zm0-7.111a1.727,1.727,0,0,0-1.724,1.726v1.66a1.725,1.725,0,1,0,3.45,0v-1.66A1.728,1.728,0,0,0,107.168,225.206Z" fill="#42566b"/>
      </g>
      <g id="Grupo_27338" data-name="Grupo 27338">
        <path id="Trazado_21481" data-name="Trazado 21481" d="M131.957,197.961a3.8,3.8,0,0,1-5.046,1.828l-2.559-1.2a3.8,3.8,0,0,1-1.829-5.046h0a3.8,3.8,0,0,1,5.047-1.829l2.558,1.2a3.8,3.8,0,0,1,1.829,5.047Z" fill="#fff"/>
        <path id="Trazado_21482" data-name="Trazado 21482" d="M128.512,201.147a4.76,4.76,0,0,1-2.025-.452l-2.558-1.2a4.8,4.8,0,1,1,4.065-8.687l2.558,1.2a4.8,4.8,0,0,1,2.311,6.376h0A4.8,4.8,0,0,1,128.512,201.147Zm-2.549-8.789a2.8,2.8,0,0,0-1.187,5.329l2.558,1.2a2.8,2.8,0,1,0,2.37-5.064l-2.558-1.2A2.791,2.791,0,0,0,125.963,192.358Z" fill="#42566b"/>
      </g>
      <g id="Grupo_27340" data-name="Grupo 27340">
        <rect id="Rectángulo_4299" data-name="Rectángulo 4299" width="38.382" height="9.042" transform="translate(123.722 270.096)" fill="#fff"/>
        <g id="Grupo_27339" data-name="Grupo 27339">
          <path id="Trazado_21483" data-name="Trazado 21483" d="M163.1,280.138H122.722V269.1H163.1Zm-38.382-2H161.1V271.1H124.722Z" fill="#44566b"/>
        </g>
      </g>
      <g id="Grupo_27341" data-name="Grupo 27341">
        <rect id="Rectángulo_4300" data-name="Rectángulo 4300" width="38.382" height="95.477" transform="translate(123.722 279.138)" fill="#bc85c6"/>
        <path id="Trazado_21484" data-name="Trazado 21484" d="M163.1,375.615H122.722V278.138H163.1Zm-38.382-2H161.1V280.138H124.722Z" fill="#44566b"/>
      </g>
      <rect id="Rectángulo_4301" data-name="Rectángulo 4301" width="4.34" height="3.472" transform="translate(153.714 272.773)" fill="#43566b"/>
    </g>
    <g id="Grupo_27362" data-name="Grupo 27362">
      <g id="Grupo_27344" data-name="Grupo 27344">
        <path id="Trazado_21485" data-name="Trazado 21485" d="M174.706,256.151V374.615h89.58V261.594l-10.332-5.443Z" fill="#fff"/>
        <g id="Grupo_27343" data-name="Grupo 27343">
          <path id="Trazado_21486" data-name="Trazado 21486" d="M264.287,375.615H174.706a1,1,0,0,1-1-1V256.151a1,1,0,0,1,1-1h79.249a1,1,0,0,1,.466.116l10.331,5.442a1,1,0,0,1,.535.885V374.615A1,1,0,0,1,264.287,375.615Zm-88.581-2h87.581V262.2l-9.579-5.046h-78Z" fill="#43566b"/>
        </g>
      </g>
      <g id="Grupo_27346" data-name="Grupo 27346">
        <path id="Trazado_21487" data-name="Trazado 21487" d="M253.955,256.151l10.332,5.443-8.588,2.588Z" fill="#fff"/>
        <g id="Grupo_27345" data-name="Grupo 27345">
          <path id="Trazado_21488" data-name="Trazado 21488" d="M255.7,265.182a1,1,0,0,1-.977-.788l-1.744-8.031a1,1,0,0,1,1.443-1.1l10.331,5.442a1,1,0,0,1-.177,1.842l-8.588,2.588A.981.981,0,0,1,255.7,265.182Zm-.311-7.146,1.058,4.876,5.215-1.571Z" fill="#43566b"/>
        </g>
      </g>
      <g id="Grupo_27354" data-name="Grupo 27354">
        <g id="Grupo_27347" data-name="Grupo 27347">
          <rect id="Rectángulo_4302" data-name="Rectángulo 4302" width="4.197" height="8.394" transform="translate(185.722 299.389)" fill="#fff"/>
          <path id="Trazado_21489" data-name="Trazado 21489" d="M190.919,308.782h-6.2V298.389h6.2Zm-4.2-2h2.2v-6.393h-2.2Z" fill="#43566b"/>
        </g>
        <g id="Grupo_27348" data-name="Grupo 27348">
          <rect id="Rectángulo_4303" data-name="Rectángulo 4303" width="4.197" height="14.689" transform="translate(196.214 293.094)" fill="#fff"/>
          <path id="Trazado_21490" data-name="Trazado 21490" d="M201.411,308.782h-6.2V292.094h6.2Zm-4.2-2h2.2V294.094h-2.2Z" fill="#43566b"/>
        </g>
        <g id="Grupo_27349" data-name="Grupo 27349">
          <rect id="Rectángulo_4304" data-name="Rectángulo 4304" width="4.197" height="23.082" transform="translate(206.706 284.7)" fill="#fff"/>
          <path id="Trazado_21491" data-name="Trazado 21491" d="M211.9,308.782h-6.2V283.7h6.2Zm-4.2-2h2.2V285.7h-2.2Z" fill="#43566b"/>
        </g>
        <g id="Grupo_27350" data-name="Grupo 27350">
          <rect id="Rectángulo_4305" data-name="Rectángulo 4305" width="4.197" height="27.279" transform="translate(217.198 280.504)" fill="#fff"/>
          <path id="Trazado_21492" data-name="Trazado 21492" d="M222.4,308.782h-6.2V279.5h6.2Zm-4.2-2h2.2V281.5h-2.2Z" fill="#43566b"/>
        </g>
        <g id="Grupo_27351" data-name="Grupo 27351">
          <rect id="Rectángulo_4306" data-name="Rectángulo 4306" width="4.197" height="33.574" transform="translate(227.69 274.208)" fill="#fff"/>
          <path id="Trazado_21493" data-name="Trazado 21493" d="M232.887,308.782h-6.2V273.208h6.2Zm-4.2-2h2.2V275.208h-2.2Z" fill="#43566b"/>
        </g>
        <g id="Grupo_27352" data-name="Grupo 27352">
          <rect id="Rectángulo_4307" data-name="Rectángulo 4307" width="4.197" height="30.497" transform="translate(238.182 277.286)" fill="#fff"/>
          <path id="Trazado_21494" data-name="Trazado 21494" d="M243.379,308.782h-6.2v-32.5h6.2Zm-4.2-2h2.2v-28.5h-2.2Z" fill="#43566b"/>
        </g>
        <g id="Grupo_27353" data-name="Grupo 27353">
          <rect id="Rectángulo_4308" data-name="Rectángulo 4308" width="4.197" height="36.792" transform="translate(248.674 270.99)" fill="#fff"/>
          <path id="Trazado_21495" data-name="Trazado 21495" d="M253.871,308.782h-6.2V269.99h6.2Zm-4.2-2h2.2V271.99h-2.2Z" fill="#43566b"/>
        </g>
      </g>
      <g id="Grupo_27355" data-name="Grupo 27355">
        <line id="Línea_218" data-name="Línea 218" x1="70.669" transform="translate(183.962 314.206)" fill="#fff"/>
        <rect id="Rectángulo_4309" data-name="Rectángulo 4309" width="70.669" height="2" transform="translate(183.962 313.206)" fill="#43566b"/>
      </g>
      <g id="Grupo_27356" data-name="Grupo 27356">
        <path id="Trazado_21496" data-name="Trazado 21496" d="M215.238,338.916l8.079-13.994,8.079,13.994Z" fill="#e0c0ff"/>
        <path id="Trazado_21497" data-name="Trazado 21497" d="M208.9,338.916l8.08-19.43,8.079,19.43Z" fill="#bc85c6"/>
        <path id="Trazado_21498" data-name="Trazado 21498" d="M197.57,338.916l8.079-13.994,8.079,13.994Z" fill="#e0c0ff"/>
        <path id="Trazado_21499" data-name="Trazado 21499" d="M191.228,338.916l8.079-19.43,8.079,19.43Z" fill="#bc85c6"/>
        <path id="Trazado_21500" data-name="Trazado 21500" d="M231.206,338.916l8.079-18.071,8.079,18.071Z" fill="#e0c0ff"/>
        <path id="Trazado_21501" data-name="Trazado 21501" d="M224.864,338.916l8.079-13.994,8.079,13.994Z" fill="#bc85c6"/>
      </g>
      <g id="Grupo_27361" data-name="Grupo 27361">
        <g id="Grupo_27357" data-name="Grupo 27357">
          <path id="Trazado_21502" data-name="Trazado 21502" d="M252.95,350.647h-2v-2h2Zm-4,0h-23v-2h23Zm-25,0h-2v-2h2Zm-25,0h-2v-2h2Zm-4,0h-9.306v-2h9.306Z" fill="#43566b"/>
        </g>
        <g id="Grupo_27358" data-name="Grupo 27358">
          <path id="Trazado_21503" data-name="Trazado 21503" d="M252.95,358.462h-2v-2h2Zm-4,0h-23v-2h23Zm-25,0h-2v-2h2Zm-25,0h-2v-2h2Zm-4,0h-9.306v-2h9.306Z" fill="#43566b"/>
        </g>
        <g id="Grupo_27359" data-name="Grupo 27359">
          <path id="Trazado_21504" data-name="Trazado 21504" d="M252.95,366.276h-2v-2h2Zm-4,0h-23v-2h23Zm-25,0h-2v-2h2Zm-25,0h-2v-2h2Zm-4,0h-9.306v-2h9.306Z" fill="#43566b"/>
        </g>
        <g id="Grupo_27360" data-name="Grupo 27360">
          <rect id="Rectángulo_4310" data-name="Rectángulo 4310" width="18.402" height="16.025" transform="translate(185.665 349.484)" fill="#fff"/>
          <path id="Trazado_21505" data-name="Trazado 21505" d="M204.068,366.509h-18.4a1,1,0,0,1-1-1V349.483a1,1,0,0,1,1-1h18.4a1,1,0,0,1,1,1v16.026A1,1,0,0,1,204.068,366.509Zm-17.4-2h16.4V350.483h-16.4Z" fill="#43566b"/>
        </g>
      </g>
    </g>
    <g id="Grupo_27369" data-name="Grupo 27369">
      <g id="Grupo_27365" data-name="Grupo 27365">
        <g id="Grupo_27363" data-name="Grupo 27363">
          <path id="Trazado_21506" data-name="Trazado 21506" d="M307.14,205.082c0-6.044,6.7-10.943,14.956-10.943s14.956,4.9,14.956,10.943c0,4.019-2.969,7.522-7.381,9.425a16.926,16.926,0,0,0,3.437,5.953,18.2,18.2,0,0,1-12.885-4.529C312.85,215.255,307.14,210.661,307.14,205.082Z" fill="#e0c0ff"/>
          <path id="Trazado_21507" data-name="Trazado 21507" d="M332.24,221.48a19.045,19.045,0,0,1-12.423-4.584c-7.819-.836-13.676-5.873-13.676-11.814,0-6.585,7.157-11.943,15.956-11.943s15.955,5.358,15.955,11.943c0,4-2.709,7.749-7.132,9.947a16.124,16.124,0,0,0,2.909,4.74l1.523,1.593-2.2.1C332.846,221.474,332.541,221.48,332.24,221.48ZM322.1,195.139c-7.7,0-13.956,4.46-13.956,9.943,0,4.981,5.233,9.217,12.174,9.853l.316.029.241.206a17.233,17.233,0,0,0,10.156,4.269,18.019,18.019,0,0,1-2.308-4.624l-.281-.866.836-.36c4.18-1.8,6.777-5.063,6.777-8.507C336.052,199.6,329.792,195.139,322.1,195.139Z" fill="#43566b"/>
        </g>
        <g id="Grupo_27364" data-name="Grupo 27364">
          <path id="Trazado_21508" data-name="Trazado 21508" d="M326.109,204.794a1.824,1.824,0,1,0,1.824-1.824A1.824,1.824,0,0,0,326.109,204.794Z" fill="#fff"/>
          <path id="Trazado_21509" data-name="Trazado 21509" d="M320.637,204.794a1.824,1.824,0,1,0,1.824-1.824A1.824,1.824,0,0,0,320.637,204.794Z" fill="#fff"/>
          <path id="Trazado_21510" data-name="Trazado 21510" d="M315.166,204.794a1.824,1.824,0,1,0,1.824-1.824A1.824,1.824,0,0,0,315.166,204.794Z" fill="#fff"/>
        </g>
      </g>
      <g id="Grupo_27368" data-name="Grupo 27368">
        <g id="Grupo_27366" data-name="Grupo 27366">
          <path id="Trazado_21511" data-name="Trazado 21511" d="M323.97,194.394c0-6.747-7.475-12.217-16.7-12.217s-16.7,5.47-16.7,12.217c0,4.486,3.315,8.4,8.24,10.52a18.915,18.915,0,0,1-3.836,6.647,20.309,20.309,0,0,0,14.383-5.057C317.6,205.75,323.97,200.621,323.97,194.394Z" fill="#fff"/>
          <path id="Trazado_21512" data-name="Trazado 21512" d="M295.954,212.582c-.337,0-.675-.008-1.015-.022l-2.2-.1,1.526-1.594a18.132,18.132,0,0,0,3.31-5.427c-4.955-2.427-7.993-6.594-7.993-11.047,0-7.288,7.939-13.217,17.7-13.217s17.7,5.929,17.7,13.217c0,6.582-6.512,12.161-15.2,13.075A21.15,21.15,0,0,1,295.954,212.582Zm11.321-29.4c-8.655,0-15.7,5.032-15.7,11.217,0,3.892,2.926,7.571,7.636,9.6l.836.36-.281.867a20.031,20.031,0,0,1-2.7,5.327,19.325,19.325,0,0,0,11.646-4.807l.241-.206.316-.029c7.808-.715,13.7-5.493,13.7-11.114C322.971,188.209,315.93,183.177,307.275,183.177Z" fill="#44566b"/>
        </g>
        <g id="Grupo_27367" data-name="Grupo 27367">
          <path id="Trazado_21513" data-name="Trazado 21513" d="M302.8,194.072a2.036,2.036,0,1,1-2.036-2.036A2.035,2.035,0,0,1,302.8,194.072Z" fill="#34485f"/>
          <path id="Trazado_21514" data-name="Trazado 21514" d="M308.9,194.072a2.036,2.036,0,1,1-2.037-2.036A2.036,2.036,0,0,1,308.9,194.072Z" fill="#34485f"/>
          <path id="Trazado_21515" data-name="Trazado 21515" d="M315.012,194.072a2.036,2.036,0,1,1-2.036-2.036A2.036,2.036,0,0,1,315.012,194.072Z" fill="#34485f"/>
        </g>
      </g>
    </g>
    <g id="Grupo_27384" data-name="Grupo 27384">
      <g id="Grupo_27383" data-name="Grupo 27383">
        <g id="Grupo_27370" data-name="Grupo 27370">
          <path id="Trazado_21516" data-name="Trazado 21516" d="M597.131,286.874v24.085a15.494,15.494,0,0,0,10.128,14.535c.177.064.356.113.536.172v5.5c-.179.057-.359.107-.536.171a15.494,15.494,0,0,0-10.128,14.535v24.086h30.416V345.867a15.492,15.492,0,0,0-10.125-14.535c-.146-.055-.294-.094-.441-.141v-5.556c.147-.049.295-.088.439-.141a15.491,15.491,0,0,0,10.127-14.535V286.874Z" fill="#bc85c6"/>
          <path id="Trazado_21517" data-name="Trazado 21517" d="M628.548,370.953H596.131V345.867a16.56,16.56,0,0,1,10.664-15.429v-4.049a16.561,16.561,0,0,1-10.664-15.43V285.874h32.417v25.085a16.558,16.558,0,0,1-10.567,15.393v4.122a16.561,16.561,0,0,1,10.567,15.393Zm-30.417-2h28.417V345.867a14.55,14.55,0,0,0-9.472-13.6c-.075-.029-.149-.051-.224-.074l-.871-.281v-7l.9-.3c.067-.02.134-.04.2-.064a14.547,14.547,0,0,0,9.471-13.6V287.874H598.131v23.085a14.548,14.548,0,0,0,9.474,13.6c.089.032.188.062.288.092l.9.292v6.95l-.9.288c-.1.029-.2.058-.291.094a14.548,14.548,0,0,0-9.471,13.6Z" fill="#44566b"/>
        </g>
        <g id="Grupo_27371" data-name="Grupo 27371">
          <rect id="Rectángulo_4311" data-name="Rectángulo 4311" width="38.079" height="4.661" transform="translate(593.301 282.213)" fill="#bc85c6"/>
          <path id="Trazado_21518" data-name="Trazado 21518" d="M632.38,287.874H592.3v-6.661H632.38Zm-38.079-2H630.38v-2.661H594.3Z" fill="#44566b"/>
        </g>
        <g id="Grupo_27372" data-name="Grupo 27372">
          <rect id="Rectángulo_4312" data-name="Rectángulo 4312" width="38.079" height="4.662" transform="translate(593.301 369.953)" fill="#bc85c6"/>
          <path id="Trazado_21519" data-name="Trazado 21519" d="M632.38,375.615H592.3v-6.662H632.38Zm-38.079-2H630.38v-2.662H594.3Z" fill="#44566b"/>
        </g>
        <g id="Grupo_27377" data-name="Grupo 27377">
          <g id="Grupo_27373" data-name="Grupo 27373">
            <path id="Trazado_21520" data-name="Trazado 21520" d="M607.752,309.8a1.492,1.492,0,1,1-1.492-1.492A1.494,1.494,0,0,1,607.752,309.8Z" fill="#fff"/>
            <path id="Trazado_21521" data-name="Trazado 21521" d="M613.367,309.8a1.492,1.492,0,1,1-1.492-1.492A1.493,1.493,0,0,1,613.367,309.8Z" fill="#fff"/>
            <path id="Trazado_21522" data-name="Trazado 21522" d="M618.981,309.8a1.492,1.492,0,1,1-1.492-1.492A1.489,1.489,0,0,1,618.981,309.8Z" fill="#fff"/>
          </g>
          <g id="Grupo_27374" data-name="Grupo 27374">
            <path id="Trazado_21523" data-name="Trazado 21523" d="M613.367,319.815a1.492,1.492,0,1,1-1.492-1.493A1.492,1.492,0,0,1,613.367,319.815Z" fill="#fff"/>
          </g>
          <g id="Grupo_27375" data-name="Grupo 27375">
            <path id="Trazado_21524" data-name="Trazado 21524" d="M621.259,304.789a1.491,1.491,0,1,1-1.491-1.495A1.488,1.488,0,0,1,621.259,304.789Z" fill="#fff"/>
            <path id="Trazado_21525" data-name="Trazado 21525" d="M605.472,304.789a1.491,1.491,0,1,1-1.491-1.495A1.489,1.489,0,0,1,605.472,304.789Z" fill="#fff"/>
            <path id="Trazado_21526" data-name="Trazado 21526" d="M610.735,304.789a1.491,1.491,0,1,1-1.493-1.495A1.49,1.49,0,0,1,610.735,304.789Z" fill="#fff"/>
            <path id="Trazado_21527" data-name="Trazado 21527" d="M616,304.789a1.491,1.491,0,1,1-1.49-1.495A1.49,1.49,0,0,1,616,304.789Z" fill="#fff"/>
          </g>
          <g id="Grupo_27376" data-name="Grupo 27376">
            <path id="Trazado_21528" data-name="Trazado 21528" d="M621.259,314.8a1.491,1.491,0,1,1-1.491-1.49A1.49,1.49,0,0,1,621.259,314.8Z" fill="#fff"/>
            <path id="Trazado_21529" data-name="Trazado 21529" d="M605.472,314.8a1.491,1.491,0,1,1-1.491-1.49A1.492,1.492,0,0,1,605.472,314.8Z" fill="#fff"/>
            <path id="Trazado_21530" data-name="Trazado 21530" d="M610.735,314.8a1.491,1.491,0,1,1-1.493-1.49A1.493,1.493,0,0,1,610.735,314.8Z" fill="#fff"/>
            <path id="Trazado_21531" data-name="Trazado 21531" d="M616,314.8a1.491,1.491,0,1,1-1.49-1.49A1.493,1.493,0,0,1,616,314.8Z" fill="#fff"/>
          </g>
        </g>
        <g id="Grupo_27382" data-name="Grupo 27382">
          <g id="Grupo_27378" data-name="Grupo 27378">
            <path id="Trazado_21532" data-name="Trazado 21532" d="M607.752,360.727a1.492,1.492,0,1,0-1.492,1.492A1.492,1.492,0,0,0,607.752,360.727Z" fill="#fff"/>
            <path id="Trazado_21533" data-name="Trazado 21533" d="M613.367,360.727a1.492,1.492,0,1,0-1.492,1.492A1.491,1.491,0,0,0,613.367,360.727Z" fill="#fff"/>
            <path id="Trazado_21534" data-name="Trazado 21534" d="M618.981,360.727a1.492,1.492,0,1,0-1.492,1.492A1.488,1.488,0,0,0,618.981,360.727Z" fill="#fff"/>
          </g>
          <g id="Grupo_27379" data-name="Grupo 27379">
            <path id="Trazado_21535" data-name="Trazado 21535" d="M613.367,350.711a1.492,1.492,0,1,0-1.492,1.492A1.493,1.493,0,0,0,613.367,350.711Z" fill="#fff"/>
          </g>
          <g id="Grupo_27380" data-name="Grupo 27380">
            <path id="Trazado_21536" data-name="Trazado 21536" d="M621.259,365.737a1.491,1.491,0,1,0-1.491,1.492A1.489,1.489,0,0,0,621.259,365.737Z" fill="#fff"/>
            <path id="Trazado_21537" data-name="Trazado 21537" d="M605.472,365.737a1.491,1.491,0,1,0-1.491,1.492A1.49,1.49,0,0,0,605.472,365.737Z" fill="#fff"/>
            <path id="Trazado_21538" data-name="Trazado 21538" d="M610.735,365.737a1.491,1.491,0,1,0-1.493,1.492A1.492,1.492,0,0,0,610.735,365.737Z" fill="#fff"/>
            <path id="Trazado_21539" data-name="Trazado 21539" d="M616,365.737a1.491,1.491,0,1,0-1.49,1.492A1.492,1.492,0,0,0,616,365.737Z" fill="#fff"/>
          </g>
          <g id="Grupo_27381" data-name="Grupo 27381">
            <path id="Trazado_21540" data-name="Trazado 21540" d="M621.259,355.72a1.491,1.491,0,1,0-1.491,1.491A1.49,1.49,0,0,0,621.259,355.72Z" fill="#fff"/>
            <path id="Trazado_21541" data-name="Trazado 21541" d="M605.472,355.72a1.491,1.491,0,1,0-1.491,1.491A1.491,1.491,0,0,0,605.472,355.72Z" fill="#fff"/>
            <path id="Trazado_21542" data-name="Trazado 21542" d="M610.735,355.72a1.491,1.491,0,1,0-1.493,1.491A1.492,1.492,0,0,0,610.735,355.72Z" fill="#fff"/>
            <path id="Trazado_21543" data-name="Trazado 21543" d="M616,355.72a1.491,1.491,0,1,0-1.49,1.491A1.492,1.492,0,0,0,616,355.72Z" fill="#fff"/>
          </g>
        </g>
      </g>
    </g>
    <g id="Grupo_27393" data-name="Grupo 27393">
      <g id="Grupo_27388" data-name="Grupo 27388">
        <g id="Grupo_27385" data-name="Grupo 27385">
          <path id="Trazado_21544" data-name="Trazado 21544" d="M204.368,167.826l-4.43-4.43,4.43-4.43L208.8,163.4Zm-1.6-4.43,1.6,1.6,1.6-1.6-1.6-1.6Z" fill="#42566b"/>
        </g>
        <g id="Grupo_27386" data-name="Grupo 27386">
          <path id="Trazado_21545" data-name="Trazado 21545" d="M204.368,182.575l-4.43-4.43,4.43-4.43,4.429,4.431Zm-1.6-4.43,1.6,1.6,1.6-1.6-1.6-1.6Z" fill="#42566b"/>
        </g>
        <g id="Grupo_27387" data-name="Grupo 27387">
          <path id="Trazado_21546" data-name="Trazado 21546" d="M204.368,197.323l-4.43-4.429,4.43-4.431L208.8,192.9Zm-1.6-4.429,1.6,1.6,1.6-1.6-1.6-1.6Z" fill="#42566b"/>
        </g>
      </g>
      <g id="Grupo_27392" data-name="Grupo 27392">
        <g id="Grupo_27390" data-name="Grupo 27390">
          <path id="Trazado_21547" data-name="Trazado 21547" d="M216.935,136.918a12.567,12.567,0,1,1-12.566-12.567A12.566,12.566,0,0,1,216.935,136.918Z" fill="#fff"/>
          <g id="Grupo_27389" data-name="Grupo 27389">
            <path id="Trazado_21548" data-name="Trazado 21548" d="M204.369,150.483a13.566,13.566,0,1,1,13.566-13.566A13.582,13.582,0,0,1,204.369,150.483Zm0-25.132a11.566,11.566,0,1,0,11.566,11.566A11.581,11.581,0,0,0,204.369,125.351Z" fill="#44566b"/>
          </g>
        </g>
        <g id="Grupo_27391" data-name="Grupo 27391">
          <path id="Trazado_21549" data-name="Trazado 21549" d="M201.414,134.9v2.134h2.079v1.133h-2.079v2.156h-1.133v-2.156h-2.1v-1.133h2.1V134.9Z" fill="#43566b"/>
          <path id="Trazado_21550" data-name="Trazado 21550" d="M209.455,134.1h-3.047c-.044.418-.165,1.3-.2,1.585a2.047,2.047,0,0,1,1.342-.418,2.211,2.211,0,0,1,2.3,2.475,2.49,2.49,0,0,1-2.74,2.739,2.3,2.3,0,0,1-2.542-2.145h1.508a1.035,1.035,0,0,0,1.078.968c.759,0,1.133-.462,1.133-1.474,0-.924-.385-1.353-1.145-1.353a1.094,1.094,0,0,0-1.176.792l-1.277-.2c.132-1.056.441-3.311.518-4.236h4.422Z" fill="#43566b"/>
        </g>
      </g>
    </g>
    <g id="Grupo_27394" data-name="Grupo 27394">
      <path id="Trazado_21551" data-name="Trazado 21551" d="M554.655,286.442h-2V202.219H619.4v57.308h-2V204.219h-62.74Z" fill="#44566b"/>
    </g>
    <g id="Grupo_27395" data-name="Grupo 27395">
      <rect id="Rectángulo_4313" data-name="Rectángulo 4313" width="17.656" height="64.74" transform="translate(553.656 220.875) rotate(-90)" fill="#fff"/>
      <path id="Trazado_21552" data-name="Trazado 21552" d="M618.4,221.875h-64.74a1,1,0,0,1-1-1V203.219a1,1,0,0,1,1-1H618.4a1,1,0,0,1,1,1v17.656A1,1,0,0,1,618.4,221.875Zm-63.74-2H617.4V204.219h-62.74Z" fill="#43566b"/>
    </g>
    <g id="Grupo_27396" data-name="Grupo 27396">
      <path id="Rectángulo_4314" data-name="Rectángulo 4314" d="M0,0H21.58A3.924,3.924,0,0,1,25.5,3.924v7.847a3.924,3.924,0,0,1-3.924,3.924H3.924A3.924,3.924,0,0,1,0,11.771V0A0,0,0,0,1,0,0Z" transform="translate(576.833 214.99) rotate(-90)" fill="#fff"/>
      <path id="Trazado_21553" data-name="Trazado 21553" d="M588.6,215.989H576.833a1,1,0,0,1-1-1V193.41a4.93,4.93,0,0,1,4.924-4.924H588.6a4.93,4.93,0,0,1,4.924,4.924v17.656A4.929,4.929,0,0,1,588.6,215.989Zm-10.771-2H588.6a2.926,2.926,0,0,0,2.924-2.923V193.41a2.926,2.926,0,0,0-2.924-2.924h-7.847a2.926,2.926,0,0,0-2.924,2.924Z" fill="#43566b"/>
    </g>
    <g id="Grupo_27397" data-name="Grupo 27397">
      <path id="Trazado_21554" data-name="Trazado 21554" d="M562.668,284.729h-2v-2.005h2Zm0-3.008h-2v-2.006h2Zm0-3.009h-2v-2.005h2Zm0-3.008h-2V273.7h2Zm0-3.009h-2V270.69h2Zm0-3.009h-2v-2.005h2Zm0-3.007h-2v-2.006h2Zm0-3.009h-2v-2.006h2Zm0-3.009h-2v-2.006h2Zm0-3.009h-2v-2.005h2Zm0-3.007h-2v-2.006h2Zm0-3.009h-2V249.63h2Zm0-3.009h-2v-2.006h2Zm0-3.009h-2v-2h2Zm0-3.008h-2V240.6h2Zm0-3.008h-2V237.6h2Zm0-3.009h-2v-2.006h2Zm0-3.008h-2v-2.006h2Zm0-3.009h-2V228.57h2Z" fill="#45566b"/>
    </g>
    <g id="Grupo_27398" data-name="Grupo 27398">
      <path id="Trazado_21555" data-name="Trazado 21555" d="M611.932,260.032h-2v-1.377h2Zm0-2.38h-2v-2.005h2Zm0-3.007h-2v-2.006h2Zm0-3.009h-2V249.63h2Zm0-3.009h-2v-2.006h2Zm0-3.009h-2v-2h2Zm0-3.008h-2V240.6h2Zm0-3.008h-2V237.6h2Zm0-3.009h-2v-2.006h2Zm0-3.008h-2v-2.006h2Zm0-3.009h-2V228.57h2Z" fill="#45566b"/>
    </g>
    <g id="Grupo_27414" data-name="Grupo 27414">
      <g id="Grupo_27399" data-name="Grupo 27399">
        <path id="Trazado_21556" data-name="Trazado 21556" d="M542.157,374.222V302.709c0-5.721-12.881-10.325-18.586-10.392v0l50.557-.04v0c5.705.067,9.339,4.711,9.339,10.432v71.513Z" fill="#e0c0ff"/>
        <path id="Trazado_21557" data-name="Trazado 21557" d="M584.467,375.223h-43.31V302.709c0-4.839-11.953-9.326-17.6-9.393l-.989-.011v-1.988l1,0,51.558-.042v.06c5.468.559,9.339,5.19,9.339,11.377Zm-41.31-2h39.31V302.709c0-5.5-3.434-9.375-8.351-9.433l-.226,0-41.287.034c5.34,1.974,10.554,5.295,10.554,9.4Z" fill="#43566b"/>
      </g>
      <g id="Grupo_27401" data-name="Grupo 27401">
        <path id="Trazado_21558" data-name="Trazado 21558" d="M514.042,361.452V302.709a10.434,10.434,0,0,1,10.31-10.432v0h49.542v0c-5.7.067-8.5,4.711-8.5,10.432v58.743a13.16,13.16,0,0,1-13.163,13.161l-47.863,0v-.473A13.161,13.161,0,0,0,514.042,361.452Z" fill="#fff"/>
        <g id="Grupo_27400" data-name="Grupo 27400">
          <path id="Trazado_21559" data-name="Trazado 21559" d="M504.367,375.615a1,1,0,0,1-1-1v-.472a1,1,0,0,1,.735-.965,12.185,12.185,0,0,0,8.94-11.726V302.709a11.476,11.476,0,0,1,11.217-11.432c.031,0,.061,0,.093,0h49.542a1,1,0,0,1,.011,2c-5.539.066-7.512,4.915-7.512,9.433v58.743a14.178,14.178,0,0,1-14.164,14.161Zm20.062-82.342-.066,0a9.467,9.467,0,0,0-9.321,9.433v58.743a14.2,14.2,0,0,1-6.911,12.163l44.1,0a12.176,12.176,0,0,0,12.164-12.161V302.709c0-4.18,1.376-7.477,3.75-9.436Z" fill="#43566b"/>
        </g>
      </g>
      <g id="Grupo_27403" data-name="Grupo 27403">
        <path id="Trazado_21560" data-name="Trazado 21560" d="M543.682,362.96v1.22c0,5.721,3.655,10.365,9.36,10.432v0h-50.4v0a10.433,10.433,0,0,1-10.309-10.432v-1.22Z" fill="#fff"/>
        <g id="Grupo_27402" data-name="Grupo 27402">
          <path id="Trazado_21561" data-name="Trazado 21561" d="M553.042,375.615h-50.4a.929.929,0,0,1-.106-.006,11.471,11.471,0,0,1-11.2-11.428V362.96a1,1,0,0,1,1-1h51.351a1,1,0,0,1,1,1v1.221c0,5.495,3.442,9.373,8.372,9.43a1,1,0,0,1-.012,2Zm-50.313-2h44.289a11.535,11.535,0,0,1-4.336-9.434v-.221H493.331v.221a9.464,9.464,0,0,0,9.321,9.43C502.679,373.611,502.7,373.613,502.729,373.615Z" fill="#43566b"/>
        </g>
      </g>
      <g id="Grupo_27408" data-name="Grupo 27408">
        <g id="Grupo_27405" data-name="Grupo 27405">
          <path id="Trazado_21562" data-name="Trazado 21562" d="M528.277,305.836a15.561,15.561,0,0,1,21.99-.846L539.7,316.408Z" fill="#fff"/>
          <g id="Grupo_27404" data-name="Grupo 27404">
            <path id="Trazado_21563" data-name="Trazado 21563" d="M539.7,317.408a1,1,0,0,1-.679-.266L527.6,306.569a1,1,0,0,1-.054-1.413,16.56,16.56,0,0,1,23.4-.9A1,1,0,0,1,551,305.67l-10.571,11.418a1,1,0,0,1-.7.319Zm-9.979-11.6,9.925,9.19,9.189-9.925a14.562,14.562,0,0,0-19.114.735Z" fill="#43566b"/>
          </g>
        </g>
        <g id="Grupo_27406" data-name="Grupo 27406">
          <path id="Trazado_21564" data-name="Trazado 21564" d="M550.267,304.99a15.562,15.562,0,0,1,3.774,17.448l-14.346-6.03Z" fill="#e0c0ff"/>
          <path id="Trazado_21565" data-name="Trazado 21565" d="M554.575,323.748l-16.584-6.972,12.222-13.2.734.68a16.564,16.564,0,0,1,4.016,18.569ZM541.4,316.04l12.076,5.075a14.57,14.57,0,0,0-3.176-14.686Z" fill="#43566b"/>
        </g>
        <g id="Grupo_27407" data-name="Grupo 27407">
          <path id="Trazado_21566" data-name="Trazado 21566" d="M554.04,322.438a15.561,15.561,0,1,1-25.763-16.6L539.7,316.408Z" fill="#bc85c6"/>
          <path id="Trazado_21567" data-name="Trazado 21567" d="M539.674,332.967a16.559,16.559,0,0,1-12.13-27.811l.679-.733,12.022,11.132,15.1,6.348-.387.921a16.552,16.552,0,0,1-15.288,10.143Zm-11.317-25.7A14.561,14.561,0,0,0,550.38,326.3a14.453,14.453,0,0,0,2.319-3.342l-13.554-5.7Z" fill="#44566b"/>
        </g>
      </g>
      <g id="Grupo_27413" data-name="Grupo 27413">
        <g id="Grupo_27409" data-name="Grupo 27409">
          <path id="Trazado_21568" data-name="Trazado 21568" d="M557.253,344.117h-2v-2h2Zm-4,0h-10v-2h10Zm-12,0h-2v-2h2Zm-12,0h-2v-2h2Zm-4,0h-3.675v-2h3.675Z" fill="#43566b"/>
        </g>
        <g id="Grupo_27410" data-name="Grupo 27410">
          <path id="Trazado_21569" data-name="Trazado 21569" d="M557.253,349.886h-2v-2h2Zm-4,0h-10v-2h10Zm-12,0h-2v-2h2Zm-12,0h-2v-2h2Zm-4,0h-3.675v-2h3.675Z" fill="#43566b"/>
        </g>
        <g id="Grupo_27411" data-name="Grupo 27411">
          <path id="Trazado_21570" data-name="Trazado 21570" d="M557.253,355.655h-2v-2h2Zm-4,0h-10v-2h10Zm-12,0h-2v-2h2Zm-12,0h-2v-2h2Zm-4,0h-3.675v-2h3.675Z" fill="#43566b"/>
        </g>
        <g id="Grupo_27412" data-name="Grupo 27412">
          <rect id="Rectángulo_4315" data-name="Rectángulo 4315" width="11.371" height="11.831" transform="translate(521.803 342.996)" fill="#fff"/>
          <path id="Trazado_21571" data-name="Trazado 21571" d="M533.174,355.826H521.8a1,1,0,0,1-1-1V343a1,1,0,0,1,1-1h11.371a1,1,0,0,1,1,1v11.83A1,1,0,0,1,533.174,355.826Zm-10.371-2h9.371V344H522.8Z" fill="#43566b"/>
        </g>
      </g>
    </g>
    <g id="Grupo_27417" data-name="Grupo 27417">
      <g id="Grupo_27415" data-name="Grupo 27415">
        <circle id="Elipse_985" data-name="Elipse 985" cx="12.693" cy="12.693" r="12.693" transform="translate(539.716 191.544)" fill="#bc85c6"/>
        <path id="Trazado_21572" data-name="Trazado 21572" d="M552.41,217.932A13.694,13.694,0,1,1,566.1,204.238,13.709,13.709,0,0,1,552.41,217.932Zm0-25.388A11.694,11.694,0,1,0,564.1,204.238,11.707,11.707,0,0,0,552.41,192.544Z" fill="#44566b"/>
      </g>
      <g id="Grupo_27416" data-name="Grupo 27416">
        <path id="Trazado_21573" data-name="Trazado 21573" d="M552.037,210.154a1.5,1.5,0,0,1-.95-.339l-4.679-3.828a1.5,1.5,0,0,1,1.9-2.322l3.348,2.741,4.526-7.369a1.5,1.5,0,1,1,2.556,1.569l-5.424,8.833a1.5,1.5,0,0,1-1.028.694A1.406,1.406,0,0,1,552.037,210.154Z" fill="#fff"/>
      </g>
    </g>
    <g id="Grupo_27418" data-name="Grupo 27418">
      <path id="Trazado_21574" data-name="Trazado 21574" d="M365.961,304.935h-2V304.1h2Zm0-2.839h-2v-2h2Zm0-4h-2v-2h2Zm0-4h-2v-2h2Zm0-4h-2v-2h2Zm0-4h-2v-2h2Zm0-4h-2v-2h2Zm0-4h-2v-2h2Zm0-4h-2v-2h2Zm0-4h-2v-2h2Zm0-4h-2v-2h2Zm0-4h-2v-2h2Zm0-4h-2v-2h2Zm0-4h-2v-2h2Zm0-4h-2v-2h2Zm0-4h-2v-2h2Zm40.957-3.043h-2v-2h2Zm-4,0h-2v-2h2Zm-4,0h-2v-2h2Zm-4,0h-2v-2h2Zm-4,0h-2v-2h2Zm-4,0h-2v-2h2Zm-4,0h-2v-2h2Zm-4,0h-2v-2h2Zm-4,0h-2v-2h2Zm-4,0h-2v-2h2Zm-4,0h-1.957v-.979l-1,.022v-1l1-.043h1.957Z" fill="#bc85c6"/>
    </g>
    <g id="Grupo_27432" data-name="Grupo 27432">
      <g id="Grupo_27425" data-name="Grupo 27425">
        <g id="Grupo_27419" data-name="Grupo 27419">
          <path id="Rectángulo_4316" data-name="Rectángulo 4316" d="M0,0H102.674a0,0,0,0,1,0,0V61.342a5.694,5.694,0,0,1-5.694,5.694H5.694A5.694,5.694,0,0,1,0,61.342V0A0,0,0,0,1,0,0Z" transform="translate(222 307.579)" fill="#fff"/>
          <path id="Trazado_21575" data-name="Trazado 21575" d="M318.98,375.615H227.694A6.7,6.7,0,0,1,221,368.921V306.579H325.674v62.342A6.7,6.7,0,0,1,318.98,375.615ZM223,308.579v60.342a4.7,4.7,0,0,0,4.694,4.694H318.98a4.7,4.7,0,0,0,4.694-4.694V308.579Z" fill="#42566b"/>
        </g>
        <g id="Grupo_27420" data-name="Grupo 27420">
          <path id="Trazado_21576" data-name="Trazado 21576" d="M273.337,347.517a221.153,221.153,0,0,1-51.566-6.075l.467-1.945a219.924,219.924,0,0,0,102.2,0l.467,1.945A221.153,221.153,0,0,1,273.337,347.517Z" fill="#42566b"/>
        </g>
        <rect id="Rectángulo_4317" data-name="Rectángulo 4317" width="16.823" height="7.727" transform="translate(264.383 337.122)" fill="#bc85c6"/>
        <path id="Trazado_21577" data-name="Trazado 21577" d="M264.383,348.011v7.727c0,2.714,16.823,2.714,16.823,0v-7.727Zm7.109,7.026.923-2.272a1.048,1.048,0,1,1,.759,0l.923,2.272Z" fill="#bc85c6"/>
        <g id="Grupo_27421" data-name="Grupo 27421">
          <rect id="Rectángulo_4318" data-name="Rectángulo 4318" width="16.823" height="2" transform="translate(264.383 336.122)" fill="#42566b"/>
        </g>
        <g id="Grupo_27422" data-name="Grupo 27422">
          <line id="Línea_219" data-name="Línea 219" y1="24.058" transform="translate(264.383 310.627)" fill="#fff"/>
          <rect id="Rectángulo_4319" data-name="Rectángulo 4319" width="2" height="24.058" transform="translate(263.383 310.627)" fill="#42566b"/>
        </g>
        <g id="Grupo_27423" data-name="Grupo 27423">
          <line id="Línea_220" data-name="Línea 220" y1="24.058" transform="translate(281.206 310.627)" fill="#fff"/>
          <rect id="Rectángulo_4320" data-name="Rectángulo 4320" width="2" height="24.058" transform="translate(280.206 310.627)" fill="#42566b"/>
        </g>
        <g id="Grupo_27424" data-name="Grupo 27424">
          <path id="Trazado_21578" data-name="Trazado 21578" d="M318.619,367.422h-2v-2h2Zm-4,0h-2v-2h2Zm-4,0h-2v-2h2Zm-4,0h-2v-2h2Zm-4,0h-2v-2h2Zm-4,0h-2v-2h2Zm-4,0h-2v-2h2Zm-4,0h-2v-2h2Zm-4,0h-2v-2h2Zm-4,0h-2v-2h2Zm-4,0h-2v-2h2Zm-4,0h-2v-2h2Zm-4,0h-2v-2h2Zm-4,0h-2v-2h2Zm-4,0h-2v-2h2Zm-4,0h-2v-2h2Zm-4,0h-2v-2h2Zm-4,0h-2v-2h2Zm-4,0h-2v-2h2Zm-4,0h-2v-2h2Zm-4,0h-2v-2h2Zm-4,0h-2v-2h2Z" fill="#bc85c6"/>
        </g>
      </g>
      <g id="Grupo_27428" data-name="Grupo 27428">
        <g id="Grupo_27426" data-name="Grupo 27426">
          <rect id="Rectángulo_4321" data-name="Rectángulo 4321" width="25.468" height="8.684" transform="translate(260.486 290.293)" fill="#fff"/>
          <path id="Trazado_21579" data-name="Trazado 21579" d="M286.954,299.977H259.486V289.293h27.468Zm-25.468-2h23.468v-6.684H261.486Z" fill="#42566b"/>
        </g>
        <g id="Grupo_27427" data-name="Grupo 27427">
          <path id="Trazado_21580" data-name="Trazado 21580" d="M294.692,308.571l-42.711-.453V293.385h9.5v4.592h23.468v-4.592h9.738Zm-40.711-2.431,38.711.41V295.385h-5.738v4.592H259.486v-4.592h-5.5Z" fill="#42566b"/>
        </g>
      </g>
      <g id="Grupo_27431" data-name="Grupo 27431">
        <g id="Grupo_27429" data-name="Grupo 27429">
          <path id="Trazado_21581" data-name="Trazado 21581" d="M247.3,331.382H230.969V316.048h2v13.334H245.3V316.048h2Z" fill="#bc85c6"/>
        </g>
        <g id="Grupo_27430" data-name="Grupo 27430">
          <path id="Trazado_21582" data-name="Trazado 21582" d="M315.705,331.382H299.371V316.048h2v13.334h12.334V316.048h2Z" fill="#bc85c6"/>
        </g>
      </g>
    </g>
    <g id="Grupo_27441" data-name="Grupo 27441">
      <g id="Grupo_27434" data-name="Grupo 27434">
        <rect id="Rectángulo_4322" data-name="Rectángulo 4322" width="60.639" height="36.932" transform="translate(84.336 313.453)" fill="#fff"/>
        <g id="Grupo_27433" data-name="Grupo 27433">
          <path id="Trazado_21583" data-name="Trazado 21583" d="M145.975,351.385H83.336V312.453h62.639Zm-60.639-2h58.639V314.453H85.336Z" fill="#43566b"/>
        </g>
      </g>
      <g id="Grupo_27435" data-name="Grupo 27435">
        <rect id="Rectángulo_4323" data-name="Rectángulo 4323" width="10.025" height="10.025" transform="translate(84.336 313.453)" fill="#bc85c6"/>
        <path id="Trazado_21584" data-name="Trazado 21584" d="M95.361,324.478H83.336V312.453H95.361Zm-10.025-2h8.025v-8.025H85.336Z" fill="#44566b"/>
      </g>
      <g id="Grupo_27436" data-name="Grupo 27436">
        <rect id="Rectángulo_4324" data-name="Rectángulo 4324" width="31.532" height="2" transform="translate(101.315 319.729)" fill="#43566b"/>
      </g>
      <g id="Grupo_27437" data-name="Grupo 27437">
        <rect id="Rectángulo_4325" data-name="Rectángulo 4325" width="31.532" height="2" transform="translate(101.315 325.229)" fill="#43566b"/>
      </g>
      <g id="Grupo_27438" data-name="Grupo 27438">
        <rect id="Rectángulo_4326" data-name="Rectángulo 4326" width="31.532" height="2" transform="translate(101.315 330.729)" fill="#43566b"/>
      </g>
      <g id="Grupo_27439" data-name="Grupo 27439">
        <rect id="Rectángulo_4327" data-name="Rectángulo 4327" width="31.532" height="2" transform="translate(101.315 336.229)" fill="#43566b"/>
      </g>
      <g id="Grupo_27440" data-name="Grupo 27440">
        <rect id="Rectángulo_4328" data-name="Rectángulo 4328" width="31.532" height="2" transform="translate(101.315 341.729)" fill="#43566b"/>
      </g>
    </g>
    <g id="Grupo_27451" data-name="Grupo 27451">
      <g id="Grupo_27444" data-name="Grupo 27444">
        <g id="Grupo_27442" data-name="Grupo 27442">
          <rect id="Rectángulo_4329" data-name="Rectángulo 4329" width="1.5" height="77.782" transform="translate(540.932 107.664)" fill="#bc85c6"/>
        </g>
        <g id="Grupo_27443" data-name="Grupo 27443">
          <path id="Trazado_21585" data-name="Trazado 21585" d="M541.681,103.135a22.685,22.685,0,0,0,3.569,6.414l-3.569-1.291-3.568,1.291A22.661,22.661,0,0,0,541.681,103.135Z" fill="#bc85c6"/>
        </g>
      </g>
      <g id="Grupo_27447" data-name="Grupo 27447">
        <g id="Grupo_27445" data-name="Grupo 27445">
          <rect id="Rectángulo_4330" data-name="Rectángulo 4330" width="1.5" height="77.782" transform="translate(553.554 107.664)" fill="#bc85c6"/>
        </g>
        <g id="Grupo_27446" data-name="Grupo 27446">
          <path id="Trazado_21586" data-name="Trazado 21586" d="M554.3,103.135a22.659,22.659,0,0,0,3.568,6.414l-3.568-1.291-3.568,1.291A22.662,22.662,0,0,0,554.3,103.135Z" fill="#bc85c6"/>
        </g>
      </g>
      <g id="Grupo_27450" data-name="Grupo 27450">
        <g id="Grupo_27448" data-name="Grupo 27448">
          <rect id="Rectángulo_4331" data-name="Rectángulo 4331" width="1.5" height="77.782" transform="translate(566.176 107.664)" fill="#bc85c6"/>
        </g>
        <g id="Grupo_27449" data-name="Grupo 27449">
          <path id="Trazado_21587" data-name="Trazado 21587" d="M566.926,103.135a22.685,22.685,0,0,0,3.569,6.414l-3.569-1.291-3.568,1.291A22.661,22.661,0,0,0,566.926,103.135Z" fill="#bc85c6"/>
        </g>
      </g>
    </g>
    <g id="Grupo_27455" data-name="Grupo 27455">
      <g id="Grupo_27453" data-name="Grupo 27453">
        <g id="Grupo_27452" data-name="Grupo 27452">
          <path id="Trazado_21588" data-name="Trazado 21588" d="M606.025,176.412a10,10,0,1,1,10-10A10.011,10.011,0,0,1,606.025,176.412Z" fill="#fff"/>
          <path id="Trazado_21589" data-name="Trazado 21589" d="M606.024,177.412a11,11,0,1,1,11-11A11.013,11.013,0,0,1,606.024,177.412Zm0-20a9,9,0,1,0,9,9A9.01,9.01,0,0,0,606.024,157.412Z" fill="#43566b"/>
        </g>
      </g>
      <g id="Grupo_27454" data-name="Grupo 27454">
        <path id="Trazado_21590" data-name="Trazado 21590" d="M607.5,164.081a1.844,1.844,0,0,0-1.343-.614.883.883,0,0,0-1.007.927c0,1.389,3.149,1.111,3.149,3.45a2.045,2.045,0,0,1-1.795,2.12v1.191h-.926V170a3.579,3.579,0,0,1-2-.88l.6-.9a2.777,2.777,0,0,0,1.714.717c.752,0,1.123-.37,1.123-1,0-1.528-3.15-1.308-3.15-3.485a1.97,1.97,0,0,1,1.714-2.027v-1.181h.926V162.4a2.689,2.689,0,0,1,1.679.9Z" fill="#43566b"/>
      </g>
    </g>
    <g id="Grupo_27459" data-name="Grupo 27459">
      <g id="Grupo_27457" data-name="Grupo 27457">
        <g id="Grupo_27456" data-name="Grupo 27456">
          <path id="Trazado_21591" data-name="Trazado 21591" d="M406.491,174.245a10,10,0,1,1,10-10A10.01,10.01,0,0,1,406.491,174.245Z" fill="#fff"/>
          <path id="Trazado_21592" data-name="Trazado 21592" d="M406.491,175.245a11,11,0,1,1,11-11A11.013,11.013,0,0,1,406.491,175.245Zm0-20a9,9,0,1,0,9,9A9.01,9.01,0,0,0,406.491,155.245Z" fill="#43566b"/>
        </g>
      </g>
      <g id="Grupo_27458" data-name="Grupo 27458">
        <path id="Trazado_21593" data-name="Trazado 21593" d="M407.968,161.914a1.846,1.846,0,0,0-1.344-.614.883.883,0,0,0-1.007.926c0,1.39,3.15,1.112,3.15,3.451a2.046,2.046,0,0,1-1.8,2.12v1.191h-.926v-1.157a3.586,3.586,0,0,1-2-.88l.6-.9a2.775,2.775,0,0,0,1.714.718c.753,0,1.123-.37,1.123-.995,0-1.528-3.149-1.308-3.149-3.486a1.969,1.969,0,0,1,1.714-2.026v-1.181h.926v1.158a2.694,2.694,0,0,1,1.679.9Z" fill="#43566b"/>
      </g>
    </g>
    <g id="Grupo_27463" data-name="Grupo 27463">
      <g id="Grupo_27461" data-name="Grupo 27461">
        <g id="Grupo_27460" data-name="Grupo 27460">
          <path id="Trazado_21594" data-name="Trazado 21594" d="M326.883,171.244a10,10,0,1,1,10-10A10.011,10.011,0,0,1,326.883,171.244Z" fill="#fff"/>
          <path id="Trazado_21595" data-name="Trazado 21595" d="M326.883,172.245a11,11,0,1,1,11-11A11.012,11.012,0,0,1,326.883,172.245Zm0-20a9,9,0,1,0,9,9A9.01,9.01,0,0,0,326.883,152.245Z" fill="#43566b"/>
        </g>
      </g>
      <g id="Grupo_27462" data-name="Grupo 27462">
        <path id="Trazado_21596" data-name="Trazado 21596" d="M328.359,158.914a1.846,1.846,0,0,0-1.344-.614.883.883,0,0,0-1.007.926c0,1.39,3.15,1.112,3.15,3.451a2.046,2.046,0,0,1-1.795,2.12v1.19h-.926v-1.156a3.593,3.593,0,0,1-2-.88l.6-.9a2.769,2.769,0,0,0,1.714.717c.752,0,1.122-.37,1.122-1,0-1.528-3.149-1.308-3.149-3.485a1.969,1.969,0,0,1,1.714-2.026v-1.181h.926v1.158a2.694,2.694,0,0,1,1.679.9Z" fill="#43566b"/>
      </g>
    </g>
    <g id="Grupo_27467" data-name="Grupo 27467">
      <g id="Grupo_27465" data-name="Grupo 27465">
        <g id="Grupo_27464" data-name="Grupo 27464">
          <circle id="Elipse_986" data-name="Elipse 986" cx="10" cy="10" r="10" transform="translate(87.722 271.631)" fill="#fff"/>
          <path id="Trazado_21597" data-name="Trazado 21597" d="M97.722,292.632a11,11,0,1,1,11-11A11.013,11.013,0,0,1,97.722,292.632Zm0-20a9,9,0,1,0,9,9A9.01,9.01,0,0,0,97.722,272.632Z" fill="#43566b"/>
        </g>
      </g>
      <g id="Grupo_27466" data-name="Grupo 27466">
        <path id="Trazado_21598" data-name="Trazado 21598" d="M99.2,279.3a1.844,1.844,0,0,0-1.343-.614.883.883,0,0,0-1.007.926c0,1.39,3.149,1.112,3.149,3.451a2.044,2.044,0,0,1-1.794,2.119v1.191h-.927v-1.156a3.587,3.587,0,0,1-2-.88l.6-.9a2.771,2.771,0,0,0,1.714.717c.752,0,1.123-.37,1.123-.995,0-1.528-3.15-1.308-3.15-3.485a1.969,1.969,0,0,1,1.714-2.026v-1.181H98.2v1.158a2.689,2.689,0,0,1,1.678.9Z" fill="#43566b"/>
      </g>
    </g>
    <g id="Grupo_27476" data-name="Grupo 27476">
      <g id="Grupo_27474" data-name="Grupo 27474">
        <g id="Grupo_27468" data-name="Grupo 27468">
          <path id="Trazado_21599" data-name="Trazado 21599" d="M552.177,175.714q-.785-.009-1.553-.074l.127-1.495q.713.06,1.441.068Zm1.554-.038-.093-1.5c.483-.03.964-.078,1.438-.143l.2,1.488Q554.514,175.626,553.731,175.676Zm-4.651-.222q-.774-.123-1.526-.3l.345-1.46c.466.111.939.2,1.417.28Zm7.732-.2-.314-1.467q.711-.153,1.4-.353l.42,1.441Q557.576,175.092,556.812,175.255Zm-10.757-.515q-.747-.236-1.467-.524l.558-1.394q.668.269,1.36.487Zm13.741-.355-.526-1.4c.453-.17.9-.354,1.332-.556l.628,1.364Q560.528,174.111,559.8,174.385Zm-16.632-.8q-.7-.342-1.373-.734l.758-1.3q.621.363,1.273.682Zm19.452-.5-.726-1.314c.421-.233.834-.482,1.235-.745l.822,1.255Q563.3,172.706,562.616,173.084Zm-22.138-1.068q-.642-.443-1.249-.929l.94-1.17q.563.45,1.159.861Zm24.738-.636-.912-1.191q.573-.439,1.113-.92l1,1.121Q565.835,170.906,565.216,171.38Zm-27.163-1.31q-.57-.531-1.1-1.1l1.1-1.02q.491.529,1.019,1.022Zm29.484-.755-1.076-1.045q.5-.519.968-1.074l1.15.964Q568.079,168.757,567.537,169.315Zm-31.6-1.524q-.484-.607-.925-1.249l1.238-.849q.408.6.859,1.161Zm33.6-.861-1.219-.875q.421-.586.8-1.2l1.28.784Q569.986,166.3,569.533,166.93Zm-35.351-1.7c-.261-.446-.5-.9-.733-1.37l1.35-.658q.316.649.679,1.274Zm36.976-.949-1.334-.687q.33-.641.614-1.309l1.381.587Q571.515,163.588,571.158,164.278Zm-38.337-1.843c-.191-.48-.366-.97-.521-1.467l1.433-.448q.216.691.483,1.359Zm39.554-1.022-1.422-.48c.153-.455.292-.917.413-1.386l1.453.376Q572.622,160.679,572.375,161.413Zm-40.486-1.945q-.178-.753-.3-1.526l1.482-.234c.075.48.169.952.278,1.419Zm41.262-1.065-1.476-.265q.126-.708.2-1.431l1.492.157Q573.288,157.641,573.151,158.4ZM531.405,156.4q-.063-.77-.071-1.553l1.5-.015q.008.729.067,1.444Zm42.072-1.085-1.5-.048q.009-.312.009-.626,0-.413-.017-.82l1.5-.062c.011.292.017.587.017.882C573.486,154.864,573.483,155.088,573.477,155.313Zm-40.644-.674h-1.5q0-.783.056-1.553l1.5.107C532.852,153.67,532.833,154.153,532.833,154.639Zm39.023-2.26c-.055-.481-.128-.958-.217-1.428l1.474-.281q.144.761.234,1.538Zm-38.812-.62-1.484-.219q.113-.772.282-1.528l1.465.324Q533.151,151.039,533.044,151.759Zm38.272-2.217q-.187-.7-.425-1.378l1.416-.5q.255.732.459,1.487Zm-37.641-.6-1.436-.438q.228-.747.507-1.471l1.4.54Q533.888,148.247,533.675,148.943Zm36.687-2.123q-.289-.663-.626-1.3l1.328-.7q.363.685.673,1.4Zm-35.644-.572-1.356-.646q.336-.705.72-1.379l1.305.743Q535.029,145.591,534.718,146.248Zm34.3-1.979c-.256-.409-.528-.808-.812-1.2l1.211-.887q.459.627.872,1.286Zm-32.87-.533L534.9,142.9q.435-.646.915-1.258l1.18.926Q536.55,143.135,536.147,143.736Zm31.163-1.8q-.469-.549-.977-1.063l1.066-1.056q.549.554,1.053,1.146Zm-29.379-.477-1.11-1.01c.349-.384.713-.754,1.088-1.111l1.033,1.089Q538.419,140.927,537.931,141.463Zm27.349-1.576q-.545-.477-1.124-.91l.9-1.2q.622.468,1.208.98Zm-25.254-.412-.951-1.161q.6-.492,1.239-.94l.862,1.229Q540.585,139.017,540.026,139.475Zm22.945-1.324q-.61-.389-1.245-.735l.714-1.319q.685.37,1.339.791Zm-20.581-.333-.77-1.289q.666-.4,1.363-.747l.672,1.342Q543.01,137.448,542.39,137.818Zm18.041-1.044q-.659-.294-1.341-.543l.512-1.411q.735.267,1.442.585Zm-15.463-.248-.571-1.388q.717-.3,1.459-.538l.467,1.426Q545.635,136.253,544.968,136.526Zm12.747-.737c-.461-.129-.929-.243-1.4-.339l.3-1.47q.768.154,1.513.365Zm-10-.161-.36-1.457c.5-.123,1.01-.229,1.523-.316l.252,1.48Q548.41,135.456,547.712,135.628Zm7.173-.411q-.713-.09-1.439-.128l.078-1.5q.783.042,1.548.138Zm-4.326-.069-.141-1.494c.513-.049,1.029-.078,1.552-.089l.031,1.5C551.516,135.076,551.034,135.1,550.559,135.148Z" fill="#e0c0ff"/>
        </g>
        <g id="Grupo_27473" data-name="Grupo 27473">
          <g id="Grupo_27472" data-name="Grupo 27472">
            <g id="Grupo_27469" data-name="Grupo 27469">
              <path id="Trazado_21600" data-name="Trazado 21600" d="M539.475,142.662a17.626,17.626,0,0,1,24.911-.958L552.41,154.639Z" fill="#e0c0ff"/>
              <path id="Trazado_21601" data-name="Trazado 21601" d="M552.451,155.7l-14.037-13,.51-.55a18.378,18.378,0,0,1,25.972-1l.551.51Zm-11.9-13.067,11.821,10.946,10.945-11.821a16.876,16.876,0,0,0-22.766.875Z" fill="#43566b"/>
            </g>
            <g id="Grupo_27470" data-name="Grupo 27470">
              <path id="Trazado_21602" data-name="Trazado 21602" d="M567.422,138.425a22.1,22.1,0,0,1,5.359,24.775l-20.371-8.561Z" fill="#fff"/>
              <path id="Trazado_21603" data-name="Trazado 21603" d="M573.182,164.183l-22.05-9.268,16.25-17.551.551.51a22.853,22.853,0,0,1,5.539,25.617Zm-19.494-9.821,18.679,7.851a21.35,21.35,0,0,0-4.912-22.718Z" fill="#43566b"/>
            </g>
            <g id="Grupo_27471" data-name="Grupo 27471">
              <path id="Trazado_21604" data-name="Trazado 21604" d="M568.661,161.469a17.628,17.628,0,1,1-29.186-18.807l12.935,11.977Z" fill="#bc85c6"/>
              <path id="Trazado_21605" data-name="Trazado 21605" d="M552.387,173.014a18.376,18.376,0,0,1-13.463-30.862.749.749,0,0,1,.521-.24.79.79,0,0,1,.539.2L552.823,154l16.129,6.779a.748.748,0,0,1,.4.982,18.369,18.369,0,0,1-16.965,11.255Zm-12.86-29.281a16.878,16.878,0,1,0,28.136,18.13l-15.544-6.532a.828.828,0,0,1-.219-.141Z" fill="#43566b"/>
            </g>
          </g>
        </g>
      </g>
      <g id="Grupo_27475" data-name="Grupo 27475">
        <path id="Trazado_21606" data-name="Trazado 21606" d="M521.98,154.639h-1.5q0-.774.038-1.537l1.5.074Q521.98,153.9,521.98,154.639Zm60.856-.427q-.012-.737-.056-1.465l1.5-.092c.032.509.05,1.02.058,1.534Zm-60.716-2.5-1.494-.143c.049-.511.11-1.02.182-1.524l1.486.212Q522.19,150.982,522.12,151.714Zm60.536-.426q-.079-.73-.194-1.451l1.482-.235q.12.754.2,1.523Zm-60.119-2.471-1.473-.286q.147-.758.33-1.5l1.457.357Q522.677,148.095,522.537,148.817Zm59.661-.42q-.15-.72-.334-1.426l1.453-.376q.192.741.35,1.495Zm-58.966-2.423-1.439-.427q.219-.739.474-1.463l1.416.5Q523.44,145.269,523.232,145.974Zm58.231-.41q-.221-.7-.47-1.386l1.408-.517q.266.72.493,1.455ZM524.2,143.208l-1.39-.564q.289-.715.615-1.414l1.359.634Q524.475,142.529,524.2,143.208Zm56.258-.389q-.284-.674-.6-1.332l1.354-.65q.332.69.63,1.4Zm-55.025-2.272-1.331-.695q.359-.683.747-1.346l1.295.76Q525.772,139.9,525.433,140.547Zm53.76-.362q-.348-.644-.726-1.269l1.285-.776q.4.655.762,1.331Zm-52.278-2.165-1.256-.821q.422-.645.872-1.266l1.215.88Q527.319,137.405,526.915,138.02Zm50.767-.336q-.411-.607-.847-1.2l1.2-.9q.457.615.886,1.252Zm-49.047-2.038-1.172-.937q.48-.6.989-1.177l1.125.993Q529.093,135.074,528.635,135.646Zm47.3-.309c-.312-.377-.63-.748-.958-1.11l1.114-1.006q.515.569,1,1.161Zm-45.364-1.887-1.076-1.046q.535-.551,1.1-1.076l1.025,1.1Q531.082,132.924,530.571,133.45Zm43.4-.284q-.519-.519-1.059-1.014l1.012-1.107q.567.518,1.109,1.061Zm-41.262-1.717-.973-1.144q.586-.5,1.194-.966l.916,1.188Q533.267,130.974,532.709,131.449Zm39.1-.257q-.564-.467-1.151-.907l.9-1.2c.41.308.811.625,1.207.951Zm-36.78-1.531-.859-1.23q.63-.439,1.281-.848l.8,1.272Q535.625,129.243,535.026,129.661Zm34.437-.227q-.606-.411-1.233-.793l.782-1.282q.657.4,1.293.832ZM537.5,128.106l-.736-1.308q.668-.375,1.355-.72l.672,1.342Q538.136,127.749,537.5,128.106Zm29.461-.2q-.645-.351-1.3-.671l.654-1.351q.693.336,1.368.7ZM540.113,126.8l-.607-1.372q.7-.309,1.418-.587l.539,1.4Q540.779,126.5,540.113,126.8Zm24.209-.166q-.675-.286-1.365-.542l.521-1.407q.723.267,1.43.567Zm-21.481-.885-.471-1.425q.726-.24,1.47-.447l.4,1.446Q543.534,125.515,542.841,125.745Zm18.73-.133q-.7-.219-1.406-.406l.381-1.451q.746.2,1.476.426Zm-15.911-.651-.33-1.464q.747-.168,1.506-.3l.26,1.479C546.613,124.757,546.135,124.854,545.66,124.961Zm13.078-.092q-.714-.15-1.439-.268l.24-1.482q.761.123,1.51.281Zm-10.195-.415-.188-1.49q.759-.1,1.528-.156l.117,1.5C549.511,124.342,549.025,124.393,548.543,124.454Zm7.306-.052q-.726-.081-1.458-.129l.1-1.5q.771.051,1.531.136Zm-4.387-.177-.045-1.5c.329-.011.659-.016.992-.016l.544,0-.025,1.5-.518,0C552.094,124.21,551.777,124.215,551.462,124.225Z" fill="#e0c0ff"/>
      </g>
    </g>
  </g>
</svg>
