<svg xmlns="http://www.w3.org/2000/svg" width="588" height="310.498" viewBox="0 0 588 310.498">
  <g id="Grupo_30313" data-name="Grupo 30313" transform="translate(-4310 -2205)">
    <g id="Grupo_26852" data-name="Grupo 26852" transform="translate(4822.603 2152.89)">
      <g id="Grupo_26850" data-name="Grupo 26850">
        <circle id="Elipse_941" data-name="Elipse 941" cx="109.863" cy="109.863" r="109.863" transform="translate(-466.817 114.981)" fill="#e3ecf4"/>
        <path id="Trazado_21103" data-name="Trazado 21103" d="M-356.954,114.981A109.863,109.863,0,0,0-466.817,224.844,109.863,109.863,0,0,0-356.954,334.708,109.863,109.863,0,0,0-247.091,224.844,109.863,109.863,0,0,0-356.954,114.981Zm0,185.823a75.959,75.959,0,0,1-75.96-75.96,75.96,75.96,0,0,1,75.96-75.96,75.961,75.961,0,0,1,75.96,75.96A75.96,75.96,0,0,1-356.954,300.8Z" fill="#044e7a"/>
        <path id="Trazado_21104" data-name="Trazado 21104" d="M-356.954,174.665a50.179,50.179,0,0,0-50.179,50.179,50.178,50.178,0,0,0,50.179,50.179,50.178,50.178,0,0,0,50.179-50.179A50.179,50.179,0,0,0-356.954,174.665Zm0,76.924A26.745,26.745,0,0,1-383.7,224.844,26.744,26.744,0,0,1-356.954,198.1a26.744,26.744,0,0,1,26.744,26.744A26.744,26.744,0,0,1-356.954,251.589Z" fill="#044e7a"/>
        <path id="Trazado_21105" data-name="Trazado 21105" d="M-247.091,224.844A109.863,109.863,0,0,0-356.954,114.981V334.708A109.863,109.863,0,0,0-247.091,224.844Z" fill="#bcd8ec" style="mix-blend-mode: multiply;isolation: isolate"/>
      </g>
      <g id="Grupo_26851" data-name="Grupo 26851">
        <path id="Trazado_21106" data-name="Trazado 21106" d="M-335.44,226.344h-21.514a1.5,1.5,0,0,1-1.5-1.5,1.5,1.5,0,0,1,1.5-1.5h21.514a1.5,1.5,0,0,1,1.5,1.5A1.5,1.5,0,0,1-335.44,226.344Z" fill="#ff5b34"/>
        <path id="Trazado_21107" data-name="Trazado 21107" d="M-273.811,164.715h-21.513a1.5,1.5,0,0,1-1.5-1.5,1.5,1.5,0,0,1,1.5-1.5h21.513a1.5,1.5,0,0,1,1.5,1.5A1.5,1.5,0,0,1-273.811,164.715Z" fill="#ff5b34"/>
        <path id="Trazado_21108" data-name="Trazado 21108" d="M-265.722,156.626h-21.514a1.5,1.5,0,0,1-1.5-1.5,1.5,1.5,0,0,1,1.5-1.5h21.514a1.5,1.5,0,0,1,1.5,1.5A1.5,1.5,0,0,1-265.722,156.626Z" fill="#ff5b34"/>
        <path id="Trazado_21109" data-name="Trazado 21109" d="M-257.633,148.538h-21.514a1.5,1.5,0,0,1-1.5-1.5,1.5,1.5,0,0,1,1.5-1.5h21.514a1.5,1.5,0,0,1,1.5,1.5A1.5,1.5,0,0,1-257.633,148.538Z" fill="#ff5b34"/>
        <path id="Trazado_21110" data-name="Trazado 21110" d="M-249.544,140.449h-21.515a1.5,1.5,0,0,1-1.5-1.5,1.5,1.5,0,0,1,1.5-1.5h21.515a1.5,1.5,0,0,1,1.5,1.5A1.5,1.5,0,0,1-249.544,140.449Z" fill="#ff5b34"/>
        <path id="Trazado_21111" data-name="Trazado 21111" d="M-356.954,226.344a1.5,1.5,0,0,1-1.061-.439,1.5,1.5,0,0,1,0-2.121l87.07-87.07a1.5,1.5,0,0,1,2.121,0,1.5,1.5,0,0,1,0,2.121l-87.07,87.07A1.493,1.493,0,0,1-356.954,226.344Z" fill="#f18703"/>
        <path id="Trazado_21112" data-name="Trazado 21112" d="M-356.954,226.344a1.5,1.5,0,0,1-1.5-1.5v-21.35a1.5,1.5,0,0,1,1.5-1.5,1.5,1.5,0,0,1,1.5,1.5v21.35A1.5,1.5,0,0,1-356.954,226.344Z" fill="#f18703"/>
        <path id="Trazado_21113" data-name="Trazado 21113" d="M-295.324,164.715a1.5,1.5,0,0,1-1.5-1.5V141.864a1.5,1.5,0,0,1,1.5-1.5,1.5,1.5,0,0,1,1.5,1.5v21.351A1.5,1.5,0,0,1-295.324,164.715Z" fill="#f18703"/>
        <path id="Trazado_21114" data-name="Trazado 21114" d="M-287.236,156.626a1.5,1.5,0,0,1-1.5-1.5V133.775a1.5,1.5,0,0,1,1.5-1.5,1.5,1.5,0,0,1,1.5,1.5v21.351A1.5,1.5,0,0,1-287.236,156.626Z" fill="#f18703"/>
        <path id="Trazado_21115" data-name="Trazado 21115" d="M-279.147,148.538a1.5,1.5,0,0,1-1.5-1.5V125.687a1.5,1.5,0,0,1,1.5-1.5,1.5,1.5,0,0,1,1.5,1.5v21.351A1.5,1.5,0,0,1-279.147,148.538Z" fill="#f18703"/>
        <path id="Trazado_21116" data-name="Trazado 21116" d="M-271.059,140.449a1.5,1.5,0,0,1-1.5-1.5V117.6a1.5,1.5,0,0,1,1.5-1.5,1.5,1.5,0,0,1,1.5,1.5v21.351A1.5,1.5,0,0,1-271.059,140.449Z" fill="#f18703"/>
      </g>
    </g>
    <g id="Grupo_26853" data-name="Grupo 26853" transform="translate(4822.603 2152.89)">
      <rect id="Rectángulo_4057" data-name="Rectángulo 4057" width="77.527" height="98.457" rx="5" transform="translate(-296.574 193.072)" fill="#043573"/>
      <rect id="Rectángulo_4058" data-name="Rectángulo 4058" width="66.674" height="83.871" rx="3" transform="translate(-291.148 202.532)" fill="#65c8d0"/>
      <rect id="Rectángulo_4059" data-name="Rectángulo 4059" width="66.674" height="83.871" rx="3" transform="translate(-291.148 199.281)" fill="#fff"/>
      <path id="Trazado_21117" data-name="Trazado 21117" d="M-236.852,203.476l-1.393-5.561a3.649,3.649,0,0,0-3.356-2.623H-247a3.649,3.649,0,0,1-3.356-2.622l-1.393-5.561a3.648,3.648,0,0,0-3.356-2.623h-5.4a3.65,3.65,0,0,0-3.356,2.623l-1.393,5.561a3.648,3.648,0,0,1-3.356,2.622h-5.4a3.651,3.651,0,0,0-3.356,2.623l-1.393,5.561a2.016,2.016,0,0,0,2.047,2.623H-238.9A2.016,2.016,0,0,0-236.852,203.476Zm-20.958-11.86a2.391,2.391,0,0,1-2.391-2.391,2.39,2.39,0,0,1,2.391-2.391,2.391,2.391,0,0,1,2.391,2.391A2.392,2.392,0,0,1-257.81,191.616Z" fill="#fbb03b"/>
      <path id="Trazado_21118" data-name="Trazado 21118" d="M-236.774,223.627H-266.99a1.5,1.5,0,0,1-1.5-1.5,1.5,1.5,0,0,1,1.5-1.5h30.216a1.5,1.5,0,0,1,1.5,1.5A1.5,1.5,0,0,1-236.774,223.627Z" fill="#04b1d9"/>
      <path id="Trazado_21119" data-name="Trazado 21119" d="M-236.774,233.864H-266.99a1.5,1.5,0,0,1-1.5-1.5,1.5,1.5,0,0,1,1.5-1.5h30.216a1.5,1.5,0,0,1,1.5,1.5A1.5,1.5,0,0,1-236.774,233.864Z" fill="#04b1d9"/>
      <path id="Trazado_21120" data-name="Trazado 21120" d="M-236.774,245.186H-266.99a1.5,1.5,0,0,1-1.5-1.5,1.5,1.5,0,0,1,1.5-1.5h30.216a1.5,1.5,0,0,1,1.5,1.5A1.5,1.5,0,0,1-236.774,245.186Z" fill="#04b1d9"/>
      <path id="Trazado_21121" data-name="Trazado 21121" d="M-236.774,255.674H-266.99a1.5,1.5,0,0,1-1.5-1.5,1.5,1.5,0,0,1,1.5-1.5h30.216a1.5,1.5,0,0,1,1.5,1.5A1.5,1.5,0,0,1-236.774,255.674Z" fill="#04b1d9"/>
      <path id="Trazado_21122" data-name="Trazado 21122" d="M-257.811,270.164h-11.374a1.5,1.5,0,0,1-1.5-1.5,1.5,1.5,0,0,1,1.5-1.5h11.374a1.5,1.5,0,0,1,1.5,1.5A1.5,1.5,0,0,1-257.811,270.164Z" fill="#04b1d9"/>
      <path id="Trazado_21123" data-name="Trazado 21123" d="M-279.3,225.218h0a1.5,1.5,0,0,1-1.06-.439l-2.925-2.925a1.5,1.5,0,0,1,0-2.121,1.5,1.5,0,0,1,2.121,0l1.864,1.864,5.044-5.043a1.5,1.5,0,0,1,2.121,0,1.5,1.5,0,0,1,0,2.121l-6.1,6.1A1.5,1.5,0,0,1-279.3,225.218Z" fill="#f7931e"/>
      <path id="Trazado_21124" data-name="Trazado 21124" d="M-279.3,236.058h0a1.5,1.5,0,0,1-1.06-.44l-2.925-2.925a1.5,1.5,0,0,1,0-2.121,1.5,1.5,0,0,1,2.121,0l1.864,1.865,5.044-5.044a1.5,1.5,0,0,1,2.121,0,1.5,1.5,0,0,1,0,2.121l-6.1,6.1A1.5,1.5,0,0,1-279.3,236.058Z" fill="#f7931e"/>
      <path id="Trazado_21125" data-name="Trazado 21125" d="M-279.3,246.9h0a1.5,1.5,0,0,1-1.06-.439l-2.925-2.925a1.5,1.5,0,0,1,0-2.121,1.5,1.5,0,0,1,2.121,0l1.864,1.864,5.044-5.044a1.5,1.5,0,0,1,2.121,0,1.5,1.5,0,0,1,0,2.122l-6.1,6.1A1.5,1.5,0,0,1-279.3,246.9Z" fill="#f7931e"/>
      <path id="Trazado_21126" data-name="Trazado 21126" d="M-279.3,257.735h0a1.5,1.5,0,0,1-1.06-.439l-2.925-2.925a1.5,1.5,0,0,1,0-2.121,1.5,1.5,0,0,1,2.121,0l1.864,1.864,5.044-5.044a1.5,1.5,0,0,1,2.121,0,1.5,1.5,0,0,1,0,2.121l-6.1,6.1A1.5,1.5,0,0,1-279.3,257.735Z" fill="#f7931e"/>
      <path id="Trazado_21127" data-name="Trazado 21127" d="M-278.769,203.476a2.016,2.016,0,0,0,2.047,2.623H-238.9a2.016,2.016,0,0,0,2.047-2.623l-.236-.944h-41.445Z" fill="#f7931e"/>
    </g>
    <g id="Grupo_26857" data-name="Grupo 26857" transform="translate(4822.603 2152.89)">
      <g id="Grupo_26855" data-name="Grupo 26855">
        <rect id="Rectángulo_4060" data-name="Rectángulo 4060" width="129.906" height="92.48" rx="8.118" transform="translate(-497.665 266.901)" fill="#043573"/>
        <rect id="Rectángulo_4061" data-name="Rectángulo 4061" width="113.823" height="72.118" transform="translate(-489.624 275.201)" fill="#f1f0f4"/>
        <path id="Trazado_21128" data-name="Trazado 21128" d="M-463.542,289.342h-16.969a4,4,0,0,1-4-4,4,4,0,0,1,4-4h16.969a4,4,0,0,1,4,4A4,4,0,0,1-463.542,289.342Z" fill="#ee4014"/>
        <path id="Trazado_21129" data-name="Trazado 21129" d="M-407.286,298.5h-73.225a2.5,2.5,0,0,1-2.5-2.5,2.5,2.5,0,0,1,2.5-2.5h73.225a2.5,2.5,0,0,1,2.5,2.5A2.5,2.5,0,0,1-407.286,298.5Z" fill="#026773"/>
        <path id="Trazado_21130" data-name="Trazado 21130" d="M-385.6,298.5h-12.429a2.5,2.5,0,0,1-2.5-2.5,2.5,2.5,0,0,1,2.5-2.5H-385.6a2.5,2.5,0,0,1,2.5,2.5A2.5,2.5,0,0,1-385.6,298.5Z" fill="#f25a58"/>
        <path id="Trazado_21131" data-name="Trazado 21131" d="M-407.358,307.906h-37.977a1.5,1.5,0,0,1-1.5-1.5,1.5,1.5,0,0,1,1.5-1.5h37.977a1.5,1.5,0,0,1,1.5,1.5A1.5,1.5,0,0,1-407.358,307.906Z" fill="#04b1d9"/>
        <path id="Trazado_21132" data-name="Trazado 21132" d="M-385.6,307.906h-12.429a1.5,1.5,0,0,1-1.5-1.5,1.5,1.5,0,0,1,1.5-1.5H-385.6a1.5,1.5,0,0,1,1.5,1.5A1.5,1.5,0,0,1-385.6,307.906Z" fill="#74baa4"/>
        <path id="Trazado_21133" data-name="Trazado 21133" d="M-385.6,335.818h-12.429a1.5,1.5,0,0,1-1.5-1.5,1.5,1.5,0,0,1,1.5-1.5H-385.6a1.5,1.5,0,0,1,1.5,1.5A1.5,1.5,0,0,1-385.6,335.818Z" fill="#4ba3cc"/>
        <path id="Trazado_21134" data-name="Trazado 21134" d="M-385.6,314.711h-12.429a1.5,1.5,0,0,1-1.5-1.5,1.5,1.5,0,0,1,1.5-1.5H-385.6a1.5,1.5,0,0,1,1.5,1.5A1.5,1.5,0,0,1-385.6,314.711Z" fill="#74baa4"/>
        <path id="Trazado_21135" data-name="Trazado 21135" d="M-385.6,286.842h-29.869a1.5,1.5,0,0,1-1.5-1.5,1.5,1.5,0,0,1,1.5-1.5H-385.6a1.5,1.5,0,0,1,1.5,1.5A1.5,1.5,0,0,1-385.6,286.842Z" fill="#04b1d9"/>
        <path id="Trazado_21136" data-name="Trazado 21136" d="M-407.358,314.711h-37.977a1.5,1.5,0,0,1-1.5-1.5,1.5,1.5,0,0,1,1.5-1.5h37.977a1.5,1.5,0,0,1,1.5,1.5A1.5,1.5,0,0,1-407.358,314.711Z" fill="#04b1d9"/>
        <path id="Trazado_21137" data-name="Trazado 21137" d="M-455.971,335.818h-24.54a1.5,1.5,0,0,1-1.5-1.5,1.5,1.5,0,0,1,1.5-1.5h24.54a1.5,1.5,0,0,1,1.5,1.5A1.5,1.5,0,0,1-455.971,335.818Z" fill="#04b1d9"/>
        <path id="Trazado_21138" data-name="Trazado 21138" d="M-407.358,342.995h-37.977a1.5,1.5,0,0,1-1.5-1.5,1.5,1.5,0,0,1,1.5-1.5h37.977a1.5,1.5,0,0,1,1.5,1.5A1.5,1.5,0,0,1-407.358,342.995Z" fill="#04b1d9"/>
        <g id="Grupo_26854" data-name="Grupo 26854">
          <rect id="Rectángulo_4062" data-name="Rectángulo 4062" width="24.54" height="19.795" transform="translate(-480.511 306.406)" fill="#04b1d9"/>
          <path id="Trazado_21139" data-name="Trazado 21139" d="M-455.971,328.7h-24.54a2.5,2.5,0,0,1-2.5-2.5V306.406a2.5,2.5,0,0,1,2.5-2.5h24.54a2.5,2.5,0,0,1,2.5,2.5V326.2A2.5,2.5,0,0,1-455.971,328.7Zm-22.04-5h19.54V308.906h-19.54Z" fill="#04b1d9"/>
        </g>
      </g>
      <g id="Grupo_26856" data-name="Grupo 26856">
        <path id="Trazado_21140" data-name="Trazado 21140" d="M-512.6,351.206v5.863a5.557,5.557,0,0,0,5.54,5.539h148.7a5.557,5.557,0,0,0,5.539-5.539v-5.863Z" fill="#7cb4da"/>
        <rect id="Rectángulo_4063" data-name="Rectángulo 4063" width="159.781" height="5.863" transform="translate(-512.603 351.206)" fill="#fff"/>
        <path id="Trazado_21141" data-name="Trazado 21141" d="M-449.09,351.206v.694a1.139,1.139,0,0,0,1.136,1.136h30.484a1.139,1.139,0,0,0,1.135-1.136v-.694Z" fill="#1fc3cc"/>
      </g>
    </g>
    <g id="Grupo_26868" data-name="Grupo 26868" transform="translate(4822.603 2152.89)">
      <g id="Grupo_26859" data-name="Grupo 26859">
        <g id="Grupo_26858" data-name="Grupo 26858">
          <rect id="Rectángulo_4064" data-name="Rectángulo 4064" width="83.463" height="91.38" rx="2" transform="translate(-409.242 52.11)" fill="#4787ab"/>
          <path id="Trazado_21142" data-name="Trazado 21142" d="M-327.778,141.491h-79.464V54.111h79.464v87.38Z" fill="#fff"/>
        </g>
        <path id="Trazado_21143" data-name="Trazado 21143" d="M-327.778,54.111l-.046,22.585-22.585-22.585Z" fill="#b8ddf2"/>
      </g>
      <g id="Grupo_26860" data-name="Grupo 26860">
        <rect id="Rectángulo_4065" data-name="Rectángulo 4065" width="9.98" height="32.152" transform="translate(-348 97.233)" fill="#d98856"/>
        <rect id="Rectángulo_4066" data-name="Rectángulo 4066" width="9.98" height="27.148" transform="translate(-365 102.237)" fill="#59b198"/>
        <rect id="Rectángulo_4067" data-name="Rectángulo 4067" width="9.98" height="16.556" transform="translate(-382 112.828)" fill="#028787"/>
        <rect id="Rectángulo_4068" data-name="Rectángulo 4068" width="9.98" height="20.93" transform="translate(-399 108.454)" fill="#028787"/>
        <rect id="Rectángulo_4069" data-name="Rectángulo 4069" width="4.99" height="30.152" transform="translate(-348 97.233)" fill="#f89c62"/>
        <rect id="Rectángulo_4070" data-name="Rectángulo 4070" width="4.99" height="25.148" transform="translate(-365 102.237)" fill="#69d0b3"/>
        <rect id="Rectángulo_4071" data-name="Rectángulo 4071" width="4.99" height="14.556" transform="translate(-382 112.828)" fill="#03a6a6"/>
        <rect id="Rectángulo_4072" data-name="Rectángulo 4072" width="4.99" height="18.93" transform="translate(-399 108.454)" fill="#03a6a6"/>
      </g>
      <g id="Grupo_26867" data-name="Grupo 26867">
        <g id="Grupo_26862" data-name="Grupo 26862">
          <g id="Grupo_26861" data-name="Grupo 26861">
            <path id="Trazado_21144" data-name="Trazado 21144" d="M-394.009,100.472a.5.5,0,0,1-.451-.283.5.5,0,0,1,.233-.668l1.352-.649a.5.5,0,0,1,.667.233.5.5,0,0,1-.233.668l-1.352.65A.493.493,0,0,1-394.009,100.472Z" fill="#f89c62"/>
            <path id="Trazado_21145" data-name="Trazado 21145" d="M-389.921,98.507a.5.5,0,0,1-.451-.283.5.5,0,0,1,.234-.668l2.737-1.315a.5.5,0,0,1,.667.234.5.5,0,0,1-.234.667l-2.737,1.316A.5.5,0,0,1-389.921,98.507Zm5.474-2.631a.5.5,0,0,1-.451-.283.5.5,0,0,1,.233-.668l2.737-1.315a.5.5,0,0,1,.667.234.5.5,0,0,1-.234.667l-2.736,1.316A.507.507,0,0,1-384.447,95.876Zm5.473-2.631a.5.5,0,0,1-.451-.283.5.5,0,0,1,.234-.668l1.964-.944a.537.537,0,0,1,.123-.04l.84-.162a.5.5,0,0,1,.586.4.5.5,0,0,1-.4.585l-.778.15-1.906.917A.507.507,0,0,1-378.974,93.245Zm5.786-1.681a.5.5,0,0,1-.49-.405.5.5,0,0,1,.4-.586L-370.3,90a.5.5,0,0,1,.585.4.5.5,0,0,1-.4.585l-2.981.575A.528.528,0,0,1-373.188,91.564Zm5.963-1.15a.5.5,0,0,1-.49-.4.5.5,0,0,1,.4-.586l2.982-.574a.5.5,0,0,1,.585.4.5.5,0,0,1-.4.585l-2.981.575A.528.528,0,0,1-367.225,90.414Zm5.963-1.149a.5.5,0,0,1-.49-.406.5.5,0,0,1,.4-.585l1.1-.211,1.112-1.156a.5.5,0,0,1,.707-.013.5.5,0,0,1,.013.707l-1.221,1.269a.5.5,0,0,1-.266.144l-1.252.242A.509.509,0,0,1-361.262,89.265Zm4.579-3.7a.494.494,0,0,1-.346-.14.5.5,0,0,1-.014-.707l2.105-2.188a.5.5,0,0,1,.708-.014.5.5,0,0,1,.013.707l-2.1,2.189A.5.5,0,0,1-356.683,85.566Zm4.211-4.377a.5.5,0,0,1-.346-.139.5.5,0,0,1-.014-.707l2.105-2.188a.5.5,0,0,1,.707-.014.5.5,0,0,1,.014.707l-2.1,2.188A.5.5,0,0,1-352.472,81.189Zm4.211-4.376a.5.5,0,0,1-.347-.139.5.5,0,0,1-.014-.707l2.106-2.188a.5.5,0,0,1,.707-.014.5.5,0,0,1,.014.707L-347.9,76.66A.5.5,0,0,1-348.261,76.813Z" fill="#f89c62"/>
            <path id="Trazado_21146" data-name="Trazado 21146" d="M-344.05,72.438a.5.5,0,0,1-.347-.14.5.5,0,0,1-.014-.707l1.041-1.081a.5.5,0,0,1,.707-.013.5.5,0,0,1,.014.707l-1.041,1.081A.5.5,0,0,1-344.05,72.438Z" fill="#f89c62"/>
          </g>
        </g>
        <g id="Grupo_26863" data-name="Grupo 26863">
          <circle id="Elipse_942" data-name="Elipse 942" cx="3.044" cy="3.044" r="3.044" transform="translate(-346.054 67.813)" fill="#fff"/>
          <path id="Trazado_21147" data-name="Trazado 21147" d="M-343.01,74.4a3.548,3.548,0,0,1-3.544-3.544,3.548,3.548,0,0,1,3.544-3.544,3.548,3.548,0,0,1,3.544,3.544A3.548,3.548,0,0,1-343.01,74.4Zm0-6.088a2.547,2.547,0,0,0-2.544,2.544A2.547,2.547,0,0,0-343.01,73.4a2.547,2.547,0,0,0,2.544-2.544A2.547,2.547,0,0,0-343.01,68.313Z" fill="#f89c62"/>
        </g>
        <g id="Grupo_26864" data-name="Grupo 26864">
          <circle id="Elipse_943" data-name="Elipse 943" cx="3.044" cy="3.044" r="3.044" transform="translate(-363.054 85.479)" fill="#fff"/>
          <path id="Trazado_21148" data-name="Trazado 21148" d="M-360.01,92.067a3.548,3.548,0,0,1-3.544-3.544,3.548,3.548,0,0,1,3.544-3.544,3.548,3.548,0,0,1,3.544,3.544A3.548,3.548,0,0,1-360.01,92.067Zm0-6.088a2.547,2.547,0,0,0-2.544,2.544,2.547,2.547,0,0,0,2.544,2.544,2.547,2.547,0,0,0,2.544-2.544A2.547,2.547,0,0,0-360.01,85.979Z" fill="#f89c62"/>
        </g>
        <g id="Grupo_26865" data-name="Grupo 26865">
          <circle id="Elipse_944" data-name="Elipse 944" cx="3.044" cy="3.044" r="3.044" transform="translate(-380.054 88.757)" fill="#fff"/>
          <path id="Trazado_21149" data-name="Trazado 21149" d="M-377.01,95.345a3.548,3.548,0,0,1-3.544-3.544,3.548,3.548,0,0,1,3.544-3.544,3.548,3.548,0,0,1,3.544,3.544A3.548,3.548,0,0,1-377.01,95.345Zm0-6.088a2.547,2.547,0,0,0-2.544,2.544,2.547,2.547,0,0,0,2.544,2.544,2.547,2.547,0,0,0,2.544-2.544A2.547,2.547,0,0,0-377.01,89.257Z" fill="#f89c62"/>
        </g>
        <g id="Grupo_26866" data-name="Grupo 26866">
          <circle id="Elipse_945" data-name="Elipse 945" cx="3.044" cy="3.044" r="3.044" transform="translate(-397.054 96.928)" fill="#fff"/>
          <path id="Trazado_21150" data-name="Trazado 21150" d="M-394.01,103.517a3.548,3.548,0,0,1-3.544-3.545,3.548,3.548,0,0,1,3.544-3.544,3.548,3.548,0,0,1,3.544,3.544A3.548,3.548,0,0,1-394.01,103.517Zm0-6.089a2.547,2.547,0,0,0-2.544,2.544,2.547,2.547,0,0,0,2.544,2.545,2.547,2.547,0,0,0,2.544-2.545A2.547,2.547,0,0,0-394.01,97.428Z" fill="#f89c62"/>
        </g>
      </g>
      <path id="Trazado_21151" data-name="Trazado 21151" d="M-370.061,66.11h-27.878a1,1,0,0,1-1-1,1,1,0,0,1,1-1h27.878a1,1,0,0,1,1,1A1,1,0,0,1-370.061,66.11Z" fill="#04b1d9"/>
      <path id="Trazado_21152" data-name="Trazado 21152" d="M-370.061,71.888h-27.878a1,1,0,0,1-1-1,1,1,0,0,1,1-1h27.878a1,1,0,0,1,1,1A1,1,0,0,1-370.061,71.888Z" fill="#7ac7d9"/>
      <path id="Trazado_21153" data-name="Trazado 21153" d="M-370.061,77.888h-27.878a1,1,0,0,1-1-1,1,1,0,0,1,1-1h27.878a1,1,0,0,1,1,1A1,1,0,0,1-370.061,77.888Z" fill="#7ac7d9"/>
    </g>
    <path id="Trazado_21154" data-name="Trazado 21154" d="M-430.587,200.536" transform="translate(4822.603 2152.89)" fill="#fff"/>
    <g id="Grupo_26872" data-name="Grupo 26872" transform="translate(4822.603 2152.89)">
      <g id="Grupo_26870" data-name="Grupo 26870">
        <g id="Grupo_26869" data-name="Grupo 26869">
          <rect id="Rectángulo_4073" data-name="Rectángulo 4073" width="83.464" height="91.38" rx="2" transform="translate(-485.63 88.694)" fill="#4787ab"/>
          <path id="Trazado_21155" data-name="Trazado 21155" d="M-404.167,178.075H-483.63V90.695h79.464v87.38Z" fill="#fff"/>
        </g>
        <path id="Trazado_21156" data-name="Trazado 21156" d="M-404.167,90.695l-.046,22.585L-426.8,90.695Z" fill="#b8ddf2"/>
      </g>
      <path id="Trazado_21157" data-name="Trazado 21157" d="M-446.45,102.694h-27.878a1,1,0,0,1-1-1,1,1,0,0,1,1-1h27.878a1,1,0,0,1,1,1A1,1,0,0,1-446.45,102.694Z" fill="#04b1d9"/>
      <path id="Trazado_21158" data-name="Trazado 21158" d="M-446.45,108.472h-27.878a1,1,0,0,1-1-1,1,1,0,0,1,1-1h27.878a1,1,0,0,1,1,1A1,1,0,0,1-446.45,108.472Z" fill="#7ac7d9"/>
      <g id="Grupo_26871" data-name="Grupo 26871">
        <path id="Trazado_21159" data-name="Trazado 21159" d="M-424.087,124.393l-9.123,9.845c.145.17.281.345.415.521l11.729-6.573A26.4,26.4,0,0,0-424.087,124.393Z" fill="#8d607b"/>
        <path id="Trazado_21160" data-name="Trazado 21160" d="M-431.2,137.471a12.959,12.959,0,0,1-1.4,12.714l9.844,9.122a26.336,26.336,0,0,0,3.253-28.392Z" fill="#e18465"/>
        <path id="Trazado_21161" data-name="Trazado 21161" d="M-434.739,152.49a12.956,12.956,0,0,1-17.171-.385,12.959,12.959,0,0,1-2.162-16.395l-10.859-7.833A26.333,26.333,0,0,0-461,161.91a26.327,26.327,0,0,0,36.1-.3Z" fill="#f89c62"/>
        <path id="Trazado_21162" data-name="Trazado 21162" d="M-440.041,130.009a12.885,12.885,0,0,1,4.526,2.092l9.122-9.844a26.181,26.181,0,0,0-12.562-5.658Z" fill="#03a6a6"/>
        <path id="Trazado_21163" data-name="Trazado 21163" d="M-452.078,133.273a12.906,12.906,0,0,1,8.912-3.621l1.082-13.355a26.262,26.262,0,0,0-20.328,8.406c-.207.224-.4.454-.6.683Z" fill="#69d0b3"/>
      </g>
    </g>
    <g id="Grupo_26874" data-name="Grupo 26874" transform="translate(4822.603 2152.89)">
      <path id="Trazado_21164" data-name="Trazado 21164" d="M-478.624,195.1h-18a.5.5,0,0,1-.5-.5.5.5,0,0,1,.5-.5h18a.5.5,0,0,1,.5.5A.5.5,0,0,1-478.624,195.1Z" fill="#b8ddf2"/>
      <path id="Trazado_21165" data-name="Trazado 21165" d="M-483.124,205.1h-4.2a.5.5,0,0,1-.5-.5.553.553,0,0,1,.151-.381l.557-.541c.367-.339.715-.646,1.045-.938,1.366-1.209,2.446-2.164,2.446-3.122a1.492,1.492,0,0,0-1.69-1.518,2.591,2.591,0,0,0-1.687.615.5.5,0,0,1-.7-.06.5.5,0,0,1,.06-.7,3.621,3.621,0,0,1,2.332-.851,2.493,2.493,0,0,1,2.69,2.518c0,1.408-1.229,2.495-2.784,3.871-.221.2-.451.4-.686.611h2.97a.5.5,0,0,1,.5.5A.5.5,0,0,1-483.124,205.1Zm-4.2-.522h0Z" fill="#b8ddf2"/>
      <g id="Grupo_26873" data-name="Grupo 26873">
        <path id="Trazado_21166" data-name="Trazado 21166" d="M-484.624,191.1h-6a.5.5,0,0,1-.5-.5.5.5,0,0,1,.5-.5h6a.5.5,0,0,1,.5.5A.5.5,0,0,1-484.624,191.1Z" fill="#b8ddf2"/>
        <path id="Trazado_21167" data-name="Trazado 21167" d="M-492.124,192.6a.5.5,0,0,1-.5-.5v-3a.5.5,0,0,1,.5-.5.5.5,0,0,1,.5.5v3A.5.5,0,0,1-492.124,192.6Z" fill="#b8ddf2"/>
        <path id="Trazado_21168" data-name="Trazado 21168" d="M-483.124,192.6a.5.5,0,0,1-.5-.5v-3a.5.5,0,0,1,.5-.5.5.5,0,0,1,.5.5v3A.5.5,0,0,1-483.124,192.6Z" fill="#b8ddf2"/>
        <path id="Trazado_21169" data-name="Trazado 21169" d="M-478.674,208.1h-18a.955.955,0,0,1-.95-1v-16a.955.955,0,0,1,.95-1h3.05a.5.5,0,0,1,.5.5.5.5,0,0,1-.5.5h-3.05l.05,16h17.95l.05-16h-3a.5.5,0,0,1-.5-.5.5.5,0,0,1,.5-.5h2.95a1.039,1.039,0,0,1,1.05,1v16A1.039,1.039,0,0,1-478.674,208.1Z" fill="#b8ddf2"/>
      </g>
      <path id="Trazado_21170" data-name="Trazado 21170" d="M-491.124,205.1a.5.5,0,0,1-.5-.5v-6.066l-.722.482a.5.5,0,0,1-.694-.139.5.5,0,0,1,.139-.693l1.5-1a.5.5,0,0,1,.513-.025.5.5,0,0,1,.264.441v7A.5.5,0,0,1-491.124,205.1Z" fill="#b8ddf2"/>
    </g>
    <path id="Trazado_21171" data-name="Trazado 21171" d="M-489.761,232.5a.5.5,0,0,1-.479-.355c-.359-1.2-.573-2.01-.735-2.626a8.648,8.648,0,0,0-.727-2.1c-.214-.409-.413-.879-.62-1.369a8.144,8.144,0,0,0-2.1-3.354c-.508-.388-.762-.718-.8-1.037a.67.67,0,0,1,.142-.5l.132-.164a2.4,2.4,0,0,1,3.326-.338,2.6,2.6,0,0,1,.315.209v-1.337c-.051-6.032.46-6.5.678-6.7a2.49,2.49,0,0,1,1.63-.307,1.336,1.336,0,0,1,1,.465c.293.412.585,4.963.669,6.4a.743.743,0,0,1,.08.007c2.408.363,5.413,1.128,6.7,2.016l.182.123c.71.473,1.141.873,1.141,2.439v1.672a8.048,8.048,0,0,1-.534,2.943,9.134,9.134,0,0,0-.574,3.415.5.5,0,0,1-.5.5.5.5,0,0,1-.5-.5,10.108,10.108,0,0,1,.627-3.737,7.019,7.019,0,0,0,.481-2.621v-1.672c0-1.143-.189-1.269-.7-1.607l-.2-.132c-1.125-.781-3.959-1.491-6.164-1.833a.7.7,0,0,1-.713.049.67.67,0,0,1-.305-.629c0-.582-.369-5.46-.538-6.272a2.354,2.354,0,0,0-1.149.044,26.607,26.607,0,0,0-.318,5.851v1.394a6.229,6.229,0,0,0,.186,1.83.5.5,0,0,1-.269.631.5.5,0,0,1-.643-.227c-.043-.083-.087-.185-.137-.3a2.325,2.325,0,0,0-.945-1.244c-.834-.473-1.265-.6-2.034.085a2.635,2.635,0,0,0,.335.294,8.884,8.884,0,0,1,2.409,3.758c.2.465.384.909.586,1.3a9.484,9.484,0,0,1,.808,2.305c.159.608.37,1.412.725,2.591a.5.5,0,0,1-.335.623A.512.512,0,0,1-489.761,232.5Zm-4.522-10.734-.015.019Zm6.89-1.385h0Z" transform="translate(4822.603 2152.89)" fill="#b8ddf2"/>
    <g id="Grupo_26875" data-name="Grupo 26875" transform="translate(4822.603 2152.89)">
      <rect id="Rectángulo_4074" data-name="Rectángulo 4074" width="38.202" height="14.692" rx="2" transform="translate(-445.335 320.016)" fill="#4ba3cc"/>
      <path id="Trazado_21172" data-name="Trazado 21172" d="M-409.133,336.208h-34.2a3.5,3.5,0,0,1-3.5-3.5V322.016a3.5,3.5,0,0,1,3.5-3.5h34.2a3.5,3.5,0,0,1,3.5,3.5v10.692A3.5,3.5,0,0,1-409.133,336.208Zm-34.2-14.692a.506.506,0,0,0-.5.5v10.692a.507.507,0,0,0,.5.5h34.2a.507.507,0,0,0,.5-.5V322.016a.506.506,0,0,0-.5-.5Z" fill="#4ba3cc"/>
    </g>
    <g id="Grupo_26880" data-name="Grupo 26880" transform="translate(4822.603 2152.89)">
      <g id="Grupo_26879" data-name="Grupo 26879">
        <path id="Trazado_21176" data-name="Trazado 21176" d="M-468.309,316.8h0q-1.53,0-3-.015a.5.5,0,0,1-.5-.5.468.468,0,0,1,.505-.5q1.47.014,3,.015a.5.5,0,0,1,.5.5A.5.5,0,0,1-468.309,316.8Zm-6-.051h-.009q-1.538-.029-3.006-.075a.5.5,0,0,1-.483-.517.514.514,0,0,1,.516-.483q1.463.048,2.991.075a.5.5,0,0,1,.491.509A.5.5,0,0,1-474.308,316.751Zm-5.995-.206h-.029q-1.543-.087-3.007-.214a.5.5,0,0,1-.454-.542.514.514,0,0,1,.541-.454q1.448.126,2.977.212a.5.5,0,0,1,.47.527A.5.5,0,0,1-480.3,316.545Zm-5.972-.54a.514.514,0,0,1-.067,0c-1.051-.141-2.057-.3-2.989-.484a.5.5,0,0,1-.4-.587.5.5,0,0,1,.587-.4c.912.178,1.9.338,2.929.475a.5.5,0,0,1,.43.562A.5.5,0,0,1-486.275,316.005Zm-5.876-1.164a.5.5,0,0,1-.136-.019,28.378,28.378,0,0,1-2.887-.972.5.5,0,0,1-.279-.65.5.5,0,0,1,.65-.278,27.472,27.472,0,0,0,2.787.937.5.5,0,0,1,.346.617A.5.5,0,0,1-492.151,314.841Zm-5.536-2.244a.489.489,0,0,1-.246-.066,19.207,19.207,0,0,1-2.543-1.716.5.5,0,0,1-.077-.7.5.5,0,0,1,.7-.078,18.228,18.228,0,0,0,2.411,1.628.5.5,0,0,1,.189.681A.5.5,0,0,1-497.687,312.6Zm-4.644-3.726a.5.5,0,0,1-.373-.167,19.7,19.7,0,0,1-1.851-2.443.5.5,0,0,1,.15-.692.5.5,0,0,1,.691.151,18.772,18.772,0,0,0,1.756,2.318.5.5,0,0,1-.04.706A.5.5,0,0,1-502.331,308.871Zm-3.24-5a.5.5,0,0,1-.454-.288,28.216,28.216,0,0,1-1.13-2.827.5.5,0,0,1,.312-.635.5.5,0,0,1,.634.313,27.14,27.14,0,0,0,1.09,2.725.5.5,0,0,1-.241.665A.5.5,0,0,1-505.571,303.871Zm-1.949-5.649a.5.5,0,0,1-.485-.38c-.233-.942-.442-1.938-.623-2.963a.5.5,0,0,1,.4-.579.492.492,0,0,1,.579.4c.178,1,.382,1.978.61,2.9a.5.5,0,0,1-.365.605A.507.507,0,0,1-507.52,298.222Zm-1.055-5.893a.5.5,0,0,1-.5-.439q-.175-1.445-.3-3a.5.5,0,0,1,.46-.537.491.491,0,0,1,.537.459q.12,1.538.293,2.96a.5.5,0,0,1-.436.556A.418.418,0,0,1-508.575,292.329Zm-.472-5.973a.5.5,0,0,1-.5-.478q-.062-1.459-.082-3.012a.5.5,0,0,1,.493-.507.538.538,0,0,1,.507.494q.02,1.537.081,2.982a.5.5,0,0,1-.479.521Zm-.075-5.994h-.012a.5.5,0,0,1-.488-.511c.024-1.051.076-2.065.152-3.014a.5.5,0,0,1,.539-.458.5.5,0,0,1,.458.538c-.075.931-.125,1.926-.149,2.957A.5.5,0,0,1-509.122,280.362Zm.5-5.952a.536.536,0,0,1-.079-.006.5.5,0,0,1-.415-.572,28.72,28.72,0,0,1,.625-2.972.5.5,0,0,1,.614-.351.5.5,0,0,1,.352.613,27.821,27.821,0,0,0-.6,2.866A.5.5,0,0,1-508.623,274.41Zm1.593-5.729a.506.506,0,0,1-.2-.042.5.5,0,0,1-.257-.66,15,15,0,0,1,1.511-2.68.5.5,0,0,1,.7-.115.5.5,0,0,1,.115.7,14.073,14.073,0,0,0-1.409,2.5A.5.5,0,0,1-507.03,268.681Zm3.467-4.789a.5.5,0,0,1-.379-.174.5.5,0,0,1,.053-.7,14.831,14.831,0,0,1,2.547-1.748.5.5,0,0,1,.679.2.5.5,0,0,1-.2.679,13.912,13.912,0,0,0-2.378,1.631A.5.5,0,0,1-503.563,263.892Zm5.173-2.966a.5.5,0,0,1-.462-.309.5.5,0,0,1,.27-.653c.485-.2.972-.395,1.459-.588.443-.176.886-.352,1.327-.533a.5.5,0,0,1,.652.271.5.5,0,0,1-.272.653c-.444.183-.891.361-1.338.539-.482.191-.964.382-1.444.582A.5.5,0,0,1-498.39,260.926Zm5.5-2.389a.5.5,0,0,1-.439-.26.5.5,0,0,1,.2-.678,13.793,13.793,0,0,0,2.38-1.622.5.5,0,0,1,.705.052.5.5,0,0,1-.054.705,14.65,14.65,0,0,1-2.551,1.742A.5.5,0,0,1-492.891,258.537Zm4.466-3.883a.5.5,0,0,1-.288-.091.5.5,0,0,1-.12-.7,13.682,13.682,0,0,0,1.384-2.512.5.5,0,0,1,.656-.264.5.5,0,0,1,.264.656,14.688,14.688,0,0,1-1.487,2.7A.5.5,0,0,1-488.425,254.654Zm2.379-5.429a.48.48,0,0,1-.124-.016.5.5,0,0,1-.361-.608,27.731,27.731,0,0,0,.562-2.874.5.5,0,0,1,.566-.424.5.5,0,0,1,.424.566,28.409,28.409,0,0,1-.584,2.98A.5.5,0,0,1-486.046,249.225Zm.876-5.9h-.034a.5.5,0,0,1-.465-.532c.062-.939.1-1.936.106-2.964a.5.5,0,0,1,.5-.5h0a.5.5,0,0,1,.5.5c-.009,1.048-.045,2.064-.108,3.022A.5.5,0,0,1-485.17,243.326Z" fill="#b8ddf2"/>
        <g id="Grupo_26877" data-name="Grupo 26877">
          <path id="Trazado_21177" data-name="Trazado 21177" d="M-468.471,312.519a3.761,3.761,0,0,1,3.735,3.785,3.761,3.761,0,0,1-3.785,3.735,3.762,3.762,0,0,1-3.735-3.785A3.761,3.761,0,0,1-468.471,312.519Z" fill="#b8ddf2"/>
        </g>
        <g id="Grupo_26878" data-name="Grupo 26878">
          <path id="Trazado_21178" data-name="Trazado 21178" d="M-482.085,245.127l-.946.327-2.14-6.191-2.34,6.118-.934-.357,3.321-8.684Z" fill="#b8ddf2"/>
        </g>
      </g>
    </g>
    <g id="Grupo_26890" data-name="Grupo 26890" transform="translate(4822.603 2152.89)">
      <path id="Trazado_21179" data-name="Trazado 21179" d="M-276.488,344.708a.511.511,0,0,1-.219-.05.5.5,0,0,1-.281-.45v-7.756l-7.9-10.952a.5.5,0,0,1-.04-.52.5.5,0,0,1,.445-.272h18a.5.5,0,0,1,.446.272.5.5,0,0,1-.04.521l-7.906,10.951v6.172a.5.5,0,0,1-.19.393l-2.01,1.584A.5.5,0,0,1-276.488,344.708Zm-7.013-19L-276.083,336a.5.5,0,0,1,.1.292v6.887l1.009-.8v-6.091a.507.507,0,0,1,.1-.293l7.428-10.29Z" fill="#b8ddf2"/>
      <g id="Grupo_26881" data-name="Grupo 26881">
        <path id="Trazado_21180" data-name="Trazado 21180" d="M-241.774,344.708a2,2,0,0,1-2-2,2,2,0,0,1,2-2,2,2,0,0,1,2,2A2,2,0,0,1-241.774,344.708Zm0-3a1,1,0,0,0-1,1,1,1,0,0,0,1,1,1,1,0,0,0,1-1A1,1,0,0,0-241.774,341.708Z" fill="#b8ddf2"/>
        <path id="Trazado_21181" data-name="Trazado 21181" d="M-228.774,344.708a2,2,0,0,1-2-2,2,2,0,0,1,2-2,2,2,0,0,1,2,2A2,2,0,0,1-228.774,344.708Zm0-3a1,1,0,0,0-1,1,1,1,0,0,0,1,1,1,1,0,0,0,1-1A1,1,0,0,0-228.774,341.708Z" fill="#b8ddf2"/>
        <path id="Trazado_21182" data-name="Trazado 21182" d="M-230.761,342.708h-8.826a.5.5,0,0,1-.5-.5.5.5,0,0,1,.5-.5h8.826a.5.5,0,0,1,.5.5A.5.5,0,0,1-230.761,342.708Z" fill="#b8ddf2"/>
        <path id="Trazado_21183" data-name="Trazado 21183" d="M-241.279,341.324a.5.5,0,0,1-.5-.5V328.719a.5.5,0,0,1,.5-.5.5.5,0,0,1,.5.5v12.105A.5.5,0,0,1-241.279,341.324Z" fill="#b8ddf2"/>
        <path id="Trazado_21184" data-name="Trazado 21184" d="M-241.28,338.194a.5.5,0,0,1-.488-.393.5.5,0,0,1,.382-.6l13.607-2.97v-4.528h-13.5a.5.5,0,0,1-.5-.5.5.5,0,0,1,.5-.5h14a.5.5,0,0,1,.5.5v5.431a.5.5,0,0,1-.394.488l-14,3.056A.556.556,0,0,1-241.28,338.194Z" fill="#b8ddf2"/>
        <path id="Trazado_21185" data-name="Trazado 21185" d="M-241.279,329.708a.5.5,0,0,1-.46-.3l-1.583-3.7h-2.952a.5.5,0,0,1-.5-.5.5.5,0,0,1,.5-.5h3.282a.5.5,0,0,1,.459.3l1.713,4a.5.5,0,0,1-.263.657A.5.5,0,0,1-241.279,329.708Z" fill="#b8ddf2"/>
      </g>
      <g id="Grupo_26885" data-name="Grupo 26885">
        <g id="Grupo_26884" data-name="Grupo 26884">
          <path id="Trazado_21186" data-name="Trazado 21186" d="M-277.289,314.882h-.014a.5.5,0,0,1-.486-.515,14.78,14.78,0,0,1,.409-3.065.5.5,0,0,1,.6-.368.5.5,0,0,1,.367.6,13.877,13.877,0,0,0-.38,2.858A.5.5,0,0,1-277.289,314.882Zm1.4-5.778a.5.5,0,0,1-.214-.048.5.5,0,0,1-.237-.666,17.826,17.826,0,0,1,1.567-2.65.5.5,0,0,1,.7-.117.5.5,0,0,1,.119.7,16.763,16.763,0,0,0-1.48,2.5A.5.5,0,0,1-275.89,309.1Zm3.426-4.893a.5.5,0,0,1-.341-.134.5.5,0,0,1-.026-.707c.656-.7,1.369-1.4,2.181-2.126a.5.5,0,0,1,.706.04.5.5,0,0,1-.039.706c-.789.705-1.481,1.38-2.115,2.062A.5.5,0,0,1-272.464,304.211Zm4.448-4.025a.5.5,0,0,1-.392-.189.5.5,0,0,1,.081-.7c.791-.629,1.593-1.239,2.389-1.838a.5.5,0,0,1,.7.1.5.5,0,0,1-.1.7c-.788.593-1.584,1.2-2.368,1.822A.5.5,0,0,1-268.016,300.186Zm4.78-3.633a.5.5,0,0,1-.4-.2.5.5,0,0,1,.1-.7c.817-.619,1.6-1.23,2.344-1.841a.5.5,0,0,1,.7.065.5.5,0,0,1-.066.7c-.749.621-1.549,1.242-2.378,1.869A.493.493,0,0,1-263.236,296.553Zm4.579-3.875a.5.5,0,0,1-.348-.142.5.5,0,0,1-.011-.707,12.3,12.3,0,0,0,1.782-2.256.5.5,0,0,1,.685-.174.5.5,0,0,1,.174.686,13.331,13.331,0,0,1-1.923,2.441A.5.5,0,0,1-258.657,292.678Z" fill="#b8ddf2"/>
          <g id="Grupo_26882" data-name="Grupo 26882">
            <path id="Trazado_21187" data-name="Trazado 21187" d="M-260.5,288.879a3.76,3.76,0,0,1,4.706-2.475,3.761,3.761,0,0,1,2.475,4.706,3.761,3.761,0,0,1-4.707,2.475A3.76,3.76,0,0,1-260.5,288.879Z" fill="#b8ddf2"/>
          </g>
          <g id="Grupo_26883" data-name="Grupo 26883">
            <path id="Trazado_21188" data-name="Trazado 21188" d="M-280.463,311.615l.9-.428,2.806,5.919,1.655-6.338.967.252-2.348,9Z" fill="#b8ddf2"/>
          </g>
        </g>
      </g>
      <g id="Grupo_26889" data-name="Grupo 26889">
        <g id="Grupo_26888" data-name="Grupo 26888">
          <path id="Trazado_21189" data-name="Trazado 21189" d="M-266.275,350.129h-3a.5.5,0,0,1-.5-.5.5.5,0,0,1,.5-.5h3a.5.5,0,0,1,.5.5A.5.5,0,0,1-266.275,350.129Zm-6,0h-3a.5.5,0,0,1-.5-.5.5.5,0,0,1,.5-.5h3a.5.5,0,0,1,.5.5A.5.5,0,0,1-272.275,350.129Zm8.972-.316a.5.5,0,0,1-.484-.375.5.5,0,0,1,.359-.609,9.446,9.446,0,0,0,2.61-1.115.5.5,0,0,1,.688.162.5.5,0,0,1-.162.687,10.443,10.443,0,0,1-2.886,1.235A.491.491,0,0,1-263.3,349.813Zm5.028-3.107a.5.5,0,0,1-.329-.124.5.5,0,0,1-.047-.706,9.537,9.537,0,0,0,1.536-2.389.5.5,0,0,1,.66-.251.5.5,0,0,1,.252.661,10.55,10.55,0,0,1-1.7,2.639A.5.5,0,0,1-258.275,346.706Zm2.415-5.393a.4.4,0,0,1-.06,0,.5.5,0,0,1-.437-.556,9.615,9.615,0,0,0,.066-1.124v-1.813a.5.5,0,0,1,.5-.5.5.5,0,0,1,.5.5v1.812a10.579,10.579,0,0,1-.073,1.244A.5.5,0,0,1-255.86,341.313Zm.069-6a.5.5,0,0,1-.5-.5v-3a.5.5,0,0,1,.5-.5.5.5,0,0,1,.5.5v3A.5.5,0,0,1-255.791,335.317Zm0-6a.5.5,0,0,1-.5-.5v-3a.5.5,0,0,1,.5-.5.5.5,0,0,1,.5.5v3A.5.5,0,0,1-255.791,329.317Zm0-6a.5.5,0,0,1-.5-.5v-3a.5.5,0,0,1,.5-.5.5.5,0,0,1,.5.5v3A.5.5,0,0,1-255.791,323.317Zm20.617-2.6a.5.5,0,0,1-.5-.5v-.636a.5.5,0,0,1,.5-.5.5.5,0,0,1,.5.5v.636A.5.5,0,0,1-235.174,320.713Zm-20.617-3.4a.5.5,0,0,1-.5-.5v-.411a10.448,10.448,0,0,1,.351-2.688.5.5,0,0,1,.611-.355.5.5,0,0,1,.355.613,9.471,9.471,0,0,0-.317,2.43v.411A.5.5,0,0,1-255.791,317.317Zm20.617-.24a.5.5,0,0,1-.5-.5v-1.856a6.462,6.462,0,0,0-.088-1.057.5.5,0,0,1,.411-.575.5.5,0,0,1,.576.411,7.451,7.451,0,0,1,.1,1.221v1.856A.5.5,0,0,1-235.174,317.077Zm-19.089-5.469a.485.485,0,0,1-.265-.077.5.5,0,0,1-.158-.689,10.67,10.67,0,0,1,2.044-2.377.5.5,0,0,1,.705.051.5.5,0,0,1-.05.705,9.6,9.6,0,0,0-1.852,2.154A.5.5,0,0,1-254.263,311.608Zm17.908-.3a.5.5,0,0,1-.421-.229,8.3,8.3,0,0,0-1.919-2.062.5.5,0,0,1-.091-.7.5.5,0,0,1,.7-.09,9.306,9.306,0,0,1,2.148,2.31.5.5,0,0,1-.148.691A.5.5,0,0,1-236.355,311.313Zm-13.433-3.568a.5.5,0,0,1-.458-.3.5.5,0,0,1,.256-.659,10.4,10.4,0,0,1,3.031-.815.5.5,0,0,1,.553.441.5.5,0,0,1-.442.553,9.345,9.345,0,0,0-2.739.737A.514.514,0,0,1-249.788,307.745Zm8.788-.075a.51.51,0,0,1-.179-.033,10.911,10.911,0,0,0-2.782-.666.5.5,0,0,1-.445-.55.494.494,0,0,1,.55-.444,11.923,11.923,0,0,1,3.036.726.5.5,0,0,1,.287.647A.5.5,0,0,1-241,307.67Z" fill="#b8ddf2"/>
          <g id="Grupo_26886" data-name="Grupo 26886">
            <path id="Trazado_21190" data-name="Trazado 21190" d="M-275.087,353.389a3.76,3.76,0,0,1-3.76-3.76,3.76,3.76,0,0,1,3.76-3.759,3.76,3.76,0,0,1,3.76,3.759A3.76,3.76,0,0,1-275.087,353.389Z" fill="#b8ddf2"/>
          </g>
          <g id="Grupo_26887" data-name="Grupo 26887">
            <path id="Trazado_21191" data-name="Trazado 21191" d="M-238.355,314.3l.94-.342,2.24,6.155,2.24-6.155.939.342-3.18,8.737Z" fill="#b8ddf2"/>
          </g>
        </g>
      </g>
    </g>
    <g id="Trazado_25572" data-name="Trazado 25572" transform="translate(4670 2227)" fill="#fff">
      <path d="M 206 42.5 L 22 42.5 C 19.23185348510742 42.5 16.54732322692871 41.95820617675781 14.02094078063965 40.88961791992188 C 11.57999992370605 39.857177734375 9.387470245361328 38.37885284423828 7.504323482513428 36.49567794799805 C 5.621147155761719 34.61252975463867 4.142823696136475 32.41999816894531 3.110382318496704 29.97905921936035 C 2.041794061660767 27.45267677307129 1.5 24.76814651489258 1.5 22 C 1.5 19.23185348510742 2.041794061660767 16.54732322692871 3.110382318496704 14.02094078063965 C 4.142823696136475 11.57999992370605 5.621147155761719 9.387470245361328 7.504323482513428 7.504323482513428 C 9.387470245361328 5.621147155761719 11.57999992370605 4.142823696136475 14.02094078063965 3.110382318496704 C 16.54732322692871 2.041794061660767 19.23185348510742 1.5 22 1.5 L 206 1.5 C 208.7681427001953 1.5 211.4526824951172 2.041794061660767 213.9790649414063 3.110382318496704 C 216.4199981689453 4.142823696136475 218.6125335693359 5.621147155761719 220.4956817626953 7.504323482513428 C 222.3788604736328 9.387470245361328 223.857177734375 11.57999992370605 224.8896179199219 14.02094078063965 C 225.9582061767578 16.54732322692871 226.5 19.23185348510742 226.5 22 C 226.5 24.76814651489258 225.9582061767578 27.45267677307129 224.8896179199219 29.97905921936035 C 223.857177734375 32.41999816894531 222.3788604736328 34.61252975463867 220.4956817626953 36.49567794799805 C 218.6125335693359 38.37885284423828 216.4199981689453 39.857177734375 213.9790649414063 40.88961791992188 C 211.4526824951172 41.95820617675781 208.7681427001953 42.5 206 42.5 Z" stroke="none"/>
      <path d="M 22 3 C 16.92491149902344 3 12.15359497070313 4.976345062255859 8.564971923828125 8.564968109130859 C 4.976348876953125 12.15359306335449 3 16.92490577697754 3 22 C 3 27.07509422302246 4.976348876953125 31.84640502929688 8.564971923828125 35.43503189086914 C 12.15359497070313 39.02365493774414 16.92491149902344 41 22 41 L 206 41 C 211.0750579833984 41 215.8464050292969 39.02365493774414 219.4350280761719 35.43503189086914 C 223.0236511230469 31.84640502929688 225 27.0750617980957 225 22 C 225 16.9249382019043 223.0236511230469 12.15359306335449 219.4350280761719 8.564968109130859 C 215.8464050292969 4.976345062255859 211.0750579833984 3 206 3 L 22 3 M 22 0 L 206 0 C 218.1502532958984 0 228 9.849750518798828 228 22 C 228 34.15024948120117 218.1502532958984 44 206 44 L 22 44 C 9.849716186523438 44 0 34.15024948120117 0 22 C 0 9.849750518798828 9.849716186523438 0 22 0 Z" stroke="none" fill="#ff8f00"/>
    </g>
    <g id="Trazado_25573" data-name="Trazado 25573" transform="translate(4670 2282)" fill="#fff">
      <path d="M 206 42.5 L 22 42.5 C 19.23185348510742 42.5 16.54732322692871 41.95820617675781 14.02094078063965 40.88961791992188 C 11.57999992370605 39.857177734375 9.387470245361328 38.37885284423828 7.504323482513428 36.49567794799805 C 5.621147155761719 34.61252975463867 4.142823696136475 32.41999816894531 3.110382318496704 29.97905921936035 C 2.041794061660767 27.45267677307129 1.5 24.76814651489258 1.5 22 C 1.5 19.23185348510742 2.041794061660767 16.54732322692871 3.110382318496704 14.02094078063965 C 4.142823696136475 11.57999992370605 5.621147155761719 9.387470245361328 7.504323482513428 7.504323482513428 C 9.387470245361328 5.621147155761719 11.57999992370605 4.142823696136475 14.02094078063965 3.110382318496704 C 16.54732322692871 2.041794061660767 19.23185348510742 1.5 22 1.5 L 206 1.5 C 208.7681427001953 1.5 211.4526824951172 2.041794061660767 213.9790649414063 3.110382318496704 C 216.4199981689453 4.142823696136475 218.6125335693359 5.621147155761719 220.4956817626953 7.504323482513428 C 222.3788604736328 9.387470245361328 223.857177734375 11.57999992370605 224.8896179199219 14.02094078063965 C 225.9582061767578 16.54732322692871 226.5 19.23185348510742 226.5 22 C 226.5 24.76814651489258 225.9582061767578 27.45267677307129 224.8896179199219 29.97905921936035 C 223.857177734375 32.41999816894531 222.3788604736328 34.61252975463867 220.4956817626953 36.49567794799805 C 218.6125335693359 38.37885284423828 216.4199981689453 39.857177734375 213.9790649414063 40.88961791992188 C 211.4526824951172 41.95820617675781 208.7681427001953 42.5 206 42.5 Z" stroke="none"/>
      <path d="M 22 3 C 16.92491149902344 3 12.15359497070313 4.976345062255859 8.564971923828125 8.564968109130859 C 4.976348876953125 12.15359306335449 3 16.92490577697754 3 22 C 3 27.07509422302246 4.976348876953125 31.84640502929688 8.564971923828125 35.43503189086914 C 12.15359497070313 39.02365493774414 16.92491149902344 41 22 41 L 206 41 C 211.0750579833984 41 215.8464050292969 39.02365493774414 219.4350280761719 35.43503189086914 C 223.0236511230469 31.84640502929688 225 27.0750617980957 225 22 C 225 16.9249382019043 223.0236511230469 12.15359306335449 219.4350280761719 8.564968109130859 C 215.8464050292969 4.976345062255859 211.0750579833984 3 206 3 L 22 3 M 22 0 L 206 0 C 218.1502532958984 0 228 9.849750518798828 228 22 C 228 34.15024948120117 218.1502532958984 44 206 44 L 22 44 C 9.849716186523438 44 0 34.15024948120117 0 22 C 0 9.849750518798828 9.849716186523438 0 22 0 Z" stroke="none" fill="#ff8f00"/>
    </g>
    <g id="Trazado_25574" data-name="Trazado 25574" transform="translate(4670 2338)" fill="#fff">
      <path d="M 206 42.5 L 22 42.5 C 19.23185348510742 42.5 16.54732322692871 41.95820617675781 14.02094078063965 40.88961791992188 C 11.57999992370605 39.857177734375 9.387470245361328 38.37885284423828 7.504323482513428 36.49567794799805 C 5.621147155761719 34.61252975463867 4.142823696136475 32.41999816894531 3.110382318496704 29.97905921936035 C 2.041794061660767 27.45267677307129 1.5 24.76814651489258 1.5 22 C 1.5 19.23185348510742 2.041794061660767 16.54732322692871 3.110382318496704 14.02094078063965 C 4.142823696136475 11.57999992370605 5.621147155761719 9.387470245361328 7.504323482513428 7.504323482513428 C 9.387470245361328 5.621147155761719 11.57999992370605 4.142823696136475 14.02094078063965 3.110382318496704 C 16.54732322692871 2.041794061660767 19.23185348510742 1.5 22 1.5 L 206 1.5 C 208.7681427001953 1.5 211.4526824951172 2.041794061660767 213.9790649414063 3.110382318496704 C 216.4199981689453 4.142823696136475 218.6125335693359 5.621147155761719 220.4956817626953 7.504323482513428 C 222.3788604736328 9.387470245361328 223.857177734375 11.57999992370605 224.8896179199219 14.02094078063965 C 225.9582061767578 16.54732322692871 226.5 19.23185348510742 226.5 22 C 226.5 24.76814651489258 225.9582061767578 27.45267677307129 224.8896179199219 29.97905921936035 C 223.857177734375 32.41999816894531 222.3788604736328 34.61252975463867 220.4956817626953 36.49567794799805 C 218.6125335693359 38.37885284423828 216.4199981689453 39.857177734375 213.9790649414063 40.88961791992188 C 211.4526824951172 41.95820617675781 208.7681427001953 42.5 206 42.5 Z" stroke="none"/>
      <path d="M 22 3 C 16.92491149902344 3 12.15359497070313 4.976345062255859 8.564971923828125 8.564968109130859 C 4.976348876953125 12.15359306335449 3 16.92490577697754 3 22 C 3 27.07509422302246 4.976348876953125 31.84640502929688 8.564971923828125 35.43503189086914 C 12.15359497070313 39.02365493774414 16.92491149902344 41 22 41 L 206 41 C 211.0750579833984 41 215.8464050292969 39.02365493774414 219.4350280761719 35.43503189086914 C 223.0236511230469 31.84640502929688 225 27.0750617980957 225 22 C 225 16.9249382019043 223.0236511230469 12.15359306335449 219.4350280761719 8.564968109130859 C 215.8464050292969 4.976345062255859 211.0750579833984 3 206 3 L 22 3 M 22 0 L 206 0 C 218.1502532958984 0 228 9.849750518798828 228 22 C 228 34.15024948120117 218.1502532958984 44 206 44 L 22 44 C 9.849716186523438 44 0 34.15024948120117 0 22 C 0 9.849750518798828 9.849716186523438 0 22 0 Z" stroke="none" fill="#ff8f00"/>
    </g>
    <g id="Trazado_25575" data-name="Trazado 25575" transform="translate(4670 2395)" fill="#fff">
      <path d="M 206 42.5 L 22 42.5 C 19.23185348510742 42.5 16.54732322692871 41.95820617675781 14.02094078063965 40.88961791992188 C 11.57999992370605 39.857177734375 9.387470245361328 38.37885284423828 7.504323482513428 36.49567794799805 C 5.621147155761719 34.61252975463867 4.142823696136475 32.41999816894531 3.110382318496704 29.97905921936035 C 2.041794061660767 27.45267677307129 1.5 24.76814651489258 1.5 22 C 1.5 19.23185348510742 2.041794061660767 16.54732322692871 3.110382318496704 14.02094078063965 C 4.142823696136475 11.57999992370605 5.621147155761719 9.387470245361328 7.504323482513428 7.504323482513428 C 9.387470245361328 5.621147155761719 11.57999992370605 4.142823696136475 14.02094078063965 3.110382318496704 C 16.54732322692871 2.041794061660767 19.23185348510742 1.5 22 1.5 L 206 1.5 C 208.7681427001953 1.5 211.4526824951172 2.041794061660767 213.9790649414063 3.110382318496704 C 216.4199981689453 4.142823696136475 218.6125335693359 5.621147155761719 220.4956817626953 7.504323482513428 C 222.3788604736328 9.387470245361328 223.857177734375 11.57999992370605 224.8896179199219 14.02094078063965 C 225.9582061767578 16.54732322692871 226.5 19.23185348510742 226.5 22 C 226.5 24.76814651489258 225.9582061767578 27.45267677307129 224.8896179199219 29.97905921936035 C 223.857177734375 32.41999816894531 222.3788604736328 34.61252975463867 220.4956817626953 36.49567794799805 C 218.6125335693359 38.37885284423828 216.4199981689453 39.857177734375 213.9790649414063 40.88961791992188 C 211.4526824951172 41.95820617675781 208.7681427001953 42.5 206 42.5 Z" stroke="none"/>
      <path d="M 22 3 C 16.92491149902344 3 12.15359497070313 4.976345062255859 8.564971923828125 8.564968109130859 C 4.976348876953125 12.15359306335449 3 16.92490577697754 3 22 C 3 27.07509422302246 4.976348876953125 31.84640502929688 8.564971923828125 35.43503189086914 C 12.15359497070313 39.02365493774414 16.92491149902344 41 22 41 L 206 41 C 211.0750579833984 41 215.8464050292969 39.02365493774414 219.4350280761719 35.43503189086914 C 223.0236511230469 31.84640502929688 225 27.0750617980957 225 22 C 225 16.9249382019043 223.0236511230469 12.15359306335449 219.4350280761719 8.564968109130859 C 215.8464050292969 4.976345062255859 211.0750579833984 3 206 3 L 22 3 M 22 0 L 206 0 C 218.1502532958984 0 228 9.849750518798828 228 22 C 228 34.15024948120117 218.1502532958984 44 206 44 L 22 44 C 9.849716186523438 44 0 34.15024948120117 0 22 C 0 9.849750518798828 9.849716186523438 0 22 0 Z" stroke="none" fill="#ff8f00"/>
    </g>
    <g id="Trazado_25576" data-name="Trazado 25576" transform="translate(4670 2452)" fill="#fff">
      <path d="M 206 42.5 L 22 42.5 C 19.23185348510742 42.5 16.54732322692871 41.95820617675781 14.02094078063965 40.88961791992188 C 11.57999992370605 39.857177734375 9.387470245361328 38.37885284423828 7.504323482513428 36.49567794799805 C 5.621147155761719 34.61252975463867 4.142823696136475 32.41999816894531 3.110382318496704 29.97905921936035 C 2.041794061660767 27.45267677307129 1.5 24.76814651489258 1.5 22 C 1.5 19.23185348510742 2.041794061660767 16.54732322692871 3.110382318496704 14.02094078063965 C 4.142823696136475 11.57999992370605 5.621147155761719 9.387470245361328 7.504323482513428 7.504323482513428 C 9.387470245361328 5.621147155761719 11.57999992370605 4.142823696136475 14.02094078063965 3.110382318496704 C 16.54732322692871 2.041794061660767 19.23185348510742 1.5 22 1.5 L 206 1.5 C 208.7681427001953 1.5 211.4526824951172 2.041794061660767 213.9790649414063 3.110382318496704 C 216.4199981689453 4.142823696136475 218.6125335693359 5.621147155761719 220.4956817626953 7.504323482513428 C 222.3788604736328 9.387470245361328 223.857177734375 11.57999992370605 224.8896179199219 14.02094078063965 C 225.9582061767578 16.54732322692871 226.5 19.23185348510742 226.5 22 C 226.5 24.76814651489258 225.9582061767578 27.45267677307129 224.8896179199219 29.97905921936035 C 223.857177734375 32.41999816894531 222.3788604736328 34.61252975463867 220.4956817626953 36.49567794799805 C 218.6125335693359 38.37885284423828 216.4199981689453 39.857177734375 213.9790649414063 40.88961791992188 C 211.4526824951172 41.95820617675781 208.7681427001953 42.5 206 42.5 Z" stroke="none"/>
      <path d="M 22 3 C 16.92491149902344 3 12.15359497070313 4.976345062255859 8.564971923828125 8.564968109130859 C 4.976348876953125 12.15359306335449 3 16.92490577697754 3 22 C 3 27.07509422302246 4.976348876953125 31.84640502929688 8.564971923828125 35.43503189086914 C 12.15359497070313 39.02365493774414 16.92491149902344 41 22 41 L 206 41 C 211.0750579833984 41 215.8464050292969 39.02365493774414 219.4350280761719 35.43503189086914 C 223.0236511230469 31.84640502929688 225 27.0750617980957 225 22 C 225 16.9249382019043 223.0236511230469 12.15359306335449 219.4350280761719 8.564968109130859 C 215.8464050292969 4.976345062255859 211.0750579833984 3 206 3 L 22 3 M 22 0 L 206 0 C 218.1502532958984 0 228 9.849750518798828 228 22 C 228 34.15024948120117 218.1502532958984 44 206 44 L 22 44 C 9.849716186523438 44 0 34.15024948120117 0 22 C 0 9.849750518798828 9.849716186523438 0 22 0 Z" stroke="none" fill="#ff8f00"/>
    </g>
    <path id="Trazado_25577" data-name="Trazado 25577" d="M10.706,18l-.974-2.765H4.1L3.126,18H.278L5.214,4.594h3.4L13.554,18ZM4.917,12.907h4L6.921,7.22ZM15.215,18V3.75h2.7V18Zm9.778.176A5.1,5.1,0,0,1,21.31,16.8a4.742,4.742,0,0,1-1.429-3.581,4.732,4.732,0,0,1,1.424-3.581,5.111,5.111,0,0,1,3.688-1.364,5.082,5.082,0,0,1,3.089.918,4.1,4.1,0,0,1,1.6,2.588l-2.468.269a2.114,2.114,0,0,0-.8-1.252,2.426,2.426,0,0,0-1.447-.417,2.188,2.188,0,0,0-1.744.779,3.055,3.055,0,0,0-.668,2.06,3.059,3.059,0,0,0,.668,2.055,2.182,2.182,0,0,0,1.744.784,2.4,2.4,0,0,0,1.443-.417,2.163,2.163,0,0,0,.8-1.252l2.468.269a4.112,4.112,0,0,1-1.61,2.588A5.061,5.061,0,0,1,24.993,18.176ZM39.4,15.412a8.922,8.922,0,0,0,.232,2.329V18h-2.5l-.213-1.039a3.1,3.1,0,0,1-1.336.918,4.924,4.924,0,0,1-1.726.306,4.538,4.538,0,0,1-.891-.083,3.028,3.028,0,0,1-.8-.283,2.435,2.435,0,0,1-.663-.5,2.177,2.177,0,0,1-.445-.756,3.012,3.012,0,0,1-.167-1.034A2.869,2.869,0,0,1,31.07,14.5a2.424,2.424,0,0,1,.464-.775,2.814,2.814,0,0,1,.751-.566,5.75,5.75,0,0,1,.946-.408,11.307,11.307,0,0,1,1.132-.3l1.568-.353a1.729,1.729,0,0,0,.71-.3.6.6,0,0,0,.209-.478.984.984,0,0,0-.469-.918,2.188,2.188,0,0,0-1.136-.278A1.635,1.635,0,0,0,33.38,11.58l-2.366-.427A3.2,3.2,0,0,1,32.4,8.978a5.494,5.494,0,0,1,3-.7q4.008,0,4.008,3.442Zm-4.7.965a2.149,2.149,0,0,0,1.651-.691,2.913,2.913,0,0,0,.64-2.046l-2.264.64a2.675,2.675,0,0,0-.951.39.8.8,0,0,0-.329.687.888.888,0,0,0,.353.756A1.459,1.459,0,0,0,34.7,16.376Zm12.933-8.1a3.718,3.718,0,0,1,2.635.858,3.182,3.182,0,0,1,.918,2.445V18H48.5V12.155a1.661,1.661,0,0,0-.478-1.317,1.8,1.8,0,0,0-1.229-.417,2.511,2.511,0,0,0-.8.121,2.05,2.05,0,0,0-.668.376,1.661,1.661,0,0,0-.478.719,3.325,3.325,0,0,0-.181,1.1V18H42V8.463H44.67V9.521A3.675,3.675,0,0,1,47.63,8.277Zm10.456,9.9A5.1,5.1,0,0,1,54.4,16.8a4.742,4.742,0,0,1-1.429-3.581A4.732,4.732,0,0,1,54.4,9.641,5.662,5.662,0,0,1,61.175,9.2a4.1,4.1,0,0,1,1.6,2.588l-2.468.269a2.114,2.114,0,0,0-.8-1.252,2.426,2.426,0,0,0-1.447-.417,2.188,2.188,0,0,0-1.744.779,3.055,3.055,0,0,0-.668,2.06,3.059,3.059,0,0,0,.668,2.055,2.182,2.182,0,0,0,1.744.784,2.4,2.4,0,0,0,1.443-.417,2.163,2.163,0,0,0,.8-1.252l2.468.269a4.112,4.112,0,0,1-1.61,2.588A5.061,5.061,0,0,1,58.085,18.176Zm15.558-5.084-.028.64H66.546a2.469,2.469,0,0,0,.761,1.744,2.433,2.433,0,0,0,1.679.6,2.345,2.345,0,0,0,1.257-.329,2.024,2.024,0,0,0,.8-.96l2.449.362a4.164,4.164,0,0,1-1.67,2.236,4.965,4.965,0,0,1-2.82.8,5.163,5.163,0,0,1-3.716-1.313,4.79,4.79,0,0,1-1.378-3.641A4.818,4.818,0,0,1,65.294,9.59a5.01,5.01,0,0,1,3.627-1.331,4.788,4.788,0,0,1,3.423,1.215A4.768,4.768,0,0,1,73.644,13.092Zm-4.7-2.941a2.111,2.111,0,0,0-2.319,1.837H71a2.008,2.008,0,0,0-.659-1.364A2.088,2.088,0,0,0,68.94,10.151Z" transform="translate(4713 2239)" fill="#002b45"/>
    <path id="Trazado_25578" data-name="Trazado 25578" d="M7.672,18.186a7.483,7.483,0,0,1-2.732-.492,6.425,6.425,0,0,1-2.176-1.373,6.189,6.189,0,0,1-1.429-2.18,7.6,7.6,0,0,1-.52-2.848,7.261,7.261,0,0,1,.891-3.641A6.063,6.063,0,0,1,4.152,5.244a7.32,7.32,0,0,1,3.521-.835,7.114,7.114,0,0,1,3.934,1.085,5.942,5.942,0,0,1,2.4,2.987l-2.6.946A3.672,3.672,0,0,0,9.973,7.619a4.107,4.107,0,0,0-2.3-.649A3.938,3.938,0,0,0,4.741,8.138a4.3,4.3,0,0,0-1.15,3.154,4.307,4.307,0,0,0,1.155,3.159,3.933,3.933,0,0,0,2.927,1.174,4.092,4.092,0,0,0,2.3-.654,3.689,3.689,0,0,0,1.443-1.814l2.6.946a5.966,5.966,0,0,1-2.4,2.992A7.091,7.091,0,0,1,7.672,18.186Zm12.71,0a6,6,0,0,1-2.7-.584,4.368,4.368,0,0,1-1.851-1.716,5.115,5.115,0,0,1-.673-2.663A4.665,4.665,0,0,1,16.606,9.6a5.369,5.369,0,0,1,3.776-1.327A5.382,5.382,0,0,1,24.167,9.6a4.665,4.665,0,0,1,1.447,3.618,4.691,4.691,0,0,1-1.447,3.632A5.371,5.371,0,0,1,20.382,18.186Zm-.028-2.125a2.448,2.448,0,0,0,1.888-.779,2.917,2.917,0,0,0,.719-2.06,2.917,2.917,0,0,0-.719-2.06,2.448,2.448,0,0,0-1.888-.779,2.358,2.358,0,0,0-1.832.784,2.944,2.944,0,0,0-.71,2.055,2.944,2.944,0,0,0,.71,2.055A2.358,2.358,0,0,0,20.354,16.061ZM38.9,8.277a3.644,3.644,0,0,1,2.458.775,2.772,2.772,0,0,1,.9,2.222V18H39.586V12.035a1.593,1.593,0,0,0-.427-1.206,1.5,1.5,0,0,0-1.076-.408,1.724,1.724,0,0,0-1.3.52,2.36,2.36,0,0,0-.5,1.679V18h-2.7V12.063a1.635,1.635,0,0,0-.427-1.229,1.521,1.521,0,0,0-1.1-.413,1.669,1.669,0,0,0-1.29.547,2.614,2.614,0,0,0-.5,1.791V18H27.6V8.463h2.663V9.585a3.243,3.243,0,0,1,2.765-1.308,4.078,4.078,0,0,1,1.8.366A2.443,2.443,0,0,1,35.95,9.706,3.372,3.372,0,0,1,38.9,8.277Zm14.927,4.815-.028.64H46.73a2.469,2.469,0,0,0,.761,1.744,2.433,2.433,0,0,0,1.679.6,2.345,2.345,0,0,0,1.257-.329,2.024,2.024,0,0,0,.8-.96l2.449.362a4.164,4.164,0,0,1-1.67,2.236,4.965,4.965,0,0,1-2.82.8,5.163,5.163,0,0,1-3.716-1.313A4.79,4.79,0,0,1,44.1,13.231,4.818,4.818,0,0,1,45.478,9.59,5.01,5.01,0,0,1,49.1,8.259a4.788,4.788,0,0,1,3.423,1.215A4.768,4.768,0,0,1,53.827,13.092Zm-4.7-2.941A2.111,2.111,0,0,0,46.8,11.988h4.379a2.008,2.008,0,0,0-.659-1.364A2.088,2.088,0,0,0,49.124,10.151ZM61.49,8.277a3.718,3.718,0,0,1,2.635.858,3.182,3.182,0,0,1,.918,2.445V18H62.362V12.155a1.661,1.661,0,0,0-.478-1.317,1.8,1.8,0,0,0-1.229-.417,2.511,2.511,0,0,0-.8.121,2.05,2.05,0,0,0-.668.376,1.661,1.661,0,0,0-.478.719,3.325,3.325,0,0,0-.181,1.1V18H55.859V8.463h2.672V9.521A3.675,3.675,0,0,1,61.49,8.277ZM71.185,18a2.88,2.88,0,0,1-2.152-.775,3.013,3.013,0,0,1-.761-2.2V10.513H66.4V8.463H67a1.573,1.573,0,0,0,1.188-.4,2.054,2.054,0,0,0,.38-1.419V5.383h2.412v3.08h1.967v2.05H70.981v4.221q0,1.234,1.1,1.234h.863V18ZM82.8,15.412a8.922,8.922,0,0,0,.232,2.329V18h-2.5l-.213-1.039a3.1,3.1,0,0,1-1.336.918,4.923,4.923,0,0,1-1.726.306,4.538,4.538,0,0,1-.891-.083,3.028,3.028,0,0,1-.8-.283,2.435,2.435,0,0,1-.663-.5,2.177,2.177,0,0,1-.445-.756,3.012,3.012,0,0,1-.167-1.034,2.869,2.869,0,0,1,.176-1.034,2.424,2.424,0,0,1,.464-.775,2.814,2.814,0,0,1,.751-.566,5.75,5.75,0,0,1,.946-.408,11.307,11.307,0,0,1,1.132-.3l1.568-.353a1.729,1.729,0,0,0,.71-.3.6.6,0,0,0,.209-.478.984.984,0,0,0-.469-.918,2.188,2.188,0,0,0-1.136-.278,1.635,1.635,0,0,0-1.865,1.457l-2.366-.427A3.2,3.2,0,0,1,75.8,8.978a5.494,5.494,0,0,1,3-.7q4.008,0,4.008,3.442Zm-4.7.965a2.149,2.149,0,0,0,1.651-.691,2.913,2.913,0,0,0,.64-2.046l-2.264.64a2.675,2.675,0,0,0-.951.39.8.8,0,0,0-.329.687.888.888,0,0,0,.353.756A1.459,1.459,0,0,0,78.1,16.376Zm9.862-6.4a3.1,3.1,0,0,1,1.252-1.146,3.822,3.822,0,0,1,1.865-.478v2.384a3.613,3.613,0,0,0-2.282.575,2.511,2.511,0,0,0-.705,2.041V18H85.4V8.463h2.561Zm6.049-2.941a1.5,1.5,0,0,1-1.095-.45,1.477,1.477,0,0,1-.455-1.09,1.459,1.459,0,0,1,.459-1.081,1.5,1.5,0,0,1,1.09-.45,1.544,1.544,0,0,1,1.531,1.531,1.544,1.544,0,0,1-1.531,1.54ZM92.644,18V8.463h2.69V18Zm9.9.186a6,6,0,0,1-2.7-.584,4.368,4.368,0,0,1-1.851-1.716,5.115,5.115,0,0,1-.673-2.663A4.665,4.665,0,0,1,98.767,9.6a6.05,6.05,0,0,1,7.561,0,4.665,4.665,0,0,1,1.447,3.618,4.691,4.691,0,0,1-1.447,3.632A5.371,5.371,0,0,1,102.542,18.186Zm-.028-2.125a2.448,2.448,0,0,0,1.888-.779,2.917,2.917,0,0,0,.719-2.06,2.917,2.917,0,0,0-.719-2.06,2.448,2.448,0,0,0-1.888-.779,2.358,2.358,0,0,0-1.832.784,2.944,2.944,0,0,0-.71,2.055,2.944,2.944,0,0,0,.71,2.055A2.358,2.358,0,0,0,102.515,16.061Zm10.6,2.125a5.33,5.33,0,0,1-2.783-.668,2.823,2.823,0,0,1-1.364-1.985l2.236-.631a1.8,1.8,0,0,0,1.911,1.419,1.974,1.974,0,0,0,.974-.218.759.759,0,0,0,.38-.738.78.78,0,0,0-.158-.492,1.249,1.249,0,0,0-.487-.353,6.068,6.068,0,0,0-.649-.25q-.32-.1-.849-.246t-.881-.274a5.9,5.9,0,0,1-.84-.357,3.581,3.581,0,0,1-.7-.492,1.982,1.982,0,0,1-.52-.747,2.694,2.694,0,0,1-.181-1.021A2.437,2.437,0,0,1,110.247,9a4.622,4.622,0,0,1,2.7-.724,4.739,4.739,0,0,1,2.5.612,2.771,2.771,0,0,1,1.28,1.911l-2.069.464a1.62,1.62,0,0,0-1.7-1.206,1.859,1.859,0,0,0-.937.213.686.686,0,0,0-.371.631.723.723,0,0,0,.056.288.569.569,0,0,0,.195.232,2.842,2.842,0,0,0,.269.176,2.03,2.03,0,0,0,.38.153q.25.079.417.121l.487.125.5.13q.51.139.9.278a5.243,5.243,0,0,1,.821.39,2.947,2.947,0,0,1,.719.561,2.5,2.5,0,0,1,.469.789,2.913,2.913,0,0,1,.186,1.062,2.869,2.869,0,0,1-.32,1.382,2.4,2.4,0,0,1-.877.932,4.267,4.267,0,0,1-1.239.5A6.425,6.425,0,0,1,113.119,18.186Z" transform="translate(4713 2294)" fill="#002b45"/>
    <path id="Trazado_25579" data-name="Trazado 25579" d="M4.518,15.542h4.2V18H1.735V4.594H4.518Zm7.338-8.507a1.5,1.5,0,0,1-1.095-.45,1.477,1.477,0,0,1-.455-1.09,1.459,1.459,0,0,1,.459-1.081,1.5,1.5,0,0,1,1.09-.45,1.544,1.544,0,0,1,1.531,1.531,1.544,1.544,0,0,1-1.531,1.54ZM10.493,18V8.463h2.69V18Zm11.782,0L19.2,13.992h-.557V18h-2.7V3.75h2.7v8.387h.5l3-3.674h3.024l-3.757,4.425L25.522,18ZM35.5,13.092l-.028.64H28.4a2.469,2.469,0,0,0,.761,1.744,2.433,2.433,0,0,0,1.679.6,2.345,2.345,0,0,0,1.257-.329,2.024,2.024,0,0,0,.8-.96l2.449.362a4.164,4.164,0,0,1-1.67,2.236,4.965,4.965,0,0,1-2.82.8,5.163,5.163,0,0,1-3.716-1.313,4.79,4.79,0,0,1-1.378-3.641A4.818,4.818,0,0,1,27.146,9.59a5.01,5.01,0,0,1,3.627-1.331A4.788,4.788,0,0,1,34.2,9.474,4.768,4.768,0,0,1,35.5,13.092Zm-4.7-2.941a2.111,2.111,0,0,0-2.319,1.837h4.379a2.008,2.008,0,0,0-.659-1.364A2.088,2.088,0,0,0,30.792,10.151Zm10.094,8.034a5.33,5.33,0,0,1-2.783-.668,2.823,2.823,0,0,1-1.364-1.985l2.236-.631a1.8,1.8,0,0,0,1.911,1.419,1.974,1.974,0,0,0,.974-.218.759.759,0,0,0,.38-.738.78.78,0,0,0-.158-.492,1.249,1.249,0,0,0-.487-.353,6.068,6.068,0,0,0-.649-.25q-.32-.1-.849-.246t-.881-.274a5.9,5.9,0,0,1-.84-.357,3.581,3.581,0,0,1-.7-.492,1.982,1.982,0,0,1-.52-.747,2.694,2.694,0,0,1-.181-1.021A2.437,2.437,0,0,1,38.014,9a4.622,4.622,0,0,1,2.7-.724,4.739,4.739,0,0,1,2.5.612,2.771,2.771,0,0,1,1.28,1.911l-2.069.464a1.62,1.62,0,0,0-1.7-1.206,1.859,1.859,0,0,0-.937.213.686.686,0,0,0-.371.631.723.723,0,0,0,.056.288.569.569,0,0,0,.195.232,2.841,2.841,0,0,0,.269.176,2.03,2.03,0,0,0,.38.153q.25.079.417.121l.487.125.5.13q.51.139.9.278a5.243,5.243,0,0,1,.821.39,2.947,2.947,0,0,1,.719.561,2.5,2.5,0,0,1,.469.789,2.912,2.912,0,0,1,.186,1.062,2.869,2.869,0,0,1-.32,1.382,2.4,2.4,0,0,1-.877.932,4.267,4.267,0,0,1-1.239.5A6.425,6.425,0,0,1,40.885,18.186Z" transform="translate(4713 2350)" fill="#002b45"/>
    <path id="Trazado_25580" data-name="Trazado 25580" d="M9.509,7.043H4.537v3.043H8.943v2.421H4.537v3.034H9.509V18H1.735V4.594H9.509Zm8.146,1.234a3.718,3.718,0,0,1,2.635.858,3.182,3.182,0,0,1,.918,2.445V18H18.527V12.155a1.661,1.661,0,0,0-.478-1.317,1.8,1.8,0,0,0-1.229-.417,2.511,2.511,0,0,0-.8.121,2.05,2.05,0,0,0-.668.376,1.661,1.661,0,0,0-.478.719,3.325,3.325,0,0,0-.181,1.1V18H12.023V8.463H14.7V9.521A3.675,3.675,0,0,1,17.655,8.277Zm12.71.186h2.542v8.823a7.134,7.134,0,0,1-.357,2.375,3.917,3.917,0,0,1-1.034,1.628,4.312,4.312,0,0,1-1.586.914,6.688,6.688,0,0,1-2.078.3q-3.776,0-4.917-2.959l2.217-.946a3.236,3.236,0,0,0,1.03,1.382,2.625,2.625,0,0,0,1.568.445q2.477,0,2.477-2.941V16.367a3,3,0,0,1-1.2.942,3.994,3.994,0,0,1-1.693.357,4.271,4.271,0,0,1-3.062-1.285,4.406,4.406,0,0,1-.942-1.5,5.538,5.538,0,0,1,0-3.864,4.228,4.228,0,0,1,.946-1.48,4.354,4.354,0,0,1,1.392-.928,4.3,4.3,0,0,1,1.684-.334,3.878,3.878,0,0,1,1.767.394A2.819,2.819,0,0,1,30.3,9.725Zm-4.1,6.309a2.448,2.448,0,0,0,3.5-.009,2.666,2.666,0,0,0,0-3.627,2.47,2.47,0,0,0-3.516-.014,2.537,2.537,0,0,0-.7,1.832A2.511,2.511,0,0,0,26.269,14.771Zm17.233.64a8.922,8.922,0,0,0,.232,2.329V18h-2.5l-.213-1.039a3.1,3.1,0,0,1-1.336.918,4.924,4.924,0,0,1-1.726.306,4.538,4.538,0,0,1-.891-.083,3.028,3.028,0,0,1-.8-.283,2.435,2.435,0,0,1-.663-.5,2.177,2.177,0,0,1-.445-.756,3.012,3.012,0,0,1-.167-1.034A2.869,2.869,0,0,1,35.17,14.5a2.424,2.424,0,0,1,.464-.775,2.814,2.814,0,0,1,.751-.566,5.75,5.75,0,0,1,.946-.408,11.307,11.307,0,0,1,1.132-.3l1.568-.353a1.729,1.729,0,0,0,.71-.3.6.6,0,0,0,.209-.478.984.984,0,0,0-.469-.918,2.188,2.188,0,0,0-1.136-.278A1.635,1.635,0,0,0,37.48,11.58l-2.366-.427A3.2,3.2,0,0,1,36.5,8.978a5.494,5.494,0,0,1,3-.7q4.008,0,4.008,3.442Zm-4.7.965a2.149,2.149,0,0,0,1.651-.691,2.913,2.913,0,0,0,.64-2.046l-2.264.64a2.675,2.675,0,0,0-.951.39.8.8,0,0,0-.329.687.888.888,0,0,0,.353.756A1.459,1.459,0,0,0,38.8,16.376ZM52.454,8.463H55v8.823a7.134,7.134,0,0,1-.357,2.375A3.917,3.917,0,0,1,53.6,21.289a4.312,4.312,0,0,1-1.586.914,6.688,6.688,0,0,1-2.078.3q-3.776,0-4.917-2.959l2.217-.946a3.236,3.236,0,0,0,1.03,1.382,2.625,2.625,0,0,0,1.568.445q2.477,0,2.477-2.941V16.367a3,3,0,0,1-1.2.942,3.994,3.994,0,0,1-1.693.357,4.271,4.271,0,0,1-3.062-1.285,4.406,4.406,0,0,1-.942-1.5,5.538,5.538,0,0,1,0-3.864,4.228,4.228,0,0,1,.946-1.48,4.354,4.354,0,0,1,1.392-.928,4.3,4.3,0,0,1,1.684-.334,3.878,3.878,0,0,1,1.767.394,2.819,2.819,0,0,1,1.183,1.053Zm-4.1,6.309a2.448,2.448,0,0,0,3.5-.009,2.666,2.666,0,0,0,0-3.627,2.47,2.47,0,0,0-3.516-.014,2.537,2.537,0,0,0-.7,1.832A2.511,2.511,0,0,0,48.358,14.771Zm18.383-1.679-.028.64H59.644a2.469,2.469,0,0,0,.761,1.744,2.433,2.433,0,0,0,1.679.6,2.345,2.345,0,0,0,1.257-.329,2.024,2.024,0,0,0,.8-.96l2.449.362a4.164,4.164,0,0,1-1.67,2.236,4.965,4.965,0,0,1-2.82.8,5.163,5.163,0,0,1-3.716-1.313,4.79,4.79,0,0,1-1.378-3.641A4.818,4.818,0,0,1,58.392,9.59a5.01,5.01,0,0,1,3.627-1.331,4.788,4.788,0,0,1,3.423,1.215A4.768,4.768,0,0,1,66.741,13.092Zm-4.7-2.941a2.111,2.111,0,0,0-2.319,1.837H64.1a2.008,2.008,0,0,0-.659-1.364A2.088,2.088,0,0,0,62.038,10.151ZM80.073,8.277a3.644,3.644,0,0,1,2.458.775,2.772,2.772,0,0,1,.9,2.222V18H80.759V12.035a1.593,1.593,0,0,0-.427-1.206,1.5,1.5,0,0,0-1.076-.408,1.724,1.724,0,0,0-1.3.52,2.36,2.36,0,0,0-.5,1.679V18h-2.7V12.063a1.635,1.635,0,0,0-.427-1.229,1.521,1.521,0,0,0-1.1-.413,1.669,1.669,0,0,0-1.29.547,2.614,2.614,0,0,0-.5,1.791V18H68.773V8.463h2.663V9.585A3.243,3.243,0,0,1,74.2,8.277a4.078,4.078,0,0,1,1.8.366,2.443,2.443,0,0,1,1.127,1.062A3.372,3.372,0,0,1,80.073,8.277ZM95,13.092l-.028.64H87.9a2.469,2.469,0,0,0,.761,1.744,2.433,2.433,0,0,0,1.679.6A2.345,2.345,0,0,0,91.6,15.75a2.024,2.024,0,0,0,.8-.96l2.449.362a4.164,4.164,0,0,1-1.67,2.236,4.965,4.965,0,0,1-2.82.8,5.163,5.163,0,0,1-3.716-1.313,4.79,4.79,0,0,1-1.378-3.641A4.818,4.818,0,0,1,86.65,9.59a5.01,5.01,0,0,1,3.627-1.331A4.788,4.788,0,0,1,93.7,9.474,4.768,4.768,0,0,1,95,13.092Zm-4.7-2.941a2.111,2.111,0,0,0-2.319,1.837h4.379a2.008,2.008,0,0,0-.659-1.364A2.088,2.088,0,0,0,90.3,10.151Zm12.367-1.874a3.718,3.718,0,0,1,2.635.858,3.182,3.182,0,0,1,.918,2.445V18h-2.681V12.155a1.661,1.661,0,0,0-.478-1.317,1.8,1.8,0,0,0-1.229-.417,2.511,2.511,0,0,0-.8.121,2.05,2.05,0,0,0-.668.376,1.661,1.661,0,0,0-.478.719,3.325,3.325,0,0,0-.181,1.1V18H97.032V8.463H99.7V9.521A3.675,3.675,0,0,1,102.663,8.277ZM112.358,18a2.88,2.88,0,0,1-2.152-.775,3.013,3.013,0,0,1-.761-2.2V10.513h-1.874V8.463h.6a1.573,1.573,0,0,0,1.188-.4,2.054,2.054,0,0,0,.38-1.419V5.383h2.412v3.08h1.967v2.05h-1.967v4.221q0,1.234,1.1,1.234h.863V18Z" transform="translate(4713 2407)" fill="#002b45"/>
    <path id="Trazado_25581" data-name="Trazado 25581" d="M9.509,4.594V7.043H6.327V18H3.572V7.043H.371V4.594Zm3.173,5.381a3.1,3.1,0,0,1,1.252-1.146A3.822,3.822,0,0,1,15.8,8.352v2.384a3.613,3.613,0,0,0-2.282.575,2.511,2.511,0,0,0-.705,2.041V18h-2.69V8.463h2.561Zm13.6,3.117-.028.64H19.186a2.469,2.469,0,0,0,.761,1.744,2.433,2.433,0,0,0,1.679.6,2.345,2.345,0,0,0,1.257-.329,2.024,2.024,0,0,0,.8-.96l2.449.362a4.164,4.164,0,0,1-1.67,2.236,4.965,4.965,0,0,1-2.82.8,5.163,5.163,0,0,1-3.716-1.313,4.79,4.79,0,0,1-1.378-3.641A4.818,4.818,0,0,1,17.933,9.59a5.01,5.01,0,0,1,3.627-1.331,4.788,4.788,0,0,1,3.423,1.215A4.768,4.768,0,0,1,26.283,13.092Zm-4.7-2.941a2.111,2.111,0,0,0-2.319,1.837h4.379a2.008,2.008,0,0,0-.659-1.364A2.088,2.088,0,0,0,21.579,10.151ZM33.946,8.277a3.718,3.718,0,0,1,2.635.858A3.182,3.182,0,0,1,37.5,11.58V18H34.818V12.155a1.661,1.661,0,0,0-.478-1.317,1.8,1.8,0,0,0-1.229-.417,2.511,2.511,0,0,0-.8.121,2.05,2.05,0,0,0-.668.376,1.661,1.661,0,0,0-.478.719,3.325,3.325,0,0,0-.181,1.1V18H28.314V8.463h2.672V9.521A3.675,3.675,0,0,1,33.946,8.277Zm12.9-4.527h2.672V18H46.99l-.065-1.243a2.724,2.724,0,0,1-1.211,1.081,4.075,4.075,0,0,1-1.786.385,4.638,4.638,0,0,1-1.781-.343A4.29,4.29,0,0,1,39.7,15.337a5.8,5.8,0,0,1-.362-2.087,5.422,5.422,0,0,1,.631-2.658,4.323,4.323,0,0,1,1.665-1.73,4.586,4.586,0,0,1,2.3-.584,4.177,4.177,0,0,1,1.73.348,2.7,2.7,0,0,1,1.192.988Zm-2.31,12.255a2.379,2.379,0,0,0,1.8-.761,2.785,2.785,0,0,0,.719-1.995,2.791,2.791,0,0,0-.724-2,2.376,2.376,0,0,0-1.8-.765,2.4,2.4,0,0,0-1.814.751,2.791,2.791,0,0,0-.719,2.013,2.778,2.778,0,0,0,.719,2A2.4,2.4,0,0,0,44.541,16.005Zm9.11-8.971a1.5,1.5,0,0,1-1.095-.45,1.477,1.477,0,0,1-.455-1.09,1.459,1.459,0,0,1,.459-1.081,1.5,1.5,0,0,1,1.09-.45,1.544,1.544,0,0,1,1.531,1.531,1.544,1.544,0,0,1-1.531,1.54ZM52.287,18V8.463h2.69V18ZM63.374,8.277a3.718,3.718,0,0,1,2.635.858,3.182,3.182,0,0,1,.918,2.445V18H64.246V12.155a1.661,1.661,0,0,0-.478-1.317,1.8,1.8,0,0,0-1.229-.417,2.511,2.511,0,0,0-.8.121,2.05,2.05,0,0,0-.668.376,1.661,1.661,0,0,0-.478.719,3.325,3.325,0,0,0-.181,1.1V18H57.742V8.463h2.672V9.521A3.675,3.675,0,0,1,63.374,8.277Zm12.71.186h2.542v8.823a7.134,7.134,0,0,1-.357,2.375,3.917,3.917,0,0,1-1.034,1.628,4.312,4.312,0,0,1-1.586.914,6.688,6.688,0,0,1-2.078.3q-3.776,0-4.917-2.959l2.217-.946a3.235,3.235,0,0,0,1.03,1.382,2.625,2.625,0,0,0,1.568.445q2.477,0,2.477-2.941V16.367a3,3,0,0,1-1.2.942,3.994,3.994,0,0,1-1.693.357,4.271,4.271,0,0,1-3.062-1.285,4.406,4.406,0,0,1-.942-1.5,5.538,5.538,0,0,1,0-3.864,4.228,4.228,0,0,1,.946-1.48,4.354,4.354,0,0,1,1.392-.928,4.3,4.3,0,0,1,1.684-.334,3.878,3.878,0,0,1,1.767.394,2.819,2.819,0,0,1,1.183,1.053Zm-4.1,6.309a2.448,2.448,0,0,0,3.5-.009,2.666,2.666,0,0,0,0-3.627,2.47,2.47,0,0,0-3.516-.014,2.537,2.537,0,0,0-.7,1.832A2.511,2.511,0,0,0,71.988,14.771ZM89.888,18a2.88,2.88,0,0,1-2.152-.775,3.013,3.013,0,0,1-.761-2.2V10.513H85.1V8.463h.6a1.573,1.573,0,0,0,1.188-.4,2.054,2.054,0,0,0,.38-1.419V5.383h2.412v3.08h1.967v2.05H89.684v4.221q0,1.234,1.1,1.234h.863V18Zm8.238.186a6,6,0,0,1-2.7-.584,4.368,4.368,0,0,1-1.851-1.716,5.115,5.115,0,0,1-.673-2.663A4.665,4.665,0,0,1,94.351,9.6a6.05,6.05,0,0,1,7.561,0,4.665,4.665,0,0,1,1.447,3.618,4.691,4.691,0,0,1-1.447,3.632A5.371,5.371,0,0,1,98.126,18.186ZM98.1,16.061a2.448,2.448,0,0,0,1.888-.779,2.917,2.917,0,0,0,.719-2.06,2.917,2.917,0,0,0-.719-2.06,2.448,2.448,0,0,0-1.888-.779,2.358,2.358,0,0,0-1.832.784,2.944,2.944,0,0,0-.71,2.055,2.944,2.944,0,0,0,.71,2.055A2.358,2.358,0,0,0,98.1,16.061Zm12.84-7.784a4.638,4.638,0,0,1,1.781.343,4.458,4.458,0,0,1,1.461.965,4.365,4.365,0,0,1,.988,1.573,5.838,5.838,0,0,1,.362,2.092,5.838,5.838,0,0,1-.362,2.092,4.365,4.365,0,0,1-.988,1.573,4.458,4.458,0,0,1-1.461.965,4.638,4.638,0,0,1-1.781.343,4.139,4.139,0,0,1-1.726-.353,2.7,2.7,0,0,1-1.2-1v5.771h-2.672V8.463h2.533l.074,1.28a2.612,2.612,0,0,1,1.192-1.081A4.1,4.1,0,0,1,110.938,8.277Zm-.6,7.728a2.4,2.4,0,0,0,1.8-.747,2.774,2.774,0,0,0,.719-2.009,2.774,2.774,0,0,0-.719-2.009,2.553,2.553,0,0,0-3.623.014,2.775,2.775,0,0,0-.724,1.995,2.775,2.775,0,0,0,.724,1.995A2.4,2.4,0,0,0,110.335,16.005Zm8.572-8.971a1.5,1.5,0,0,1-1.095-.45,1.477,1.477,0,0,1-.455-1.09,1.459,1.459,0,0,1,.459-1.081,1.5,1.5,0,0,1,1.09-.45,1.544,1.544,0,0,1,1.531,1.531,1.544,1.544,0,0,1-1.531,1.54ZM117.544,18V8.463h2.69V18Zm9.769.176A5.1,5.1,0,0,1,123.63,16.8a4.742,4.742,0,0,1-1.429-3.581,4.732,4.732,0,0,1,1.424-3.581A5.662,5.662,0,0,1,130.4,9.2a4.1,4.1,0,0,1,1.6,2.588l-2.468.269a2.114,2.114,0,0,0-.8-1.252,2.426,2.426,0,0,0-1.447-.417,2.188,2.188,0,0,0-1.744.779,3.055,3.055,0,0,0-.668,2.06,3.059,3.059,0,0,0,.668,2.055,2.182,2.182,0,0,0,1.744.784,2.4,2.4,0,0,0,1.443-.417,2.163,2.163,0,0,0,.8-1.252L132,14.66a4.112,4.112,0,0,1-1.61,2.588A5.061,5.061,0,0,1,127.313,18.176Z" transform="translate(4713 2464)" fill="#002b45"/>
    <path id="Trazado_25582" data-name="Trazado 25582" d="M8,0A8,8,0,1,1,0,8,8,8,0,0,1,8,0Z" transform="translate(4681 2241)" fill="#ff8f00"/>
    <path id="Trazado_25583" data-name="Trazado 25583" d="M8,0A8,8,0,1,1,0,8,8,8,0,0,1,8,0Z" transform="translate(4681 2296)" fill="#ff8f00"/>
    <path id="Trazado_25584" data-name="Trazado 25584" d="M8,0A8,8,0,1,1,0,8,8,8,0,0,1,8,0Z" transform="translate(4681 2352)" fill="#ff8f00"/>
    <path id="Trazado_25585" data-name="Trazado 25585" d="M8,0A8,8,0,1,1,0,8,8,8,0,0,1,8,0Z" transform="translate(4681 2409)" fill="#ff8f00"/>
    <path id="Trazado_25586" data-name="Trazado 25586" d="M8,0A8,8,0,1,1,0,8,8,8,0,0,1,8,0Z" transform="translate(4681 2466)" fill="#ff8f00"/>
  </g>
</svg>
