<svg id="_Layer_" data-name="&lt;Layer&gt;" xmlns="http://www.w3.org/2000/svg" width="3375" height="1500" viewBox="0 0 3375 1500">
  <defs>
    <style>
      .cls-1 {
        fill: #4a75cb;
      }

      .cls-2, .cls-3 {
        fill: #395b8e;
      }

      .cls-2, .cls-4 {
        opacity: 0.4;
      }

      .cls-5 {
        fill: #82b378;
      }

      .cls-6 {
        fill: #a8d29f;
      }

      .cls-7 {
        fill: #25436d;
      }

      .cls-8 {
        fill: #2e3552;
      }

      .cls-9 {
        fill: #f1a34f;
      }

      .cls-10 {
        fill: #d16e24;
      }

      .cls-11 {
        fill: #e78b37;
      }

      .cls-12 {
        fill: #723b17;
      }

      .cls-13 {
        fill: #e29142;
      }

      .cls-14 {
        fill: #df812f;
      }

      .cls-15 {
        fill: #b7591a;
      }

      .cls-16 {
        fill: #233862;
      }

      .cls-17 {
        fill: #2a4e96;
      }

      .cls-18 {
        fill: #ed975d;
      }

      .cls-19 {
        fill: #ffb27d;
      }

      .cls-20 {
        fill: #c65447;
      }

      .cls-21 {
        fill: #aa413e;
      }

      .cls-22 {
        fill: #c7dcef;
      }

      .cls-23 {
        fill: #e9f3fe;
      }

      .cls-24 {
        fill: #699dee;
      }

      .cls-25 {
        fill: #3365b5;
      }

      .cls-26 {
        fill: #a9453d;
      }

      .cls-27 {
        fill: #7f2722;
      }

      .cls-28 {
        fill: #601d1b;
      }

      .cls-29 {
        fill: #b5453c;
      }

      .cls-30 {
        fill: #e2915a;
      }

      .cls-31 {
        fill: #ffc697;
      }

      .cls-32 {
        fill: #466aa5;
      }

      .cls-33 {
        fill: #a54e13;
      }

      .cls-34 {
        fill: #c66524;
      }

      .cls-35 {
        fill: #406dc0;
      }

      .cls-36 {
        fill: #426fc2;
      }
    </style>
  </defs>
  <g>
    <path class="cls-1" d="M2886.44,1320.41l-1802.73-.56-696.53-.21s-38-93.87-50-217.59c-12.72-130.81,3.56-295,124.35-416.88C697.29,447.29,695.45,345.9,814.15,263.47c8.43-5.86,17.49-11.62,27.27-17.33,29.6-17.28,66-34.08,112.62-51.54,113.39-42.44,229.23-18,364,17.46q14.54,3.81,29.36,7.78c101.68,27.13,214.36,58,344.67,70.1l.3,0A1191.34,1191.34,0,0,0,1898,291.41c339.62-27.12,897.38-29.25,778.38,450.38q-.95,3.83-1.81,7.58C2593,1103.84,3134,924.71,2886.44,1320.41Z"/>
    <path class="cls-2" d="M2676.42,741.79q-.95,3.83-1.81,7.58c-23.42-.74-50.22-5.19-80.88-13.9,0,0-301.64-386.37-901.36-445.5A1191.34,1191.34,0,0,0,1898,291.41C2237.66,264.29,2795.42,262.16,2676.42,741.79Z"/>
    <path class="cls-2" d="M877.25,742.67c.22-2.71,1.62-25.91-12.06-35a21.7,21.7,0,0,0-7-3.25,29.1,29.1,0,0,0-3.52-1.6c-5.31-6.48-10.4-10.77-14.55-11.7-7.59-1.7-15.45.27-20.78,2.24a9.59,9.59,0,0,1,3.54-3.24c-3.51.54-10,6.15-10,6.15-38.69-2.76-41.23,35.52-37.55,61.93H882.79C881.21,753,879.34,747.79,877.25,742.67Z"/>
    <path class="cls-3" d="M2114.83,900.07c-11.25-33.72-81.34-23.19-81.34-23.19s-47.59,59-61.44,60.41,28.55-56.89,28.55-56.89c-19.36-1.52-60.4,12-81.71,19.59l41.31,103.35c15,1,25,9.54,40.93,15.87-6.23-.45-13.11-.56-19.64-.49a150.24,150.24,0,0,0-16.16-2.54l40,100c20-.46,43.7-21.65,43.7-21.65-16.78-.69-40.74-15.48-39.87-20s40.66,7.8,47.47,8.39,22.28-6.27,24.67-28.52-42.52-28.46-42.52-28.46-10.36,6.26-22.06,12.55c-2.31-2.43-6.06-5.12-10.45-8.13,3.86-2.77,7.34-5.15,9.5-6.62a103.79,103.79,0,0,0,14.3,2.09c36.34,2.81,64-52.68,64-52.68-25.09,6.33-70.09-4.91-71.82-11.94s64.9-6.33,75.28-8.43S2126.08,933.79,2114.83,900.07Z"/>
    <g class="cls-4">
      <path class="cls-3" d="M1162.75,758.24H978.52A271.91,271.91,0,0,1,957,706.17c-2.59-8.51-3.65-13.72-3.71-14,0,0,0,0,0,0,5.89-27.7,73.37-70.24,89.73-77.88.69-.33,1.53.11,2.41,1,.22-.48.5-1.05.81-1.68,2.18-4.31,6.37-11.16,11.63-12.79,7.8-2.44,23.2-4,24.16-.74s-19.29,15-20.17,18.76c-1.17,5-7.51,7.28-9.81,8l.5,1.15L1002,694.28c38.77,36.77,51.15,61.2,60.44,59.21,8.93-1.92,39.09,4.23,41.46,4.72.7-.17,1.41-.33,2.14-.47a99.4,99.4,0,0,0,2.87-36.89c-.75.59-12,5.4-39.21-35.67-4.29-6.47-8.46-21.09-2-35.22s33.77-28,57-35.34c8.7-2.77,15.16-2.72,20.22-.9,8.45,3,13,11,17.52,18.93,7.57,13.39,25.93,22.93,25.93,22.93-6.41,4.68-13.67,6.27-20.8,6.47,6.43,19.69,13.28,58.66,2.4,63.45a98.41,98.41,0,0,1-9.88,2.86c.07,1.21.59,8.9,2,21.74.15,1.41.3,2.89.48,4.41A37.35,37.35,0,0,1,1162.75,758.24Z"/>
      <path class="cls-3" d="M1275.44,758.24H1170.88c9.64-4,24.56-9.81,30.75-9.85,9.51-.07,16.29-26.6,46.13-70.92h0L1184,623.63s.08-.47.23-1.23c-2.38-.15-9.07-1-11.3-5.65-1.68-3.5-24-10.53-23.76-13.93s15.6-5.2,23.74-4.52c6.28.52,12.68,8,15.3,11.44.66-1,1.37-1.66,2.12-1.49a231.55,231.55,0,0,1,25.5,8.08c29,10.71,70.51,29.87,79,48.46C1294.81,664.79,1295.83,709.2,1275.44,758.24Z"/>
      <path class="cls-3" d="M1158.91,620.65a.53.53,0,0,0-.12-.15Z"/>
    </g>
    <path class="cls-3" d="M1083.71,1319.85l-696.53-.21s-38-93.87-50-217.59C451.49,942.84,678.06,762.74,678.06,762.74S988,1164,1083.71,1319.85Z"/>
    <g>
      <g>
        <path class="cls-5" d="M2013.94,1134.4s-30.23-35.27-1.86-57.67c0,0,20.72-12.55,37.61-11.53,0,0-23.94,40.14-16.19,44.14s23.45-46.66,23.45-46.66,47.15-4.57,62.31,2.72c0,0-40.3,33-31.81,34.95s52-30.41,52-30.41,43.89,7.47,41.55,34.24-17.46,35-24.11,34.32-45.52-15.55-46.37-10.1,22.56,23.24,38.94,24.07c0,0-30.94,34.12-51.5,24.27s-22.32-25.45-35.13-31.31-23.76-5.84-18.47.13,28.49,11.78,35.82,24.74,13.9,21.71-7.37,18.51-55.85-18.77-57.37-36.59Z"/>
        <g>
          <path class="cls-5" d="M2159.45,1104.9s-119.19-4.59-145.51,29.5c0,0-5.82,17.43-23.73,33.31l-2.8,7.61s20.66-21.78,28-23.1C2015.46,1152.22,2003.9,1110,2159.45,1104.9Z"/>
          <path class="cls-5" d="M1990.21,1167.71s-25.59,18.92-27.36,52.72l4.64.42s8.17-35,22.94-48.63S1990.21,1167.71,1990.21,1167.71Z"/>
        </g>
      </g>
      <g>
        <path class="cls-6" d="M1984.75,1052.9s-63.39-35.49-33.81-83.67c0,0,23.67-29.58,49-37.19,0,0-13.52,71.84,0,73.53s9.3-81.13,9.3-81.13,66.77-32.12,93-29.58c0,0-41.41,70.15-27.89,68.45s60-72.68,60-72.68,68.46-12.68,79.44,27.89-6.76,60.85-16.9,63.39-75.22,1.69-73.53,10.14,45.64,22,70.15,14.37c0,0-27.05,66.77-62.54,63.39s-46.49-25.36-68.46-27-38,4.23-27.05,10.14,48.18,1.94,65.93,17,32.11,24.39-.85,31.15-92.12,2.54-104-22.82Z"/>
        <g>
          <path class="cls-5" d="M2182.52,931.2S2005,988.67,1984.75,1052.9c0,0,.85,28.74-16.9,61.7v12.68s18.59-43.1,28.73-49C1996.58,1078.26,1956.86,1022.48,2182.52,931.2Z"/>
          <path class="cls-5" d="M1967.85,1114.6s-27.37,41.57-11.77,92.16l7-1.89s-6.83-55.73,7.49-83.75S1967.85,1114.6,1967.85,1114.6Z"/>
        </g>
      </g>
      <path class="cls-7" d="M2106.72,1196.12h2.89v-3.8H1854.36v3.8h4.15a124.2,124.2,0,0,0,77.63,111.36h-64.09a15.32,15.32,0,0,0-15.32,15.32H2108.5a15.32,15.32,0,0,0-15.32-15.32h-64.09A124.2,124.2,0,0,0,2106.72,1196.12Z"/>
    </g>
    <rect class="cls-8" x="199.88" y="1315.55" width="2934.1" height="12.31" rx="4.18"/>
    <path class="cls-9" d="M1915.29,1317.14H1772.15l.12-3.56,11.08-339.11s136.57-37.32,170.88-1.82c30,31.11,111.54,154.24,115.83,227.12C2074.23,1270.58,1995.88,1317.14,1915.29,1317.14Z"/>
    <path class="cls-10" d="M1122,1010.76s184.74-83.92,219.73-29.1c18.58,29.1,69.71,145.23,73.48,218.11,3.67,70.81-65.26,117.37-136.17,117.37H1153.12Z"/>
    <path class="cls-11" d="M757.76,752.59s830.13-7.3,921.82-7.1c47.16.1,28.83,40.58,41.83,84,28.7,95.79,66.38,219,60.39,240.32-8.54,30.33-838.81,38.86-861.58,31.86S757.76,752.59,757.76,752.59Z"/>
    <path class="cls-12" d="M1445.07,745.45s-109.69,79.47-92,257.63l264.74,8.06Z"/>
    <path class="cls-12" d="M1684.93,745.45S1569,786.11,1593,1003.08l264.73,8.06Z"/>
    <path class="cls-12" d="M937.69,814s3.11-45.1-7.78-41.22-80.1,66.88-69.21,215.41l31.88,27.21L1136,975Z"/>
    <path class="cls-12" d="M1090.26,750.41s-66.27,56.9-66.47,244.64l8,82.37h415.93L1247.93,748.81Z"/>
    <path class="cls-13" d="M1915.29,1317.14H1772.15l.12-3.56c4.65-3.41,13.44-7.67,27.65-13.17,79.55-30.76,189.77-100.23,189.77-100.23s40.39,21.15,80.37-.41C2074.23,1270.58,1995.88,1317.14,1915.29,1317.14Z"/>
    <path class="cls-14" d="M1989.69,1200.18c-11.88,109.18-130.71,118.4-210.54,117.3l-789.08.14,13.39-74.72,40.76-227.47s821.05-28.09,855.19,3.2c15.85,14.52,87.83,87.19,91,153.6A179.26,179.26,0,0,1,1989.69,1200.18Z"/>
    <path class="cls-15" d="M1900.76,1028.16s-2.89,20.41-77.38,18.91-156.88-4.67-167.86-4.89,129.59-87,178.43-70.47S1900.76,1028.16,1900.76,1028.16Z"/>
    <g>
      <path class="cls-16" d="M1749.56,657.12c-13.14-6.68-35.33-23.81-53.33-19-3.79-9-12.64-22.32-31.42-20.19-28,3.16-26.69,28-26.69,28s2.87-12.59,8-14.13c0,0-8.45,15.94-4.53,25.29a19,19,0,0,0,23.88,10,66.33,66.33,0,0,0-5.68,17.23c-5.44,28.15,16.85,52.07,26.39,46.62,6.12-3.49,60.17-20.65,60.17-20.65C1756.88,682.77,1767.61,671.64,1749.56,657.12Z"/>
      <path class="cls-16" d="M1800.76,978.07s-.5,7.46-6.23,11.27-9.25,11.54,1.6,20.2,22.12,23.28,29.11,28.57,17.27,8.18,19.83,2c0,0,.91-5.07-7.87-13.92s-8-16.05-11.43-26.35,4.76-33.47,4.76-33.47L1815.18,953Z"/>
      <path class="cls-17" d="M1838.38,1041.15c-2.84,3.31-9.13,5.52-15,5.92-6.2.43-17.08-1.25-27.83-2.07a113.18,113.18,0,0,0-12.89-.34c-13.88.6-16.28-7.54-14.47-14.17s-2.72-12.58-2.72-12.58l-.58-3-5-25.4h20.36s5.82,14.71,13,23.37a21.32,21.32,0,0,0,5.44,5c5.82,3.42,9.62,7,14.67,9.47a29.64,29.64,0,0,0,11.25,2.88c12.44.91,15.08,5.32,15.08,5.32A5.49,5.49,0,0,1,1838.38,1041.15Z"/>
      <path class="cls-17" d="M1763.13,748.19s-42.26-1.05-70.07,8.49c0,0-28.3,8.5-42.54,16a14.5,14.5,0,0,0-7.64,11.88c-1.5,22.49-2,92.39,47.18,114.68,0,0,81.24-31.15,94.18-35.45C1818.73,852.35,1763.13,748.19,1763.13,748.19Z"/>
      <path class="cls-18" d="M1733.17,747s0,.05,0,.13a70,70,0,0,1-9.83,25.17,33.45,33.45,0,0,1-6.88-2.06c-11.17-4.56-20.74-14-20.76-15a139.32,139.32,0,0,0,.82-24.18l2.06.34,31.78,5.16A83.41,83.41,0,0,0,1733.17,747Z"/>
      <path class="cls-19" d="M1733.15,747.16a70,70,0,0,1-9.83,25.17,33.45,33.45,0,0,1-6.88-2.06,34.77,34.77,0,0,1-.81-5.94C1715.24,754,1729.9,748.3,1733.15,747.16Z"/>
      <path class="cls-18" d="M1738.71,747s-1.9.06-4.93-.06c-11.84-.54-41-4.15-41.41-26.85-.55-28.53-6.84-47.53,22.37-49.76,9.16-.69,16-.11,21.22,1.3,11.34,3.1,14.66,10.21,16.38,16.72C1754.84,697.84,1750.6,745.86,1738.71,747Z"/>
      <path class="cls-19" d="M1738.71,747s-1.9.06-4.93-.06c-10.75-1.12-22.2-8.1-22.09-29.06.16-28.63,4.57-40.91,24.27-46.25,11.34,3.1,14.66,10.21,16.38,16.72C1754.84,697.84,1750.6,745.86,1738.71,747Z"/>
      <path class="cls-18" d="M1680.38,748.91s-24.61,27-16.17,48.75S1694.44,761.39,1680.38,748.91Z"/>
      <path class="cls-19" d="M1792.2,731.22s13.75,47.14-4,53.17S1785.39,735.66,1792.2,731.22Z"/>
      <path class="cls-16" d="M1750.92,678.91s-8.9,23.75-22.17,22.54c-14-1.27-23.75,18.64-25.18,15.84-4.07-8-9.5-7.39-10.71-2.87s4.16,10.84,3.86,14.76-.22,9.67-.22,9.67-28.37-4-22-28.39,18.39-45.84,18.39-45.84,24-4.16,31.67-3.28C1745.34,663.76,1750.92,678.91,1750.92,678.91Z"/>
      <path class="cls-20" d="M1957.68,1014c-2.71,13.54-92.17,21.71-127,6.08-11.3-5.06-21.24-6-30.65-4.79-19.61,2.57-37,14.7-59.87,19.22-33.88,6.7-177.66,22.1-187.31-4.08s-5.24-54.77,25.2-71.81c17.88-10,30.48-47.63,37.83-77,3.23-12.89,5.45-24.17,6.66-30.82.73-4,1.09-6.31,1.09-6.31,1.1-3.62,13.19-45.28,39.13-63.38,9.73-6.78,17-16.33,23.12-25.49,10.17-15.24,17-29.4,26.34-27.89,8.64,1.41,15.06,5.24,21,6.61a14.51,14.51,0,0,0,13-2.75c6.11-4.6,11.08-11.07,16.73-13.58,4.38-2,9.18-1.54,15.23,3.94,11.42,10.33,13.67,56.34,20.82,73.69a23.16,23.16,0,0,0,1.54,3.15c1.16,1.93,2.45,3.14,3.91,3.44a7.36,7.36,0,0,0,1.8.12c3.87-.06,9.8-2.1,16.92-4.83a1.48,1.48,0,0,0,.27-.1c14.84-5.71,34.74-14.36,51.67-14.62a45,45,0,0,1,6.09.3,33.2,33.2,0,0,1,7.1,1.63C1915.46,794.45,1960.4,1000.52,1957.68,1014Z"/>
      <path class="cls-19" d="M1792.2,731.22a18.1,18.1,0,0,0-15.17-7.91c-10.16.22-12.35,5.07-13.18,6.49s6.15,10.92,13.18,9.79,13.36,3.58,15.17.09S1792.2,731.22,1792.2,731.22Z"/>
      <path class="cls-21" d="M1879.43,783.18s-17,5.15-24.94,26.41c-7,19-43.79,25.37-53.93-10.73,1.16,1.93,2.45,3.14,3.91,3.44a7.36,7.36,0,0,0,1.8.12c3.72.14,9.69-2,16.92-4.83a1.48,1.48,0,0,0,.27-.1c14.85-5.9,34.93-14.93,51.67-14.62a42.47,42.47,0,0,1,4.28.3Z"/>
      <path class="cls-21" d="M1615.85,881.69c5.17-20.61,7.75-37.13,7.75-37.13,1.1-3.62,13.19-45.28,39.13-63.38,9.73-6.78,17-16.33,23.12-25.49,13.71-5.21,22.89-8.2,22.89-8.2S1738.89,923.87,1615.85,881.69Z"/>
      <path class="cls-19" d="M1695.55,757.29c-3.28-.53-6.42.21-9,.81-3,.66-5.2,1.13-6.16-.72-1.81-3.49,0-8.46,0-8.46a18.18,18.18,0,0,1,13.81-7.9c.44,0,.9,0,1.36,0,10.16.23,12.35,5.07,13.19,6.49S1702.58,758.42,1695.55,757.29Z"/>
      <path class="cls-21" d="M1763,718.08s-1.79,29-29.73,16.33a14.51,14.51,0,0,0,13-2.75C1752.35,727.06,1757.32,720.59,1763,718.08Z"/>
      <path class="cls-16" d="M1838.38,1041.15c-2.84,3.31-9.13,5.52-15,5.92-6.2.43-17.08-1.25-27.83-2.07a113.18,113.18,0,0,0-12.89-.34c-13.88.6-16.28-7.54-14.47-14.17s-2.72-12.58-2.72-12.58l-.58-3c12.95-8.92,22.72-5.78,28.33-2a22.88,22.88,0,0,1,5.44,5s-.32,12.28,9.63,15.76S1831.92,1044.35,1838.38,1041.15Z"/>
      <path class="cls-21" d="M1800,1015.33c-19.61,2.57-37,14.7-59.87,19.22-33.88,6.7-177.66,22.1-187.31-4.08s-5.24-54.77,25.2-71.81c17.88-10,30.48-47.63,37.83-77,3.23-12.89,5.45-24.17,6.66-30.82,11.79-4.52,22.36-4.62,36.44-2.58,29.62,4.27,36.74,11.44,36.74,11.44s-17.41,42.19-5.63,39.53,78.49-29.25,97.91,7.26C1805.47,939.43,1822.55,994.47,1800,1015.33Z"/>
      <path class="cls-18" d="M1686.54,758.1c-3,.66-5.2,1.13-6.16-.72-1.81-3.49,0-8.46,0-8.46a18.18,18.18,0,0,1,13.81-7.9S1685.21,750.42,1686.54,758.1Z"/>
    </g>
    <path class="cls-10" d="M1989.69,1200.18c-11.88,109.18-130.71,118.4-210.54,117.3l-789.08.14,13.39-74.72c111.32.62,731.17,3.89,866.45,1.57C1954.43,1243,1981.82,1219.89,1989.69,1200.18Z"/>
    <g>
      <path class="cls-22" d="M1687.29,994.08s2.26,7.13-1.67,12.77-4.4,14.12,8.86,18.21,29.1,13.59,37.54,16,19.06,1.3,19.19-5.34c0,0-1-5-12.41-10.09s-13.29-12-20.25-20.36-7.8-32.89-7.8-32.89l-19.17-6.85Z"/>
      <path class="cls-23" d="M1737.57,1043.61h0a28.41,28.41,0,0,1-11.73,3.32c-8.75.61-26.85-3-40.72-2.41s-16.28-7.54-14.47-14.17-2.72-12.59-2.72-12.59l-1-5.13-4.57-23.22h20.36s6.14,15.5,13.54,24a28.43,28.43,0,0,0,2,2.16,16.49,16.49,0,0,0,2.82,2.15c9.36,5.51,13.48,11.45,25.92,12.36s15.08,5.33,15.08,5.33C1743.21,1038.75,1741.1,1041.57,1737.57,1043.61Z"/>
      <path class="cls-18" d="M1650.89,740.57c.51,9.23-33,59.44-50.58,75.7-3.2,3-5.87,4.77-7.72,5-12.07,1.75-23.59-35.2-23.59-35.2s20.85-28.51,41.9-48.11c8.13-7.6,16.3-13.86,23.3-16.62a48,48,0,0,1,7.08,4.66C1645.68,729.51,1650.57,734.65,1650.89,740.57Z"/>
      <path class="cls-16" d="M1552.83,687c-7.16-7.65-35.31-35.45-54.48-21.78l-.47,0c-19.14-.33-41.47,4.77-49.22,42.21s3.69,55.48-19.37,67.47-20.87,27.3-18,42.46c0,0,12.15-21.62,23.4-17.85,0,0-17.75,17.19-18,30.94s12.54,28.08,19.52,33.66c0,0,7.77-7.16,19.69-2.86,24,8.69,62-26,60.95-42.62-.54-8.09,40-85.7,40-85.7C1567.41,705.31,1560.16,693.11,1552.83,687Z"/>
      <path class="cls-17" d="M1500.8,793.46s-42.5,12.76-49.55,20.86c0,0,30.51,96.7,57.65,103,16.29,3.78,70.15-12.42,83.08-16.71,34.5-11.46-21.11-115.62-21.11-115.62S1528.62,783.92,1500.8,793.46Z"/>
      <path class="cls-18" d="M1650.89,740.57s-11.38-.71-25.49-1.62c-4.63-.31-9.57-.64-14.5-1-17.75-1.2-35.32-2.43-38.27-2.88L1569,720.68s59.26-13.82,68.61-9.54c6.38,2.93,10.2,6.58,12.39,10.32C1655.51,730.78,1650.89,740.57,1650.89,740.57Z"/>
      <path class="cls-19" d="M1532.63,805.87a84.74,84.74,0,0,1-16.74-4c-9.88-3.47-15.72-7.7-15.09-8.42,3.06-3.49,7.25-13,6.24-39.86l2.06.33,31.78,5.17,3,.48s-.17,4.27-.2,10c0,3.41,0,7.34.11,11.18.29,8.6,2,16.54,3,18.46C1548,801.5,1557.66,809.21,1532.63,805.87Z"/>
      <path class="cls-18" d="M1543.71,769.57s-25.84,9.39-27.82,32.31c-9.88-3.47-15.72-7.7-15.09-8.42,3.06-3.49,7.25-13,6.24-39.86l2.06.33,31.78,5.17A83.59,83.59,0,0,0,1543.71,769.57Z"/>
      <path class="cls-18" d="M1549.25,769.55s-1.9.07-4.93-.06c-11.84-.53-41-4.14-41.41-26.85-.55-28.53-6.84-47.53,22.37-49.75,9.16-.7,16-.12,21.21,1.29,11.35,3.11,14.67,10.21,16.39,16.72C1565.38,720.38,1561.14,768.41,1549.25,769.55Z"/>
      <path class="cls-19" d="M1650.89,740.57c.51,9.23-33,59.44-50.58,75.7-7.68-8-10.63-20.76-10-31.33,0,0,15.24-26.53,35.14-46A99.65,99.65,0,0,1,1641.28,726a55,55,0,0,1,8.73-4.58C1655.51,730.78,1650.89,740.57,1650.89,740.57Z"/>
      <path class="cls-19" d="M1549.25,769.55s-1.9.07-4.93-.06c-10.75-1.12-22.2-8.1-22.09-29.06.16-28.62,4.57-40.9,24.26-46.25,11.35,3.11,14.67,10.21,16.39,16.72C1565.38,720.38,1561.14,768.41,1549.25,769.55Z"/>
      <path class="cls-17" d="M1553.7,785.23s21.62-15,28.22-15.65c0,0,26.5,21.84,19.71,50.94s-43-9.12-43.2-10S1553.7,785.23,1553.7,785.23Z"/>
      <g>
        <path class="cls-24" d="M1506.82,822.29s80.94-1.61,122.22,3.56c0,0,20.63,33.16,1.56,100.47,0,0-66.4,9.3-97.64,7,0,0-12.7-31.33-16.06-65S1506.82,822.29,1506.82,822.29Z"/>
        <path class="cls-1" d="M1506.82,822.29s-6.19,28.07-2.69,58.49c3.25,28.22,28.83,52.51,28.83,52.51S1525.56,845.33,1506.82,822.29Z"/>
      </g>
      <path class="cls-18" d="M1491.76,939.84a179,179,0,0,0,79.11-33l-7.3-18.12s-39.23,4.55-67.55,17.77v0c-.6-31-5.25-73.25-8.56-78.6l-.16-.24c-5.68-8.37-36-13.35-36-13.35s-17.32,59.1,16.5,127.09h0a108.48,108.48,0,0,0,16.8-.65c2.49-.22,5-.51,7.14-.91Z"/>
      <path class="cls-17" d="M1511.21,979.13s43.25,60,90.74,52.49,100.42-193.88,100.42-193.88-21.71-31-61.06-9.84S1511.21,979.13,1511.21,979.13Z"/>
      <path class="cls-17" d="M1645.73,832.67s32.36,168.11,46,172.49c14.32,4.6,28.1-4.82,28.1-4.82s14.15-169.61-34.73-175S1645.73,832.67,1645.73,832.67Z"/>
      <path class="cls-19" d="M1496,906.5v0c-12.88-10.78-20.61-63.91-20.61-63.91s1.84-13,11.9-15l.16.24C1490.77,833.25,1495.42,875.47,1496,906.5Z"/>
      <path class="cls-1" d="M1678.62,837.75s-9.08,32-23.1,70c-4,10.85-8.4,22.18-13.12,33.41-4.37,10.45-9,20.81-13.87,30.58-15.69,31.69-33.36,57.22-50.33,59.91a58.33,58.33,0,0,1-26-2c-18.6-5.58-35.17-18.75-46.89-30.23a175.12,175.12,0,0,1-17.8-20.2s65.06-93.3,108.89-134.7v0c7.93-7.49,15.16-13.28,21.19-16.52C1656.91,806.78,1678.62,837.75,1678.62,837.75Z"/>
      <path class="cls-22" d="M1737.56,1043.61a28.41,28.41,0,0,1-11.73,3.32c-8.75.61-26.85-3-40.72-2.41s-16.28-7.54-14.47-14.17-2.72-12.59-2.72-12.59l-1-5.13,1.89-6.21,16.82.43,10.62,6.6,2.67,1.67s-.24.17-.62.49c-2,1.68-7.65,7.42-2.71,14,5.88,7.79,21.59,9.74,26.17,12.61S1734.75,1044,1737.56,1043.61Z"/>
      <path class="cls-18" d="M1569,720.68s-18.62-2.74-23.85-1.53-23.43,8.91-22.54,12.45,14.58,9.84,20.17,8.69,10.13-.51,17.28-2.09,12.56-3.08,12.56-3.08Z"/>
      <path class="cls-16" d="M1569,720.68c-4.35.59-11.61-4.36-14-11.59-1.78-5.31-7.39-10.66-10.23-13.12-.85,3.4-9.49,35.53-32.28,46.58a106.87,106.87,0,0,0,18-22.77c-4.36,5.13-9.53,9.4-15.37,11-16,4.41-24.49,1.68-26.88.64a6.6,6.6,0,0,1-.71-.35,54.45,54.45,0,0,0,17.23-32.51s13.5-18,41-7.36c3-2.62,8.26-4.59,15.49,3.85a19.17,19.17,0,0,1,2.5,3.71C1570.5,711.74,1569,720.68,1569,720.68Z"/>
      <path class="cls-17" d="M1491.34,848s-28.36,3.89-48.26-17.15c0,0,3.64-13.09,8.17-16.53s36.55-.21,40.09,9.07S1491.34,848,1491.34,848Z"/>
      <path class="cls-25" d="M1655.52,907.72c-4,10.85-8.4,22.18-13.12,33.41-4.38,10.45-9,20.81-13.87,30.58-18.07-50.8,3.9-107.11,4.72-107.67Z"/>
      <path class="cls-1" d="M1622,832.67s17.81,116.07,45.25,187.53c0,0,9.8,1.55,17.89,0,5.49-1.05,13.79-5.08,13.79-5.08s11.33-184.39-37.55-189.82S1622,832.67,1622,832.67Z"/>
      <path class="cls-17" d="M1569,720.68c-4.35.59-11.61-4.36-14-11.59-1.78-5.31-7.39-10.66-10.23-13.12-.85,3.4-9.49,35.53-32.28,46.58a106.87,106.87,0,0,0,18-22.77c-4.36,5.13-9.53,9.4-15.37,11-16,4.41-24.49,1.68-26.88.64,7.17-1.2,22-4.56,28.54-12.6,8.82-10.81,23.9-27.24,29-27.62,4.31-.31,12.46,2.5,18,7.56C1570.5,711.74,1569,720.68,1569,720.68Z"/>
      <path class="cls-17" d="M1471.45,740.43s-1.1,29.28-24.63,39.72-35.54,37.14-35.54,37.14,14.44-17.59,23.4-17.85S1488.85,778.48,1471.45,740.43Z"/>
      <path class="cls-25" d="M1552.15,1029.57c-18.6-5.58-35.17-18.75-46.89-30.23a175.12,175.12,0,0,1-17.8-20.2s65.06-93.3,108.89-134.7C1595.37,845.84,1518.62,955.74,1552.15,1029.57Z"/>
    </g>
    <g>
      <path class="cls-16" d="M1627.06,1317.51h-38.28c-6.39-1.68-14.73-7-17.4-23.2,0,0,.93-4.64-20.3-25.06-8.62-8.28-13.52-17.7,0-29.91s17.7-51.12,17.7-51.12l23.86,47s-1.63,15.53,6.33,30.31c7,12.92,8.57,35.73,14.69,38.45C1619.32,1306.54,1629.81,1314.75,1627.06,1317.51Z"/>
      <path class="cls-16" d="M1500.68,1268.33s1.51,15.65,10,19,22.61,10.26,34.38,15.08,29.25,3.61,24.42,15.23h-96.5s-12.67,1.54-6.64-24.64-1.62-41.25-1.62-41.25Z"/>
      <path class="cls-17" d="M1596.5,1243.68a176,176,0,0,1-18.13.31,68,68,0,0,1-10.8-1.18,69,69,0,0,1-22.64-9.48s-6.53-99.08,4.2-167.74c0-.22.08-.45.11-.67.69-4.34.33-7.3-1-9.22-2.19-3.14-7-3.58-14.13-2.89-47,4.55-153.77,3.77-181.21-14.63-35.94-24.09,11.19-80,11.19-80s44.69-4.78,98-7.31c64.87-3.07,142.56-2.83,168.32,13.36C1630.42,964.25,1667.39,1003.85,1596.5,1243.68Z"/>
      <path class="cls-16" d="M1548.22,1055.7c-2.19-3.14-7-3.58-14.13-2.89-47,4.55-153.77,3.77-181.21-14.63-35.94-24.09,11.19-80,11.19-80s44.69-4.78,98-7.31C1477.32,963.5,1554.7,1029.19,1548.22,1055.7Z"/>
      <path class="cls-19" d="M1325.45,611.42s-8.37-12.44-16.51-13.12-23.53,1.13-23.75,4.52,22.08,10.43,23.76,13.94c2.73,5.68,12.16,5.68,12.16,5.68Z"/>
      <path class="cls-19" d="M1295,784.66a44.5,44.5,0,0,1-30.68,4.36,64,64,0,0,1-20.86-8.64,61.45,61.45,0,0,1-8.44-6.26s.37-.54,1-1.59c3.17-5.52,12.78-25.35,8.23-57.08-.23-1.64,50.08,12.24,51.75,12.71h0s.47,7.91,2,21.93c.15,1.41.3,2.9.48,4.43C1300,767,1295,784.66,1295,784.66Z"/>
      <path class="cls-18" d="M1296,728.16c-1.48-.13-38-2.82-29.09,43.28,2,10.25.64,15.64-2.57,17.58-4.58,2.78-13-1.49-20.86-8.64a76.4,76.4,0,0,1-7.46-7.85c3.17-5.52,12.78-25.35,8.23-57.08C1244,713.81,1294.35,727.69,1296,728.16Z"/>
      <path class="cls-18" d="M1306,725.49a107,107,0,0,1-19.72,4.74c-16.17,2.3-37.46,1.16-44.28-18.37-11.49-32.88-26-52.54,7-66.23,17.69-7.33,29-7.79,36.76-5.09,6.71,2.32,10.7,7,13.72,11.71C1306,662.29,1319.32,719.63,1306,725.49Z"/>
      <path class="cls-19" d="M1306,725.49a107,107,0,0,1-19.72,4.74c-10-1.84-18.86-7-22.84-18.37-11.49-32.88-26-52.54,7-66.23a100.78,100.78,0,0,1,15.32-5.09c6.71,2.32,10.7,7,13.72,11.71C1306,662.29,1319.32,719.63,1306,725.49Z"/>
      <path class="cls-26" d="M1324.36,655.59c-19.09,13.92-45.72.55-53.95,4.27s-9.6,17.56-9.71,21.94-.67,8.11-11.88,5.56a5.45,5.45,0,0,0-4.07.27c-4.62,2.79,1.41,16.1,3.22,19,0,0,2.64,9.55-3,14.24-.69.56-11.88,5.55-39.22-35.66-4.3-6.47-8.46-21.08-2-35.22s33.78-28,57-35.34c8.69-2.77,15.15-2.72,20.22-.9,8.45,3,13,11,17.51,18.93C1306,646,1324.36,655.59,1324.36,655.59Z"/>
      <path class="cls-17" d="M1385.46,981.18l-11.2.9-145.6,11.6s-24.79-37-32.27-99.69c-2.17-18.24-3.3-37.43-2.34-55.48,2.12-40,14.43-74.54,48-80.77,0,0,32.26,17.88,56,4.31,0,0,47.28,6.79,58.14,18.1,8.33,8.68,7.37,69.24,14.64,108h0v0c2.19,11.71,5.14,21.43,9.32,27.1,2.18,2.94,4.19,5.79,6.07,8.54l.25.37a204.62,204.62,0,0,1,16,27.55A20.68,20.68,0,0,1,1385.46,981.18Z"/>
      <path class="cls-17" d="M1363.85,828.55c-78.72,74.56-65.78-66.5-65.78-66.5s30.08-13.6,39.59-13.67,16.29-26.6,46.13-70.91h0L1320,623.63s2.82-16.16,6.33-15.38a229.3,229.3,0,0,1,25.5,8.09c29.06,10.7,70.51,29.86,79,48.45C1430.85,664.79,1433.11,763,1363.85,828.55Z"/>
      <g>
        <path class="cls-19" d="M1197.89,618.77c-1.17,5-7.51,7.28-9.8,8-.52.15-.83.22-.83.22l-6.1-9-.53-.8s.29-.74.83-1.91c.23-.48.5-1.05.81-1.68,2.18-4.3,6.37-11.16,11.63-12.79,7.8-2.44,23.21-4,24.16-.74S1198.78,615,1197.89,618.77Z"/>
        <path class="cls-17" d="M1190.28,837.43c-58.42-35-84.87-94-95.23-125a182.69,182.69,0,0,1-5.72-20.31c5.88-27.72,73.37-70.25,89.72-77.89.7-.33,1.53.11,2.41,1a14.7,14.7,0,0,1,1.2,1.45,61.71,61.71,0,0,1,5.43,10.06l.49,1.15L1138,694.28c38.77,36.78,51.15,61.21,60.44,59.21s41.62,4.75,41.62,4.75S1283.31,893.12,1190.28,837.43Z"/>
      </g>
      <path class="cls-17" d="M1505.94,1275s-2.55.78-6.67,1.58a88.94,88.94,0,0,1-16.54,1.62c-8.43,0-21.12-3.2-21.12-3.2-46.54-148.58-27.82-188.55-26.78-197.62.11-1,0-1.58-.36-1.94-11.94-11.21-74.1-.32-136.4-9.82s-69.41-72-69.41-72l91.84-29.74s157,21.09,191.88,52.35C1532.36,1034.19,1505.94,1275,1505.94,1275Z"/>
      <path class="cls-27" d="M1280.92,613.72c-7.57-1.62-16.9-.39-24.58,10.24-15.68,21.72-7.24,44.34-13.27,52.18-3.36,4.38-1.56,7.16,1.68,11.49-4.62,2.79,1.41,16.1,3.22,19,0,0,2.64,9.55-3,14.24-.69.56-11.88,5.55-39.22-35.66-4.3-6.47-8.46-21.08-2-35.22s33.78-28,57-35.34C1269.39,611.85,1275.85,611.9,1280.92,613.72Z"/>
      <path class="cls-27" d="M1294.94,620.65l-.12-.15A.39.39,0,0,1,1294.94,620.65Z"/>
      <path class="cls-16" d="M1499.27,1276.62a88.94,88.94,0,0,1-16.54,1.62c-8.43,0-21.12-3.2-21.12-3.2-46.54-148.58-27.82-188.55-26.78-197.62C1437.93,1093.74,1460.81,1209.37,1499.27,1276.62Z"/>
      <path class="cls-16" d="M1578.37,1244a68,68,0,0,1-10.8-1.18,69,69,0,0,1-22.64-9.48s-6.53-99.08,4.2-167.74C1552.09,1098.12,1561.8,1199.1,1578.37,1244Z"/>
      <path class="cls-16" d="M1348.57,1018.2c-26-18.92-21.06-31.74-11.41-39.06s-50.66-15.59-75-22.46-43.85-127-61.82-149.23c-12.21-15.08-47.68-54.81-71.36-81.8-1.37-1.63-12.82-15.81-13.66-33.69-.81-17.35,55.8-65.64,65.81-74l1.5-1.26s-2-3.15-3.61-2.43c-16.43,7.46-83.84,50.17-89.72,77.88h0a0,0,0,0,0,0,0c.08.43,1.16,5.66,3.72,14.05,21.92,74.42,71.65,120.84,82.26,127.66,11.27,7.23,11.22,22.31,11.22,22.31-2.27,67.51,31.53,128.86,45.18,150.74,5.88,18.89,22.35,52,66.35,58.74,62.3,9.5,124.46-1.39,136.4,9.82.39.36.47,1,.36,1.94C1441.39,1052,1397.51,1032.2,1348.57,1018.2Z"/>
      <path class="cls-16" d="M1383.8,677.46s.19,101.24-46.14,70.92c9.51-.06,16.29-26.6,46.13-70.91Z"/>
      <path class="cls-16" d="M1383.79,677.45,1320,623.63s2.82-16.16,6.33-15.38a229.3,229.3,0,0,1,25.5,8.09C1367,629.21,1383.4,676.32,1383.79,677.45Z"/>
      <path class="cls-16" d="M1240.06,758.24s35.81,36.42,61.18,28.73c0,0,3.35-5-8.11-6.48S1269.32,779.71,1240.06,758.24Z"/>
      <path class="cls-16" d="M1386.25,923.79c-4.62-7-18.48,3-27.53,2.61s11.86-37.79,12.13-38.27v0c2.19,11.71,5.14,21.43,9.32,27.1C1382.36,918.19,1384.37,921,1386.25,923.79Z"/>
    </g>
    <g>
      <path class="cls-28" d="M1027.25,760.69h0c-9.34-32.77-30.72-66.68-43.4-69.52-7.58-1.7-15.45.26-20.77,2.23a9.62,9.62,0,0,1,3.53-3.23c-3.51.54-10,6.16-10,6.16-52.24-3.74-38.57,67.33-32.71,83s11.6,34.07-7.35,55.53C879.26,877.1,933,914.53,933,914.53c.42.1,32.31,29.3,32.31,29.3-4.6-11.25,26.08-81.81,50.41-117.87,2.81-4.18,5.55-7.89,8.12-11,4.17-13.46.85-34,.58-35.58,3.46,16,3.46,25.59,2.58,31.24C1034,798.7,1032.71,779.89,1027.25,760.69Z"/>
      <path class="cls-19" d="M1184.19,815.19c.78-1.17,7.39-21.39,14.39-21s17.88,1.56,20.61.78,11.85-7.67,13.41-6c3.89,4.08-4.86,16.72-11.08,18.66s-16.33-1-18.66,1.36-1.95,10.7-1.95,10.7Z"/>
      <path class="cls-29" d="M1027,810.62c.88-5.65.88-15.24-2.58-31.24.27,1.61,3.59,22.12-.58,35.58-2.57,3.11-5.31,6.82-8.12,11-4.61.35-7.83.4-8-.08-.68-1.81,2.49-22,2.49-22,.19-.49,14.32-19.69,17-43.15C1032.71,779.89,1034,798.7,1027,810.62Z"/>
      <g>
        <path class="cls-19" d="M1369.25,1262.69c-.76,8.25,10.72,10.25,24,10.92s9.29,3.38,27.51,6.68,25.54-1.68,26.86-4.15c1.17-2.18-7.3-5.6-16.33-9.46-1.14-.48-2.28-1-3.42-1.48-10.16-4.47-15.87-13.58-23.79-22-7.51-8-14.64-33.64-14.64-33.64l-24.77-5.29s7,23.07,9.37,32.92c1.42,5.8-.67,12.27-2.53,17.2A32,32,0,0,0,1369.25,1262.69Z"/>
        <path class="cls-20" d="M1393.27,1273.61c13.31.66,9.29,3.38,27.51,6.68s25.54-1.68,26.86-4.15c1.17-2.18-7.3-5.6-16.33-9.46l-.14.15a52,52,0,0,1-27.62.33c-12.06-3.27-23.72-10.48-32-12.81a32,32,0,0,0-2.28,8.34C1368.49,1270.94,1380,1272.94,1393.27,1273.61Z"/>
      </g>
      <path class="cls-20" d="M1398.86,1223.47s-3.07,2.46-9.92,3.2c-6.37.69-20.4-3.05-20.4-3.05s-27.86-39.76-50-75.87c-13.32-21.71-24.56-42.09-26.45-51.74-5-25.68-3.8-48.59-15.27-49.21s-154.26,17.37-175.87-20.7-3.74-75.72-3.74-75.72l25.36,18.55s164.62-12.38,195.61,7.18c7.55,4.77,16.22,21.91,25,45.12C1370.44,1093.2,1398.86,1223.47,1398.86,1223.47Z"/>
      <path class="cls-24" d="M1200.62,839.62c-11.19,28.34-38.22,74.52-45.2,76.27-5.88,1.47-34.67-5.1-58.05-13.08-13.68-4.68-25.51-9.83-29.82-14.14-11.66-11.66-50.06-80.19-50.06-80.19s36.06-4.57,53.17,5.54,58.32,56.77,64.54,55.21,35.77-53.66,47.44-58.32c0,0,17.88-3.89,22.55,8.55C1206.36,822.59,1204.39,830.09,1200.62,839.62Z"/>
      <g>
        <path class="cls-19" d="M1306.26,1289.13c-.76,8.25,10.72,10.25,24,10.91s9.28,3.39,27.51,6.69,25.53-1.68,26.85-4.15c1.18-2.18-7.3-5.6-16.33-9.46-1.14-.48-2.28-1-3.41-1.48-10.17-4.47-15.87-13.59-23.8-22-7.51-8-14.63-33.64-14.63-33.64l-24.78-5.29s7,23.07,9.37,32.92c1.43,5.8-.67,12.27-2.53,17.2A32.72,32.72,0,0,0,1306.26,1289.13Z"/>
        <path class="cls-20" d="M1330.29,1300c13.3.67,9.28,3.39,27.51,6.69s25.53-1.68,26.85-4.15c1.18-2.18-7.3-5.6-16.33-9.46l-.14.15a51.93,51.93,0,0,1-27.61.33c-12.06-3.27-23.72-10.48-32-12.81a32.72,32.72,0,0,0-2.28,8.34C1305.5,1297.38,1317,1299.38,1330.29,1300Z"/>
      </g>
      <path class="cls-1" d="M1200.62,839.62c-11.19,28.34-38.22,74.52-45.2,76.27-5.88,1.47-34.67-5.1-58.05-13.08-9.68-8.26-15.62-15.4-16.59-16.85.77.29,55.28,20.95,66.09,16.32C1156.67,898.08,1184.4,850.76,1200.62,839.62Z"/>
      <path class="cls-21" d="M1318.53,1147.75c-13.32-21.71-24.56-42.09-26.45-51.74-5-25.68-3.8-48.59-15.27-49.21s-154.26,17.37-175.87-20.7-3.74-75.72-3.74-75.72l25.36,18.55s164.62-12.38,195.61,7.18c7.55,4.77,16.22,21.91,25,45.12C1329.51,1047.09,1308.89,1097.93,1318.53,1147.75Z"/>
      <path class="cls-19" d="M1022.35,816.54c0,.2-12.68,12.54-25,12.9a24.51,24.51,0,0,1-12.21-3.39,42,42,0,0,1-10.54-8.12c4.27-2.29,3.67-8.94-4.62-35.75l2.18-.23,36.64-3.71s.93,4.07,2.35,9.55c.92,3.59,2.06,7.77,3.29,11.82C1017.09,808.22,1020.1,816.22,1022.35,816.54Z"/>
      <path class="cls-30" d="M985.36,819.66a22.11,22.11,0,0,1-.18,6.39,42,42,0,0,1-10.54-8.12c4.27-2.29,3.67-8.94-4.62-35.75l2.18-.23,36.64-3.71s.93,4.07,2.35,9.55C1011.19,787.79,982.72,790.67,985.36,819.66Z"/>
      <path class="cls-20" d="M1337.77,1257.13s-3.18,2.34-10,2.81c-6.4.44-20.27-3.85-20.27-3.85s-67.41-104.63-71.43-130.48c-3.1-19.86-2.57-37.95-7.34-45.74a7.61,7.61,0,0,0-6-4c-11.44-1.06-154.83,11.35-175-27.53-.16-.31-.31-.61-.46-.92-8-16.55-1.16-31.51,9.27-43.17,8.55-9.56,19.49-16.91,26.56-21.12,4.34-2.57,7.21-4,7.21-4s56.7,2.68,106.78,9.72c30.35,4.26,58.26,10.12,69.65,17.95C1297,1027.56,1337.77,1257.13,1337.77,1257.13Z"/>
      <path class="cls-21" d="M1222.7,1075.84c-11.44-1.06-154.83,11.35-175-27.53-.16-.31-.31-.61-.46-.92-7.39-15.37-.93-30.64,9.27-43.17,8.55-9.56,19.49-16.91,26.56-21.12,4.34-2.57,7.21-4,7.21-4s56.7,2.68,106.78,9.72C1184.24,998.69,1166.64,1024.36,1222.7,1075.84Z"/>
      <path class="cls-28" d="M967.47,779.28s-15-12.92-21.63-25.87c-4.73-9.24-10.81-47,27.2-52.9A51.67,51.67,0,0,1,995.92,702c9.54,2.93,24.47,11,21.37,46.49l-.06,11.69Z"/>
      <path class="cls-24" d="M1091.14,991.57c-1.29,0-3.09-.07-5.21-.24-8.54-.65-22.16-2.48-26.93-3.9-40.24-12-78.89-26.85-95.35-78.94a159.16,159.16,0,0,1-5-20.6L965,864l12.24-50.49s15,8,29,4.95c7.17-1.6,11.25-9.95,11.25-9.95s75.72,29.64,101.39,91.08,34.47,52.1,42.24,65.32S1134.43,991.32,1091.14,991.57Z"/>
      <path class="cls-30" d="M1018.27,786a91.39,91.39,0,0,1-15.56,3.23c-14.05,1.7-33.34.52-38.71-17-8.73-28.49-20.49-45.78,8.21-56.39,14-5.17,23.3-5.65,29.78-3.76,6.79,2,10.47,6.58,13.14,11.08C1020.37,731.94,1029.88,781.41,1018.27,786Z"/>
      <path class="cls-19" d="M1018.27,786a91.39,91.39,0,0,1-15.56,3.23c-9.58-1.46-18.41-6-21.77-17-8.73-28.49-20.5-45.78,8.2-56.39a86.67,86.67,0,0,1,12.85-3.76c6.79,2,10.47,6.58,13.14,11.08C1020.37,731.94,1029.88,781.41,1018.27,786Z"/>
      <path class="cls-29" d="M992.83,708.76s-2.31,37.26-20,48.07a59.43,59.43,0,0,1-17.93,7.69c-6.32,1.42-9.7.53-9.7.53a56.9,56.9,0,0,0,8-37.6s18-22.48,32.21-21.82A11.6,11.6,0,0,1,992.83,708.76Z"/>
      <path class="cls-29" d="M990.56,712.42s11.63,4.61,16.13,11.17,10.09,21.19,14.29,19.35c0,0,2.49-25.61-12-35.23C993.53,697.52,990.56,712.42,990.56,712.42Z"/>
      <path class="cls-1" d="M1085.93,991.33c-8.54-.65-22.16-2.48-26.93-3.9-40.24-12-78.89-26.85-95.35-78.94l-.21-1.16,5.59-4.39a39.92,39.92,0,0,1,40.19-5.39C1041,911,1084.66,935.3,1085.93,991.33Z"/>
      <path class="cls-24" d="M976.05,876.72s-10.76,43.75-19.3,73.95c-2.48,8.83-4.79,16.49-6.57,21.56-1.26,3.55-2.27,5.83-2.9,6.35-4.67,3.81-25.58,12.65-32.58,5s-.08-104,7.69-133.55c7.66-29.05,53.35-36.36,54.77-36.58h0C987.84,832.4,976.05,876.72,976.05,876.72Z"/>
      <g>
        <polygon class="cls-23" points="1099.41 908.66 1099.26 909.43 1081.92 995.05 1074.49 994 1066.02 992.81 1059.57 991.9 1059.37 991.88 1046.04 989.99 1036.02 988.58 1022.67 986.71 1016.04 985.77 1007.87 984.62 1002.78 983.9 1009.3 896.96 1009.37 895.98 1014.86 896.75 1028.31 898.65 1033.57 899.38 1034.94 899.58 1048.29 901.46 1051.34 901.89 1058.31 902.87 1071.64 904.75 1078.29 905.68 1092.02 907.62 1099.41 908.66"/>
        <polygon class="cls-20" points="1014.86 896.75 1014.78 897.73 1007.87 984.62 1002.78 983.9 1009.3 896.96 1009.37 895.98 1014.86 896.75"/>
        <polygon class="cls-20" points="1099.41 908.66 1081.92 995.05 1074.49 994 1092.02 907.62 1099.41 908.66"/>
        <polygon class="cls-20" points="1034.94 899.58 1034.81 900.54 1022.67 986.71 1016.04 985.77 1028.17 899.61 1028.31 898.65 1028.31 898.64 1033.57 899.38 1034.94 899.58"/>
        <polygon class="cls-20" points="1078.29 905.68 1078.15 906.65 1066.02 992.81 1059.57 991.9 1059.37 991.88 1059.42 991.5 1071.5 905.72 1071.64 904.75 1078.29 905.68"/>
        <polygon class="cls-20" points="1058.31 902.87 1058.17 903.84 1051.34 952.35 1046.04 989.99 1036.02 988.58 1048.15 902.42 1048.29 901.46 1051.34 901.89 1058.31 902.87"/>
        <path class="cls-23" d="M1100.77,907.71a2.09,2.09,0,0,1-1.51,1.72,1.85,1.85,0,0,1-.58.09,1.51,1.51,0,0,1-.3,0l-6.55-.92-13.68-1.93-6.65-.93-13.33-1.88-6.9-1-3.12-.45-13.35-1.88-6.63-.93-13.39-1.88-5.48-.77-.8-.12a2.11,2.11,0,0,1,.29-4.2,1.46,1.46,0,0,1,.29,0l7,1,35.52,5,38.2,5.39,9.15,1.28A2.13,2.13,0,0,1,1100.77,907.71Z"/>
        <path class="cls-31" d="M1089.82,904l-38.2-5.39-35.52-5s5.88-7.09,17-5.21c7.24,1.21,13.63-.19,19.57,0A19.38,19.38,0,0,1,1062,891C1070.59,896,1089.37,896.2,1089.82,904Z"/>
      </g>
      <path class="cls-17" d="M1059.57,991.9l-.2,0L1046,990l-10-1.41-13.35-1.87-6.63-.94-8.17-1.15-5.09-.71L1009.3,897l-.8-.12a2.11,2.11,0,0,1,.29-4.2,1.46,1.46,0,0,1,.29,0l7,1s5.88-7.09,17-5.21c7.24,1.21,13.63-.19,19.57,0-.34,2.75-.72,6.19-1.08,10.17-.1,1-.19,2.13-.28,3.24,0,.33,0,.64-.07,1a297.35,297.35,0,0,0,.07,49.48c1.23,13.31,3.7,26.88,8.08,39.15C1059.47,991.63,1059.51,991.77,1059.57,991.9Z"/>
      <path class="cls-19" d="M1048.8,949s27-5.24,30.11-3.93,20.07,16.58,18.32,19.64-8.72,5.23-16.58,2.61-24.87-3.92-27.92-7.85S1048.8,949,1048.8,949Z"/>
      <path class="cls-24" d="M1051.71,965.29s-106.9,24.43-113,24.87-19.63,1.74-24-6.54,10.48-23.56,10.48-23.56a36.62,36.62,0,0,1,6.49-3.26c6.51-2.56,15.25-4.57,25.08-6.13,40.37-6.43,99.32-5.45,99.32-5.45C1063.93,956.12,1051.71,965.29,1051.71,965.29Z"/>
      <path class="cls-28" d="M984.61,704.76c-1.67.11-11.75,1.2-13.66,10.58s-6.85,38.86-18,50.58c-6.57,1.47-10.08.54-10.08.54s11.6-16.84,8.29-39.05C951.16,727.41,969.83,704.07,984.61,704.76Z"/>
      <path class="cls-21" d="M1307.46,1256.1s-67.41-104.64-71.43-130.49c-3.11-19.86-2.56-37.95-7.34-45.75C1228.69,1079.86,1303.92,1137.29,1307.46,1256.1Z"/>
      <path class="cls-1" d="M1051.71,965.29s-106.9,24.43-113,24.87-19.63,1.74-24-6.54c-7-7.62-.08-104,7.69-133.55,7.66-29.05,53.35-36.36,54.77-36.58-1.29.55-38.62,16.37-38.62,36.81,0,15.76-7,76.7-6.87,106.5.05,9.54.83,15.89,2.8,16.55,1.71.57,7.52,0,15.71-1.12C981,968,1045.7,955.7,1051.71,965.29Z"/>
    </g>
    <path class="cls-9" d="M1210.5,1244.11c-19.87,45.26-73.46,73-128.21,73H956.35l9.85-342.67s120.16-37.32,150.34-1.82c26.43,31.11,98.14,154.24,101.92,227.12A96.89,96.89,0,0,1,1210.5,1244.11Z"/>
    <path class="cls-13" d="M1210.5,1244.11c-19.87,45.26-73.46,73-128.21,73H968.84c-22.16-25.09-15-37,46-57.16,82.91-27.43,129.06-38.28,129.06-38.28S1160.63,1245.05,1210.5,1244.11Z"/>
    <path class="cls-9" d="M1146.91,1199.77c-3.77-72.88-54.9-189-73.48-218.11-27.1-42.47-144.06-1.68-195.4,18.86-29.2-86.75-58-171.91-73.68-218.09A52.19,52.19,0,0,0,754.93,747s-83.49-12.33-96.41,98.9c-41.36,356.06-8.13,470.88,140.23,471.76,18.61.11,55-.22,86-.57v.05h125.93C1081.65,1317.14,1150.58,1270.58,1146.91,1199.77Z"/>
    <path class="cls-32" d="M1146.92,1199.53c-3.78-73.09-54.9-189.55-73.49-218.74-23.07-36.26-111.25-12-168.64,8.71-10,3.62-19.13,7.14-26.76,10.2-29.2-87-58-172.41-73.68-218.73a52.2,52.2,0,0,0-49.42-35.52s-8.27.08-19.63,1.11h0c-18.31,1.67-44.62,5.84-57.24,16.19-8.55,7-14.43,37.81-19.53,81.88-12.06,104.11-17.78,187.66-16.15,253.81.83,33.92,3.6,63.26,8.44,88.46a258,258,0,0,0,13.24,47c23.68,59.51,67.31,83.49,134.7,83.89,7.83,0,18.81,0,31.22-.06,17.07-.11,36.84-.31,54.83-.51v0h125.94C1081.65,1317.25,1150.59,1270.55,1146.92,1199.53Z"/>
    <path class="cls-9" d="M825.16,1037.31s-70.25-258.28-74.92-278c-2.08-8.78-8.48-12-14.94-12.77,11.36-1,19.63-1.11,19.63-1.11a52.18,52.18,0,0,1,49.42,35.42C820,827.05,848.83,912.22,878,999,885.66,995.91,825.16,1037.31,825.16,1037.31Z"/>
    <path class="cls-3" d="M915.32,1052.46c-8.88-26.61-64.21-18.3-64.21-18.3s-37.56,46.58-48.5,47.69,22.55-44.91,22.55-44.91c-21.18-1.67-75.15,19.4-75.15,19.4s3.43,54.34-7.51,53.24,0-48.25,0-48.25c-20.49,5-39.62,24.4-39.62,24.4-23.9,31.61,27.33,54.9,27.33,54.9s.68,18.85-13.67,40.47c0,0-18,22.24-12.24,51H688.43c3-20.69-9.69-36.38-9.69-36.38-10.88-16.41-10.36-30.71-10.36-30.71s38.86-17.67,20.72-41.64c0,0-14.51-14.73-30.05-18.51,0,0,8.29,35.75,0,36.6s-5.7-40.39-5.7-40.39-4.44-1.73-11-4c.83,33.83,3.6,63.09,8.43,88.21,4.81-1.93,8.5-4.45,10.32-7.63.31-.55.62-1.07.91-1.58a6.13,6.13,0,0,1-.91,1.58c3.73,1.77,9.32,10.19,13.2,16.64.55,1.11,1.43,2.62,2.72,4.68.53.94,1,1.71,1.25,2.24,4.48,9.09,4.65,22.33,4.16,30.91H624.82v2.5h3.36c1.22,33.13,26.82,61.29,62.73,73.06H639.12c-6.84,0-12.38,4.5-12.38,10H830.22a8.47,8.47,0,0,0-.25-2c-1.15-4.58-6.14-8-12.13-8H766.05c35.91-11.77,61.5-39.93,62.74-73.06h2.33v-2.5h-107a46.28,46.28,0,0,1,9-11.85l1.61-1.33c1.75-1.32,3-2.31,3.81-3,5.38-4.2,12.83-9.56,16.41-10.07a4.61,4.61,0,0,1-.15-1.47c0,.47.11,1,.15,1.47,1.23,11.68,29.18,21.9,46.37,24s11.88-3.64,6-12.15-24.68-12.31-29-16.22,4.56-3.93,14.93-.09,11.77,14.08,28.39,20.54S863.35,1206,863.35,1206c-13.25-.55-32.16-12.23-31.47-15.8s32.09,6.16,37.47,6.63,17.59-5,19.48-22.52-33.57-22.46-33.57-22.46-8.18,4.94-17.42,9.91a55.78,55.78,0,0,0-8.24-6.42c3-2.19,5.79-4.07,7.49-5.23a83.14,83.14,0,0,0,11.29,1.66c28.69,2.21,50.55-41.59,50.55-41.59-19.81,5-55.33-3.88-56.7-9.43s51.23-5,59.43-6.65S924.2,1079.08,915.32,1052.46ZM739.77,1157.25a7.86,7.86,0,0,1-1.19-2.07Zm-5.15,58.69a54.17,54.17,0,0,0-16,16.14h-6.78c-.84-11-1.17-30.66,5.28-43.76.38-.71.94-1.71,1.64-3,.85-1.36,1.57-2.54,2.17-3.57s1-1.88,1.42-2.6c5.12-8.52,12.49-19.61,17.4-21.94a18.83,18.83,0,0,0,5.4,5.7c-9.33,14.12,8.63,31.13,8.63,31.13S749.1,1205.53,734.62,1215.94Zm35-38.29c-1.63-.68-1.51-3-.46-6,2.25.42,4.58.77,7,1.08C773.7,1176.22,771.39,1178.4,769.6,1177.65Zm40.47-31.53c-14.69-3.28-32.4-2.67-38.88-5.49-8.88-3.89,4.1-7.77,21.86-6.66,12,.75,19.88,7.51,32.53,12.54C820.65,1146.16,815.22,1146.07,810.07,1146.12Z"/>
    <path class="cls-7" d="M883.25,991.33C874.37,958.54,819,968.79,819,968.79s-37.57,57.38-48.5,58.74,22.54-55.33,22.54-55.33c-21.17-2.05-75.14,23.91-75.14,23.91s3.42,66.94-7.51,65.58,0-59.43,0-59.43c-20.5,6.15-39.62,30-39.62,30-23.91,38.94,27.32,67.63,27.32,67.63s.68,23.23-13.66,49.87c0,0-18,27.39-12.25,62.81H656.35a72.8,72.8,0,0,0-9.69-44.83C635.78,1147.58,636.3,1130,636.3,1130s38.87-21.77,20.73-51.3c0,0-14.51-18.14-30.06-22.81,0,0,8.29,44.05,0,45.09s-5.7-49.75-5.7-49.75-40.94-19.69-57-18.14c0,0,25.39,43,17.1,42s-36.79-44.57-36.79-44.57-42-7.77-48.71,17.1,4.14,37.31,10.36,38.87,46.12,1,45.08,6.22-28,13.47-43,8.81c0,0,16.59,40.93,38.35,38.86s28.5-15.54,42-16.58,23.32,2.59,16.59,6.22-29.54,1.19-40.42,10.44-19.69,14.95.52,19.1,56.48,1.55,63.73-14l.91-1.94a8.24,8.24,0,0,1-.91,1.94c3.74,2.18,9.34,12.58,13.22,20.54.55,1.35,1.42,3.21,2.71,5.73.46,1,.84,1.85,1.12,2.49,4.59,11.21,4.78,27.69,4.28,38.36H592.75v3.07h3.35a100.4,100.4,0,0,0,62.74,90H607.05a12.39,12.39,0,0,0-12.39,12.38H798.15a12.39,12.39,0,0,0-12.39-12.38H734a100.4,100.4,0,0,0,62.74-90H799v-3.07h-107c2.47-5.42,5.5-10.73,9-14.61l1.62-1.64c1.75-1.62,3-2.84,3.8-3.75,5.38-5.17,12.83-11.77,16.42-12.41a6.83,6.83,0,0,1-.15-1.8c.05.58.1,1.17.15,1.8,1.23,14.41,29.17,27,46.37,29.58s11.88-4.49,5.95-15-24.67-15.17-28.95-20,4.57-4.84,14.93-.11,11.78,17.35,28.4,25.31,41.62-19.62,41.62-19.62c-13.24-.67-32.16-15.05-31.47-19.45s32.1,7.59,37.47,8.16,17.6-6.1,19.49-27.74-33.58-27.67-33.58-27.67-8.18,6.08-17.42,12.2a59,59,0,0,0-8.24-7.9c3.05-2.7,5.79-5,7.5-6.45a66,66,0,0,0,11.29,2c28.69,2.74,50.55-51.23,50.55-51.23-19.82,6.15-55.33-4.78-56.7-11.61s51.23-6.15,59.43-8.2S892.13,1024.12,883.25,991.33ZM737.53,1145.55c-1.63-.84-1.52-3.67-.47-7.38,2.26.51,4.59.95,7,1.33C741.62,1143.79,739.31,1146.47,737.53,1145.55Zm-35,47.18a61,61,0,0,0-16,19.89h-6.79c-.84-13.57-1.17-37.78,5.28-53.92.39-.87,1-2.12,1.65-3.64,1.7-3.35,2.86-5.81,3.58-7.59,5.12-10.49,12.49-24.17,17.41-27a10.85,10.85,0,0,1-1.2-2.56l1.2,2.56a21.46,21.46,0,0,0,5.4,7c-9.34,17.39,8.62,38.35,8.62,38.35S717,1179.89,702.54,1192.73Zm75.45-86c-14.69-4-32.4-3.29-38.87-6.78-8.88-4.78,4.1-9.56,21.86-8.2,11.94.92,19.88,9.26,32.52,15.45C788.58,1106.75,783.15,1106.65,778,1106.72Z"/>
    <g>
      <path class="cls-33" d="M2845.27,1071.69H2494.13a15.3,15.3,0,0,0-15.28,15.28v90.1a15.3,15.3,0,0,0,15.28,15.28h351.14a15.3,15.3,0,0,0,15.28-15.28V1087A15.3,15.3,0,0,0,2845.27,1071.69Zm4.54,105.38a4.54,4.54,0,0,1-4.54,4.54H2494.13a4.54,4.54,0,0,1-4.54-4.54V1087a4.55,4.55,0,0,1,4.54-4.54h351.14a4.55,4.55,0,0,1,4.54,4.54Z"/>
      <rect class="cls-11" x="2245.54" y="699.87" width="761.94" height="434.29"/>
      <rect class="cls-10" x="2271.17" y="699.86" width="761.93" height="434.29"/>
      <path class="cls-34" d="M3033.11,699.86v434.3H2271.17v-51.05c393.29-42.61,585.24-276.66,653.27-383.25Z"/>
      <rect class="cls-17" x="2250.11" y="1192.35" width="687.25" height="123.2" rx="10.85"/>
      <rect class="cls-16" x="2320.23" y="1192.35" width="687.25" height="123.2" rx="10.85"/>
      <g>
        <rect class="cls-33" x="2493.96" y="882.68" width="338.68" height="121.16"/>
        <polygon class="cls-15" points="2508.54 882.68 2501.8 1003.84 2840.48 1003.84 2847.67 882.68 2508.54 882.68"/>
      </g>
      <rect class="cls-15" x="2295.25" y="1091.42" width="141.14" height="25.33" rx="10.86"/>
    </g>
    <g>
      <path class="cls-35" d="M1318,212.06c-134.77-35.42-250.61-59.9-364-17.46-46.67,17.46-83,34.26-112.62,51.54-9.78,5.71-18.84,11.47-27.27,17.33V541.64H1347.4V219.84Q1332.57,215.88,1318,212.06Z"/>
      <path class="cls-36" d="M1318,212.06V512.12H841.42v-266c29.6-17.28,66-34.08,112.62-51.54C1067.43,152.16,1183.27,176.64,1318,212.06Z"/>
    </g>
    <path class="cls-33" d="M1991.66,1176.6l-1.23-4.35A28.5,28.5,0,0,1,1991.66,1176.6Z"/>
    <path class="cls-3" d="M1162.72,761.75c0-1.19.07-2.37,0-3.51h8.13C1167,759.84,1164,761.18,1162.72,761.75Z"/>
  </g>
</svg>
