<svg id="Layer_1" data-name="Layer 1" xmlns="http://www.w3.org/2000/svg" width="888.9" height="762.78" viewBox="0 0 888.9 762.78">
  <defs>
    <style>
      .cls-1 {
        fill: #333;
      }

      .cls-2 {
        fill: #16c2d0;
      }

      .cls-3 {
        fill: #d9e021;
      }

      .cls-4 {
        fill: #ff8f29;
      }

      .cls-5 {
        fill: #8cc63f;
      }

      .cls-6 {
        fill: #22b573;
      }

      .cls-7 {
        fill: #fcc82b;
      }

      .cls-8 {
        fill: #fff;
      }

      .cls-9 {
        opacity: 0.1;
      }
    </style>
  </defs>
  <g>
    <g>
      <path class="cls-1" d="M259.31,22.13h-7.62v6.06h6.65v2.14h-6.65v8.21h-2.41V20h10Z"/>
      <path class="cls-1" d="M263.86,22.54a1.54,1.54,0,0,1-1.09-2.63,1.56,1.56,0,0,1,2.17,0,1.55,1.55,0,0,1-1.08,2.63Zm-1.16,16v-13H265v13Z"/>
      <path class="cls-1" d="M279,25.58h2.22v12.3a7,7,0,0,1-1.68,5,6.07,6.07,0,0,1-4.64,1.77q-4.69,0-6.29-4l1.89-.92a4.29,4.29,0,0,0,4.34,3,3.72,3.72,0,0,0,3-1.27,5.42,5.42,0,0,0,1-3.53V35.6a4.53,4.53,0,0,1-1.84,1.87,5.38,5.38,0,0,1-2.7.7,5.55,5.55,0,0,1-4.2-1.82,6.46,6.46,0,0,1-1.72-4.61,6.34,6.34,0,0,1,1.73-4.59,5.62,5.62,0,0,1,4.21-1.82,5.28,5.28,0,0,1,2.72.73A4.6,4.6,0,0,1,279,28Zm-4.11,10.66a3.94,3.94,0,0,0,3-1.34,4.49,4.49,0,0,0,1.23-3.16,4.53,4.53,0,0,0-1.23-3.18,3.92,3.92,0,0,0-3-1.33,4,4,0,0,0-3,1.29,4.83,4.83,0,0,0,0,6.42A4,4,0,0,0,274.91,36.24Z"/>
      <path class="cls-1" d="M294,25.58h2.28v13H294L294,36.83a4.12,4.12,0,0,1-1.61,1.46,5.05,5.05,0,0,1-2.27.5,4.51,4.51,0,0,1-3.26-1.17,4.39,4.39,0,0,1-1.22-3.31V25.58h2.28V33.8a3.05,3.05,0,0,0,.8,2.32,2.81,2.81,0,0,0,2,.76A3.12,3.12,0,0,0,293,36a3.65,3.65,0,0,0,.91-2.65Z"/>
      <path class="cls-1" d="M303.1,27.86a3.93,3.93,0,0,1,1.6-1.74,5,5,0,0,1,2.5-.68v2.15a4.29,4.29,0,0,0-3,1,4,4,0,0,0-1,3.07v6.92h-2.28v-13h2.23Z"/>
      <path class="cls-1" d="M312.71,38.79a4.37,4.37,0,0,1-2.84-.89,3.17,3.17,0,0,1-1.12-2.65,3.77,3.77,0,0,1,.36-1.7,3.05,3.05,0,0,1,1.05-1.18,6.74,6.74,0,0,1,1.53-.73,13.66,13.66,0,0,1,2-.47l2.09-.34c.77-.14,1.15-.54,1.15-1.2a2.26,2.26,0,0,0-.81-1.93,3.29,3.29,0,0,0-2-.61,3.32,3.32,0,0,0-2,.59,2.45,2.45,0,0,0-1,1.82L309,29.06a3.93,3.93,0,0,1,1.62-2.77,6.07,6.07,0,0,1,3.53-.93,7.28,7.28,0,0,1,1.88.23,5,5,0,0,1,1.57.73,3.19,3.19,0,0,1,1.12,1.39,5.15,5.15,0,0,1,.41,2.13v5.35a2.22,2.22,0,0,0,.29,1.36,1.29,1.29,0,0,0,1,.34h.21v1.65h-1.13a2.16,2.16,0,0,1-2.45-1.75H317A4.93,4.93,0,0,1,312.71,38.79Zm.52-1.84A3.48,3.48,0,0,0,316,35.7a5.19,5.19,0,0,0,1.05-3.43l-3.43.66a4.66,4.66,0,0,0-2,.72,1.9,1.9,0,0,0,0,2.84A2.7,2.7,0,0,0,313.23,37Z"/>
      <path class="cls-1" d="M329.28,20h2.14V38.54h-2.26V22.47l-4.46,3.86V23.9Z"/>
      <path class="cls-1" d="M341.06,38.81a1.54,1.54,0,0,1-1.52-1.53A1.49,1.49,0,0,1,340,36.2a1.47,1.47,0,0,1,1.07-.45,1.55,1.55,0,0,1,1.55,1.53,1.44,1.44,0,0,1-.46,1.08A1.48,1.48,0,0,1,341.06,38.81Z"/>
      <path class="cls-1" d="M365.31,22.13h-7.54v6.08h6.64v2.12h-6.64v6.06h7.54v2.15h-9.95V20h9.95Z"/>
      <path class="cls-1" d="M373.38,38.54a3.4,3.4,0,0,1-2.53-.93,3.5,3.5,0,0,1-.93-2.59V27.4h-2.65V25.58h1a1.88,1.88,0,0,0,1.43-.45,2.21,2.21,0,0,0,.42-1.52V21.26h2.12v4.32h3V27.4h-3v7.38a2,2,0,0,0,.49,1.44,1.76,1.76,0,0,0,1.3.5h1.19v1.82Z"/>
      <path class="cls-1" d="M381.33,38.79a4.37,4.37,0,0,1-2.84-.89,3.17,3.17,0,0,1-1.12-2.65,3.77,3.77,0,0,1,.36-1.7,3.05,3.05,0,0,1,1-1.18,6.74,6.74,0,0,1,1.53-.73,13.66,13.66,0,0,1,2-.47l2.09-.34c.77-.14,1.15-.54,1.15-1.2a2.26,2.26,0,0,0-.81-1.93,3.29,3.29,0,0,0-2-.61,3.32,3.32,0,0,0-2,.59,2.45,2.45,0,0,0-1,1.82l-2.06-.44a3.93,3.93,0,0,1,1.62-2.77,6.07,6.07,0,0,1,3.53-.93,7.28,7.28,0,0,1,1.88.23,5,5,0,0,1,1.57.73,3.19,3.19,0,0,1,1.12,1.39,5.15,5.15,0,0,1,.41,2.13v5.35a2.22,2.22,0,0,0,.29,1.36,1.29,1.29,0,0,0,1,.34h.21v1.65h-1.13a2.16,2.16,0,0,1-2.45-1.75h-.11A4.93,4.93,0,0,1,381.33,38.79Zm.52-1.84a3.48,3.48,0,0,0,2.79-1.25,5.19,5.19,0,0,0,1.05-3.43l-3.43.66a4.66,4.66,0,0,0-2,.72,1.9,1.9,0,0,0,0,2.84A2.7,2.7,0,0,0,381.85,37Z"/>
      <path class="cls-1" d="M399.32,25.33a5.85,5.85,0,0,1,2.35.48,5.61,5.61,0,0,1,1.92,1.33,6.08,6.08,0,0,1,1.3,2.14,7.86,7.86,0,0,1,.48,2.79A6.87,6.87,0,0,1,403.63,37a5.68,5.68,0,0,1-4.31,1.86,5.18,5.18,0,0,1-2.71-.74,4.8,4.8,0,0,1-1.85-2v9h-2.28V25.58h2.2l.05,2.52a4.75,4.75,0,0,1,1.85-2A5.15,5.15,0,0,1,399.32,25.33Zm-.44,11.51a3.9,3.9,0,0,0,3-1.31,4.84,4.84,0,0,0,1.22-3.46,4.82,4.82,0,0,0-1.22-3.45,3.93,3.93,0,0,0-3-1.31,4,4,0,0,0-3.05,1.36,5.3,5.3,0,0,0,0,6.81A4,4,0,0,0,398.88,36.84Z"/>
      <path class="cls-1" d="M412,38.79a4.35,4.35,0,0,1-2.84-.89A3.17,3.17,0,0,1,408,35.25a3.77,3.77,0,0,1,.36-1.7,3,3,0,0,1,1.05-1.18,6.87,6.87,0,0,1,1.52-.73,13.82,13.82,0,0,1,2-.47l2.09-.34c.77-.14,1.15-.54,1.15-1.2a2.26,2.26,0,0,0-.81-1.93,3.77,3.77,0,0,0-4.08,0,2.45,2.45,0,0,0-1,1.82l-2.06-.44a3.93,3.93,0,0,1,1.62-2.77,6.07,6.07,0,0,1,3.53-.93,7.33,7.33,0,0,1,1.88.23,5,5,0,0,1,1.57.73A3.19,3.19,0,0,1,418,27.71a5.16,5.16,0,0,1,.4,2.13v5.35a2.21,2.21,0,0,0,.3,1.36,1.29,1.29,0,0,0,1,.34h.21v1.65h-1.13c-1.4,0-2.22-.58-2.45-1.75h-.11A4.93,4.93,0,0,1,412,38.79Zm.52-1.84a3.5,3.5,0,0,0,2.79-1.25,5.19,5.19,0,0,0,1.05-3.43l-3.43.66a4.66,4.66,0,0,0-2,.72,1.9,1.9,0,0,0,0,2.84A2.7,2.7,0,0,0,412.49,37Z"/>
      <path class="cls-1" d="M427.22,38.79a6.15,6.15,0,0,1-3.49-.93,3.84,3.84,0,0,1-1.7-2.67l2-.56a2.78,2.78,0,0,0,1.06,1.8,3.46,3.46,0,0,0,2.13.64,4,4,0,0,0,1.24-.18,2,2,0,0,0,1-.63,1.75,1.75,0,0,0,.38-1.18,1.53,1.53,0,0,0-.11-.54,2.46,2.46,0,0,0-.21-.43,1.25,1.25,0,0,0-.37-.35,3.46,3.46,0,0,0-.44-.28,5,5,0,0,0-.59-.24,5.72,5.72,0,0,0-.63-.21l-.72-.22L426,32.6a14.07,14.07,0,0,1-1.35-.48,6.49,6.49,0,0,1-1.09-.62,2.5,2.5,0,0,1-.85-1A3.71,3.71,0,0,1,423,27a3.55,3.55,0,0,1,1.64-1.21,6.34,6.34,0,0,1,2.3-.38,5.66,5.66,0,0,1,3.16.84,3.63,3.63,0,0,1,1.57,2.53l-1.87.48a2.46,2.46,0,0,0-1-1.64,3.47,3.47,0,0,0-3.6-.09,1.52,1.52,0,0,0-.72,1.39,1.33,1.33,0,0,0,.19.71,2,2,0,0,0,.39.51,2.31,2.31,0,0,0,.71.39c.34.14.6.23.76.28l.95.24a.8.8,0,0,0,.2.05c.51.14.93.25,1.25.35a7.34,7.34,0,0,1,1.12.48,3.89,3.89,0,0,1,1,.7,3.49,3.49,0,0,1,.63,1A3.59,3.59,0,0,1,432,35a3.79,3.79,0,0,1-.39,1.75,3,3,0,0,1-1.06,1.19,5.28,5.28,0,0,1-1.51.66A7.43,7.43,0,0,1,427.22,38.79Z"/>
      <path class="cls-1" d="M455.84,25.33a4.19,4.19,0,0,1,3,1.1,4.09,4.09,0,0,1,1.15,3.1v9h-2.28V30.12A2.93,2.93,0,0,0,457,28a2.41,2.41,0,0,0-1.8-.72,2.54,2.54,0,0,0-2,.82,3.5,3.5,0,0,0-.75,2.45v8h-2.32V30.21a3.08,3.08,0,0,0-.72-2.21,2.46,2.46,0,0,0-1.84-.74,2.56,2.56,0,0,0-2,.83,3.68,3.68,0,0,0-.76,2.52v7.93h-2.28v-13h2.28v1.68a4,4,0,0,1,1.49-1.43,4.24,4.24,0,0,1,2.06-.5,4.44,4.44,0,0,1,2.21.55,3.38,3.38,0,0,1,1.44,1.57,4.06,4.06,0,0,1,1.56-1.57A4.47,4.47,0,0,1,455.84,25.33Z"/>
      <path class="cls-1" d="M469.88,38.79a6.77,6.77,0,0,1-3.32-.8,5.94,5.94,0,0,1-2.34-2.35,7.21,7.21,0,0,1-.86-3.58,6.61,6.61,0,0,1,1.84-4.89,6.9,6.9,0,0,1,9.38,0,6.64,6.64,0,0,1,1.83,4.89A6.58,6.58,0,0,1,474.57,37,6.34,6.34,0,0,1,469.88,38.79Zm0-1.9a4,4,0,0,0,3.06-1.33,4.93,4.93,0,0,0,1.22-3.5,5,5,0,0,0-1.22-3.5,4,4,0,0,0-3.06-1.33,4,4,0,0,0-3,1.33,5,5,0,0,0-1.21,3.5,5,5,0,0,0,1.21,3.5A3.92,3.92,0,0,0,469.87,36.89Z"/>
      <path class="cls-1" d="M489.55,18.29h2.28V38.54h-2.2L489.58,36a4.74,4.74,0,0,1-1.85,2,5.13,5.13,0,0,1-2.74.75,5.85,5.85,0,0,1-2.35-.48A5.91,5.91,0,0,1,480.71,37a6.17,6.17,0,0,1-1.3-2.14,7.84,7.84,0,0,1-.48-2.78,6.81,6.81,0,0,1,1.76-4.87,5.69,5.69,0,0,1,4.3-1.87,5.24,5.24,0,0,1,2.71.73,4.8,4.8,0,0,1,1.85,2Zm-4.09,18.55a3.89,3.89,0,0,0,3-1.36,5.34,5.34,0,0,0,0-6.81,3.87,3.87,0,0,0-3-1.37,4,4,0,0,0-3,1.32,4.93,4.93,0,0,0-1.22,3.45,4.91,4.91,0,0,0,1.22,3.45A4,4,0,0,0,485.46,36.84Z"/>
      <path class="cls-1" d="M507.81,31.81l0,.62H497.66a4.55,4.55,0,0,0,1.24,3.31,4,4,0,0,0,3,1.15,3.91,3.91,0,0,0,2.15-.61,4.15,4.15,0,0,0,1.48-1.72l2,.44a5.85,5.85,0,0,1-2.21,2.78,6.09,6.09,0,0,1-3.44,1,6.28,6.28,0,0,1-4.67-1.8,6.72,6.72,0,0,1-1.78-4.93,6.68,6.68,0,0,1,1.79-4.92,6.19,6.19,0,0,1,4.59-1.81A5.88,5.88,0,0,1,506.17,27,6.61,6.61,0,0,1,507.81,31.81Zm-6-4.72a4,4,0,0,0-2.69.91,4.2,4.2,0,0,0-1.37,2.67h7.77A3.85,3.85,0,0,0,504.38,28,3.66,3.66,0,0,0,501.81,27.09Z"/>
      <path class="cls-1" d="M511.38,38.54V18.29h2.31V38.54Z"/>
      <path class="cls-1" d="M523.79,38.79a6.77,6.77,0,0,1-3.32-.8,5.82,5.82,0,0,1-2.34-2.35,7.22,7.22,0,0,1-.87-3.58,6.65,6.65,0,0,1,1.84-4.89,6.9,6.9,0,0,1,9.38,0,6.61,6.61,0,0,1,1.84,4.89A6.61,6.61,0,0,1,528.48,37,6.34,6.34,0,0,1,523.79,38.79Zm0-1.9a4,4,0,0,0,3.06-1.33,4.93,4.93,0,0,0,1.22-3.5,5,5,0,0,0-1.22-3.5,4,4,0,0,0-3.06-1.33,3.93,3.93,0,0,0-3,1.33,5,5,0,0,0-1.21,3.5,5,5,0,0,0,1.21,3.5A3.9,3.9,0,0,0,523.78,36.89Z"/>
      <path class="cls-1" d="M547.23,38.79a8.41,8.41,0,0,1-4.84-1.31,5.49,5.49,0,0,1-2.42-3.6l2.38-.57A3.9,3.9,0,0,0,544,35.84a5.61,5.61,0,0,0,3.28.92,7,7,0,0,0,1.23-.1,4.93,4.93,0,0,0,1.11-.35,3.33,3.33,0,0,0,.92-.6,2.58,2.58,0,0,0,.6-.91,3.08,3.08,0,0,0,.21-1.24,2.75,2.75,0,0,0-.16-.88,2.8,2.8,0,0,0-.37-.69,2.53,2.53,0,0,0-.63-.56,8.24,8.24,0,0,0-.75-.45,6.62,6.62,0,0,0-.93-.37c-.39-.14-.72-.24-1-.31l-1.07-.3L546.3,30c-.52-.13-.93-.25-1.25-.35s-.71-.23-1.16-.4a9.13,9.13,0,0,1-1.1-.5,8.09,8.09,0,0,1-.9-.64,3.13,3.13,0,0,1-.74-.82,4.61,4.61,0,0,1-.63-2.37,4.74,4.74,0,0,1,.86-2.85,5.09,5.09,0,0,1,2.23-1.74,8.07,8.07,0,0,1,3.07-.55,8.38,8.38,0,0,1,4.46,1.14,5.11,5.11,0,0,1,2.37,3.37l-2.3.58a3.49,3.49,0,0,0-1.54-2.28,5.29,5.29,0,0,0-2.9-.77,5.42,5.42,0,0,0-1.42.18,4.13,4.13,0,0,0-1.24.52,2.6,2.6,0,0,0-.89,1,3,3,0,0,0-.33,1.42,2.21,2.21,0,0,0,.14.78,2.33,2.33,0,0,0,.32.63,2.22,2.22,0,0,0,.57.51,5.39,5.39,0,0,0,.69.41,6.91,6.91,0,0,0,.87.34l.92.29,1,.27A20.66,20.66,0,0,1,551,29.28a4.5,4.5,0,0,1,2.75,3.41,5.54,5.54,0,0,1-.48,3.2,4.21,4.21,0,0,1-1.46,1.66,6.75,6.75,0,0,1-2.08.93A9.44,9.44,0,0,1,547.23,38.79Z"/>
      <path class="cls-1" d="M566.2,38.79a9.91,9.91,0,0,1-3.65-.66,8.91,8.91,0,0,1-2.93-1.87,8.25,8.25,0,0,1-2-3,10.65,10.65,0,0,1-.71-4,10.84,10.84,0,0,1,.71-4,8.71,8.71,0,0,1,2-3,8.6,8.6,0,0,1,2.93-1.87,9.91,9.91,0,0,1,3.65-.66,9.72,9.72,0,0,1,3.63.67,8.55,8.55,0,0,1,2.92,1.87,8.45,8.45,0,0,1,2,3,11.54,11.54,0,0,1,0,8,8.54,8.54,0,0,1-2,3,8.86,8.86,0,0,1-2.92,1.87A9.92,9.92,0,0,1,566.2,38.79Zm0-2.22a6.64,6.64,0,0,0,4.91-2,7.26,7.26,0,0,0,1.95-5.36,8.49,8.49,0,0,0-.54-3.09,6.3,6.3,0,0,0-1.46-2.29,6.47,6.47,0,0,0-2.18-1.4,7.63,7.63,0,0,0-5.38,0,6.22,6.22,0,0,0-3.66,3.69,9.33,9.33,0,0,0,0,6.2,6.45,6.45,0,0,0,1.47,2.31,6.57,6.57,0,0,0,2.19,1.4A7.24,7.24,0,0,0,566.2,36.57Z"/>
      <path class="cls-1" d="M585.38,38.79a8.41,8.41,0,0,1-4.84-1.31,5.53,5.53,0,0,1-2.42-3.6l2.39-.57a3.85,3.85,0,0,0,1.67,2.53,5.63,5.63,0,0,0,3.28.92,7,7,0,0,0,1.23-.1,4.78,4.78,0,0,0,1.11-.35,3.33,3.33,0,0,0,.92-.6,2.58,2.58,0,0,0,.6-.91,3.26,3.26,0,0,0,.22-1.24,2.75,2.75,0,0,0-.17-.88A2.51,2.51,0,0,0,589,32a2.46,2.46,0,0,0-.62-.56c-.28-.18-.53-.33-.76-.45a5.75,5.75,0,0,0-.93-.37c-.39-.14-.71-.24-1-.31l-1.07-.3-.19-.05c-.51-.13-.93-.25-1.25-.35s-.7-.23-1.15-.4a7.88,7.88,0,0,1-1.1-.5,7.31,7.31,0,0,1-.91-.64,3.32,3.32,0,0,1-.74-.82,4.61,4.61,0,0,1-.63-2.37,4.68,4.68,0,0,1,.87-2.85,5,5,0,0,1,2.22-1.74,8.11,8.11,0,0,1,3.07-.55,8.38,8.38,0,0,1,4.46,1.14,5.08,5.08,0,0,1,2.37,3.37l-2.3.58a3.46,3.46,0,0,0-1.54-2.28,5.29,5.29,0,0,0-2.9-.77,5.47,5.47,0,0,0-1.42.18,4.13,4.13,0,0,0-1.24.52,2.5,2.5,0,0,0-.88,1,3,3,0,0,0-.33,1.42,2.2,2.2,0,0,0,.13.78,2.35,2.35,0,0,0,.33.63,2.16,2.16,0,0,0,.56.51,4.84,4.84,0,0,0,.7.41,6.14,6.14,0,0,0,.86.34l.92.29,1,.27a20.66,20.66,0,0,1,3.57,1.19,4.51,4.51,0,0,1,2.76,3.41,6.73,6.73,0,0,1,.05.8,5.12,5.12,0,0,1-.54,2.4A4.21,4.21,0,0,1,590,37.55a6.65,6.65,0,0,1-2.08.93A9.44,9.44,0,0,1,585.38,38.79Z"/>
      <path class="cls-1" d="M605.92,20v2.15h-4.76V38.54h-2.34V22.13h-4.77V20Z"/>
      <path class="cls-1" d="M620,38.54l-1.6-4.44H610l-1.59,4.44H606L612.83,20h2.82l6.85,18.56ZM610.79,32h6.91l-3.46-9.67Z"/>
      <path class="cls-1" d="M633.2,38.79a9.91,9.91,0,0,1-3.65-.66,8.91,8.91,0,0,1-2.93-1.87,8.27,8.27,0,0,1-2-3,11.61,11.61,0,0,1,0-8,8.71,8.71,0,0,1,2-3,8.6,8.6,0,0,1,2.93-1.87,9.91,9.91,0,0,1,3.65-.66,9.44,9.44,0,0,1,4.94,1.3,8.19,8.19,0,0,1,3.26,3.63l-2.17.9a6.15,6.15,0,0,0-2.44-2.65A7,7,0,0,0,633.2,22a7.45,7.45,0,0,0-2.7.49,6.42,6.42,0,0,0-2.19,1.4,6.32,6.32,0,0,0-1.47,2.29,9.27,9.27,0,0,0,0,6.18,6.28,6.28,0,0,0,1.47,2.3A6.42,6.42,0,0,0,630.5,36a7.24,7.24,0,0,0,2.7.5,7,7,0,0,0,3.59-.93A6.21,6.21,0,0,0,639.23,33l2.17.88a8,8,0,0,1-3.26,3.63A9.39,9.39,0,0,1,633.2,38.79Z"/>
    </g>
    <g>
      <path class="cls-2" d="M521.44,184.83a233.62,233.62,0,0,1,75.82,43.82A81.38,81.38,0,0,1,618,211.53c.49-.28,1-.53,1.47-.79a261.76,261.76,0,0,0-93.66-54.15c0,.58,0,1.16,0,1.74A81.27,81.27,0,0,1,521.44,184.83Z"/>
      <path class="cls-3" d="M367.52,626.6a233.61,233.61,0,0,1-75.83-43.83,81,81,0,0,1-20.75,17.12c-.49.28-1,.53-1.47.8a261.73,261.73,0,0,0,93.66,54.14c0-.58,0-1.15,0-1.73A81.27,81.27,0,0,1,367.52,626.6Z"/>
      <path class="cls-4" d="M291.7,228.65a233.64,233.64,0,0,1,75.82-43.83,81.16,81.16,0,0,1-4.43-26.49c0-.58,0-1.16,0-1.74a261.73,261.73,0,0,0-93.66,54.14c.49.27,1,.52,1.47.8A81.38,81.38,0,0,1,291.7,228.65Z"/>
      <path class="cls-5" d="M597.26,582.77a233.64,233.64,0,0,1-75.82,43.83,81.27,81.27,0,0,1,4.43,26.5c0,.58,0,1.15,0,1.73a261.73,261.73,0,0,0,93.66-54.14c-.49-.27-1-.52-1.47-.8A81.17,81.17,0,0,1,597.26,582.77Z"/>
      <path class="cls-6" d="M674.23,361.92a234.77,234.77,0,0,1,0,87.58,81.22,81.22,0,0,1,25.19,9.42c.5.29,1,.6,1.47.9a264.17,264.17,0,0,0,0-108.21c-.49.3-1,.61-1.47.9A81.19,81.19,0,0,1,674.23,361.92Z"/>
      <path class="cls-7" d="M214.73,449.5a235.34,235.34,0,0,1,0-87.58,81.14,81.14,0,0,1-25.18-9.41c-.51-.29-1-.6-1.48-.9a263.71,263.71,0,0,0,0,108.21c.49-.3,1-.61,1.48-.9A81.16,81.16,0,0,1,214.73,449.5Z"/>
      <path class="cls-8" d="M444.48,744.49a91.4,91.4,0,0,1-22.11-180.08l22.11-38.3,22.11,38.3a91.4,91.4,0,0,1-22.11,180.08Z"/>
      <path class="cls-3" d="M460.13,573.22l-15.65-27.11-15.65,27.11a81.39,81.39,0,1,0,31.3,0Z"/>
      <path class="cls-8" d="M422.37,247a91.39,91.39,0,1,1,44.22,0l-22.11,38.31Z"/>
      <path class="cls-2" d="M460.13,238.2l-15.65,27.12L428.83,238.2a81.39,81.39,0,1,1,31.3,0Z"/>
      <path class="cls-8" d="M658.64,620.81a91.43,91.43,0,0,1-87.78-116.6l-22.11-38.3H593a91.4,91.4,0,1,1,65.67,154.9Z"/>
      <path class="cls-5" d="M597.37,475.91h-31.3L581.72,503a81.39,81.39,0,1,0,15.65-27.11Z"/>
      <path class="cls-8" d="M230.15,373.43a91.4,91.4,0,1,1,88-66.22l22.11,38.31H296A91.44,91.44,0,0,1,230.15,373.43Z"/>
      <path class="cls-4" d="M307.24,308.4l15.65,27.12h-31.3a81.41,81.41,0,1,1,15.65-27.12Z"/>
      <path class="cls-8" d="M230.32,620.81A91.41,91.41,0,0,1,142,505.75a91.39,91.39,0,0,1,154-39.84h44.23L318.1,504.22a91.42,91.42,0,0,1-87.78,116.59Z"/>
      <path class="cls-7" d="M307.24,503l15.65-27.11h-31.3A81.4,81.4,0,1,0,307.24,503Z"/>
      <path class="cls-8" d="M658.81,373.43A91.37,91.37,0,0,1,593,345.51H548.75l22.11-38.3a91.37,91.37,0,1,1,87.95,66.22Z"/>
      <path class="cls-6" d="M597.37,335.51h-31.3l15.65-27.11a81.39,81.39,0,1,1,15.65,27.11Z"/>
      <path class="cls-1" d="M555.85,405.71A111.37,111.37,0,1,1,444.48,294.34,111.37,111.37,0,0,1,555.85,405.71Z"/>
      <path class="cls-8" d="M535.71,405.71a91.23,91.23,0,1,1-91.23-91.23A91.23,91.23,0,0,1,535.71,405.71Z"/>
      <g>
        <path class="cls-1" d="M386.49,421.12a12.24,12.24,0,0,1-7-1.94,7.76,7.76,0,0,1-3.41-5.42l5.43-1.25a4.59,4.59,0,0,0,1.67,3.2,5.56,5.56,0,0,0,3.55,1.11,4.56,4.56,0,0,0,2.76-.78,2.58,2.58,0,0,0,1.05-2.3,2.42,2.42,0,0,0-.89-1.87,5.78,5.78,0,0,0-1.78-1.15c-.59-.23-1.54-.54-2.84-.94l-.39-.12-1.61-.53c-.41-.14-.91-.33-1.52-.58a10,10,0,0,1-1.47-.74,10.33,10.33,0,0,1-1.21-.91,4.91,4.91,0,0,1-1-1.16,5.94,5.94,0,0,1-.61-1.46,6.17,6.17,0,0,1-.25-1.8,6.86,6.86,0,0,1,1.18-4,7.24,7.24,0,0,1,3.19-2.54,11.75,11.75,0,0,1,4.57-.85,14.2,14.2,0,0,1,3.3.37,11.7,11.7,0,0,1,2.95,1.13,7.18,7.18,0,0,1,2.35,2.08,7.8,7.8,0,0,1,1.34,3.08L390.72,403q-.68-3.63-4.55-3.63a5,5,0,0,0-2.82.74,2.48,2.48,0,0,0-1.1,2.22c0,.93.61,1.67,1.84,2.25a27.67,27.67,0,0,0,3.52,1.21l1.68.52c.43.14,1,.35,1.63.61a11.82,11.82,0,0,1,1.59.78,11.45,11.45,0,0,1,1.33,1A4.89,4.89,0,0,1,395,410a6.61,6.61,0,0,1,.7,1.56,6.88,6.88,0,0,1,.28,2,7.61,7.61,0,0,1-.51,2.85,6.26,6.26,0,0,1-1.4,2.16A8.27,8.27,0,0,1,392,420a10.12,10.12,0,0,1-2.57.87A15,15,0,0,1,386.49,421.12Z"/>
        <path class="cls-1" d="M412,421.12a13.73,13.73,0,0,1-6.65-1.59,11.49,11.49,0,0,1-4.61-4.56,14.83,14.83,0,0,1,0-13.75,11.44,11.44,0,0,1,4.61-4.54,14.76,14.76,0,0,1,13.29,0,11.48,11.48,0,0,1,4.6,4.54,14.83,14.83,0,0,1,0,13.75,11.55,11.55,0,0,1-4.61,4.56A13.71,13.71,0,0,1,412,421.12Zm-5.54-7a8,8,0,0,0,11.07,0,9.26,9.26,0,0,0,0-11.94,8.06,8.06,0,0,0-11.07,0,9.3,9.3,0,0,0,0,11.94Z"/>
        <path class="cls-1" d="M438,421.12a12.27,12.27,0,0,1-7-1.94,7.76,7.76,0,0,1-3.41-5.42l5.43-1.25a4.59,4.59,0,0,0,1.67,3.2,5.56,5.56,0,0,0,3.55,1.11A4.61,4.61,0,0,0,441,416a2.63,2.63,0,0,0,1.05-2.3,2.43,2.43,0,0,0-.9-1.87,5.74,5.74,0,0,0-1.77-1.15c-.59-.23-1.54-.54-2.85-.94l-.39-.12-1.61-.53c-.41-.14-.91-.33-1.51-.58a10,10,0,0,1-1.47-.74,10.37,10.37,0,0,1-1.22-.91,5.15,5.15,0,0,1-1-1.16,6.35,6.35,0,0,1-.61-1.46,6.52,6.52,0,0,1-.25-1.8,6.79,6.79,0,0,1,1.19-4,7.22,7.22,0,0,1,3.18-2.54,11.75,11.75,0,0,1,4.57-.85,14.2,14.2,0,0,1,3.3.37,11.55,11.55,0,0,1,3,1.13,7.32,7.32,0,0,1,2.36,2.08,8,8,0,0,1,1.34,3.08L442.28,403q-.69-3.63-4.56-3.63a5,5,0,0,0-2.82.74,2.5,2.5,0,0,0-1.1,2.22c0,.93.61,1.67,1.84,2.25a27.67,27.67,0,0,0,3.52,1.21l1.68.52c.43.14,1,.35,1.63.61a11.25,11.25,0,0,1,1.59.78,11.48,11.48,0,0,1,1.34,1,5.29,5.29,0,0,1,1.13,1.26,7,7,0,0,1,.69,1.56,6.88,6.88,0,0,1,.28,2,7.61,7.61,0,0,1-.51,2.85,6.23,6.23,0,0,1-1.39,2.16,8.33,8.33,0,0,1-2.1,1.48,10.12,10.12,0,0,1-2.57.87A14.91,14.91,0,0,1,438,421.12Z"/>
        <path class="cls-1" d="M466.92,395.45v4.63h-6v20.68h-5.21V400.08h-6v-4.63Z"/>
        <path class="cls-1" d="M485.69,420.76l-1.84-5.21H473.21l-1.84,5.21H466l9.32-25.31h6.42l9.32,25.31Zm-10.93-9.61h7.54l-3.76-10.74Z"/>
        <path class="cls-1" d="M504.81,421.12a14.06,14.06,0,0,1-5.15-.93,12.06,12.06,0,0,1-4.11-2.6,11.58,11.58,0,0,1-2.7-4.11,14.46,14.46,0,0,1-1-5.38,13.75,13.75,0,0,1,1.68-6.88,11.47,11.47,0,0,1,4.62-4.54,13.8,13.8,0,0,1,6.64-1.58,13.47,13.47,0,0,1,7.43,2,11.24,11.24,0,0,1,4.54,5.64l-4.91,1.79a6.94,6.94,0,0,0-2.71-3.42,7.82,7.82,0,0,0-4.35-1.22,7.43,7.43,0,0,0-5.53,2.2,9.25,9.25,0,0,0,0,11.92,7.4,7.4,0,0,0,5.52,2.22,7.76,7.76,0,0,0,4.34-1.23,7,7,0,0,0,2.72-3.43l4.91,1.79a11.3,11.3,0,0,1-4.54,5.65A13.4,13.4,0,0,1,504.81,421.12Z"/>
      </g>
      <g class="cls-9">
        <path d="M437.52,112.78h15.94v84.05h-16.7V130l-19.31,18V130.75Z"/>
      </g>
      <g class="cls-9">
        <path d="M653.55,308.28h36.17v15.1H629.89V310.63l33.76-34.46q7.33-7.41,7.34-14.63a10.34,10.34,0,0,0-3-7.86q-3-2.88-8.55-2.88-12,0-12,13.68v6.28l-16.85-1.7v-4.23q0-13.22,7.75-20.4t21-7.2q12.57,0,20.47,6.52t7.9,17.91A25.44,25.44,0,0,1,685,273.29a48.77,48.77,0,0,1-8.49,11.33Z"/>
      </g>
      <g class="cls-9">
        <path d="M659.77,574.53q-15.84,0-23.13-7.75t-7.28-23.73l17.32-.76q0,3.71.26,6.22a21.65,21.65,0,0,0,1.06,4.82,8.59,8.59,0,0,0,2.23,3.61,10.16,10.16,0,0,0,3.82,2.09,19.1,19.1,0,0,0,5.72.76q6.53,0,10-3.41a11.89,11.89,0,0,0,3.49-8.92q0-6-3.35-9.19t-9-3.14h-3.29V522h3.05a9.21,9.21,0,0,0,7-3,10.68,10.68,0,0,0,2.79-7.58,8.54,8.54,0,0,0-3-7,12.4,12.4,0,0,0-8.05-2.47,12.22,12.22,0,0,0-4.58.79,8.57,8.57,0,0,0-3.08,2,9,9,0,0,0-1.82,3.11,16.67,16.67,0,0,0-.88,3.7,36.19,36.19,0,0,0-.21,4.11l-17.08-.82q0-13.33,7.28-20.41t20.2-7.07q11.75,0,19.37,6.49a20.32,20.32,0,0,1,7.64,16.12A18.37,18.37,0,0,1,683,520.86a18.73,18.73,0,0,1-7.43,6.46,21.1,21.1,0,0,1,5.4,2.4,22,22,0,0,1,4.73,4.06,18,18,0,0,1,3.49,6.16,24.87,24.87,0,0,1,1.3,8.22q0,12-8.4,19.17T659.77,574.53Z"/>
      </g>
      <g class="cls-9">
        <path d="M472.55,663.28v15.1H462.34v16.08H445.42V678.38h-39V663.23l30.06-53.62h25.9v53.67Zm-50.5,0h23.37V619.77Z"/>
      </g>
      <g class="cls-9">
        <path d="M224.69,518.33q32.59,0,32.59,26.78,0,13.44-8.22,21.46t-21.67,8a35.86,35.86,0,0,1-15.18-3.15,26.06,26.06,0,0,1-11-9.33,24.93,24.93,0,0,1-4.17-14.3,25.85,25.85,0,0,1,.35-4.23l16.79-.76a25.31,25.31,0,0,0-.41,3.76q0,6.23,3.82,9.36a14.33,14.33,0,0,0,9.45,3.14q6.41,0,9.87-3.61t3.46-9.71q0-6.46-4.23-9.93t-14.21-3.46H199.68l3.52-43.87h50.09v15.09H218.41l-1.12,14.74Z"/>
      </g>
      <g class="cls-9">
        <path d="M257.58,294.9a28.36,28.36,0,0,1-9.37,21.34,32.27,32.27,0,0,1-10.07,6.05,34.16,34.16,0,0,1-24.28-.06,30.18,30.18,0,0,1-9.92-6.19A29.2,29.2,0,0,1,195,295q0-10.33,7.52-20.73l26.42-35.7h19.2l-22,28.71A28.22,28.22,0,0,1,230,267a27.67,27.67,0,0,1,10.42,2,28.22,28.22,0,0,1,8.78,5.55,25.74,25.74,0,0,1,6.08,8.84A29.82,29.82,0,0,1,257.58,294.9ZM241,294.49a14.57,14.57,0,0,0-4.11-11,15,15,0,0,0-11.1-4.25,14.36,14.36,0,0,0-10.75,4.28,15.1,15.1,0,0,0-4.28,10.69q-.12,6.75,3.93,10.89t10.92,4.14a15.3,15.3,0,0,0,11-4.11A14.32,14.32,0,0,0,241,294.49Z"/>
      </g>
      <g>
        <path class="cls-1" d="M613.87,292.11a7.71,7.71,0,0,1-3.71-.89,6.35,6.35,0,0,1-2.57-2.54,8.27,8.27,0,0,1,0-7.66,6.38,6.38,0,0,1,2.57-2.53,8.24,8.24,0,0,1,7.41,0,6.38,6.38,0,0,1,2.57,2.53,8.27,8.27,0,0,1,0,7.66,6.35,6.35,0,0,1-2.57,2.54A7.67,7.67,0,0,1,613.87,292.11Zm-3.09-3.92a4.5,4.5,0,0,0,6.18,0,4.61,4.61,0,0,0,1.21-3.34,4.56,4.56,0,0,0-1.21-3.32,4.5,4.5,0,0,0-6.18,0,4.56,4.56,0,0,0-1.21,3.32A4.61,4.61,0,0,0,610.78,288.19Z"/>
        <path class="cls-1" d="M631.35,284.46A3.31,3.31,0,0,1,634,288a3.77,3.77,0,0,1-1.13,2.89,4.59,4.59,0,0,1-3.3,1.06h-5.81V277.8h4.57a5.2,5.2,0,0,1,3.46,1,3.56,3.56,0,0,1,1.19,2.85,3.36,3.36,0,0,1-.41,1.67A2.74,2.74,0,0,1,631.35,284.46Zm-3-4.23h-1.78v3.32h1.91a1.76,1.76,0,0,0,1.35-.47,1.69,1.69,0,0,0,.45-1.23,1.52,1.52,0,0,0-.49-1.17A2.07,2.07,0,0,0,628.37,280.23Zm.67,9.17a2.25,2.25,0,0,0,1.61-.49,1.73,1.73,0,0,0,.52-1.27,1.79,1.79,0,0,0-.52-1.31,2.27,2.27,0,0,0-1.67-.52h-2.39v3.59Z"/>
        <path class="cls-1" d="M638.76,292.11a8,8,0,0,1-3.73-1l1.24-2.41a3.71,3.71,0,0,0,2.14.75,1.56,1.56,0,0,0,1.31-.56,2.91,2.91,0,0,0,.43-1.78V277.8h2.93v9.87A4.36,4.36,0,0,1,641.9,291,4.28,4.28,0,0,1,638.76,292.11Z"/>
        <path class="cls-1" d="M654.69,280.38h-5.23v3.2h4.63v2.55h-4.63v3.2h5.23v2.58h-8.18V277.8h8.18Z"/>
        <path class="cls-1" d="M665.89,277.8v2.58h-3.35v11.53h-2.9V280.38h-3.37V277.8Z"/>
        <path class="cls-1" d="M668.11,291.91V277.8H671v14.11Z"/>
        <path class="cls-1" d="M683.66,277.8h3.11l-5.21,14.11h-3.23l-5.18-14.11h3.1l3.7,10.69Z"/>
        <path class="cls-1" d="M694.44,292.11a7.68,7.68,0,0,1-3.71-.89,6.29,6.29,0,0,1-2.57-2.54,8.27,8.27,0,0,1,0-7.66,6.32,6.32,0,0,1,2.57-2.53,8.24,8.24,0,0,1,7.41,0,6.38,6.38,0,0,1,2.57,2.53,8.35,8.35,0,0,1,0,7.66,6.37,6.37,0,0,1-2.58,2.54A7.63,7.63,0,0,1,694.44,292.11Zm-3.09-3.92a4.48,4.48,0,0,0,6.17,0,4.57,4.57,0,0,0,1.21-3.34,4.52,4.52,0,0,0-1.21-3.32,4.48,4.48,0,0,0-6.17,0,4.52,4.52,0,0,0-1.21,3.32A4.57,4.57,0,0,0,691.35,288.19Z"/>
        <path class="cls-1" d="M709,292.11A6.82,6.82,0,0,1,705,291a4.34,4.34,0,0,1-1.9-3l3-.7a2.54,2.54,0,0,0,.93,1.79,3.1,3.1,0,0,0,2,.62,2.55,2.55,0,0,0,1.54-.44,1.45,1.45,0,0,0,.58-1.28,1.37,1.37,0,0,0-.49-1.05,3.52,3.52,0,0,0-1-.64c-.33-.12-.86-.3-1.59-.52l-.22-.07-.89-.29-.85-.33a6.22,6.22,0,0,1-.82-.41,5.22,5.22,0,0,1-.68-.51,2.64,2.64,0,0,1-.57-.65,3.4,3.4,0,0,1-.34-.81,3.56,3.56,0,0,1-.13-1,3.74,3.74,0,0,1,.66-2.22,4,4,0,0,1,1.77-1.42,6.44,6.44,0,0,1,2.55-.47,7.86,7.86,0,0,1,1.84.2,6.63,6.63,0,0,1,1.64.63,4,4,0,0,1,1.32,1.16,4.37,4.37,0,0,1,.74,1.72l-2.83.7a2.29,2.29,0,0,0-2.54-2,2.79,2.79,0,0,0-1.57.41,1.39,1.39,0,0,0-.61,1.24c0,.51.34.93,1,1.25a14.37,14.37,0,0,0,2,.67l.94.3c.24.07.54.19.91.34a5.29,5.29,0,0,1,1.63,1,2.93,2.93,0,0,1,.63.71,4.38,4.38,0,0,1,.39.87,3.83,3.83,0,0,1,.15,1.09,4.21,4.21,0,0,1-.28,1.59,3.37,3.37,0,0,1-.78,1.2,4.69,4.69,0,0,1-1.16.83,5.83,5.83,0,0,1-1.44.49A8.38,8.38,0,0,1,709,292.11Z"/>
      </g>
      <g>
        <path class="cls-1" d="M604.84,527.8h-5.23V531h4.64v2.55h-4.64v3.19h5.23v2.59h-8.18V525.23h8.18Z"/>
        <path class="cls-1" d="M612.55,539.53a6.82,6.82,0,0,1-3.92-1.08,4.29,4.29,0,0,1-1.9-3l3-.69a2.56,2.56,0,0,0,.94,1.78,3.09,3.09,0,0,0,2,.62,2.56,2.56,0,0,0,1.55-.43,1.48,1.48,0,0,0,.58-1.29,1.33,1.33,0,0,0-.5-1,3.08,3.08,0,0,0-1-.64c-.33-.13-.85-.3-1.58-.53l-.22-.06-.9-.3c-.22-.08-.51-.18-.84-.32a5.65,5.65,0,0,1-.82-.41,8,8,0,0,1-.68-.51,2.83,2.83,0,0,1-.57-.65,3.79,3.79,0,0,1-.34-.81,3.62,3.62,0,0,1-.14-1,3.78,3.78,0,0,1,.66-2.22,4.1,4.1,0,0,1,1.78-1.42,6.57,6.57,0,0,1,2.54-.47,8,8,0,0,1,1.85.21,5.93,5.93,0,0,1,1.64.63A3.93,3.93,0,0,1,617,527a4.28,4.28,0,0,1,.75,1.71l-2.83.7a2.3,2.3,0,0,0-2.54-2,2.79,2.79,0,0,0-1.57.41,1.4,1.4,0,0,0-.62,1.24c0,.52.34.94,1,1.25a15.45,15.45,0,0,0,2,.68c.39.11.7.21.94.29s.54.19.91.34a6.71,6.71,0,0,1,.89.44,7.92,7.92,0,0,1,.74.54,2.72,2.72,0,0,1,.63.7,3.76,3.76,0,0,1,.38.88,3.4,3.4,0,0,1,.16,1.08,4.3,4.3,0,0,1-.28,1.6,3.56,3.56,0,0,1-.78,1.2,4.54,4.54,0,0,1-1.17.82,5.37,5.37,0,0,1-1.43.49A8.38,8.38,0,0,1,612.55,539.53Z"/>
        <path class="cls-1" d="M628.65,525.23v2.57H625.3v11.54h-2.9V527.8H619v-2.57Z"/>
        <path class="cls-1" d="M638.32,539.34l-3.67-6.21h-.85v6.21h-2.93V525.23H636a6.09,6.09,0,0,1,2,.32,3.56,3.56,0,0,1,1.43.91,4,4,0,0,1,.8,1.33,4.92,4.92,0,0,1,.26,1.65,3.4,3.4,0,0,1-.77,2.32,3.84,3.84,0,0,1-2.21,1.22l4.24,6.36Zm-4.52-11.68V531h1.72c1.47,0,2.2-.56,2.2-1.68a1.52,1.52,0,0,0-.54-1.24,2.53,2.53,0,0,0-1.66-.45Z"/>
        <path class="cls-1" d="M653.49,539.34l-1-2.91h-5.93l-1,2.91h-3l5.19-14.11h3.59l5.19,14.11ZM647.4,534h4.21l-2.1-6Z"/>
        <path class="cls-1" d="M665.59,525.23v2.57h-3.35v11.54h-2.9V527.8H656v-2.57Z"/>
        <path class="cls-1" d="M676,527.8h-5.23V531h4.64v2.55h-4.64v3.19H676v2.59h-8.18V525.23H676Z"/>
        <path class="cls-1" d="M684.58,539.53a7.68,7.68,0,0,1-2.82-.51,6.58,6.58,0,0,1-2.25-1.44,6.5,6.5,0,0,1-1.47-2.29,7.93,7.93,0,0,1-.53-3,8.19,8.19,0,0,1,.54-3,6.47,6.47,0,0,1,3.8-3.75,8.23,8.23,0,0,1,6.54.34,6.33,6.33,0,0,1,2.54,2.46l-2.56,1.37a3.74,3.74,0,0,0-1.49-1.6,4.28,4.28,0,0,0-2.16-.54,4.09,4.09,0,0,0-3.08,1.24,5.55,5.55,0,0,0,0,6.87,4.13,4.13,0,0,0,3.19,1.29,4.74,4.74,0,0,0,1.72-.3,3.44,3.44,0,0,0,1.37-1,3.54,3.54,0,0,0,.78-1.68h-3.86v-2.35h6.63v7.67h-2.3v-2A5.13,5.13,0,0,1,684.58,539.53Z"/>
        <path class="cls-1" d="M694.51,539.34V525.23h2.93v14.11Z"/>
        <path class="cls-1" d="M710.52,539.34l-1-2.91h-5.93l-1,2.91h-3l5.19-14.11h3.59l5.19,14.11ZM704.43,534h4.21l-2.1-6Z"/>
        <path class="cls-1" d="M720.33,539.53a6.82,6.82,0,0,1-3.92-1.08,4.32,4.32,0,0,1-1.9-3l3-.69a2.55,2.55,0,0,0,.93,1.78,3.1,3.1,0,0,0,2,.62,2.55,2.55,0,0,0,1.54-.43,1.48,1.48,0,0,0,.59-1.29,1.37,1.37,0,0,0-.5-1,3.08,3.08,0,0,0-1-.64c-.33-.13-.86-.3-1.59-.53l-.22-.06-.89-.3c-.23-.08-.51-.18-.85-.32a6.22,6.22,0,0,1-.82-.41,8,8,0,0,1-.68-.51,2.56,2.56,0,0,1-.56-.65,3.8,3.8,0,0,1-.35-.81,3.63,3.63,0,0,1-.13-1,3.78,3.78,0,0,1,.66-2.22,4.08,4.08,0,0,1,1.77-1.42A6.62,6.62,0,0,1,720,525a7.86,7.86,0,0,1,1.84.21,5.93,5.93,0,0,1,1.64.63,4,4,0,0,1,1.32,1.16,4.26,4.26,0,0,1,.74,1.71l-2.83.7a2.3,2.3,0,0,0-2.54-2,2.82,2.82,0,0,0-1.57.41,1.4,1.4,0,0,0-.61,1.24c0,.52.34.94,1,1.25a15.45,15.45,0,0,0,2,.68c.39.11.7.21.94.29s.55.19.91.34a6.14,6.14,0,0,1,.89.44,6.79,6.79,0,0,1,.74.54,2.72,2.72,0,0,1,.63.7,4.23,4.23,0,0,1,.39.88,3.71,3.71,0,0,1,.15,1.08,4.3,4.3,0,0,1-.28,1.6,3.56,3.56,0,0,1-.78,1.2,4.48,4.48,0,0,1-1.16.82,5.44,5.44,0,0,1-1.44.49A8.3,8.3,0,0,1,720.33,539.53Z"/>
      </g>
      <g>
        <path class="cls-1" d="M405.14,649.15v2.58h-3.35v11.53h-2.9V651.73h-3.37v-2.58Z"/>
        <path class="cls-1" d="M415.6,663.26l-1-2.91h-5.93l-1,2.91h-3l5.2-14.11h3.58l5.19,14.11Zm-6.1-5.36h4.21l-2.1-6Zm5.19-12.67-2.22,2.6h-1.73l2.56-3.59Z"/>
        <path class="cls-1" d="M426.26,663.46a7.8,7.8,0,0,1-2.88-.52,6.91,6.91,0,0,1-2.29-1.44,6.75,6.75,0,0,1-1.5-2.3,8.09,8.09,0,0,1-.55-3,7.68,7.68,0,0,1,.94-3.83,6.38,6.38,0,0,1,2.57-2.53,7.67,7.67,0,0,1,3.71-.88,7.48,7.48,0,0,1,4.14,1.14,6.22,6.22,0,0,1,2.53,3.14l-2.73,1a3.88,3.88,0,0,0-1.52-1.9,4.27,4.27,0,0,0-2.42-.69,4.16,4.16,0,0,0-3.09,1.23,5.16,5.16,0,0,0,0,6.65,4.15,4.15,0,0,0,3.08,1.23,4.31,4.31,0,0,0,2.42-.69,3.88,3.88,0,0,0,1.52-1.9l2.73,1a6.21,6.21,0,0,1-2.53,3.15A7.4,7.4,0,0,1,426.26,663.46Z"/>
        <path class="cls-1" d="M443.52,649.15v2.58h-3.35v11.53h-2.9V651.73H433.9v-2.58Z"/>
        <path class="cls-1" d="M445.73,663.26V649.15h2.93v14.11Z"/>
        <path class="cls-1" d="M458.56,663.46a7.8,7.8,0,0,1-2.88-.52,6.81,6.81,0,0,1-2.29-1.44,6.47,6.47,0,0,1-1.5-2.3,7.89,7.89,0,0,1-.55-3,7.58,7.58,0,0,1,.94-3.83,6.32,6.32,0,0,1,2.57-2.53,7.65,7.65,0,0,1,3.71-.88,7.52,7.52,0,0,1,4.14,1.14,6.33,6.33,0,0,1,2.53,3.14l-2.74,1a3.86,3.86,0,0,0-1.51-1.9,4.31,4.31,0,0,0-2.42-.69,4.16,4.16,0,0,0-3.09,1.23,5.17,5.17,0,0,0,0,6.65,4.17,4.17,0,0,0,3.09,1.23,4.28,4.28,0,0,0,2.41-.69,3.83,3.83,0,0,0,1.52-1.9l2.74,1a6.31,6.31,0,0,1-2.53,3.15A7.45,7.45,0,0,1,458.56,663.46Z"/>
        <path class="cls-1" d="M477.07,663.26l-1-2.91h-5.93l-1,2.91h-3l5.2-14.11h3.58l5.2,14.11ZM471,657.9h4.21l-2.1-6Z"/>
        <path class="cls-1" d="M486.88,663.46a6.82,6.82,0,0,1-3.92-1.08,4.31,4.31,0,0,1-1.9-3l3-.7a2.58,2.58,0,0,0,.94,1.79,3.09,3.09,0,0,0,2,.62,2.59,2.59,0,0,0,1.55-.44,1.47,1.47,0,0,0,.58-1.28,1.35,1.35,0,0,0-.5-1.05,3.26,3.26,0,0,0-1-.64c-.33-.12-.86-.3-1.58-.52l-.22-.07-.9-.29q-.35-.12-.84-.33a4.79,4.79,0,0,1-.82-.41,5.22,5.22,0,0,1-.68-.51,2.64,2.64,0,0,1-.57-.65,3.4,3.4,0,0,1-.34-.81,3.55,3.55,0,0,1-.14-1,3.76,3.76,0,0,1,.66-2.22,4,4,0,0,1,1.78-1.42,6.39,6.39,0,0,1,2.54-.47,8,8,0,0,1,1.85.2,6.63,6.63,0,0,1,1.64.63,4,4,0,0,1,1.31,1.16,4.38,4.38,0,0,1,.75,1.72l-2.83.7a2.29,2.29,0,0,0-2.54-2,2.79,2.79,0,0,0-1.57.41,1.39,1.39,0,0,0-.62,1.24c0,.51.34.93,1,1.25a14.37,14.37,0,0,0,2,.67l.94.3c.24.07.54.19.91.34a6.8,6.8,0,0,1,.89.43,7.92,7.92,0,0,1,.74.54,3.42,3.42,0,0,1,.63.71,3.87,3.87,0,0,1,.38.87,3.5,3.5,0,0,1,.16,1.09,4.42,4.42,0,0,1-.28,1.59,3.37,3.37,0,0,1-.78,1.2,4.57,4.57,0,0,1-1.17.83,5.75,5.75,0,0,1-1.43.49A8.38,8.38,0,0,1,486.88,663.46Z"/>
      </g>
      <g>
        <path class="cls-1" d="M190.4,537.93l-1-2.91h-5.93l-1,2.91h-3l5.2-14.11h3.58l5.2,14.11Zm-6.1-5.36h4.21l-2.1-6Z"/>
        <path class="cls-1" d="M201.06,538.13a7.91,7.91,0,0,1-2.87-.52,6.73,6.73,0,0,1-2.29-1.45,6.58,6.58,0,0,1-1.51-2.29,8.09,8.09,0,0,1-.55-3,7.68,7.68,0,0,1,.94-3.83,6.43,6.43,0,0,1,2.58-2.54,7.75,7.75,0,0,1,3.7-.88,7.4,7.4,0,0,1,4.14,1.15,6.22,6.22,0,0,1,2.53,3.14l-2.73,1a3.91,3.91,0,0,0-1.52-1.91,4.34,4.34,0,0,0-2.42-.68,4.12,4.12,0,0,0-3.08,1.23,5.13,5.13,0,0,0,0,6.64,4.12,4.12,0,0,0,3.08,1.24,4.31,4.31,0,0,0,2.42-.69,3.91,3.91,0,0,0,1.52-1.91l2.73,1A6.29,6.29,0,0,1,205.2,537,7.48,7.48,0,0,1,201.06,538.13Z"/>
        <path class="cls-1" d="M216.38,538.13a8,8,0,0,1-2.87-.52,6.83,6.83,0,0,1-2.29-1.45,6.58,6.58,0,0,1-1.51-2.29,8.09,8.09,0,0,1-.54-3,7.68,7.68,0,0,1,.93-3.83,6.43,6.43,0,0,1,2.58-2.54,7.75,7.75,0,0,1,3.7-.88,7.4,7.4,0,0,1,4.14,1.15,6.22,6.22,0,0,1,2.53,3.14l-2.73,1a3.89,3.89,0,0,0-1.51-1.91,4.4,4.4,0,0,0-2.43-.68,4.14,4.14,0,0,0-3.08,1.23,5.16,5.16,0,0,0,0,6.64,4.12,4.12,0,0,0,3.08,1.24,4.29,4.29,0,0,0,2.42-.69,3.85,3.85,0,0,0,1.52-1.91l2.73,1a6.29,6.29,0,0,1-2.53,3.15A7.48,7.48,0,0,1,216.38,538.13Z"/>
        <path class="cls-1" d="M225.46,537.93V523.82h2.93v14.11Z"/>
        <path class="cls-1" d="M238.28,538.13a7.68,7.68,0,0,1-3.71-.89A6.41,6.41,0,0,1,232,534.7a8.27,8.27,0,0,1,0-7.66,6.35,6.35,0,0,1,2.57-2.54,8.24,8.24,0,0,1,7.41,0,6.41,6.41,0,0,1,2.57,2.54,8.27,8.27,0,0,1,0,7.66,6.43,6.43,0,0,1-2.58,2.54A7.63,7.63,0,0,1,238.28,538.13Zm-3.09-3.93a4.46,4.46,0,0,0,6.17,0,5.14,5.14,0,0,0,0-6.65,4.48,4.48,0,0,0-6.17,0,5.17,5.17,0,0,0,0,6.65Z"/>
        <path class="cls-1" d="M257.82,523.82h2.92v14.11h-3.39l-6.25-10.09v10.09h-2.92V523.82h3.35l6.29,10Z"/>
        <path class="cls-1" d="M272.58,526.4h-5.24v3.2H272v2.55h-4.64v3.19h5.24v2.59h-8.19V523.82h8.19Z"/>
        <path class="cls-1" d="M280.28,538.13a6.92,6.92,0,0,1-3.92-1.08,4.34,4.34,0,0,1-1.9-3l3-.69a2.59,2.59,0,0,0,.93,1.78,3,3,0,0,0,2,.62,2.55,2.55,0,0,0,1.54-.43,1.48,1.48,0,0,0,.59-1.29,1.38,1.38,0,0,0-.5-1,3.26,3.26,0,0,0-1-.64c-.33-.13-.86-.3-1.59-.52l-.21-.07-.9-.29-.85-.33a6.22,6.22,0,0,1-.82-.41,5.22,5.22,0,0,1-.68-.51,2.4,2.4,0,0,1-.56-.65,3.35,3.35,0,0,1-.34-.81,3.29,3.29,0,0,1-.14-1,3.78,3.78,0,0,1,.66-2.22,4,4,0,0,1,1.77-1.41,6.44,6.44,0,0,1,2.55-.48,7.86,7.86,0,0,1,1.84.21,6.86,6.86,0,0,1,1.65.63,4,4,0,0,1,1.31,1.16,4.42,4.42,0,0,1,.75,1.71l-2.84.71a2.29,2.29,0,0,0-2.54-2,2.74,2.74,0,0,0-1.57.41,1.37,1.37,0,0,0-.61,1.24c0,.51.34.93,1,1.25a16.33,16.33,0,0,0,2,.67l.93.29.91.34a6.14,6.14,0,0,1,.89.44,6.79,6.79,0,0,1,.74.54,2.89,2.89,0,0,1,.63.7,4.23,4.23,0,0,1,.39.88,3.78,3.78,0,0,1,.15,1.09,4.28,4.28,0,0,1-.28,1.59,3.46,3.46,0,0,1-.78,1.2,4.35,4.35,0,0,1-1.16.83,5.81,5.81,0,0,1-1.44.48A7.58,7.58,0,0,1,280.28,538.13Z"/>
      </g>
      <g>
        <path class="cls-1" d="M397.2,166.74a6.82,6.82,0,0,1-3.92-1.08,4.34,4.34,0,0,1-1.9-3l3-.7a2.58,2.58,0,0,0,.94,1.79,3.09,3.09,0,0,0,2,.62,2.56,2.56,0,0,0,1.55-.44,1.47,1.47,0,0,0,.58-1.28,1.35,1.35,0,0,0-.5-1,3.26,3.26,0,0,0-1-.64c-.32-.12-.85-.3-1.58-.52l-.22-.07-.9-.29c-.22-.08-.51-.19-.84-.33a5.65,5.65,0,0,1-.82-.41,5.22,5.22,0,0,1-.68-.51,2.64,2.64,0,0,1-.57-.65,3.4,3.4,0,0,1-.34-.81,3.55,3.55,0,0,1-.14-1,3.74,3.74,0,0,1,.66-2.22,4.1,4.1,0,0,1,1.78-1.42,6.41,6.41,0,0,1,2.55-.47,8.5,8.5,0,0,1,1.84.2,6.63,6.63,0,0,1,1.64.63,4.06,4.06,0,0,1,1.32,1.16,4.37,4.37,0,0,1,.74,1.72l-2.83.7a2.29,2.29,0,0,0-2.54-2,2.79,2.79,0,0,0-1.57.41,1.39,1.39,0,0,0-.62,1.24c0,.51.35.93,1,1.25a14.37,14.37,0,0,0,2,.67l.94.3c.24.07.54.19.91.34a6.8,6.8,0,0,1,.89.43,7.92,7.92,0,0,1,.74.54,2.93,2.93,0,0,1,.63.71,3.87,3.87,0,0,1,.38.87,3.5,3.5,0,0,1,.16,1.09,4.21,4.21,0,0,1-.28,1.59,3.37,3.37,0,0,1-.78,1.2,4.57,4.57,0,0,1-1.17.83,5.75,5.75,0,0,1-1.43.49A8.38,8.38,0,0,1,397.2,166.74Z"/>
        <path class="cls-1" d="M405.18,166.54V152.43h2.93v14.11Z"/>
        <path class="cls-1" d="M419.93,152.43V155h-3.35v11.53h-2.9V155h-3.37v-2.58Z"/>
        <path class="cls-1" d="M427.37,166.74a7.16,7.16,0,0,1-2.17-.31,5,5,0,0,1-1.74-.92,4.14,4.14,0,0,1-1.18-1.61,5.9,5.9,0,0,1-.42-2.3v-9.17h2.92v8.77a3.09,3.09,0,0,0,.71,2.24,2.84,2.84,0,0,0,3.77,0,3,3,0,0,0,.72-2.23v-8.77h2.93v9.17a5.9,5.9,0,0,1-.42,2.3,4.16,4.16,0,0,1-1.19,1.61,5,5,0,0,1-1.74.92A7.25,7.25,0,0,1,427.37,166.74Z"/>
        <path class="cls-1" d="M445.41,166.54l-1-2.91h-5.92l-1,2.91h-3l5.2-14.11h3.58l5.2,14.11Zm-6.09-5.36h4.21l-2.1-6Z"/>
        <path class="cls-1" d="M456.07,166.74a7.78,7.78,0,0,1-2.87-.52,6.81,6.81,0,0,1-2.29-1.44,6.62,6.62,0,0,1-1.51-2.3,8.09,8.09,0,0,1-.54-3,7.68,7.68,0,0,1,.93-3.83,6.41,6.41,0,0,1,2.58-2.53,7.63,7.63,0,0,1,3.7-.88,7.48,7.48,0,0,1,4.14,1.14,6.22,6.22,0,0,1,2.53,3.14l-2.73,1a3.86,3.86,0,0,0-1.51-1.9,4.32,4.32,0,0,0-2.43-.69,4.14,4.14,0,0,0-3.08,1.23,5.17,5.17,0,0,0,0,6.65,4.15,4.15,0,0,0,3.08,1.23,4.29,4.29,0,0,0,2.42-.69,3.83,3.83,0,0,0,1.52-1.9l2.73,1a6.21,6.21,0,0,1-2.53,3.15A7.4,7.4,0,0,1,456.07,166.74Z"/>
        <path class="cls-1" d="M465.15,166.54V152.43h2.93v14.11Z"/>
        <path class="cls-1" d="M478,166.74a7.68,7.68,0,0,1-3.71-.89,6.29,6.29,0,0,1-2.57-2.54,8.27,8.27,0,0,1,0-7.66,6.32,6.32,0,0,1,2.57-2.53,8.24,8.24,0,0,1,7.41,0,6.38,6.38,0,0,1,2.57,2.53,8.27,8.27,0,0,1,0,7.66,6.35,6.35,0,0,1-2.57,2.54A7.7,7.7,0,0,1,478,166.74Zm-3.09-3.92a4.48,4.48,0,0,0,6.17,0,4.57,4.57,0,0,0,1.22-3.34,4.53,4.53,0,0,0-1.22-3.32,4.48,4.48,0,0,0-6.17,0,4.56,4.56,0,0,0-1.21,3.32A4.61,4.61,0,0,0,474.88,162.82Zm2.22-11.71,2.56-3.59,1.39,1-2.22,2.6Z"/>
        <path class="cls-1" d="M497.51,152.43h2.92v14.11H497l-6.25-10.08v10.08h-2.92V152.43h3.35l6.29,10Z"/>
      </g>
      <g>
        <path class="cls-1" d="M187.2,289.23a7.78,7.78,0,0,1-2.87-.52,6.42,6.42,0,0,1-3.8-3.74,8.09,8.09,0,0,1-.54-3,7.7,7.7,0,0,1,.93-3.83,6.41,6.41,0,0,1,2.58-2.53,7.63,7.63,0,0,1,3.7-.88,7.48,7.48,0,0,1,4.14,1.14,6.21,6.21,0,0,1,2.53,3.15l-2.73,1a3.86,3.86,0,0,0-1.51-1.9,4.32,4.32,0,0,0-2.43-.69,4.14,4.14,0,0,0-3.08,1.23,5.17,5.17,0,0,0,0,6.65,4.16,4.16,0,0,0,3.08,1.24,4.29,4.29,0,0,0,2.42-.69,3.89,3.89,0,0,0,1.52-1.91l2.73,1a6.21,6.21,0,0,1-2.53,3.15A7.4,7.4,0,0,1,187.2,289.23Z"/>
        <path class="cls-1" d="M202.53,289.23a7.67,7.67,0,0,1-3.71-.88,6.37,6.37,0,0,1-2.57-2.55,8.27,8.27,0,0,1,0-7.66,6.32,6.32,0,0,1,2.57-2.53,8.24,8.24,0,0,1,7.41,0,6.38,6.38,0,0,1,2.57,2.53,8.35,8.35,0,0,1,0,7.66,6.46,6.46,0,0,1-2.58,2.55A7.62,7.62,0,0,1,202.53,289.23Zm-3.09-3.92a4.46,4.46,0,0,0,6.17,0,5.19,5.19,0,0,0,0-6.66,4.48,4.48,0,0,0-6.17,0,5.19,5.19,0,0,0,0,6.66Z"/>
        <path class="cls-1" d="M222.07,274.92H225V289H221.6L215.35,279V289h-2.92V274.92h3.35l6.29,10Z"/>
        <path class="cls-1" d="M236.82,274.92v2.58h-3.35V289h-2.9V277.5H227.2v-2.58Z"/>
        <path class="cls-1" d="M246.49,289l-3.67-6.22H242V289H239V274.92h5.12a5.88,5.88,0,0,1,2.05.33,3.59,3.59,0,0,1,1.42.91,4,4,0,0,1,.8,1.33,4.84,4.84,0,0,1,.27,1.65,3.45,3.45,0,0,1-.77,2.32,4,4,0,0,1-2.22,1.22L250,289ZM242,277.36v3.36h1.73c1.46,0,2.2-.56,2.2-1.67a1.51,1.51,0,0,0-.54-1.24,2.55,2.55,0,0,0-1.66-.45Z"/>
        <path class="cls-1" d="M258,289.23a7.65,7.65,0,0,1-3.71-.88,6.37,6.37,0,0,1-2.57-2.55,8.27,8.27,0,0,1,0-7.66,6.32,6.32,0,0,1,2.57-2.53,8.24,8.24,0,0,1,7.41,0,6.36,6.36,0,0,1,2.56,2.53,8.27,8.27,0,0,1,0,7.66,6.37,6.37,0,0,1-2.57,2.55A7.62,7.62,0,0,1,258,289.23Zm-3.09-3.92a4.46,4.46,0,0,0,6.17,0,5.19,5.19,0,0,0,0-6.66,4.48,4.48,0,0,0-6.17,0,5.19,5.19,0,0,0,0,6.66Z"/>
        <path class="cls-1" d="M270.83,286.45h4.42V289H267.9V274.92h2.93Z"/>
      </g>
    </g>
  </g>
</svg>
