<svg xmlns="http://www.w3.org/2000/svg" xmlns:xlink="http://www.w3.org/1999/xlink" width="813.034" height="393.945" viewBox="0 0 813.034 393.945">
  <defs>
    <clipPath id="clip-path">
      <rect id="Rectángulo_4376" data-name="Rectángulo 4376" width="767.543" height="298.604" fill="none"/>
    </clipPath>
  </defs>
  <g id="Grupo_27767" data-name="Grupo 27767" transform="translate(1140.332 -119.02)">
    <g id="Grupo_27629" data-name="Grupo 27629" transform="translate(-1094.841 214.36)">
      <g id="Grupo_27628" data-name="Grupo 27628" clip-path="url(#clip-path)">
        <g id="Grupo_27627" data-name="Grupo 27627" transform="translate(-2.327 16.583)">
          <path id="Trazado_22083" data-name="Trazado 22083" d="M-349.489,365.8q-.144-64.415-.288-128.831-.036-14.815-.067-29.629c0-.871-1.178-1.629-2.353-1.629h-10.462v-5.39c0-.871-1.18-1.631-2.353-1.631H-370v-4.107c0-.871-1.178-1.629-2.351-1.629h-33.029c-1.718,0-3.975.689-3.975,2.2v3.536h-7.034c-1.718,0-3.975.691-3.975,2.2v4.819h-4.894c-1.718,0-3.975.688-3.975,2.2V336.677H-479V247.326c0-1.823-3.21-1.869-4.786-1.2q-15.466,6.531-30.93,13.06a2.234,2.234,0,0,0-1.542,1.775v48.156h-14.375c-1.718,0-3.973.689-3.973,2.2v3.613h-42.953V237.018c0-.868-1.18-1.629-2.354-1.629h-16.951v-4.21c0-.871-1.18-1.629-2.354-1.629h-49.8c-1.718,0-3.975.689-3.975,2.2v3.639H-657.5c-1.718,0-3.975.689-3.975,2.2V292.81l-27.245.29q-1.734-37.654-3.467-75.313-.255-5.516-.509-11.033c-.038-.871-1.149-1.629-2.353-1.629h-24.057V189.454c0-2.07.8-5.194,0-7.2-.607-1.521-1.842-1.888-3.644-2.768q-11.914-5.815-23.831-11.628c-1.9-.926-4.076-2.464-6.288-2.987-3.09-.732-7.367-.118-10.6-.118-1.732,0-3.956.689-3.973,2.2q-.345,30.122-.688,60.242-.543,47.8-1.089,95.6-.115,10.011-.228,20.017h-4.745V326.225c0-1.638.76-4.361-.446-5.856-1.773-2.193-6.851-3.987-9.469-5.657a12.817,12.817,0,0,0-2.178-1.3c-.369-.746,0-2.231,0-3V282.9c0-.871-1.18-1.629-2.353-1.629H-810.6c-1.123,0-2.4.1-3.562.029-.789-.374-1.55-.825-2.308-1.228-2.234-1.19-4.69-3.047-7.439-3.5-2.174-.36-5.028,0-7.24,0h-33.5c-1.718,0-3.975.688-3.975,2.2v2.5h-1.756c-1.718,0-3.975.689-3.975,2.2v20.149H-906.4v-94.07c0-.739-.71-1.262-1.6-1.511q-8.168-2.281-16.339-4.56-.637-7.413-1.276-14.826c-.158-1.828-3.09-1.864-4.789-1.2q-26.884,10.45-53.765,20.9a2.219,2.219,0,0,0-1.54,1.778v93.811h-3.682V284.788c0-.868-1.178-1.627-2.353-1.627h-26.422v-5.016a1.8,1.8,0,0,0-1.6-1.511l-30.027-5.352c-1.9-.341-4.724.36-4.724,2.085v9.795h-8.538c-1.718,0-3.975.689-3.975,2.2V341.4h-1.178V325.714c0-.871-1.18-1.629-2.354-1.629h-3.9V315.68c0-.871-1.18-1.629-2.353-1.629h-37.119c-1.715,0-3.973.688-3.973,2.2v7.833h-.449c-1.71,0-3.987.688-3.975,2.2q.389,53.267.775,106.535.058,7.549.111,15.1c.007.868,1.175,1.629,2.353,1.629l76.368-.036,183.325-.084,220.355-.1,191.59-.089c30.915-.014,62.022.71,92.923-.043.417-.01.84,0,1.259,0,1.715,0,3.977-.688,3.973-2.2Z" transform="translate(1122.339 -164.508)" fill="#cfd7e5" style="mix-blend-mode: multiply;isolation: isolate"/>
          <g id="Grupo_27626" data-name="Grupo 27626" transform="translate(2.356 138.394)" style="mix-blend-mode: multiply;isolation: isolate">
            <path id="Trazado_22084" data-name="Trazado 22084" d="M-942.514,227.228h1.751C-941.379,227.207-941.974,227.2-942.514,227.228Z" transform="translate(1371.549 -215.185)" fill="#cfd7e5"/>
            <path id="Trazado_22085" data-name="Trazado 22085" d="M-1023.217,228.114h3.572A26.264,26.264,0,0,0-1023.217,228.114Z" transform="translate(1258.65 -214.006)" fill="#cfd7e5"/>
            <path id="Trazado_22086" data-name="Trazado 22086" d="M-961.549,242.383h8.449A50.646,50.646,0,0,0-961.549,242.383Z" transform="translate(1344.92 -194.212)" fill="#cfd7e5"/>
            <path id="Trazado_22087" data-name="Trazado 22087" d="M-819.252,240.511h6.42A30.75,30.75,0,0,0-819.252,240.511Z" transform="translate(1543.987 -196.814)" fill="#cfd7e5"/>
            <path id="Trazado_22088" data-name="Trazado 22088" d="M-352.494,284.912l-.082-11.695c0-.094-.547-.1-.6-.1h-4.16v-7.13c0-.094-.547-.1-.6-.1-1.094,0-4.085.07-4.16,0-.494-.5,0-2.744,0-3.279v-7.974c0-.094-.547-.1-.595-.1H-385.93c-.074,0-1.017-.014-1.017.132,0,3.5.127,7.015,0,10.512-.024.638.276.688.42.672a.685.685,0,0,0-.11.038,12.059,12.059,0,0,1-2.956,0h-.609c.585.038,1.147.079,1.662.113h-8.478a2.857,2.857,0,0,1,.4-.113h-.406c-.074,0-1.017-.014-1.017.132,0,1.9-.118,3.826,0,5.724.06.96.139,1.411.225,1.37a1.758,1.758,0,0,1-.53.113H-399.9c-.734-.043-1.468-.113-1.886-.113-.074,0-1.017-.014-1.017.132V343.5a6.576,6.576,0,0,1,.007,2.178c-.077.01-.161.024-.257.041-.329.055-.684.089-1.051.113h-2.74c-1.092-.046-2.171-.113-3.092-.113-.362,0-1.195.065-2.082.113h-2.4a1.939,1.939,0,0,1-.513-.113c-.408-.187.29.158.007-.832-.734-2.564,0-5.873,0-8.483V294.548c0-.094-.547-.094-.6-.094h-16.908c-.074,0-1.017-.014-1.017.13v31.323c0,.47.245,1.384,0,1.828a.161.161,0,0,0,0,.158c-.679-.007-1.55-.062-1.682-.065-.415-.01-1.147.055-1.955.113h-3.143a1.927,1.927,0,0,1-.4-.113l-.091-.038a.462.462,0,0,0-.1-.2c-1.1-1.617,0-5.722,0-7.49V222.294c0-.094-.547-.1-.6-.1h-42.267c-.074,0-1.017-.014-1.017.132v82.058c0,1.048.532,3.071.045,4.131-.149.01-.333.022-.6.041-1.535.11-3.15,0-4.695,0-3.958,0-3.179.209-3.179-2.658,0-.094-.547-.094-.6-.094h-38.911c.057-.439-.422-.235-.746,0-.158,0-.986-.007-.986.13,0,.7.309,1.814,0,2.466a.268.268,0,0,0-.019.065c-.111.024-.233.053-.379.091a5.36,5.36,0,0,1-.607.113h-4.181c-.864-.055-1.686-.113-2.353-.113h-13.633c-.077,0-1.017-.014-1.017.132v29.776c0,1.053.482,2.843.007,3.879-.607.017-1.535-.067-1.782-.067h-7.031c-.367,0-1.075.062-1.825.113h-2.274a1.273,1.273,0,0,1-.22-.067c.024-.014.021-.053-.053-.154-.36-.485,0-1.967,0-2.492V249.82c0-.094-.549-.1-.6-.1h-2.039a6.165,6.165,0,0,1,1.135.113h-4.659c.777-.046,1.648-.094,2.452-.113h-46.026c-.074,0-1.017-.012-1.017.132v20.9c0,.993.478,2.747,0,3.692-.036.072-.041.118-.026.149-.048,0-.084.01-.137.012h-.636c-.84-.022-1.816-.113-2.157-.113-2.977,0-5.959-.043-8.936,0-.288,0-1.274.106-1.862.079a.4.4,0,0,0,.046-.437c-1.111-1.929,0-6.06,0-8.084V234.337c0-.094-.547-.1-.6-.1H-690.57c.7.026,1.411.067,2.08.113h-4.815a7.856,7.856,0,0,1,.984-.113h-1.638c-.074,0-1.017-.014-1.017.132v55.483c0,1.353.46,3.174,0,4.488a.145.145,0,0,0,.043.18c-.53-.012-1.149-.065-1.331-.07-.8-.022-1.773.043-2.776.113h-4.575c-.2-.034-.413-.065-.595-.113-1.2-.326-.993.144-.775-1.646a46.479,46.479,0,0,0,0-5.486v-9.977c0-.094-.549-.1-.6-.1h-16.371c-.46,0-1.319.094-2.084.113h-.485a2.578,2.578,0,0,1-.782-.113c-.1-.036-.151-.053-.218-.074.07-.043.086-.156-.07-.429-.868-1.533,0-4.556,0-6.283,0-.094-.547-.094-.6-.094h-3.346c.247.029.477.074.713.113H-740l2.017-.113h-21.49c-.074,0-1.017-.014-1.017.13,0,1.806-.393,3.85,0,5.626.367,1.655,1.108,1.125-1.958,1.125h-13.962c-.086-.077-.228-.091-.439,0h-.06c-.074,0-1.017-.014-1.017.132V301.91a7.328,7.328,0,0,1,.019,1.821c-.158,0-.353.01-.6.012-14.43.182-28.883,0-43.315,0-.074,0-1.017-.014-1.017.132v29.248c0,4.58-1.178,10.1,0,14.612a3.1,3.1,0,0,1,0,1.327.244.244,0,0,0-.017.074c-.048.01-.089.014-.142.024-.216.041-.468.077-.739.113H-834.4c-.185-.034-.355-.072-.509-.113a1.989,1.989,0,0,0-.607-.094c.067-.072.127-.252.029-.693a17.841,17.841,0,0,1,0-3.8V267.023c0-.094-.549-.094-.6-.094h-35.929c-.074,0-1.017-.014-1.017.13v58.354a7.3,7.3,0,0,1,0,1.727.37.37,0,0,0,.034.317c-.166,0-.379.007-.655.026a46.273,46.273,0,0,1-6.746-.108c-.5-.6,0-2.581,0-3.263V236.4c0-.091-.547-.094-.6-.094h-1.355a3.544,3.544,0,0,1,.64.113h-6.153c.6-.038,1.264-.079,1.941-.113h-55.3c-.074,0-1.02-.014-1.02.13v60.05a9.474,9.474,0,0,1,0,2.459c-.034.12.043.288,0,.413-.626.034-1.634-.086-2.049-.086-.626,0-1.444.05-2.334.113h-6.415c-.17-.036-.358-.065-.5-.113-.556-.19-.307-.053-.295-1.442.036-4.03,0-8.063,0-12.093V259.108c0-.094-.547-.094-.6-.094-.406,0-1.145.048-2.037.106l.026.007h-.12l.094-.007a24.686,24.686,0,0,0-5.637.007h-1.416a.91.91,0,0,1-.232-.113c-.187-.139.41-5.462.41-6.444,0-.094-.549-.094-.6-.094h-39.1c-.074,0-1.017-.014-1.017.13v3.714a12.017,12.017,0,0,1,0,2.255c-.082.391.1.48.288.468a2.5,2.5,0,0,1-.238.084h-8.391c-.6-.043-1.164-.079-1.646-.1.026-.141-.144-.108-.345-.01-.091,0-.189,0-.274,0s-1.017-.014-1.017.13v88.787c0,1.511.616,3.877.029,5.376-.2,0-.461,0-.815-.019-1.507-.067-3.061,0-4.57,0h-13.595c-1.835,0-3.882.168-5.7,0-.2-.017-.835.062-1.156.024a.28.28,0,0,0-.05-.12c-1-1.526,0-5.45,0-7.1v-16.45c0-.091-.547-.094-.6-.094h-15.264c-.573,0-1.372.053-2.243.113h-5.285a4.054,4.054,0,0,1-.518-.113c-.694-.228-.617-.065-.4-1.653,1.092-7.849,0-16.159,0-24.057,0-.094-.547-.1-.6-.1h-34.871c-.074,0-1.017-.014-1.017.132v22.284c0,.9.437,2.49,0,3.342a.416.416,0,0,0-.031.084,18.757,18.757,0,0,1-3.164-.036h-14.809c-.074,0-1.017-.014-1.017.132v37.971c0,.094.547.1.6.1h767.837c.072,0,1.02.014,1.017-.132Q-352.2,326.266-352.494,284.912ZM-1120,367.634h3.7A18.046,18.046,0,0,1-1120,367.634Zm.324-37.973a15.555,15.555,0,0,1,3.417,0Zm21.128-25.805c2.73-.132,5.549-.074,8.346,0Zm19.434,0c3.032-.1,6.115-.187,9.044,0Zm30.452,25.805c1.113-.043,2.229-.062,3.287,0Zm33.07,23.646c.276-.163.9-.012,0,0Zm144.115-86.266a10.045,10.045,0,0,1,1.4,0Zm93.78,36.682c.269-.048.593-.024,0,0Zm20.96-33.242c2.588-.134,5.268-.074,7.921,0Zm136.747,4.016-.012,0,.036-.019Zm63.949,67.782c-.014.007-.046.01-.065.017.108-.048.213-.1.288-.137Zm23.395-36.358v0a12.588,12.588,0,0,1,1.5,0Zm35.955,0a12.276,12.276,0,0,1,1.488,0Zm13.271-83.611a12.044,12.044,0,0,1,1.866,0Zm127.276,50.923a3.625,3.625,0,0,1,1.214,0Z" transform="translate(1121.357 -222.198)" fill="#cfd7e5"/>
          </g>
        </g>
      </g>
    </g>
    <g id="Grupo_27766" data-name="Grupo 27766" transform="translate(-1140.332 119.019)">
      <ellipse id="Elipse_998" data-name="Elipse 998" cx="276.445" cy="6.27" rx="276.445" ry="6.27" transform="translate(159.204 358.864)" fill="#747296"/>
      <path id="Trazado_22089" data-name="Trazado 22089" d="M-719.664,264.517c0,2.255-31.633,4.085-70.654,4.085s-70.654-1.83-70.654-4.085,31.632-4.085,70.654-4.085S-719.664,262.262-719.664,264.517Z" transform="translate(1532.142 106.608)" fill="#747296"/>
      <path id="Trazado_22090" data-name="Trazado 22090" d="M-813.629,273.3c0,2.255-20.926,4.083-46.739,4.083s-46.741-1.828-46.741-4.083,20.926-4.085,46.741-4.085S-813.629,271.039-813.629,273.3Z" transform="translate(1466.599 95.89)" fill="#747296"/>
      <ellipse id="Elipse_999" data-name="Elipse 999" cx="46.739" cy="4.084" rx="46.739" ry="4.084" transform="translate(23.928 380.216)" fill="#594f7a" opacity="0.65"/>
      <ellipse id="Elipse_1000" data-name="Elipse 1000" cx="46.739" cy="6.922" rx="46.739" ry="6.922" transform="translate(277.013 368.794)" fill="#747296"/>
      <path id="Trazado_22091" data-name="Trazado 22091" d="M-1002.054,280.286c0,3.824-20.926,6.923-46.739,6.923s-46.741-3.1-46.741-6.923,20.926-6.921,46.741-6.921S-1002.054,276.462-1002.054,280.286Z" transform="translate(1203.001 101.701)" fill="#747296"/>
      <path id="Trazado_22092" data-name="Trazado 22092" d="M-819.162,188.564a3.384,3.384,0,0,0-.057-.837,8.638,8.638,0,0,0-6.6-7.127c-2.8-.564-5.441.6-7.893,2.212-1.008-4.085-3.85-7.331-7.526-7.708-3.728-.381-6.979,2.229-8.958,5.945-1.2-3.315-1.7-7.115-3.219-10.256-1.727-3.582-4.5-6.42-8-6.189-6.321.415-10.38,9.3-12.693,16.654a11.039,11.039,0,0,0-8.137-3.042,18.042,18.042,0,0,0-7.372,2.229c-1.888.974-4.747,1.953-5.683,4.419a4.143,4.143,0,0,0-.283,1.674c-1.607,1.14-1.274,4.927,1.027,4.927h73.379C-819.728,191.465-819.063,189.963-819.162,188.564Z" transform="translate(1481.336 -50.469)" fill="#cfd7e5" style="mix-blend-mode: multiply;isolation: isolate"/>
      <g id="Grupo_27630" data-name="Grupo 27630" transform="translate(306.09)" style="mix-blend-mode: multiply;isolation: isolate">
        <path id="Trazado_22093" data-name="Trazado 22093" d="M-923.113,145.449c-4.98-2.6-10.853-1.1-15.668,1.132-.8.369-3.253,2.3-4.222,1.977a26.56,26.56,0,0,1-1.312-2.346,10.6,10.6,0,0,0-5.136-3.634,11.253,11.253,0,0,0-7.571.113c-1.583-11.549-5.75-24.378-19.18-25.609a13.652,13.652,0,0,0-13.4,7.07c-3.43,6.137-2.476,13.343-3.55,20.067-6.967-3.406-16.387-.259-19.033,7.7-2.581,7.768,4.3,15.488,11.206,13.413a2.5,2.5,0,0,0,2.154,1l51.6-1.07c7-.144,14.713.6,21.612-.794,4.395-.892,8.478-3.618,8.9-8.444C-916.322,151.652-919.371,147.406-923.113,145.449Z" transform="translate(1012.738 -117.019)" fill="#cfd7e5"/>
      </g>
      <g id="Grupo_27631" data-name="Grupo 27631" transform="translate(19.549 86.653)" style="mix-blend-mode: multiply;isolation: isolate">
        <path id="Trazado_22094" data-name="Trazado 22094" d="M-1054.2,172.7c-4.33-2.265-9.44-.955-13.626.986-.694.321-2.831,2-3.675,1.72-.065-.022.775-11.27-6.11-16.829-11.136-8.986-35.454-8.25-37.51,13.055-6.06-2.965-14.254-.225-16.555,6.7-2.245,6.758,3.227,12.537,11.621,12.537,14.965,0,29.922-.619,44.882-.928,6.093-.127,12.8.523,18.8-.693,3.824-.775,7.374-3.145,7.746-7.346C-1048.292,178.1-1050.943,174.4-1054.2,172.7Z" transform="translate(1132.183 -153.14)" fill="#cfd7e5"/>
      </g>
      <g id="Grupo_27632" data-name="Grupo 27632" transform="translate(170.032 76.478)">
        <path id="Trazado_22095" data-name="Trazado 22095" d="M-1034.363,170.192a15.126,15.126,0,0,0-.533-2.5c-.2-1.814,1.835-2.917.909-4.9a4.631,4.631,0,0,0-3.387-2.43c-2.258-.4-4.534.513-6.782.542a11.266,11.266,0,0,1-3.68-.554,4.312,4.312,0,0,1-1.665-.828c-.689-.679,1.626-6.427-1.217-9.416a5.538,5.538,0,0,0-5.107-.962c-1.665.585-1.919,2.2-1.653,3.75a34.318,34.318,0,0,1-.736,11.28c-7.441-.182-5.875,2.617-6.7,5.772a8.072,8.072,0,0,0,.362,5.2c.772,1.806,1.936,2.082,3.783,2.339q7.5,1.036,15.065,1.387a56.978,56.978,0,0,0,7.125.132,4.529,4.529,0,0,0,3.375-1.425,2.374,2.374,0,0,0,.422-1.552c-.065-1.276-.52-2.152-.158-3.49A11.532,11.532,0,0,0-1034.363,170.192Z" transform="translate(1075.424 -148.899)" fill="#ffcb48"/>
        <path id="Trazado_22096" data-name="Trazado 22096" d="M-1055.451,169.393c-1.826,1.578-4.323-.182-5.388-1.79a8.655,8.655,0,0,1-1.243-5.273c.091-1.732.357-3.939,1.593-5.261a4.633,4.633,0,0,1,2.164-1.291c.633-.175,2.514-.458,2.819.449.118.35.674.2.557-.154a1.821,1.821,0,0,0-1.931-1.075h0q-2.767-.148-5.534-.3a7.816,7.816,0,0,0-4.241.53c-2.056,1.14-2.574,3.716-2.732,5.868-.18,2.485-.125,6.266,2.006,8.024a6.333,6.333,0,0,0,3.32.969,50.175,50.175,0,0,0,6.206.41.3.3,0,0,0,.108-.022,3.107,3.107,0,0,0,2.706-.681C-1054.76,169.558-1055.17,169.15-1055.451,169.393Zm-6.926.317c-1.351-.13-3.121-.091-4.318-.8-2.318-1.375-2.281-5.522-2.116-7.806.2-2.682,1.051-5.522,4.157-5.841a30.2,30.2,0,0,1,5.63.156,4.446,4.446,0,0,0-.6.266c-2.252,1.224-2.79,3.747-3,6.117a8.938,8.938,0,0,0,2.1,7.122,5.869,5.869,0,0,0,1.231.969C-1060.318,169.858-1061.35,169.81-1062.377,169.709Z" transform="translate(1069.454 -140.853)" fill="#3b2b5b"/>
      </g>
      <g id="Grupo_27634" data-name="Grupo 27634" transform="translate(652.539 174.104)">
        <path id="Trazado_22097" data-name="Trazado 22097" d="M-858.118,189.613a12.487,12.487,0,0,1,10.27,4.7c4.208,5.283-.909,16.507-4.789,18.321s-12.518,1.552-14.6-2.792S-858.118,189.613-858.118,189.613Z" transform="translate(869.483 -189.594)" fill="#e8853a"/>
        <g id="Grupo_27633" data-name="Grupo 27633" transform="translate(0 0.019)">
          <path id="Trazado_22098" data-name="Trazado 22098" d="M-850.316,195.033a7.57,7.57,0,0,0-8.6-5.345c-4.625.633-7.578,4.74-8.677,9a17.061,17.061,0,0,0-.408,2.154,11.687,11.687,0,0,0-.25,4.042,7.33,7.33,0,0,0,.65,2.289,7.173,7.173,0,0,0,1.523,2.656,5.989,5.989,0,0,0,4.666,1.85,7.584,7.584,0,0,0,8.857-2.656C-849.054,204.585-847.651,199.869-850.316,195.033Z" transform="translate(868.322 -189.602)" fill="#ffcb48"/>
          <path id="Trazado_22099" data-name="Trazado 22099" d="M-860.423,199.973a10,10,0,0,1-1.238-.878q.4-2.843.794-5.688a6.844,6.844,0,0,1,2.085.139c.413.1.588-.537.175-.636a8.127,8.127,0,0,0-2.154-.245l.195-1.408c.06-.415-.576-.595-.636-.175l-.23,1.65a3.539,3.539,0,0,0-1.948.955,3,3,0,0,0-.422,3.766,7.765,7.765,0,0,0,1.439,1.953l-.859,6.141a5.407,5.407,0,0,1-2.867-.765l.25-.307c.266-.326-.2-.8-.466-.465-.168.2-.333.408-.5.614a.338.338,0,0,0,.067.518,6.881,6.881,0,0,0,3.423,1.077l-.031.228a.28.28,0,0,0-.113.247l.014.449c.012.353.595.47.65.086l.137-.986c2.233,0,4.445-.835,4.712-2.977C-857.746,201.643-859.216,200.69-860.423,199.973Zm-3.171-3.742c-.3-1.653.756-2.435,2.053-2.718q-.353,2.523-.705,5.047A4.617,4.617,0,0,1-863.594,196.231Zm3.063,8.953a7.726,7.726,0,0,1-2,.348h-.026l.784-5.63c.84.552,2.109.969,2.593,1.756l.357,2.207A2.826,2.826,0,0,1-860.531,205.184Z" transform="translate(870.313 -187.866)" fill="#3b2b5b"/>
          <path id="Trazado_22100" data-name="Trazado 22100" d="M-863.424,192.408a34.164,34.164,0,0,1-.737,4.52c-.1.415.54.59.636.178a35.335,35.335,0,0,0,.76-4.7C-862.724,191.986-863.386,191.988-863.424,192.408Z" transform="translate(874.128 -186.119)" fill="#3b2b5b"/>
          <path id="Trazado_22101" data-name="Trazado 22101" d="M-864.262,195.78a3.759,3.759,0,0,1-.271,1.581c-.156.4.482.566.638.175a4.308,4.308,0,0,0,.3-1.756C-863.619,195.356-864.278,195.353-864.262,195.78Z" transform="translate(873.588 -181.406)" fill="#3b2b5b"/>
        </g>
      </g>
      <g id="Grupo_27637" data-name="Grupo 27637" transform="translate(265.95 79.025)">
        <rect id="Rectángulo_4377" data-name="Rectángulo 4377" width="197.178" height="285.605" rx="14.173" transform="translate(8.061)" fill="#30193b"/>
        <path id="Rectángulo_4378" data-name="Rectángulo 4378" d="M11.339,0h174.5a11.338,11.338,0,0,1,11.338,11.338V274.266A11.339,11.339,0,0,1,185.84,285.6H11.339A11.339,11.339,0,0,1,0,274.266V11.339A11.339,11.339,0,0,1,11.339,0Z" fill="#3b2b5b"/>
        <rect id="Rectángulo_4379" data-name="Rectángulo 4379" width="162.072" height="222.415" transform="translate(17.553 31.595)" fill="#c8bbff"/>
        <path id="Trazado_22102" data-name="Trazado 22102" d="M-1013.6,170.2h153.515v-7.069h-162.072V385.545h8.557Z" transform="translate(1039.707 -131.536)" fill="#9b89e5"/>
        <path id="Trazado_22103" data-name="Trazado 22103" d="M-981.993,160.269a4.03,4.03,0,0,1-4.031,4.03,4.03,4.03,0,0,1-4.03-4.03,4.03,4.03,0,0,1,4.03-4.03A4.03,4.03,0,0,1-981.993,160.269Z" transform="translate(1084.612 -141.177)" fill="#baa4ff"/>
        <g id="Grupo_27635" data-name="Grupo 27635" transform="translate(45.079 89.142)">
          <path id="Trazado_22104" data-name="Trazado 22104" d="M-939.437,280.764c2.886-3.762,4.714-41.171,5.21-53.345s-7.938-14.365-10.419-25.774c-.84-3.869-3.68-7.209-7.065-9.936a11.41,11.41,0,0,1-1.429.355,12.284,12.284,0,0,1-7.612-4.7s-14.375-.545-17.589,0-10.047,3.519-19.112,18.992c-15.9,27.132-13.024,56.615-13.024,56.615l10.147,1.084a134.7,134.7,0,0,1,3.721-17.546c4.913-16.872,11.5-25.141,11.5-25.141v56.8s12.93,7.314,31.966,7.314a64.422,64.422,0,0,0,9.353-.72A23.359,23.359,0,0,0-939.437,280.764Z" transform="translate(1010.68 -187.119)" fill="#fff"/>
          <path id="Trazado_22105" data-name="Trazado 22105" d="M-943.212,206.354c-9.068-15.473-15.9-18.45-19.113-18.992s-17.591,0-17.591,0a12.312,12.312,0,0,1-6.182,4.347c3.385,2.728,6.225,6.067,7.065,9.936,2.481,11.409,10.913,13.6,10.419,25.774s-2.324,49.584-5.21,53.345a23.359,23.359,0,0,1-4.349,3.992,90.132,90.132,0,0,0,22.615-6.595v-56.8s6.59,8.269,11.5,25.141a134.226,134.226,0,0,1,3.721,17.546l10.15-1.084S-927.314,233.486-943.212,206.354Z" transform="translate(1045.068 -187.119)" fill="#f5f3ff"/>
        </g>
        <path id="Trazado_22106" data-name="Trazado 22106" d="M-967.31,218.775l.436,4.859,11.163-1.266V216.4Z" transform="translate(1116.43 -57.016)" fill="#9b89e5"/>
        <path id="Trazado_22107" data-name="Trazado 22107" d="M-999.313,218.775l-.436,4.859-11.163-1.266V216.4Z" transform="translate(1055.432 -57.016)" fill="#ddd7ff"/>
        <path id="Trazado_22108" data-name="Trazado 22108" d="M-972.668,190.248l-.122-3.7s-12.148-3.74-17.858,0c0,0,3.968,5.086,6.7,6.573S-972.668,190.248-972.668,190.248Z" transform="translate(1083.781 -101.107)" fill="#9b89e5"/>
        <path id="Trazado_22109" data-name="Trazado 22109" d="M-980.366,190.908l8.371-5.333,2.6,3.838-4.457,9.307-6.511-4.5-6.882,4.5-3.969-9.442,1.364-3.7Z" transform="translate(1082.985 -100.137)" fill="#cec9f4"/>
        <rect id="Rectángulo_4380" data-name="Rectángulo 4380" width="20.834" height="8.433" transform="translate(38.443 62)" fill="#9b89e5"/>
        <rect id="Rectángulo_4381" data-name="Rectángulo 4381" width="20.834" height="8.433" transform="translate(128.286 62)" fill="#9b89e5"/>
        <rect id="Rectángulo_4382" data-name="Rectángulo 4382" width="20.834" height="8.433" transform="translate(152.402 62)" fill="#9b89e5"/>
        <g id="Grupo_27636" data-name="Grupo 27636" transform="translate(88.172 207.341)">
          <circle id="Elipse_1001" data-name="Elipse 1001" cx="2.232" cy="2.232" r="2.232" fill="#9b89e5"/>
          <circle id="Elipse_1002" data-name="Elipse 1002" cx="2.232" cy="2.232" r="2.232" transform="translate(8.185)" fill="#9b89e5"/>
          <circle id="Elipse_1003" data-name="Elipse 1003" cx="2.232" cy="2.232" r="2.232" transform="translate(16.369)" fill="#9b89e5"/>
        </g>
        <rect id="Rectángulo_4383" data-name="Rectángulo 4383" width="75.577" height="222.415" transform="translate(104.048 31.595)" fill="#ddd7ff" style="mix-blend-mode: multiply;isolation: isolate"/>
      </g>
      <g id="Grupo_27645" data-name="Grupo 27645" transform="translate(411.724 158.138)">
        <rect id="Rectángulo_4384" data-name="Rectángulo 4384" width="112.675" height="206.492" rx="5.669" transform="translate(6.256)" fill="#30193b"/>
        <rect id="Rectángulo_4385" data-name="Rectángulo 4385" width="112.675" height="206.492" rx="5.669" fill="#3b2b5b"/>
        <rect id="Rectángulo_4386" data-name="Rectángulo 4386" width="92.614" height="170.382" transform="translate(10.03 18.055)" fill="#ffcb48"/>
        <path id="Trazado_22110" data-name="Trazado 22110" d="M-959.634,194.5h87.725v-4.039h-92.615V360.847h4.89Z" transform="translate(974.554 -172.41)" fill="#ff9a2e"/>
        <path id="Trazado_22111" data-name="Trazado 22111" d="M-941.575,188.83a2.3,2.3,0,0,1-2.3,2.3,2.3,2.3,0,0,1-2.3-2.3,2.3,2.3,0,0,1,2.3-2.3A2.3,2.3,0,0,1-941.575,188.83Z" transform="translate(1000.215 -177.919)" fill="#baa4ff"/>
        <g id="Grupo_27638" data-name="Grupo 27638" transform="translate(52.014 192.95)">
          <path id="Trazado_22112" data-name="Trazado 22112" d="M-942.7,272.013a4.327,4.327,0,0,1-4.323-4.323,4.326,4.326,0,0,1,4.323-4.32,4.326,4.326,0,0,1,4.323,4.32A4.327,4.327,0,0,1-942.7,272.013Z" transform="translate(947.023 -263.37)" fill="#baa4ff"/>
        </g>
        <g id="Grupo_27642" data-name="Grupo 27642" transform="translate(29.846 54.662)">
          <path id="Trazado_22113" data-name="Trazado 22113" d="M-897.626,210.72h-56.5a2.142,2.142,0,0,0-2.14,2.14,2.142,2.142,0,0,0,2.14,2.142,2.778,2.778,0,0,1,2.687,2.068l5.1,19.278a4.674,4.674,0,0,0,4.517,3.478h31.9a4.675,4.675,0,0,0,4.517-3.478l5.1-19.278A2.78,2.78,0,0,1-897.626,215a2.141,2.141,0,0,0,2.14-2.142A2.14,2.14,0,0,0-897.626,210.72Z" transform="translate(956.264 -198.736)" fill="#ff5e4d"/>
          <path id="Trazado_22114" data-name="Trazado 22114" d="M-943.6,210.72h28.248a2.14,2.14,0,0,1,2.14,2.14h0a2.141,2.141,0,0,1-2.14,2.142h0a2.778,2.778,0,0,0-2.687,2.068l-5.1,19.278a4.675,4.675,0,0,1-4.517,3.478H-943.6Z" transform="translate(973.986 -198.736)" fill="#c43b72"/>
          <g id="Grupo_27639" data-name="Grupo 27639" transform="translate(14.746 17.899)">
            <path id="Trazado_22115" data-name="Trazado 22115" d="M-944.35,231.882a2.141,2.141,0,0,1-2.073-1.619l-3.63-14.413a2.143,2.143,0,0,1,1.552-2.6,2.14,2.14,0,0,1,2.6,1.554l3.63,14.413a2.14,2.14,0,0,1-1.552,2.6A2.2,2.2,0,0,1-944.35,231.882Z" transform="translate(950.117 -213.186)" fill="#ffcb48"/>
          </g>
          <g id="Grupo_27640" data-name="Grupo 27640" transform="translate(38.121 17.899)">
            <path id="Trazado_22116" data-name="Trazado 22116" d="M-938.23,231.881a2.18,2.18,0,0,1-.523-.065,2.141,2.141,0,0,1-1.555-2.6l3.63-14.413a2.142,2.142,0,0,1,2.6-1.554,2.139,2.139,0,0,1,1.552,2.6l-3.627,14.413A2.143,2.143,0,0,1-938.23,231.881Z" transform="translate(940.373 -213.186)" fill="#ffcb48"/>
          </g>
          <g id="Grupo_27641" data-name="Grupo 27641" transform="translate(28.25 17.904)">
            <path id="Trazado_22117" data-name="Trazado 22117" d="M-942.348,231.878a2.14,2.14,0,0,1-2.14-2.14V215.328a2.14,2.14,0,0,1,2.14-2.14,2.142,2.142,0,0,1,2.14,2.14v14.411A2.142,2.142,0,0,1-942.348,231.878Z" transform="translate(944.488 -213.188)" fill="#ffcb48"/>
          </g>
          <path id="Trazado_22118" data-name="Trazado 22118" d="M-938.715,219.011l8.61-12.4a2.063,2.063,0,0,1,2.968-.439h0a2.062,2.062,0,0,1,.427,2.783l-8.509,12.475a2.121,2.121,0,0,1-2.9.593h0A2.122,2.122,0,0,1-938.715,219.011Z" transform="translate(980.279 -205.725)" fill="#3b2b5b"/>
          <path id="Trazado_22119" data-name="Trazado 22119" d="M-941.044,219.011l-8.612-12.4a2.063,2.063,0,0,0-2.968-.439h0a2.062,2.062,0,0,0-.425,2.783l8.507,12.475a2.124,2.124,0,0,0,2.9.593h0A2.124,2.124,0,0,0-941.044,219.011Z" transform="translate(960.259 -205.725)" fill="#3b2b5b"/>
        </g>
        <g id="Grupo_27644" data-name="Grupo 27644" transform="translate(30.896 104.688)">
          <path id="Trazado_22120" data-name="Trazado 22120" d="M-916.951,259.806h-22.262a16.613,16.613,0,0,1-16.613-16.615h0a16.613,16.613,0,0,1,16.613-16.613h22.262a16.615,16.615,0,0,1,16.615,16.613h0A16.616,16.616,0,0,1-916.951,259.806Z" transform="translate(955.826 -226.578)" fill="#fff2dc"/>
          <g id="Grupo_27643" data-name="Grupo 27643" transform="translate(11.98 10.498)">
            <path id="Trazado_22121" data-name="Trazado 22121" d="M-950.832,230.954h4.04c2.5,0,4.4.684,4.4,2.975a2.641,2.641,0,0,1-2.053,2.6v.074c1.718.317,2.617,1.221,2.617,2.828,0,2.445-2.005,3.538-4.62,3.538h-4.383Zm3.915,4.822c1.319,0,1.869-.559,1.869-1.463s-.585-1.243-1.847-1.243h-1.224v2.706Zm.247,5.074c1.478,0,2.186-.535,2.186-1.631,0-1.053-.691-1.487-2.186-1.487h-1.449v3.119Z" transform="translate(950.832 -230.954)" fill="#ff5e4d"/>
            <path id="Trazado_22122" data-name="Trazado 22122" d="M-946.3,238.34v-7.386h2.725v7.662c0,1.439.528,2.221,1.66,2.221s1.7-.782,1.7-2.221v-7.662h2.622v7.386c0,3.119-1.4,4.846-4.321,4.846S-946.3,241.459-946.3,238.34Z" transform="translate(957.177 -230.954)" fill="#ff5e4d"/>
            <path id="Trazado_22123" data-name="Trazado 22123" d="M-938.179,238.906l-3.87-7.953h2.905l1.221,2.884c.353.928.713,1.8,1.089,2.754h.074c.372-.957.758-1.826,1.125-2.754l1.207-2.884h2.835l-3.869,7.953v4.059h-2.718Z" transform="translate(963.119 -230.954)" fill="#ff5e4d"/>
          </g>
        </g>
        <rect id="Rectángulo_4387" data-name="Rectángulo 4387" width="44.429" height="170.382" transform="translate(58.216 18.055)" fill="#ffe6b3" style="mix-blend-mode: multiply;isolation: isolate"/>
      </g>
      <g id="Grupo_27673" data-name="Grupo 27673" transform="translate(696.459 222.453)">
        <g id="Grupo_27646" data-name="Grupo 27646" transform="translate(69.544 45.857)">
          <path id="Trazado_22124" data-name="Trazado 22124" d="M-819.52,229.1a.385.385,0,0,1-.384-.331l-1.115-7.8a.389.389,0,0,1,.329-.439.386.386,0,0,1,.439.331l1.115,7.8a.389.389,0,0,1-.329.439Z" transform="translate(821.024 -220.527)" fill="#ffe5b0"/>
        </g>
        <g id="Grupo_27649" data-name="Grupo 27649" transform="translate(62.315 141.277)">
          <g id="Grupo_27647" data-name="Grupo 27647" transform="translate(0 1.406)">
            <path id="Trazado_22125" data-name="Trazado 22125" d="M-814.9,262.95c-.441-.84-2.665-1.571-4.428-2.061.53.317,1.06.775.242,1.029-1.192.374-3.843.06-4.644-.789a5.524,5.524,0,0,0-.3,2.176C-824,264.1-814.182,264.312-814.9,262.95Z" transform="translate(824.037 -260.889)" fill="#3b2b5b"/>
          </g>
          <g id="Grupo_27648" data-name="Grupo 27648" transform="translate(0.31)">
            <path id="Trazado_22126" data-name="Trazado 22126" d="M-819.264,262.738c.818-.254.288-.712-.242-1.029-1.094-.3-2.013-.516-2.217-.6a1.278,1.278,0,0,1-.7-.705l-.552-.1s.374.748-.638,1.149c-.17.067-.221.307-.3.5C-823.107,262.8-820.456,263.112-819.264,262.738Z" transform="translate(823.908 -260.303)" fill="#ff97a6"/>
          </g>
        </g>
        <g id="Grupo_27652" data-name="Grupo 27652" transform="translate(21.504 141.512)">
          <g id="Grupo_27650" data-name="Grupo 27650" transform="translate(0 1.531)">
            <path id="Trazado_22127" data-name="Trazado 22127" d="M-841.029,265.223c-.3-.885,2.987-3.668,4.234-4.184-.377.333-.916,1.017-.338,1.286a3.005,3.005,0,0,0,3.1-1.106,8.48,8.48,0,0,1,.216,2.289C-833.84,264.347-840.312,267.3-841.029,265.223Z" transform="translate(841.049 -261.039)" fill="#3b2b5b"/>
          </g>
          <g id="Grupo_27651" data-name="Grupo 27651" transform="translate(2.796)">
            <path id="Trazado_22128" data-name="Trazado 22128" d="M-839.74,263.978c-.578-.266.753-1.586,1.13-1.919a8.475,8.475,0,0,1,1.4-.83,1.29,1.29,0,0,0,.492-.741l.643-.086a1.514,1.514,0,0,0,.2,1.187,2.236,2.236,0,0,1,.214.523C-836.233,263.006-838.9,264.371-839.74,263.978Z" transform="translate(839.884 -260.401)" fill="#ff97a6"/>
          </g>
        </g>
        <g id="Grupo_27653" data-name="Grupo 27653" transform="translate(24.155)">
          <path id="Trazado_22129" data-name="Trazado 22129" d="M-826.529,203.912s2.361-4.611,7.837-1.31c3.8,2.289.66,7.257,1.252,7.852s1.387.314,1.519,1.247-.621,2.015-.307,2.358c.7.77,4.023-.166,5.52,4.061,2.31,6.52-6.2,9.622-9.634,9.886s-17.486-.446-19-3.886.2-5.357,1.319-5.882.885-9.555,2.641-13.065C-834.134,202.667-828.508,201.393-826.529,203.912Z" transform="translate(839.944 -201.412)" fill="#80540a"/>
        </g>
        <g id="Grupo_27655" data-name="Grupo 27655" transform="translate(24.155)">
          <g id="Grupo_27654" data-name="Grupo 27654">
            <path id="Trazado_22130" data-name="Trazado 22130" d="M-837.691,218.766c1.123-.525.885-9.555,2.639-13.062,1.255-2.509,6.88-3.783,8.859-1.264,0,0,2.36-4.611,7.837-1.31a4.034,4.034,0,0,1,1.142,1,3.812,3.812,0,0,0-1.478-1.531c-5.477-3.3-7.837,1.31-7.837,1.31-1.979-2.519-7.6-1.245-8.857,1.262-1.756,3.51-1.519,12.539-2.641,13.065s-2.836,2.442-1.319,5.882a2,2,0,0,0,.319.482C-840.51,221.194-838.807,219.289-837.691,218.766Z" transform="translate(839.944 -201.412)" fill="#a87c1b"/>
          </g>
        </g>
        <g id="Grupo_27656" data-name="Grupo 27656" transform="translate(19.947 46.703)">
          <path id="Trazado_22131" data-name="Trazado 22131" d="M-830.952,221.161c-.024.264-5.63,5.64-8.8,12.16-3.5,7.211-1.427,13.988-.307,25.446,1.18,12.081,1.545,44.784,3.08,56.116.206,1.528,5.28,1.9,5.366,0,.533-11.947,10.2-73.11,10.2-73.11l22.092,74.144h2.922a6.938,6.938,0,0,0-.017-2.507c-1.456-12.954-5.76-66.161-7.48-72.41-3.606-13.108-6.535-16.541-7.218-20.12C-813.392,221.967-826.483,223.149-830.952,221.161Z" transform="translate(841.698 -220.88)" fill="#aacbe8"/>
        </g>
        <g id="Grupo_27658" data-name="Grupo 27658" transform="translate(41.67 46.703)">
          <g id="Grupo_27657" data-name="Grupo 27657">
            <path id="Trazado_22132" data-name="Trazado 22132" d="M-809.088,313.41c-1.456-12.954-5.76-66.161-7.48-72.41-3.606-13.108-6.535-16.541-7.218-20.12-.533.254-5.734.868-8.857,1.281,0,0,12.645,34.763,22.226,93.756h1.346A6.938,6.938,0,0,0-809.088,313.41Z" transform="translate(832.643 -220.88)" fill="#87ace8"/>
          </g>
        </g>
        <g id="Grupo_27659" data-name="Grupo 27659" transform="translate(21.452 19.877)">
          <path id="Trazado_22133" data-name="Trazado 22133" d="M-812.049,212.517c-2.629-1.058-10.426-3.766-18.628-2.48-4.217.662-10.395,3.9-10.395,3.9s9.471,20.4,9.241,22.864c4.469,1.989,17.56.806,19.835-.281a1.158,1.158,0,0,1,.019-.583C-809.4,227.719-812.049,212.517-812.049,212.517Z" transform="translate(841.071 -209.698)" fill="#ffcb48"/>
        </g>
        <g id="Grupo_27660" data-name="Grupo 27660" transform="translate(36.191 16.826)">
          <path id="Trazado_22134" data-name="Trazado 22134" d="M-834.927,208.426Z" transform="translate(834.927 -208.426)" fill="#3b2b5b"/>
        </g>
        <g id="Grupo_27661" data-name="Grupo 27661" transform="translate(36.443 15.311)">
          <path id="Trazado_22135" data-name="Trazado 22135" d="M-834.431,207.794s-.583,5.023-.326,5.59,1.214,1.31,1.782.055.046-5.645.046-5.645Z" transform="translate(834.822 -207.794)" fill="#ff97a6"/>
        </g>
        <g id="Grupo_27662" data-name="Grupo 27662" transform="translate(36.493 16.46)">
          <path id="Trazado_22136" data-name="Trazado 22136" d="M-834.8,210.787a1.738,1.738,0,0,0,2.056.206c.022-.916-.041-1.95-.1-2.72h-1.734C-834.657,209-834.746,209.945-834.8,210.787Z" transform="translate(834.801 -208.273)" fill="#c95d77"/>
        </g>
        <g id="Grupo_27663" data-name="Grupo 27663" transform="translate(34.126 9.333)">
          <path id="Trazado_22137" data-name="Trazado 22137" d="M-828.86,210.815c.417-.749.276-3.884.276-3.884a6.152,6.152,0,0,1-3.56-1.629,7.362,7.362,0,0,0-2.66.571c-.835.5-.9,1.679-.969,2.553a6.293,6.293,0,0,0,.616,3.207A4.015,4.015,0,0,0-832.531,213C-830.141,213.058-829.433,212.47-828.86,210.815Z" transform="translate(835.788 -205.302)" fill="#ff97a6"/>
        </g>
        <g id="Grupo_27664" data-name="Grupo 27664" transform="translate(0 22.179)">
          <path id="Trazado_22138" data-name="Trazado 22138" d="M-849.127,225.674c-3.438,6.59,3.685,24.529,11.839,26.64,3.032.787,7.221-2.617,7.221-2.617l-9.272-20.3,15.838-12.132.794-6.611S-844.512,216.837-849.127,225.674Z" transform="translate(850.013 -210.657)" fill="#ffcb48"/>
        </g>
        <g id="Grupo_27665" data-name="Grupo 27665" transform="translate(18.728 58.366)">
          <path id="Trazado_22139" data-name="Trazado 22139" d="M-841.435,227.494s2.979-2.389,3.987-1.588,2.692,2.068,2.469,2.586-1.442-.437-1.442-.437a11.156,11.156,0,0,1,.357,1.6c-.024.266-.756-.065-.756-.065a.666.666,0,0,1-.194.7c-.343.331-.772-.782-1.293-1.051s-2.6.4-3.673-.089C-842.376,228.969-842.287,228.113-841.435,227.494Z" transform="translate(842.206 -225.741)" fill="#ff97a6"/>
        </g>
        <g id="Grupo_27666" data-name="Grupo 27666" transform="translate(48.601 19.878)">
          <path id="Trazado_22140" data-name="Trazado 22140" d="M-827.88,212.517c5.738,2.281,16.258,16.027,16.258,16.027l13.091-18.846s4.654,2.037,5.721,9.423-13.674,20.089-19.2,20.089c-6.206,0-17.745-21.624-17.745-21.624S-829.135,212.018-827.88,212.517Z" transform="translate(829.754 -209.698)" fill="#ffcb48"/>
        </g>
        <g id="Grupo_27667" data-name="Grupo 27667" transform="translate(79.823 15.805)">
          <path id="Trazado_22141" data-name="Trazado 22141" d="M-810.967,210.262c.192-.734.336-1.833-.007-2.176-.482-.485-1.54,1.231-1.54,1.231a1.106,1.106,0,0,0-.4-.835c-.439-.439-1.1,1.046-1.1,1.046s-.175.185-.221-.607c-.014-.281-.509-.319-.631.072-.29.921-.7,1.974-.7,1.974a1.653,1.653,0,0,0-1.175,1.106s0,1.262.921,1.343a7.761,7.761,0,0,0,4.217-1.552,3.409,3.409,0,0,0,.628-1.581l.007-.022Z" transform="translate(816.739 -208)" fill="#c95d77"/>
        </g>
        <g id="Grupo_27670" data-name="Grupo 27670" transform="translate(55.224 50.124)">
          <g id="Grupo_27668" data-name="Grupo 27668" transform="translate(3.715)">
            <path id="Trazado_22142" data-name="Trazado 22142" d="M-804.924,222.306l-20.521,4.566.163,32.9,30.806-6.071Z" transform="translate(825.445 -222.306)" fill="#ff5e4d"/>
          </g>
          <g id="Grupo_27669" data-name="Grupo 27669" transform="translate(0 4.566)">
            <path id="Trazado_22143" data-name="Trazado 22143" d="M-826.066,224.83l-.927,31.861,1.855-.759,2.023,1.18-.163-32.9Z" transform="translate(826.993 -224.209)" fill="#c43b72"/>
          </g>
        </g>
        <g id="Grupo_27671" data-name="Grupo 27671" transform="translate(41.054 19.878)">
          <path id="Trazado_22144" data-name="Trazado 22144" d="M-788.409,219.121c-1.068-7.386-5.721-9.423-5.721-9.423l-13.091,18.846s-10.519-13.746-16.258-16.027a41.079,41.079,0,0,0-9.421-2.48c1.224,3.658,3.421,10.91,3.279,15.4a41.633,41.633,0,0,1-2.663,12.364c4.025-.194,7.741-.748,8.857-1.281a1.158,1.158,0,0,1,.019-.583c1.147-3.654,1.259-8.689,1.031-13.153,3.843,6.4,10.541,16.423,14.768,16.423C-802.083,239.21-787.344,226.507-788.409,219.121Z" transform="translate(832.9 -209.698)" fill="#ff9a2e"/>
        </g>
        <g id="Grupo_27672" data-name="Grupo 27672" transform="translate(63.92 37.415)">
          <path id="Trazado_22145" data-name="Trazado 22145" d="M-822.979,234.672H-823a.388.388,0,0,1-.367-.408c.031-.573.777-14.091,2.859-17.09a.388.388,0,0,1,.54-.1.386.386,0,0,1,.1.54c-1.958,2.819-2.716,16.548-2.723,16.687A.387.387,0,0,1-822.979,234.672Z" transform="translate(823.368 -217.008)" fill="#ffe5b0"/>
        </g>
      </g>
      <g id="Grupo_27679" data-name="Grupo 27679" transform="translate(269.328 206.25)">
        <path id="Trazado_22146" data-name="Trazado 22146" d="M-1017.617,236.806s1.938-2.094,3.241-1.662-.888,4.364-1.619,5.151-2.5-2.869-2.5-2.869Z" transform="translate(1041.44 -158.101)" fill="#ff97a6"/>
        <path id="Trazado_22147" data-name="Trazado 22147" d="M-1011.346,219.049s-.624,5.043-.074,5.549a1.876,1.876,0,0,0,2.912-.1c.964-1.341.041-5.736.041-5.736Z" transform="translate(1051.028 -180.94)" fill="#ff97a6"/>
        <path id="Trazado_22148" data-name="Trazado 22148" d="M-996.927,220.88c-4.385-.017-9.843,2.087-13.489,3.558-5.811,2.349-15.588,9.106-17.431,16.32-1.363,5.333,3.642,23.61,17.968,22.593,3.083-.221,5.64-6.674,5.64-6.674l-13.472-16.821s.492-2.082,6.938-6.129c1.54-.967,9.937-6.393,9.937-6.393A13.352,13.352,0,0,0-996.927,220.88Z" transform="translate(1028.063 -177.973)" fill="#ff5e4d"/>
        <g id="Grupo_27674" data-name="Grupo 27674" transform="translate(62.487 168.079)">
          <path id="Trazado_22149" data-name="Trazado 22149" d="M-993,275.67c.367-2.142-2.629-1.55-4.368-2.034.525.312,1.046.765.242,1.017-1.178.367-3.79.058-4.584-.78a5.5,5.5,0,0,0-.3,2.145C-1001.979,276.8-993.254,277.167-993,275.67Z" transform="translate(1002.015 -272.249)" fill="#3b2b5b"/>
          <path id="Trazado_22150" data-name="Trazado 22150" d="M-997.3,275.462c.8-.252.283-.705-.242-1.017-1.077-.3-1.984-.506-2.186-.59a1.264,1.264,0,0,1-.686-.7l-.545-.1s-.847,1.437-.926,1.624C-1001.094,275.519-998.481,275.829-997.3,275.462Z" transform="translate(1002.192 -273.058)" fill="#ff97a6"/>
        </g>
        <g id="Grupo_27675" data-name="Grupo 27675" transform="translate(24.768 168.079)">
          <path id="Trazado_22151" data-name="Trazado 22151" d="M-1008.722,275.67c.365-2.142-2.629-1.55-4.369-2.034.523.312,1.046.765.24,1.017-1.178.367-3.791.058-4.582-.78a5.461,5.461,0,0,0-.3,2.145C-1017.7,276.8-1008.979,277.167-1008.722,275.67Z" transform="translate(1017.738 -272.249)" fill="#3b2b5b"/>
          <path id="Trazado_22152" data-name="Trazado 22152" d="M-1013.029,275.462c.806-.252.283-.705-.24-1.017-1.079-.3-1.984-.506-2.185-.59a1.255,1.255,0,0,1-.686-.7l-.544-.1s-.847,1.437-.926,1.624C-1016.819,275.519-1014.207,275.829-1013.029,275.462Z" transform="translate(1017.916 -273.058)" fill="#ff97a6"/>
        </g>
        <path id="Trazado_22153" data-name="Trazado 22153" d="M-1002.737,247.151s21.7-6.64,25.41-11.75c5.069-6.981,7.708-25.676,2.776-28.756-1.9-1.19-9.759-.381-9.759-.381l-3.526,25.546s-12.448,7.713-15.533,9.941c-1.425,1.029-2.922,2.291-2.922,2.291Z" transform="translate(1058.519 -198.796)" fill="#aacbe8"/>
        <path id="Trazado_22154" data-name="Trazado 22154" d="M-1010.589,233.386a25.106,25.106,0,0,0-5.625,9.281c-3.877,10.447-1.972,76.488-.458,87.667.2,1.507,3.8,0,3.886-1.878.523-11.784,13.787-70.872,13.787-70.872l12.232,23.085,7.813,49.409h3.7s2.521-35.512,1.2-51.206c-1.08-12.81-8.521-43.138-10.306-45.935C-987.854,232.2-1005.165,232.947-1010.589,233.386Z" transform="translate(1041.441 -161.542)" fill="#a87c1b"/>
        <g id="Grupo_27676" data-name="Grupo 27676" transform="translate(47.345 71.083)">
          <path id="Trazado_22155" data-name="Trazado 22155" d="M-988.281,278.872c-1.08-12.81-8.521-43.138-10.306-45.935a63.64,63.64,0,0,0-9.74-.278l2.373,1.351s11.693,42.423,13.074,55.495c1.092,10.315,2.017,31.918,2.358,40.573h1.041S-986.959,294.566-988.281,278.872Z" transform="translate(1008.327 -232.625)" fill="#80540a"/>
        </g>
        <path id="Trazado_22156" data-name="Trazado 22156" d="M-986.546,224.3c-2.432-2.255-9.855-5.035-23.634-3.27-1.37.175-4.92,1.343-5.722,2.61-4.908,7.777,3.9,25.261,3.762,26.758,4.407,1.96,23.99.621,26.232-.449a68.837,68.837,0,0,0,1.135-11.9A53.615,53.615,0,0,0-986.546,224.3Z" transform="translate(1042.992 -178.551)" fill="#ff5e4d"/>
        <path id="Trazado_22157" data-name="Trazado 22157" d="M-1011.493,219.4Z" transform="translate(1051.243 -180.044)" fill="#3b2b5b"/>
        <path id="Trazado_22158" data-name="Trazado 22158" d="M-1005.362,222.143c.336-.775-.237-4.728-.237-4.728-1.358-1.761-5.506-.95-6.209-.422-.77.578-.719,1.737-.7,2.6s.806,4.846,3.606,4.86C-1006.621,224.468-1005.76,223.825-1005.362,222.143Z" transform="translate(1049.811 -184.324)" fill="#ff97a6"/>
        <path id="Trazado_22159" data-name="Trazado 22159" d="M-1010.9,224.887a11.488,11.488,0,0,1-2.231-3.889c-.389-1.766-.684-4.536,1.418-5.988,2.6-1.794,5.518.038,6.847.13,1.682.115,1.948-.89,2.747-.554,2.094.883.264,6.268-1.195,8.276S-1008.079,226.974-1010.9,224.887Z" transform="translate(1048.571 -187.282)" fill="#3b2b5b"/>
        <g id="Grupo_27677" data-name="Grupo 27677" transform="translate(35.168 26.948)">
          <path id="Trazado_22160" data-name="Trazado 22160" d="M-1011.721,221.752c-.41-1.979-.739-5.081,1.348-6.681a3.967,3.967,0,0,1,1.912-.8,4.594,4.594,0,0,0-3.248.741c-2.1,1.451-1.806,4.222-1.418,5.988a11.488,11.488,0,0,0,2.231,3.889,4.538,4.538,0,0,0,.948.535A11.6,11.6,0,0,1-1011.721,221.752Z" transform="translate(1013.403 -214.228)" fill="#7f65c1"/>
        </g>
        <path id="Trazado_22161" data-name="Trazado 22161" d="M-997.053,210.462s-.382-3.889.161-4.877,1.435-2.711,1.912-2.584-.638,2.3-.6,2.488,2.677.734,2.708,1.562a2.23,2.23,0,0,1-.573,1.466,8.5,8.5,0,0,1-.477,2.711C-994.311,211.7-996.7,212.565-997.053,210.462Z" transform="translate(1071.261 -202.994)" fill="#ff97a6"/>
        <g id="Grupo_27678" data-name="Grupo 27678" transform="translate(37.708 7.199)">
          <path id="Trazado_22162" data-name="Trazado 22162" d="M-966.085,206.645c-1.9-1.19-9.759-.381-9.759-.381l-3.526,25.546s-12.448,7.713-15.533,9.941c-.5.36-1,.744-1.447,1.1-3.126-1.382-8.348-2.471-15.994-2.032,2.708.9,5.988,2.605,7.648,5.808,3.126,6.024,4.361,24.64,4.361,24.64a34.015,34.015,0,0,0,7.367-1.072,68.837,68.837,0,0,0,1.135-11.9,53.923,53.923,0,0,0-1.231-11.525c4.594-1.473,21.017-6.983,24.2-11.369C-963.792,228.42-961.153,209.725-966.085,206.645Z" transform="translate(1012.344 -205.995)" fill="#c43b72"/>
        </g>
      </g>
      <g id="Grupo_27703" data-name="Grupo 27703" transform="translate(0 239.682)">
        <path id="Trazado_22163" data-name="Trazado 22163" d="M-1098.038,225.659l4.68,14.878.9-.455-5.086-14.766Z" transform="translate(1199.498 -205.2)" fill="#ffe5b0"/>
        <path id="Trazado_22164" data-name="Trazado 22164" d="M-1128.234,224.554l-4.68,14.878-.9-.455,5.086-14.767Z" transform="translate(1149.454 -206.746)" fill="#ffe5b0"/>
        <g id="Grupo_27682" data-name="Grupo 27682" transform="translate(50.073 142)">
          <g id="Grupo_27680" data-name="Grupo 27680" transform="translate(0 1.42)">
            <path id="Trazado_22165" data-name="Trazado 22165" d="M-1119.421,278.8c.446-.849,2.691-1.588,4.474-2.085-.537.321-1.073.784-.247,1.041,1.207.377,3.882.06,4.695-.8a5.666,5.666,0,0,1,.307,2.2C-1110.223,279.961-1120.145,280.174-1119.421,278.8Z" transform="translate(1119.459 -276.715)" fill="#3b2b5b"/>
          </g>
          <g id="Grupo_27681" data-name="Grupo 27681" transform="translate(3.839)">
            <path id="Trazado_22166" data-name="Trazado 22166" d="M-1117.432,278.584c-.825-.257-.29-.72.247-1.041,1.1-.307,2.032-.518,2.238-.6a1.3,1.3,0,0,0,.7-.713l.557-.1s-.376.756.646,1.161c.17.07.223.309.3.5C-1113.551,278.644-1116.226,278.961-1117.432,278.584Z" transform="translate(1117.859 -276.123)" fill="#ff97a6"/>
          </g>
        </g>
        <g id="Grupo_27685" data-name="Grupo 27685" transform="translate(108.763 83.107)">
          <g id="Grupo_27683" data-name="Grupo 27683" transform="translate(1.082)">
            <path id="Trazado_22167" data-name="Trazado 22167" d="M-1088.994,260.043c-.96-.031-2.605-1.73-3.826-3.119.521.345,1.171.624,1.043-.23-.187-1.25-1.638-3.522-2.766-3.877a5.632,5.632,0,0,1,1.845-1.235C-1091.962,251.258-1087.442,260.094-1088.994,260.043Z" transform="translate(1094.543 -251.573)" fill="#3b2b5b"/>
          </g>
          <g id="Grupo_27684" data-name="Grupo 27684" transform="translate(0 1.244)">
            <path id="Trazado_22168" data-name="Trazado 22168" d="M-1091.146,255.969c.127.854-.523.576-1.043.23-.758-.859-1.355-1.6-1.521-1.749a1.292,1.292,0,0,0-.95-.321l-.333-.458s.844.01.763-1.087c-.012-.185.182-.336.319-.492C-1092.784,252.447-1091.333,254.719-1091.146,255.969Z" transform="translate(1094.994 -252.092)" fill="#ff97a6"/>
          </g>
        </g>
        <path id="Trazado_22169" data-name="Trazado 22169" d="M-1109.865,225.53a5.594,5.594,0,0,1,1.559-7.367c4.095-3.253,8.468.588,8.8,3.982.261,2.632.2,2.452.926,2.452s4.333.506,3.392,4.5c-.35,1.495,3.716,1.85,2.538,6.141-2.08,7.576-22.444,4.421-24.016-1.5S-1109.865,225.53-1109.865,225.53Z" transform="translate(1173.171 -216.93)" fill="#ffcb48"/>
        <g id="Grupo_27686" data-name="Grupo 27686" transform="translate(45.49 46.452)">
          <path id="Trazado_22170" data-name="Trazado 22170" d="M-1094.229,236.579c.024.266,6.528,5.873,10.069,12.285,6.223,11.28.444,34.482.444,34.482l25.621-7.576.333.458s-21.058,22.325-31.549,19.381c-10.7-3-13.377-38.208-13.377-38.208l-6.141,74.907h-.825s-13.319-61.619-11.553-73.885c2.181-15.149,7.427-18.513,8.118-22.13C-1110.794,237.393-1098.744,238.587-1094.229,236.579Z" transform="translate(1121.369 -236.294)" fill="#ff97a6"/>
        </g>
        <g id="Grupo_27687" data-name="Grupo 27687" transform="translate(56.316 0.004)">
          <path id="Trazado_22171" data-name="Trazado 22171" d="M-1095.186,229.094c.94-3.994-2.663-4.5-3.392-4.5s-.664.18-.926-2.452c-.3-3.018-3.793-6.386-7.441-4.807,1.763.979,3.754,2.516,4.083,4.608.609,3.874,1.494,5.258,3.375,5.923s1.826,6.35-.331,7.3c-1.986.871-12.158,4.3-17.009-3.419a5.446,5.446,0,0,0,.163,1.986c1.572,5.925,21.936,9.08,24.016,1.5C-1091.47,230.944-1095.536,230.589-1095.186,229.094Z" transform="translate(1116.856 -216.932)" fill="#ff9a2e"/>
        </g>
        <g id="Grupo_27688" data-name="Grupo 27688" transform="translate(52.607 19.692)">
          <path id="Trazado_22172" data-name="Trazado 22172" d="M-1117.19,227.646a37.084,37.084,0,0,1,18.422-2.125c4.258.669,9.37,2.154,10.387,4.836,2.209,5.825-10.234,19.336-10,21.828-4.515,2.008-16.565.813-18.86-.285a1.2,1.2,0,0,0-.022-.588C-1119.87,243.006-1117.19,227.646-1117.19,227.646Z" transform="translate(1118.402 -225.139)" fill="#aacbe8"/>
        </g>
        <g id="Grupo_27689" data-name="Grupo 27689" transform="translate(18.555 19.248)">
          <path id="Trazado_22173" data-name="Trazado 22173" d="M-1097.111,227.8c-5.8,2.305-16.423,16.19-16.423,16.19l-13.225-19.04s-4.7,2.058-5.781,9.521,13.813,20.3,19.4,20.3c6.269,0,17.714-23.3,17.714-23.3S-1095.842,227.3-1097.111,227.8Z" transform="translate(1132.597 -224.954)" fill="#aacbe8"/>
        </g>
        <path id="Trazado_22174" data-name="Trazado 22174" d="M-1104.17,230.134l5.851,18.287s2.353-15.339,10.155-23.123c0,0,6.4,2.629,6.033,8.958-.333,5.753-9.816,23.407-15.305,24.393-11.64,2.089-9.531-26.748-9.531-26.748Z" transform="translate(1186.799 -205.225)" fill="#ff4a4a"/>
        <path id="Trazado_22175" data-name="Trazado 22175" d="M-1099.214,227.6s-.355-1.257.331-1.658a2.22,2.22,0,0,1,1.327-.31s-1.207-.544-.806-.638,1.137-.19,1.279,0a10.207,10.207,0,0,0,.972.82,3.136,3.136,0,0,0-.166-.751c-.118-.259-.758-.758-.355-.78s1.3.955,1.231,1.531-.828,1.108-.876,1.291.806-.353,1.161-.285.806.825.473.78a3.711,3.711,0,0,0-1.893.283c-.286.285-1.66.782-1.967.545A4.721,4.721,0,0,1-1099.214,227.6Z" transform="translate(1197.724 -206.646)" fill="#ff97a6"/>
        <path id="Trazado_22176" data-name="Trazado 22176" d="M-1128.634,229.222s-3.044-2.615-3.342-3.375,1.091-3.111,1.919-2.581,1.554,1.027,1.324,1.389-.2.233-.233.365,1.224.254,1.391,1.022A3.364,3.364,0,0,1-1128.634,229.222Z" transform="translate(1151.963 -208.177)" fill="#ff97a6"/>
        <path id="Trazado_22177" data-name="Trazado 22177" d="M-1107.631,236.294s-5.762,6.384-9.442,20.955-6.919,28.183-8.094,29.874,7.977,5.268,10.6,5.374a21.655,21.655,0,0,0,5.887-.883s10.044,2.327,14.864.89,15.562-9.157,15.562-9.157,5.189-3.066,5.189-3.949-1.765-1.252-1.691-3.826,5.813-22.641-14.01-38.993Z" transform="translate(1161.401 -189.842)" fill="#aacbe8"/>
        <g id="Grupo_27690" data-name="Grupo 27690" transform="translate(64.094 19.696)">
          <path id="Trazado_22178" data-name="Trazado 22178" d="M-1079.073,225.518c-7.8,7.785-10.155,23.123-10.155,23.123l-5.851-18.287c-1.017-2.682-6.129-4.167-10.387-4.836a33.557,33.557,0,0,0-8.008-.247,3.194,3.194,0,0,0,2.771,2.939,13.458,13.458,0,0,1,5.187,2.284s-6.537,11.6-7.972,22.845,9.855,10.459,11.846,26.9a89.978,89.978,0,0,1-.5,23.764c3.97-2.459,7.576-5.05,7.576-5.05s5.189-3.066,5.189-3.949-1.765-1.252-1.691-3.826,5.813-22.641-14.01-38.993c-.137-1.456,4.045-6.667,7.113-11.911.314,8.353,2.087,19.95,9.62,18.6,5.489-.986,14.972-18.64,15.305-24.393C-1072.671,228.147-1079.073,225.518-1079.073,225.518Z" transform="translate(1113.614 -225.141)" fill="#87ace8"/>
        </g>
        <g id="Grupo_27693" data-name="Grupo 27693" transform="translate(0 28.966)">
          <g id="Grupo_27691" data-name="Grupo 27691">
            <path id="Trazado_22179" data-name="Trazado 22179" d="M-1129.776,229l20.732,4.613-.165,33.242-31.123-6.134Z" transform="translate(1140.332 -229.005)" fill="#7f65c1"/>
          </g>
          <g id="Grupo_27692" data-name="Grupo 27692" transform="translate(31.123 4.613)">
            <path id="Trazado_22180" data-name="Trazado 22180" d="M-1124.377,231.554l.937,32.189-1.874-.767-2.044,1.193.165-33.242Z" transform="translate(1127.358 -230.928)" fill="#3b2b5b"/>
          </g>
        </g>
        <g id="Grupo_27694" data-name="Grupo 27694" transform="translate(22.651 16.125)">
          <path id="Trazado_22181" data-name="Trazado 22181" d="M-1127.678,241.5h.021a.392.392,0,0,0,.37-.413c-.031-.581-.784-14.235-2.889-17.265a.391.391,0,0,0-.544-.1.391.391,0,0,0-.1.547c1.977,2.848,2.742,16.718,2.749,16.86A.392.392,0,0,0-1127.678,241.5Z" transform="translate(1130.89 -223.652)" fill="#ffe5b0"/>
        </g>
        <g id="Grupo_27697" data-name="Grupo 27697" transform="translate(87.64 31.617)">
          <g id="Grupo_27695" data-name="Grupo 27695" transform="translate(3.754)">
            <path id="Trazado_22182" data-name="Trazado 22182" d="M-1081.5,230.11l-20.732,4.613.165,33.242,31.124-6.134Z" transform="translate(1102.234 -230.11)" fill="#357a5f"/>
          </g>
          <g id="Grupo_27696" data-name="Grupo 27696" transform="translate(0 4.613)">
            <path id="Trazado_22183" data-name="Trazado 22183" d="M-1102.862,232.659l-.937,32.189,1.874-.767,2.044,1.193-.165-33.242Z" transform="translate(1103.799 -232.033)" fill="#295a6e"/>
          </g>
        </g>
        <g id="Grupo_27698" data-name="Grupo 27698" transform="translate(96.427 18.776)">
          <path id="Trazado_22184" data-name="Trazado 22184" d="M-1099.745,242.6h-.022a.391.391,0,0,1-.369-.413c.031-.581.784-14.235,2.888-17.265a.392.392,0,0,1,.545-.1.389.389,0,0,1,.1.545c-1.977,2.85-2.742,16.721-2.75,16.862A.391.391,0,0,1-1099.745,242.6Z" transform="translate(1100.136 -224.757)" fill="#ffe5b0"/>
        </g>
        <g id="Grupo_27699" data-name="Grupo 27699" transform="translate(68.651 16.951)">
          <path id="Trazado_22185" data-name="Trazado 22185" d="M-1111.715,224Z" transform="translate(1111.715 -223.997)" fill="#3b2b5b"/>
        </g>
        <g id="Grupo_27700" data-name="Grupo 27700" transform="translate(65.681 15.012)">
          <path id="Trazado_22186" data-name="Trazado 22186" d="M-1110.307,223.5s-.458,5.088-.828,5.594-1.471,1.046-1.775-.312,1.12-5.592,1.12-5.592Z" transform="translate(1112.952 -223.188)" fill="#ff97a6"/>
        </g>
        <g id="Grupo_27701" data-name="Grupo 27701" transform="translate(65.834 16.125)">
          <path id="Trazado_22187" data-name="Trazado 22187" d="M-1110.811,226.54a1.754,1.754,0,0,1-2.078-.221c.168-.909.442-1.919.662-2.668l1.718.357C-1110.586,224.741-1110.694,225.7-1110.811,226.54Z" transform="translate(1112.889 -223.652)" fill="#c95d77"/>
        </g>
        <g id="Grupo_27702" data-name="Grupo 27702" transform="translate(64.22 9.18)">
          <path id="Trazado_22188" data-name="Trazado 22188" d="M-1113.531,225.567a17.056,17.056,0,0,1,.528-3.9c1.182-1.874,5.709-.377,6.369.235.725.672.547,1.847.434,2.725a6.381,6.381,0,0,1-1.271,3.047,4.07,4.07,0,0,1-2.879.808C-1112.728,228.05-1113.155,227.3-1113.531,225.567Z" transform="translate(1113.562 -220.757)" fill="#ff97a6"/>
        </g>
      </g>
      <g id="Grupo_27721" data-name="Grupo 27721" transform="translate(561.414 222.882)">
        <g id="Grupo_27705" data-name="Grupo 27705" transform="translate(39.54)">
          <g id="Grupo_27704" data-name="Grupo 27704">
            <path id="Trazado_22189" data-name="Trazado 22189" d="M-869.741,214.928s-3.118-5.721-7.868-4.925c-4.815.806-5.892,6.468-5.892,6.468a14.378,14.378,0,0,0-5.23,17.356c3.546,9.5,33.662,19.491,27.187-10.428C-862.5,218.959-864.924,215.056-869.741,214.928Z" transform="translate(889.825 -209.927)" fill="#ffcb48"/>
          </g>
        </g>
        <g id="Grupo_27706" data-name="Grupo 27706" transform="translate(46.775)">
          <path id="Trazado_22190" data-name="Trazado 22190" d="M-866.353,224.4c-.959-4.44-3.38-8.344-8.2-8.471,0,0-3.119-5.721-7.866-4.925a6.557,6.557,0,0,0-4.392,2.96,6.937,6.937,0,0,1,4.98-3.963c4.75-.8,7.868,4.925,7.868,4.925,4.817.127,7.238,4.03,8.2,8.471,1.658,7.662.914,12.7-1.166,15.807C-865.314,236.056-864.863,231.287-866.353,224.4Z" transform="translate(886.809 -209.927)" fill="#ffe5b0"/>
        </g>
        <path id="Trazado_22191" data-name="Trazado 22191" d="M-865.639,218.783c-1.72-.163-15.168,19.906-15.168,19.906s-14.778-20.214-17.925-19.29-6.1,10.011-4.589,12.127,14.439,16.43,22.931,15.74C-872.471,246.622-860.363,219.284-865.639,218.783Z" transform="translate(909.914 -197.541)" fill="#30193b"/>
        <g id="Grupo_27707" data-name="Grupo 27707" transform="translate(25.916 142.876)">
          <path id="Trazado_22192" data-name="Trazado 22192" d="M-895.5,272.294c.05-.664,1.638-1.43,2.792-1.993-.326.285-.634.672-.036.741a4.5,4.5,0,0,0,3.049-1.557,4.868,4.868,0,0,1,.5,1.66C-889.111,271.7-895.638,274.024-895.5,272.294Z" transform="translate(895.504 -269.485)" fill="#30193b"/>
        </g>
        <g id="Grupo_27708" data-name="Grupo 27708" transform="translate(72.652 143.109)">
          <path id="Trazado_22193" data-name="Trazado 22193" d="M-870.579,272.535c.173-.636-2.538-2.648-3.437-2.953.278.216.688.672.295.885a2.111,2.111,0,0,1-2.221-.633,6,6,0,0,0-.048,1.612C-875.938,272.034-870.989,274.022-870.579,272.535Z" transform="translate(876.022 -269.582)" fill="#30193b"/>
        </g>
        <path id="Trazado_22194" data-name="Trazado 22194" d="M-894.12,327.954a9.589,9.589,0,0,0,1.95-1.365c.317-5.585,3.538-41.562,4.776-49.536,1.989-12.8,9.046-40.828,10.519-43.826,3.419-1.132,13.384-3.433,18.268-4.954.055.259,6.235,5.714,9.476,12.148,5.052,10.028.182,75.068-.082,86.429a9.113,9.113,0,0,1,1.175.6c.279.218,1.272,1.082.878,1.3-.573.314-2.5-.523-2.941-1.123a1.58,1.58,0,0,1,.125-.377c.026-.05-8.893-30.906-12.647-49.543-3.128-15.533-1.979-24.1-1.979-24.1l-2.238,19.683s-24.313,53.782-24.268,53.852a4.5,4.5,0,0,1-3.049,1.557C-894.753,328.626-894.446,328.24-894.12,327.954Z" transform="translate(922.831 -184.263)" fill="#ff97a6"/>
        <g id="Grupo_27709" data-name="Grupo 27709" transform="translate(30.661 48.941)">
          <path id="Trazado_22195" data-name="Trazado 22195" d="M-869.726,273.8l-6.647,1.586s-4.088,3.771-7.54,13.746c-2.934,8.48-9.613,34.583-9.613,34.583.317-5.585,3.538-41.562,4.776-49.536,1.989-12.8,9.046-40.828,10.519-43.826,3.419-1.132,10.035,40.06,10.035,40.06S-868.766,271.671-869.726,273.8Z" transform="translate(893.526 -230.328)" fill="#c95d77"/>
        </g>
        <g id="Grupo_27710" data-name="Grupo 27710" transform="translate(35.533 44.01)">
          <path id="Trazado_22196" data-name="Trazado 22196" d="M-862.8,228.273s8.365,6.105,10.435,11.321c5.755,14.492,1.058,36.785,1.022,40.969l-3.742-.024-.557-20.353-2.044,20.338s-25.625-.837-33.806-6.312c0,0,3.884-28.924,9.821-43.186Z" transform="translate(891.495 -228.273)" fill="#3b2b5b"/>
        </g>
        <g id="Grupo_27711" data-name="Grupo 27711" transform="translate(42.873 19.491)">
          <path id="Trazado_22197" data-name="Trazado 22197" d="M-864.881,224.159l-.273,12.29-.322,9.44a27.106,27.106,0,0,1-9.555.8,36.843,36.843,0,0,0-10.414.142c-.427-.036-5.412-24.858-1.5-27.13,3.044-1.77,8.847-2.089,15.936-1.075C-867.4,219.143-864.937,220.51-864.881,224.159Z" transform="translate(888.436 -218.052)" fill="#3b2b5b"/>
        </g>
        <g id="Grupo_27716" data-name="Grupo 27716" transform="translate(53.933 15.861)">
          <g id="Grupo_27713" data-name="Grupo 27713" transform="translate(0.005)">
            <g id="Grupo_27712" data-name="Grupo 27712">
              <path id="Trazado_22198" data-name="Trazado 22198" d="M-882.7,216.539a27.042,27.042,0,0,1,.806,4.153c-.134.451-.777,1.106-1.327.223s-.6-4.225-.6-4.225Z" transform="translate(883.823 -216.539)" fill="#ff97a6"/>
            </g>
          </g>
          <g id="Grupo_27715" data-name="Grupo 27715" transform="translate(0 1.171)">
            <g id="Grupo_27714" data-name="Grupo 27714">
              <path id="Trazado_22199" data-name="Trazado 22199" d="M-883.657,218.452a12.222,12.222,0,0,0-.168-1.375l1.406-.05s.12.473.273,1.125A.967.967,0,0,1-883.657,218.452Z" transform="translate(883.825 -217.027)" fill="#c95d77"/>
            </g>
          </g>
        </g>
        <g id="Grupo_27717" data-name="Grupo 27717" transform="translate(50.255 10.712)">
          <path id="Trazado_22200" data-name="Trazado 22200" d="M-885.187,219.278a11.282,11.282,0,0,1-.146-3.116,1.834,1.834,0,0,1,1.943-1.766,12.246,12.246,0,0,1,3.826.609c.744.494.756,1.569.784,2.368a5.76,5.76,0,0,1-.693,2.9,3.678,3.678,0,0,1-2.449,1.142C-884.108,221.377-884.729,220.811-885.187,219.278Z" transform="translate(885.358 -214.393)" fill="#ff97a6"/>
        </g>
        <g id="Grupo_27718" data-name="Grupo 27718" transform="translate(35.533 19.503)">
          <path id="Trazado_22201" data-name="Trazado 22201" d="M-881.674,245.319l.058-.01c-1.264-5.422-4.378-23.682-1.053-25.616,1.768-1.029,4.474-1.564,7.818-1.636.074,5.494.415,23.241,1.756,27.286,1.07,3.234-3.207,30.03-6.12,47.209-4.964-.933-9.577-2.236-12.28-4.047C-891.495,288.5-887.611,259.58-881.674,245.319Z" transform="translate(891.495 -218.057)" fill="#30193b"/>
        </g>
        <path id="Trazado_22202" data-name="Trazado 22202" d="M-857.193,219.173c-1.72-.163-15.168,19.906-15.168,19.906s-14.775-20.216-17.925-19.29-6.1,10.008-4.589,12.124,14.439,16.433,22.931,15.742C-864.025,247.01-851.917,219.672-857.193,219.173Z" transform="translate(921.729 -196.995)" fill="#594b7a"/>
        <g id="Grupo_27719" data-name="Grupo 27719" transform="translate(0 20.824)">
          <path id="Trazado_22203" data-name="Trazado 22203" d="M-897.92,226.513l-4.066,4.738-4.321-4.268s2.775-4.961,6.355-7.158c2.063-1.267,9.536-1.216,9.536-1.216s.317,3.464,2.046,4.148c-.5,5.94-1.123,14.175-1.063,17.558.063,3.634.751,15.346,1.219,23.018a68.553,68.553,0,0,1-8.248-.6c-3.025-.641-9.845-5.357-9.845-5.357a76.623,76.623,0,0,0,6.875-12.986C-896.963,237.956-897.92,226.513-897.92,226.513Z" transform="translate(906.307 -218.608)" fill="#c43b72"/>
          <path id="Trazado_22204" data-name="Trazado 22204" d="M-898.208,222.509a1.826,1.826,0,0,0,1.159.043c2.756-.729,2.051-3.745,2.051-3.745,5.717-.453,15.871,5.791,15.871,5.791l-3.073,8.37-5.244-4.5c-.437,1.744,8.353,30.735,8.353,30.735s-11.76,4.973-15.262,4.292a28.862,28.862,0,0,0-3.7-.408c-.468-7.672-1.156-19.383-1.219-23.018C-899.331,236.685-898.7,228.449-898.208,222.509Z" transform="translate(916.145 -218.361)" fill="#ff4a4a"/>
        </g>
        <path id="Trazado_22205" data-name="Trazado 22205" d="M-889.5,220.717s-2.845-2.754-4.356-2.116-1.941,1.36-1.509,1.5,1.293-.142.861,0-.9.367-.449.614,1.1-.237,1.168-.113-.737.18-.7.523,1.331.053,1.456.089,1.384,1.151,2.373.919S-888.629,221.3-889.5,220.717Z" transform="translate(921.396 -197.927)" fill="#ff97a6"/>
        <g id="Grupo_27720" data-name="Grupo 27720" transform="translate(8.265 20.261)">
          <path id="Trazado_22206" data-name="Trazado 22206" d="M-897.426,219.009s-2.936-1.662-4.992.391c0,0-.852,2.86-.194,2.8a1.364,1.364,0,0,0,.986-.65s.389.653.628.345.509-.969.72-.823,1.108-.173,1.636-1.087A1.77,1.77,0,0,1-897.426,219.009Z" transform="translate(902.862 -218.373)" fill="#ff97a6"/>
        </g>
        <path id="Trazado_22207" data-name="Trazado 22207" d="M-882.045,239.079c.017-.163.026-.247.026-.247Z" transform="translate(940.248 -169.491)" fill="#ff97a6"/>
      </g>
      <g id="Grupo_27731" data-name="Grupo 27731" transform="translate(197.191 210.633)">
        <path id="Trazado_22208" data-name="Trazado 22208" d="M-1042.488,211.988s8.463,3.457,9.44,9.387-5.77,4.652-7.657,4.678S-1042.488,211.988-1042.488,211.988Z" transform="translate(1080.017 -194.796)" fill="#295a6e"/>
        <path id="Trazado_22209" data-name="Trazado 22209" d="M-1051.062,209.1s-.691,3.111,1.61,4.6,5.945.146,6.643-1.691c1.259-3.32,0-5.849-2.243-6.05C-1050.064,205.505-1051.062,209.1-1051.062,209.1Z" transform="translate(1067.889 -203.292)" fill="#3b2b5b"/>
        <path id="Trazado_22210" data-name="Trazado 22210" d="M-1055.732,217.6c-3.677,6.158,4.059,24.6,3.91,26.175,4.635,2.063,25.223.655,27.581-.47-.017-.082,1.23-6.516,2.171-13.691.986-7.516,2.72-14.329-.976-15.871C-1040.4,206.51-1053.134,213.251-1055.732,217.6Z" transform="translate(1060.103 -196.801)" fill="#357a5f"/>
        <g id="Grupo_27722" data-name="Grupo 27722" transform="translate(41.542 148.148)">
          <path id="Trazado_22211" data-name="Trazado 22211" d="M-1031.339,269.325c.384-2.255-2.764-1.631-4.592-2.14.549.329,1.1.8.252,1.068-1.238.389-3.985.062-4.817-.818a5.708,5.708,0,0,0-.314,2.255C-1040.779,270.517-1031.608,270.9-1031.339,269.325Z" transform="translate(1040.817 -265.726)" fill="#3b2b5b"/>
          <path id="Trazado_22212" data-name="Trazado 22212" d="M-1035.866,269.1c.847-.264.3-.739-.252-1.068-1.135-.314-2.087-.533-2.3-.621a1.327,1.327,0,0,1-.722-.732l-.573-.106s-.887,1.511-.972,1.708C-1039.851,269.165-1037.1,269.492-1035.866,269.1Z" transform="translate(1041.003 -266.577)" fill="#ff97a6"/>
        </g>
        <g id="Grupo_27723" data-name="Grupo 27723" transform="translate(25.256 13.91)">
          <path id="Trazado_22213" data-name="Trazado 22213" d="M-1035.8,213.65a40.534,40.534,0,0,0-11.8-3.03,140.921,140.921,0,0,1,1.778,21.1c.1,4.078.283,8.452.5,12.662,4.112-.3,7.458-.756,8.329-1.171-.017-.082,1.23-6.516,2.171-13.691C-1033.842,222.005-1032.108,215.192-1035.8,213.65Z" transform="translate(1047.605 -210.62)" fill="#295a6e"/>
        </g>
        <g id="Grupo_27724" data-name="Grupo 27724" transform="translate(1.885 148.148)">
          <path id="Trazado_22214" data-name="Trazado 22214" d="M-1047.869,269.325c.384-2.255-2.763-1.631-4.594-2.14.552.329,1.1.8.254,1.068-1.238.389-3.985.062-4.817-.818a5.756,5.756,0,0,0-.317,2.255C-1057.311,270.517-1048.137,270.9-1047.869,269.325Z" transform="translate(1057.347 -265.726)" fill="#3b2b5b"/>
          <path id="Trazado_22215" data-name="Trazado 22215" d="M-1052.4,269.1c.847-.264.3-.739-.254-1.068-1.132-.314-2.085-.533-2.3-.621a1.326,1.326,0,0,1-.722-.732l-.573-.106s-.89,1.511-.972,1.708C-1056.38,269.165-1053.634,269.492-1052.4,269.1Z" transform="translate(1057.535 -266.577)" fill="#ff97a6"/>
        </g>
        <path id="Trazado_22216" data-name="Trazado 22216" d="M-1049.962,224.868a26.416,26.416,0,0,0-5.913,9.759c-4.076,10.985-1.475,80.31.117,92.062.216,1.586,1.989.192,1.989.192l15.991-76.572,8.339,15.737a60.768,60.768,0,0,1,6.177,18.05l7.42,42.689,1.355-.139s4.328-37.457,2.939-53.955c-1.135-13.47-8.96-45.355-10.833-48.293C-1026.059,223.618-1044.26,224.408-1049.962,224.868Z" transform="translate(1058.243 -177.896)" fill="#ff97a6"/>
        <g id="Grupo_27725" data-name="Grupo 27725" transform="translate(19.6 46.173)">
          <path id="Trazado_22217" data-name="Trazado 22217" d="M-1022.867,272.691c-1.135-13.47-8.96-45.355-10.833-48.293-2.186-.463-9.493-.372-16.263-.125l18.7,36.562s6.662,45.465,5.46,65.81C-1025.805,326.646-1021.478,289.189-1022.867,272.691Z" transform="translate(1049.963 -224.069)" fill="#c95d77"/>
        </g>
        <g id="Grupo_27726" data-name="Grupo 27726" transform="translate(0 46.173)">
          <path id="Trazado_22218" data-name="Trazado 22218" d="M-1022.271,224.4c-3.678-.78-21.878.01-27.581.47a26.418,26.418,0,0,0-5.913,9.757c-1.542,4.157-2.214,16.677-2.368,31.273,4.215-.494,11.1-1.3,18.009-2.214,1.732-7.974,2.456-13.374,2.456-13.374l6.324,12.59c6.578-.94,13.07-2.413,17.93-3.38C-1016.19,244.792-1020.877,226.584-1022.271,224.4Z" transform="translate(1058.133 -224.069)" fill="#a87c1b"/>
        </g>
        <g id="Grupo_27727" data-name="Grupo 27727" transform="translate(26.489 46.174)">
          <path id="Trazado_22219" data-name="Trazado 22219" d="M-1037.718,224.4a60.675,60.675,0,0,0-9.373-.307c2.512,7.657,6.324,19.168,8.123,24.018a130.813,130.813,0,0,1,3.685,12.726c2.329-.475,4.505-.936,6.422-1.317C-1031.637,244.791-1036.325,226.583-1037.718,224.4Z" transform="translate(1047.091 -224.069)" fill="#80540a"/>
        </g>
        <g id="Grupo_27728" data-name="Grupo 27728" transform="translate(28.923 24.296)">
          <path id="Trazado_22220" data-name="Trazado 22220" d="M-1026.287,214.949l-13.967.713V240.42h13.5Z" transform="translate(1054.221 -214.949)" fill="#ff9a2e"/>
          <path id="Trazado_22221" data-name="Trazado 22221" d="M-1046.076,215.96V240h13.967V215.247Z" transform="translate(1046.076 -214.534)" fill="#ffcb48"/>
        </g>
        <path id="Trazado_22222" data-name="Trazado 22222" d="M-1049.644,209.741h0Z" transform="translate(1070.009 -197.939)" fill="#3b2b5b"/>
        <g id="Grupo_27729" data-name="Grupo 27729" transform="translate(18.961 10.225)">
          <path id="Trazado_22223" data-name="Trazado 22223" d="M-1049.914,209.389s-.655,5.3-.077,5.832,2.586,1.106,3.6-.3-.5-5.832-.5-5.832Z" transform="translate(1050.229 -209.084)" fill="#ff97a6"/>
          <path id="Trazado_22224" data-name="Trazado 22224" d="M-1050.227,212.558a6.326,6.326,0,0,0,4.17-.2,14.589,14.589,0,0,0-.49-2.785l-3.5.353C-1050.124,210.682-1050.2,211.68-1050.227,212.558Z" transform="translate(1050.233 -208.405)" fill="#c95d77"/>
        </g>
        <path id="Trazado_22225" data-name="Trazado 22225" d="M-1043.444,208.016c-1.3-1.941-5.709-1.375-6.484-.871-.849.554-.873,1.773-.911,2.68s.552,4.807,3.445,5.35C-1041.945,216.194-1043.444,208.016-1043.444,208.016Z" transform="translate(1068.333 -202.25)" fill="#ff97a6"/>
        <path id="Trazado_22226" data-name="Trazado 22226" d="M-1050.814,243.978c10.572,8.113,37.411-4.879,37.411-4.879a27.315,27.315,0,0,0-15.778-3.606c-3.635.261-17.134,2.516-17.134,2.516s-.127-21.9-3.526-24.016c-2.555-1.588-4.078-.681-5.52.789C-1059.6,219.106-1056.017,239.986-1050.814,243.978Z" transform="translate(1059.395 -193.16)" fill="#ff97a6"/>
        <path id="Trazado_22227" data-name="Trazado 22227" d="M-1038.634,227.051s3.164.281,4.119-.653c1.607-1.562,2.37-3.555,1.943-3.958s-3.234,1.207-3.62,1.677-2.819.674-3.641,1.578C-1040.136,226.032-1039.7,226.811-1038.634,227.051Z" transform="translate(1083.602 -180.263)" fill="#ff97a6"/>
        <path id="Trazado_22228" data-name="Trazado 22228" d="M-1050.5,208.258a15.013,15.013,0,0,0,9.563,1.509c3.354-.7-2.344-3.258-2.344-3.258A25.192,25.192,0,0,1-1050.5,208.258Z" transform="translate(1068.807 -202.461)" fill="#a87c1b"/>
        <path id="Trazado_22229" data-name="Trazado 22229" d="M-1042.328,208.87s.041-2.322-1.14-3.3-4.9-1.262-6.6.816a4.657,4.657,0,0,0-.957,4.241l1.478-.007S-1042.084,210.988-1042.328,208.87Z" transform="translate(1067.851 -204.822)" fill="#80540a"/>
        <path id="Trazado_22230" data-name="Trazado 22230" d="M-1039.915,216.213h-7.334v-2.628l7.334-.428Z" transform="translate(1073.36 -193.16)" fill="#fff2dc"/>
        <path id="Trazado_22231" data-name="Trazado 22231" d="M-1031.964,219.4c0,1.463-1.521,2.648-3.4,2.648s-3.4-1.185-3.4-2.648,1.521-2.648,3.4-2.648S-1031.964,217.934-1031.964,219.4Z" transform="translate(1085.235 -188.138)" fill="#fff2dc"/>
        <g id="Grupo_27730" data-name="Grupo 27730" transform="translate(2.165 19.998)">
          <path id="Trazado_22232" data-name="Trazado 22232" d="M-1049.841,213.993c-2.555-1.588-4.078-.681-5.52.789-1.881,1.919-2.219,7.1-1.562,12.623l9.953-2.485C-1047.461,219.809-1048.327,214.934-1049.841,213.993Z" transform="translate(1057.23 -213.158)" fill="#4d8958"/>
        </g>
        <path id="Trazado_22233" data-name="Trazado 22233" d="M-1033.035,222.764s-.051-1.874-.535-2.159-.077,1.629-.322,2.159-1.547,3.1-1.3,3.709,1.065-.326,1.065-.326-.7,1.343-.25,1.384,1.629-.245,1.833-1.914A4.909,4.909,0,0,0-1033.035,222.764Z" transform="translate(1090.178 -182.782)" fill="#ff97a6"/>
      </g>
      <g id="Grupo_27753" data-name="Grupo 27753" transform="translate(120.238 237.78)">
        <g id="Grupo_27752" data-name="Grupo 27752">
          <path id="Trazado_22234" data-name="Trazado 22234" d="M-1073.3,225s21.271,16.039,22.373,23.339-10.5,10.2-13.6,5-10.9-22.006-10.9-22.006Z" transform="translate(1110.886 -203.743)" fill="#ff9a2e"/>
          <g id="Grupo_27734" data-name="Grupo 27734" transform="translate(39.493 140.841)">
            <g id="Grupo_27732" data-name="Grupo 27732" transform="translate(0 1.262)">
              <path id="Trazado_22235" data-name="Trazado 22235" d="M-1065.541,277.225c.333-1.95-2.392-1.413-3.977-1.852.477.283.952.7.221.924-1.072.336-3.452.055-4.172-.708a4.966,4.966,0,0,0-.274,1.953C-1073.717,278.257-1065.774,278.585-1065.541,277.225Z" transform="translate(1073.748 -275.373)" fill="#3b2b5b"/>
            </g>
            <g id="Grupo_27733" data-name="Grupo 27733" transform="translate(0.278)">
              <path id="Trazado_22236" data-name="Trazado 22236" d="M-1069.46,277.032c.732-.228.257-.641-.221-.924-.981-.273-1.8-.463-1.989-.537a1.142,1.142,0,0,1-.624-.636l-.5-.089s-.77,1.307-.842,1.478C-1072.912,277.088-1070.532,277.368-1069.46,277.032Z" transform="translate(1073.632 -274.847)" fill="#ff97a6"/>
            </g>
          </g>
          <g id="Grupo_27735" data-name="Grupo 27735" transform="translate(3.687 45.208)">
            <path id="Trazado_22237" data-name="Trazado 22237" d="M-1081.667,235.614a22.945,22.945,0,0,0-5.122,8.449c-3.527,9.514-1.277,76.932.1,87.108.185,1.375,1.723.168,1.723.168l13.846-68.768,11.136,24.3,7.391,44.433,1.641-.168s3.747-39.825,2.543-54.111c-.981-11.664-7.948-39.194-9.572-41.739C-1061.161,234.612-1076.73,235.216-1081.667,235.614Z" transform="translate(1088.674 -234.983)" fill="#3b2b5b"/>
          </g>
          <g id="Grupo_27736" data-name="Grupo 27736" transform="translate(25.318 44.594)">
            <path id="Trazado_22238" data-name="Trazado 22238" d="M-1067.25,272.7a42.705,42.705,0,0,1,1.665,8.5l1.389,50.366.633-.065s3.747-39.825,2.543-54.111c-.981-11.664-7.948-39.194-9.572-41.739a30.716,30.716,0,0,0-8.051-.912C-1083.313,234.821-1070.526,262.618-1067.25,272.7Z" transform="translate(1079.657 -234.727)" fill="#30193b"/>
          </g>
          <g id="Grupo_27739" data-name="Grupo 27739" transform="translate(0 141.354)">
            <g id="Grupo_27737" data-name="Grupo 27737" transform="translate(0 1.42)">
              <path id="Trazado_22239" data-name="Trazado 22239" d="M-1090.159,277.812c-.463-1.926,2.293-1.569,3.843-2.111-.456.314-.9.756-.156.936,1.092.264,3.445-.175,4.114-.983a4.986,4.986,0,0,1,.4,1.931C-1081.935,278.3-1089.837,279.153-1090.159,277.812Z" transform="translate(1090.21 -275.653)" fill="#3b2b5b"/>
            </g>
            <g id="Grupo_27738" data-name="Grupo 27738" transform="translate(3.34)">
              <path id="Trazado_22240" data-name="Trazado 22240" d="M-1088.419,277.465c-.746-.18-.3-.621.156-.936.962-.338,1.773-.583,1.95-.669a1.151,1.151,0,0,0,.581-.674l.489-.125s.856,1.255.938,1.42C-1084.974,277.29-1087.328,277.729-1088.419,277.465Z" transform="translate(1088.818 -275.061)" fill="#ff97a6"/>
            </g>
          </g>
          <path id="Trazado_22241" data-name="Trazado 22241" d="M-1051.361,240.186c-.674-4.217-2.632-12.676-2.632-12.676-2.2-2.068-8.718-4.011-10.395-4.162a44.841,44.841,0,0,0-22.394,4.294s-5.453,28.005-.084,36.91c3.994,1.83,16.255,4.894,33.794.981C-1053.084,265.464-1047.252,265.862-1051.361,240.186Z" transform="translate(1091.581 -206.254)" fill="#ffcb48"/>
          <g id="Grupo_27740" data-name="Grupo 27740" transform="translate(17.626 16.948)">
            <path id="Trazado_22242" data-name="Trazado 22242" d="M-1060.27,240.186c-.674-4.217-2.632-12.676-2.632-12.676-2.2-2.068-8.718-4.011-10.395-4.162a39.764,39.764,0,0,0-9.567.348,4.81,4.81,0,0,0,1.725,3.814c2.4,1.934,8.788-.353,11.333,4.733,3.9,7.8-1.286,34.761-1.286,34.79a79.868,79.868,0,0,0,9.111-1.5C-1061.992,265.463-1056.16,265.862-1060.27,240.186Z" transform="translate(1082.863 -223.203)" fill="#ff9a2e"/>
          </g>
          <g id="Grupo_27741" data-name="Grupo 27741" transform="translate(29.94 31.118)">
            <path id="Trazado_22243" data-name="Trazado 22243" d="M-1077.73,232.862l.034,12.592,25.905.611,1.05-12.921Z" transform="translate(1077.73 -223.86)" fill="#ff5e4d"/>
            <path id="Trazado_22244" data-name="Trazado 22244" d="M-1077.73,236.935l11.6-6.985h23.538l-8.151,7.267Z" transform="translate(1077.73 -227.933)" fill="#c43b72"/>
            <rect id="Rectángulo_4388" data-name="Rectángulo 4388" width="23.538" height="2.017" transform="translate(11.604)" fill="#ff5e4d"/>
          </g>
          <path id="Trazado_22245" data-name="Trazado 22245" d="M-1081.634,232.987a146.193,146.193,0,0,1,2.094,17.637s18.191-1.435,21.353-.161c3.637,1.463,4.573,6.355,2.058,9.279-1.9,2.214-24.191,5.239-29.857-4.2-3.289-5.482-6.78-26.06-.377-30.133C-1082.653,223.05-1081.737,232.476-1081.634,232.987Z" transform="translate(1090.583 -203.697)" fill="#ffe5b0"/>
          <path id="Trazado_22246" data-name="Trazado 22246" d="M-1068.656,238.362a.724.724,0,0,0,.18-.461c.038-.552-.837.249-2.888.5s-1.787-1.156-.688-1.2c1.288-.05,1.139-.8,1.139-.8-1.751-.6-4.352,1.3-4.352,1.3a1.607,1.607,0,0,0-.3,2.55c.7.95,2.951.35,4.45,0s3.2-1.3,3.052-1.8C-1068.157,238.143-1068.445,238.239-1068.656,238.362Z" transform="translate(1110.02 -187.957)" fill="#ff97a6"/>
          <path id="Trazado_22247" data-name="Trazado 22247" d="M-1063.834,239.244s-.024-2.6-.751-2.449-.036,2.3-.478,2.689-3.346-.266-3.3,1.005,3.738,1.4,4.294.955S-1063.834,239.244-1063.834,239.244Z" transform="translate(1120.772 -187.248)" fill="#ff97a6"/>
          <g id="Grupo_27746" data-name="Grupo 27746" transform="translate(20.059 14.322)">
            <g id="Grupo_27743" data-name="Grupo 27743">
              <g id="Grupo_27742" data-name="Grupo 27742">
                <path id="Trazado_22248" data-name="Trazado 22248" d="M-1081.794,222.422s-.206,3.411.182,3.726a1.677,1.677,0,0,0,2.286-.336c.593-.94-.549-3.7-.549-3.7Z" transform="translate(1081.849 -222.108)" fill="#ff97a6"/>
              </g>
            </g>
            <g id="Grupo_27745" data-name="Grupo 27745" transform="translate(0 0.729)">
              <g id="Grupo_27744" data-name="Grupo 27744">
                <path id="Trazado_22249" data-name="Trazado 22249" d="M-1081.837,224.468a4.048,4.048,0,0,0,2.653-.3,9.429,9.429,0,0,0-.425-1.758l-2.221.365C-1081.847,223.266-1081.859,223.9-1081.837,224.468Z" transform="translate(1081.849 -222.412)" fill="#c95d77"/>
              </g>
            </g>
          </g>
          <g id="Grupo_27747" data-name="Grupo 27747" transform="translate(18.976 4.831)">
            <path id="Trazado_22250" data-name="Trazado 22250" d="M-1075.769,219.619c-.984-1.768-4.827-1.6-5.532-1.219-.772.415-.883,1.466-.981,2.245s.129,4.189,2.586,4.865C-1075.066,226.784-1075.769,219.619-1075.769,219.619Z" transform="translate(1082.3 -218.151)" fill="#ff97a6"/>
          </g>
          <g id="Grupo_27749" data-name="Grupo 27749" transform="translate(16.953 0.247)">
            <g id="Grupo_27748" data-name="Grupo 27748">
              <path id="Trazado_22251" data-name="Trazado 22251" d="M-1069.437,217.662a1.712,1.712,0,0,0,.019-.319l0-.043h0c0-.038,0-.074,0-.115a.367.367,0,0,0-.062-.168.8.8,0,0,0-.093-.477.215.215,0,0,0-.053-.06c-.041-.237-.41-.254-.532-.034-1.382,2.5-4.822-.559-6.952-.17a2.823,2.823,0,0,0-1.761,1.046,3.22,3.22,0,0,0-3.459,1.307c-1.219,1.866-.885,5.472-.2,7.487a4.744,4.744,0,0,0,.129.542l.079.259a4.335,4.335,0,0,0,.072,2.593,4.659,4.659,0,0,0,2.819,2.706,5.889,5.889,0,0,0,3.922-.13,4.45,4.45,0,0,0,1.862-3.231c.014-.854-1.029-4-1.1-3.392a11.326,11.326,0,0,1-.571,1.555c-.12.17-.394.552-.408.566-1.494,1.593-3.334.2-4.033-.612l-.045-.058c-.185-.273-.372-.545-.561-.808a3.462,3.462,0,0,1-.643-2.14c.18-1.171.523-2.341,2.058-2.514a3.049,3.049,0,0,1,.389-.017c1.857.247,3.553,1.631,5.506,1.456.082-.007.161-.022.24-.034C-1070.464,222.575-1069.6,219.914-1069.437,217.662Z" transform="translate(1083.144 -216.241)" fill="#295a6e"/>
            </g>
          </g>
          <g id="Grupo_27751" data-name="Grupo 27751" transform="translate(16.748)">
            <g id="Grupo_27750" data-name="Grupo 27750">
              <path id="Trazado_22252" data-name="Trazado 22252" d="M-1070.037,216.589a1.893,1.893,0,0,1-.821.88,2.224,2.224,0,0,1-1.211.211,10.194,10.194,0,0,1-2.358-.581,6.986,6.986,0,0,0-2.248-.453,2.58,2.58,0,0,0-1.852.984.281.281,0,0,1-.283.108,3.145,3.145,0,0,0-2.533.5,3.77,3.77,0,0,0-1.279,2.325,10.931,10.931,0,0,0-.185,2.833,14.123,14.123,0,0,0,.446,2.843l0,0v0c.051.269.084.545.158.811a7.868,7.868,0,0,1-.257-.794l0,.007a11.552,11.552,0,0,1-.688-2.845,10.523,10.523,0,0,1,.036-2.958,6.121,6.121,0,0,1,.446-1.451,3.391,3.391,0,0,1,.979-1.221,3.592,3.592,0,0,1,2.991-.607l-.286.108a3.013,3.013,0,0,1,2.277-1.161,6.548,6.548,0,0,1,2.4.588,11.579,11.579,0,0,0,2.25.71,2.042,2.042,0,0,0,1.133-.089A1.961,1.961,0,0,0-1070.037,216.589Z" transform="translate(1083.229 -216.138)" fill="#427484"/>
            </g>
          </g>
        </g>
        <path id="Trazado_22253" data-name="Trazado 22253" d="M-1073.374,233.3s-1.2-13.247,1.8-14.526S-1073.374,233.3-1073.374,233.3Z" transform="translate(1113.431 -212.558)" fill="#ffcb48"/>
        <path id="Trazado_22254" data-name="Trazado 22254" d="M-1070.216,232.743s3.032-12.952,6.282-13.221S-1070.216,232.743-1070.216,232.743Z" transform="translate(1118.182 -211.408)" fill="#ffcb48"/>
        <path id="Trazado_22255" data-name="Trazado 22255" d="M-1069.083,232.565s9.174-9.629,12.112-8.214S-1069.083,232.565-1069.083,232.565Z" transform="translate(1119.767 -204.847)" fill="#ffcb48"/>
      </g>
      <g id="Grupo_27755" data-name="Grupo 27755" transform="translate(488.236 78.931)">
        <path id="Trazado_22256" data-name="Trazado 22256" d="M-935.607,203.129c.3-.134,1,.209,1.425.271,4.918.708,9.562-1.4,14.427-1.852,5.343-.5,10.733-.043,16.073.288,11.26.705,22.368,1.778,33.506,3.6,6.652,1.084,14.96,1.658,19.645-4.289,2.065-2.622,2.536-5.942,2.917-9.162.561-4.736.931-9.5,1.195-14.259a135.984,135.984,0,0,0,.357-14.559c-.146-2.754-.76-5.376-2.984-7.187-2.656-2.164-6.789-3.047-10.021-3.879a69.875,69.875,0,0,0-11.906-1.912,125.187,125.187,0,0,0-26.4,1.24c-4.64.626-9.433,1.135-14,2.171-2.979.676-5.354,1.91-6.715,4.771-1.291,2.716-1.264,5.921-1.257,8.855a62.826,62.826,0,0,1-1.005,13.057c-1.912,9.243-7.211,17.613-16.049,21.495C-937.324,202.179-936.525,203.532-935.607,203.129Z" transform="translate(936.811 -149.922)" fill="#ff5e4d"/>
        <g id="Grupo_27754" data-name="Grupo 27754" transform="translate(44.978 8.553)">
          <path id="Trazado_22257" data-name="Trazado 22257" d="M-900.974,155.274a235.446,235.446,0,0,0-14.753,33.772,1.164,1.164,0,0,1-1.54.712,1.162,1.162,0,0,1-.712-1.54,246.889,246.889,0,0,1,14.874-34.13,1.29,1.29,0,0,1,1.657-.473A1.218,1.218,0,0,1-900.974,155.274Zm-9.6,1.955a5.689,5.689,0,0,1,.3,4.088c-.89,1.72-2.607,2.49-4.918,1.543-1.6-.772-2.133-2.905-1.66-4.623a3.845,3.845,0,0,1,4.505-2.963,2.112,2.112,0,0,1,.828.593A4.183,4.183,0,0,1-910.575,157.229Zm-3.85,1.245a2.718,2.718,0,0,0-.117,1.658.771.771,0,0,0,.413.593c1.66.77,2.55-1.3,1.067-2.428-.117-.12-.238-.178-.295-.3C-913.478,157.822-914.07,157.762-914.425,158.475Zm9.658,23.642c.118.058.177.175.3.3,2.668,3.378.89,6.28-2.19,6.576-3.023.3-5.51-2.013-3.083-5.51.77-1.185.948-1.36,1.483-1.658a3.183,3.183,0,0,1,.948-.237c1.242-.178,1.48-.118,1.658-.058A5.663,5.663,0,0,1-904.767,182.116Zm-3.08,2.783c-.95,1.423-.415,1.838.948,1.718,1.125-.118,1.778-.65,1.125-1.9-.3-.653-1.3-.77-1.3-.77-.06,0-.12,0-.12.06Z" transform="translate(918.062 -153.487)" fill="#fff"/>
        </g>
      </g>
      <g id="Grupo_27758" data-name="Grupo 27758" transform="translate(159.846 131.006)">
        <g id="Grupo_27756" data-name="Grupo 27756">
          <path id="Trazado_22258" data-name="Trazado 22258" d="M-983.017,223.626c-8.864-3.891-14.178-12.285-16.094-21.555a63.2,63.2,0,0,1-1.01-13.093c.007-2.943.034-6.158-1.259-8.881-1.363-2.869-3.745-4.1-6.731-4.784-4.582-1.041-9.387-1.55-14.043-2.178a125.387,125.387,0,0,0-26.475-1.243,69.759,69.759,0,0,0-11.94,1.917c-3.241.835-7.384,1.72-10.049,3.889-2.231,1.816-2.848,4.448-2.991,7.209a136.045,136.045,0,0,0,.357,14.6c.264,4.774.636,9.553,1.2,14.3.384,3.229.854,6.556,2.927,9.188,4.7,5.964,13.029,5.388,19.7,4.3,11.169-1.821,22.308-2.9,33.6-3.6,5.355-.336,10.76-.787,16.116-.29,4.88.453,9.536,2.564,14.468,1.857a.61.61,0,0,0,.554-.712c.3.144.568.307.875.441C-982.892,225.389-982.091,224.034-983.017,223.626Z" transform="translate(1073.7 -171.629)" fill="#ffcb48"/>
        </g>
        <g id="Grupo_27757" data-name="Grupo 27757" transform="translate(17.266 12.501)">
          <path id="Trazado_22259" data-name="Trazado 22259" d="M-1058.1,197.937q0-1.7-.137-6.129a81.72,81.72,0,0,1,.41-13.892.9.9,0,0,1,1.043-.77.9.9,0,0,1,.772,1.044,77.127,77.127,0,0,0-.41,13.528c.091,2.862.137,4.949.137,6.22v3.586c-.046.818-.046,1.454-.091,1.953-.046.273-.091.453-.137.636a1.055,1.055,0,0,1-.636.864,1.065,1.065,0,0,1-1.044-.137c-.045-.046-.091-.137-.137-.182a.893.893,0,0,1-.18-.362c-.046-.137-.091-.319-.182-.545l-.544-1.636-1.135-3.632a76.688,76.688,0,0,1-2.089-7.626c-.362-1.588-.681-2.951-.952-4.04-.182-.772-.864-2.588-.864-2.588-.045,1.317-.091,2.315-.091,3q0,1.839-.135,5.856c-.137,2.725-.182,4.767-.182,6.084,0,1.363.091,3.224.317,5.585a.9.9,0,0,1-.77,1.044.9.9,0,0,1-1.046-.77,38.518,38.518,0,0,1-.317-5.448c0-2.089.046-4.4.182-6.947.089-2.5.135-4.313.135-5.4q0-1.022.137-3.133c.045-1.317.091-2.315.091-3v-2.178s-.046-.137-.091-.319a1.126,1.126,0,0,1,.5-1.271.926.926,0,0,1,.772-.046,1.281,1.281,0,0,1,.907,1.092.833.833,0,0,1,.048.362c0,.046.043.046.043.091a2.842,2.842,0,0,0,.182.59c.091.317.273.772.453,1.363a18.541,18.541,0,0,1,.636,2c.137.545,2.588,11.352,3.86,15.164l-.408-1.317a6.866,6.866,0,0,0,.953,2.044Z" transform="translate(1066.503 -176.419)" fill="#fff"/>
          <path id="Trazado_22260" data-name="Trazado 22260" d="M-1058.416,178.656c-.5,0-.772,0-.772.046a2.716,2.716,0,0,0-.182.816,31.085,31.085,0,0,0,.182,5.585c.091,1.135.137,1.862.137,2.09v1.543a.783.783,0,0,0,.864.955,9.415,9.415,0,0,0,1.178-.046.912.912,0,0,1,.955.861.914.914,0,0,1-.864.955,12.251,12.251,0,0,1-1.36.046.871.871,0,0,0-.955.907c-.136,4.177-.225,7.672-.045,10.169a7.606,7.606,0,0,0,.228,1.77c0,.046.046.137.046.182,0,.091.225.228.727.317a17.821,17.821,0,0,0,3.4-.089c.681-.046,1.18-.091,1.5-.091a.91.91,0,0,1,.909.907.912.912,0,0,1-.909.909c-.271,0-.724.046-1.36.091-.818.046-1.408.089-1.725.089a7.229,7.229,0,0,1-3.406-.408c-.59-.225-.816-.816-.953-1.5a10.113,10.113,0,0,1-.273-2.044c-.18-2.768-.091-6.719.046-9.716.046-1.5.091-2.723.137-3.769.046-1,.046-1.679.046-2.042q0-.274-.137-1.907a35.441,35.441,0,0,1-.182-5.947c.137-.955.319-1.862,1-2.269a1.753,1.753,0,0,1,.816-.228h2.953c2.178.091,3.358.137,3.541.091a.889.889,0,0,1,1,.816.867.867,0,0,1-.182.681,1.2,1.2,0,0,1-.636.319c-.225.046-1.5,0-3.766-.091h-1.953Z" transform="translate(1073.853 -176.84)" fill="#fff"/>
          <path id="Trazado_22261" data-name="Trazado 22261" d="M-1052.841,195.984c.091.864.182,1.636.273,2.272.362,2.269.772-.046.907-.864.818-4.177,1.317-6.811,1.545-7.9a8.672,8.672,0,0,0,.091-.907,2.737,2.737,0,0,1,.228-1.545,1.125,1.125,0,0,1,1.223-.681,1.015,1.015,0,0,1,.636.365,1.031,1.031,0,0,1,.274.545,4.791,4.791,0,0,1,.137.636c.045.317.225,1.089.271,1.451a46.656,46.656,0,0,0,2.269,8.581c1.137,2.86,1.046-.046,1.046-.046a60.7,60.7,0,0,1,2.087-19.657.958.958,0,0,1,1.137-.681.942.942,0,0,1,.59,1.135,60.014,60.014,0,0,0-2,19.115,34.858,34.858,0,0,1-.045,5.582c-.046.319-.091.59-.137.818a1.159,1.159,0,0,1-.772.907.952.952,0,0,1-.907-.18,2.306,2.306,0,0,1-.362-.5c-.182-.317-.593-1.18-.772-1.588a76.265,76.265,0,0,1-3-8.943c-.5-1.953-.636-2.224-1.046,0l-.681,3.814-.952,4.949c-.137.724-.271,1.269-.317,1.634l-.137.545-.091.182a.267.267,0,0,0-.046.18.94.94,0,0,1-1.317.319.77.77,0,0,1-.271-.273l-.091-.18-.091-.273a3.438,3.438,0,0,1-.182-.681c-.137-.59-.317-1.408-.545-2.452-.182-.952-.453-2.814-.77-5.494l-.772-6.811c-.319-2.951-.545-4.721-.59-5.311q-.068-.543-.274-1.77a14.538,14.538,0,0,1-.362-4.268.894.894,0,0,1,1-.861.875.875,0,0,1,.818.952,17.366,17.366,0,0,0,.362,3.814c.137.772.228,1.451.273,1.95.045.593.271,2.363.59,5.314Z" transform="translate(1080.218 -176.418)" fill="#fff"/>
        </g>
      </g>
      <g id="Grupo_27759" data-name="Grupo 27759" transform="translate(550.894 196.034)">
        <path id="Trazado_22262" data-name="Trazado 22262" d="M-898.144,209.325l-12.548,1.545,8.824,7.615-3.53,12.68,10.589-6.115,1.544-26.314Z" transform="translate(910.692 -198.736)" fill="#ffcb48"/>
        <path id="Trazado_22263" data-name="Trazado 22263" d="M-893.261,219.914l9.045-7.172-12.133-3.417-6.177-10.589-1.544,26.314,13.457,7.218Z" transform="translate(919.955 -198.736)" fill="#ff9a2e"/>
      </g>
      <g id="Grupo_27765" data-name="Grupo 27765" transform="translate(574.397 152.575)">
        <g id="Grupo_27760" data-name="Grupo 27760">
          <path id="Trazado_22264" data-name="Trazado 22264" d="M-900.216,210.449c-.1-7.156-.588-17.045-.679-24.222a187.832,187.832,0,0,0,52.858-5.606c.77,9.183,1.2,19.036,1.907,28.341C-864.489,211.444-881.468,213.227-900.216,210.449Z" transform="translate(900.895 -180.62)" fill="#3b2b5b"/>
        </g>
        <g id="Grupo_27761" data-name="Grupo 27761" transform="translate(1.881 2.706)">
          <path id="Trazado_22265" data-name="Trazado 22265" d="M-852.573,206.021a3.789,3.789,0,0,1,3.265-3.512c-.662-5.786-.168-12.321-.856-18.054a4.058,4.058,0,0,1-.453.072,3.091,3.091,0,0,1-3.438-2.778,186.267,186.267,0,0,1-42.658,4.3,2.244,2.244,0,0,1,0,.523c-.168,1.427-1.629,2.413-3.4,2.317.278,4.584.173,11.817.439,16.4.153.019.309.043.468.077,1.785.379,3.174,1.643,3.322,2.989,15.133,1.727,28.433-.18,43.32-1.883A3.469,3.469,0,0,1-852.573,206.021Z" transform="translate(900.111 -181.748)" fill="#c8bbff"/>
        </g>
        <g id="Grupo_27762" data-name="Grupo 27762" transform="translate(17.3 6.737)">
          <path id="Trazado_22266" data-name="Trazado 22266" d="M-881.15,203.291c-6.386.036-11.9-4.462-12.484-9.6s4.136-9.514,10.33-10.188c6.165-.655,11.635,3.143,12.448,8.91S-874.73,203.264-881.15,203.291Z" transform="translate(893.684 -183.428)" fill="#3b2b5b"/>
        </g>
        <g id="Grupo_27764" data-name="Grupo 27764" transform="translate(25.092 8.528)">
          <g id="Grupo_27763" data-name="Grupo 27763">
            <path id="Trazado_22267" data-name="Trazado 22267" d="M-882.439,192.526a4.183,4.183,0,0,1,.11,3.143,3.8,3.8,0,0,1-2.13,2.147c0,.473,0,.943,0,1.415a.1.1,0,0,1-.1.106c-.276.019-.53.038-.784.055a.192.192,0,0,1-.194-.178c0-.355,0-.708,0-1.063a5.212,5.212,0,0,1-.559.079l-.122.012-.168.01c0,.362.007.724.01,1.089a.171.171,0,0,1-.027.094.152.152,0,0,1-.041.038.154.154,0,0,1-.051.017c-.276.022-.528.041-.782.058a.2.2,0,0,1-.175-.173c0-.391-.01-.78-.017-1.171a3.151,3.151,0,0,1-1.586-.71,4.253,4.253,0,0,1-1.36-3.116c-.01-.1.192-.2.261-.209.427-.029.854-.06,1.281-.091a2.743,2.743,0,0,0,1.36,2.31q-.057-1.994-.161-3.989l-.214-.041a2.935,2.935,0,0,1-2.056-1.195,3.941,3.941,0,0,1-.278-3.191,3.4,3.4,0,0,1,2.078-2.118c-.041-.427-.082-.854-.123-1.279a.132.132,0,0,1,.135-.158l.823-.074a.218.218,0,0,1,.207.168q.047.525.094,1.051c.091-.012.185-.024.276-.031.117-.012.237-.019.353-.022.1,0,.187,0,.281,0-.031-.384-.062-.765-.1-1.149,0-.077.067-.1.122-.108l.823-.077a.223.223,0,0,1,.228.173c.038.446.072.89.105,1.336A3.362,3.362,0,0,1-882.506,189c0,.07-.108.144-.2.18a.174.174,0,0,1-.074.034c-.437.034-.873.07-1.31.106a2.573,2.573,0,0,0-.693-1.55q.1,1.659.173,3.32l.091.017A2.845,2.845,0,0,1-882.439,192.526Zm-3.124,4.076q-.029-1.918-.1-3.836c-.168-.029-.326-.055-.475-.084l-.41-.074q.09,2.022.132,4.049c.154,0,.322,0,.494-.012.12-.01.24-.024.362-.043m-.187-5.719c-.062-1.243-.139-2.48-.228-3.721a3.182,3.182,0,0,0-.844-.038l-.062.007q.137,1.8.24,3.6c.3.053.595.1.895.151m-2.042-.4q-.094-1.472-.214-2.941a1.771,1.771,0,0,0-.691,2.065,1.334,1.334,0,0,0,.9.876m3.948,4.951a2.111,2.111,0,0,0-.213-1.96,1.607,1.607,0,0,0-.482-.377q.047,1.555.067,3.107a1.644,1.644,0,0,0,.628-.77" transform="translate(890.435 -184.175)" fill="#c8bbff"/>
          </g>
        </g>
      </g>
    </g>
  </g>
</svg>
