<svg id="_Layer_" data-name="&lt;Layer&gt;" xmlns="http://www.w3.org/2000/svg" viewBox="0 0 1757.14 1515.27"><defs><style>.cls-1{fill:#36a6cf;}.cls-2{fill:#a8e0ff;}.cls-3{fill:#dcf8ff;}.cls-4{fill:#ffedc5;}.cls-5{fill:#ffb0c5;}.cls-6{fill:#aee8ff;}.cls-7{fill:#e54a6e;}.cls-8{fill:#ffd65a;}.cls-9{fill:#d8815a;}.cls-10{fill:#e28b5a;}.cls-11{fill:#ff9e73;}.cls-12{fill:#4a344c;}.cls-13{fill:#c6395f;}.cls-14{fill:#7c3114;}</style></defs><ellipse class="cls-1" cx="318.21" cy="1489.29" rx="191.57" ry="25.98"/><path class="cls-1" d="M60.54,874.08c-7.5-11.37-4.76-27.75,6.76-41.3l50.46-59.15a376.77,376.77,0,0,1-27.62-145L21.91,592C6.19,583.53-2.26,569.29.52,556l8.73-41.7c2.78-13.39,16.3-23,34.07-24.4l76.55-6.12a377.51,377.51,0,0,1,83.63-123.2l-22-73.05c-5.2-17.12-1.16-33.15,10.21-40.65l35.63-23.28c11.44-7.43,27.82-4.69,41.37,6.82l57.88,49.33a376.42,376.42,0,0,1,147.25-28.18l35.66-66.54c8.47-15.72,22.7-24.16,36-21.38l41.7,8.73c13.32,2.71,23,16.3,24.4,34.07l6,75a377.6,377.6,0,0,1,124.26,84.86l72.08-21.65c17.13-5.2,33.16-1.16,40.65,10.21l23.29,35.63c7.42,11.45,4.68,27.83-6.83,41.38l-48.93,57.43a377.12,377.12,0,0,1,27.63,147.56l66.69,35.79c15.72,8.47,24.16,22.7,21.38,36l-8.73,41.7c-2.7,13.32-16.29,23-34.07,24.4l-76,6.08a377.71,377.71,0,0,1-84.31,122.74l22.09,73.55c5.2,17.12,1.16,33.15-10.29,40.58L710.91,1041c-11.37,7.5-27.75,4.76-41.3-6.76l-58.7-50.06a378.05,378.05,0,0,1-145.38,27.15l-36.7,68.31c-8.47,15.71-22.7,24.16-35.95,21.38l-41.7-8.73c-13.4-2.77-23-16.3-24.41-34.07l-6.25-77.6a375.37,375.37,0,0,1-121.59-83L124.41,920c-17.13,5.2-33.16,1.16-40.59-10.29Zm563.3-343.32c-55.68-85-169.56-108.85-254.62-53.25S260.38,647.07,316,732.14C371.56,817,485.53,841,570.6,785.38,655.49,729.79,679.44,615.82,623.84,530.76Z"/><path class="cls-1" d="M682.1,1319.48c-2.89-7.22.52-16.07,8.51-22.32l35-27.3a215,215,0,0,1,1.18-84.25l-34-28.31c-7.82-6.54-10.91-15.47-7.83-22.56l9.66-22.32c3.09-7.17,11.75-11,21.85-9.74L760,1108a215.33,215.33,0,0,1,60.9-59.3L817,1005.36c-1-10.17,3.15-18.67,10.37-21.56l22.6-8.94c7.25-2.84,16.09.57,22.35,8.57L899,1017.65a214.75,214.75,0,0,1,85.58,1.13l27.57-33.12c6.54-7.82,15.46-10.91,22.56-7.84l22.32,9.66c7.13,3,11,11.76,9.73,21.86l-5.23,42.62a215.58,215.58,0,0,1,59.77,61.7l42.79-3.84c10.17-.94,18.67,3.16,21.56,10.37l8.93,22.6c2.84,7.25-.57,16.1-8.56,22.36l-34,26.5a215.25,215.25,0,0,1-1.47,85.69l33.19,27.66c7.82,6.54,10.91,15.47,7.84,22.56l-9.67,22.32c-3,7.14-11.75,11-21.85,9.74l-43.18-5.31a215.83,215.83,0,0,1-61.22,59l3.92,43.66c.94,10.17-3.16,18.67-10.41,21.52l-22.6,8.93c-7.21,2.89-16.06-.52-22.32-8.52l-27.08-34.72a216,216,0,0,1-84.42-1.49l-28.35,34c-6.54,7.82-15.47,10.91-22.56,7.83l-22.32-9.66c-7.17-3.09-11-11.75-9.74-21.85l5.4-44.12a214.17,214.17,0,0,1-58.48-60.37l-44.24,4c-10.18.94-18.68-3.15-21.52-10.41Zm341-122.12A90.67,90.67,0,1,0,972.23,1315,90.7,90.7,0,0,0,1023.15,1197.36Z"/><path class="cls-2" d="M1322.58,1319.23l2.8-6.81a38.66,38.66,0,0,1-10.43-8.08,22.2,22.2,0,0,1-4.72-10.76,25.91,25.91,0,0,1,0-8.74,5.5,5.5,0,0,1,6.54-4.47h0a5.45,5.45,0,0,1,4.31,6.05,20.47,20.47,0,0,0,.24,8.1q2,6.82,7.4,9.76l12.65-30.71a43.69,43.69,0,0,1-10.27-9.62,19.29,19.29,0,0,1-4.16-10.06,22.81,22.81,0,0,1,1.76-11.37q4.24-10.29,14.16-13.67,6.64-2.26,16.63.71l2.62-6.34a3.06,3.06,0,0,1,4-1.67h0a3.08,3.08,0,0,1,1.67,4l-2.61,6.34q8.07,4.27,11.31,10.43a22.22,22.22,0,0,1,2.6,10.81,5.45,5.45,0,0,1-6.72,5.32h0a5.37,5.37,0,0,1-4.09-5.53,14.64,14.64,0,0,0-.68-5.83,14.22,14.22,0,0,0-5.78-7l-11.46,27.82a82.63,82.63,0,0,1,8.48,6.81,25.7,25.7,0,0,1,5.35,7.85,20.82,20.82,0,0,1,1.59,8.55,26.86,26.86,0,0,1-15.23,23.2q-9.13,4.07-19.46.38l-2.85,6.91a3.07,3.07,0,0,1-4,1.67h0A3.06,3.06,0,0,1,1322.58,1319.23Zm33.62-81.63a15.47,15.47,0,0,0-10.72.85,14.48,14.48,0,0,0-7.44,16.69q1.39,4.45,7.17,9.15Zm-21.78,69a15.48,15.48,0,0,0,11.31-1,16.35,16.35,0,0,0,7.93-8.83,14.06,14.06,0,0,0,.88-9.51q-1.29-4.26-8-10Z"/><path class="cls-2" d="M1414,1359l-179.12-73.78q1.36,3.27,2.72,6.54,22.9-55.59,45.8-111.18l-6.54,2.73L1456,1257.08l-2.73-6.54-45.79,111.18c-2.46,6,6.8,9.78,9.26,3.81l45.8-111.17a5.08,5.08,0,0,0-2.73-6.54L1280.71,1174a5.08,5.08,0,0,0-6.54,2.73q-22.9,55.58-45.8,111.17a5.08,5.08,0,0,0,2.72,6.54l179.12,73.79C1416.17,1370.71,1420,1361.45,1414,1359Z"/><path class="cls-3" d="M1613.8,308.86a515.51,515.51,0,0,1,77.48,272.57c0,279.61-221.57,507.44-498.7,517.57L1190,581.43Z"/><path class="cls-4" d="M1142.82,559.25l-446,289.86a515.53,515.53,0,0,1-88.64-289.86c0-286.06,231.9-518,518-518,186,0,349.14,98.11,440.48,245.39Z"/><path class="cls-5" d="M1145.43,1076.81c-6.39.24-12.8.4-19.25.4-178.67,0-336.21-90.47-429.32-228.1l446-289.86Z"/><path class="cls-6" d="M1379,687.76h0a54.83,54.83,0,0,1,54.83,54.83v53.28a0,0,0,0,1,0,0H1324.21a0,0,0,0,1,0,0V742.59A54.83,54.83,0,0,1,1379,687.76Z"/><circle class="cls-6" cx="1380.3" cy="658.12" r="34.84" transform="translate(509.57 1915.18) rotate(-80.78)"/><rect class="cls-6" x="1342.89" y="751.87" width="72.26" height="116.13"/><path class="cls-6" d="M1540.67,687.76h0a54.83,54.83,0,0,1,54.83,54.83v53.28a0,0,0,0,1,0,0H1485.84a0,0,0,0,1,0,0V742.59a54.83,54.83,0,0,1,54.83-54.83Z"/><circle class="cls-6" cx="1541.93" cy="658.12" r="34.84" transform="translate(547.15 2007.6) rotate(-76.72)"/><rect class="cls-6" x="1504.52" y="751.87" width="72.26" height="116.13"/><path class="cls-6" d="M1702.31,687.76h0a54.83,54.83,0,0,1,54.83,54.83v53.28a0,0,0,0,1,0,0H1647.47a0,0,0,0,1,0,0V742.59A54.83,54.83,0,0,1,1702.31,687.76Z"/><circle class="cls-6" cx="1703.56" cy="658.12" r="34.84" transform="translate(781.06 2234.27) rotate(-80.78)"/><rect class="cls-6" x="1666.15" y="751.87" width="72.26" height="116.13"/><path class="cls-6" d="M1459.86,941.72h0a54.83,54.83,0,0,1,54.83,54.83v53.28a0,0,0,0,1,0,0H1405a0,0,0,0,1,0,0V996.55a54.83,54.83,0,0,1,54.83-54.83Z"/><circle class="cls-6" cx="1461.12" cy="912.08" r="34.84"/><rect class="cls-6" x="1423.7" y="1005.83" width="72.26" height="116.13"/><path class="cls-6" d="M1621.49,941.72h0a54.83,54.83,0,0,1,54.83,54.83v53.28a0,0,0,0,1,0,0H1566.66a0,0,0,0,1,0,0V996.55A54.83,54.83,0,0,1,1621.49,941.72Z"/><circle class="cls-6" cx="1622.75" cy="912.08" r="34.84"/><rect class="cls-6" x="1585.33" y="1005.83" width="72.26" height="116.13"/><path class="cls-7" d="M844.12,937.1h0A54.83,54.83,0,0,1,899,991.93v53.28a0,0,0,0,1,0,0H789.29a0,0,0,0,1,0,0V991.93A54.83,54.83,0,0,1,844.12,937.1Z"/><circle class="cls-7" cx="845.38" cy="907.46" r="34.84"/><rect class="cls-7" x="807.96" y="1001.21" width="72.26" height="116.13"/><path class="cls-7" d="M1005.75,937.1h0a54.83,54.83,0,0,1,54.83,54.83v53.28a0,0,0,0,1,0,0H950.92a0,0,0,0,1,0,0V991.93A54.83,54.83,0,0,1,1005.75,937.1Z"/><circle class="cls-7" cx="1007.01" cy="907.46" r="34.84"/><rect class="cls-7" x="969.59" y="1001.21" width="72.26" height="116.13"/><path class="cls-8" d="M591.58,64.47h0a54.83,54.83,0,0,1,54.83,54.83v53.28a0,0,0,0,1,0,0H536.75a0,0,0,0,1,0,0V119.31A54.83,54.83,0,0,1,591.58,64.47Z"/><circle class="cls-8" cx="592.84" cy="34.84" r="34.84"/><rect class="cls-8" x="555.43" y="128.59" width="72.26" height="116.13"/><path class="cls-8" d="M753.21,64.47h0A54.83,54.83,0,0,1,808,119.31v53.28a0,0,0,0,1,0,0H698.38a0,0,0,0,1,0,0V119.31A54.83,54.83,0,0,1,753.21,64.47Z"/><circle class="cls-8" cx="754.47" cy="34.84" r="34.84"/><rect class="cls-8" x="717.06" y="128.59" width="72.26" height="116.13"/><path class="cls-8" d="M914.85,64.47h0a54.83,54.83,0,0,1,54.83,54.83v53.28a0,0,0,0,1,0,0H860a0,0,0,0,1,0,0V119.31A54.83,54.83,0,0,1,914.85,64.47Z"/><circle class="cls-8" cx="916.1" cy="34.84" r="34.84"/><rect class="cls-8" x="878.69" y="128.59" width="72.26" height="116.13"/><path class="cls-8" d="M1076.48,64.47h0a54.83,54.83,0,0,1,54.83,54.83v53.28a0,0,0,0,1,0,0H1021.64a0,0,0,0,1,0,0V119.31A54.83,54.83,0,0,1,1076.48,64.47Z"/><circle class="cls-8" cx="1077.73" cy="34.84" r="34.84"/><rect class="cls-8" x="1040.32" y="128.59" width="72.26" height="116.13"/><path class="cls-8" d="M591.58,322.39h0a54.83,54.83,0,0,1,54.83,54.83V430.5a0,0,0,0,1,0,0H536.75a0,0,0,0,1,0,0V377.22A54.83,54.83,0,0,1,591.58,322.39Z"/><circle class="cls-8" cx="592.84" cy="292.75" r="34.84"/><rect class="cls-8" x="555.43" y="386.5" width="72.26" height="116.13"/><path class="cls-8" d="M753.21,322.39h0A54.83,54.83,0,0,1,808,377.22V430.5a0,0,0,0,1,0,0H698.38a0,0,0,0,1,0,0V377.22a54.83,54.83,0,0,1,54.83-54.83Z"/><circle class="cls-8" cx="754.47" cy="292.75" r="34.84"/><rect class="cls-8" x="717.06" y="386.5" width="72.26" height="116.13"/><path class="cls-8" d="M914.85,322.39h0a54.83,54.83,0,0,1,54.83,54.83V430.5a0,0,0,0,1,0,0H860a0,0,0,0,1,0,0V377.22A54.83,54.83,0,0,1,914.85,322.39Z"/><circle class="cls-8" cx="916.1" cy="292.75" r="34.84"/><rect class="cls-8" x="878.69" y="386.5" width="72.26" height="116.13"/><path class="cls-8" d="M1076.48,322.39h0a54.83,54.83,0,0,1,54.83,54.83V430.5a0,0,0,0,1,0,0H1021.64a0,0,0,0,1,0,0V377.22A54.83,54.83,0,0,1,1076.48,322.39Z"/><circle class="cls-8" cx="1077.73" cy="292.75" r="34.84"/><rect class="cls-8" x="1040.32" y="386.5" width="72.26" height="116.13"/><path class="cls-9" d="M352,867.2c4.82.16,58.54-7.61,63.33-8.4,7.54-1.25,3.75-4.89,11.37-3.9,41.5,5.36,9.69-12.13,14.66-20,1.23-1.95,3.24-4.21,1.76-5.85a4,4,0,0,0-2.28-1c-8.1-1.55-15.87,4.06-23.78,6.91a54.85,54.85,0,0,1-7.54,2c-23.5,4.79-48.51.07-67.76-12.77-3.34-2.23-29-19.33-31.6-16.12-1.14,1.41,4.55,18.31,4.59,20.07.24,10.3,9.59,29.4,20.88,34.07S339.8,866.36,352,867.2Z"/><path class="cls-10" d="M288.06,1213c-3.17,10.35-11.37,18.19-14,26.82-3.21,10.54-19.71,17.28-40.26,36.41C206.56,1301.55,161,1389,161,1389l14.61,13.22L306,1285.6c9.93-7.62,23.63-21.13,29.93-33.84.59-1.2,1.92-5.62,2.48-6.79C322.14,1232.48,304.88,1223.81,288.06,1213Z"/><path class="cls-10" d="M341.42,1206.49c1.24-38.69,2.88-115.52,2.31-158.73-9.77-3.72-7.14-.74-28.39.81-5.76.42-18.08-14.84-29.43-15.48,0,0,.08-8.53.34-14.25-12.28-4.1-37.42,10.47-51.49,33.77-7.31,12.11-2.51,45.26,4,67.83,4.53,15.68,16.45,44.61,24.84,68.19,4.89,13.77,13,42.3,9.94,52.58,21.62,7.36,42.29,3.29,65.22,3.83C340.13,1233.26,341,1220.31,341.42,1206.49Z"/><path class="cls-11" d="M342.26,1078.54c-.35-6.38-5.74-38.73-7.93-47.18-13.51-.78-71.81-14.24-77-5.71-4.82,7.86-19.86,29.9-12.83,68.79a45.83,45.83,0,0,0,2.3,8.89c3.66,12.7,10.4,24.54,12.62,28.43,2,3.5,13.46,19.88,15.26,23.59a49.45,49.45,0,0,1,3.2,8.88c1.56,13.59,16.42,86.72,15.8,95.26-1.06,7.27-20.74,42.15-14.49,107.77,3.64,38.21,14.14,60.5,20.26,82,1.22,4.28-4.86-.48-1.47-.49l7.54-.1c5.13,0,11.71,1.92,11.4-5.12-.83-18.29.57-39.16,2.14-64.63,4-65.53,24.89-100,29.25-129.45C353.48,1214.33,349.8,1159.85,342.26,1078.54Z"/><polygon class="cls-9" points="314.21 800.31 303.57 789.49 292.24 787.63 293.04 809.79 318.21 819.48 314.21 800.31"/><polygon class="cls-9" points="279.58 813.08 313.75 803.08 317.56 762.14 284.16 721.37 279.58 813.08"/><path class="cls-12" d="M325.19,897.56c-.06-.15,0-.38-.11-.53C325.25,897.47,325.26,897.6,325.19,897.56Z"/><path class="cls-7" d="M276.58,785.45c1.36-2.82,2.7-5.41,4-7.74,9.05,21.13,34.91,37.63,33.53,22.25,1.88,3.6,40.2,80.66,40.74,80.91,4.07,11.43-14.48,63.57-14.78,75.4-1.29,50.93,5,62.65,3.79,79.33-13.62,17.55-53.16,21.47-85.5,13.69,10.65-56.8-.54-98.43-3.23-150.8C253.1,859.33,259.47,820.73,276.58,785.45Z"/><polygon class="cls-7" points="697.76 541.36 663.25 902.15 576.87 785.01 458.47 921.74 406.35 876.59 534.92 728.12 557.34 702.23 696.35 541.71 697.76 541.36"/><polygon class="cls-7" points="345.61 627.08 696.35 541.71 534.92 728.12 534.83 728.07 406.27 876.53 354.14 831.38 472.45 694.77 345.61 627.08"/><path class="cls-11" d="M465.13,804.86a15.88,15.88,0,0,0,4-11.33,5,5,0,0,0-1.54-3.88c-1.47-1.12-4-.89-6.31.05a31.44,31.44,0,0,0-6.42,4c-4.53,3.36-7.37,8-11.9,11.41a5.68,5.68,0,0,0-1.76,1.76,3.13,3.13,0,0,0-.28,1.38C440.51,820.84,457.21,813.77,465.13,804.86Z"/><path class="cls-11" d="M318.18,841.93c24,13,57.13,27.79,77.95,40.54,8.09-26.16,44.42-74.39,45.56-75.75,2.72-3.23,10.08,2.66,14.21,1.77-3,6.8-36.26,84.3-44.58,99.77a8.33,8.33,0,0,1-7.6,4.38A136.37,136.37,0,0,1,370,907.47c-25.53-7.74-52.38-16.22-70.68-26.37C302.58,866.54,308.76,852.51,318.18,841.93Z"/><path class="cls-13" d="M188.6,1429.26a4.16,4.16,0,0,0-1.15-2.82c-3-3.76-7.91-6-9.62-10.62a18.58,18.58,0,0,1-.61-7.55c.13-.23.25-.38.39-.63,2.32-4.1,5.74-10.73,8.2-14.52-3.55-3-8.8-6.73-11.18-13.7-1.39-4.07-2.44-8.53-2.24-11.48-12.49-.19-23,1.21-24.94,4.14-.63,1,4.93,24.92,7.61,46.77a38.41,38.41,0,0,0,5.5,7.08l0,0c.15.15.27.32.42.47h0c4.7,5,10.87,8.93,15.16,11.71a4.66,4.66,0,0,0,3.5,1,6.26,6.26,0,0,0,2.94-2.15l3.88-4.21C187.49,1431.79,188.51,1430.6,188.6,1429.26Z"/><path class="cls-7" d="M345.66,1467.9a4.18,4.18,0,0,0-2.76-1.3c-4.76-.73-9.88.92-14.26-1.32a18.73,18.73,0,0,1-5.57-5.15c-.05-.26-5.44-11.25-6.19-15.71-4.64.19-8.75-.26-15.22-3.79a18.91,18.91,0,0,1-6.89-5.81c-9.33,8.31-17.27,16.47-16.7,19.93.19,1.14,19.09,13.88,35.84,28.16a38.21,38.21,0,0,0,8.84,1.49h.06c.21,0,.41,0,.62.06l0,0c6.81.47,14.05-.77,19.09-1.62a4.65,4.65,0,0,0,3.28-1.59,6.39,6.39,0,0,0,.72-3.58v-5.72C346.55,1470.51,346.5,1469,345.66,1467.9Z"/><path class="cls-7" d="M346,1179.81c3.84-.73,8-1.68,10.53-4.63,2.41-2.77,2.88-6.68,3.15-10.34,4-55.35-14.3-115.36-19.6-172.95-29.83,1.23-36.31,7.64-64.13-3.2-2.81-1.09-13.5-4.69-13.5-4.69a18.77,18.77,0,0,1-2.29,5c-18.95,24.67-33.33,60.54-30.7,91.55,2.83,33.28,15.06,60.1,23.1,92.41,3.13,12.54-2.23,10.8,8.65,15.81,6.77,3.11,22.93-.39,30.4-.83C312.42,1186.71,325.49,1183.73,346,1179.81Z"/><path class="cls-11" d="M279.87,725.24c3.53,31.1,21.37,54.8,40.7,52.85s32.45-28.8,29.3-60-3-39.89-23.67-41.49C299.22,674.56,274.62,679,279.87,725.24Z"/><path class="cls-14" d="M352.68,728.4c-6.82,5.68-16.84,4.38-25.45,6.54-11.7,2.94-20.63,12.41-27.38,22.41-2.79,4.14-6.91,9.08-11.66,7.53s-5.15-7.71-5.5-12.58a52,52,0,0,0-4-16.55c-2.63-6.21-6.47-11.91-8.45-18.35a34.9,34.9,0,0,1,11.28-36.61c10.5-8.38,25.06-9.84,38.35-7.95,9.83,1.4,19.66,4.56,27.37,10.83C358.75,693,366.26,717.06,352.68,728.4Z"/><path class="cls-14" d="M291.27,781.56c.45,10.64,6.38,20.66,5.82,31.29-1,18.42-19.92,30-29.08,46a47.06,47.06,0,0,0-3.33,38.86c3.78,10.39,11.22,19.33,13.77,30.09.83,3.55.86,7.88-2,10.17s-6.85,1.41-10.23.3c-16.13-5.33-31.13-15.08-40.78-29s-13.42-32.38-8-48.48c2.76-8.22,7.73-15.56,10.53-23.77,8.36-24.47-3.65-50.86-4.4-76.71-1.05-36.19,22.71-71.79,56.53-84.7,21.51-8.21,72.32-1.35,57.16,33.6-4.57,10.53-17.76,19.15-24.75,28.26C302.9,750,290.56,764.76,291.27,781.56Z"/><polygon class="cls-2" points="244.44 426.18 242.89 422.53 299.02 398.74 299.02 413.03 364 384.45 365.59 388.07 295.06 419.1 295.06 404.72 244.44 426.18"/><rect class="cls-2" x="244.94" y="483.14" width="22.02" height="69.42"/><rect class="cls-2" x="276.94" y="471.84" width="22.02" height="80.71"/><rect class="cls-2" x="310.05" y="437.57" width="22.02" height="114.99"/><rect class="cls-2" x="343.13" y="424.36" width="22.02" height="128.2"/><polygon class="cls-2" points="363.46 393.35 359.29 381.51 367.29 385.35 363.46 393.35"/></svg>