<svg xmlns="http://www.w3.org/2000/svg" width="241" height="220.105" viewBox="0 0 241 220.105">
  <g id="Grupo_18186" data-name="Grupo 18186" transform="translate(-733.203 -308.586)">
    <g id="Grupo_12686" data-name="Grupo 12686" transform="translate(807.955 308.586)">
      <path id="Trazado_12097" data-name="Trazado 12097" d="M884.2,479.234c0,4.476-8.155,8.1-18.215,8.1s-18.214-3.629-18.214-8.1,8.155-8.1,18.214-8.1S884.2,474.758,884.2,479.234Z" transform="translate(-847.775 -365.078)" fill="#9daad3"/>
      <g id="Grupo_12685" data-name="Grupo 12685" transform="translate(1.075)">
        <g id="Grupo_12667" data-name="Grupo 12667" transform="translate(20.979 109.081)">
          <g id="Grupo_12666" data-name="Grupo 12666">
            <path id="Trazado_12098" data-name="Trazado 12098" d="M883.873,479.031a9.925,9.925,0,0,0,3.408,1.987,2.909,2.909,0,0,0,2.84-.735.543.543,0,0,0-.083-.832c-3.771-2.866-4.9-3.679-4.9-3.679h-3.461a7.9,7.9,0,0,0-.075,1.953,3,3,0,0,0,1.9,1.15c.071.012.2-.092.271-.065Z" transform="translate(-881.577 -475.772)" fill="#17181c"/>
          </g>
          <path id="Trazado_12099" data-name="Trazado 12099" d="M890.055,480.139a.978.978,0,0,1-.072.237,1.894,1.894,0,0,1-1.752.876,5.069,5.069,0,0,1-2.155-.731,9.585,9.585,0,0,1-1.785-1.211,5.37,5.37,0,0,0-1.35-.675,6.878,6.878,0,0,1-1.361-.917c0,.373.024.683.024.683a2.994,2.994,0,0,0,1.9,1.15c.071.012.2-.092.271-.065l.1.221a9.924,9.924,0,0,0,3.408,1.987,2.909,2.909,0,0,0,2.84-.735A.542.542,0,0,0,890.055,480.139Z" transform="translate(-881.578 -476.448)"/>
        </g>
        <g id="Grupo_12668" data-name="Grupo 12668" transform="translate(15.797 52.572)">
          <path id="Trazado_12100" data-name="Trazado 12100" d="M878.536,417.6c3.849,4.25,5.374-.246,5.374-.246l.478-26.12c.05.388.177-2.635-4.681-1.98s-6.072,2.541-6.072,2.541,2.665,18.042,4.9,25.8" transform="translate(-873.634 -389.162)" fill="#e69376"/>
          <path id="Trazado_12101" data-name="Trazado 12101" d="M885.547,430.737s-1.953,27.509-2.113,28.474c0,0-2.374.525-2.385-.022-.026-1.318-2.738-17.415-2.772-19.485-.088-5.242,1.263-6.233,2.611-9.764C880.889,429.94,885.557,426.488,885.547,430.737Z" transform="translate(-875.246 -402.875)" fill="#e69376"/>
        </g>
        <g id="Grupo_12670" data-name="Grupo 12670" transform="translate(15.797 52.572)">
          <g id="Grupo_12669" data-name="Grupo 12669">
            <path id="Trazado_12102" data-name="Trazado 12102" d="M877.647,417.775c-2.236-7.762-4.013-25.978-4.013-25.978s1.227-1.889,6.072-2.541,4.731,2.368,4.681,1.98a170.177,170.177,0,0,1-.453,25.789S880.631,419.661,877.647,417.775Z" transform="translate(-873.634 -389.162)" fill="#0b152a"/>
            <path id="Trazado_12103" data-name="Trazado 12103" d="M881.147,432.619c3.849,4.25,5.374-.246,5.374-.246" transform="translate(-876.245 -404.18)" fill="#0b152a"/>
            <path id="Trazado_12104" data-name="Trazado 12104" d="M884.776,458.815c.567-.8.771-28.409.771-28.409.01-4.249-5.222-2.29-5.222-2.29a25.491,25.491,0,0,0-2.047,11.257c.035,2.07,1.418,18.5,1.445,19.821C879.722,459.193,883.15,461.1,884.776,458.815Z" transform="translate(-875.245 -402.544)" fill="#0b152a"/>
          </g>
        </g>
        <path id="Trazado_12105" data-name="Trazado 12105" d="M873.316,383.44a9.224,9.224,0,0,0,0,8.907c2.6,4.709,10.548,2.992,10.572-3.106C883.911,383.218,878.428,380.915,873.316,383.44Z" transform="translate(-857.324 -334.25)" fill="#0b152a"/>
        <path id="Trazado_12106" data-name="Trazado 12106" d="M866.24,369.983c-.688,2.444-3.521,11.771-3.521,11.771,10.144,12.137,17.786,1.517,17.888.41.121-1.324-1.358-6.384-1.627-11.841C878.98,370.322,876.214,366.064,866.24,369.983Z" transform="translate(-854.044 -329.348)" fill="#f6a382"/>
        <path id="Trazado_12107" data-name="Trazado 12107" d="M880.538,388.934c.481-3.269-.516-6.566-1.03-9.869h-14.86c-.951,3.168-1.939,6.421-1.939,6.421s-.636,7.493,5.728,8.391C868.438,393.878,879.528,395.8,880.538,388.934Z" transform="translate(-854.034 -333.081)" fill="#0b152a"/>
        <g id="Grupo_12671" data-name="Grupo 12671" transform="translate(7.177 53.301)">
          <path id="Trazado_12108" data-name="Trazado 12108" d="M863.636,418.56c3.177,4.774,5.351.555,5.351.555l5.153-25.446c-.008.391-.154-3.315-5.057-3.388S862.7,391.9,862.7,391.9s-.128,18.657.934,26.664" transform="translate(-861.213 -390.28)" fill="#f6a382"/>
          <path id="Trazado_12109" data-name="Trazado 12109" d="M868.27,432.729s-5.1,28.986-5.4,29.917c0,0-2.426.168-2.355-.375.169-1.307-.269-19.586,0-21.638.689-5.2,1.41-6.091,3.266-9.384C863.781,431.25,868.909,428.527,868.27,432.729Z" transform="translate(-860.423 -404.217)" fill="#f6a382"/>
        </g>
        <g id="Grupo_12672" data-name="Grupo 12672" transform="translate(6.556 110.576)">
          <path id="Trazado_12110" data-name="Trazado 12110" d="M862.767,478.659l1.435,4.378s-.3,3.919-3.439,1.49l-.936-.908a1,1,0,0,1-.339-.962l.28-1.677.333-2.321S862.071,477.322,862.767,478.659Z" transform="translate(-859.47 -478.065)" fill="#17181c"/>
          <path id="Trazado_12111" data-name="Trazado 12111" d="M860.763,486.362l-.936-.907a.977.977,0,0,1-.322-.5l-.016.1a1,1,0,0,0,.339.962l.936.908c3.143,2.428,3.439-1.49,3.439-1.49l-.055-.171C863.97,486.185,863.278,488.3,860.763,486.362Z" transform="translate(-859.47 -480.459)"/>
        </g>
        <g id="Grupo_12674" data-name="Grupo 12674" transform="translate(6.079 50.589)">
          <g id="Grupo_12673" data-name="Grupo 12673">
            <path id="Trazado_12112" data-name="Trazado 12112" d="M863.1,433.778" transform="translate(-860.254 -402.685)" fill="#151f34"/>
            <path id="Trazado_12113" data-name="Trazado 12113" d="M862.806,417.215c-1.062-8.008-.247-29.276-.247-29.276s1.27-1.887,6.159-1.814,5.907,5.654,5.914,5.262c0,0-4.124,21.783-5.914,27.037C868.719,418.424,865.691,421.011,862.806,417.215Z" transform="translate(-859.964 -386.123)" fill="#151f34"/>
            <path id="Trazado_12114" data-name="Trazado 12114" d="M863.492,461.9c.3-.931,4.31-29.847,4.31-29.847.05-3.928-5.119-2.964-5.119-2.964-1.856,3.292-2.287,4.831-2.976,10.028-.273,2.053-.8,21.038-.967,22.345A5.276,5.276,0,0,0,863.492,461.9Z" transform="translate(-858.74 -401.019)" fill="#151f34"/>
          </g>
        </g>
        <g id="Grupo_12676" data-name="Grupo 12676" transform="translate(23.303 18.325)">
          <path id="Trazado_12115" data-name="Trazado 12115" d="M885.239,341.416s1.787,12.689,3.542,17.631c0,0,2.892.618,3.829-1.019,0,0-.322-10.848-.7-17.382C891.912,340.646,888.351,336.629,885.239,341.416Z" transform="translate(-885.173 -337.505)" fill="#e69376"/>
          <path id="Trazado_12116" data-name="Trazado 12116" d="M894.428,367.138s.621,10.47,1.23,14.573c0,0-.506,1.145-1.191.295-1.144-1.422-4.572-14.31-3.915-15.115C893.611,363.13,894.428,367.138,894.428,367.138Z" transform="translate(-886.991 -346.615)" fill="#e69376"/>
          <path id="Trazado_12117" data-name="Trazado 12117" d="M890.547,342.678a3.383,3.383,0,0,1-4.724-.623,3.337,3.337,0,0,1,.651-4.693,3.383,3.383,0,0,1,4.724.624A3.335,3.335,0,0,1,890.547,342.678Z" transform="translate(-885.138 -336.672)" fill="#e69376"/>
          <g id="Grupo_12675" data-name="Grupo 12675" transform="translate(7.039 33.857)">
            <path id="Trazado_12118" data-name="Trazado 12118" d="M896.685,393.525l.5,1.456-.5,2.15s.431.26.716-.468l.468-1.784-.427-1.666Z" transform="translate(-896.19 -390.18)" fill="#e69376"/>
            <path id="Trazado_12119" data-name="Trazado 12119" d="M897.443,394.163l.584,1.426-.377,2.173s.444.236.688-.506l.368-1.807-.519-1.64Z" transform="translate(-896.454 -390.387)" fill="#e69376"/>
            <path id="Trazado_12120" data-name="Trazado 12120" d="M898.652,392.357l-.6-1.689-.7-2.1-1.387.067L895.927,391l.111,1.217.172,1.659.027.542s.449.057.62-.845l.055-1.6.813,1.1-.1,2.22s.335,1.086.59.6l.556-3.194Z" transform="translate(-895.927 -388.564)" fill="#e69376"/>
          </g>
        </g>
        <path id="Trazado_12121" data-name="Trazado 12121" d="M889.3,336.654a4.431,4.431,0,0,1,3.218,4.249l.495,12.748a11.962,11.962,0,0,1-7,1.681S881.447,338.308,889.3,336.654Z" transform="translate(-861.68 -318.341)" fill="#00b8c4"/>
        <path id="Trazado_12122" data-name="Trazado 12122" d="M886.473,317.257a3.668,3.668,0,0,0,1.118-1.951c-.012-.162-.173-.291-.173-.5s.093-.293.168-.463a2.011,2.011,0,0,0,.193-.981c0-.3.055-.881-.147-1.116-.3-.352-.9-.064-1.218.125-.657.391-1.027,1.028-1.707,1.4a2.734,2.734,0,0,0-1.089,1.261c-.409.7-.75,2,.123,2.531A2.522,2.522,0,0,0,886.473,317.257Z" transform="translate(-861.16 -309.802)" fill="#3b2314"/>
        <path id="Trazado_12123" data-name="Trazado 12123" d="M863.931,437.342" transform="translate(-854.465 -353.335)" fill="#f6a382"/>
        <path id="Trazado_12124" data-name="Trazado 12124" d="M873.983,324.622s-.6-1.149-1.916-3.355a6.216,6.216,0,0,1-1.233-6.5s.863-3.028,6.158-2.588C876.991,312.177,877.5,320.511,873.983,324.622Z" transform="translate(-856.697 -309.819)" fill="#f79f7d"/>
        <path id="Trazado_12125" data-name="Trazado 12125" d="M875.056,324.042s.891,8.306-1.009,8.935l6.774-.4s-1.065-2.51.174-4.361Z" transform="translate(-857.981 -313.958)" fill="#f6a382"/>
        <path id="Trazado_12126" data-name="Trazado 12126" d="M880.986,331.122c-.112-1.9.127-2.282.546-2.91l-5.939-4.17a40.481,40.481,0,0,1,.187,5.116A6.428,6.428,0,0,0,880.986,331.122Z" transform="translate(-858.518 -313.958)" fill="#e0856e"/>
        <path id="Trazado_12127" data-name="Trazado 12127" d="M881.027,336.291c1.508,1.1,1.681,3.738,1.143,5.384-.619,1.89-.864,4.3-1.482,7.038-.839,3.705-1.408,6.559-2.343,10.239-.774,3.044-13,.592-13,.592l-4.383-14.979s-.754-3.91,2.788-5.211a53.03,53.03,0,0,1,6.463-2.939,11.775,11.775,0,0,1,5.762-.741A28.587,28.587,0,0,1,881.027,336.291Z" transform="translate(-853.408 -317.978)" fill="#f6a382"/>
        <path id="Trazado_12128" data-name="Trazado 12128" d="M881.747,325.238l.281-.94.714-3.473a3.533,3.533,0,0,0-.055-1.443,3.534,3.534,0,0,1-.123-1.482,4.3,4.3,0,0,0-.928-3.786c-1.552-2.206-4.958-2.032-4.958-2.032a4.75,4.75,0,0,0-4.35,4.514c-.548,2.746,1.722,4.895,1.727,4.9.181.171.138,1.069.2,1.319a3.6,3.6,0,0,0,2.285,2.1,10.147,10.147,0,0,0,3.412.973C880.383,325.9,881.585,325.777,881.747,325.238Z" transform="translate(-857.353 -309.8)" fill="#f79f7d"/>
        <path id="Trazado_12129" data-name="Trazado 12129" d="M874.606,315.393c1.259-1.541,3.683-.148,5.245-1.1.729-.442.718-1.238,1.669-1.239,2.032,0,1.792-2.187.664-2.823a3.743,3.743,0,0,0-.685.029c-.563.065-.928.31-1.495.106a15.837,15.837,0,0,1-1.662-.9,5.919,5.919,0,0,0-2.291-.881c-1.023-.047-1.349.7-2.106,1.191a7.53,7.53,0,0,1-1.685.489,14.272,14.272,0,0,0-2.324,1.257c-.529.311-1.251.727-1.176,1.444.07.681.761.835.551,1.573a6.1,6.1,0,0,0,.352,3.814,11.362,11.362,0,0,0,.987,2.171,8.56,8.56,0,0,0,1.626,1.8,7.1,7.1,0,0,1,1.151,1.063c.04-1.674-.3-1.536.142-2.37.17-.324-.018-.6-.138-.917s-.4-.587-.358-.936c.217.07.423.1.541,0,.207-.174.038-.754.073-.981a7.216,7.216,0,0,1,.6-2.3A2.978,2.978,0,0,1,874.606,315.393Z" transform="translate(-856.141 -308.586)" fill="#3b2314"/>
        <g id="Grupo_12682" data-name="Grupo 12682" transform="translate(15.353 9.941)">
          <g id="Grupo_12681" data-name="Grupo 12681">
            <g id="Grupo_12680" data-name="Grupo 12680">
              <g id="Grupo_12679" data-name="Grupo 12679">
                <g id="Grupo_12678" data-name="Grupo 12678">
                  <g id="Grupo_12677" data-name="Grupo 12677">
                    <path id="Trazado_12130" data-name="Trazado 12130" d="M874.954,326.321a.939.939,0,0,1-.577.255,1.37,1.37,0,0,1-1.407-1.247,1.256,1.256,0,0,1,1.017-1.5,1.183,1.183,0,0,1,.874.279,1.706,1.706,0,0,1,.422,1.351A1.285,1.285,0,0,1,874.954,326.321Z" transform="translate(-872.954 -323.823)" fill="#f79f7d"/>
                  </g>
                </g>
              </g>
            </g>
          </g>
        </g>
        <path id="Trazado_12131" data-name="Trazado 12131" d="M884.347,324.209l-1.145.442s1.545.1,1.6-.353c0,0-.234-.876-.487-1.7C884.32,322.594,884.517,324.144,884.347,324.209Z" transform="translate(-861.163 -313.454)" fill="#e98a6f"/>
        <path id="Trazado_12132" data-name="Trazado 12132" d="M863.676,383.822a9.223,9.223,0,0,0,0,8.907c2.6,4.709,10.548,2.992,10.572-3.106C874.271,383.6,868.788,381.3,863.676,383.822Z" transform="translate(-853.974 -334.383)" fill="#151f34"/>
        <path id="Trazado_12133" data-name="Trazado 12133" d="M875.972,335.707a28.59,28.59,0,0,1,5.055.618c1.508,1.1,1.681,3.738,1.143,5.384-.619,1.89-.864,4.3-1.482,7.038-.839,3.705-.765,6.589-1.7,10.269-.774,3.043-15.1.337-15.1.337L860.958,344.6s-.754-3.909,2.788-5.211a48.824,48.824,0,0,1,6.294-2.88s-.427,2.88,4.27,2.085C874.31,338.593,877.179,337.9,875.972,335.707Z" transform="translate(-853.408 -318.012)" fill="#3ec0c5"/>
        <path id="Trazado_12134" data-name="Trazado 12134" d="M864.362,370.787c-.687,2.445-2.1,10.174-2.1,10.174,1.859,7.715,18.975,2.164,19.076,1.057.121-1.325-1.368-7.134-1.636-12.591C879.7,369.427,874.338,366.869,864.362,370.787Z" transform="translate(-853.884 -329.446)" fill="#3ec0c5"/>
        <path id="Trazado_12135" data-name="Trazado 12135" d="M863.252,348.123c-1.674,1.9-7.641,10.608-9.4,12.006-.468.372-4.473,2.064-4.428-1.033,4.941-10.989,8.559-15.991,8.559-15.991s3.938-1.8,5.829,1.368C863.811,344.474,864.425,346.811,863.252,348.123Z" transform="translate(-849.422 -320.406)" fill="#f6a382"/>
        <path id="Trazado_12136" data-name="Trazado 12136" d="M868.364,345a4,4,0,1,1-4.614-3.282A4,4,0,0,1,868.364,345Z" transform="translate(-853.242 -320.083)" fill="#f6a382"/>
        <path id="Trazado_12137" data-name="Trazado 12137" d="M862.57,340.3a11.162,11.162,0,0,0-4.843,3.774l-3.964,6.131s1.623,4.635,5.661,5.594l6.342-7.707S869.353,343.578,862.57,340.3Z" transform="translate(-850.931 -319.609)" fill="#3ec0c5"/>
        <path id="Trazado_12138" data-name="Trazado 12138" d="M854.507,367.279a136.53,136.53,0,0,1,6.913,13.285s.016,1.564-1.157,1.138-10.2-11.676-10.268-12.872C849.82,365.755,854.507,367.279,854.507,367.279Z" transform="translate(-849.62 -328.853)" fill="#f6a382"/>
        <g id="Grupo_12684" data-name="Grupo 12684" transform="translate(10.686 51.746)">
          <g id="Grupo_12683" data-name="Grupo 12683">
            <path id="Trazado_12139" data-name="Trazado 12139" d="M867.863,391.873c-1.593-1.446-1.678-1.806-1.887-2.351-.9-2.339,1.912-1.567,2.584-1.227.386.2.167,1.174,1.137,2.678,0,0,1.7,1.657,2.214,1.7,0,0,.492.2.4.569C872.311,393.24,870.7,393.717,867.863,391.873Z" transform="translate(-865.8 -387.896)" fill="#f6a382"/>
          </g>
          <path id="Trazado_12140" data-name="Trazado 12140" d="M870.014,388.564s-1.077.291-.128,1.236l1.534.517a.506.506,0,0,0,.638-.119s.094-.25-.316-.468Z" transform="translate(-867.084 -388.128)" fill="#f6a382"/>
        </g>
      </g>
    </g>
    <path id="Trazado_12141" data-name="Trazado 12141" d="M889.359,541.951c-35.123,0-63.6-16.232-63.6-36.261s28.475-36.259,63.6-36.259,63.6,16.236,63.6,36.259S924.484,541.951,889.359,541.951Z" transform="translate(-32.169 -55.902)" fill="#9daad3"/>
    <g id="Grupo_12696" data-name="Grupo 12696" transform="translate(742.426 314.857)">
      <g id="Grupo_12695" data-name="Grupo 12695">
        <g id="Grupo_12694" data-name="Grupo 12694">
          <g id="Grupo_12687" data-name="Grupo 12687" transform="translate(0 148.104)">
            <rect id="Rectángulo_2992" data-name="Rectángulo 2992" width="9.982" height="1.349" fill="#699ed4"/>
            <rect id="Rectángulo_2993" data-name="Rectángulo 2993" width="4.992" height="1.349" transform="translate(11.47)" fill="#699ed4"/>
          </g>
          <g id="Grupo_12688" data-name="Grupo 12688" transform="translate(212.602 108.827)">
            <rect id="Rectángulo_2994" data-name="Rectángulo 2994" width="11.627" height="1.456" fill="#699ed4"/>
            <rect id="Rectángulo_2995" data-name="Rectángulo 2995" width="5.814" height="1.456" transform="translate(13.361)" fill="#699ed4"/>
          </g>
          <g id="Grupo_12689" data-name="Grupo 12689" transform="translate(199.626 60.391)">
            <rect id="Rectángulo_2996" data-name="Rectángulo 2996" width="9.983" height="1.349" transform="translate(6.478)" fill="#699ed4"/>
            <rect id="Rectángulo_2997" data-name="Rectángulo 2997" width="4.991" height="1.349" fill="#699ed4"/>
          </g>
          <g id="Grupo_12690" data-name="Grupo 12690" transform="translate(110.376 7.34)">
            <rect id="Rectángulo_2998" data-name="Rectángulo 2998" width="1.349" height="1.968" transform="translate(0 0.954) rotate(-45.005)" fill="#699ed4"/>
            <rect id="Rectángulo_2999" data-name="Rectángulo 2999" width="1.349" height="1.968" transform="translate(2.373 3.327) rotate(-45)" fill="#699ed4"/>
            <rect id="Rectángulo_3000" data-name="Rectángulo 3000" width="1.968" height="1.349" transform="matrix(0.707, -0.707, 0.707, 0.707, 2.373, 1.391)" fill="#699ed4"/>
            <rect id="Rectángulo_3001" data-name="Rectángulo 3001" width="1.968" height="1.349" transform="translate(0 3.765) rotate(-45)" fill="#699ed4"/>
          </g>
          <g id="Grupo_12691" data-name="Grupo 12691" transform="translate(1.212 65.23)">
            <rect id="Rectángulo_3002" data-name="Rectángulo 3002" width="1.349" height="1.968" transform="translate(0 0.954) rotate(-45.005)" fill="#699ed4"/>
            <rect id="Rectángulo_3003" data-name="Rectángulo 3003" width="1.349" height="1.968" transform="translate(2.373 3.327) rotate(-44.995)" fill="#699ed4"/>
            <rect id="Rectángulo_3004" data-name="Rectángulo 3004" width="1.968" height="1.349" transform="translate(2.373 1.392) rotate(-45)" fill="#699ed4"/>
            <rect id="Rectángulo_3005" data-name="Rectángulo 3005" width="1.968" height="1.349" transform="translate(0 3.765) rotate(-45)" fill="#699ed4"/>
          </g>
          <g id="Grupo_12692" data-name="Grupo 12692" transform="translate(144.429 63.02)">
            <rect id="Rectángulo_3006" data-name="Rectángulo 3006" width="1.349" height="1.968" transform="translate(0 0.954) rotate(-45)" fill="#699ed4"/>
            <rect id="Rectángulo_3007" data-name="Rectángulo 3007" width="1.349" height="1.968" transform="translate(2.373 3.328) rotate(-45)" fill="#699ed4"/>
            <rect id="Rectángulo_3008" data-name="Rectángulo 3008" width="1.968" height="1.349" transform="translate(2.373 1.392) rotate(-45.004)" fill="#699ed4"/>
            <rect id="Rectángulo_3009" data-name="Rectángulo 3009" width="1.968" height="1.349" transform="translate(0 3.765) rotate(-45.004)" fill="#699ed4"/>
          </g>
          <g id="Grupo_12693" data-name="Grupo 12693" transform="translate(223.604 140.51)">
            <rect id="Rectángulo_3010" data-name="Rectángulo 3010" width="1.349" height="1.968" transform="translate(0 0.954) rotate(-45.005)" fill="#699ed4"/>
            <rect id="Rectángulo_3011" data-name="Rectángulo 3011" width="1.35" height="1.968" transform="translate(2.373 3.328) rotate(-45)" fill="#699ed4"/>
            <rect id="Rectángulo_3012" data-name="Rectángulo 3012" width="1.968" height="1.35" transform="translate(2.373 1.391) rotate(-45)" fill="#699ed4"/>
            <rect id="Rectángulo_3013" data-name="Rectángulo 3013" width="1.968" height="1.349" transform="matrix(0.707, -0.707, 0.707, 0.707, 0, 3.765)" fill="#699ed4"/>
          </g>
          <path id="Trazado_12142" data-name="Trazado 12142" d="M1056.364,323a2.4,2.4,0,1,1,2.4-2.4A2.405,2.405,0,0,1,1056.364,323Zm0-3.455a1.053,1.053,0,1,0,1.052,1.052A1.054,1.054,0,0,0,1056.364,319.546Z" transform="translate(-853.906 -318.197)" fill="#699ed4"/>
          <path id="Trazado_12143" data-name="Trazado 12143" d="M817.647,326.1a2.4,2.4,0,1,1,2.4-2.4A2.4,2.4,0,0,1,817.647,326.1Zm0-3.455A1.053,1.053,0,1,0,818.7,323.7,1.054,1.054,0,0,0,817.647,322.648Z" transform="translate(-770.94 -319.275)" fill="#699ed4"/>
          <path id="Trazado_12144" data-name="Trazado 12144" d="M835.447,445.024a2.4,2.4,0,1,1,2.4-2.4A2.4,2.4,0,0,1,835.447,445.024Zm0-3.454a1.052,1.052,0,1,0,1.052,1.052A1.053,1.053,0,0,0,835.447,441.57Z" transform="translate(-777.126 -360.607)" fill="#699ed4"/>
        </g>
      </g>
    </g>
    <g id="Grupo_12708" data-name="Grupo 12708" transform="translate(878.29 314.051)">
      <path id="Trazado_12145" data-name="Trazado 12145" d="M990.945,489.033c0,4.476,8.155,8.1,18.214,8.1s18.214-3.628,18.214-8.1-8.155-8.1-18.214-8.1S990.945,484.557,990.945,489.033Z" transform="translate(-967.869 -373.949)" fill="#9daad3"/>
      <g id="Grupo_12707" data-name="Grupo 12707" transform="translate(0 0)">
        <g id="Grupo_12698" data-name="Grupo 12698" transform="translate(28.756 110.009)">
          <g id="Grupo_12697" data-name="Grupo 12697" transform="translate(0)">
            <path id="Trazado_12146" data-name="Trazado 12146" d="M1006.048,488.829a9.918,9.918,0,0,1-3.408,1.988,2.909,2.909,0,0,1-2.839-.735.544.544,0,0,1,.083-.832c3.771-2.866,4.9-3.679,4.9-3.679h3.461a7.853,7.853,0,0,1,.075,1.953,3,3,0,0,1-1.9,1.151c-.071.012-.2-.093-.271-.065Z" transform="translate(-999.65 -485.571)" fill="#17181c"/>
          </g>
          <path id="Trazado_12147" data-name="Trazado 12147" d="M999.868,489.938a.964.964,0,0,0,.072.237,1.9,1.9,0,0,0,1.752.877,5.075,5.075,0,0,0,2.156-.731,9.6,9.6,0,0,0,1.784-1.21,5.379,5.379,0,0,1,1.349-.675,6.866,6.866,0,0,0,1.362-.917c0,.374-.024.683-.024.683a3,3,0,0,1-1.9,1.151c-.071.012-.2-.093-.271-.065l-.1.22a9.919,9.919,0,0,1-3.408,1.988,2.909,2.909,0,0,1-2.839-.735A.543.543,0,0,1,999.868,489.938Z" transform="translate(-999.649 -486.247)"/>
        </g>
        <g id="Grupo_12699" data-name="Grupo 12699" transform="translate(31.867 53.5)">
          <path id="Trazado_12148" data-name="Trazado 12148" d="M1010.283,427.4c-3.849,4.25-5.374-.245-5.374-.245l-.478-26.12c-.05.388-.177-2.635,4.681-1.98s6.072,2.542,6.072,2.542-2.666,18.042-4.9,25.8" transform="translate(-1004.419 -398.961)" fill="#e69376"/>
          <path id="Trazado_12149" data-name="Trazado 12149" d="M1005.132,440.537s1.953,27.508,2.113,28.474c0,0,2.374.525,2.385-.022.027-1.317,2.738-17.415,2.772-19.485.088-5.242-1.263-6.233-2.611-9.765C1009.79,439.739,1005.122,436.287,1005.132,440.537Z" transform="translate(-1004.667 -412.674)" fill="#e69376"/>
        </g>
        <g id="Grupo_12701" data-name="Grupo 12701" transform="translate(31.188 53.5)">
          <g id="Grupo_12700" data-name="Grupo 12700">
            <path id="Trazado_12150" data-name="Trazado 12150" d="M1011.08,428.389c2.237-7.762,3.743-26.793,3.743-26.793s-1.227-1.889-6.072-2.542-4.731,2.368-4.681,1.98a151.491,151.491,0,0,0-.123,27.037S1008.1,430.276,1011.08,428.389Z" transform="translate(-1003.377 -398.961)" fill="#104473"/>
          </g>
        </g>
        <path id="Trazado_12151" data-name="Trazado 12151" d="M1018.783,379.781c.687,2.445,3.521,11.772,3.521,11.772-10.145,12.136-17.787,1.516-17.888.41-.121-1.325,1.358-6.385,1.627-11.841C1006.042,380.122,1008.807,375.863,1018.783,379.781Z" transform="translate(-972.548 -338.219)" fill="#f6a382"/>
        <path id="Trazado_12152" data-name="Trazado 12152" d="M1004.441,398.733c-.481-3.269.516-6.566,1.03-9.869h14.86c.951,3.168,1.94,6.422,1.94,6.422s.635,7.493-5.729,8.39C1016.542,403.677,1005.452,405.6,1004.441,398.733Z" transform="translate(-972.515 -341.952)" fill="#104473"/>
        <g id="Grupo_12702" data-name="Grupo 12702" transform="translate(38.326 54.229)">
          <path id="Trazado_12153" data-name="Trazado 12153" d="M1024.823,428.36c-3.177,4.773-5.351.554-5.351.554l-5.154-25.446c.008.392.154-3.314,5.057-3.387s6.382,1.614,6.382,1.614.128,18.657-.934,26.665" transform="translate(-1014.318 -400.079)" fill="#f6a382"/>
          <path id="Trazado_12154" data-name="Trazado 12154" d="M1022.075,442.528s5.1,28.987,5.4,29.918c0,0,2.425.168,2.355-.375-.169-1.307.269-19.585,0-21.638-.69-5.2-1.41-6.091-3.266-9.384C1026.564,441.049,1021.436,438.327,1022.075,442.528Z" transform="translate(-1016.995 -414.017)" fill="#f6a382"/>
        </g>
        <g id="Grupo_12703" data-name="Grupo 12703" transform="translate(47.143 111.505)">
          <path id="Trazado_12155" data-name="Trazado 12155" d="M1029.266,488.458l-1.435,4.378s.3,3.919,3.439,1.49l.936-.907a1,1,0,0,0,.338-.962l-.279-1.677-.333-2.321S1029.962,487.121,1029.266,488.458Z" transform="translate(-1027.831 -487.864)" fill="#17181c"/>
          <path id="Trazado_12156" data-name="Trazado 12156" d="M1031.27,496.161l.936-.907a.979.979,0,0,0,.322-.5l.016.1a1,1,0,0,1-.338.962l-.936.907c-3.143,2.428-3.439-1.49-3.439-1.49l.056-.17C1028.063,495.984,1028.756,498.1,1031.27,496.161Z" transform="translate(-1027.831 -490.258)"/>
        </g>
        <g id="Grupo_12705" data-name="Grupo 12705" transform="translate(37.681 51.518)">
          <g id="Grupo_12704" data-name="Grupo 12704">
            <path id="Trazado_12157" data-name="Trazado 12157" d="M1031.458,443.578" transform="translate(-1019.63 -412.485)" fill="#151f34"/>
            <path id="Trazado_12158" data-name="Trazado 12158" d="M1018.5,428.172c-1.79-5.254-5.169-26.985-5.169-26.985.008.392,1.013-5.19,5.915-5.261s6.159,1.814,6.159,1.814,1.531,21.268.469,29.276C1025.873,427.015,1022.43,430.992,1018.5,428.172Z" transform="translate(-1013.33 -395.923)" fill="#065098"/>
          </g>
        </g>
        <path id="Trazado_12159" data-name="Trazado 12159" d="M1000.012,352.7s-8.3,9.762-12.429,13c0,0-2.774-1.026-2.688-2.911,0,0,6.078-8.99,9.893-14.309C994.788,348.479,999.947,346.993,1000.012,352.7Z" transform="translate(-965.765 -327.855)" fill="#e69376"/>
        <path id="Trazado_12160" data-name="Trazado 12160" d="M979.8,368.989s-10.465.714-14.612.632c0,0-1.071.647-.141,1.218,1.556.954,14.774,2.716,15.49,1.963C983.88,369.29,979.8,368.989,979.8,368.989Z" transform="translate(-958.736 -335.044)" fill="#e69376"/>
        <path id="Trazado_12161" data-name="Trazado 12161" d="M999.316,350.966a3.382,3.382,0,0,0,4.324,2,3.336,3.336,0,0,0,1.963-4.312,3.383,3.383,0,0,0-4.325-2A3.336,3.336,0,0,0,999.316,350.966Z" transform="translate(-970.703 -327.21)" fill="#e69376"/>
        <path id="Trazado_12162" data-name="Trazado 12162" d="M999.266,346.383a4.433,4.433,0,0,0-4.993,1.866l-7.24,10.5a11.958,11.958,0,0,0,5.016,5.169S1005.013,351.983,999.266,346.383Z" transform="translate(-966.509 -327.125)" fill="#862952"/>
        <path id="Trazado_12163" data-name="Trazado 12163" d="M1030.624,447.141" transform="translate(-981.659 -362.206)" fill="#f6a382"/>
        <path id="Trazado_12164" data-name="Trazado 12164" d="M1017.023,334.421s.6-1.15,1.916-3.355a6.216,6.216,0,0,0,1.233-6.5s-.863-3.028-6.158-2.588C1014.015,321.976,1013.508,330.31,1017.023,334.421Z" transform="translate(-975.878 -318.689)" fill="#f79f7d"/>
        <path id="Trazado_12165" data-name="Trazado 12165" d="M1015.8,333.841s-.891,8.307,1.009,8.935l-6.774-.4s1.065-2.51-.173-4.361Z" transform="translate(-974.442 -322.828)" fill="#f6a382"/>
        <path id="Trazado_12166" data-name="Trazado 12166" d="M1010.4,340.922c.113-1.9-.125-2.283-.545-2.911l5.938-4.17a40.495,40.495,0,0,0-.187,5.116A6.426,6.426,0,0,1,1010.4,340.922Z" transform="translate(-974.442 -322.828)" fill="#e0856e"/>
        <path id="Trazado_12167" data-name="Trazado 12167" d="M1002.045,346.09c-1.509,1.1-1.682,3.738-1.144,5.384.618,1.891.863,4.3,1.483,7.038.838,3.705,1.407,6.56,2.342,10.24.774,3.043,13,.59,13,.59l4.383-14.978s.755-3.91-2.787-5.211a52.942,52.942,0,0,0-6.464-2.939,11.783,11.783,0,0,0-5.762-.742A28.65,28.65,0,0,0,1002.045,346.09Z" transform="translate(-971.232 -326.849)" fill="#f6a382"/>
        <path id="Trazado_12168" data-name="Trazado 12168" d="M1005.875,322.964c-.349,1.593-.746,2.426-.305,3.887.4,1.312.3,2.69.877,3.962.817,1.813,1.88,1.577,2.693-.091.832-1.708,1.7-4.016-.179-5.281-1.206-.812-1.641-2.209-3.085-2.477Z" transform="translate(-972.884 -319.048)" fill="#260f00"/>
        <path id="Trazado_12169" data-name="Trazado 12169" d="M1007.188,335.037l-.282-.94-.713-3.473a3.518,3.518,0,0,1,.055-1.443,3.557,3.557,0,0,0,.123-1.482,4.3,4.3,0,0,1,.927-3.787c1.552-2.206,4.957-2.032,4.957-2.032a4.751,4.751,0,0,1,4.352,4.514c.547,2.746-1.723,4.895-1.728,4.9-.181.171-.138,1.068-.2,1.319a3.606,3.606,0,0,1-2.286,2.1,10.144,10.144,0,0,1-3.412.973C1008.551,335.7,1007.349,335.576,1007.188,335.037Z" transform="translate(-973.15 -318.671)" fill="#f79f7d"/>
        <path id="Trazado_12170" data-name="Trazado 12170" d="M1006.292,334.52c.552.5,1.3.271,1.891.632a.991.991,0,0,0,1,.1,1.563,1.563,0,0,1,.95.032c.351.1.987.406,1.327.543a1.255,1.255,0,0,0,1.507-.348,2.973,2.973,0,0,0,.782-1.237,1.371,1.371,0,0,1,2.3-.567,6.825,6.825,0,0,1-1.155,1.581,11.54,11.54,0,0,0-.2,2.06,3.606,3.606,0,0,1-2.286,2.1,11.564,11.564,0,0,1-3.742.562A1.8,1.8,0,0,1,1007.2,339l-.282-.94-.712-3.473c-.012-.06-.018-.128-.025-.192A1.094,1.094,0,0,0,1006.292,334.52Z" transform="translate(-973.164 -322.63)" fill="#260f00"/>
        <path id="Trazado_12171" data-name="Trazado 12171" d="M1005.407,322.36c.951,0,.94.8,1.669,1.24,1.562.95,3.986-.443,5.245,1.1a2.931,2.931,0,0,1,.319.488,7.2,7.2,0,0,1,.6,2.3c.035.227-.134.808.073.982.118.1.324.07.541,0,.042.348-.237.615-.358.935s-.309.594-.138.918c.439.833.1.7.142,2.37a7.142,7.142,0,0,1,1.151-1.064,8.514,8.514,0,0,0,1.626-1.8,11.339,11.339,0,0,0,.988-2.169,6.106,6.106,0,0,0,.352-3.814s-.288-2.969-2.772-3.288c0,0,.316-1.912-4.224-2.417,0,0-3.584.056-3.78-1.181a1.76,1.76,0,0,0-.545,1.574,1.761,1.761,0,0,1-2.137-1.237S1002.932,321.741,1005.407,322.36Z" transform="translate(-972.355 -316.962)" fill="#260f00"/>
        <path id="Trazado_12172" data-name="Trazado 12172" d="M1024.631,393.621a9.225,9.225,0,0,1,0,8.908c-2.6,4.708-10.548,2.991-10.572-3.106C1014.035,393.4,1019.518,391.1,1024.631,393.621Z" transform="translate(-975.902 -343.253)" fill="#065098"/>
        <path id="Trazado_12173" data-name="Trazado 12173" d="M1007.1,345.506a28.648,28.648,0,0,0-5.055.618c-1.509,1.1-1.682,3.738-1.144,5.384.618,1.891.863,4.3,1.483,7.038.838,3.705-.219,6.414.716,10.094.774,3.044,16.957,0,16.957,0l2.056-14.242s.755-3.91-2.787-5.211a48.927,48.927,0,0,0-6.294-2.881s.426,2.881-4.27,2.085C1008.761,348.392,1005.891,347.7,1007.1,345.506Z" transform="translate(-971.232 -326.882)" fill="#862952"/>
        <path id="Trazado_12174" data-name="Trazado 12174" d="M1020.893,379.805c.686,2.445,1.23,10.686,1.23,10.686-1.861,7.715-18.976,2.164-19.077,1.058-.121-1.325.4-7.63.672-13.087C1003.718,378.462,1010.917,375.887,1020.893,379.805Z" transform="translate(-972.068 -338.048)" fill="#862952"/>
        <path id="Trazado_12175" data-name="Trazado 12175" d="M1022.535,357.162c1.116,2.271,5.261,13.734,6.594,15.547.354.481,3.771,2.683,4.54-.318-1.883-11.9-4.732-18.687-4.732-18.687s-3.327-2.774-5.984-.21C1022.953,353.494,1021.746,355.588,1022.535,357.162Z" transform="translate(-978.755 -329.281)" fill="#f6a382"/>
        <path id="Trazado_12176" data-name="Trazado 12176" d="M1021.925,354.8a4,4,0,1,0,4.613-3.282A4,4,0,0,0,1021.925,354.8Z" transform="translate(-978.616 -328.954)" fill="#f6a382"/>
        <path id="Trazado_12177" data-name="Trazado 12177" d="M1025.261,350.477s3.441,1.291,4.255,4.082l2.124,7.6s-2.783,4.046-6.93,3.912l-4.1-9.1S1017.856,351.858,1025.261,350.477Z" transform="translate(-978.005 -328.61)" fill="#862952"/>
        <g id="Grupo_12706" data-name="Grupo 12706" transform="translate(46.981 41.958)">
          <path id="Trazado_12178" data-name="Trazado 12178" d="M1032.7,382.74a141.515,141.515,0,0,0,.258,17.2s.753,1.371,1.567.424,3.243-16.868,2.716-17.945C1035.889,379.657,1032.7,382.74,1032.7,382.74Z" transform="translate(-1029.312 -381.271)" fill="#f6a382"/>
          <path id="Trazado_12179" data-name="Trazado 12179" d="M1031.234,409.89l-1.483,1.433-2.167,1.248a1.168,1.168,0,0,0,1.517.211,24.035,24.035,0,0,0-.583,2.745c-.2.57.344.537.344.537a11.283,11.283,0,0,0,1.42-2.429,27.572,27.572,0,0,1-1.08,2.812c-.077.5.425.365.425.365,1.039-.592,1.418-2.807,1.418-2.807a16.033,16.033,0,0,1-.81,2.56c.114.346.282.231.282.231.9-.343,1.254-2.475,1.254-2.475l-.154.795c-.31,1.071.361.8.361.8l.249-.535a6.494,6.494,0,0,0,.544-3.134l.027-1.935Z" transform="translate(-1027.584 -391.217)" fill="#f6a382"/>
        </g>
        <path id="Trazado_12180" data-name="Trazado 12180" d="M957.09,368.658l.962.444s-1.952-.412-2.233-1.251c0,0-.1-.159.223-.251a14.661,14.661,0,0,0,2.328.845,10.744,10.744,0,0,1-2.723-1.026s-.286-.487.294-.513c-.278-.3.128-.385.128-.385a6.726,6.726,0,0,1,1.229.112,27.423,27.423,0,0,0,2.821.247s-.677-1.148-.042-1.491l1.14,1.575.952,1.588-.281,1.036-1.951.291a10.071,10.071,0,0,1-2.5-.5S955.182,368.167,957.09,368.658Z" transform="translate(-955.576 -333.793)" fill="#e69376"/>
        <path id="Trazado_12181" data-name="Trazado 12181" d="M1021.253,443.565,1025.7,471.3s1.474,1.421,4.9,0l.568-13.553s1-8.954-2.541-15.341C1028.627,442.409,1021.641,436.771,1021.253,443.565Z" transform="translate(-978.402 -359.798)" fill="#065098"/>
        <path id="Trazado_12182" data-name="Trazado 12182" d="M1011.354,442.608s1.9,2.74.2,13.029l-1.737,14.051a4.633,4.633,0,0,1-4.247.054l-1.4-27.991S1005.422,437,1011.354,442.608Z" transform="translate(-972.463 -359.68)" fill="#104473"/>
      </g>
    </g>
    <g id="Grupo_12723" data-name="Grupo 12723" transform="translate(753.896 328.552)">
      <path id="Trazado_12183" data-name="Trazado 12183" d="M788.32,347.422c.35,2.544,1.244,3.208.446,5.86-.737,2.451-2.764,4.249-3.035,6.892-.192,1.876.293,4.932,1.538,6.444,1.807,2.194,5.924.96,8.272.58,2.672-.433,8.632-.62,10.279-3.255,1.249-2-.335-5.548-.847-7.591-.649-2.593-1.328-5.18-1.929-7.785-.545-2.367-1.232-6.326-3.1-8.083s-3.975-1.262-6.329-1C790.792,339.8,787.884,344.245,788.32,347.422Z" transform="translate(-772.138 -339.197)" fill="#3f1900"/>
      <path id="Trazado_12184" data-name="Trazado 12184" d="M801.348,498.569c0,4.476-8.155,8.1-18.214,8.1s-18.214-3.628-18.214-8.1,8.155-8.1,18.214-8.1S801.348,494.094,801.348,498.569Z" transform="translate(-764.919 -391.764)" fill="#9daad3"/>
      <g id="Grupo_12722" data-name="Grupo 12722" transform="translate(3.683)">
        <g id="Grupo_12711" data-name="Grupo 12711" transform="translate(18.744 99.871)">
          <path id="Trazado_12185" data-name="Trazado 12185" d="M800.251,500.195l.3-.056.3-2.508-.785-.929Z" transform="translate(-799.561 -493.802)" fill="#561136"/>
          <g id="Grupo_12710" data-name="Grupo 12710">
            <path id="Trazado_12186" data-name="Trazado 12186" d="M799.624,499.587l.36.2-.056-4.106-.634-.144Z" transform="translate(-799.293 -493.399)" fill="#151f34"/>
            <g id="Grupo_12709" data-name="Grupo 12709">
              <path id="Trazado_12187" data-name="Trazado 12187" d="M802.4,493.279l.666,2.2a14.808,14.808,0,0,0,1.655,2.957s1.349,1.851-1.176,1.727c0,0-2.695-.143-2.654-1.871a6.865,6.865,0,0,0-1.33-3.331,1.5,1.5,0,0,1,.176-1.774l.467-.534,2.266-.4Z" transform="translate(-799.313 -492.258)" fill="#e69376"/>
              <path id="Trazado_12188" data-name="Trazado 12188" d="M804.852,499.33a3.394,3.394,0,0,1-2.934-.888,11.776,11.776,0,0,1-1.235-2.376c.11.347-.713-2.723-.494-3.2l-.467.534a1.567,1.567,0,0,0-.223,1.821,6.519,6.519,0,0,1,1.377,3.284c-.041,1.728,2.654,1.871,2.654,1.871,1.516.074,1.635-.563,1.489-1.084C804.965,499.306,804.909,499.319,804.852,499.33Z" transform="translate(-799.293 -492.469)" fill="#151f34"/>
              <path id="Trazado_12189" data-name="Trazado 12189" d="M806.911,502.269s.38.719-.827.719c0,0-4.52-.287-4.518-2.229l0-1.565a2.908,2.908,0,0,0,3.147,2.239s1.24,0,.6-.79Z" transform="translate(-800.082 -494.669)" fill="#151f34"/>
            </g>
          </g>
        </g>
        <g id="Grupo_12721" data-name="Grupo 12721">
          <path id="Trazado_12190" data-name="Trazado 12190" d="M796.214,360h5.925c-.269-.863-.827-3.1.036-4.615l-5.986-3.931S797.253,358.049,796.214,360Z" transform="translate(-779.47 -343.45)" fill="#f6a382"/>
          <path id="Trazado_12191" data-name="Trazado 12191" d="M796.879,356.277a2.6,2.6,0,0,0,1.865,1.645,6.251,6.251,0,0,0,3.009.223,4.689,4.689,0,0,1,.423-2.761l-5.986-3.931s.324,2.012.44,4.142C796.71,355.822,796.789,356.05,796.879,356.277Z" transform="translate(-779.47 -343.45)" fill="#e0856e"/>
          <path id="Trazado_12192" data-name="Trazado 12192" d="M802.425,352.712l.314-.891.768-2.622a2.64,2.64,0,0,0,.013-1.392,4.207,4.207,0,0,1-.122-2.175,4.38,4.38,0,0,0-.571-3.632c-1.392-2.194-4.678-2.183-4.678-2.183a4.578,4.578,0,0,0-4.395,4.145,5.646,5.646,0,0,0,1.438,4.794,2.9,2.9,0,0,1,.42,1.062,3.263,3.263,0,0,0,.6.994,7.3,7.3,0,0,0,2.083,1.672,8.044,8.044,0,0,0,3.132.739C801.837,353.218,802.245,353.223,802.425,352.712Z" transform="translate(-778.58 -339.406)" fill="#f6a382"/>
          <g id="Grupo_12714" data-name="Grupo 12714" transform="translate(4.605 100.989)">
            <path id="Trazado_12193" data-name="Trazado 12193" d="M778.044,500.783l.3.043,1.088-2.279-.445-1.132Z" transform="translate(-777.769 -495.168)" fill="#561136"/>
            <g id="Grupo_12713" data-name="Grupo 12713">
              <path id="Trazado_12194" data-name="Trazado 12194" d="M777.622,500.006l.275.309,1.264-3.907-.555-.34Z" transform="translate(-777.622 -494.701)" fill="#151f34"/>
              <g id="Grupo_12712" data-name="Grupo 12712" transform="translate(0.953)">
                <path id="Trazado_12195" data-name="Trazado 12195" d="M782.432,495.269c-.06,1.835-.2,3.894.544,5.631,0,0,.684,2.186-1.668,1.259,0,0-2.505-1-1.912-2.624a6.88,6.88,0,0,0-.192-3.583,1.5,1.5,0,0,1,.736-1.624l.614-.356h2.355Z" transform="translate(-779.113 -493.972)" fill="#f6a382"/>
                <path id="Trazado_12196" data-name="Trazado 12196" d="M782.866,501.593a3.393,3.393,0,0,1-2.494-1.783,11.793,11.793,0,0,1-.408-2.646c-.007.364.2-2.807.56-3.192l-.614.356a1.567,1.567,0,0,0-.795,1.653,6.537,6.537,0,0,1,.251,3.553c-.593,1.623,1.912,2.624,1.912,2.624,1.412.557,1.73-.009,1.758-.549A1.569,1.569,0,0,1,782.866,501.593Z" transform="translate(-779.083 -493.972)" fill="#151f34"/>
                <path id="Trazado_12197" data-name="Trazado 12197" d="M783.888,504.884s.13.8-1.013.416c0,0-4.189-1.722-3.564-3.561l.5-1.482a2.909,2.909,0,0,0,2.263,3.13s1.174.4.821-.557Z" transform="translate(-779.14 -496.156)" fill="#151f34"/>
              </g>
            </g>
          </g>
          <path id="Trazado_12198" data-name="Trazado 12198" d="M785.7,452.71c-3,5.548-3.536,7.807-4.071,12.025-.312,2.454-.208,12.789-.53,14.33-.134.639,2.295.288,2.295.288.444-1.081,7.518-24.828,7.518-24.828s.791-2.459.134-2.887C787.753,449.49,787.014,450.292,785.7,452.71Z" transform="translate(-774.225 -377.836)" fill="#f6a382"/>
          <path id="Trazado_12199" data-name="Trazado 12199" d="M800.759,391.7s2.308,9.772,2,10.84c-.893,3.074-9.6,10.242-17.15,3.949,0,0,1.555-10.959,5.732-16.194C791.339,390.3,792.657,391.661,800.759,391.7Z" transform="translate(-775.792 -356.952)" fill="#f6a382"/>
          <path id="Trazado_12200" data-name="Trazado 12200" d="M800.93,361.947s3.021,5.842,4.371,9.047c-.565,3.757-2.607,9.331-3.427,10.506-1.8,2.575-10.017.276-10.017.276l-2.369-7.91c6.916-2.483,3.274-9.771,3.274-9.771l1.084-.684a5.429,5.429,0,0,0,5.608,3.454s1.478-.962.39-5.048A6.323,6.323,0,0,1,800.93,361.947Z" transform="translate(-777.141 -347.052)" fill="#6651a1"/>
          <path id="Trazado_12201" data-name="Trazado 12201" d="M795.495,410.186s.8,15.765,3.712,24.244c.435,1.264,5.419-.416,5.419-.416s2.515-13.565,2.365-19.185c-.085-3.177-1.222-10.026-1.222-10.026S796.421,403.581,795.495,410.186Z" transform="translate(-779.229 -361.961)" fill="#e69376"/>
          <path id="Trazado_12202" data-name="Trazado 12202" d="M800.157,449.981l5.276-.359s-3.241,26.914-3.536,28.044c0,0-2.269.821-2.222.169.11-1.571-1.782-13.649-1.84-16.122A23.289,23.289,0,0,1,800.157,449.981Z" transform="translate(-780.035 -377.569)" fill="#e69376"/>
          <g id="Grupo_12715" data-name="Grupo 12715" transform="translate(21.845 15.021)">
            <path id="Trazado_12203" data-name="Trazado 12203" d="M804.1,365a3.474,3.474,0,0,0,2.809,4.033c1.889.338,6.449.52,5.7-1.248-1.438-3.412-3.012-5.182-4.9-5.52A3.029,3.029,0,0,0,804.1,365Z" transform="translate(-804.045 -362.21)" fill="#e69376"/>
            <path id="Trazado_12204" data-name="Trazado 12204" d="M806.6,369.017l1.588-3.125,3.6-.067s4.645,8.548,5.516,11.09c.928,2.708-1.257,1.691-2.176,1.385C815.123,378.3,807.516,371.056,806.6,369.017Z" transform="translate(-804.931 -363.466)" fill="#e69376"/>
            <path id="Trazado_12205" data-name="Trazado 12205" d="M819.665,384.18s2.97,3.752,4.948,4.651c0,0,2.038-1.388-2.631-5.557C821.982,383.274,820.272,381.607,819.665,384.18Z" transform="translate(-809.474 -369.346)" fill="#e69376"/>
          </g>
          <path id="Trazado_12206" data-name="Trazado 12206" d="M785.607,413.016s.061,15.772,2.141,24.494c.309,1.3,5.062.9,5.062.9s3.1-14.915,3.5-20.523c.223-3.17.857-8.717.857-8.717S786.039,408.069,785.607,413.016Z" transform="translate(-775.792 -363.474)" fill="#f6a382"/>
          <path id="Trazado_12207" data-name="Trazado 12207" d="M788.333,365.949a3.648,3.648,0,0,0-1.184,4.438l4.578,11.12s7.425,2.526,9.223-.05c.821-1.175,1.581-4.293,2.578-8.789.677-3.055.722-8.393-1-9.974-.992-.911-4.2-.893-4.226-1l-5.2,1.675Z" transform="translate(-776.218 -347.009)" fill="#f6a382"/>
          <path id="Trazado_12208" data-name="Trazado 12208" d="M798.079,390.307a13.988,13.988,0,0,1,2.813.858s1.709,7.287,1.807,8.394-7.523,6.844-16.035,3.578c0,0,4.3-10.138,4.927-12.258C792.312,388.445,798.079,390.307,798.079,390.307Z" transform="translate(-776.159 -356.718)" fill="#f6a382"/>
          <path id="Trazado_12209" data-name="Trazado 12209" d="M809.728,368.925s2.512,2.959,2.723,5.156c.117,1.224-1.428,3.273-2.2,4.028C809.7,378.645,806.457,370.967,809.728,368.925Z" transform="translate(-783.675 -349.523)" fill="#122a67"/>
          <path id="Trazado_12210" data-name="Trazado 12210" d="M794.8,350.055a7.554,7.554,0,0,1,.027-1.742c.043-.542,1.107.627,1.085-.08-.1-3.232,1.074-4.771,1.533-5.021a5.687,5.687,0,0,1,3.606-.684c1.634.29,1.572,2.467,1.572,2.467,1.393-7.968-7.493-5.421-7.493-5.421a4.925,4.925,0,0,0-3.881,5.214c-.53,4.379,3.618,6.909,3.618,6.909Z" transform="translate(-777.739 -339.188)" fill="#3f1900"/>
          <g id="Grupo_12716" data-name="Grupo 12716" transform="translate(22.087 8.003)">
            <path id="Trazado_12211" data-name="Trazado 12211" d="M804.417,353.072c1.166-.085,1.23-.39,1.23-.39l-.612-1.229S805.176,352.682,804.417,353.072Z" transform="translate(-804.417 -351.453)" fill="#e98a6f"/>
          </g>
          <g id="Grupo_12719" data-name="Grupo 12719" transform="translate(29.959 27.282)">
            <g id="Grupo_12718" data-name="Grupo 12718">
              <path id="Trazado_12212" data-name="Trazado 12212" d="M825.284,381.627l-2.813,11.357c0,.21-.142.249-.142.249l-4.976,2.074a.174.174,0,0,1-.226-.2l2.814-11.3c0-.237.155-.273.155-.273l4.954-2.065S825.284,381.377,825.284,381.627Z" transform="translate(-816.706 -381.16)" fill="#24386f"/>
              <g id="Grupo_12717" data-name="Grupo 12717">
                <path id="Trazado_12213" data-name="Trazado 12213" d="M816.518,396.12l.483.324c-.09-.029-.1-.184-.1-.184l2.811-11.328-.422-.286-2.813,11.387A.1.1,0,0,0,816.518,396.12Z" transform="translate(-816.481 -382.268)" fill="#355194"/>
                <path id="Trazado_12214" data-name="Trazado 12214" d="M821.326,384.535s-.112.057-.11.26l-.422-.284a.311.311,0,0,1,.117-.258Z" transform="translate(-817.98 -382.132)" fill="#355194"/>
                <path id="Trazado_12215" data-name="Trazado 12215" d="M820.969,383.126A.164.164,0,0,1,821,383.1l4.954-2.068a.28.28,0,0,1,.286.014l.3.2a.161.161,0,0,1,.068.156s-.023-.157-.224-.091l-5,2.089Z" transform="translate(-818.041 -381.002)" fill="#a3ddf5"/>
              </g>
              <path id="Trazado_12216" data-name="Trazado 12216" d="M817.275,395.329a.194.194,0,0,1-.141-.05.248.248,0,0,1-.061-.193l2.814-11.3c0-.255.175-.3.183-.3l4.948-2.063a.247.247,0,0,1,.208.006.2.2,0,0,1,.076.18v.009l-2.813,11.357a.26.26,0,0,1-.168.275l-4.972,2.073A.44.44,0,0,1,817.275,395.329Zm-.13-.23a.18.18,0,0,0,.04.127.163.163,0,0,0,.144.026l4.968-2.072c.009,0,.119-.037.119-.215l2.813-11.361a.133.133,0,0,0-.043-.115.171.171,0,0,0-.14,0l-4.954,2.065c-.011,0-.133.036-.133.239l-2.815,11.3Z" transform="translate(-816.686 -381.14)" fill="#355194"/>
            </g>
            <path id="Trazado_12217" data-name="Trazado 12217" d="M826.535,388.193a3.956,3.956,0,0,1-.979,1.272c-.487.386-1.3.269-1.616.55-.547.491-.159,1.816.994,3.144,1,1.154,1.737-.356,2.074-1.284a3.165,3.165,0,0,0-.1-3.091Z" transform="translate(-818.989 -383.501)" fill="#e69376"/>
          </g>
          <path id="Trazado_12218" data-name="Trazado 12218" d="M803.571,409.82a72.88,72.88,0,0,0-.663-7.275c-.105-1.781-2.132-10.84-2.132-10.84-8.1-.043-9.93-1.4-9.93-1.4a40.132,40.132,0,0,0-4.522,12.046,28.24,28.24,0,0,0-.654,6.844c.1,3.137.219,6.269.444,9.4.039.55.336,6.185.594,6.209,0,0,13.589,1.414,15.949-4.733A72.834,72.834,0,0,0,803.571,409.82Z" transform="translate(-775.809 -356.952)" fill="#cb4e7e"/>
          <path id="Trazado_12219" data-name="Trazado 12219" d="M791.938,381.776s8.453,2.6,10.251.029c.82-1.175,2.628-7.054,3.193-10.81-1.349-3.2-4.371-9.047-4.371-9.047a6.322,6.322,0,0,0-1.087-.131c1.088,4.086-.39,5.048-.39,5.048a5.428,5.428,0,0,1-5.608-3.454l-1.084.684s3.353,6.965-3.119,10.15C789.724,374.246,789.569,381.717,791.938,381.776Z" transform="translate(-777.222 -347.052)" fill="#122a67"/>
          <g id="Grupo_12720" data-name="Grupo 12720" transform="translate(0 18.976)">
            <path id="Trazado_12220" data-name="Trazado 12220" d="M790.381,371.181a3.475,3.475,0,0,1-2.962,3.921c-1.9.264-6.936-.229-5.86-1.818,2.115-3.125,3.419-4.711,5.32-4.976A3.028,3.028,0,0,1,790.381,371.181Z" transform="translate(-774.334 -368.272)" fill="#f6a382"/>
            <path id="Trazado_12221" data-name="Trazado 12221" d="M784.9,375.052l-1.465-3.185-3.594-.206s-8.036,8.254-9.005,10.76c-1.032,2.67,1.19,1.738,2.12,1.467C772.952,383.889,783.9,377.054,784.9,375.052Z" transform="translate(-770.564 -369.45)" fill="#f6a382"/>
            <path id="Trazado_12222" data-name="Trazado 12222" d="M770.772,389.006a58.535,58.535,0,0,0,7.638,9.42s1.733-.109,1.22-1.071c-.872-1.633-4.429-9.263-5.312-10.9C773.822,385.53,770.772,389.006,770.772,389.006Z" transform="translate(-770.636 -374.536)" fill="#f6a382"/>
            <path id="Trazado_12223" data-name="Trazado 12223" d="M783.766,402.932l1.963.634.906-1.1a5.243,5.243,0,0,0,.319,2.12,24.3,24.3,0,0,1,1.732,2.207c.429.425-.073.633-.073.633a11.278,11.278,0,0,1-2.344-1.555,27.723,27.723,0,0,0,2.207,2.049c.289.412-.221.514-.221.514-1.193-.073-2.509-1.9-2.509-1.9a16.04,16.04,0,0,0,1.855,1.942c.05.359-.152.331-.152.331-.955.087-2.216-1.671-2.216-1.671l.489.646c.75.825.029.881.029.881l-.459-.37a6.5,6.5,0,0,1-1.869-2.575L782.546,404Z" transform="translate(-774.728 -380.157)" fill="#f6a382"/>
          </g>
        </g>
      </g>
      <path id="Trazado_12224" data-name="Trazado 12224" d="M798.346,342.161c-2.685,1.471-4.2,2.824-3.5,6.091.628,2.946.842,4.559-.782,7.187-1.525,2.468-1.661,3.877-.348,6.523,1.054,2.124,2.091,4.163-.551,5.439-4.986,2.409-9.622-1.546-7.752-6.944.838-2.42,2.875-4.069,3.844-6.4.981-2.357.035-4.365-.174-6.747-.35-3.984,5.09-9.77,8.517-5.91a6.925,6.925,0,0,1,.75,1.106Z" transform="translate(-771.893 -339.516)" fill="#3f1900"/>
    </g>
    <g id="Grupo_12726" data-name="Grupo 12726" transform="translate(801.783 352.901)">
      <g id="Grupo_12724" data-name="Grupo 12724" transform="translate(0 47.763)">
        <path id="Trazado_12225" data-name="Trazado 12225" d="M838.315,498.131v12.793c0,17.449,24.808,31.591,55.407,31.591s55.406-14.142,55.406-31.591V498.131Z" transform="translate(-838.315 -466.541)" fill="#7c284b"/>
        <path id="Trazado_12226" data-name="Trazado 12226" d="M893.722,512.893c-30.6,0-55.407-14.142-55.407-31.591s24.808-31.588,55.407-31.588,55.406,14.145,55.406,31.588S924.323,512.893,893.722,512.893Z" transform="translate(-838.315 -449.714)" fill="#cb4e7e"/>
        <path id="Trazado_12227" data-name="Trazado 12227" d="M899.987,509.76c-24.1,0-43.646-11.139-43.646-24.884s19.542-24.883,43.646-24.883,43.645,11.142,43.645,24.883S924.092,509.76,899.987,509.76Z" transform="translate(-844.58 -453.286)" fill="#fff"/>
        <path id="Trazado_12228" data-name="Trazado 12228" d="M905.631,506.936c-18.252,0-33.05-8.435-33.05-18.843s14.8-18.843,33.05-18.843,33.049,8.437,33.049,18.843S923.884,506.936,905.631,506.936Z" transform="translate(-850.224 -456.504)" fill="#cb4e7e"/>
        <path id="Trazado_12229" data-name="Trazado 12229" d="M911.684,503.909c-11.976,0-21.685-5.535-21.685-12.364s9.709-12.364,21.685-12.364,21.685,5.536,21.685,12.364S923.661,503.909,911.684,503.909Z" transform="translate(-856.278 -459.955)" fill="#fff"/>
        <path id="Trazado_12230" data-name="Trazado 12230" d="M917.4,501.053c-6.055,0-10.964-2.8-10.964-6.251s4.909-6.25,10.964-6.25,10.964,2.8,10.964,6.25S923.451,501.053,917.4,501.053Z" transform="translate(-861.989 -463.212)" fill="#cb4e7e"/>
        <path id="Trazado_12231" data-name="Trazado 12231" d="M921.261,499.119c-2.047,0-3.707-.946-3.707-2.113s1.66-2.113,3.707-2.113,3.707.946,3.707,2.113S923.309,499.119,921.261,499.119Z" transform="translate(-865.854 -465.416)" fill="#7c284b"/>
      </g>
      <g id="Grupo_12725" data-name="Grupo 12725" transform="translate(44.274)">
        <path id="Trazado_12232" data-name="Trazado 12232" d="M923.236,406.419V382.355l11.133-5.847v22.94Z" transform="translate(-912.103 -376.508)" fill="#437fc0"/>
        <path id="Trazado_12233" data-name="Trazado 12233" d="M917.306,406.419V382.355l-11.133-5.847v22.94Z" transform="translate(-906.173 -376.508)" fill="#3daee3"/>
        <rect id="Rectángulo_3014" data-name="Rectángulo 3014" width="4.048" height="75.268" transform="translate(9.109 4.61)" fill="#196eaa"/>
      </g>
    </g>
    <g id="Grupo_12739" data-name="Grupo 12739" transform="translate(896.823 402.345)">
      <path id="Trazado_12234" data-name="Trazado 12234" d="M991.893,501.14" transform="translate(-986.731 -469.267)" fill="#f79f7d"/>
      <path id="Trazado_12235" data-name="Trazado 12235" d="M991.761,500.341s-.474-1.234,1.169-1.681a20.426,20.426,0,0,0,5.82,2.179c4.02,1.351,12.3-.371,16.069-1.154,4.232-.879,6.191,3.906,2.133,5.471-7.593,2.93-19.632-.254-25.233-4.658" transform="translate(-986.663 -468.405)" fill="#f79f7d"/>
      <path id="Trazado_12236" data-name="Trazado 12236" d="M1050.278,562.143c-1.691-7.9-2.2-26.193-2.2-26.193s1.355-1.8,6.235-2.113,4.555,2.691,4.532,2.3a170.094,170.094,0,0,1-2.245,25.7S1053.124,564.234,1050.278,562.143Z" transform="translate(-1006.259 -480.623)" fill="#053b6b"/>
      <path id="Trazado_12237" data-name="Trazado 12237" d="M1055,533.492c.481-3.268-.515-6.565-1.029-9.868h-14.86c-.951,3.168-1.939,6.421-1.939,6.421s-.636,7.493,5.729,8.391C1042.9,538.436,1053.991,540.359,1055,533.492Z" transform="translate(-1002.462 -477.082)" fill="#007fa2"/>
      <path id="Trazado_12238" data-name="Trazado 12238" d="M1050.566,620.1c0,6.3-11.478,11.407-25.637,11.407S999.292,626.4,999.292,620.1s11.478-11.407,25.637-11.407S1050.566,613.8,1050.566,620.1Z" transform="translate(-989.302 -506.648)" fill="#9daad3"/>
      <g id="Grupo_12727" data-name="Grupo 12727" transform="translate(15.733 109.408)">
        <path id="Trazado_12239" data-name="Trazado 12239" d="M1013.075,623.609l.847-.05c.289-.044.287.409.326.425a9.181,9.181,0,0,0,2,.636s1.567-.2,1.734-.679l-.221-2.906c-1.745-.147-3.568-.484-3.568-.484l-3.836-.54c-1.846-.192-2.182.476-2.182.476S1007.049,622.176,1013.075,623.609Z" transform="translate(-1008.095 -619.978)" fill="#17181c"/>
        <path id="Trazado_12240" data-name="Trazado 12240" d="M1015.4,623.594a4.617,4.617,0,0,0-.992-.323c-1.893-.331-3.744-.519-5.319-1.736a1.556,1.556,0,0,1-.684-1.107.68.68,0,0,0-.229.217s-1.13,1.688,4.9,3.121l.847-.05c.289-.044.287.409.326.425a9.192,9.192,0,0,0,2,.636s1.567-.2,1.734-.679l-.054-.708A3.025,3.025,0,0,1,1015.4,623.594Z" transform="translate(-1008.095 -620.134)" fill="#030308"/>
      </g>
      <g id="Grupo_12728" data-name="Grupo 12728" transform="translate(41.364 108.688)">
        <path id="Trazado_12241" data-name="Trazado 12241" d="M1052.358,622.506l.847-.048c.288-.045.286.408.326.424a9.2,9.2,0,0,0,2,.635s1.567-.2,1.734-.678l-.22-2.906c-1.746-.147-3.567-.484-3.567-.484l-3.837-.54c-1.846-.192-2.181.476-2.181.476S1046.333,621.074,1052.358,622.506Z" transform="translate(-1047.379 -618.875)" fill="#17181c"/>
        <path id="Trazado_12242" data-name="Trazado 12242" d="M1054.688,622.49a4.6,4.6,0,0,0-.992-.322c-1.893-.332-3.744-.52-5.32-1.736a1.558,1.558,0,0,1-.684-1.108.687.687,0,0,0-.228.217s-1.131,1.689,4.9,3.121l.847-.048c.288-.045.286.408.326.424a9.21,9.21,0,0,0,2,.635s1.567-.2,1.734-.678l-.053-.707A3.025,3.025,0,0,1,1054.688,622.49Z" transform="translate(-1047.379 -619.031)" fill="#030308"/>
      </g>
      <path id="Trazado_12243" data-name="Trazado 12243" d="M1054.069,604.238c-.628-.75-2.691-28.306-2.691-28.306-.342-4.236,6.7-2.457,6.7-2.457,1.026,4.217.86,5.011,1.182,10.244.127,2.067-.2,19.185-.125,20.5C1059.136,604.22,1055.867,606.386,1054.069,604.238Z" transform="translate(-1007.401 -494.279)" fill="#053b6b"/>
      <path id="Trazado_12244" data-name="Trazado 12244" d="M1045.91,528.981s-4.229,7.2-1.627,11.908,13.568-.416,12.894-5.868C1056.438,529.043,1051.022,526.454,1045.91,528.981Z" transform="translate(-1004.645 -478.609)" fill="#30528a"/>
      <path id="Trazado_12245" data-name="Trazado 12245" d="M1040.7,514.541c-.688,2.445-3.521,11.771-3.521,11.771,7.765,7.323,17.786,1.516,17.887.41.121-1.325-1.358-6.384-1.627-11.841C1053.443,514.881,1050.678,510.622,1040.7,514.541Z" transform="translate(-1002.471 -473.349)" fill="#f6a382"/>
      <path id="Trazado_12246" data-name="Trazado 12246" d="M1037.56,578.337" transform="translate(-1002.603 -496.097)" fill="#151f34"/>
      <path id="Trazado_12247" data-name="Trazado 12247" d="M1028.258,559.513c.824-8.036,6.549-28.536,6.549-28.536s1.673-1.54,6.412-.337,5.263,7.39,5.362,7.011a188.348,188.348,0,0,1-12.852,24.407S1030.185,563.874,1028.258,559.513Z" transform="translate(-999.37 -479.361)" fill="#30528a"/>
      <path id="Trazado_12248" data-name="Trazado 12248" d="M1017.3,603.683c.139-.969,7.285-29.761,7.285-29.761,1.683-3.551,6.514.188,6.514.188a30.612,30.612,0,0,1-1.75,10.657c-.656,1.964-6.732,19.745-7.155,20.993C1022.193,605.761,1018.6,606.9,1017.3,603.683Z" transform="translate(-995.561 -494.031)" fill="#30528a"/>
      <g id="Grupo_12729" data-name="Grupo 12729" transform="translate(49.849 19.45)">
        <path id="Trazado_12249" data-name="Trazado 12249" d="M1067.135,486.012s.768,12.932.278,18.153c0,0,0,2.373-4.179,3.562,0,0-1.52-14.4-2.757-20.826C1060.477,486.9,1062.945,482.134,1067.135,486.012Z" transform="translate(-1060.416 -482.931)" fill="#e69376"/>
        <path id="Trazado_12250" data-name="Trazado 12250" d="M1062.437,488.521a3.382,3.382,0,0,0,4.427-1.763,3.335,3.335,0,0,0-1.781-4.389,3.383,3.383,0,0,0-4.427,1.763A3.336,3.336,0,0,0,1062.437,488.521Z" transform="translate(-1060.384 -482.1)" fill="#e69376"/>
      </g>
      <path id="Trazado_12251" data-name="Trazado 12251" d="M1063.761,481.213a4.431,4.431,0,0,1,3.218,4.249l.495,12.747a11.958,11.958,0,0,1-7,1.681S1055.91,482.867,1063.761,481.213Z" transform="translate(-1010.107 -462.342)" fill="#ffd37c"/>
      <path id="Trazado_12252" data-name="Trazado 12252" d="M1038.394,581.9" transform="translate(-1002.892 -497.336)" fill="#f6a382"/>
      <path id="Trazado_12253" data-name="Trazado 12253" d="M1048.315,468.809s-.027,4.553-.425,9.088l6.005-.995a4.445,4.445,0,0,1,.359-3.923Z" transform="translate(-1006.193 -458.031)" fill="#f6a382"/>
      <path id="Trazado_12254" data-name="Trazado 12254" d="M1055.49,480.85c1.509,1.1,1.682,3.738,1.143,5.383-.619,1.891-.864,4.3-1.483,7.039-.839,3.7-1.407,6.559-2.342,10.239-.774,3.044-13,.59-13,.59l-4.384-14.978s-.754-3.91,2.788-5.21a52.99,52.99,0,0,1,6.463-2.94,11.783,11.783,0,0,1,5.763-.742A28.611,28.611,0,0,1,1055.49,480.85Z" transform="translate(-1001.836 -461.979)" fill="#f6a382"/>
      <path id="Trazado_12255" data-name="Trazado 12255" d="M1038.139,528.381a9.224,9.224,0,0,0,0,8.907c2.6,4.709,10.548,2.992,10.572-3.106C1048.734,528.159,1043.251,525.855,1038.139,528.381Z" transform="translate(-1002.401 -478.383)" fill="#30528a"/>
      <path id="Trazado_12256" data-name="Trazado 12256" d="M1050.435,480.265a28.611,28.611,0,0,1,5.055.619c1.57,1.147,1.542,3.4,1.239,5.1-.579,3.258-1.166,6.551-1.468,9.848-.134,1.461-.5,4.433-.607,5.9a3.124,3.124,0,0,1-2.007,2.95c-1.1.57-1.924.117-3.126.15a60.7,60.7,0,0,1-9.107-.626c-.128-.016-4.857,3.175-3.3.827l-1.692-15.875s-.754-3.91,2.788-5.21a28.517,28.517,0,0,1,5.223-2.485S1048.182,481.582,1050.435,480.265Z" transform="translate(-1001.836 -462.012)" fill="#ffd37c"/>
      <path id="Trazado_12257" data-name="Trazado 12257" d="M1044.965,469.666l-.256-.988-.608-3.646a3.67,3.67,0,0,1,.114-1.5,3.689,3.689,0,0,0,.187-1.539,4.486,4.486,0,0,1,1.114-3.908c1.7-2.236,5.243-1.923,5.244-1.923a5.553,5.553,0,0,1,4.353,2.712,6.832,6.832,0,0,1,.788,5.067,10.262,10.262,0,0,1-2.959,4.628,7.133,7.133,0,0,1-2.938,1.37,11.972,11.972,0,0,1-3.2.471C1046.359,470.41,1045.113,470.234,1044.965,469.666Z" transform="translate(-1004.864 -453.63)" fill="#f79f7d"/>
      <path id="Trazado_12258" data-name="Trazado 12258" d="M1046.09,459.182l.564,2.263a1.1,1.1,0,0,1,.814,1.377l-.2,1.869.51.2c-.042-.748,1-.759,1-.759.759-.044.888.6.845,1.226-.112,1.617.476,4.187,1.832,4.638.536.179,1.546.365,1.715-.361a9.876,9.876,0,0,1,1.887-2.649,7.6,7.6,0,0,0,1.57-7.839,6.161,6.161,0,0,0-1.449-2.141,7.819,7.819,0,0,0-4.514-2.014,6.179,6.179,0,0,0-3.594.628,7.458,7.458,0,0,0-1.671,1.528A1.739,1.739,0,0,0,1046.09,459.182Z" transform="translate(-1005.289 -453.213)" fill="#3f1900"/>
      <g id="Grupo_12734" data-name="Grupo 12734" transform="translate(42.263 10.718)">
        <g id="Grupo_12733" data-name="Grupo 12733">
          <g id="Grupo_12732" data-name="Grupo 12732">
            <g id="Grupo_12731" data-name="Grupo 12731">
              <g id="Grupo_12730" data-name="Grupo 12730">
                <path id="Trazado_12259" data-name="Trazado 12259" d="M1049.149,471.26a.931.931,0,0,0,.59.222,1.369,1.369,0,0,0,1.334-1.324,1.254,1.254,0,0,0-1.1-1.441,1.181,1.181,0,0,0-.857.327,1.7,1.7,0,0,0-.345,1.372A1.283,1.283,0,0,0,1049.149,471.26Z" transform="translate(-1048.757 -468.716)" fill="#f79f7d"/>
              </g>
            </g>
          </g>
        </g>
      </g>
      <g id="Grupo_12737" data-name="Grupo 12737" transform="translate(42.946 11.162)">
        <g id="Grupo_12735" data-name="Grupo 12735" transform="translate(0.209)">
          <path id="Trazado_12260" data-name="Trazado 12260" d="M1050.133,469.648c.065-.4.852.037.715.254a1.227,1.227,0,0,1-.345.3.591.591,0,0,0-.277.422c0,.023-.014.093.009.111.1.079.469-.29.55-.369a.673.673,0,0,0,.139-.635.4.4,0,0,0-.427-.33c-.183,0-.369,0-.373.228,0,0,.006.042.009.022Z" transform="translate(-1050.124 -469.398)" fill="#e98a6f"/>
        </g>
        <g id="Grupo_12736" data-name="Grupo 12736" transform="translate(0 0.639)">
          <path id="Trazado_12261" data-name="Trazado 12261" d="M1050.255,470.421c-.079-.09-.164-.025-.254.032a.384.384,0,0,0-.161.228.946.946,0,0,0,.059.676.508.508,0,0,0,.421.26c.245.008.331-.2.353-.409.007-.055.02-.187-.033-.224s-.1.048-.146.084a.341.341,0,0,1-.212.065.445.445,0,0,1-.354-.185.238.238,0,0,1-.032-.065c-.008.136,0,.166.016.093a.348.348,0,0,1,.052-.093c.063-.09.162-.148.232-.233.033-.04.1-.181.059-.228Z" transform="translate(-1049.804 -470.377)" fill="#e98a6f"/>
        </g>
      </g>
      <g id="Grupo_12738" data-name="Grupo 12738" transform="translate(1.309 27.989)">
        <path id="Trazado_12262" data-name="Trazado 12262" d="M987.157,495.527c.522-.189.443-.543.964-.189.594.4,1.323.494,1.709.791.671.519,2.823,3.007.005,3.226-.656.052-2.941.757-3.408-.284-.692-1.54-.47-1,0-2.909Z" transform="translate(-985.988 -495.187)" fill="#f6a382"/>
      </g>
      <path id="Trazado_12263" data-name="Trazado 12263" d="M1040.891,489.411a3.76,3.76,0,1,1-5.2-1.132A3.761,3.761,0,0,1,1040.891,489.411Z" transform="translate(-1001.354 -464.59)" fill="#f6a382"/>
      <path id="Trazado_12264" data-name="Trazado 12264" d="M1036.925,510.9c-.487,5.128-.8,17.683-.8,17.683,1.82,4.856,19.177.757,19.278-.349.121-1.325-.234-10.656-.5-16.113A20.928,20.928,0,0,0,1036.925,510.9Z" transform="translate(-1002.103 -472.149)" fill="#ffd37c"/>
      <path id="Trazado_12265" data-name="Trazado 12265" d="M1036.814,485.827c-3.53-1.18-6.973,3.359-6.973,3.359l-7.015,6.134s1.778,6.387,5.021,7.312c0,0,8.041-4.212,10.8-9.082C1038.642,493.55,1040.665,490.732,1036.814,485.827Z" transform="translate(-997.482 -463.877)" fill="#ffd37c"/>
      <path id="Trazado_12266" data-name="Trazado 12266" d="M1044.125,458.206c.517.416,1.175.143,1.765.006.805.945-.159,1.889,1.061,2.346a13.522,13.522,0,0,0,2.317.427c.572.092,1.149-.04,1.557.386.443.462.023,1.9.546,2.177.914.482,1.631-2.019,2.8-1.82.994.168,1.17,1.745.822,2.521a1.2,1.2,0,0,1,.26-.177c.474-1.235,1.078-1.257,1.6-2.135a3.569,3.569,0,0,0,.834-2.344c0-.012-.159-.572-.161-.579-.38-1.392-1.03-1.629-1.343-2.219a11.647,11.647,0,0,0-1.26-1.609,16.091,16.091,0,0,0-1.032-1.64,4.836,4.836,0,0,0-2.725-1.154c-1.006-.132-1.963.492-2.96.317-.409-.072-.791-.443-1.2-.42-.5.028-.847.525-1.279.719-.8.361-2.07.215-2.757.781a1.659,1.659,0,0,0-.128,2.3c.262.429.793.677,1.03,1.122C1043.932,457.331,1044.11,458.192,1044.125,458.206Z" transform="translate(-1004.299 -452.289)" fill="#3f1900"/>
      <path id="Trazado_12267" data-name="Trazado 12267" d="M987.424,494.439l-3.377-1.841s-.742.695,2.762,2.574Z" transform="translate(-983.981 -466.299)" fill="#f6a382"/>
    </g>
    <g id="Grupo_12740" data-name="Grupo 12740" transform="translate(829.261 490.001)">
      <path id="Trazado_12268" data-name="Trazado 12268" d="M880.43,603.826l16.9-7.111a8.193,8.193,0,0,1,1.322,1c.79,1.041-.229,2.459,1.1,3.354,1.632,1.1,5.645.859,8.966-.538l.273-.118c3.12-1.392,4.371-3.335,2.785-4.4-1.013-.684-2.76-.641-4.184-.9a9.3,9.3,0,0,1-2.088-.608,7.388,7.388,0,0,1-1.139-.742l16.919-7.119,31.865,21.5-40.847,17.188-13.183-8.9c.052-.025.106-.05.163-.075a16.017,16.017,0,0,1,1.74-.638c1.966-.432,4.625.092,6.324-.622,2.081-.927,1.657-3.029-.9-4.758-2.59-1.748-6.385-2.453-8.475-1.572-1.3.578-1.247,1.489-1.75,2.233a3.858,3.858,0,0,1-1.169,1.118c-.062.038-.3.157-.6.292-.249.111-.54.231-.812.323Z" transform="translate(-880.43 -586.639)" fill="#9daad3"/>
    </g>
    <g id="Grupo_12743" data-name="Grupo 12743" transform="translate(832.482 481.993)" style="isolation: isolate">
      <path id="Trazado_12269" data-name="Trazado 12269" d="M925.436,587.152a1.219,1.219,0,0,0-.615-1.005,2.191,2.191,0,0,0-.208-.123l-.069-.034c-.052-.025-.106-.049-.161-.071l-.039-.018c-.012,0-.025-.007-.036-.012-.088-.033-.178-.065-.27-.091h-.006c-.095-.028-.192-.052-.29-.075-.012,0-.022-.006-.033-.009l-.041-.008c-.117-.025-.236-.048-.358-.068l-.009,0-.03,0c-.125-.02-.252-.038-.38-.055l-.041-.005c-.134-.018-.269-.033-.405-.048l-.024,0-.329-.037c-.129-.015-.258-.03-.386-.047l-.07-.009c-.125-.017-.249-.035-.371-.054l-.189-.032c-.128-.023-.256-.05-.384-.078l-.069-.016c-.093-.021-.187-.042-.279-.066l-.007,0c-.094-.024-.185-.049-.277-.076l-.088-.027c-.063-.018-.126-.038-.188-.059l-.09-.031c-.064-.021-.127-.044-.187-.068l-.071-.027c-.079-.031-.155-.063-.228-.1a6.582,6.582,0,0,1-1.02-.665l.075,8.5a6.538,6.538,0,0,0,1.02.665c.073.034.15.066.228.1a.069.069,0,0,1,.017.007l.054.02c.062.023.125.047.189.069l.088.029.193.061.053.016.027.008c.092.027.185.052.279.076h0c.094.025.19.047.286.068l.027.007.038.008c.129.028.258.055.386.078l.159.028.031,0c.122.02.245.037.369.053l.074.01c.125.016.251.031.378.046h0l.25.028.1.012.41.049.033.005c.129.017.258.035.384.056l.04.006c.121.02.24.044.357.068l.075.017c.1.023.2.047.291.075s.186.059.275.093l.076.029c.055.023.109.048.161.073l.068.033c.072.039.142.078.208.122a1.221,1.221,0,0,1,.616,1.006Z" transform="translate(-896.774 -577.758)" fill="#394572"/>
      <path id="Trazado_12270" data-name="Trazado 12270" d="M901.711,610.676l.087-.02.119-.025.1-.017.083-.014.063,7.124,11.8,7.962-.075-8.5-9.772-6.6q.214.026.431.061l.1.018.162.029.117.023.155.033.109.024c.083.019.168.04.252.061l.07.018c.1.027.209.056.314.087l.061.018c.144.043.288.089.431.137l.021.008c.143.049.285.1.427.157l.035.014c.161.063.322.131.481.2l.023.01c.161.073.319.149.475.23l.016.008c.158.082.313.168.465.258l.008,0c.154.091.3.186.451.285,1.3.879,1.987,1.865,1.995,2.706l-.074-8.5c-.008-.84-.692-1.827-2-2.706q-.219-.148-.45-.284l-.008-.005q-.228-.134-.465-.256l-.017-.009c-.155-.08-.313-.157-.474-.23l-.023-.01c-.159-.072-.319-.139-.481-.2l-.009,0-.025-.009c-.143-.055-.286-.109-.431-.158l-.017-.006c-.145-.05-.29-.1-.435-.138l-.033-.01-.022-.007c-.106-.031-.211-.06-.318-.088l-.065-.016c-.086-.022-.173-.043-.259-.063l-.048-.011-.054-.012-.162-.034-.112-.022-.163-.029-.08-.014-.02,0q-.219-.035-.435-.062l-.034,0-.025,0q-.189-.021-.375-.034l-.031,0-.04,0c-.23-.014-.456-.019-.675-.014h-.04l-.034,0c-.107,0-.212.009-.315.017h-.007l-.018,0c-.108.009-.213.022-.318.036l-.034,0-.024,0-.127.022-.089.016-.129.028-.069.015-.009,0c-.092.021-.181.048-.268.074l-.059.02c-.087.029-.174.06-.255.094-.065.029-.126.06-.185.091l-.05.029c-.021.011-.043.022-.063.034l-.048.032-.063.04c-.032.021-.062.044-.091.067l-.052.039c-.006.006-.012.01-.018.014-.036.029-.068.059-.1.089l-.011.011c-.025.025-.05.049-.073.074l-.02.023-.033.038c-.021.027-.043.054-.063.08l-.028.037-.015.02c-.01.014-.018.029-.027.042s-.035.052-.051.078l-.035.061-.042.078a.267.267,0,0,0-.014.027c-.006.01-.01.02-.014.029-.023.046-.044.091-.065.137l-.014.03-.08.183c-.02.046-.04.093-.061.14l-.024.054c-.025.056-.051.112-.079.167-.015.029-.031.057-.047.086s-.014.028-.022.041c-.024.042-.05.083-.078.125l-.055.078c-.027.037-.055.074-.084.112-.013.016-.025.032-.039.048-.039.049-.08.1-.123.144l-.01.012c-.046.05-.095.1-.145.148l-.045.042c-.037.034-.075.069-.114.1l-.059.048c-.039.032-.081.064-.122.1l-.058.042c-.062.044-.125.087-.192.128l-.021.012-.009.005-.027.014-.015.008-.032.016-.023.011-.034.017-.031.016-.035.016-.04.02-.039.018-.044.021-.062.028-.029.014-.1.043c-.223.1-.484.207-.726.29l-11.811-7.971.074,8.5,11.812,7.97c.242-.082.5-.19.726-.289l.183-.083,0,0,.076-.037.006,0,.054-.025.022-.011.04-.02.025-.012.029-.016.026-.012.021-.011.022-.011.014-.008.013-.008,0,0c.067-.04.13-.084.192-.128l.056-.041c.042-.032.084-.064.125-.1.009-.009.02-.016.03-.023l.027-.025c.039-.034.078-.067.114-.1l.046-.044c.051-.048.1-.1.145-.146v0l.01-.011c.042-.048.083-.095.122-.142l.039-.049c.029-.037.056-.074.083-.11l.022-.03.033-.048c.027-.042.053-.083.078-.125l.025-.046c.014-.025.029-.051.042-.076v0c.029-.055.055-.112.08-.168l.023-.052.061-.14c.027-.062.053-.123.081-.186,0-.009.008-.018.012-.026.021-.048.044-.094.067-.14l.027-.055.044-.08.034-.059c.016-.027.034-.053.052-.08s.026-.042.041-.062l.029-.038c.02-.027.041-.052.063-.079s.022-.026.033-.039c.029-.033.059-.065.092-.1l.012-.012c.036-.035.076-.069.117-.1.016-.014.034-.026.051-.039s.061-.046.093-.067l.062-.04q.053-.033.112-.067l.05-.028c.058-.031.119-.061.185-.091.082-.035.167-.065.254-.094l.059-.02C901.529,610.723,901.619,610.7,901.711,610.676Z" transform="translate(-885.367 -582.558)" fill="#424887"/>
      <g id="Grupo_12741" data-name="Grupo 12741" transform="translate(28.517 19.242)">
        <path id="Trazado_12271" data-name="Trazado 12271" d="M965.63,603.857l.075,8.5-36.556,15.382-.075-8.5Z" transform="translate(-929.074 -603.857)" fill="#5760aa"/>
      </g>
      <g id="Grupo_12742" data-name="Grupo 12742">
        <path id="Trazado_12272" data-name="Trazado 12272" d="M885.367,589.746l15.122-6.364a7.315,7.315,0,0,1,1.183.9c.707.93-.2,2.2.981,3,1.46.985,5.052.769,8.023-.482l.245-.105c2.792-1.246,3.911-2.984,2.492-3.941-.908-.613-2.471-.574-3.745-.808a8.392,8.392,0,0,1-1.868-.545,6.59,6.59,0,0,1-1.02-.665l15.141-6.371,28.518,19.242L913.884,608.99l-11.8-7.962c.046-.022.1-.045.146-.067a14.339,14.339,0,0,1,1.557-.572c1.759-.386,4.139.083,5.659-.556,1.862-.83,1.482-2.712-.81-4.258-2.318-1.564-5.713-2.194-7.585-1.407-1.161.517-1.116,1.332-1.566,2a3.44,3.44,0,0,1-1.047,1c-.055.034-.268.142-.537.261-.223.1-.484.208-.726.29Z" transform="translate(-885.367 -574.365)" fill="#6174b7"/>
      </g>
    </g>
    <g id="Grupo_12746" data-name="Grupo 12746" transform="translate(733.203 462.559)">
      <path id="Trazado_12273" data-name="Trazado 12273" d="M796.408,588.159c-1.014-.684-2.762-.641-4.184-.9a9.287,9.287,0,0,1-2.088-.609A7.312,7.312,0,0,1,789,585.9l16.918-7.119-13.182-8.895c.053-.026.11-.052.17-.079a15.814,15.814,0,0,1,1.734-.635c1.965-.431,4.625.093,6.392-.652,2.013-.9,1.588-3-.974-4.728-2.59-1.748-6.384-2.452-8.538-1.544-1.234.55-1.184,1.46-1.687,2.205a3.835,3.835,0,0,1-1.17,1.118c-.062.038-.3.158-.6.292-.249.111-.54.23-.812.323l-13.2-8.907L733.2,574.472l31.864,21.5,16.9-7.11a8.247,8.247,0,0,1,1.32,1c.79,1.04-.229,2.459,1.1,3.353,1.632,1.1,5.645.859,8.966-.537.093-.038.185-.08.275-.119C796.743,591.17,797.993,589.229,796.408,588.159Z" transform="translate(-733.203 -548.995)" fill="#9daad3"/>
      <g id="Grupo_12745" data-name="Grupo 12745" transform="translate(4.99)" style="isolation: isolate">
        <g id="Grupo_12744" data-name="Grupo 12744" transform="translate(53.275 8.552)">
          <path id="Trazado_12274" data-name="Trazado 12274" d="M832.465,557.686c0,.02,0,.041,0,.062s0,.044,0,.066,0,.036-.006.053,0,.043-.008.064-.007.041-.012.061-.006.031-.009.047-.011.042-.018.063-.008.03-.013.044a.255.255,0,0,1-.009.027,1.541,1.541,0,0,1-.072.17v0a1.541,1.541,0,0,1-.094.155l-.017.025a1.467,1.467,0,0,1-.115.143l-.035.039-.041.041c-.015.015-.031.03-.048.045l-.045.04-.043.035c-.026.021-.054.042-.082.063l-.045.031c-.03.021-.062.041-.094.061l-.042.027c-.028.016-.057.032-.087.047l-.048.027c-.047.023-.1.047-.146.069a3.947,3.947,0,0,1-.6.194q-.252.061-.517.1t-.517.057c-.245.02-.5.031-.75.038-.555.016-1.124.011-1.676.027-.249.007-.5.018-.735.038l.074,8.5c.24-.02.486-.031.735-.038.553-.016,1.122-.011,1.677-.027.254-.007.5-.018.749-.038.175-.014.349-.034.517-.058s.35-.058.517-.1a3.758,3.758,0,0,0,.6-.194c.05-.021.1-.045.146-.07l.04-.022c.032-.017.065-.035.1-.053l.009,0,.028-.018c.033-.021.067-.042.1-.064l.044-.031c.028-.02.055-.041.082-.063l.025-.019.019-.016.045-.04c.016-.015.033-.029.048-.045l.04-.04.025-.025.01-.013a1.5,1.5,0,0,0,.116-.144l.007-.009.009-.015a1.48,1.48,0,0,0,.094-.157h0v0a1.514,1.514,0,0,0,.072-.172l.005-.014,0-.01c.005-.017.01-.034.015-.051s.01-.037.015-.056.007-.034.011-.051.007-.028.009-.042l0-.016c0-.022.006-.045.008-.068s0-.032.005-.048,0-.05,0-.076,0-.025,0-.037v-.016Z" transform="translate(-823.905 -557.686)" fill="#7c284b"/>
          <path id="Trazado_12275" data-name="Trazado 12275" d="M824.209,560.822l-.009,0a14.123,14.123,0,0,0-1.543.566c-.053.024-.1.047-.152.07l.075,8.5c.048-.023.1-.047.152-.07a14.538,14.538,0,0,1,1.542-.567l.009,0c.133-.029.271-.054.411-.074.167-.024.339-.042.513-.056l-.074-8.5c-.176.014-.346.033-.514.057C824.479,560.769,824.342,560.793,824.209,560.822Z" transform="translate(-822.505 -558.73)" fill="#7c284b"/>
        </g>
        <path id="Trazado_12276" data-name="Trazado 12276" d="M821.189,582.575l-.074-8.5-15.141,6.371.062,7.076a6.7,6.7,0,0,1-4.191-.53,1.518,1.518,0,0,1-.668-1.383q0-.21,0-.421a1.883,1.883,0,0,0-.309-1.2,7.351,7.351,0,0,0-1.18-.9l-15.124,6.364.074,8.5,15.124-6.364a7.226,7.226,0,0,1,1.181.9,1.749,1.749,0,0,1,.307,1.067l0,.421a1.6,1.6,0,0,0,.67,1.514c1.461.985,5.053.769,8.024-.481l.247-.107c1.977-.881,3.114-2.011,3.106-2.935q-.026-3.025-.053-6.051Z" transform="translate(-756.042 -554.83)" fill="#a0426e"/>
        <path id="Trazado_12277" data-name="Trazado 12277" d="M829.929,560l.075,8.5c-1.582.667-3.962.2-5.721.584a14.218,14.218,0,0,0-1.551.569c-.054.024-.1.048-.152.07l-.075-8.5c.048-.023.1-.046.152-.07a14.087,14.087,0,0,1,1.552-.569C825.968,560.195,828.347,560.664,829.929,560Z" transform="translate(-769.23 -549.938)" fill="#7c284b"/>
        <path id="Trazado_12278" data-name="Trazado 12278" d="M769.368,587.4l-28.517-19.243.075,8.5L769.443,595.9Z" transform="translate(-740.851 -552.773)" fill="#7c284b"/>
        <path id="Trazado_12279" data-name="Trazado 12279" d="M797.416,572.212c-.906-.613-2.472-.573-3.744-.808a8.331,8.331,0,0,1-1.869-.545,6.558,6.558,0,0,1-1.02-.665l15.141-6.371-11.8-7.961c.048-.024.1-.046.152-.07a14.1,14.1,0,0,1,1.552-.569c1.759-.386,4.138.083,5.721-.583,1.8-.8,1.422-2.685-.872-4.231-2.318-1.565-5.714-2.194-7.641-1.382-1.1.492-1.06,1.306-1.51,1.974a3.441,3.441,0,0,1-1.046,1c-.056.034-.268.141-.537.261-.222.1-.483.207-.727.289l-11.811-7.971-36.555,15.383L769.368,579.2l15.124-6.364a7.343,7.343,0,0,1,1.18.9c.707.93-.2,2.2.981,3,1.46.985,5.052.769,8.024-.481.083-.035.166-.071.247-.106C797.717,574.906,798.834,573.168,797.416,572.212Z" transform="translate(-740.851 -544.579)" fill="#cb4e7e"/>
      </g>
    </g>
    <g id="Grupo_12779" data-name="Grupo 12779" transform="translate(781.476 414.437)">
      <path id="Trazado_12280" data-name="Trazado 12280" d="M807.191,628.06c0,4.476,8.155,8.1,18.215,8.1s18.214-3.628,18.214-8.1-8.155-8.1-18.214-8.1S807.191,623.584,807.191,628.06Z" transform="translate(-807.191 -522.654)" fill="#9daad3"/>
      <g id="Grupo_12778" data-name="Grupo 12778" transform="translate(0.734 0)">
        <g id="Grupo_12748" data-name="Grupo 12748" transform="translate(18.033 103.454)">
          <g id="Grupo_12747" data-name="Grupo 12747" transform="translate(0.503)">
            <path id="Trazado_12281" data-name="Trazado 12281" d="M844.9,631.091s1.933-.354,1.388,1.223c0,0-4.51,1.937-7.661,1.5a1.973,1.973,0,0,1-1.867-2.477l-.037-1.952,2.971.562-.169,1.856Z" transform="translate(-836.726 -629.385)" fill="#e69376"/>
          </g>
          <path id="Trazado_12282" data-name="Trazado 12282" d="M836.5,632.13a1.246,1.246,0,0,0,.3.837c.777.9,2.306.924,3.381.855a36.487,36.487,0,0,0,5.146-.72c.368-.078.47-.2.474-.307a1.5,1.5,0,0,0-1.158-.913l1.645-.211a4.148,4.148,0,0,1,2.561.523c.42,1.2-1.625,2-1.625,2a33.316,33.316,0,0,1-4.79,1.337s-5.774,1.362-6.471-.414Z" transform="translate(-835.955 -630.178)" fill="#4f1531"/>
        </g>
        <g id="Grupo_12750" data-name="Grupo 12750" transform="translate(6.563 100.771)">
          <g id="Grupo_12749" data-name="Grupo 12749" transform="translate(0.503)">
            <path id="Trazado_12283" data-name="Trazado 12283" d="M827.323,626.977s1.932-.354,1.388,1.223c0,0-4.511,1.937-7.661,1.5a1.973,1.973,0,0,1-1.867-2.477l-.036-1.952,2.97.562-.169,1.856Z" transform="translate(-819.146 -625.272)" fill="#e69376"/>
          </g>
          <path id="Trazado_12284" data-name="Trazado 12284" d="M818.915,628.017a1.25,1.25,0,0,0,.3.837c.778.9,2.306.924,3.382.855a36.581,36.581,0,0,0,5.145-.72c.369-.078.47-.2.474-.307a1.5,1.5,0,0,0-1.157-.913l1.644-.211a4.149,4.149,0,0,1,2.562.523c.42,1.2-1.625,2-1.625,2a33.252,33.252,0,0,1-4.789,1.338s-5.774,1.362-6.472-.414Z" transform="translate(-818.375 -626.065)" fill="#4f1531"/>
        </g>
        <g id="Grupo_12754" data-name="Grupo 12754" transform="translate(4.751 39.212)">
          <g id="Grupo_12751" data-name="Grupo 12751" transform="translate(0 5.612)">
            <path id="Trazado_12285" data-name="Trazado 12285" d="M826.625,545.037a5.514,5.514,0,1,1-5.513-5.514A5.514,5.514,0,0,1,826.625,545.037Z" transform="translate(-815.598 -539.523)" fill="#00468a"/>
            <path id="Trazado_12286" data-name="Trazado 12286" d="M817.642,574.113s.076,1.386,2.566,1.42c0,0,2.357.8,3.374-2.265a70.131,70.131,0,0,0,2.951-24.7s-5.662-3.154-10.936-1C815.6,547.572,816.451,563.437,817.642,574.113Z" transform="translate(-815.598 -542.058)" fill="#00468a"/>
          </g>
          <path id="Trazado_12287" data-name="Trazado 12287" d="M823.879,587.358s-1.942,26.123-2.123,27.056a3.24,3.24,0,0,1-3.57-.033c.009-1.281-1.387-11.963-1.532-13.97-.247-3.448-.662-7.8,1.517-12.758Z" transform="translate(-815.895 -550.536)" fill="#00468a"/>
          <g id="Grupo_12752" data-name="Grupo 12752" transform="translate(6.691 5.611)">
            <path id="Trazado_12288" data-name="Trazado 12288" d="M837.352,574.571s.531,1.283,2.892.489c0,0,2.49-.022,2.434-3.254-.221-12.733-5.8-25.928-5.8-25.928s-6.284-.6-10.546,3.182C826.333,549.059,832.692,564.892,837.352,574.571Z" transform="translate(-826.02 -541.718)" fill="#0058a8"/>
            <path id="Trazado_12289" data-name="Trazado 12289" d="M836.57,543.209a5.513,5.513,0,1,1-7.028-3.375A5.514,5.514,0,0,1,836.57,543.209Z" transform="translate(-825.854 -539.522)" fill="#0058a8"/>
          </g>
          <path id="Trazado_12290" data-name="Trazado 12290" d="M815.6,541.245c.667-6.131,3.742-8.976,3.742-8.976L830,530.922a27.261,27.261,0,0,1,3.246,10.323c-1.274,3.475-5.815,4.488-5.815,4.488l-3.448,1.023S816.168,545.569,815.6,541.245Z" transform="translate(-815.598 -530.922)" fill="#0058a8"/>
          <g id="Grupo_12753" data-name="Grupo 12753" transform="translate(13.587 35.541)">
            <path id="Trazado_12291" data-name="Trazado 12291" d="M845.693,588.088s-5.287,27.441-5.6,28.337c.14-.066-2.5,1.213-3.666-.439.2-1.265.311-15.2.465-17.21.265-3.447.228-6.664,3.117-11.24C840,587.536,847.221,582.37,845.693,588.088Z" transform="translate(-836.422 -585.395)" fill="#0058a8"/>
          </g>
        </g>
        <path id="Trazado_12292" data-name="Trazado 12292" d="M836.3,619.539" transform="translate(-818.043 -522.509)" fill="#340e07"/>
        <g id="Grupo_12757" data-name="Grupo 12757" transform="translate(0 14.674)">
          <g id="Grupo_12755" data-name="Grupo 12755" transform="translate(0.375 14.723)">
            <path id="Trazado_12293" data-name="Trazado 12293" d="M812.479,515.879s1.941,2.287,5.8,7.806l-.667,1.132s-6.614-3.332-8.724-7.071Z" transform="translate(-808.89 -515.879)" fill="#e69376"/>
          </g>
          <g id="Grupo_12756" data-name="Grupo 12756">
            <path id="Trazado_12294" data-name="Trazado 12294" d="M817.745,499.857s-4.978,10.863-7.968,10.45c0,0-1.032.065-1.238-.713,0,0-2.112-1.873,6.669-15.381a2.707,2.707,0,0,1,2.615-.852S820.489,495.124,817.745,499.857Z" transform="translate(-808.315 -493.313)" fill="#e69376"/>
          </g>
        </g>
        <g id="Grupo_12758" data-name="Grupo 12758" transform="translate(12.099 12.714)">
          <rect id="Rectángulo_3015" data-name="Rectángulo 3015" width="5.382" height="5.72" fill="#f3b68e"/>
        </g>
        <g id="Grupo_12759" data-name="Grupo 12759" transform="translate(9.202 0.795)">
          <path id="Trazado_12295" data-name="Trazado 12295" d="M834.027,484.09l.2-.914.4-3.35a3.055,3.055,0,0,0-.2-1.36,3.081,3.081,0,0,1-.274-1.392,3.925,3.925,0,0,0-1.341-3.5c-1.837-1.949-5.375-1.482-5.376-1.482a5.6,5.6,0,0,0-4.22,2.693,5.705,5.705,0,0,0-.5,4.654,9.456,9.456,0,0,0,3.234,4.063,7.634,7.634,0,0,0,3.031,1.1,13.228,13.228,0,0,0,3.237.264C832.669,484.839,833.911,484.615,834.027,484.09Z" transform="translate(-822.419 -472.041)" fill="#f6a382"/>
        </g>
        <g id="Grupo_12760" data-name="Grupo 12760" transform="translate(18.359 9.744)">
          <path id="Trazado_12296" data-name="Trazado 12296" d="M836.454,485.757" transform="translate(-836.454 -485.757)" fill="#340e07"/>
        </g>
        <g id="Grupo_12761" data-name="Grupo 12761" transform="translate(8.629)">
          <path id="Trazado_12297" data-name="Trazado 12297" d="M831.271,480.566c-.266-.377-1.232-.609-1.233-.609-1.168,0-1.016,1.559-1.126,2.235-.036.219-.078.446-.128.67-.557,1.983-2.223,1.966-3.647,2.206-.053-.031-.109-.063-.167-.095a5.692,5.692,0,0,0-1.078-1.792,7.645,7.645,0,0,1-2.023-7.786,6.21,6.21,0,0,1,1.335-2.233,7.867,7.867,0,0,1,4.42-2.279c1.656-.311,7.579.492,5.963,4.09,0,0-2.437,2.811-2.317,5.593" transform="translate(-821.54 -470.822)" fill="#340e07"/>
        </g>
        <g id="Grupo_12769" data-name="Grupo 12769" transform="translate(16.262 8.823)">
          <g id="Grupo_12765" data-name="Grupo 12765">
            <g id="Grupo_12762" data-name="Grupo 12762" transform="translate(0.129 0.109)">
              <path id="Trazado_12298" data-name="Trazado 12298" d="M835.406,485.324a1.12,1.12,0,0,0-1.319-.771.881.881,0,0,0-.644.951c.008.1.03.19.039.287a2.025,2.025,0,0,0,1.251,1.417" transform="translate(-833.439 -484.512)" fill="#f7b68d"/>
            </g>
            <g id="Grupo_12763" data-name="Grupo 12763" transform="translate(0.687 0.563)">
              <path id="Trazado_12299" data-name="Trazado 12299" d="M834.494,485.28a.594.594,0,0,1,.26-.071c.393-.025.709.581.316.688a.224.224,0,0,0,.005.311c.135.146.316.357.276.564-.025.122-.161.189-.284.219-.1.025-.118-.053-.04-.089a.436.436,0,0,0,.149-.123l.012-.021a.05.05,0,0,0,.009-.016.127.127,0,0,0,0-.089.242.242,0,0,1-.3,0c-.074-.089-.018-.23-.043-.332a.753.753,0,0,0-.091-.2.21.21,0,0,1,.145-.35,1.056,1.056,0,0,1,.119.008c.164-.085-.019-.332-.119-.371a.316.316,0,0,0-.343.059.487.487,0,0,0-.109.347,1.134,1.134,0,0,0,.106.414c.036.074.081.161.117.236s-.057.121-.1.037a2.465,2.465,0,0,1-.281-.684A.519.519,0,0,1,834.494,485.28Z" transform="translate(-834.294 -485.208)" fill="#dc9d7e"/>
            </g>
            <g id="Grupo_12764" data-name="Grupo 12764">
              <path id="Trazado_12300" data-name="Trazado 12300" d="M835.337,485.266s-.046-.067-.123-.189a1.629,1.629,0,0,0-.163-.188,1.278,1.278,0,0,0-.248-.192,1.006,1.006,0,0,0-.336-.121.852.852,0,0,0-.382.026,1.035,1.035,0,0,0-.194.082.9.9,0,0,0-.155.119.74.74,0,0,0-.2.348,1.055,1.055,0,0,0-.006.433l.015.117v.017c0-.007,0,.018,0-.014v.011l.005.029.012.058a1.3,1.3,0,0,0,.056.207,1.692,1.692,0,0,0,.182.363,2.21,2.21,0,0,0,.236.292,2.653,2.653,0,0,0,.443.368c.117.078.19.117.19.117a1.355,1.355,0,0,1-.215-.07,2.249,2.249,0,0,1-.523-.3,1.808,1.808,0,0,1-.293-.287,1.542,1.542,0,0,1-.243-.4,1.5,1.5,0,0,1-.078-.235l-.015-.057-.007-.029,0-.007,0-.024,0-.015-.018-.118a1.284,1.284,0,0,1,.006-.527,1.012,1.012,0,0,1,.288-.47c.035-.029.068-.06.106-.086l.123-.07a1.19,1.19,0,0,1,.237-.084.98.98,0,0,1,.485.008,1.058,1.058,0,0,1,.38.19,1.086,1.086,0,0,1,.237.256,1.611,1.611,0,0,1,.133.228C835.312,485.187,835.337,485.266,835.337,485.266Z" transform="translate(-833.24 -484.345)" fill="#dc9d7e"/>
            </g>
          </g>
          <g id="Grupo_12768" data-name="Grupo 12768" transform="translate(1.424 2.228)">
            <g id="Grupo_12766" data-name="Grupo 12766">
              <path id="Trazado_12301" data-name="Trazado 12301" d="M835.423,488.086a.326.326,0,1,0,.326-.326A.327.327,0,0,0,835.423,488.086Z" transform="translate(-835.423 -487.76)" fill="#fff"/>
            </g>
            <g id="Grupo_12767" data-name="Grupo 12767">
              <path id="Trazado_12302" data-name="Trazado 12302" d="M835.671,488.26a.258.258,0,0,0,.258-.258.254.254,0,0,0-.18-.241h0a.326.326,0,1,1-.326.326c0-.008,0-.016,0-.023A.254.254,0,0,0,835.671,488.26Z" transform="translate(-835.423 -487.76)" fill="#e6e7e8"/>
            </g>
          </g>
        </g>
        <g id="Grupo_12770" data-name="Grupo 12770" transform="translate(3.397 14.683)">
          <path id="Trazado_12303" data-name="Trazado 12303" d="M813.582,521.759l5.941-8.525a11.4,11.4,0,0,0-.348-3.746l-1.9-13.063c.225-1.5.328-3.4,2.355-3.058a12.572,12.572,0,0,1,2.593.723c-.258,1.213,1.835,1.993,1.835,1.993,2.881,1.244,3.546.424,3.546.424a43,43,0,0,1,4.031,2.263,2.968,2.968,0,0,1,.9,2.978l-2.073,12.382.365,3.076,3.787,9.6a8.139,8.139,0,0,0-3.69-.441c-1.178.141-2.192.835-3.361.965a6.5,6.5,0,0,1-4.413-1.289,21.3,21.3,0,0,1-5.107-1.795h-.111c-1.322.007-2.819-.016-3.794-1.05C813.937,522.978,813.332,522.118,813.582,521.759Z" transform="translate(-813.523 -493.327)" fill="#4f1531"/>
        </g>
        <g id="Grupo_12771" data-name="Grupo 12771" transform="translate(17.977 20.104)">
          <path id="Trazado_12304" data-name="Trazado 12304" d="M841.852,521.477l-.035-15.04c-.366-4.122-2.413-4.78-2.413-4.78-4.136-.484-3.5,7.182-3.5,7.182l1.728,12.958" transform="translate(-835.869 -501.635)" fill="#f6a382"/>
        </g>
        <g id="Grupo_12772" data-name="Grupo 12772" transform="translate(25.549 15.721)">
          <path id="Trazado_12305" data-name="Trazado 12305" d="M855.715,513.139l-8.241-3.554,6.485-14.668,8.847,3.552Z" transform="translate(-847.474 -494.917)" fill="#c6e9fa"/>
        </g>
        <g id="Grupo_12773" data-name="Grupo 12773" transform="translate(32.862 28.065)">
          <path id="Trazado_12306" data-name="Trazado 12306" d="M862.449,513.837a4.064,4.064,0,0,1-1,1.3c-.5.4-1.334.276-1.656.564-.56.5-2.3,2.846.209,2.853.583,0,2.591.007,2.935-.945a3.249,3.249,0,0,0-.106-3.17Z" transform="translate(-858.682 -513.837)" fill="#f6a382"/>
        </g>
        <g id="Grupo_12776" data-name="Grupo 12776" transform="translate(19.478 30.773)">
          <g id="Grupo_12774" data-name="Grupo 12774" transform="translate(0 8.117)">
            <path id="Trazado_12307" data-name="Trazado 12307" d="M838.169,530.428" transform="translate(-838.169 -530.428)" fill="#f7b68d"/>
          </g>
          <g id="Grupo_12775" data-name="Grupo 12775" transform="translate(0.082)">
            <path id="Trazado_12308" data-name="Trazado 12308" d="M839.994,524.428l13.2-6.441c1.587.442,1.355,1.154,1.355,1.154l-8.1,6.483c-3.389,2.817-5.824,3.161-5.824,3.161s-2.128.774-2.323-2.274A2.3,2.3,0,0,1,839.994,524.428Z" transform="translate(-838.294 -517.987)" fill="#f6a382"/>
          </g>
        </g>
        <g id="Grupo_12777" data-name="Grupo 12777" transform="translate(4.217 0.182)">
          <path id="Trazado_12309" data-name="Trazado 12309" d="M830.065,479.742c-.334,2.494.042,5.8-1.2,8.522-.554,1.214-1.164,1.816-.833,3.224.271,1.152.816,2.24,1.112,3.433.652,2.634-.235,5.207-3.3,4.253a3.2,3.2,0,0,0-2.976.07,3.892,3.892,0,0,1-3.3.014c-1.735-.846-1.213-2.122-2.185-3.4-.741-.975-1.788-.951-2.346-2.261-.673-1.581.129-2.425.95-3.767a4.935,4.935,0,0,0,.71-4,5.8,5.8,0,0,1,.582-3.433c.481-1.334.271-2.5.5-3.834.451-2.644,1.9-6.234,4.666-7.01a7.774,7.774,0,0,1,4.42-.2c1.779.653,3.761,1.349,3.684,3.536A36.063,36.063,0,0,1,830.065,479.742Z" transform="translate(-814.779 -471.1)" fill="#340e07"/>
        </g>
        <path id="Trazado_12310" data-name="Trazado 12310" d="M860.013,515.76s.653.9,1.2-.318l-.057-1.616a.507.507,0,0,0-.337-.556s-.267,0-.328.461Z" transform="translate(-826.283 -485.575)" fill="#f6a382"/>
      </g>
    </g>
  </g>
</svg>
