<?xml version="1.0" encoding="utf-8"?>
<!-- Generator: Adobe Illustrator 24.3.0, SVG Export Plug-In . SVG Version: 6.00 Build 0)  -->
<svg version="1.1" id="Layer_1" xmlns="http://www.w3.org/2000/svg" xmlns:xlink="http://www.w3.org/1999/xlink" x="0px" y="0px"
	 viewBox="0 0 2398.5 1847.5" style="enable-background:new 0 0 2398.5 1847.5;" xml:space="preserve">
<style type="text/css">
	.st0{opacity:7.000000e-02;}
	.st1{fill:#FFFFFF;}
</style>
<g class="st0">
	<g id="XMLID_3_">
		<path id="XMLID_6_" class="st1" d="M962.8,933.9c-11,0-16.7-6.2-21.4-11.3c-4.4-4.7-7.8-8.4-14.9-8.4s-10.6,3.8-14.9,8.4
			c-4.7,5-10.4,11.3-21.4,11.3c-11,0-16.7-6.2-21.4-11.3c-4.4-4.7-7.8-8.4-14.9-8.4s-10.6,3.8-14.9,8.4c-4.7,5-10.4,11.3-21.4,11.3
			c-11,0-16.7-6.2-21.4-11.3c-4.4-4.7-7.8-8.4-14.9-8.4s-10.6,3.8-14.9,8.4c-4.7,5-10.4,11.3-21.4,11.3c-11,0-16.7-6.2-21.4-11.3
			c-4.4-4.7-7.8-8.4-15-8.4c-7.1,0-10.6,3.8-14.9,8.4c-4.7,5-10.4,11.3-21.4,11.3c-11,0-16.7-6.2-21.4-11.3c-4.4-4.7-7.8-8.4-15-8.4
			c-7.1,0-10.6,3.8-15,8.4c-4.7,5-10.4,11.3-21.4,11.3c-2.5,0-4.4-1.9-4.4-4.4s1.9-4.4,4.4-4.4c7.1,0,10.6-3.8,15-8.4
			c4.7-5,10.4-11.3,21.4-11.3c11,0,16.7,6.2,21.4,11.3c4.4,4.7,7.8,8.4,15,8.4c7.1,0,10.6-3.8,14.9-8.4c4.7-5,10.4-11.3,21.4-11.3
			c11,0,16.7,6.2,21.4,11.3c4.4,4.7,7.8,8.4,15,8.4c7.1,0,10.6-3.8,14.9-8.4c4.7-5,10.4-11.3,21.4-11.3c11,0,16.7,6.2,21.4,11.3
			c4.4,4.7,7.8,8.4,14.9,8.4c7.1,0,10.6-3.8,14.9-8.4c4.7-5,10.4-11.3,21.4-11.3s16.7,6.2,21.4,11.3c4.4,4.7,7.8,8.4,14.9,8.4
			c7.1,0,10.6-3.8,14.9-8.4c4.7-5,10.4-11.3,21.4-11.3c11,0,16.7,6.2,21.4,11.3c4.4,4.7,7.8,8.4,14.9,8.4c2.5,0,4.4,1.9,4.4,4.4
			S965.3,933.9,962.8,933.9z"/>
	</g>
	<g id="XMLID_17_">
		<path id="XMLID_18_" class="st1" d="M1897,594.3c-11,0-16.7-6.2-21.4-11.3c-4.4-4.7-7.8-8.4-14.9-8.4s-10.6,3.8-14.9,8.4
			c-4.7,5-10.4,11.3-21.4,11.3s-16.7-6.2-21.4-11.3c-4.4-4.7-7.8-8.4-14.9-8.4s-10.6,3.8-14.9,8.4c-4.7,5-10.4,11.3-21.4,11.3
			c-11,0-16.7-6.2-21.4-11.3c-4.4-4.7-7.8-8.4-14.9-8.4s-10.6,3.8-14.9,8.4c-4.7,5-10.4,11.3-21.4,11.3s-16.7-6.2-21.4-11.3
			c-4.4-4.7-7.8-8.4-15-8.4c-7.1,0-10.6,3.8-14.9,8.4c-4.7,5-10.4,11.3-21.4,11.3s-16.7-6.2-21.4-11.3c-4.4-4.7-7.8-8.4-15-8.4
			c-7.1,0-10.6,3.8-15,8.4c-4.7,5-10.4,11.3-21.4,11.3c-2.5,0-4.4-1.9-4.4-4.4c0-2.5,1.9-4.4,4.4-4.4c7.1,0,10.6-3.8,15-8.4
			c4.7-5,10.4-11.3,21.4-11.3c11,0,16.7,6.2,21.4,11.3c4.4,4.7,7.8,8.4,15,8.4c7.1,0,10.6-3.8,14.9-8.4c4.7-5,10.4-11.3,21.4-11.3
			c11,0,16.7,6.2,21.4,11.3c4.4,4.7,7.8,8.4,15,8.4c7.1,0,10.6-3.8,14.9-8.4c4.7-5,10.4-11.3,21.4-11.3s16.7,6.2,21.4,11.3
			c4.4,4.7,7.8,8.4,14.9,8.4c7.1,0,10.6-3.8,14.9-8.4c4.7-5,10.4-11.3,21.4-11.3s16.7,6.2,21.4,11.3c4.4,4.7,7.8,8.4,14.9,8.4
			s10.6-3.8,14.9-8.4c4.7-5,10.4-11.3,21.4-11.3c11,0,16.7,6.2,21.4,11.3c4.4,4.7,7.8,8.4,14.9,8.4c2.5,0,4.4,1.9,4.4,4.4
			C1901.4,592.4,1899.5,594.3,1897,594.3z"/>
	</g>
	<g id="XMLID_21_">
		<path id="XMLID_22_" class="st1" d="M1167.1,594.3c-11,0-16.7-6.2-21.4-11.3c-4.4-4.7-7.8-8.4-14.9-8.4c-7.1,0-10.6,3.8-14.9,8.4
			c-4.7,5-10.4,11.3-21.4,11.3s-16.7-6.2-21.4-11.3c-4.4-4.7-7.8-8.4-14.9-8.4s-10.6,3.8-14.9,8.4c-4.7,5-10.4,11.3-21.4,11.3
			s-16.7-6.2-21.4-11.3c-4.4-4.7-7.8-8.4-14.9-8.4c-7.1,0-10.6,3.8-14.9,8.4c-4.7,5-10.4,11.3-21.4,11.3c-11,0-16.7-6.2-21.4-11.3
			c-4.4-4.7-7.8-8.4-15-8.4c-7.1,0-10.6,3.8-14.9,8.4c-4.7,5-10.4,11.3-21.4,11.3c-11,0-16.7-6.2-21.4-11.3c-4.4-4.7-7.8-8.4-15-8.4
			c-7.1,0-10.6,3.8-15,8.4c-4.7,5-10.4,11.3-21.4,11.3c-2.5,0-4.4-1.9-4.4-4.4c0-2.5,1.9-4.4,4.4-4.4c7.1,0,10.6-3.8,15-8.4
			c4.7-5,10.4-11.3,21.4-11.3c11,0,16.7,6.2,21.4,11.3c4.4,4.7,7.8,8.4,15,8.4c7.1,0,10.6-3.8,14.9-8.4c4.7-5,10.4-11.3,21.4-11.3
			c11,0,16.7,6.2,21.4,11.3c4.4,4.7,7.8,8.4,15,8.4c7.1,0,10.6-3.8,14.9-8.4c4.7-5,10.4-11.3,21.4-11.3c11,0,16.7,6.2,21.4,11.3
			c4.4,4.7,7.8,8.4,14.9,8.4c7.1,0,10.6-3.8,14.9-8.4c4.7-5,10.4-11.3,21.4-11.3s16.7,6.2,21.4,11.3c4.4,4.7,7.8,8.4,14.9,8.4
			s10.6-3.8,14.9-8.4c4.7-5,10.4-11.3,21.4-11.3c11,0,16.7,6.2,21.4,11.3c4.4,4.7,7.8,8.4,14.9,8.4c2.5,0,4.4,1.9,4.4,4.4
			C1171.5,592.4,1169.6,594.3,1167.1,594.3z"/>
	</g>
	<g id="XMLID_7_">
		<path id="XMLID_8_" class="st1" d="M1806.5,933.9c-11,0-16.7-6.2-21.4-11.3c-4.4-4.7-7.8-8.4-14.9-8.4s-10.6,3.8-14.9,8.4
			c-4.7,5-10.4,11.3-21.4,11.3s-16.7-6.2-21.4-11.3c-4.4-4.7-7.8-8.4-14.9-8.4s-10.6,3.8-14.9,8.4c-4.7,5-10.4,11.3-21.4,11.3
			c-11,0-16.7-6.2-21.4-11.3c-4.4-4.7-7.8-8.4-14.9-8.4s-10.6,3.8-14.9,8.4c-4.7,5-10.4,11.3-21.4,11.3s-16.7-6.2-21.4-11.3
			c-4.4-4.7-7.8-8.4-15-8.4c-7.1,0-10.6,3.8-14.9,8.4c-4.7,5-10.4,11.3-21.4,11.3s-16.7-6.2-21.4-11.3c-4.4-4.7-7.8-8.4-15-8.4
			c-7.1,0-10.6,3.8-15,8.4c-4.7,5-10.4,11.3-21.4,11.3c-2.5,0-4.4-1.9-4.4-4.4s1.9-4.4,4.4-4.4c7.1,0,10.6-3.8,15-8.4
			c4.7-5,10.4-11.3,21.4-11.3c11,0,16.7,6.2,21.4,11.3c4.4,4.7,7.8,8.4,15,8.4c7.1,0,10.6-3.8,14.9-8.4c4.7-5,10.4-11.3,21.4-11.3
			c11,0,16.7,6.2,21.4,11.3c4.4,4.7,7.8,8.4,15,8.4c7.1,0,10.6-3.8,14.9-8.4c4.7-5,10.4-11.3,21.4-11.3s16.7,6.2,21.4,11.3
			c4.4,4.7,7.8,8.4,14.9,8.4c7.1,0,10.6-3.8,14.9-8.4c4.7-5,10.4-11.3,21.4-11.3c11,0,16.7,6.2,21.4,11.3c4.4,4.7,7.8,8.4,14.9,8.4
			s10.6-3.8,14.9-8.4c4.7-5,10.4-11.3,21.4-11.3s16.7,6.2,21.4,11.3c4.4,4.7,7.8,8.4,14.9,8.4c2.5,0,4.4,1.9,4.4,4.4
			S1808.9,933.9,1806.5,933.9z"/>
	</g>
	<g id="XMLID_11_">
		<path id="XMLID_12_" class="st1" d="M962.8,256.5c-11,0-16.7-6.2-21.4-11.3c-4.4-4.7-7.8-8.4-14.9-8.4s-10.6,3.8-14.9,8.4
			c-4.7,5-10.4,11.3-21.4,11.3c-11,0-16.7-6.2-21.4-11.3c-4.4-4.7-7.8-8.4-14.9-8.4s-10.6,3.8-14.9,8.4c-4.7,5-10.4,11.3-21.4,11.3
			c-11,0-16.7-6.2-21.4-11.3c-4.4-4.7-7.8-8.4-14.9-8.4s-10.6,3.8-14.9,8.4c-4.7,5-10.4,11.3-21.4,11.3c-11,0-16.7-6.2-21.4-11.3
			c-4.4-4.7-7.8-8.4-15-8.4c-7.1,0-10.6,3.8-14.9,8.4c-4.7,5-10.4,11.3-21.4,11.3c-11,0-16.7-6.2-21.4-11.3c-4.4-4.7-7.8-8.4-15-8.4
			c-7.1,0-10.6,3.8-15,8.4c-4.7,5-10.4,11.3-21.4,11.3c-2.5,0-4.4-1.9-4.4-4.4c0-2.5,1.9-4.4,4.4-4.4c7.1,0,10.6-3.8,15-8.4
			c4.7-5,10.4-11.3,21.4-11.3c11,0,16.7,6.2,21.4,11.3c4.4,4.7,7.8,8.4,15,8.4c7.1,0,10.6-3.8,14.9-8.4c4.7-5,10.4-11.3,21.4-11.3
			c11,0,16.7,6.2,21.4,11.3c4.4,4.7,7.8,8.4,15,8.4c7.1,0,10.6-3.8,14.9-8.4c4.7-5,10.4-11.3,21.4-11.3c11,0,16.7,6.2,21.4,11.3
			c4.4,4.7,7.8,8.4,14.9,8.4c7.1,0,10.6-3.8,14.9-8.4c4.7-5,10.4-11.3,21.4-11.3s16.7,6.2,21.4,11.3c4.4,4.7,7.8,8.4,14.9,8.4
			c7.1,0,10.6-3.8,14.9-8.4c4.7-5,10.4-11.3,21.4-11.3c11,0,16.7,6.2,21.4,11.3c4.4,4.7,7.8,8.4,14.9,8.4c2.5,0,4.4,1.9,4.4,4.4
			C967.2,254.6,965.3,256.5,962.8,256.5z"/>
	</g>
	<g id="XMLID_9_">
		<path id="XMLID_10_" class="st1" d="M1806.5,256.5c-11,0-16.7-6.2-21.4-11.3c-4.4-4.7-7.8-8.4-14.9-8.4s-10.6,3.8-14.9,8.4
			c-4.7,5-10.4,11.3-21.4,11.3s-16.7-6.2-21.4-11.3c-4.4-4.7-7.8-8.4-14.9-8.4s-10.6,3.8-14.9,8.4c-4.7,5-10.4,11.3-21.4,11.3
			c-11,0-16.7-6.2-21.4-11.3c-4.4-4.7-7.8-8.4-14.9-8.4s-10.6,3.8-14.9,8.4c-4.7,5-10.4,11.3-21.4,11.3s-16.7-6.2-21.4-11.3
			c-4.4-4.7-7.8-8.4-15-8.4c-7.1,0-10.6,3.8-14.9,8.4c-4.7,5-10.4,11.3-21.4,11.3s-16.7-6.2-21.4-11.3c-4.4-4.7-7.8-8.4-15-8.4
			c-7.1,0-10.6,3.8-15,8.4c-4.7,5-10.4,11.3-21.4,11.3c-2.5,0-4.4-1.9-4.4-4.4c0-2.5,1.9-4.4,4.4-4.4c7.1,0,10.6-3.8,15-8.4
			c4.7-5,10.4-11.3,21.4-11.3c11,0,16.7,6.2,21.4,11.3c4.4,4.7,7.8,8.4,15,8.4c7.1,0,10.6-3.8,14.9-8.4c4.7-5,10.4-11.3,21.4-11.3
			c11,0,16.7,6.2,21.4,11.3c4.4,4.7,7.8,8.4,15,8.4c7.1,0,10.6-3.8,14.9-8.4c4.7-5,10.4-11.3,21.4-11.3s16.7,6.2,21.4,11.3
			c4.4,4.7,7.8,8.4,14.9,8.4c7.1,0,10.6-3.8,14.9-8.4c4.7-5,10.4-11.3,21.4-11.3c11,0,16.7,6.2,21.4,11.3c4.4,4.7,7.8,8.4,14.9,8.4
			s10.6-3.8,14.9-8.4c4.7-5,10.4-11.3,21.4-11.3s16.7,6.2,21.4,11.3c4.4,4.7,7.8,8.4,14.9,8.4c2.5,0,4.4,1.9,4.4,4.4
			C1810.9,254.6,1808.9,256.5,1806.5,256.5z"/>
	</g>
	<g id="XMLID_15_">
		<path id="XMLID_16_" class="st1" d="M962.8,1640.4c-11,0-16.7-6.2-21.4-11.3c-4.4-4.7-7.8-8.4-14.9-8.4s-10.6,3.8-14.9,8.4
			c-4.7,5-10.4,11.3-21.4,11.3c-11,0-16.7-6.2-21.4-11.3c-4.4-4.7-7.8-8.4-14.9-8.4s-10.6,3.8-14.9,8.4c-4.7,5-10.4,11.3-21.4,11.3
			c-11,0-16.7-6.2-21.4-11.3c-4.4-4.7-7.8-8.4-14.9-8.4s-10.6,3.8-14.9,8.4c-4.7,5-10.4,11.3-21.4,11.3c-11,0-16.7-6.2-21.4-11.3
			c-4.4-4.7-7.8-8.4-15-8.4c-7.1,0-10.6,3.8-14.9,8.4c-4.7,5-10.4,11.3-21.4,11.3c-11,0-16.7-6.2-21.4-11.3c-4.4-4.7-7.8-8.4-15-8.4
			c-7.1,0-10.6,3.8-15,8.4c-4.7,5-10.4,11.3-21.4,11.3c-2.5,0-4.4-1.9-4.4-4.4c0-2.5,1.9-4.4,4.4-4.4c7.1,0,10.6-3.8,15-8.4
			c4.7-5,10.4-11.3,21.4-11.3c11,0,16.7,6.2,21.4,11.3c4.4,4.7,7.8,8.4,15,8.4c7.1,0,10.6-3.8,14.9-8.4c4.7-5,10.4-11.3,21.4-11.3
			c11,0,16.7,6.2,21.4,11.3c4.4,4.7,7.8,8.4,15,8.4c7.1,0,10.6-3.8,14.9-8.4c4.7-5,10.4-11.3,21.4-11.3c11,0,16.7,6.2,21.4,11.3
			c4.4,4.7,7.8,8.4,14.9,8.4c7.1,0,10.6-3.8,14.9-8.4c4.7-5,10.4-11.3,21.4-11.3s16.7,6.2,21.4,11.3c4.4,4.7,7.8,8.4,14.9,8.4
			c7.1,0,10.6-3.8,14.9-8.4c4.7-5,10.4-11.3,21.4-11.3c11,0,16.7,6.2,21.4,11.3c4.4,4.7,7.8,8.4,14.9,8.4c2.5,0,4.4,1.9,4.4,4.4
			C967.2,1638.4,965.3,1640.4,962.8,1640.4z"/>
	</g>
	<g id="XMLID_13_">
		<path id="XMLID_14_" class="st1" d="M1806.5,1640.4c-11,0-16.7-6.2-21.4-11.3c-4.4-4.7-7.8-8.4-14.9-8.4s-10.6,3.8-14.9,8.4
			c-4.7,5-10.4,11.3-21.4,11.3s-16.7-6.2-21.4-11.3c-4.4-4.7-7.8-8.4-14.9-8.4s-10.6,3.8-14.9,8.4c-4.7,5-10.4,11.3-21.4,11.3
			c-11,0-16.7-6.2-21.4-11.3c-4.4-4.7-7.8-8.4-14.9-8.4s-10.6,3.8-14.9,8.4c-4.7,5-10.4,11.3-21.4,11.3s-16.7-6.2-21.4-11.3
			c-4.4-4.7-7.8-8.4-15-8.4c-7.1,0-10.6,3.8-14.9,8.4c-4.7,5-10.4,11.3-21.4,11.3s-16.7-6.2-21.4-11.3c-4.4-4.7-7.8-8.4-15-8.4
			c-7.1,0-10.6,3.8-15,8.4c-4.7,5-10.4,11.3-21.4,11.3c-2.5,0-4.4-1.9-4.4-4.4c0-2.5,1.9-4.4,4.4-4.4c7.1,0,10.6-3.8,15-8.4
			c4.7-5,10.4-11.3,21.4-11.3c11,0,16.7,6.2,21.4,11.3c4.4,4.7,7.8,8.4,15,8.4c7.1,0,10.6-3.8,14.9-8.4c4.7-5,10.4-11.3,21.4-11.3
			c11,0,16.7,6.2,21.4,11.3c4.4,4.7,7.8,8.4,15,8.4c7.1,0,10.6-3.8,14.9-8.4c4.7-5,10.4-11.3,21.4-11.3s16.7,6.2,21.4,11.3
			c4.4,4.7,7.8,8.4,14.9,8.4c7.1,0,10.6-3.8,14.9-8.4c4.7-5,10.4-11.3,21.4-11.3c11,0,16.7,6.2,21.4,11.3c4.4,4.7,7.8,8.4,14.9,8.4
			s10.6-3.8,14.9-8.4c4.7-5,10.4-11.3,21.4-11.3s16.7,6.2,21.4,11.3c4.4,4.7,7.8,8.4,14.9,8.4c2.5,0,4.4,1.9,4.4,4.4
			C1810.9,1638.4,1808.9,1640.4,1806.5,1640.4z"/>
	</g>
	<path class="st1" d="M209.9,636.8c-29.2,0-53.1-23.8-53.1-53.1c0-29.2,23.8-53.1,53.1-53.1s53.1,23.8,53.1,53.1
		C263,613,239.2,636.8,209.9,636.8z M209.9,539.6c-24.3,0-44.1,19.8-44.1,44.1c0,24.3,19.8,44.1,44.1,44.1s44.1-19.8,44.1-44.1
		C254,559.4,234.2,539.6,209.9,539.6z"/>
	<path class="st1" d="M892.1,444.4c-14.6,0-26.5-11.9-26.5-26.5c0-14.6,11.9-26.5,26.5-26.5c14.6,0,26.5,11.9,26.5,26.5
		C918.6,432.5,906.7,444.4,892.1,444.4z M892.1,395.8c-12.2,0-22.1,10-22.1,22.1c0,12.2,10,22.1,22.1,22.1s22.1-10,22.1-22.1
		C914.2,405.7,904.3,395.8,892.1,395.8z"/>
	<path class="st1" d="M1706.6,756c-15.9,0-28.8-12.9-28.8-28.8s12.9-28.8,28.8-28.8s28.8,12.9,28.8,28.8S1722.4,756,1706.6,756z
		 M1706.6,703.2c-13.2,0-24,10.8-24,24s10.8,24,24,24s24-10.8,24-24S1719.8,703.2,1706.6,703.2z"/>
	<path class="st1" d="M1706.6,1478.2c-15.9,0-28.8-12.9-28.8-28.8c0-15.9,12.9-28.8,28.8-28.8s28.8,12.9,28.8,28.8
		C1735.3,1465.3,1722.4,1478.2,1706.6,1478.2z M1706.6,1425.5c-13.2,0-24,10.8-24,24c0,13.2,10.8,24,24,24s24-10.8,24-24
		C1730.6,1436.3,1719.8,1425.5,1706.6,1425.5z"/>
	<path class="st1" d="M892.1,1132.6c-14.6,0-26.5-11.9-26.5-26.5s11.9-26.5,26.5-26.5c14.6,0,26.5,11.9,26.5,26.5
		S906.7,1132.6,892.1,1132.6z M892.1,1084c-12.2,0-22.1,10-22.1,22.1s10,22.1,22.1,22.1s22.1-10,22.1-22.1S904.3,1084,892.1,1084z"
		/>
	<g>
		<path class="st1" d="M305.4,242.3c2.3-1.3,3.1-4.3,1.8-6.6c-1.3-2.3-4.3-3.1-6.6-1.8c-2.3,1.3-3.1,4.3-1.8,6.6
			C300.1,242.9,303.1,243.7,305.4,242.3z"/>
		<path class="st1" d="M285.7,275.5l24.2,41.9c5.2,9.1,17,12.4,26.3,7c9.2-5.3,12.4-17.1,7-26.3l-14.4-25l12.5-7.2
			c2.3-1.3,3.1-4.3,1.8-6.6l-6.3-10.8c0.7-0.1,5.6-1.1,92.1-18.1c10.7-0.6,17.1-12.3,11.7-21.6l-16-27.7l10.2-15.5
			c1-1.5,1.1-3.5,0.2-5.1l-9.6-16.7c-0.9-1.6-2.6-2.5-4.5-2.4l-18.5,1.1l-17.7-30.7c-2.6-4.5-7.2-7.1-12.3-7.2c-0.1,0-0.1,0-0.2,0
			c-5,0-9.5,2.5-12.1,6.7l-62.8,80l-40.8,23.6c-16.1,9.3-21.6,29.9-12.3,46C252.5,275.8,270.5,281.6,285.7,275.5z M334.9,303
			c2.7,4.6,1.1,10.5-3.5,13.1c-4.6,2.7-10.5,1-13.1-3.5l-24-41.7l16.7-9.6C338.7,309.6,334.4,302.3,334.9,303z M324,264.9l-4.8-8.3
			l8.3-4.8l4.8,8.3L324,264.9z M418.5,151.5l6.6,11.5l-5.9,9l-11.5-19.8L418.5,151.5z M368.1,116.8c1.3-2.1,3.3-2.3,4.2-2.3
			c0.8,0,2.9,0.3,4.1,2.4l55.9,96.9c1.8,3.2-0.4,7.1-4,7.2c-0.7,0-1,0.1-2.6,0.4l-59.2-102.5C367.6,117.3,367.8,117.2,368.1,116.8z
			 M360,127.1l55.6,96.3l-83.9,16.5l-25.5-44.2L360,127.1z M252.4,256.3c-2.1-3.7-3.2-7.8-3.2-12c0-8.6,4.6-16.6,12-20.8l37.5-21.6
			l24,41.6l-37.5,21.6C273.7,271.7,259,267.8,252.4,256.3z"/>
		<path class="st1" d="M290.5,245.4c-1.3-2.3-4.3-3.1-6.6-1.8l-8.3,4.8c-2.3,1.3-5.2,0.5-6.6-1.8c-1.3-2.3-4.3-3.1-6.6-1.8
			c-2.3,1.3-3.1,4.3-1.8,6.6c4,6.9,12.8,9.3,19.7,5.3l8.3-4.8C291,250.6,291.8,247.7,290.5,245.4z"/>
		<path class="st1" d="M478.6,115.1l-26.8,14.9c-2.3,1.3-3.2,4.2-1.9,6.5c1.3,2.3,4.2,3.2,6.5,1.9l26.8-14.9
			c2.3-1.3,3.2-4.2,1.9-6.5C483.8,114.7,480.9,113.9,478.6,115.1z"/>
		<path class="st1" d="M475.8,165l-18.6-5c-2.6-0.7-5.2,0.8-5.9,3.4c-0.7,2.6,0.8,5.2,3.4,5.9l18.6,5c2.6,0.7,5.2-0.9,5.9-3.4
			C479.9,168.3,478.3,165.6,475.8,165z"/>
		<path class="st1" d="M429.1,97.7l-5,18.6c-0.7,2.6,0.8,5.2,3.4,5.9c2.6,0.7,5.2-0.8,5.9-3.4l5-18.6c0.7-2.6-0.8-5.2-3.4-5.9
			C432.4,93.6,429.8,95.1,429.1,97.7z"/>
	</g>
	<g>
		<path class="st1" d="M1998.9,242.3c2.3-1.3,3.1-4.3,1.8-6.6c-1.3-2.3-4.3-3.1-6.6-1.8c-2.3,1.3-3.1,4.3-1.8,6.6
			C1993.7,242.9,1996.6,243.7,1998.9,242.3z"/>
		<path class="st1" d="M1979.2,275.5l24.2,41.9c5.2,9.1,17,12.4,26.3,7c9.2-5.3,12.4-17.1,7-26.3l-14.4-25l12.5-7.2
			c2.3-1.3,3.1-4.3,1.8-6.6l-6.3-10.8c0.7-0.1,5.6-1.1,92.1-18.1c10.7-0.6,17.1-12.3,11.7-21.6l-16-27.7l10.2-15.5
			c1-1.5,1.1-3.5,0.2-5.1l-9.6-16.7c-0.9-1.6-2.6-2.5-4.5-2.4l-18.5,1.1l-17.7-30.7c-2.6-4.5-7.2-7.1-12.3-7.2c-0.1,0-0.1,0-0.2,0
			c-5,0-9.5,2.5-12.1,6.7l-62.8,80l-40.8,23.6c-16.1,9.3-21.6,29.9-12.3,46C1946.1,275.8,1964,281.6,1979.2,275.5z M2028.4,303
			c2.7,4.6,1.1,10.5-3.5,13.1c-4.6,2.7-10.5,1-13.1-3.5l-24-41.7l16.7-9.6C2032.2,309.6,2028,302.3,2028.4,303z M2017.5,264.9
			l-4.8-8.3l8.3-4.8l4.8,8.3L2017.5,264.9z M2112.1,151.5l6.6,11.5l-5.9,9l-11.5-19.8L2112.1,151.5z M2061.6,116.8
			c1.3-2.1,3.3-2.3,4.2-2.3c0.8,0,2.9,0.3,4.1,2.4l55.9,96.9c1.8,3.2-0.4,7.1-4,7.2c-0.7,0-1,0.1-2.6,0.4L2060,118.9
			C2061.2,117.3,2061.4,117.2,2061.6,116.8z M2053.6,127.1l55.6,96.3l-83.9,16.5l-25.5-44.2L2053.6,127.1z M1945.9,256.3
			c-2.1-3.7-3.2-7.8-3.2-12c0-8.6,4.6-16.6,12-20.8l37.5-21.6l24,41.6l-37.5,21.6C1967.3,271.7,1952.6,267.8,1945.9,256.3z"/>
		<path class="st1" d="M1984,245.4c-1.3-2.3-4.3-3.1-6.6-1.8l-8.3,4.8c-2.3,1.3-5.2,0.5-6.6-1.8c-1.3-2.3-4.3-3.1-6.6-1.8
			c-2.3,1.3-3.1,4.3-1.8,6.6c4,6.9,12.8,9.3,19.7,5.3l8.3-4.8C1984.6,250.6,1985.4,247.7,1984,245.4z"/>
		<path class="st1" d="M2172.1,115.1l-26.8,14.9c-2.3,1.3-3.2,4.2-1.9,6.5c1.3,2.3,4.2,3.2,6.5,1.9l26.8-14.9
			c2.3-1.3,3.2-4.2,1.9-6.5C2177.4,114.7,2174.5,113.9,2172.1,115.1z"/>
		<path class="st1" d="M2169.3,165l-18.6-5c-2.6-0.7-5.2,0.8-5.9,3.4s0.8,5.2,3.4,5.9l18.6,5c2.6,0.7,5.2-0.9,5.9-3.4
			C2173.4,168.3,2171.9,165.6,2169.3,165z"/>
		<path class="st1" d="M2122.6,97.7l-5,18.6c-0.7,2.6,0.8,5.2,3.4,5.9c2.6,0.7,5.2-0.8,5.9-3.4l5-18.6c0.7-2.6-0.8-5.2-3.4-5.9
			C2126,93.6,2123.3,95.1,2122.6,97.7z"/>
	</g>
	<g>
		<path class="st1" d="M1144.9,964.1c2.3-1.3,3.1-4.3,1.8-6.6c-1.3-2.3-4.3-3.1-6.6-1.8c-2.3,1.3-3.1,4.3-1.8,6.6
			C1139.6,964.7,1142.6,965.5,1144.9,964.1z"/>
		<path class="st1" d="M1125.2,997.3l24.2,41.9c5.2,9.1,17,12.4,26.3,7c9.2-5.3,12.4-17.1,7-26.3l-14.4-25l12.5-7.2
			c2.3-1.3,3.1-4.3,1.8-6.6l-6.3-10.8c0.7-0.1,5.6-1.1,92.1-18.1c10.7-0.6,17.1-12.3,11.7-21.6l-16-27.7l10.2-15.5
			c1-1.5,1.1-3.5,0.2-5.1l-9.6-16.7c-0.9-1.6-2.6-2.5-4.5-2.4l-18.5,1.1l-17.7-30.7c-2.6-4.5-7.2-7.1-12.3-7.2c-0.1,0-0.1,0-0.2,0
			c-5,0-9.5,2.5-12.1,6.7l-62.8,80l-40.8,23.6c-16.1,9.3-21.6,29.9-12.3,46C1092,997.6,1110,1003.4,1125.2,997.3z M1174.4,1024.8
			c2.7,4.6,1.1,10.5-3.5,13.1c-4.6,2.7-10.5,1-13.1-3.5l-24-41.7l16.7-9.6C1178.2,1031.4,1173.9,1024.1,1174.4,1024.8z
			 M1163.5,986.7l-4.8-8.3l8.3-4.8l4.8,8.3L1163.5,986.7z M1258,873.3l6.6,11.5l-5.9,9l-11.5-19.8L1258,873.3z M1207.6,838.6
			c1.3-2.1,3.3-2.3,4.2-2.3c0.8,0,2.9,0.3,4.1,2.4l55.9,96.9c1.8,3.2-0.4,7.1-4,7.2c-0.7,0-1,0.1-2.6,0.4l-59.2-102.5
			C1207.2,839.1,1207.3,839,1207.6,838.6z M1199.5,848.9l55.6,96.3l-83.9,16.5l-25.5-44.2L1199.5,848.9z M1091.9,978.1
			c-2.1-3.7-3.2-7.8-3.2-12c0-8.6,4.6-16.6,12-20.8l37.5-21.6l24,41.6l-37.5,21.6C1113.2,993.5,1098.5,989.6,1091.9,978.1z"/>
		<path class="st1" d="M1130,967.2c-1.3-2.3-4.3-3.1-6.6-1.8l-8.3,4.8c-2.3,1.3-5.2,0.5-6.6-1.8c-1.3-2.3-4.3-3.1-6.6-1.8
			c-2.3,1.3-3.1,4.3-1.8,6.6c4,6.9,12.8,9.3,19.7,5.3l8.3-4.8C1130.5,972.4,1131.3,969.5,1130,967.2z"/>
		<path class="st1" d="M1318.1,836.9l-26.8,14.9c-2.3,1.3-3.2,4.2-1.9,6.5c1.3,2.3,4.2,3.2,6.5,1.9l26.8-14.9
			c2.3-1.3,3.2-4.2,1.9-6.5C1323.3,836.5,1320.4,835.6,1318.1,836.9z"/>
		<path class="st1" d="M1315.3,886.7l-18.6-5c-2.6-0.7-5.2,0.8-5.9,3.4s0.8,5.2,3.4,5.9l18.6,5c2.6,0.7,5.2-0.9,5.9-3.4
			C1319.4,890.1,1317.8,887.4,1315.3,886.7z"/>
		<path class="st1" d="M1268.6,819.5l-5,18.6c-0.7,2.6,0.8,5.2,3.4,5.9c2.6,0.7,5.2-0.8,5.9-3.4l5-18.6c0.7-2.6-0.8-5.2-3.4-5.9
			C1271.9,815.4,1269.3,816.9,1268.6,819.5z"/>
	</g>
	<g>
		<path class="st1" d="M305.4,1652.5c2.3-1.3,3.1-4.3,1.8-6.6c-1.3-2.3-4.3-3.1-6.6-1.8c-2.3,1.3-3.1,4.3-1.8,6.6
			C300.1,1653,303.1,1653.8,305.4,1652.5z"/>
		<path class="st1" d="M285.7,1685.7l24.2,41.9c5.2,9.1,17,12.4,26.3,7c9.2-5.3,12.4-17.1,7-26.3l-14.4-25l12.5-7.2
			c2.3-1.3,3.1-4.3,1.8-6.6l-6.3-10.8c0.7-0.1,5.6-1.1,92.1-18.1c10.7-0.6,17.1-12.3,11.7-21.6l-16-27.7l10.2-15.5
			c1-1.5,1.1-3.5,0.2-5.1l-9.6-16.7c-0.9-1.6-2.6-2.5-4.5-2.4l-18.5,1.1l-17.7-30.7c-2.6-4.5-7.2-7.1-12.3-7.2c-0.1,0-0.1,0-0.2,0
			c-5,0-9.5,2.5-12.1,6.7l-62.8,80l-40.8,23.6c-16.1,9.3-21.6,29.9-12.3,46C252.5,1686,270.5,1691.8,285.7,1685.7z M334.9,1713.2
			c2.7,4.6,1.1,10.5-3.5,13.1c-4.6,2.7-10.5,1-13.1-3.5l-24-41.7l16.7-9.6C338.7,1719.7,334.4,1712.4,334.9,1713.2z M324,1675.1
			l-4.8-8.3l8.3-4.8l4.8,8.3L324,1675.1z M418.5,1561.6l6.6,11.5l-5.9,9l-11.5-19.8L418.5,1561.6z M368.1,1526.9
			c1.3-2.1,3.3-2.3,4.2-2.3c0.8,0,2.9,0.3,4.1,2.4l55.9,96.9c1.8,3.2-0.4,7.1-4,7.2c-0.7,0-1,0.1-2.6,0.4l-59.2-102.5
			C367.6,1527.5,367.8,1527.3,368.1,1526.9z M360,1537.2l55.6,96.3l-83.9,16.5l-25.5-44.2L360,1537.2z M252.4,1666.4
			c-2.1-3.7-3.2-7.8-3.2-12c0-8.6,4.6-16.6,12-20.8l37.5-21.6l24,41.6l-37.5,21.6C273.7,1681.9,259,1677.9,252.4,1666.4z"/>
		<path class="st1" d="M290.5,1655.5c-1.3-2.3-4.3-3.1-6.6-1.8l-8.3,4.8c-2.3,1.3-5.2,0.5-6.6-1.8c-1.3-2.3-4.3-3.1-6.6-1.8
			c-2.3,1.3-3.1,4.3-1.8,6.6c4,6.9,12.8,9.3,19.7,5.3l8.3-4.8C291,1660.8,291.8,1657.8,290.5,1655.5z"/>
		<path class="st1" d="M478.6,1525.3l-26.8,14.9c-2.3,1.3-3.2,4.2-1.9,6.5c1.3,2.3,4.2,3.2,6.5,1.9l26.8-14.9
			c2.3-1.3,3.2-4.2,1.9-6.5C483.8,1524.8,480.9,1524,478.6,1525.3z"/>
		<path class="st1" d="M475.8,1575.1l-18.6-5c-2.6-0.7-5.2,0.8-5.9,3.4c-0.7,2.6,0.8,5.2,3.4,5.9l18.6,5c2.6,0.7,5.2-0.9,5.9-3.4
			C479.9,1578.4,478.3,1575.8,475.8,1575.1z"/>
		<path class="st1" d="M429.1,1507.8l-5,18.6c-0.7,2.6,0.8,5.2,3.4,5.9c2.6,0.7,5.2-0.8,5.9-3.4l5-18.6c0.7-2.6-0.8-5.2-3.4-5.9
			C432.4,1503.7,429.8,1505.3,429.1,1507.8z"/>
	</g>
	<g>
		<path class="st1" d="M1998.9,1652.5c2.3-1.3,3.1-4.3,1.8-6.6c-1.3-2.3-4.3-3.1-6.6-1.8c-2.3,1.3-3.1,4.3-1.8,6.6
			C1993.7,1653,1996.6,1653.8,1998.9,1652.5z"/>
		<path class="st1" d="M1979.2,1685.7l24.2,41.9c5.2,9.1,17,12.4,26.3,7c9.2-5.3,12.4-17.1,7-26.3l-14.4-25l12.5-7.2
			c2.3-1.3,3.1-4.3,1.8-6.6l-6.3-10.8c0.7-0.1,5.6-1.1,92.1-18.1c10.7-0.6,17.1-12.3,11.7-21.6l-16-27.7l10.2-15.5
			c1-1.5,1.1-3.5,0.2-5.1l-9.6-16.7c-0.9-1.6-2.6-2.5-4.5-2.4l-18.5,1.1l-17.7-30.7c-2.6-4.5-7.2-7.1-12.3-7.2c-0.1,0-0.1,0-0.2,0
			c-5,0-9.5,2.5-12.1,6.7l-62.8,80l-40.8,23.6c-16.1,9.3-21.6,29.9-12.3,46C1946.1,1686,1964,1691.8,1979.2,1685.7z M2028.4,1713.2
			c2.7,4.6,1.1,10.5-3.5,13.1c-4.6,2.7-10.5,1-13.1-3.5l-24-41.7l16.7-9.6C2032.2,1719.7,2028,1712.4,2028.4,1713.2z M2017.5,1675.1
			l-4.8-8.3l8.3-4.8l4.8,8.3L2017.5,1675.1z M2112.1,1561.6l6.6,11.5l-5.9,9l-11.5-19.8L2112.1,1561.6z M2061.6,1526.9
			c1.3-2.1,3.3-2.3,4.2-2.3c0.8,0,2.9,0.3,4.1,2.4l55.9,96.9c1.8,3.2-0.4,7.1-4,7.2c-0.7,0-1,0.1-2.6,0.4l-59.2-102.5
			C2061.2,1527.5,2061.4,1527.3,2061.6,1526.9z M2053.6,1537.2l55.6,96.3l-83.9,16.5l-25.5-44.2L2053.6,1537.2z M1945.9,1666.4
			c-2.1-3.7-3.2-7.8-3.2-12c0-8.6,4.6-16.6,12-20.8l37.5-21.6l24,41.6l-37.5,21.6C1967.3,1681.9,1952.6,1677.9,1945.9,1666.4z"/>
		<path class="st1" d="M1984,1655.5c-1.3-2.3-4.3-3.1-6.6-1.8l-8.3,4.8c-2.3,1.3-5.2,0.5-6.6-1.8c-1.3-2.3-4.3-3.1-6.6-1.8
			c-2.3,1.3-3.1,4.3-1.8,6.6c4,6.9,12.8,9.3,19.7,5.3l8.3-4.8C1984.6,1660.8,1985.4,1657.8,1984,1655.5z"/>
		<path class="st1" d="M2172.1,1525.3l-26.8,14.9c-2.3,1.3-3.2,4.2-1.9,6.5c1.3,2.3,4.2,3.2,6.5,1.9l26.8-14.9
			c2.3-1.3,3.2-4.2,1.9-6.5C2177.4,1524.8,2174.5,1524,2172.1,1525.3z"/>
		<path class="st1" d="M2169.3,1575.1l-18.6-5c-2.6-0.7-5.2,0.8-5.9,3.4c-0.7,2.6,0.8,5.2,3.4,5.9l18.6,5c2.6,0.7,5.2-0.9,5.9-3.4
			C2173.4,1578.4,2171.9,1575.8,2169.3,1575.1z"/>
		<path class="st1" d="M2122.6,1507.8l-5,18.6c-0.7,2.6,0.8,5.2,3.4,5.9c2.6,0.7,5.2-0.8,5.9-3.4l5-18.6c0.7-2.6-0.8-5.2-3.4-5.9
			C2126,1503.7,2123.3,1505.3,2122.6,1507.8z"/>
	</g>
	<g>
		<path class="st1" d="M1323.2,171.4c1.5-1.5,2.2-3.7,1.8-5.8c-0.4-2.1-1.8-3.9-3.8-4.7l-21.7-9.4l-7.6-22c-0.7-2.1-2.5-3.7-4.6-4.2
			c-2.2-0.5-4.4,0.2-6,1.7l-12.3,12.3c-16.5-9.1-35.5-14.1-53.9-14.1c-29.3,0-56.9,11.4-77.7,32.2c-20.8,20.8-32.2,48.3-32.2,77.7
			s11.4,56.9,32.2,77.7c20.8,20.8,48.3,32.2,77.7,32.2c29.3,0,56.9-11.4,77.7-32.2c20.8-20.8,32.2-48.3,32.2-77.7
			c0-18.3-4.5-36.2-13.2-52.2L1323.2,171.4z M1278,198.3l-13.3-3.6l31-30.8l11.6,5.1L1278,198.3z M1275.6,235.1
			c0,33.4-27.2,60.6-60.6,60.6s-60.6-27.2-60.6-60.6s27.2-60.6,60.6-60.6c10.1,0,18.6,2,26.8,6.2l3.3,15.3l-8.2,8.1
			c-6.2-4.4-13.8-7-22-7c-21,0-38,17-38,38s17,38,38,38s38-17,38-38c0-8.1-2.6-15.6-6.9-21.8l8.1-8l15.8,4.3
			C1273.8,217.3,1275.6,225.5,1275.6,235.1L1275.6,235.1z M1240.1,235.1c0,13.8-11.3,25.1-25.1,25.1s-25.1-11.3-25.1-25.1
			s11.3-25.1,25.1-25.1c4.6,0,8.9,1.3,12.7,3.4l-17.4,17.3c-2.5,2.5-2.5,6.6,0,9.1c1.3,1.3,2.9,1.9,4.6,1.9c1.6,0,3.3-0.6,4.5-1.9
			l17.4-17.3C1238.9,226.2,1240.1,230.5,1240.1,235.1L1240.1,235.1z M1283,143.4l3.9,11.1l-30.9,30.7l-2.6-12.1L1283,143.4z
			 M1312,235.1c0,25.9-10.1,50.3-28.4,68.6c-18.3,18.3-42.7,28.4-68.6,28.4s-50.3-10.1-68.6-28.4c-18.3-18.3-28.4-42.7-28.4-68.6
			s10.1-50.3,28.4-68.6c18.3-18.3,42.7-28.4,68.6-28.4c15.1,0,30.5,3.8,44.4,10.8l-17.6,17.6c0,0,0,0,0,0.1
			c-8.3-3.3-17.1-4.9-26.7-4.9c-40.5,0-73.5,33-73.5,73.5s33,73.5,73.5,73.5c40.5,0,73.5-33,73.5-73.5c0-9.1-1.3-17.1-4.2-24.8
			c0.1-0.1,0.1-0.1,0.2-0.2l17.6-17.6C1308.6,205.6,1312,220.2,1312,235.1z"/>
	</g>
	<g>
		<path class="st1" d="M2137.8,860c1.5-1.5,2.2-3.7,1.8-5.8c-0.4-2.1-1.8-3.9-3.8-4.7l-21.7-9.4l-7.6-22c-0.7-2.1-2.5-3.7-4.6-4.2
			c-2.2-0.5-4.4,0.2-6,1.7l-12.3,12.3c-16.5-9.1-35.5-14.1-53.9-14.1c-29.3,0-56.9,11.4-77.7,32.2c-20.8,20.8-32.2,48.3-32.2,77.7
			c0,29.3,11.4,56.9,32.2,77.7c20.8,20.8,48.3,32.2,77.7,32.2s56.9-11.4,77.7-32.2c20.8-20.8,32.2-48.3,32.2-77.7
			c0-18.3-4.5-36.2-13.2-52.2L2137.8,860z M2092.7,886.9l-13.3-3.6l31-30.8l11.6,5.1L2092.7,886.9z M2090.3,923.6
			c0,33.4-27.2,60.6-60.6,60.6s-60.6-27.2-60.6-60.6c0-33.4,27.2-60.6,60.6-60.6c10.1,0,18.6,2,26.8,6.2l3.3,15.3l-8.2,8.1
			c-6.2-4.4-13.8-7-22-7c-21,0-38,17-38,38s17,38,38,38c21,0,38-17,38-38c0-8.1-2.6-15.6-6.9-21.8l8.1-8l15.8,4.3
			C2088.5,905.9,2090.3,914,2090.3,923.6L2090.3,923.6z M2054.8,923.6c0,13.8-11.3,25.1-25.1,25.1s-25.1-11.3-25.1-25.1
			c0-13.8,11.3-25.1,25.1-25.1c4.6,0,8.9,1.3,12.7,3.4l-17.4,17.3c-2.5,2.5-2.5,6.6,0,9.1c1.3,1.3,2.9,1.9,4.6,1.9
			c1.6,0,3.3-0.6,4.5-1.9l17.4-17.3C2053.5,914.8,2054.8,919,2054.8,923.6L2054.8,923.6z M2097.7,832l3.9,11.1l-30.9,30.7l-2.6-12.1
			L2097.7,832z M2126.7,923.6c0,25.9-10.1,50.3-28.4,68.6s-42.7,28.4-68.6,28.4s-50.3-10.1-68.6-28.4
			c-18.3-18.3-28.4-42.7-28.4-68.6s10.1-50.3,28.4-68.6c18.3-18.3,42.7-28.4,68.6-28.4c15.1,0,30.5,3.8,44.4,10.8l-17.6,17.6
			c0,0,0,0,0,0.1c-8.3-3.3-17.1-4.9-26.7-4.9c-40.5,0-73.5,33-73.5,73.5c0,40.5,33,73.5,73.5,73.5s73.5-33,73.5-73.5
			c0-9.1-1.3-17.1-4.2-24.8c0.1-0.1,0.1-0.1,0.2-0.2l17.6-17.6C2123.3,894.2,2126.7,908.8,2126.7,923.6z"/>
	</g>
	<g>
		<path class="st1" d="M449.1,860c1.5-1.5,2.2-3.7,1.8-5.8c-0.4-2.1-1.8-3.9-3.8-4.7l-21.7-9.4l-7.6-22c-0.7-2.1-2.5-3.7-4.6-4.2
			c-2.2-0.5-4.4,0.2-6,1.7l-12.3,12.3c-16.5-9.1-35.5-14.1-53.9-14.1c-29.3,0-56.9,11.4-77.7,32.2s-32.2,48.3-32.2,77.7
			c0,29.3,11.4,56.9,32.2,77.7c20.8,20.8,48.3,32.2,77.7,32.2s56.9-11.4,77.7-32.2c20.8-20.8,32.2-48.3,32.2-77.7
			c0-18.3-4.5-36.2-13.2-52.2L449.1,860z M404,886.9l-13.3-3.6l31-30.8l11.6,5.1L404,886.9z M401.5,923.6
			c0,33.4-27.2,60.6-60.6,60.6s-60.6-27.2-60.6-60.6c0-33.4,27.2-60.6,60.6-60.6c10.1,0,18.6,2,26.8,6.2l3.3,15.3l-8.2,8.1
			c-6.2-4.4-13.8-7-22-7c-21,0-38,17-38,38s17,38,38,38c21,0,38-17,38-38c0-8.1-2.6-15.6-6.9-21.8l8.1-8l15.8,4.3
			C399.8,905.9,401.5,914,401.5,923.6L401.5,923.6z M366.1,923.6c0,13.8-11.3,25.1-25.1,25.1c-13.8,0-25.1-11.3-25.1-25.1
			c0-13.8,11.3-25.1,25.1-25.1c4.6,0,8.9,1.3,12.7,3.4l-17.4,17.3c-2.5,2.5-2.5,6.6,0,9.1c1.3,1.3,2.9,1.9,4.6,1.9
			c1.6,0,3.3-0.6,4.5-1.9l17.4-17.3C364.8,914.8,366.1,919,366.1,923.6L366.1,923.6z M409,832l3.9,11.1L382,873.8l-2.6-12.1L409,832
			z M437.9,923.6c0,25.9-10.1,50.3-28.4,68.6c-18.3,18.3-42.7,28.4-68.6,28.4s-50.3-10.1-68.6-28.4c-18.3-18.3-28.4-42.7-28.4-68.6
			s10.1-50.3,28.4-68.6c18.3-18.3,42.7-28.4,68.6-28.4c15.1,0,30.5,3.8,44.4,10.8L367.7,855c0,0,0,0,0,0.1
			c-8.3-3.3-17.1-4.9-26.7-4.9c-40.5,0-73.5,33-73.5,73.5c0,40.5,33,73.5,73.5,73.5s73.5-33,73.5-73.5c0-9.1-1.3-17.1-4.2-24.8
			c0.1-0.1,0.1-0.1,0.2-0.2l17.6-17.6C434.6,894.2,437.9,908.8,437.9,923.6z"/>
	</g>
	<g>
		<path class="st1" d="M1323.2,1579.9c1.5-1.5,2.2-3.7,1.8-5.8c-0.4-2.1-1.8-3.9-3.8-4.7l-21.7-9.4l-7.6-22
			c-0.7-2.1-2.5-3.7-4.6-4.2c-2.2-0.5-4.4,0.2-6,1.7l-12.3,12.3c-16.5-9.1-35.5-14.1-53.9-14.1c-29.3,0-56.9,11.4-77.7,32.2
			c-20.8,20.8-32.2,48.3-32.2,77.7c0,29.3,11.4,56.9,32.2,77.7c20.8,20.8,48.3,32.2,77.7,32.2c29.3,0,56.9-11.4,77.7-32.2
			c20.8-20.8,32.2-48.3,32.2-77.7c0-18.3-4.5-36.2-13.2-52.2L1323.2,1579.9z M1278,1606.8l-13.3-3.6l31-30.8l11.6,5.1L1278,1606.8z
			 M1275.6,1643.5c0,33.4-27.2,60.6-60.6,60.6s-60.6-27.2-60.6-60.6c0-33.4,27.2-60.6,60.6-60.6c10.1,0,18.6,2,26.8,6.2l3.3,15.3
			l-8.2,8.1c-6.2-4.4-13.8-7-22-7c-21,0-38,17-38,38s17,38,38,38s38-17,38-38c0-8.1-2.6-15.6-6.9-21.8l8.1-8l15.8,4.3
			C1273.8,1625.8,1275.6,1633.9,1275.6,1643.5L1275.6,1643.5z M1240.1,1643.5c0,13.8-11.3,25.1-25.1,25.1s-25.1-11.3-25.1-25.1
			c0-13.8,11.3-25.1,25.1-25.1c4.6,0,8.9,1.3,12.7,3.4l-17.4,17.3c-2.5,2.5-2.5,6.6,0,9.1c1.3,1.3,2.9,1.9,4.6,1.9
			c1.6,0,3.3-0.6,4.5-1.9l17.4-17.3C1238.9,1634.7,1240.1,1638.9,1240.1,1643.5L1240.1,1643.5z M1283,1551.9l3.9,11.1l-30.9,30.7
			l-2.6-12.1L1283,1551.9z M1312,1643.5c0,25.9-10.1,50.3-28.4,68.6c-18.3,18.3-42.7,28.4-68.6,28.4s-50.3-10.1-68.6-28.4
			c-18.3-18.3-28.4-42.7-28.4-68.6s10.1-50.3,28.4-68.6c18.3-18.3,42.7-28.4,68.6-28.4c15.1,0,30.5,3.8,44.4,10.8l-17.6,17.6
			c0,0,0,0,0,0.1c-8.3-3.3-17.1-4.9-26.7-4.9c-40.5,0-73.5,33-73.5,73.5c0,40.5,33,73.5,73.5,73.5c40.5,0,73.5-33,73.5-73.5
			c0-9.1-1.3-17.1-4.2-24.8c0.1-0.1,0.1-0.1,0.2-0.2l17.6-17.6C1308.6,1614.1,1312,1628.7,1312,1643.5z"/>
	</g>
	<g>
		<g>
			<g>
				<path class="st1" d="M1293.6,614.8L1293.6,614.8C1293.6,614.8,1293.8,614.7,1293.6,614.8z"/>
				<path class="st1" d="M1293.6,614.8L1293.6,614.8C1293.6,614.8,1293.6,614.8,1293.6,614.8z"/>
				<path class="st1" d="M1440.3,666.2l-2.1-10.4c-0.4-1.9-2.2-3.1-4.1-2.7c-1.9,0.4-3.1,2.2-2.7,4.1l2.1,10.4
					c0.8,3.9-2.2,7.6-6.2,7.6H1407v-15.8c0-1.9-1.6-3.5-3.5-3.5c-1.9,0-3.5,1.6-3.5,3.5v15.8h-29.9l-4.5-34.9l2.3-6.8
					c1.5,0.8,4.2,4.4,8.9,3c2.1-0.7,3.9-2.3,4.6-4.4c4.1-11.5,4.5-12.6,6.7-18.7c7.4,2.2,24.9,7.3,25.1,7.4l0,0
					c0.5,0.2,1,0.3,2.6,0.8c3.5,1.3,9.4,4.7,11,12.9l1.4,6.9c0.4,1.9,2.2,3.1,4.1,2.7c1.9-0.4,3.1-2.2,2.7-4.1l-1.4-6.9
					c-2.3-11.6-10.7-16.3-15.5-18.1c-0.2-0.1,1.8,0.5-30.7-9.1l-9.6-6.5v-6.1c12-6.2,20.9-17.4,24.3-30.8c1.3,0.6,2.8,1,4.3,1
					c4.7,0,8.7-3.4,9.6-7.8c6.2-3.4,10.2-9.9,10.2-17.1c0-4.2-1.3-8.2-3.7-11.4v-15.9c0-17.9-7-34.7-19.7-47.3
					c-12.6-12.5-29.3-19.4-47-19.4c-14.7,0-28.8,4.8-40.7,14c-1.5,1.2-1.8,3.4-0.6,4.9c1.2,1.5,3.4,1.8,4.9,0.6
					c10.5-8.2,23.1-12.5,36.4-12.5c15.9,0,30.8,6.2,42.1,17.4c11.4,11.3,17.7,26.4,17.7,42.4v8.7c-1-2.6-3.1-4.7-5.7-5.7v-3
					c0-29.9-24.3-54.1-54.1-54.1s-54.1,24.3-54.1,54.1v3c-2.6,1-4.7,3.1-5.7,5.7v-8c0-13.5,4.3-26.3,12.6-37
					c1.2-1.5,0.9-3.7-0.6-4.9c-1.5-1.2-3.7-0.9-4.9,0.6c-9.2,11.9-14,26.2-14,41.3v15.2c-2.3,3.2-3.7,7.2-3.7,11.4
					c0,7.2,3.9,13.7,10.2,17.1c0.7,3.4,3.2,6.2,6.4,7.3c0.9,4.3,3.1,8.3,6.3,11.7c3.1,3.2,7,5.7,11.4,7.2c1.1,1.3,2.2,2.5,3.4,3.6
					c3.2,3,6.7,5.6,10.5,7.6v6.3l-9.4,6.4c-27.7,8.2-30.5,9-30.6,9l0,0c-0.1,0-0.2,0.1-0.2,0.1l0,0c-4.8,1.8-13.2,6.5-15.5,18.1
					l-6.7,33.6c-1.6,8.1,4.6,15.6,12.8,15.6h33.6c1.9,0,3.5-1.6,3.5-3.5s-1.6-3.5-3.5-3.5h-5.9v-15.8c0-1.9-1.6-3.5-3.5-3.5
					s-3.5,1.6-3.5,3.5v15.8h-20.7c-3.8,0-6.7-3.5-5.9-7.2l6.7-33.6c1.6-8.2,7.6-11.6,11-12.9c4.5-1.3,20.3-6,27.8-8.2
					c1.6,4.4,5.1,14.3,6.7,18.7c0.7,2.1,2.4,3.7,4.6,4.4c4.1,1.2,6.3-1.2,8.9-3l2.3,6.9l-4.5,34.9h-7.7c-1.9,0-3.5,1.6-3.5,3.5
					s1.6,3.5,3.5,3.5c4.5,0,88.6,0,93.5,0C1435.7,682.1,1442,674.4,1440.3,666.2z M1416.3,530.4c0.1,0.1,0.1,0.2,0.2,0.3
					c1.8,2.2,2.8,4.9,2.8,7.9c0,3.1-1.1,5.9-3,8.2V530.4z M1295.2,530.6c0.1-0.1,0.2-0.2,0.2-0.3v16.3c-1.9-2.2-3-5.1-3-8.2
					C1292.4,535.6,1293.4,532.8,1295.2,530.6z M1308,553.7c0,1.6-1.3,2.8-2.8,2.8c-1.6,0-2.8-1.3-2.8-2.8v-0.3v-29.7v-0.3
					c0-1.6,1.3-2.8,2.8-2.8c1.6,0,2.8,1.3,2.8,2.8V553.7z M1381.8,610.4c-0.6,1.7-6.1,17.1-6.9,19.2c0,0.1-0.2,0.2-0.3,0.1l-6.4-4.7
					l8-18.3L1381.8,610.4z M1403.7,523.4c0-1.6,1.3-2.8,2.8-2.8c1.6,0,2.8,1.3,2.8,2.8v0.3v29.7v0.3c0,1.6-1.3,2.8-2.8,2.8
					c-1.6,0-2.8-1.3-2.8-2.8V523.4z M1309.1,562.6c0.2-0.1,0.4-0.2,0.5-0.3c0.4,1.5,0.9,3,1.4,4.5
					C1310.2,565.5,1309.5,564.1,1309.1,562.6z M1314.5,516c-0.8,0.1-1.5,0.3-2.3,0.6c-1-1-2.2-1.9-3.6-2.4v-3
					c0-26,21.2-47.2,47.2-47.2c26,0,47.2,21.2,47.2,47.2v3c-0.9,0.3-1.7,0.8-2.4,1.3c0,0-0.1-0.1-0.1-0.1c-0.1-0.1-0.1-0.1-0.2-0.2
					l-15-11.7c-3.4-2.7-7.6-3.3-11.5-1.8c-10.3,4-36.6,13.3-59,14.2C1314.7,516,1314.6,516,1314.5,516z M1331.7,583.6h10.2
					c1.4,3.7,5,6.3,9.1,6.3h8.8c5.4,0,9.8-4.4,9.8-9.8s-4.4-9.8-9.8-9.8h-8.8c-4.2,0-7.7,2.6-9.1,6.3h-11.4c-2.3,0-4.6-0.3-6.8-0.9
					c-5.6-7.3-8.7-16.3-8.7-25.5V523c0.1,0,0.1,0,0.2,0c0.1,0,0.2,0,0.2,0c23.3-1,50.3-10.6,60.9-14.6c1.6-0.6,3.2-0.3,4.7,0.8
					l14.9,11.6c0.1,0.2,0.7,1,0.7,2.3v27.9c0,22.7-18.5,41-41.1,40.8C1346.7,591.6,1338.4,588.6,1331.7,583.6z M1348.2,580.1
					c0-1.6,1.3-2.8,2.8-2.8h8.8c1.6,0,2.8,1.3,2.8,2.8c0,1.6-1.3,2.8-2.8,2.8h-8.8C1349.5,582.9,1348.2,581.7,1348.2,580.1z
					 M1336.9,629.6c-0.1,0.1-0.2,0-0.3-0.1c-1.7-4.7-5.3-14.9-6.9-19.2l5.5-3.7c13.4,30.4-0.4-0.9,8,18.3L1336.9,629.6z
					 M1340.6,600.3C1340.6,600.3,1340.6,600.3,1340.6,600.3L1340.6,600.3z M1340.7,600.5c0,0,0-0.1-0.1-0.2v-4.2
					c4.9,1.7,10,2.5,15.3,2.5c5,0,10.1-0.8,15.1-2.4v4.3l-9.3,22.1h-11.8C1342.7,605.4,1341,601.3,1340.7,600.5z M1361.9,629.6
					l-2.3,6.8h-7.6l-2.3-6.8H1361.9z M1348.5,675.1l4.1-31.8h6.4l4.1,31.8H1348.5z"/>
			</g>
		</g>
	</g>
	<g>
		<path class="st1" d="M532.8,514.1c0,2.3,1.8,4.1,4.1,4.1H586c2.3,0,4.1-1.8,4.1-4.1c0-11.5-6.8-21.4-16.6-26
			c2.6-2.9,4.3-6.7,4.3-10.9c0-9-7.4-16.4-16.4-16.4c-9,0-16.4,7.4-16.4,16.4c0,4.2,1.6,8,4.3,10.9
			C539.6,492.7,532.8,502.6,532.8,514.1z M553.3,477.2c0-4.5,3.7-8.2,8.2-8.2s8.2,3.7,8.2,8.2s-3.7,8.2-8.2,8.2
			C556.9,485.4,553.3,481.7,553.3,477.2z M561.5,493.6c9.9,0,18.2,7.1,20.1,16.4h-40.1C543.3,500.7,551.6,493.6,561.5,493.6z"/>
		<path class="st1" d="M598.3,542.8c0,2.3,1.8,4.1,4.1,4.1h49.2c2.3,0,4.1-1.8,4.1-4.1c0-11.5-6.8-21.4-16.6-26
			c2.6-2.9,4.3-6.7,4.3-10.9c0-9-7.4-16.4-16.4-16.4s-16.4,7.4-16.4,16.4c0,4.2,1.6,8,4.3,10.9C605.1,521.4,598.3,531.3,598.3,542.8
			z M618.8,505.9c0-4.5,3.7-8.2,8.2-8.2s8.2,3.7,8.2,8.2c0,4.5-3.7,8.2-8.2,8.2S618.8,510.4,618.8,505.9z M627,522.3
			c9.9,0,18.2,7.1,20.1,16.4h-40.1C608.8,529.3,617.1,522.3,627,522.3z"/>
		<path class="st1" d="M627,620.6c-9,0-16.4,7.4-16.4,16.4c0,4.2,1.6,8,4.3,10.9c-9.8,4.6-16.6,14.5-16.6,26c0,2.3,1.8,4.1,4.1,4.1
			h49.2c2.3,0,4.1-1.8,4.1-4.1c0-11.5-6.8-21.4-16.6-26c2.6-2.9,4.3-6.7,4.3-10.9C643.4,628,636.1,620.6,627,620.6z M618.8,637
			c0-4.5,3.7-8.2,8.2-8.2s8.2,3.7,8.2,8.2s-3.7,8.2-8.2,8.2S618.8,641.5,618.8,637z M647.1,669.8h-40.1c1.9-9.3,10.2-16.4,20.1-16.4
			C636.9,653.4,645.2,660.5,647.1,669.8L647.1,669.8z"/>
		<path class="st1" d="M532.8,702.6c0,2.3,1.8,4.1,4.1,4.1H586c2.3,0,4.1-1.8,4.1-4.1c0-11.5-6.8-21.4-16.6-26
			c2.6-2.9,4.3-6.7,4.3-10.9c0-9-7.4-16.4-16.4-16.4c-9,0-16.4,7.4-16.4,16.4c0,4.2,1.6,8,4.3,10.9
			C539.6,681.2,532.8,691.1,532.8,702.6z M553.3,665.7c0-4.5,3.7-8.2,8.2-8.2s8.2,3.7,8.2,8.2c0,4.5-3.7,8.2-8.2,8.2
			C556.9,673.9,553.3,670.2,553.3,665.7z M561.5,682.1c9.9,0,18.2,7.1,20.1,16.4h-40.1C543.3,689.1,551.6,682.1,561.5,682.1z"/>
		<path class="st1" d="M667.8,582.4c2.6-2.9,4.3-6.7,4.3-10.9c0-9-7.4-16.4-16.4-16.4c-9,0-16.4,7.4-16.4,16.4c0,4.2,1.6,8,4.3,10.9
			c-9.8,4.6-16.6,14.5-16.6,26c0,2.3,1.8,4.1,4.1,4.1h49.2c2.3,0,4.1-1.8,4.1-4.1C684.4,596.9,677.6,587,667.8,582.4z M647.5,571.5
			c0-4.5,3.7-8.2,8.2-8.2s8.2,3.7,8.2,8.2s-3.7,8.2-8.2,8.2S647.5,576,647.5,571.5z M635.6,604.2c1.9-9.3,10.2-16.4,20.1-16.4
			c9.9,0,18.2,7.1,20.1,16.4H635.6z"/>
		<path class="st1" d="M467.2,542.8c0,2.3,1.8,4.1,4.1,4.1h49.2c2.3,0,4.1-1.8,4.1-4.1c0-11.5-6.8-21.4-16.6-26
			c2.6-2.9,4.3-6.7,4.3-10.9c0-9-7.4-16.4-16.4-16.4c-9,0-16.4,7.4-16.4,16.4c0,4.2,1.6,8,4.3,10.9
			C474,521.4,467.2,531.3,467.2,542.8z M487.7,505.9c0-4.5,3.7-8.2,8.2-8.2s8.2,3.7,8.2,8.2c0,4.5-3.7,8.2-8.2,8.2
			S487.7,510.4,487.7,505.9z M495.9,522.3c9.9,0,18.2,7.1,20.1,16.4h-40.1C477.7,529.3,486,522.3,495.9,522.3z"/>
		<path class="st1" d="M467.2,673.9c0,2.3,1.8,4.1,4.1,4.1h49.2c2.3,0,4.1-1.8,4.1-4.1c0-11.5-6.8-21.4-16.6-26
			c2.6-2.9,4.3-6.7,4.3-10.9c0-9-7.4-16.4-16.4-16.4c-9,0-16.4,7.4-16.4,16.4c0,4.2,1.6,8,4.3,10.9
			C474,652.5,467.2,662.4,467.2,673.9z M487.7,637c0-4.5,3.7-8.2,8.2-8.2s8.2,3.7,8.2,8.2s-3.7,8.2-8.2,8.2S487.7,641.5,487.7,637z
			 M495.9,653.4c9.9,0,18.2,7.1,20.1,16.4h-40.1C477.7,660.5,486,653.4,495.9,653.4z"/>
		<path class="st1" d="M438.5,608.3c0,2.3,1.8,4.1,4.1,4.1h49.2c2.3,0,4.1-1.8,4.1-4.1c0-11.5-6.8-21.4-16.6-26
			c2.6-2.9,4.3-6.7,4.3-10.9c0-9-7.4-16.4-16.4-16.4c-9,0-16.4,7.4-16.4,16.4c0,4.2,1.6,8,4.3,10.9
			C445.3,587,438.5,596.9,438.5,608.3z M459,571.5c0-4.5,3.7-8.2,8.2-8.2s8.2,3.7,8.2,8.2s-3.7,8.2-8.2,8.2S459,576,459,571.5z
			 M467.2,587.8c9.9,0,18.2,7.1,20.1,16.4h-40.1C449,594.9,457.3,587.8,467.2,587.8z"/>
		<path class="st1" d="M516.4,583.7c0,24.9,20.2,45.1,45.1,45.1s45.1-20.2,45.1-45.1c0-24.9-20.2-45.1-45.1-45.1
			S516.4,558.9,516.4,583.7z M561.5,546.9c20.3,0,36.9,16.5,36.9,36.9c0,20.3-16.5,36.9-36.9,36.9c-20.3,0-36.9-16.5-36.9-36.9
			C524.6,563.4,541.1,546.9,561.5,546.9z"/>
	</g>
	<g>
		<path class="st1" d="M2090,514.1c0,2.3,1.8,4.1,4.1,4.1h49.2c2.3,0,4.1-1.8,4.1-4.1c0-11.5-6.8-21.4-16.6-26
			c2.6-2.9,4.3-6.7,4.3-10.9c0-9-7.4-16.4-16.4-16.4s-16.4,7.4-16.4,16.4c0,4.2,1.6,8,4.3,10.9C2096.8,492.7,2090,502.6,2090,514.1z
			 M2110.5,477.2c0-4.5,3.7-8.2,8.2-8.2s8.2,3.7,8.2,8.2s-3.7,8.2-8.2,8.2S2110.5,481.7,2110.5,477.2z M2118.7,493.6
			c9.9,0,18.2,7.1,20.1,16.4h-40.1C2100.5,500.7,2108.8,493.6,2118.7,493.6z"/>
		<path class="st1" d="M2155.6,542.8c0,2.3,1.8,4.1,4.1,4.1h49.2c2.3,0,4.1-1.8,4.1-4.1c0-11.5-6.8-21.4-16.6-26
			c2.6-2.9,4.3-6.7,4.3-10.9c0-9-7.4-16.4-16.4-16.4c-9,0-16.4,7.4-16.4,16.4c0,4.2,1.6,8,4.3,10.9
			C2162.4,521.4,2155.6,531.3,2155.6,542.8z M2176.1,505.9c0-4.5,3.7-8.2,8.2-8.2c4.5,0,8.2,3.7,8.2,8.2c0,4.5-3.7,8.2-8.2,8.2
			C2179.8,514.1,2176.1,510.4,2176.1,505.9z M2184.3,522.3c9.9,0,18.2,7.1,20.1,16.4h-40.1C2166.1,529.3,2174.4,522.3,2184.3,522.3z
			"/>
		<path class="st1" d="M2184.3,620.6c-9,0-16.4,7.4-16.4,16.4c0,4.2,1.6,8,4.3,10.9c-9.8,4.6-16.6,14.5-16.6,26
			c0,2.3,1.8,4.1,4.1,4.1h49.2c2.3,0,4.1-1.8,4.1-4.1c0-11.5-6.8-21.4-16.6-26c2.6-2.9,4.3-6.7,4.3-10.9
			C2200.7,628,2193.3,620.6,2184.3,620.6z M2176.1,637c0-4.5,3.7-8.2,8.2-8.2c4.5,0,8.2,3.7,8.2,8.2s-3.7,8.2-8.2,8.2
			C2179.8,645.2,2176.1,641.5,2176.1,637z M2204.3,669.8h-40.1c1.9-9.3,10.2-16.4,20.1-16.4C2194.2,653.4,2202.4,660.5,2204.3,669.8
			L2204.3,669.8z"/>
		<path class="st1" d="M2090,702.6c0,2.3,1.8,4.1,4.1,4.1h49.2c2.3,0,4.1-1.8,4.1-4.1c0-11.5-6.8-21.4-16.6-26
			c2.6-2.9,4.3-6.7,4.3-10.9c0-9-7.4-16.4-16.4-16.4s-16.4,7.4-16.4,16.4c0,4.2,1.6,8,4.3,10.9C2096.8,681.2,2090,691.1,2090,702.6z
			 M2110.5,665.7c0-4.5,3.7-8.2,8.2-8.2s8.2,3.7,8.2,8.2c0,4.5-3.7,8.2-8.2,8.2S2110.5,670.2,2110.5,665.7z M2118.7,682.1
			c9.9,0,18.2,7.1,20.1,16.4h-40.1C2100.5,689.1,2108.8,682.1,2118.7,682.1z"/>
		<path class="st1" d="M2225.1,582.4c2.6-2.9,4.3-6.7,4.3-10.9c0-9-7.4-16.4-16.4-16.4s-16.4,7.4-16.4,16.4c0,4.2,1.6,8,4.3,10.9
			c-9.8,4.6-16.6,14.5-16.6,26c0,2.3,1.8,4.1,4.1,4.1h49.2c2.3,0,4.1-1.8,4.1-4.1C2241.6,596.9,2234.8,587,2225.1,582.4z
			 M2204.8,571.5c0-4.5,3.7-8.2,8.2-8.2s8.2,3.7,8.2,8.2s-3.7,8.2-8.2,8.2S2204.8,576,2204.8,571.5z M2192.9,604.2
			c1.9-9.3,10.2-16.4,20.1-16.4s18.2,7.1,20.1,16.4H2192.9z"/>
		<path class="st1" d="M2024.5,542.8c0,2.3,1.8,4.1,4.1,4.1h49.2c2.3,0,4.1-1.8,4.1-4.1c0-11.5-6.8-21.4-16.6-26
			c2.6-2.9,4.3-6.7,4.3-10.9c0-9-7.4-16.4-16.4-16.4c-9,0-16.4,7.4-16.4,16.4c0,4.2,1.6,8,4.3,10.9
			C2031.3,521.4,2024.5,531.3,2024.5,542.8z M2045,505.9c0-4.5,3.7-8.2,8.2-8.2c4.5,0,8.2,3.7,8.2,8.2c0,4.5-3.7,8.2-8.2,8.2
			C2048.6,514.1,2045,510.4,2045,505.9z M2053.2,522.3c9.9,0,18.2,7.1,20.1,16.4h-40.1C2035,529.3,2043.3,522.3,2053.2,522.3z"/>
		<path class="st1" d="M2024.5,673.9c0,2.3,1.8,4.1,4.1,4.1h49.2c2.3,0,4.1-1.8,4.1-4.1c0-11.5-6.8-21.4-16.6-26
			c2.6-2.9,4.3-6.7,4.3-10.9c0-9-7.4-16.4-16.4-16.4c-9,0-16.4,7.4-16.4,16.4c0,4.2,1.6,8,4.3,10.9
			C2031.3,652.5,2024.5,662.4,2024.5,673.9z M2045,637c0-4.5,3.7-8.2,8.2-8.2c4.5,0,8.2,3.7,8.2,8.2s-3.7,8.2-8.2,8.2
			C2048.6,645.2,2045,641.5,2045,637z M2053.2,653.4c9.9,0,18.2,7.1,20.1,16.4h-40.1C2035,660.5,2043.3,653.4,2053.2,653.4z"/>
		<path class="st1" d="M1995.8,608.3c0,2.3,1.8,4.1,4.1,4.1h49.2c2.3,0,4.1-1.8,4.1-4.1c0-11.5-6.8-21.4-16.6-26
			c2.6-2.9,4.3-6.7,4.3-10.9c0-9-7.4-16.4-16.4-16.4c-9,0-16.4,7.4-16.4,16.4c0,4.2,1.6,8,4.3,10.9
			C2002.6,587,1995.8,596.9,1995.8,608.3z M2016.3,571.5c0-4.5,3.7-8.2,8.2-8.2c4.5,0,8.2,3.7,8.2,8.2s-3.7,8.2-8.2,8.2
			C2020,579.6,2016.3,576,2016.3,571.5z M2024.5,587.8c9.9,0,18.2,7.1,20.1,16.4h-40.1C2006.3,594.9,2014.6,587.8,2024.5,587.8z"/>
		<path class="st1" d="M2073.6,583.7c0,24.9,20.2,45.1,45.1,45.1s45.1-20.2,45.1-45.1c0-24.9-20.2-45.1-45.1-45.1
			S2073.6,558.9,2073.6,583.7z M2118.7,546.9c20.3,0,36.9,16.5,36.9,36.9c0,20.3-16.5,36.9-36.9,36.9s-36.9-16.5-36.9-36.9
			C2081.8,563.4,2098.4,546.9,2118.7,546.9z"/>
	</g>
	<g id="XMLID_23_">
		<path id="XMLID_24_" class="st1" d="M1897,1282.5c-11,0-16.7-6.2-21.4-11.3c-4.4-4.7-7.8-8.4-14.9-8.4s-10.6,3.8-14.9,8.4
			c-4.7,5-10.4,11.3-21.4,11.3s-16.7-6.2-21.4-11.3c-4.4-4.7-7.8-8.4-14.9-8.4s-10.6,3.8-14.9,8.4c-4.7,5-10.4,11.3-21.4,11.3
			c-11,0-16.7-6.2-21.4-11.3c-4.4-4.7-7.8-8.4-14.9-8.4s-10.6,3.8-14.9,8.4c-4.7,5-10.4,11.3-21.4,11.3s-16.7-6.2-21.4-11.3
			c-4.4-4.7-7.8-8.4-15-8.4c-7.1,0-10.6,3.8-14.9,8.4c-4.7,5-10.4,11.3-21.4,11.3s-16.7-6.2-21.4-11.3c-4.4-4.7-7.8-8.4-15-8.4
			c-7.1,0-10.6,3.8-15,8.4c-4.7,5-10.4,11.3-21.4,11.3c-2.5,0-4.4-1.9-4.4-4.4s1.9-4.4,4.4-4.4c7.1,0,10.6-3.8,15-8.4
			c4.7-5,10.4-11.3,21.4-11.3c11,0,16.7,6.2,21.4,11.3c4.4,4.7,7.8,8.4,15,8.4c7.1,0,10.6-3.8,14.9-8.4c4.7-5,10.4-11.3,21.4-11.3
			c11,0,16.7,6.2,21.4,11.3c4.4,4.7,7.8,8.4,15,8.4c7.1,0,10.6-3.8,14.9-8.4c4.7-5,10.4-11.3,21.4-11.3s16.7,6.2,21.4,11.3
			c4.4,4.7,7.8,8.4,14.9,8.4c7.1,0,10.6-3.8,14.9-8.4c4.7-5,10.4-11.3,21.4-11.3s16.7,6.2,21.4,11.3c4.4,4.7,7.8,8.4,14.9,8.4
			s10.6-3.8,14.9-8.4c4.7-5,10.4-11.3,21.4-11.3c11,0,16.7,6.2,21.4,11.3c4.4,4.7,7.8,8.4,14.9,8.4c2.5,0,4.4,1.9,4.4,4.4
			S1899.5,1282.5,1897,1282.5z"/>
	</g>
	<g id="XMLID_19_">
		<path id="XMLID_20_" class="st1" d="M1167.1,1282.5c-11,0-16.7-6.2-21.4-11.3c-4.4-4.7-7.8-8.4-14.9-8.4c-7.1,0-10.6,3.8-14.9,8.4
			c-4.7,5-10.4,11.3-21.4,11.3s-16.7-6.2-21.4-11.3c-4.4-4.7-7.8-8.4-14.9-8.4s-10.6,3.8-14.9,8.4c-4.7,5-10.4,11.3-21.4,11.3
			s-16.7-6.2-21.4-11.3c-4.4-4.7-7.8-8.4-14.9-8.4c-7.1,0-10.6,3.8-14.9,8.4c-4.7,5-10.4,11.3-21.4,11.3c-11,0-16.7-6.2-21.4-11.3
			c-4.4-4.7-7.8-8.4-15-8.4c-7.1,0-10.6,3.8-14.9,8.4c-4.7,5-10.4,11.3-21.4,11.3c-11,0-16.7-6.2-21.4-11.3c-4.4-4.7-7.8-8.4-15-8.4
			c-7.1,0-10.6,3.8-15,8.4c-4.7,5-10.4,11.3-21.4,11.3c-2.5,0-4.4-1.9-4.4-4.4s1.9-4.4,4.4-4.4c7.1,0,10.6-3.8,15-8.4
			c4.7-5,10.4-11.3,21.4-11.3c11,0,16.7,6.2,21.4,11.3c4.4,4.7,7.8,8.4,15,8.4c7.1,0,10.6-3.8,14.9-8.4c4.7-5,10.4-11.3,21.4-11.3
			c11,0,16.7,6.2,21.4,11.3c4.4,4.7,7.8,8.4,15,8.4c7.1,0,10.6-3.8,14.9-8.4c4.7-5,10.4-11.3,21.4-11.3c11,0,16.7,6.2,21.4,11.3
			c4.4,4.7,7.8,8.4,14.9,8.4c7.1,0,10.6-3.8,14.9-8.4c4.7-5,10.4-11.3,21.4-11.3s16.7,6.2,21.4,11.3c4.4,4.7,7.8,8.4,14.9,8.4
			s10.6-3.8,14.9-8.4c4.7-5,10.4-11.3,21.4-11.3c11,0,16.7,6.2,21.4,11.3c4.4,4.7,7.8,8.4,14.9,8.4c2.5,0,4.4,1.9,4.4,4.4
			S1169.6,1282.5,1167.1,1282.5z"/>
	</g>
	<path class="st1" d="M209.9,1325c-29.2,0-53.1-23.8-53.1-53.1c0-29.2,23.8-53.1,53.1-53.1s53.1,23.8,53.1,53.1
		C263,1301.2,239.2,1325,209.9,1325z M209.9,1227.8c-24.3,0-44.1,19.8-44.1,44.1c0,24.3,19.8,44.1,44.1,44.1s44.1-19.8,44.1-44.1
		C254,1247.6,234.2,1227.8,209.9,1227.8z"/>
	<g>
		<g>
			<g>
				<path class="st1" d="M1293.6,1303L1293.6,1303C1293.6,1303,1293.8,1302.9,1293.6,1303z"/>
				<path class="st1" d="M1293.6,1303L1293.6,1303C1293.6,1303,1293.6,1303,1293.6,1303z"/>
				<path class="st1" d="M1440.3,1354.4l-2.1-10.4c-0.4-1.9-2.2-3.1-4.1-2.7c-1.9,0.4-3.1,2.2-2.7,4.1l2.1,10.4
					c0.8,3.9-2.2,7.6-6.2,7.6H1407v-15.8c0-1.9-1.6-3.5-3.5-3.5c-1.9,0-3.5,1.6-3.5,3.5v15.8h-29.9l-4.5-34.9l2.3-6.8
					c1.5,0.8,4.2,4.4,8.9,3c2.1-0.7,3.9-2.3,4.6-4.4c4.1-11.5,4.5-12.6,6.7-18.7c7.4,2.2,24.9,7.3,25.1,7.4l0,0
					c0.5,0.2,1,0.3,2.6,0.8c3.5,1.3,9.4,4.7,11,12.9l1.4,6.9c0.4,1.9,2.2,3.1,4.1,2.7c1.9-0.4,3.1-2.2,2.7-4.1l-1.4-6.9
					c-2.3-11.6-10.7-16.3-15.5-18.1c-0.2-0.1,1.8,0.5-30.7-9.1l-9.6-6.5v-6.1c12-6.2,20.9-17.4,24.3-30.8c1.3,0.6,2.8,1,4.3,1
					c4.7,0,8.7-3.4,9.6-7.8c6.2-3.4,10.2-9.9,10.2-17.1c0-4.2-1.3-8.2-3.7-11.4v-15.9c0-17.9-7-34.7-19.7-47.3
					c-12.6-12.5-29.3-19.4-47-19.4c-14.7,0-28.8,4.8-40.7,14c-1.5,1.2-1.8,3.4-0.6,4.9c1.2,1.5,3.4,1.8,4.9,0.6
					c10.5-8.2,23.1-12.5,36.4-12.5c15.9,0,30.8,6.2,42.1,17.4c11.4,11.3,17.7,26.4,17.7,42.4v8.7c-1-2.6-3.1-4.7-5.7-5.7v-3
					c0-29.9-24.3-54.1-54.1-54.1s-54.1,24.3-54.1,54.1v3c-2.6,1-4.7,3.1-5.7,5.7v-8c0-13.5,4.3-26.3,12.6-37
					c1.2-1.5,0.9-3.7-0.6-4.9c-1.5-1.2-3.7-0.9-4.9,0.6c-9.2,11.9-14,26.2-14,41.3v15.2c-2.3,3.2-3.7,7.2-3.7,11.4
					c0,7.2,3.9,13.7,10.2,17.1c0.7,3.4,3.2,6.2,6.4,7.3c0.9,4.3,3.1,8.3,6.3,11.7c3.1,3.2,7,5.7,11.4,7.2c1.1,1.3,2.2,2.5,3.4,3.6
					c3.2,3,6.7,5.6,10.5,7.6v6.3l-9.4,6.4c-27.7,8.2-30.5,9-30.6,9l0,0c-0.1,0-0.2,0.1-0.2,0.1l0,0c-4.8,1.8-13.2,6.5-15.5,18.1
					l-6.7,33.6c-1.6,8.1,4.6,15.6,12.8,15.6h33.6c1.9,0,3.5-1.6,3.5-3.5s-1.6-3.5-3.5-3.5h-5.9v-15.8c0-1.9-1.6-3.5-3.5-3.5
					s-3.5,1.6-3.5,3.5v15.8h-20.7c-3.8,0-6.7-3.5-5.9-7.2l6.7-33.6c1.6-8.2,7.6-11.6,11-12.9c4.5-1.3,20.3-6,27.8-8.2
					c1.6,4.4,5.1,14.3,6.7,18.7c0.7,2.1,2.4,3.7,4.6,4.4c4.1,1.2,6.3-1.2,8.9-3l2.3,6.9l-4.5,34.9h-7.7c-1.9,0-3.5,1.6-3.5,3.5
					c0,1.9,1.6,3.5,3.5,3.5c4.5,0,88.6,0,93.5,0C1435.7,1370.3,1442,1362.6,1440.3,1354.4z M1416.3,1218.5c0.1,0.1,0.1,0.2,0.2,0.3
					c1.8,2.2,2.8,4.9,2.8,7.9c0,3.1-1.1,5.9-3,8.2V1218.5z M1295.2,1218.8c0.1-0.1,0.2-0.2,0.2-0.3v16.3c-1.9-2.2-3-5.1-3-8.2
					C1292.4,1223.8,1293.4,1221,1295.2,1218.8z M1308,1241.9c0,1.6-1.3,2.8-2.8,2.8c-1.6,0-2.8-1.3-2.8-2.8v-0.3v-29.7v-0.3
					c0-1.6,1.3-2.8,2.8-2.8c1.6,0,2.8,1.3,2.8,2.8V1241.9z M1381.8,1298.5c-0.6,1.7-6.1,17.1-6.9,19.2c0,0.1-0.2,0.2-0.3,0.1
					l-6.4-4.7l8-18.3L1381.8,1298.5z M1403.7,1211.6c0-1.6,1.3-2.8,2.8-2.8c1.6,0,2.8,1.3,2.8,2.8v0.3v29.7v0.3
					c0,1.6-1.3,2.8-2.8,2.8c-1.6,0-2.8-1.3-2.8-2.8V1211.6z M1309.1,1250.8c0.2-0.1,0.4-0.2,0.5-0.3c0.4,1.5,0.9,3,1.4,4.5
					C1310.2,1253.7,1309.5,1252.3,1309.1,1250.8z M1314.5,1204.2c-0.8,0.1-1.5,0.3-2.3,0.6c-1-1-2.2-1.9-3.6-2.4v-3
					c0-26,21.2-47.2,47.2-47.2c26,0,47.2,21.2,47.2,47.2v3c-0.9,0.3-1.7,0.8-2.4,1.3c0,0-0.1-0.1-0.1-0.1c-0.1-0.1-0.1-0.1-0.2-0.2
					l-15-11.7c-3.4-2.7-7.6-3.3-11.5-1.8c-10.3,4-36.6,13.3-59,14.2C1314.7,1204.2,1314.6,1204.2,1314.5,1204.2z M1331.7,1271.8
					h10.2c1.4,3.7,5,6.3,9.1,6.3h8.8c5.4,0,9.8-4.4,9.8-9.8c0-5.4-4.4-9.8-9.8-9.8h-8.8c-4.2,0-7.7,2.6-9.1,6.3h-11.4
					c-2.3,0-4.6-0.3-6.8-0.9c-5.6-7.3-8.7-16.3-8.7-25.5v-27.2c0.1,0,0.1,0,0.2,0c0.1,0,0.2,0,0.2,0c23.3-1,50.3-10.6,60.9-14.6
					c1.6-0.6,3.2-0.3,4.7,0.8l14.9,11.6c0.1,0.2,0.7,1,0.7,2.3v27.9c0,22.7-18.5,41-41.1,40.8
					C1346.7,1279.8,1338.4,1276.8,1331.7,1271.8z M1348.2,1268.3c0-1.6,1.3-2.8,2.8-2.8h8.8c1.6,0,2.8,1.3,2.8,2.8
					c0,1.6-1.3,2.8-2.8,2.8h-8.8C1349.5,1271.1,1348.2,1269.9,1348.2,1268.3z M1336.9,1317.8c-0.1,0.1-0.2,0-0.3-0.1
					c-1.7-4.7-5.3-14.9-6.9-19.2l5.5-3.7c13.4,30.4-0.4-0.9,8,18.3L1336.9,1317.8z M1340.6,1288.5
					C1340.6,1288.5,1340.6,1288.5,1340.6,1288.5L1340.6,1288.5z M1340.7,1288.7c0,0,0-0.1-0.1-0.2v-4.2c4.9,1.7,10,2.5,15.3,2.5
					c5,0,10.1-0.8,15.1-2.4v4.3l-9.3,22.1h-11.8C1342.7,1293.6,1341,1289.5,1340.7,1288.7z M1361.9,1317.8l-2.3,6.8h-7.6l-2.3-6.8
					H1361.9z M1348.5,1363.3l4.1-31.8h6.4l4.1,31.8H1348.5z"/>
			</g>
		</g>
	</g>
	<g>
		<path class="st1" d="M532.8,1202.3c0,2.3,1.8,4.1,4.1,4.1H586c2.3,0,4.1-1.8,4.1-4.1c0-11.5-6.8-21.4-16.6-26
			c2.6-2.9,4.3-6.7,4.3-10.9c0-9-7.4-16.4-16.4-16.4c-9,0-16.4,7.4-16.4,16.4c0,4.2,1.6,8,4.3,10.9
			C539.6,1180.9,532.8,1190.8,532.8,1202.3z M553.3,1165.4c0-4.5,3.7-8.2,8.2-8.2s8.2,3.7,8.2,8.2s-3.7,8.2-8.2,8.2
			C556.9,1173.6,553.3,1169.9,553.3,1165.4z M561.5,1181.8c9.9,0,18.2,7.1,20.1,16.4h-40.1C543.3,1188.9,551.6,1181.8,561.5,1181.8z
			"/>
		<path class="st1" d="M598.3,1231c0,2.3,1.8,4.1,4.1,4.1h49.2c2.3,0,4.1-1.8,4.1-4.1c0-11.5-6.8-21.4-16.6-26
			c2.6-2.9,4.3-6.7,4.3-10.9c0-9-7.4-16.4-16.4-16.4s-16.4,7.4-16.4,16.4c0,4.2,1.6,8,4.3,10.9
			C605.1,1209.6,598.3,1219.5,598.3,1231z M618.8,1194.1c0-4.5,3.7-8.2,8.2-8.2s8.2,3.7,8.2,8.2s-3.7,8.2-8.2,8.2
			S618.8,1198.6,618.8,1194.1z M627,1210.5c9.9,0,18.2,7.1,20.1,16.4h-40.1C608.8,1217.5,617.1,1210.5,627,1210.5z"/>
		<path class="st1" d="M627,1308.8c-9,0-16.4,7.4-16.4,16.4c0,4.2,1.6,8,4.3,10.9c-9.8,4.6-16.6,14.5-16.6,26c0,2.3,1.8,4.1,4.1,4.1
			h49.2c2.3,0,4.1-1.8,4.1-4.1c0-11.5-6.8-21.4-16.6-26c2.6-2.9,4.3-6.7,4.3-10.9C643.4,1316.2,636.1,1308.8,627,1308.8z
			 M618.8,1325.2c0-4.5,3.7-8.2,8.2-8.2s8.2,3.7,8.2,8.2c0,4.5-3.7,8.2-8.2,8.2S618.8,1329.7,618.8,1325.2z M647.1,1358h-40.1
			c1.9-9.3,10.2-16.4,20.1-16.4C636.9,1341.6,645.2,1348.6,647.1,1358L647.1,1358z"/>
		<path class="st1" d="M532.8,1390.8c0,2.3,1.8,4.1,4.1,4.1H586c2.3,0,4.1-1.8,4.1-4.1c0-11.5-6.8-21.4-16.6-26
			c2.6-2.9,4.3-6.7,4.3-10.9c0-9-7.4-16.4-16.4-16.4c-9,0-16.4,7.4-16.4,16.4c0,4.2,1.6,8,4.3,10.9
			C539.6,1369.4,532.8,1379.3,532.8,1390.8z M553.3,1353.9c0-4.5,3.7-8.2,8.2-8.2s8.2,3.7,8.2,8.2s-3.7,8.2-8.2,8.2
			C556.9,1362.1,553.3,1358.4,553.3,1353.9z M561.5,1370.3c9.9,0,18.2,7.1,20.1,16.4h-40.1C543.3,1377.3,551.6,1370.3,561.5,1370.3z
			"/>
		<path class="st1" d="M667.8,1270.6c2.6-2.9,4.3-6.7,4.3-10.9c0-9-7.4-16.4-16.4-16.4c-9,0-16.4,7.4-16.4,16.4
			c0,4.2,1.6,8,4.3,10.9c-9.8,4.6-16.6,14.5-16.6,26c0,2.3,1.8,4.1,4.1,4.1h49.2c2.3,0,4.1-1.8,4.1-4.1
			C684.4,1285,677.6,1275.2,667.8,1270.6z M647.5,1259.6c0-4.5,3.7-8.2,8.2-8.2s8.2,3.7,8.2,8.2s-3.7,8.2-8.2,8.2
			S647.5,1264.2,647.5,1259.6z M635.6,1292.4c1.9-9.3,10.2-16.4,20.1-16.4c9.9,0,18.2,7.1,20.1,16.4H635.6z"/>
		<path class="st1" d="M467.2,1231c0,2.3,1.8,4.1,4.1,4.1h49.2c2.3,0,4.1-1.8,4.1-4.1c0-11.5-6.8-21.4-16.6-26
			c2.6-2.9,4.3-6.7,4.3-10.9c0-9-7.4-16.4-16.4-16.4c-9,0-16.4,7.4-16.4,16.4c0,4.2,1.6,8,4.3,10.9
			C474,1209.6,467.2,1219.5,467.2,1231z M487.7,1194.1c0-4.5,3.7-8.2,8.2-8.2s8.2,3.7,8.2,8.2s-3.7,8.2-8.2,8.2
			S487.7,1198.6,487.7,1194.1z M495.9,1210.5c9.9,0,18.2,7.1,20.1,16.4h-40.1C477.7,1217.5,486,1210.5,495.9,1210.5z"/>
		<path class="st1" d="M467.2,1362.1c0,2.3,1.8,4.1,4.1,4.1h49.2c2.3,0,4.1-1.8,4.1-4.1c0-11.5-6.8-21.4-16.6-26
			c2.6-2.9,4.3-6.7,4.3-10.9c0-9-7.4-16.4-16.4-16.4c-9,0-16.4,7.4-16.4,16.4c0,4.2,1.6,8,4.3,10.9
			C474,1340.7,467.2,1350.6,467.2,1362.1z M487.7,1325.2c0-4.5,3.7-8.2,8.2-8.2s8.2,3.7,8.2,8.2c0,4.5-3.7,8.2-8.2,8.2
			S487.7,1329.7,487.7,1325.2z M495.9,1341.6c9.9,0,18.2,7.1,20.1,16.4h-40.1C477.7,1348.6,486,1341.6,495.9,1341.6z"/>
		<path class="st1" d="M438.5,1296.5c0,2.3,1.8,4.1,4.1,4.1h49.2c2.3,0,4.1-1.8,4.1-4.1c0-11.5-6.8-21.4-16.6-26
			c2.6-2.9,4.3-6.7,4.3-10.9c0-9-7.4-16.4-16.4-16.4c-9,0-16.4,7.4-16.4,16.4c0,4.2,1.6,8,4.3,10.9
			C445.3,1275.2,438.5,1285,438.5,1296.5z M459,1259.6c0-4.5,3.7-8.2,8.2-8.2s8.2,3.7,8.2,8.2s-3.7,8.2-8.2,8.2
			S459,1264.2,459,1259.6z M467.2,1276c9.9,0,18.2,7.1,20.1,16.4h-40.1C449,1283.1,457.3,1276,467.2,1276z"/>
		<path class="st1" d="M516.4,1271.9c0,24.9,20.2,45.1,45.1,45.1s45.1-20.2,45.1-45.1s-20.2-45.1-45.1-45.1
			S516.4,1247.1,516.4,1271.9z M561.5,1235.1c20.3,0,36.9,16.5,36.9,36.9s-16.5,36.9-36.9,36.9c-20.3,0-36.9-16.5-36.9-36.9
			S541.1,1235.1,561.5,1235.1z"/>
	</g>
	<g>
		<path class="st1" d="M2090,1202.3c0,2.3,1.8,4.1,4.1,4.1h49.2c2.3,0,4.1-1.8,4.1-4.1c0-11.5-6.8-21.4-16.6-26
			c2.6-2.9,4.3-6.7,4.3-10.9c0-9-7.4-16.4-16.4-16.4s-16.4,7.4-16.4,16.4c0,4.2,1.6,8,4.3,10.9
			C2096.8,1180.9,2090,1190.8,2090,1202.3z M2110.5,1165.4c0-4.5,3.7-8.2,8.2-8.2s8.2,3.7,8.2,8.2s-3.7,8.2-8.2,8.2
			S2110.5,1169.9,2110.5,1165.4z M2118.7,1181.8c9.9,0,18.2,7.1,20.1,16.4h-40.1C2100.5,1188.9,2108.8,1181.8,2118.7,1181.8z"/>
		<path class="st1" d="M2155.6,1231c0,2.3,1.8,4.1,4.1,4.1h49.2c2.3,0,4.1-1.8,4.1-4.1c0-11.5-6.8-21.4-16.6-26
			c2.6-2.9,4.3-6.7,4.3-10.9c0-9-7.4-16.4-16.4-16.4c-9,0-16.4,7.4-16.4,16.4c0,4.2,1.6,8,4.3,10.9
			C2162.4,1209.6,2155.6,1219.5,2155.6,1231z M2176.1,1194.1c0-4.5,3.7-8.2,8.2-8.2c4.5,0,8.2,3.7,8.2,8.2s-3.7,8.2-8.2,8.2
			C2179.8,1202.3,2176.1,1198.6,2176.1,1194.1z M2184.3,1210.5c9.9,0,18.2,7.1,20.1,16.4h-40.1
			C2166.1,1217.5,2174.4,1210.5,2184.3,1210.5z"/>
		<path class="st1" d="M2184.3,1308.8c-9,0-16.4,7.4-16.4,16.4c0,4.2,1.6,8,4.3,10.9c-9.8,4.6-16.6,14.5-16.6,26
			c0,2.3,1.8,4.1,4.1,4.1h49.2c2.3,0,4.1-1.8,4.1-4.1c0-11.5-6.8-21.4-16.6-26c2.6-2.9,4.3-6.7,4.3-10.9
			C2200.7,1316.2,2193.3,1308.8,2184.3,1308.8z M2176.1,1325.2c0-4.5,3.7-8.2,8.2-8.2c4.5,0,8.2,3.7,8.2,8.2c0,4.5-3.7,8.2-8.2,8.2
			C2179.8,1333.4,2176.1,1329.7,2176.1,1325.2z M2204.3,1358h-40.1c1.9-9.3,10.2-16.4,20.1-16.4
			C2194.2,1341.6,2202.4,1348.6,2204.3,1358L2204.3,1358z"/>
		<path class="st1" d="M2090,1390.8c0,2.3,1.8,4.1,4.1,4.1h49.2c2.3,0,4.1-1.8,4.1-4.1c0-11.5-6.8-21.4-16.6-26
			c2.6-2.9,4.3-6.7,4.3-10.9c0-9-7.4-16.4-16.4-16.4s-16.4,7.4-16.4,16.4c0,4.2,1.6,8,4.3,10.9
			C2096.8,1369.4,2090,1379.3,2090,1390.8z M2110.5,1353.9c0-4.5,3.7-8.2,8.2-8.2s8.2,3.7,8.2,8.2s-3.7,8.2-8.2,8.2
			S2110.5,1358.4,2110.5,1353.9z M2118.7,1370.3c9.9,0,18.2,7.1,20.1,16.4h-40.1C2100.5,1377.3,2108.8,1370.3,2118.7,1370.3z"/>
		<path class="st1" d="M2225.1,1270.6c2.6-2.9,4.3-6.7,4.3-10.9c0-9-7.4-16.4-16.4-16.4s-16.4,7.4-16.4,16.4c0,4.2,1.6,8,4.3,10.9
			c-9.8,4.6-16.6,14.5-16.6,26c0,2.3,1.8,4.1,4.1,4.1h49.2c2.3,0,4.1-1.8,4.1-4.1C2241.6,1285,2234.8,1275.2,2225.1,1270.6z
			 M2204.8,1259.6c0-4.5,3.7-8.2,8.2-8.2s8.2,3.7,8.2,8.2s-3.7,8.2-8.2,8.2S2204.8,1264.2,2204.8,1259.6z M2192.9,1292.4
			c1.9-9.3,10.2-16.4,20.1-16.4s18.2,7.1,20.1,16.4H2192.9z"/>
		<path class="st1" d="M2024.5,1231c0,2.3,1.8,4.1,4.1,4.1h49.2c2.3,0,4.1-1.8,4.1-4.1c0-11.5-6.8-21.4-16.6-26
			c2.6-2.9,4.3-6.7,4.3-10.9c0-9-7.4-16.4-16.4-16.4c-9,0-16.4,7.4-16.4,16.4c0,4.2,1.6,8,4.3,10.9
			C2031.3,1209.6,2024.5,1219.5,2024.5,1231z M2045,1194.1c0-4.5,3.7-8.2,8.2-8.2c4.5,0,8.2,3.7,8.2,8.2s-3.7,8.2-8.2,8.2
			C2048.6,1202.3,2045,1198.6,2045,1194.1z M2053.2,1210.5c9.9,0,18.2,7.1,20.1,16.4h-40.1C2035,1217.5,2043.3,1210.5,2053.2,1210.5
			z"/>
		<path class="st1" d="M2024.5,1362.1c0,2.3,1.8,4.1,4.1,4.1h49.2c2.3,0,4.1-1.8,4.1-4.1c0-11.5-6.8-21.4-16.6-26
			c2.6-2.9,4.3-6.7,4.3-10.9c0-9-7.4-16.4-16.4-16.4c-9,0-16.4,7.4-16.4,16.4c0,4.2,1.6,8,4.3,10.9
			C2031.3,1340.7,2024.5,1350.6,2024.5,1362.1z M2045,1325.2c0-4.5,3.7-8.2,8.2-8.2c4.5,0,8.2,3.7,8.2,8.2c0,4.5-3.7,8.2-8.2,8.2
			C2048.6,1333.4,2045,1329.7,2045,1325.2z M2053.2,1341.6c9.9,0,18.2,7.1,20.1,16.4h-40.1C2035,1348.6,2043.3,1341.6,2053.2,1341.6
			z"/>
		<path class="st1" d="M1995.8,1296.5c0,2.3,1.8,4.1,4.1,4.1h49.2c2.3,0,4.1-1.8,4.1-4.1c0-11.5-6.8-21.4-16.6-26
			c2.6-2.9,4.3-6.7,4.3-10.9c0-9-7.4-16.4-16.4-16.4c-9,0-16.4,7.4-16.4,16.4c0,4.2,1.6,8,4.3,10.9
			C2002.6,1275.2,1995.8,1285,1995.8,1296.5z M2016.3,1259.6c0-4.5,3.7-8.2,8.2-8.2c4.5,0,8.2,3.7,8.2,8.2s-3.7,8.2-8.2,8.2
			C2020,1267.8,2016.3,1264.2,2016.3,1259.6z M2024.5,1276c9.9,0,18.2,7.1,20.1,16.4h-40.1C2006.3,1283.1,2014.6,1276,2024.5,1276z"
			/>
		<path class="st1" d="M2073.6,1271.9c0,24.9,20.2,45.1,45.1,45.1s45.1-20.2,45.1-45.1s-20.2-45.1-45.1-45.1
			S2073.6,1247.1,2073.6,1271.9z M2118.7,1235.1c20.3,0,36.9,16.5,36.9,36.9s-16.5,36.9-36.9,36.9s-36.9-16.5-36.9-36.9
			S2098.4,1235.1,2118.7,1235.1z"/>
	</g>
</g>
</svg>
