<?xml version="1.0" encoding="utf-8"?>
<!-- Generator: Adobe Illustrator 25.0.1, SVG Export Plug-In . SVG Version: 6.00 Build 0)  -->
<svg version="1.1" id="Layer_1" xmlns="http://www.w3.org/2000/svg" xmlns:xlink="http://www.w3.org/1999/xlink" x="0px" y="0px"
	 viewBox="0 0 329 220.1" style="enable-background:new 0 0 329 220.1;" xml:space="preserve">
<style type="text/css">
	.st0{fill:#9DAAD3;}
	.st1{fill:#17181C;}
	.st2{fill:#E69376;}
	.st3{fill:#0B152A;}
	.st4{fill:#F6A382;}
	.st5{fill:#151F34;}
	.st6{fill:#00B8C4;}
	.st7{fill:#3B2314;}
	.st8{fill:#F79F7D;}
	.st9{fill:#E0856E;}
	.st10{fill:#E98A6F;}
	.st11{fill:#3EC0C5;}
	.st12{fill:#699ED4;}
	.st13{fill:#104473;}
	.st14{fill:#065098;}
	.st15{fill:#862952;}
	.st16{fill:#260F00;}
	.st17{fill:#3F1900;}
	.st18{fill:#561136;}
	.st19{fill:#6651A1;}
	.st20{fill:#122A67;}
	.st21{fill:#24386F;}
	.st22{fill:#355194;}
	.st23{fill:#A3DDF5;}
	.st24{fill:#CB4E7E;}
	.st25{fill:#7C284B;}
	.st26{fill:#FFFFFF;}
	.st27{fill:#437FC0;}
	.st28{fill:#3DAEE3;}
	.st29{fill:#196EAA;}
	.st30{fill:#053B6B;}
	.st31{fill:#007FA2;}
	.st32{fill:#030308;}
	.st33{fill:#30528A;}
	.st34{fill:#FFD37C;}
	.st35{fill:#394572;}
	.st36{fill:#424887;}
	.st37{fill:#5760AA;}
	.st38{fill:#6174B7;}
	.st39{fill:#A0426E;}
	.st40{fill:#4F1531;}
	.st41{fill:#00468A;}
	.st42{fill:#0058A8;}
	.st43{fill:#340E07;}
	.st44{fill:#F3B68E;}
	.st45{fill:#F7B68D;}
	.st46{fill:#DC9D7E;}
	.st47{fill:#E6E7E8;}
	.st48{fill:#C6E9FA;}
</style>
<g id="Grupo_12780" transform="translate(-733.203 -308.586)">
	<g id="Grupo_12686" transform="translate(807.955 308.586)">
		<path id="Trazado_12097" class="st0" d="M80.4,114.2c0,4.5-8.2,8.1-18.2,8.1S44,118.6,44,114.2s8.2-8.1,18.2-8.1
			S80.4,109.7,80.4,114.2z"/>
		<g id="Grupo_12685" transform="translate(1.075)">
			<g id="Grupo_12667" transform="translate(20.979 109.081)">
				<g id="Grupo_12666">
					<path id="Trazado_12098" class="st1" d="M46.3,3.3c1,0.9,2.2,1.6,3.4,2c1,0.3,2.1,0,2.8-0.7c0.2-0.2,0.2-0.6,0-0.8
						c0,0-0.1,0-0.1-0.1C48.7,0.8,47.6,0,47.6,0h-3.5C44,0.6,44,1.3,44,2c0.5,0.6,1.1,1,1.9,1.1C46,3.1,46.1,3,46.2,3L46.3,3.3z"/>
				</g>
				<path id="Trazado_12099" d="M52.5,3.7c0,0.1,0,0.2-0.1,0.2c-0.4,0.6-1.1,0.9-1.8,0.9c-0.8-0.1-1.5-0.3-2.2-0.7
					c-0.6-0.3-1.2-0.7-1.8-1.2c-0.4-0.3-0.9-0.5-1.3-0.7c-0.5-0.3-0.9-0.6-1.4-0.9C44,1.6,44,2,44,2c0.5,0.6,1.1,1,1.9,1.1
					C46,3.1,46.1,3,46.2,3l0.1,0.2c1,0.9,2.2,1.6,3.4,2c1,0.3,2.1,0,2.8-0.7C52.8,4.3,52.8,4,52.5,3.7C52.5,3.7,52.5,3.7,52.5,3.7z"
					/>
			</g>
			<g id="Grupo_12668" transform="translate(15.797 52.572)">
				<path id="Trazado_12100" class="st2" d="M48.9,28.4c3.8,4.2,5.4-0.2,5.4-0.2l0.5-26.1c0,0.4,0.2-2.6-4.7-2S44,2.6,44,2.6
					S46.7,20.7,48.9,28.4"/>
				<path id="Trazado_12101" class="st2" d="M54.3,27.9c0,0-2,27.5-2.1,28.5c0,0-2.4,0.5-2.4,0c0-1.3-2.7-17.4-2.8-19.5
					c-0.1-5.2,1.3-6.2,2.6-9.8C49.6,27.1,54.3,23.6,54.3,27.9z"/>
			</g>
			<g id="Grupo_12670" transform="translate(15.797 52.572)">
				<g id="Grupo_12669">
					<path id="Trazado_12102" class="st3" d="M48,28.6c-2.2-7.8-4-26-4-26s1.2-1.9,6.1-2.5s4.7,2.4,4.7,2c0.5,8.6,0.4,17.2-0.5,25.8
						C54.3,27.9,51,30.5,48,28.6z"/>
					<path id="Trazado_12103" class="st3" d="M48.9,28.4c3.8,4.2,5.4-0.2,5.4-0.2"/>
					<path id="Trazado_12104" class="st3" d="M53.5,56.3c0.6-0.8,0.8-28.4,0.8-28.4c0-4.2-5.2-2.3-5.2-2.3c-1.5,3.5-2.2,7.4-2,11.3
						c0,2.1,1.4,18.5,1.4,19.8C48.5,56.6,51.9,58.6,53.5,56.3z"/>
				</g>
			</g>
			<path id="Trazado_12105" class="st3" d="M60,49.2c-1.5,2.8-1.5,6.1,0,8.9c2.6,4.7,10.5,3,10.6-3.1C70.6,49,65.1,46.7,60,49.2z"/>
			<path id="Trazado_12106" class="st4" d="M56.2,40.6c-0.7,2.4-3.5,11.8-3.5,11.8c10.1,12.1,17.8,1.5,17.9,0.4
				c0.1-1.3-1.4-6.4-1.6-11.8C68.9,41,66.2,36.7,56.2,40.6z"/>
			<path id="Trazado_12107" class="st3" d="M70.5,55.9c0.5-3.3-0.5-6.6-1-9.9H54.6c-1,3.2-1.9,6.4-1.9,6.4s-0.6,7.5,5.7,8.4
				C58.4,60.8,69.5,62.7,70.5,55.9z"/>
			<g id="Grupo_12671" transform="translate(7.177 53.301)">
				<path id="Trazado_12108" class="st4" d="M46.4,28.3c3.2,4.8,5.4,0.6,5.4,0.6l5.2-25.4c0,0.4-0.2-3.3-5.1-3.4s-6.4,1.6-6.4,1.6
					S45.4,20.3,46.4,28.3"/>
				<path id="Trazado_12109" class="st4" d="M51.8,28.5c0,0-5.1,29-5.4,29.9c0,0-2.4,0.2-2.4-0.4c0.2-1.3-0.3-19.6,0-21.6
					c0.7-5.2,1.4-6.1,3.3-9.4C47.4,27,52.5,24.3,51.8,28.5z"/>
			</g>
			<g id="Grupo_12672" transform="translate(6.556 110.576)">
				<path id="Trazado_12110" class="st1" d="M47.3,0.6L48.7,5c0,0-0.3,3.9-3.4,1.5l-0.9-0.9c-0.3-0.2-0.4-0.6-0.3-1l0.3-1.7l0.3-2.3
					C44.6,0.6,46.6-0.7,47.3,0.6z"/>
				<path id="Trazado_12111" d="M45.3,5.9L44.4,5c-0.2-0.1-0.3-0.3-0.3-0.5l0,0.1c-0.1,0.4,0.1,0.7,0.3,1l0.9,0.9
					C48.4,8.9,48.7,5,48.7,5l-0.1-0.2C48.5,5.7,47.8,7.8,45.3,5.9z"/>
			</g>
			<g id="Grupo_12674" transform="translate(6.079 50.589)">
				<g id="Grupo_12673">
					<path id="Trazado_12112" class="st5" d="M46.8,31.1"/>
					<path id="Trazado_12113" class="st5" d="M46.8,31.1c-1.1-8-0.2-29.3-0.2-29.3s1.3-1.9,6.2-1.8s5.9,5.7,5.9,5.3
						c0,0-4.1,21.8-5.9,27C52.8,32.3,49.7,34.9,46.8,31.1z"/>
					<path id="Trazado_12114" class="st5" d="M48.8,60.9c0.3-0.9,4.3-29.8,4.3-29.8c0-3.9-5.1-3-5.1-3c-1.9,3.3-2.3,4.8-3,10
						c-0.3,2.1-0.8,21-1,22.3C45.4,61.3,47.2,61.5,48.8,60.9z"/>
				</g>
			</g>
			<g id="Grupo_12676" transform="translate(23.303 18.325)">
				<path id="Trazado_12115" class="st2" d="M44.1,3.9c0,0,1.8,12.7,3.5,17.6c0,0,2.9,0.6,3.8-1c0,0-0.3-10.8-0.7-17.4
					C50.7,3.1,47.2-0.9,44.1,3.9z"/>
				<path id="Trazado_12116" class="st2" d="M51.4,20.5c0,0,0.6,10.5,1.2,14.6c0,0-0.5,1.1-1.2,0.3c-1.1-1.4-4.6-14.3-3.9-15.1
					C50.6,16.5,51.4,20.5,51.4,20.5z"/>
				<path id="Trazado_12117" class="st2" d="M49.4,6c-1.5,1.1-3.6,0.8-4.7-0.6c-1.1-1.5-0.8-3.6,0.6-4.7c0,0,0,0,0,0
					c1.5-1.1,3.6-0.8,4.7,0.6C51.2,2.8,50.9,4.9,49.4,6C49.4,6,49.4,6,49.4,6z"/>
				<g id="Grupo_12675" transform="translate(7.039 33.857)">
					<path id="Trazado_12118" class="st2" d="M44.5,3.3L45,4.8L44.5,7c0,0,0.4,0.3,0.7-0.5l0.5-1.8L45.3,3L44.5,3.3z"/>
					<path id="Trazado_12119" class="st2" d="M45,3.8l0.6,1.4l-0.4,2.2c0,0,0.4,0.2,0.7-0.5l0.4-1.8l-0.5-1.6L45,3.8z"/>
					<path id="Trazado_12120" class="st2" d="M46.7,3.8l-0.6-1.7L45.4,0L44,0.1l0,2.4l0.1,1.2l0.2,1.7l0,0.5c0,0,0.4,0.1,0.6-0.8
						L45,3.4l0.8,1.1l-0.1,2.2c0,0,0.3,1.1,0.6,0.6l0.6-3.2L46.7,3.8z"/>
				</g>
			</g>
			<path id="Trazado_12121" class="st6" d="M71.6,18.3c1.9,0.5,3.2,2.3,3.2,4.2l0.5,12.7c-2.1,1.3-4.5,1.9-7,1.7
				C68.3,37,63.8,20,71.6,18.3z"/>
			<path id="Trazado_12122" class="st7" d="M69.3,7.5c0.6-0.5,1-1.2,1.1-2c0-0.2-0.2-0.3-0.2-0.5s0.1-0.3,0.2-0.5
				c0.1-0.3,0.2-0.6,0.2-1c0-0.3,0.1-0.9-0.1-1.1c-0.3-0.4-0.9-0.1-1.2,0.1c-0.7,0.4-1,1-1.7,1.4c-0.5,0.3-0.9,0.7-1.1,1.3
				c-0.4,0.7-0.8,2,0.1,2.5C67.5,8.2,68.5,8.1,69.3,7.5z"/>
			<path id="Trazado_12123" class="st4" d="M53.5,84"/>
			<path id="Trazado_12124" class="st8" d="M61.3,14.8c0,0-0.6-1.1-1.9-3.4c-1.6-1.7-2.1-4.3-1.2-6.5c0,0,0.9-3,6.2-2.6
				C64.3,2.4,64.8,10.7,61.3,14.8z"/>
			<path id="Trazado_12125" class="st4" d="M61.1,10.1c0,0,0.9,8.3-1,8.9l6.8-0.4c0,0-1.1-2.5,0.2-4.4L61.1,10.1z"/>
			<path id="Trazado_12126" class="st9" d="M66.5,17.2c-0.1-1.9,0.1-2.3,0.5-2.9l-5.9-4.2c0.2,1.7,0.2,3.4,0.2,5.1
				C62.6,16.6,64.5,17.3,66.5,17.2z"/>
			<path id="Trazado_12127" class="st4" d="M71.6,18.3c1.5,1.1,1.7,3.7,1.1,5.4c-0.6,1.9-0.9,4.3-1.5,7c-0.8,3.7-1.4,6.6-2.3,10.2
				c-0.8,3-13,0.6-13,0.6l-4.4-15c0,0-0.8-3.9,2.8-5.2c2.1-1.1,4.2-2.1,6.5-2.9c1.8-0.7,3.8-1,5.8-0.7C68.3,17.8,70,18,71.6,18.3z"
				/>
			<path id="Trazado_12128" class="st8" d="M68.4,15.4l0.3-0.9l0.7-3.5c0.1-0.5,0.1-1-0.1-1.4c-0.1-0.5-0.2-1-0.1-1.5
				c0.3-1.3,0-2.7-0.9-3.8c-1.6-2.2-5-2-5-2c-2.4,0.2-4.2,2.1-4.3,4.5c-0.5,2.7,1.7,4.9,1.7,4.9c0.2,0.2,0.1,1.1,0.2,1.3
				c0.4,1,1.2,1.8,2.3,2.1c1.1,0.5,2.2,0.9,3.4,1C67,16.1,68.2,16,68.4,15.4z"/>
			<path id="Trazado_12129" class="st7" d="M62.5,6.8c1.3-1.5,3.7-0.1,5.2-1.1c0.7-0.4,0.7-1.2,1.7-1.2c2,0,1.8-2.2,0.7-2.8
				c-0.2,0-0.5,0-0.7,0c-0.6,0.1-0.9,0.3-1.5,0.1c-0.6-0.3-1.1-0.6-1.7-0.9c-0.7-0.5-1.5-0.8-2.3-0.9c-1,0-1.3,0.7-2.1,1.2
				c-0.5,0.2-1.1,0.4-1.7,0.5c-0.8,0.3-1.6,0.8-2.3,1.3c-0.5,0.3-1.3,0.7-1.2,1.4c0.1,0.7,0.8,0.8,0.6,1.6c-0.3,1.3-0.2,2.6,0.4,3.8
				c0.3,0.8,0.6,1.5,1,2.2c0.5,0.7,1,1.3,1.6,1.8c0.4,0.3,0.8,0.7,1.2,1.1c0-1.7-0.3-1.5,0.1-2.4c0.2-0.3,0-0.6-0.1-0.9
				s-0.4-0.6-0.4-0.9c0.2,0.1,0.4,0.1,0.5,0c0.2-0.2,0-0.8,0.1-1c0.1-0.8,0.3-1.6,0.6-2.3C62.2,7.1,62.3,7,62.5,6.8z"/>
			<g id="Grupo_12682" transform="translate(15.353 9.941)">
				<g id="Grupo_12681">
					<g id="Grupo_12680">
						<g id="Grupo_12679">
							<g id="Grupo_12678">
								<g id="Grupo_12677">
									<path id="Trazado_12130" class="st8" d="M46,2.5c-0.2,0.1-0.4,0.2-0.6,0.3c-0.7,0-1.3-0.5-1.4-1.2c-0.1-0.7,0.3-1.3,1-1.5
										c0,0,0,0,0.1,0c0.3,0,0.6,0.1,0.9,0.3c0.3,0.4,0.5,0.9,0.4,1.4C46.3,2,46.2,2.3,46,2.5z"/>
								</g>
							</g>
						</g>
					</g>
				</g>
			</g>
			<path id="Trazado_12131" class="st10" d="M67.2,10.8L66,11.2c0,0,1.5,0.1,1.6-0.4c0,0-0.2-0.9-0.5-1.7
				C67.2,9.1,67.4,10.7,67.2,10.8z"/>
			<path id="Trazado_12132" class="st5" d="M53.7,49.4c-1.5,2.8-1.5,6.1,0,8.9c2.6,4.7,10.5,3,10.6-3.1
				C64.3,49.2,58.8,46.9,53.7,49.4z"/>
			<path id="Trazado_12133" class="st11" d="M66.6,17.7c1.7,0.1,3.4,0.3,5.1,0.6c1.5,1.1,1.7,3.7,1.1,5.4c-0.6,1.9-0.9,4.3-1.5,7
				c-0.8,3.7-0.8,6.6-1.7,10.3c-0.8,3-15.1,0.3-15.1,0.3l-2.9-14.8c0,0-0.8-3.9,2.8-5.2c2-1.1,4.1-2.1,6.3-2.9c0,0-0.4,2.9,4.3,2.1
				C64.9,20.6,67.8,19.9,66.6,17.7z"/>
			<path id="Trazado_12134" class="st11" d="M54.5,41.3c-0.7,2.4-2.1,10.2-2.1,10.2c1.9,7.7,19,2.2,19.1,1.1
				c0.1-1.3-1.4-7.1-1.6-12.6C69.8,40,64.5,37.4,54.5,41.3z"/>
			<path id="Trazado_12135" class="st4" d="M57.8,27.7c-1.7,1.9-7.6,10.6-9.4,12c-0.5,0.4-4.5,2.1-4.4-1c4.9-11,8.6-16,8.6-16
				s3.9-1.8,5.8,1.4C58.4,24.1,59,26.4,57.8,27.7z"/>
			<path id="Trazado_12136" class="st4" d="M59.1,24.9c0.4,2.2-1.1,4.2-3.3,4.6c-2.2,0.4-4.2-1.1-4.6-3.3c-0.4-2.2,1.1-4.2,3.3-4.6
				C56.7,21.3,58.8,22.7,59.1,24.9C59.1,24.9,59.1,24.9,59.1,24.9z"/>
			<path id="Trazado_12137" class="st11" d="M55.6,20.7c-1.9,0.8-3.6,2.1-4.8,3.8l-4,6.1c0,0,1.6,4.6,5.7,5.6l6.3-7.7
				C58.8,28.5,62.4,24,55.6,20.7z"/>
			<path id="Trazado_12138" class="st4" d="M48.9,38.4c2.5,4.3,4.9,8.7,6.9,13.3c0,0,0,1.6-1.2,1.1S44.4,41.2,44.4,40
				C44.2,36.9,48.9,38.4,48.9,38.4z"/>
			<g id="Grupo_12684" transform="translate(10.686 51.746)">
				<g id="Grupo_12683">
					<path id="Trazado_12139" class="st4" d="M46.1,4c-1.6-1.4-1.7-1.8-1.9-2.4c-0.9-2.3,1.9-1.6,2.6-1.2c0.4,0.2,0.2,1.2,1.1,2.7
						c0,0,1.7,1.7,2.2,1.7c0,0,0.5,0.2,0.4,0.6C50.5,5.3,48.9,5.8,46.1,4z"/>
				</g>
				<path id="Trazado_12140" class="st4" d="M46.9,0.4c0,0-1.1,0.3-0.1,1.2l1.5,0.5c0.2,0.1,0.5,0.1,0.6-0.1c0,0,0.1-0.3-0.3-0.5
					L46.9,0.4z"/>
			</g>
		</g>
	</g>
	<g id="Grupo_12696" transform="translate(742.426 314.857)">
		<g id="Grupo_12695">
			<g id="Grupo_12694">
				<g id="Grupo_12687" transform="translate(0 148.104)">
					<rect id="Rectángulo_2992" x="44" y="0" class="st12" width="10" height="1.3"/>
					<rect id="Rectángulo_2993" x="55.5" y="0" class="st12" width="5" height="1.3"/>
				</g>
				<g id="Grupo_12688" transform="translate(212.602 108.827)">
					<rect id="Rectángulo_2994" x="44" y="0" class="st12" width="11.6" height="1.5"/>
					<rect id="Rectángulo_2995" x="57.4" y="0" class="st12" width="5.8" height="1.5"/>
				</g>
				<g id="Grupo_12689" transform="translate(199.626 60.391)">
					<rect id="Rectángulo_2996" x="50.5" y="0" class="st12" width="10" height="1.3"/>
					<rect id="Rectángulo_2997" x="44" y="0" class="st12" width="5" height="1.3"/>
				</g>
				<g id="Grupo_12690" transform="translate(110.376 7.34)">
					
						<rect id="Rectángulo_2998" x="44.5" y="0.2" transform="matrix(0.707 -0.7072 0.7072 0.707 12.4043 32.2883)" class="st12" width="1.3" height="2"/>
					
						<rect id="Rectángulo_2999" x="46.9" y="2.6" transform="matrix(0.7071 -0.7071 0.7071 0.7071 11.4185 34.6585)" class="st12" width="1.3" height="2"/>
					
						<rect id="Rectángulo_3000" x="46.6" y="0.5" transform="matrix(0.7071 -0.7071 0.7071 0.7071 13.0969 33.9631)" class="st12" width="2" height="1.3"/>
					
						<rect id="Rectángulo_3001" x="44.2" y="2.9" transform="matrix(0.7071 -0.7071 0.7071 0.7071 10.7233 32.9806)" class="st12" width="2" height="1.3"/>
				</g>
				<g id="Grupo_12691" transform="translate(1.212 65.23)">
					
						<rect id="Rectángulo_3002" x="44.5" y="0.2" transform="matrix(0.707 -0.7072 0.7072 0.707 12.4043 32.2883)" class="st12" width="1.3" height="2"/>
					
						<rect id="Rectángulo_3003" x="46.9" y="2.6" transform="matrix(0.7072 -0.707 0.707 0.7072 11.4157 34.6553)" class="st12" width="1.3" height="2"/>
					
						<rect id="Rectángulo_3004" x="46.6" y="0.5" transform="matrix(0.7071 -0.7071 0.7071 0.7071 13.0963 33.9635)" class="st12" width="2" height="1.3"/>
					
						<rect id="Rectángulo_3005" x="44.2" y="2.9" transform="matrix(0.7071 -0.7071 0.7071 0.7071 10.7233 32.9806)" class="st12" width="2" height="1.3"/>
				</g>
				<g id="Grupo_12692" transform="translate(144.429 63.02)">
					
						<rect id="Rectángulo_3006" x="44.5" y="0.2" transform="matrix(0.7071 -0.7071 0.7071 0.7071 12.4015 32.2855)" class="st12" width="1.3" height="2"/>
					
						<rect id="Rectángulo_3007" x="46.9" y="2.6" transform="matrix(0.7071 -0.7071 0.7071 0.7071 11.4178 34.6588)" class="st12" width="1.3" height="2"/>
					
						<rect id="Rectángulo_3008" x="46.6" y="0.5" transform="matrix(0.7071 -0.7072 0.7072 0.7071 13.0986 33.9659)" class="st12" width="2" height="1.3"/>
					
						<rect id="Rectángulo_3009" x="44.2" y="2.9" transform="matrix(0.7071 -0.7072 0.7072 0.7071 10.7254 32.983)" class="st12" width="2" height="1.3"/>
				</g>
				<g id="Grupo_12693" transform="translate(223.604 140.51)">
					
						<rect id="Rectángulo_3010" x="44.5" y="0.2" transform="matrix(0.707 -0.7072 0.7072 0.707 12.4043 32.2883)" class="st12" width="1.3" height="2"/>
					
						<rect id="Rectángulo_3011" x="46.9" y="2.6" transform="matrix(0.7071 -0.7071 0.7071 0.7071 11.4182 34.6589)" class="st12" width="1.4" height="2"/>
					
						<rect id="Rectángulo_3012" x="46.6" y="0.5" transform="matrix(0.7071 -0.7071 0.7071 0.7071 13.0968 33.9636)" class="st12" width="2" height="1.4"/>
					
						<rect id="Rectángulo_3013" x="44.2" y="2.9" transform="matrix(0.7071 -0.7071 0.7071 0.7071 10.7232 32.9805)" class="st12" width="2" height="1.3"/>
				</g>
				<path id="Trazado_12142" class="st12" d="M246.5,4.8c-1.3,0-2.4-1.1-2.4-2.4c0-1.3,1.1-2.4,2.4-2.4c1.3,0,2.4,1.1,2.4,2.4
					C248.9,3.7,247.8,4.8,246.5,4.8z M246.5,1.3c-0.6,0-1.1,0.5-1.1,1.1c0,0.6,0.5,1.1,1.1,1.1s1.1-0.5,1.1-1.1c0,0,0,0,0,0
					C247.5,1.8,247,1.4,246.5,1.3L246.5,1.3z"/>
				<path id="Trazado_12143" class="st12" d="M90.7,6.8c-1.3,0-2.4-1.1-2.4-2.4S89.4,2,90.7,2c1.3,0,2.4,1.1,2.4,2.4
					S92,6.8,90.7,6.8L90.7,6.8z M90.7,3.4c-0.6,0-1.1,0.5-1.1,1.1c0,0.6,0.5,1.1,1.1,1.1c0.6,0,1.1-0.5,1.1-1.1
					C91.8,3.8,91.3,3.4,90.7,3.4L90.7,3.4z"/>
				<path id="Trazado_12144" class="st12" d="M102.3,84.4c-1.3,0-2.4-1.1-2.4-2.4s1.1-2.4,2.4-2.4c1.3,0,2.4,1.1,2.4,2.4
					S103.6,84.4,102.3,84.4L102.3,84.4z M102.3,81c-0.6,0-1.1,0.5-1.1,1.1s0.5,1.1,1.1,1.1s1.1-0.5,1.1-1.1
					C103.4,81.4,102.9,81,102.3,81L102.3,81z"/>
			</g>
		</g>
	</g>
	<g id="Grupo_12708" transform="translate(878.29 314.051)">
		<g id="Grupo_12707" transform="translate(0 0)">
			<g id="Grupo_12698" transform="translate(28.756 110.009)">
				<g id="Grupo_12697" transform="translate(0)">
					<path id="Trazado_12146" class="st1" d="M50.4,3.3c-1,0.9-2.2,1.6-3.4,2c-1,0.3-2.1,0-2.8-0.7c-0.2-0.2-0.2-0.6,0-0.8
						c0,0,0,0,0.1-0.1C48,0.8,49.1,0,49.1,0h3.5c0.1,0.6,0.1,1.3,0.1,2c-0.5,0.6-1.1,1-1.9,1.2c-0.1,0-0.2-0.1-0.3-0.1L50.4,3.3z"/>
				</g>
				<path id="Trazado_12147" d="M44.2,3.7c0,0.1,0,0.2,0.1,0.2c0.4,0.6,1.1,0.9,1.8,0.9c0.8-0.1,1.5-0.3,2.2-0.7
					c0.6-0.3,1.2-0.7,1.8-1.2c0.4-0.3,0.9-0.5,1.3-0.7c0.5-0.3,0.9-0.6,1.4-0.9c0,0.4,0,0.7,0,0.7c-0.5,0.6-1.1,1-1.9,1.2
					c-0.1,0-0.2-0.1-0.3-0.1l-0.1,0.2c-1,0.9-2.2,1.6-3.4,2c-1,0.3-2.1,0-2.8-0.7C43.9,4.3,43.9,4,44.2,3.7
					C44.2,3.7,44.2,3.7,44.2,3.7z"/>
			</g>
			<g id="Grupo_12699" transform="translate(31.867 53.5)">
				<path id="Trazado_12148" class="st2" d="M49.9,28.4c-3.8,4.2-5.4-0.2-5.4-0.2L44,2.1c0,0.4-0.2-2.6,4.7-2s6.1,2.5,6.1,2.5
					S52.1,20.7,49.9,28.4"/>
				<path id="Trazado_12149" class="st2" d="M44.5,27.9c0,0,2,27.5,2.1,28.5c0,0,2.4,0.5,2.4,0c0-1.3,2.7-17.4,2.8-19.5
					c0.1-5.2-1.3-6.2-2.6-9.8C49.1,27.1,44.5,23.6,44.5,27.9z"/>
			</g>
			<g id="Grupo_12701" transform="translate(31.188 53.5)">
				<g id="Grupo_12700">
					<path id="Trazado_12150" class="st13" d="M51.7,29.4c2.2-7.8,3.7-26.8,3.7-26.8s-1.2-1.9-6.1-2.5s-4.7,2.4-4.7,2
						c-0.8,9-0.9,18-0.1,27C44.6,29.1,48.7,31.3,51.7,29.4z"/>
				</g>
			</g>
			<path id="Trazado_12151" class="st4" d="M90.2,41.6c0.7,2.4,3.5,11.8,3.5,11.8C83.6,65.5,76,54.9,75.9,53.7
				c-0.1-1.3,1.4-6.4,1.6-11.8C77.5,41.9,80.3,37.6,90.2,41.6z"/>
			<path id="Trazado_12152" class="st13" d="M75.9,56.8c-0.5-3.3,0.5-6.6,1-9.9h14.9c1,3.2,1.9,6.4,1.9,6.4s0.6,7.5-5.7,8.4
				C88,61.7,76.9,63.6,75.9,56.8z"/>
			<g id="Grupo_12702" transform="translate(38.326 54.229)">
				<path id="Trazado_12153" class="st4" d="M54.5,28.3c-3.2,4.8-5.4,0.6-5.4,0.6L44,3.4c0,0.4,0.2-3.3,5.1-3.4
					c4.9-0.1,6.4,1.6,6.4,1.6S55.6,20.3,54.5,28.3"/>
				<path id="Trazado_12154" class="st4" d="M49.1,28.5c0,0,5.1,29,5.4,29.9c0,0,2.4,0.2,2.4-0.4c-0.2-1.3,0.3-19.6,0-21.6
					c-0.7-5.2-1.4-6.1-3.3-9.4C53.6,27,48.4,24.3,49.1,28.5z"/>
			</g>
			<g id="Grupo_12703" transform="translate(47.143 111.505)">
				<path id="Trazado_12155" class="st1" d="M45.4,0.6L44,5c0,0,0.3,3.9,3.4,1.5l0.9-0.9c0.3-0.2,0.4-0.6,0.3-1l-0.3-1.7l-0.3-2.3
					C48.1,0.6,46.1-0.7,45.4,0.6z"/>
				<path id="Trazado_12156" d="M47.4,5.9L48.4,5c0.2-0.1,0.3-0.3,0.3-0.5l0,0.1c0.1,0.4-0.1,0.7-0.3,1l-0.9,0.9C44.3,8.9,44,5,44,5
					l0.1-0.2C44.2,5.7,44.9,7.8,47.4,5.9z"/>
			</g>
			<g id="Grupo_12705" transform="translate(37.681 51.518)">
				<g id="Grupo_12704">
					<path id="Trazado_12157" class="st5" d="M55.8,31.1"/>
					<path id="Trazado_12158" class="st14" d="M49.2,32.2C47.4,27,44,5.3,44,5.3c0,0.4,1-5.2,5.9-5.3s6.2,1.8,6.2,1.8
						s1.5,21.3,0.5,29.3C56.5,31.1,53.1,35.1,49.2,32.2z"/>
				</g>
			</g>
			<path id="Trazado_12159" class="st2" d="M78.2,24.8c0,0-8.3,9.8-12.4,13c0,0-2.8-1-2.7-2.9c0,0,6.1-9,9.9-14.3
				C73,20.6,78.2,19.1,78.2,24.8z"/>
			<path id="Trazado_12160" class="st2" d="M65.1,33.9c0,0-10.5,0.7-14.6,0.6c0,0-1.1,0.6-0.1,1.2c1.6,1,14.8,2.7,15.5,2
				C69.1,34.2,65.1,33.9,65.1,33.9z"/>
			<path id="Trazado_12161" class="st2" d="M72.6,23.8c0.6,1.7,2.6,2.6,4.3,2c1.7-0.6,2.6-2.6,2-4.3c0,0,0,0,0,0
				c-0.6-1.7-2.6-2.6-4.3-2C72.8,20.1,72,22,72.6,23.8C72.6,23.7,72.6,23.7,72.6,23.8z"/>
			<path id="Trazado_12162" class="st15" d="M76.8,19.3c-1.9-0.6-3.9,0.2-5,1.9l-7.2,10.5c1.1,2.2,2.9,4,5,5.2
				C69.5,36.8,82.5,24.9,76.8,19.3z"/>
			<path id="Trazado_12163" class="st4" d="M93,84.9"/>
			<path id="Trazado_12164" class="st8" d="M85.1,15.7c0,0,0.6-1.1,1.9-3.4c1.6-1.7,2.1-4.3,1.2-6.5c0,0-0.9-3-6.2-2.6
				C82.1,3.3,81.6,11.6,85.1,15.7z"/>
			<path id="Trazado_12165" class="st4" d="M85.4,11c0,0-0.9,8.3,1,8.9l-6.8-0.4c0,0,1.1-2.5-0.2-4.4L85.4,11z"/>
			<path id="Trazado_12166" class="st9" d="M80,18.1c0.1-1.9-0.1-2.3-0.5-2.9l5.9-4.2c-0.2,1.7-0.2,3.4-0.2,5.1
				C83.8,17.5,81.9,18.3,80,18.1z"/>
			<path id="Trazado_12167" class="st4" d="M74.8,19.2c-1.5,1.1-1.7,3.7-1.1,5.4c0.6,1.9,0.9,4.3,1.5,7c0.8,3.7,1.4,6.6,2.3,10.2
				c0.8,3,13,0.6,13,0.6l4.4-15c0,0,0.8-3.9-2.8-5.2c-2.1-1.1-4.2-2.1-6.5-2.9c-1.8-0.7-3.8-1-5.8-0.7
				C78.2,18.7,76.5,18.9,74.8,19.2z"/>
			<path id="Trazado_12168" class="st16" d="M77,3.9c-0.3,1.6-0.7,2.4-0.3,3.9c0.4,1.3,0.3,2.7,0.9,4c0.8,1.8,1.9,1.6,2.7-0.1
				c0.8-1.7,1.7-4-0.2-5.3C78.9,5.6,78.4,4.2,77,3.9L77,3.9z"/>
			<path id="Trazado_12169" class="st8" d="M78,16.4l-0.3-0.9L77,12c-0.1-0.5-0.1-1,0.1-1.4c0.1-0.5,0.2-1,0.1-1.5
				c-0.3-1.3,0-2.7,0.9-3.8c1.6-2.2,5-2,5-2c2.4,0.2,4.2,2.1,4.4,4.5c0.5,2.7-1.7,4.9-1.7,4.9c-0.2,0.2-0.1,1.1-0.2,1.3
				c-0.4,1-1.2,1.8-2.3,2.1c-1.1,0.5-2.2,0.9-3.4,1C79.4,17,78.2,16.9,78,16.4z"/>
			<path id="Trazado_12170" class="st16" d="M77.1,11.9c0.6,0.5,1.3,0.3,1.9,0.6c0.3,0.2,0.7,0.3,1,0.1c0.3-0.1,0.6-0.1,1,0
				c0.4,0.1,1,0.4,1.3,0.5c0.5,0.2,1.1,0.1,1.5-0.3c0.4-0.3,0.6-0.8,0.8-1.2c0.2-0.7,1-1.1,1.7-0.9c0.2,0.1,0.4,0.2,0.6,0.4
				c-0.3,0.6-0.7,1.1-1.2,1.6c-0.1,0.7-0.2,1.4-0.2,2.1c-0.4,1-1.2,1.8-2.3,2.1c-1.2,0.4-2.5,0.6-3.7,0.6c-0.6,0-1.2-0.4-1.5-1
				l-0.3-0.9L77.1,11.9c-0.1,0-0.1-0.1-0.1-0.1C77.1,11.8,77.1,11.9,77.1,11.9z"/>
			<path id="Trazado_12171" class="st16" d="M77.1,5.4c1,0,0.9,0.8,1.7,1.2c1.6,1,4-0.4,5.2,1.1c0.1,0.2,0.2,0.3,0.3,0.5
				c0.3,0.7,0.5,1.5,0.6,2.3c0,0.2-0.1,0.8,0.1,1c0.1,0.1,0.3,0.1,0.5,0c0,0.3-0.2,0.6-0.4,0.9S84.8,13,85,13.4
				c0.4,0.8,0.1,0.7,0.1,2.4c0.3-0.4,0.7-0.8,1.2-1.1c0.6-0.5,1.2-1.1,1.6-1.8c0.4-0.7,0.7-1.4,1-2.2c0.5-1.2,0.6-2.5,0.4-3.8
				c0,0-0.3-3-2.8-3.3c0,0,0.3-1.9-4.2-2.4c0,0-3.6,0.1-3.8-1.2c-0.4,0.4-0.6,1-0.5,1.6c-0.9,0.2-1.9-0.3-2.1-1.2
				C75.8,0.3,74.6,4.8,77.1,5.4z"/>
			<path id="Trazado_12172" class="st14" d="M92.7,50.4c1.5,2.8,1.5,6.1,0,8.9c-2.6,4.7-10.5,3-10.6-3.1
				C82.1,50.1,87.6,47.8,92.7,50.4z"/>
			<path id="Trazado_12173" class="st15" d="M79.9,18.6c-1.7,0.1-3.4,0.3-5.1,0.6c-1.5,1.1-1.7,3.7-1.1,5.4c0.6,1.9,0.9,4.3,1.5,7
				c0.8,3.7-0.2,6.4,0.7,10.1c0.8,3,17,0,17,0l2.1-14.2c0,0,0.8-3.9-2.8-5.2c-2-1.1-4.1-2.1-6.3-2.9c0,0,0.4,2.9-4.3,2.1
				C81.5,21.5,78.7,20.8,79.9,18.6z"/>
			<path id="Trazado_12174" class="st15" d="M92.8,41.8c0.7,2.4,1.2,10.7,1.2,10.7c-1.9,7.7-19,2.2-19.1,1.1
				c-0.1-1.3,0.4-7.6,0.7-13.1C75.7,40.4,82.8,37.8,92.8,41.8z"/>
			<path id="Trazado_12175" class="st4" d="M87.8,27.9c1.1,2.3,5.3,13.7,6.6,15.5c0.4,0.5,3.8,2.7,4.5-0.3
				c-1.9-11.9-4.7-18.7-4.7-18.7s-3.3-2.8-6-0.2C88.2,24.2,87,26.3,87.8,27.9z"/>
			<path id="Trazado_12176" class="st4" d="M87.3,25.8c-0.4,2.2,1.1,4.2,3.3,4.6c2.2,0.4,4.2-1.1,4.6-3.3c0.4-2.2-1.1-4.2-3.3-4.6
				C89.7,22.2,87.7,23.7,87.3,25.8C87.3,25.8,87.3,25.8,87.3,25.8z"/>
			<path id="Trazado_12177" class="st15" d="M91.3,21.9c0,0,3.4,1.3,4.3,4.1l2.1,7.6c0,0-2.8,4-6.9,3.9l-4.1-9.1
				C86.6,28.4,83.9,23.2,91.3,21.9z"/>
			<g id="Grupo_12706" transform="translate(46.981 41.958)">
				<path id="Trazado_12178" class="st4" d="M47.4,1.5c-0.3,5.7-0.2,11.5,0.3,17.2c0,0,0.8,1.4,1.6,0.4s3.2-16.9,2.7-17.9
					C50.6-1.6,47.4,1.5,47.4,1.5z"/>
				<path id="Trazado_12179" class="st4" d="M47.7,18.7l-1.5,1.4L44,21.4c0.4,0.4,1,0.5,1.5,0.2c-0.2,0.9-0.4,1.8-0.6,2.7
					c-0.2,0.6,0.3,0.5,0.3,0.5c0.6-0.7,1-1.6,1.4-2.4c-0.3,1-0.7,1.9-1.1,2.8c-0.1,0.5,0.4,0.4,0.4,0.4c1-0.6,1.4-2.8,1.4-2.8
					c-0.2,0.9-0.5,1.7-0.8,2.6c0.1,0.3,0.3,0.2,0.3,0.2c0.9-0.3,1.3-2.5,1.3-2.5L48,23.9c-0.3,1.1,0.4,0.8,0.4,0.8l0.2-0.5
					c0.4-1,0.6-2.1,0.5-3.1l0-1.9L47.7,18.7z"/>
			</g>
			<path id="Trazado_12180" class="st2" d="M45.5,34.9l1,0.4c0,0-2-0.4-2.2-1.3c0,0-0.1-0.2,0.2-0.3c0.8,0.3,1.5,0.6,2.3,0.8
				c-1-0.2-1.9-0.6-2.7-1c0,0-0.3-0.5,0.3-0.5c-0.3-0.3,0.1-0.4,0.1-0.4c0.4,0,0.8,0,1.2,0.1c0.9,0.1,1.9,0.2,2.8,0.2
				c0,0-0.7-1.1,0-1.5l1.1,1.6l1,1.6l-0.3,1l-2,0.3c-0.9-0.1-1.7-0.2-2.5-0.5C45.9,35.6,43.6,34.4,45.5,34.9z"/>
			<path id="Trazado_12181" class="st14" d="M86.9,83.8l4.4,27.7c0,0,1.5,1.4,4.9,0l0.6-13.6c0,0,1-9-2.5-15.3
				C94.2,82.6,87.2,77,86.9,83.8z"/>
			<path id="Trazado_12182" class="st13" d="M82.9,82.9c0,0,1.9,2.7,0.2,13L81.4,110c-1.3,0.7-2.9,0.7-4.2,0.1l-1.4-28
				C75.7,82.1,77,77.3,82.9,82.9z"/>
		</g>
	</g>
	<g id="Grupo_12723" transform="translate(753.896 328.552)">
		<path id="Trazado_12183" class="st17" d="M60.2,8.2c0.3,2.5,1.2,3.2,0.4,5.9c-0.7,2.5-2.8,4.2-3,6.9c-0.2,1.9,0.3,4.9,1.5,6.4
			c1.8,2.2,5.9,1,8.3,0.6c2.7-0.4,8.6-0.6,10.3-3.3c1.2-2-0.3-5.5-0.8-7.6c-0.6-2.6-1.3-5.2-1.9-7.8C74.4,7,73.7,3,71.8,1.3
			s-4-1.3-6.3-1C62.7,0.6,59.7,5,60.2,8.2z"/>
		<g id="Grupo_12722" transform="translate(3.683)">
			<g id="Grupo_12711" transform="translate(18.744 99.871)">
				<path id="Trazado_12185" class="st18" d="M44.7,6.4L45,6.3l0.3-2.5l-0.8-0.9L44.7,6.4z"/>
				<g id="Grupo_12710">
					<path id="Trazado_12186" class="st5" d="M44.3,6.2l0.4,0.2l-0.1-4.1L44,2.1L44.3,6.2z"/>
					<g id="Grupo_12709">
						<path id="Trazado_12187" class="st2" d="M47.1,1l0.7,2.2c0.4,1,1,2,1.7,3c0,0,1.3,1.9-1.2,1.7c0,0-2.7-0.1-2.7-1.9
							c-0.1-1.2-0.6-2.4-1.3-3.3c-0.3-0.6-0.3-1.3,0.2-1.8l0.5-0.5L47.2,0L47.1,1z"/>
						<path id="Trazado_12188" class="st5" d="M49.6,6.9C48.5,7,47.4,6.7,46.6,6c-0.5-0.7-0.9-1.5-1.2-2.4c0.1,0.3-0.7-2.7-0.5-3.2
							l-0.5,0.5c-0.5,0.5-0.5,1.2-0.2,1.8C45,3.7,45.4,4.8,45.6,6c0,1.7,2.7,1.9,2.7,1.9c1.5,0.1,1.6-0.6,1.5-1.1
							C49.7,6.8,49.6,6.9,49.6,6.9z"/>
						<path id="Trazado_12189" class="st5" d="M50.8,7.6c0,0,0.4,0.7-0.8,0.7c0,0-4.5-0.3-4.5-2.2V4.5c0.3,1.4,1.7,2.4,3.1,2.2
							c0,0,1.2,0,0.6-0.8L50.8,7.6z"/>
					</g>
				</g>
			</g>
			<g id="Grupo_12721">
				<path id="Trazado_12190" class="st4" d="M60.7,16.5h5.9c-0.3-0.9-0.8-3.1,0-4.6l-6-3.9C60.7,8,61.8,14.6,60.7,16.5z"/>
				<path id="Trazado_12191" class="st9" d="M61.4,12.8c0.3,0.8,1,1.4,1.9,1.6c1,0.3,2,0.4,3,0.2c-0.1-0.9,0-1.9,0.4-2.8l-6-3.9
					c0,0,0.3,2,0.4,4.1C61.2,12.4,61.3,12.6,61.4,12.8z"/>
				<path id="Trazado_12192" class="st4" d="M67.8,13.3l0.3-0.9l0.8-2.6c0.1-0.5,0.1-0.9,0-1.4c-0.2-0.7-0.3-1.5-0.1-2.2
					C69.2,5,69,3.7,68.2,2.6c-1.4-2.2-4.7-2.2-4.7-2.2c-2.3,0.1-4.2,1.9-4.4,4.1c-0.3,1.7,0.2,3.5,1.4,4.8C60.8,9.7,61,10,61,10.4
					c0.1,0.4,0.3,0.7,0.6,1c0.6,0.7,1.3,1.2,2.1,1.7c1,0.5,2,0.7,3.1,0.7C67.3,13.8,67.7,13.8,67.8,13.3z"/>
				<g id="Grupo_12714" transform="translate(4.605 100.989)">
					<path id="Trazado_12193" class="st18" d="M44.3,5.6l0.3,0l1.1-2.3l-0.4-1.1L44.3,5.6z"/>
					<g id="Grupo_12713">
						<path id="Trazado_12194" class="st5" d="M44,5.3l0.3,0.3l1.3-3.9L45,1.4L44,5.3z"/>
						<g id="Grupo_12712" transform="translate(0.953)">
							<path id="Trazado_12195" class="st4" d="M47.3,1.3c-0.1,1.8-0.2,3.9,0.5,5.6c0,0,0.7,2.2-1.7,1.3c0,0-2.5-1-1.9-2.6
								c0.3-1.2,0.2-2.4-0.2-3.6c-0.1-0.6,0.2-1.3,0.7-1.6L45.4,0h2.4L47.3,1.3z"/>
							<path id="Trazado_12196" class="st5" d="M47.8,7.6c-1.1-0.2-2-0.8-2.5-1.8c-0.2-0.9-0.4-1.8-0.4-2.6c0,0.4,0.2-2.8,0.6-3.2
								l-0.6,0.4c-0.6,0.3-0.9,1-0.8,1.7c0.4,1.1,0.5,2.4,0.3,3.6c-0.6,1.6,1.9,2.6,1.9,2.6c1.4,0.6,1.7,0,1.8-0.5
								C47.9,7.6,47.8,7.6,47.8,7.6z"/>
							<path id="Trazado_12197" class="st5" d="M48.7,8.7c0,0,0.1,0.8-1,0.4c0,0-4.2-1.7-3.6-3.6l0.5-1.5c-0.1,1.5,0.8,2.8,2.3,3.1
								c0,0,1.2,0.4,0.8-0.6L48.7,8.7z"/>
						</g>
					</g>
				</g>
				<path id="Trazado_12198" class="st4" d="M55.5,74.9c-3,5.5-3.5,7.8-4.1,12c-0.3,2.5-0.2,12.8-0.5,14.3c-0.1,0.6,2.3,0.3,2.3,0.3
					c0.4-1.1,7.5-24.8,7.5-24.8s0.8-2.5,0.1-2.9C57.5,71.7,56.8,72.5,55.5,74.9z"/>
				<path id="Trazado_12199" class="st4" d="M69,34.7c0,0,2.3,9.8,2,10.8c-0.9,3.1-9.6,10.2-17.2,3.9c0,0,1.6-11,5.7-16.2
					C59.5,33.3,60.9,34.7,69,34.7z"/>
				<path id="Trazado_12200" class="st19" d="M67.8,14.9c0,0,3,5.8,4.4,9c-0.6,3.8-2.6,9.3-3.4,10.5c-1.8,2.6-10,0.3-10,0.3
					l-2.4-7.9c6.9-2.5,3.3-9.8,3.3-9.8l1.1-0.7c0.9,2.3,3.2,3.7,5.6,3.5c0,0,1.5-1,0.4-5C67.1,14.8,67.4,14.8,67.8,14.9z"/>
				<path id="Trazado_12201" class="st2" d="M60.3,48.2c0,0,0.8,15.8,3.7,24.2c0.4,1.3,5.4-0.4,5.4-0.4s2.5-13.6,2.4-19.2
					c-0.1-3.2-1.2-10-1.2-10S61.2,41.6,60.3,48.2z"/>
				<path id="Trazado_12202" class="st2" d="M64.1,72.4l5.3-0.4c0,0-3.2,26.9-3.5,28c0,0-2.3,0.8-2.2,0.2c0.1-1.6-1.8-13.6-1.8-16.1
					C61.5,80.1,62.3,76.1,64.1,72.4z"/>
				<g id="Grupo_12715" transform="translate(21.845 15.021)">
					<path id="Trazado_12203" class="st2" d="M44.1,2.8c-0.3,1.9,0.9,3.7,2.8,4c0,0,0,0,0,0c1.9,0.3,6.4,0.5,5.7-1.2
						c-1.4-3.4-3-5.2-4.9-5.5c-1.6-0.3-3.2,0.7-3.6,2.4C44.1,2.6,44.1,2.7,44.1,2.8z"/>
					<path id="Trazado_12204" class="st2" d="M45.7,5.6l1.6-3.1l3.6-0.1c0,0,4.6,8.5,5.5,11.1c0.9,2.7-1.3,1.7-2.2,1.4
						C54.2,14.8,46.6,7.6,45.7,5.6z"/>
					<path id="Trazado_12205" class="st2" d="M54.2,14.8c0,0,3,3.8,4.9,4.7c0,0,2-1.4-2.6-5.6C56.5,13.9,54.8,12.3,54.2,14.8z"/>
				</g>
				<path id="Trazado_12206" class="st4" d="M53.8,49.5c0,0,0.1,15.8,2.1,24.5c0.3,1.3,5.1,0.9,5.1,0.9s3.1-14.9,3.5-20.5
					c0.2-3.2,0.9-8.7,0.9-8.7S54.2,44.6,53.8,49.5z"/>
				<path id="Trazado_12207" class="st4" d="M56.1,18.9c-1.4,1-1.9,2.9-1.2,4.4l4.6,11.1c0,0,7.4,2.5,9.2,0c0.8-1.2,1.6-4.3,2.6-8.8
					c0.7-3.1,0.7-8.4-1-10c-1-0.9-4.2-0.9-4.2-1l-5.2,1.7L56.1,18.9z"/>
				<path id="Trazado_12208" class="st4" d="M65.9,33.6c1,0.2,1.9,0.5,2.8,0.9c0,0,1.7,7.3,1.8,8.4s-7.5,6.8-16,3.6
					c0,0,4.3-10.1,4.9-12.3C60.2,31.7,65.9,33.6,65.9,33.6z"/>
				<path id="Trazado_12209" class="st20" d="M70.1,19.4c0,0,2.5,3,2.7,5.2c0.1,1.2-1.4,3.3-2.2,4C70,29.1,66.8,21.4,70.1,19.4z"/>
				<path id="Trazado_12210" class="st17" d="M61.1,10.9c-0.1-0.6,0-1.2,0-1.7c0-0.5,1.1,0.6,1.1-0.1c-0.1-3.2,1.1-4.8,1.5-5
					c1.1-0.6,2.4-0.9,3.6-0.7c1.6,0.3,1.6,2.5,1.6,2.5c1.4-8-7.5-5.4-7.5-5.4c-2.4,0.5-4.1,2.7-3.9,5.2c-0.5,4.4,3.6,6.9,3.6,6.9
					L61.1,10.9z"/>
				<g id="Grupo_12716" transform="translate(22.087 8.003)">
					<path id="Trazado_12211" class="st10" d="M44,1.6c1.2-0.1,1.2-0.4,1.2-0.4L44.6,0C44.6,0,44.8,1.2,44,1.6z"/>
				</g>
				<g id="Grupo_12719" transform="translate(29.959 27.282)">
					<g id="Grupo_12718">
						<path id="Trazado_12212" class="st21" d="M52.6,0.5l-2.8,11.4c0,0.2-0.1,0.2-0.1,0.2l-5,2.1c-0.1,0-0.2,0-0.2-0.1
							c0,0,0-0.1,0-0.1l2.8-11.3c0-0.2,0.2-0.3,0.2-0.3l5-2.1C52.3,0.3,52.6,0.2,52.6,0.5z"/>
						<g id="Grupo_12717">
							<path id="Trazado_12213" class="st22" d="M44,13.9l0.5,0.3c-0.1,0-0.1-0.2-0.1-0.2l2.8-11.3l-0.4-0.3L44,13.9
								C44,13.8,44,13.8,44,13.9z"/>
							<path id="Trazado_12214" class="st22" d="M47.3,2.4c0,0-0.1,0.1-0.1,0.3l-0.4-0.3c0-0.1,0-0.2,0.1-0.3L47.3,2.4z"/>
							<path id="Trazado_12215" class="st23" d="M46.9,2.1C46.9,2.1,46.9,2.1,46.9,2.1l5-2.1c0.1,0,0.2,0,0.3,0l0.3,0.2
								c0.1,0,0.1,0.1,0.1,0.2c0,0,0-0.2-0.2-0.1l-5,2.1L46.9,2.1z"/>
						</g>
						<path id="Trazado_12216" class="st22" d="M44.6,14.2c-0.1,0-0.1,0-0.1,0c0-0.1-0.1-0.1-0.1-0.2l2.8-11.3
							c0-0.3,0.2-0.3,0.2-0.3l4.9-2.1c0.1,0,0.1,0,0.2,0c0.1,0,0.1,0.1,0.1,0.2v0l-2.8,11.4c0,0.1-0.1,0.2-0.2,0.3L44.6,14.2
							C44.6,14.2,44.6,14.2,44.6,14.2z M44.5,14c0,0,0,0.1,0,0.1c0,0,0.1,0,0.1,0l5-2.1c0,0,0.1,0,0.1-0.2l2.8-11.4c0,0,0-0.1,0-0.1
							c0,0-0.1,0-0.1,0l-5,2.1c0,0-0.1,0-0.1,0.2L44.5,14L44.5,14z"/>
					</g>
					<path id="Trazado_12217" class="st2" d="M51.5,4.7c-0.2,0.5-0.6,0.9-1,1.3c-0.5,0.4-1.3,0.3-1.6,0.5c-0.5,0.5-0.2,1.8,1,3.1
						c1,1.2,1.7-0.4,2.1-1.3c0.5-1,0.5-2.1-0.1-3.1L51.5,4.7z"/>
				</g>
				<path id="Trazado_12218" class="st24" d="M71.8,52.9c-0.1-2.4-0.3-4.9-0.7-7.3C71,43.8,69,34.8,69,34.8c-8.1,0-9.9-1.4-9.9-1.4
					c-2.1,3.7-3.7,7.8-4.5,12c-0.5,2.2-0.7,4.5-0.7,6.8c0.1,3.1,0.2,6.3,0.4,9.4c0,0.5,0.3,6.2,0.6,6.2c0,0,13.6,1.4,15.9-4.7
					C71.4,59.7,71.7,56.3,71.8,52.9z"/>
				<path id="Trazado_12219" class="st20" d="M58.7,34.7c0,0,8.5,2.6,10.3,0c0.8-1.2,2.6-7.1,3.2-10.8c-1.3-3.2-4.4-9-4.4-9
					c-0.4-0.1-0.7-0.1-1.1-0.1c1.1,4.1-0.4,5-0.4,5c-2.4,0.2-4.7-1.2-5.6-3.5L59.6,17c0,0,3.4,7-3.1,10.1
					C56.5,27.2,56.3,34.7,58.7,34.7z"/>
				<g id="Grupo_12720" transform="translate(0 18.976)">
					<path id="Trazado_12220" class="st4" d="M60,2.9c0.3,1.9-1.1,3.7-3,3.9c-1.9,0.3-6.9-0.2-5.9-1.8c2.1-3.1,3.4-4.7,5.3-5
						c1.7-0.3,3.2,0.9,3.5,2.5C60,2.7,60,2.8,60,2.9z"/>
					<path id="Trazado_12221" class="st4" d="M58.3,5.6l-1.5-3.2l-3.6-0.2c0,0-8,8.3-9,10.8c-1,2.7,1.2,1.7,2.1,1.5
						C46.4,14.4,57.3,7.6,58.3,5.6z"/>
					<path id="Trazado_12222" class="st4" d="M44.1,14.5c2.2,3.4,4.8,6.6,7.6,9.4c0,0,1.7-0.1,1.2-1.1c-0.9-1.6-4.4-9.3-5.3-10.9
						C47.2,11,44.1,14.5,44.1,14.5z"/>
					<path id="Trazado_12223" class="st4" d="M53,22.8l2,0.6l0.9-1.1c0,0.7,0.1,1.4,0.3,2.1c0.6,0.7,1.2,1.4,1.7,2.2
						c0.4,0.4-0.1,0.6-0.1,0.6c-0.8-0.4-1.6-0.9-2.3-1.6c0.7,0.7,1.4,1.4,2.2,2c0.3,0.4-0.2,0.5-0.2,0.5c-1.2-0.1-2.5-1.9-2.5-1.9
						c0.6,0.7,1.2,1.3,1.9,1.9c0,0.4-0.2,0.3-0.2,0.3c-1,0.1-2.2-1.7-2.2-1.7l0.5,0.6c0.8,0.8,0,0.9,0,0.9l-0.5-0.4
						c-0.8-0.7-1.5-1.6-1.9-2.6l-0.9-1.7L53,22.8z"/>
				</g>
			</g>
		</g>
		<path id="Trazado_12224" class="st17" d="M70.5,2.6c-2.7,1.5-4.2,2.8-3.5,6.1c0.6,2.9,0.8,4.6-0.8,7.2c-1.5,2.5-1.7,3.9-0.3,6.5
			c1.1,2.1,2.1,4.2-0.6,5.4c-5,2.4-9.6-1.5-7.8-6.9c0.8-2.4,2.9-4.1,3.8-6.4c1-2.4,0-4.4-0.2-6.7c-0.3-4,5.1-9.8,8.5-5.9
			C70,2.2,70.2,2.6,70.5,3L70.5,2.6z"/>
	</g>
	<g id="Grupo_12726" transform="translate(801.783 352.901)">
		<g id="Grupo_12724" transform="translate(0 47.763)">
			<path id="Trazado_12225" class="st25" d="M44,31.6v12.8C44,61.8,68.8,76,99.4,76s55.4-14.1,55.4-31.6V31.6H44z"/>
			<path id="Trazado_12226" class="st24" d="M99.4,63.2C68.8,63.2,44,49,44,31.6S68.8,0,99.4,0s55.4,14.1,55.4,31.6
				S130,63.2,99.4,63.2z"/>
			<path id="Trazado_12227" class="st26" d="M99.4,56.5c-24.1,0-43.6-11.1-43.6-24.9S75.3,6.7,99.4,6.7s43.6,11.1,43.6,24.9
				S123.5,56.5,99.4,56.5z"/>
			<path id="Trazado_12228" class="st24" d="M99.4,50.4c-18.3,0-33-8.4-33-18.8s14.8-18.8,33-18.8s33,8.4,33,18.8
				S117.7,50.4,99.4,50.4z"/>
			<path id="Trazado_12229" class="st26" d="M99.4,44c-12,0-21.7-5.5-21.7-12.4s9.7-12.4,21.7-12.4s21.7,5.5,21.7,12.4
				S111.4,44,99.4,44z"/>
			<path id="Trazado_12230" class="st24" d="M99.4,37.8c-6.1,0-11-2.8-11-6.3s4.9-6.2,11-6.2s11,2.8,11,6.2S105.5,37.8,99.4,37.8z"
				/>
			<path id="Trazado_12231" class="st25" d="M99.4,33.7c-2,0-3.7-0.9-3.7-2.1s1.7-2.1,3.7-2.1s3.7,0.9,3.7,2.1S101.5,33.7,99.4,33.7
				z"/>
		</g>
		<g id="Grupo_12725" transform="translate(44.274)">
			<path id="Trazado_12232" class="st27" d="M55.1,29.9V5.8L66.3,0v22.9L55.1,29.9z"/>
			<path id="Trazado_12233" class="st28" d="M55.1,29.9V5.8L44,0v22.9L55.1,29.9z"/>
			<rect id="Rectángulo_3014" x="53.1" y="4.6" class="st29" width="4" height="75.3"/>
		</g>
	</g>
	<g id="Grupo_12739" transform="translate(896.823 402.345)">
		<path id="Trazado_12234" class="st8" d="M49.2,31.9"/>
		<path id="Trazado_12235" class="st8" d="M49.1,31.9c0,0-0.5-1.2,1.2-1.7c1.8,1,3.8,1.8,5.8,2.2c4,1.4,12.3-0.4,16.1-1.2
			c4.2-0.9,6.2,3.9,2.1,5.5c-7.6,2.9-19.6-0.3-25.2-4.7"/>
		<path id="Trazado_12236" class="st30" d="M88,81.5c-1.7-7.9-2.2-26.2-2.2-26.2s1.4-1.8,6.2-2.1s4.6,2.7,4.5,2.3
			c-0.1,8.6-0.8,17.2-2.2,25.7C94.3,81.2,90.9,83.6,88,81.5z"/>
		<path id="Trazado_12237" class="st31" d="M96.5,56.4c0.5-3.3-0.5-6.6-1-9.9H80.6c-1,3.2-1.9,6.4-1.9,6.4s-0.6,7.5,5.7,8.4
			C84.4,61.4,95.5,63.3,96.5,56.4z"/>
		<g id="Grupo_12727" transform="translate(15.733 109.408)">
			<path id="Trazado_12239" class="st1" d="M49,3.6l0.8,0c0.3,0,0.3,0.4,0.3,0.4c0.6,0.3,1.3,0.5,2,0.6c0,0,1.6-0.2,1.7-0.7
				l-0.2-2.9c-1.7-0.1-3.6-0.5-3.6-0.5L46.3,0c-1.8-0.2-2.2,0.5-2.2,0.5S43,2.2,49,3.6z"/>
			<path id="Trazado_12240" class="st32" d="M51.3,3.5c-0.3-0.1-0.7-0.3-1-0.3c-1.9-0.3-3.7-0.5-5.3-1.7c-0.4-0.3-0.6-0.7-0.7-1.1
				c-0.1,0.1-0.2,0.1-0.2,0.2c0,0-1.1,1.7,4.9,3.1l0.8,0c0.3,0,0.3,0.4,0.3,0.4c0.6,0.3,1.3,0.5,2,0.6c0,0,1.6-0.2,1.7-0.7l-0.1-0.7
				C53.1,3.7,52.1,3.8,51.3,3.5z"/>
		</g>
		<g id="Grupo_12728" transform="translate(41.364 108.688)">
			<path id="Trazado_12241" class="st1" d="M49,3.6l0.8,0c0.3,0,0.3,0.4,0.3,0.4c0.6,0.3,1.3,0.5,2,0.6c0,0,1.6-0.2,1.7-0.7
				l-0.2-2.9c-1.7-0.1-3.6-0.5-3.6-0.5L46.3,0c-1.8-0.2-2.2,0.5-2.2,0.5S43,2.2,49,3.6z"/>
			<path id="Trazado_12242" class="st32" d="M51.3,3.5c-0.3-0.1-0.7-0.3-1-0.3c-1.9-0.3-3.7-0.5-5.3-1.7c-0.4-0.3-0.6-0.7-0.7-1.1
				c-0.1,0.1-0.2,0.1-0.2,0.2c0,0-1.1,1.7,4.9,3.1l0.8,0c0.3,0,0.3,0.4,0.3,0.4c0.6,0.3,1.3,0.5,2,0.6c0,0,1.6-0.2,1.7-0.7l-0.1-0.7
				C53.1,3.7,52.1,3.8,51.3,3.5z"/>
		</g>
		<path id="Trazado_12243" class="st30" d="M90.7,110C90,109.2,88,81.7,88,81.7c-0.3-4.2,6.7-2.5,6.7-2.5c1,4.2,0.9,5,1.2,10.2
			c0.1,2.1-0.2,19.2-0.1,20.5C95.7,109.9,92.5,112.1,90.7,110z"/>
		<path id="Trazado_12244" class="st33" d="M85.3,50.4c0,0-4.2,7.2-1.6,11.9s13.6-0.4,12.9-5.9C95.8,50.4,90.4,47.8,85.3,50.4z"/>
		<path id="Trazado_12245" class="st4" d="M82.2,41.2C81.5,43.6,78.7,53,78.7,53c7.8,7.3,17.8,1.5,17.9,0.4C96.7,52,95.2,47,95,41.5
			C95,41.5,92.2,37.3,82.2,41.2z"/>
		<path id="Trazado_12246" class="st5" d="M79,82.2"/>
		<path id="Trazado_12247" class="st33" d="M72.9,80.2c0.8-8,6.5-28.5,6.5-28.5s1.7-1.5,6.4-0.3s5.3,7.4,5.4,7
			c-3.7,8.4-8,16.6-12.9,24.4C78.4,82.7,74.8,84.5,72.9,80.2z"/>
		<path id="Trazado_12248" class="st33" d="M65.7,109.7c0.1-1,7.3-29.8,7.3-29.8c1.7-3.6,6.5,0.2,6.5,0.2c0.1,3.6-0.5,7.2-1.8,10.7
			c-0.7,2-6.7,19.7-7.2,21C70.6,111.7,67,112.9,65.7,109.7z"/>
		<g id="Grupo_12729" transform="translate(49.849 19.45)">
			<path id="Trazado_12249" class="st2" d="M50.7,3.1c0,0,0.8,12.9,0.3,18.2c0,0,0,2.4-4.2,3.6c0,0-1.5-14.4-2.8-20.8
				C44.1,4,46.5-0.8,50.7,3.1z"/>
			<path id="Trazado_12250" class="st2" d="M46.1,6.4c1.7,0.7,3.7-0.1,4.4-1.8C51.2,3,50.4,1,48.7,0.3c0,0,0,0,0,0
				C47-0.5,45,0.3,44.3,2C43.5,3.7,44.3,5.7,46.1,6.4C46,6.4,46,6.4,46.1,6.4z"/>
		</g>
		<path id="Trazado_12251" class="st34" d="M97.7,18.9c1.9,0.5,3.2,2.3,3.2,4.2l0.5,12.7c-2.1,1.3-4.5,1.9-7,1.7
			C94.4,37.5,89.8,20.5,97.7,18.9z"/>
		<path id="Trazado_12252" class="st4" d="M79.5,84.6"/>
		<path id="Trazado_12253" class="st4" d="M86.1,10.8c0,0,0,4.6-0.4,9.1l6-1c-0.5-1.3-0.4-2.7,0.4-3.9L86.1,10.8z"/>
		<path id="Trazado_12254" class="st4" d="M97.7,18.9c1.5,1.1,1.7,3.7,1.1,5.4c-0.6,1.9-0.9,4.3-1.5,7c-0.8,3.7-1.4,6.6-2.3,10.2
			c-0.8,3-13,0.6-13,0.6l-4.4-15c0,0-0.8-3.9,2.8-5.2c2.1-1.1,4.2-2.1,6.5-2.9c1.8-0.7,3.8-1,5.8-0.7C94.3,18.3,96,18.5,97.7,18.9z"
			/>
		<path id="Trazado_12255" class="st33" d="M79.7,50c-1.5,2.8-1.5,6.1,0,8.9c2.6,4.7,10.5,3,10.6-3.1C90.3,49.8,84.8,47.5,79.7,50z"
			/>
		<path id="Trazado_12256" class="st34" d="M92.6,18.3c1.7,0.1,3.4,0.3,5.1,0.6c1.6,1.1,1.5,3.4,1.2,5.1c-0.6,3.3-1.2,6.6-1.5,9.8
			c-0.1,1.5-0.5,4.4-0.6,5.9c0,1.3-0.8,2.5-2,3c-1.1,0.6-1.9,0.1-3.1,0.1c-3,0-6.1-0.2-9.1-0.6c-0.1,0-4.9,3.2-3.3,0.8l-1.7-15.9
			c0,0-0.8-3.9,2.8-5.2c1.7-1,3.4-1.8,5.2-2.5C85.6,19.5,90.3,19.6,92.6,18.3z"/>
		<path id="Trazado_12257" class="st8" d="M84.1,16l-0.3-1l-0.6-3.6c-0.1-0.5,0-1,0.1-1.5c0.2-0.5,0.2-1,0.2-1.5
			c-0.3-1.4,0.1-2.9,1.1-3.9c1.7-2.2,5.2-1.9,5.2-1.9c1.8,0.1,3.4,1.2,4.4,2.7c0.9,1.5,1.2,3.3,0.8,5.1c-0.5,1.8-1.6,3.4-3,4.6
			c-0.9,0.7-1.9,1.1-2.9,1.4c-1,0.3-2.1,0.5-3.2,0.5C85.5,16.8,84.2,16.6,84.1,16z"/>
		<path id="Trazado_12258" class="st17" d="M84.8,6l0.6,2.3c0.6,0.1,1,0.7,0.8,1.3c0,0,0,0,0,0.1L86,11.5l0.5,0.2c0-0.7,1-0.8,1-0.8
			c0.8,0,0.9,0.6,0.8,1.2c-0.1,1.6,0.5,4.2,1.8,4.6c0.5,0.2,1.5,0.4,1.7-0.4c0.5-1,1.1-1.9,1.9-2.6c2-2.1,2.6-5.1,1.6-7.8
			c-0.3-0.8-0.8-1.5-1.4-2.1c-1.2-1.1-2.8-1.8-4.5-2c-1.2-0.2-2.5,0.1-3.6,0.6c-0.6,0.4-1.2,0.9-1.7,1.5C83.8,4.7,84.1,5.5,84.8,6z"
			/>
		<g id="Grupo_12734" transform="translate(42.263 10.718)">
			<g id="Grupo_12733">
				<g id="Grupo_12732">
					<g id="Grupo_12731">
						<g id="Grupo_12730">
							<path id="Trazado_12259" class="st8" d="M44.4,2.5c0.2,0.1,0.4,0.2,0.6,0.2c0.7,0,1.3-0.6,1.3-1.3c0.1-0.7-0.4-1.3-1-1.4
								c0,0,0,0-0.1,0c-0.3,0-0.6,0.1-0.9,0.3c-0.3,0.4-0.4,0.9-0.3,1.4C44,2,44.2,2.3,44.4,2.5z"/>
						</g>
					</g>
				</g>
			</g>
		</g>
		<g id="Grupo_12737" transform="translate(42.946 11.162)">
			<g id="Grupo_12735" transform="translate(0.209)">
				<path id="Trazado_12260" class="st10" d="M44,0.3c0.1-0.4,0.9,0,0.7,0.3c-0.1,0.1-0.2,0.2-0.3,0.3c-0.2,0.1-0.3,0.2-0.3,0.4
					c0,0,0,0.1,0,0.1C44.2,1.4,44.6,1,44.7,1c0.2-0.2,0.2-0.4,0.1-0.6c0-0.2-0.2-0.3-0.4-0.3C44.2,0,44,0,44,0.3
					C44,0.2,44,0.3,44,0.3L44,0.3z"/>
			</g>
			<g id="Grupo_12736" transform="translate(0 0.639)">
				<path id="Trazado_12261" class="st10" d="M44.5,0c-0.1-0.1-0.2,0-0.3,0c-0.1,0.1-0.1,0.1-0.2,0.2C44,0.5,44,0.8,44.1,1
					c0.1,0.2,0.2,0.3,0.4,0.3c0.2,0,0.3-0.2,0.4-0.4c0-0.1,0-0.2,0-0.2s-0.1,0-0.1,0.1c-0.1,0-0.1,0.1-0.2,0.1
					c-0.1,0-0.3-0.1-0.4-0.2c0,0,0,0,0-0.1c0,0.1,0,0.2,0,0.1c0,0,0-0.1,0.1-0.1c0.1-0.1,0.2-0.1,0.2-0.2C44.4,0.2,44.5,0.1,44.5,0
					L44.5,0z"/>
			</g>
		</g>
		<g id="Grupo_12738" transform="translate(1.309 27.989)">
			<path id="Trazado_12262" class="st4" d="M45.2,0.3c0.5-0.2,0.4-0.5,1-0.2c0.6,0.4,1.3,0.5,1.7,0.8c0.7,0.5,2.8,3,0,3.2
				c-0.7,0.1-2.9,0.8-3.4-0.3c-0.7-1.5-0.5-1,0-2.9L45.2,0.3z"/>
		</g>
		<path id="Trazado_12263" class="st4" d="M83.5,24.8c1.1,1.7,0.6,4.1-1.1,5.2c-1.7,1.1-4.1,0.6-5.2-1.1c-1.1-1.7-0.6-4.1,1.1-5.2
			C80.1,22.6,82.4,23.1,83.5,24.8C83.5,24.8,83.5,24.8,83.5,24.8z"/>
		<path id="Trazado_12264" class="st34" d="M78.8,38.8C78.3,43.9,78,56.4,78,56.4c1.8,4.9,19.2,0.8,19.3-0.3
			c0.1-1.3-0.2-10.7-0.5-16.1C91.3,36.9,84.7,36.4,78.8,38.8z"/>
		<path id="Trazado_12265" class="st34" d="M83.3,21.9c-3.5-1.2-7,3.4-7,3.4l-7,6.1c0,0,1.8,6.4,5,7.3c0,0,8-4.2,10.8-9.1
			C85.2,29.7,87.2,26.9,83.3,21.9z"/>
		<path id="Trazado_12266" class="st17" d="M83.8,5.9c0.5,0.4,1.2,0.1,1.8,0c0.8,0.9-0.2,1.9,1.1,2.3c0.8,0.2,1.5,0.4,2.3,0.4
			c0.6,0.1,1.1,0,1.6,0.4c0.4,0.5,0,1.9,0.5,2.2c0.9,0.5,1.6-2,2.8-1.8c1,0.2,1.2,1.7,0.8,2.5c0.1-0.1,0.2-0.1,0.3-0.2
			c0.5-1.2,1.1-1.3,1.6-2.1c0.6-0.7,0.8-1.5,0.8-2.3c0,0-0.2-0.6-0.2-0.6c-0.4-1.4-1-1.6-1.3-2.2c-0.4-0.6-0.8-1.1-1.3-1.6
			c-0.3-0.6-0.7-1.1-1-1.6c-0.8-0.7-1.7-1.1-2.7-1.2c-1-0.1-2,0.5-3,0.3C87.5,0.3,87.1,0,86.7,0c-0.5,0-0.8,0.5-1.3,0.7
			c-0.8,0.4-2.1,0.2-2.8,0.8C82,2.1,82,3.1,82.5,3.8c0.3,0.4,0.8,0.7,1,1.1C83.6,5,83.8,5.9,83.8,5.9z"/>
		<path id="Trazado_12267" class="st4" d="M47.4,28.1l-3.4-1.8c0,0-0.7,0.7,2.8,2.6L47.4,28.1z"/>
	</g>
	<g id="Grupo_12743" transform="translate(832.482 481.993)">
		<path id="Trazado_12269" class="st35" d="M72.7,9.4c0-0.4-0.3-0.8-0.6-1c-0.1,0-0.1-0.1-0.2-0.1l-0.1,0c-0.1,0-0.1,0-0.2-0.1l0,0
			c0,0,0,0,0,0c-0.1,0-0.2-0.1-0.3-0.1h0C71.2,8,71.1,8,71,8c0,0,0,0,0,0l0,0c-0.1,0-0.2,0-0.4-0.1h0h0c-0.1,0-0.3,0-0.4-0.1l0,0
			c-0.1,0-0.3,0-0.4,0h0l-0.3,0c-0.1,0-0.3,0-0.4,0l-0.1,0c-0.1,0-0.2,0-0.4-0.1l-0.2,0c-0.1,0-0.3,0-0.4-0.1l-0.1,0
			c-0.1,0-0.2,0-0.3-0.1h0c-0.1,0-0.2,0-0.3-0.1l-0.1,0c-0.1,0-0.1,0-0.2-0.1l-0.1,0c-0.1,0-0.1,0-0.2-0.1l-0.1,0
			c-0.1,0-0.2-0.1-0.2-0.1c-0.4-0.2-0.7-0.4-1-0.7l0.1,8.5c0.3,0.3,0.7,0.5,1,0.7c0.1,0,0.2,0.1,0.2,0.1c0,0,0,0,0,0l0.1,0
			c0.1,0,0.1,0,0.2,0.1l0.1,0l0.2,0.1l0.1,0l0,0c0.1,0,0.2,0.1,0.3,0.1l0,0c0.1,0,0.2,0,0.3,0.1l0,0l0,0c0.1,0,0.3,0.1,0.4,0.1
			l0.2,0h0c0.1,0,0.2,0,0.4,0.1l0.1,0c0.1,0,0.3,0,0.4,0l0,0l0.2,0l0.1,0l0.4,0l0,0c0.1,0,0.3,0,0.4,0.1l0,0c0.1,0,0.2,0,0.4,0.1
			l0.1,0c0.1,0,0.2,0,0.3,0.1s0.2,0.1,0.3,0.1l0.1,0c0.1,0,0.1,0,0.2,0.1l0.1,0c0.1,0,0.1,0.1,0.2,0.1c0.4,0.2,0.6,0.6,0.6,1
			L72.7,9.4z"/>
		<path id="Trazado_12270" class="st36" d="M60.3,28.1L60.3,28.1l0.2,0l0.1,0l0.1,0l0.1,7.1l11.8,8l-0.1-8.5L62.7,28
			c0.1,0,0.3,0,0.4,0.1l0.1,0l0.2,0l0.1,0l0.2,0l0.1,0c0.1,0,0.2,0,0.3,0.1l0.1,0c0.1,0,0.2,0.1,0.3,0.1l0.1,0
			c0.1,0,0.3,0.1,0.4,0.1l0,0c0.1,0,0.3,0.1,0.4,0.2l0,0c0.2,0.1,0.3,0.1,0.5,0.2l0,0c0.2,0.1,0.3,0.1,0.5,0.2l0,0
			c0.2,0.1,0.3,0.2,0.5,0.3h0c0.2,0.1,0.3,0.2,0.5,0.3c1.3,0.9,2,1.9,2,2.7l-0.1-8.5c0-0.8-0.7-1.8-2-2.7c-0.1-0.1-0.3-0.2-0.5-0.3
			l0,0c-0.2-0.1-0.3-0.2-0.5-0.3l0,0c-0.2-0.1-0.3-0.2-0.5-0.2l0,0c-0.2-0.1-0.3-0.1-0.5-0.2h0l0,0c-0.1-0.1-0.3-0.1-0.4-0.2l0,0
			c-0.1,0-0.3-0.1-0.4-0.1l0,0l0,0c-0.1,0-0.2-0.1-0.3-0.1l-0.1,0c-0.1,0-0.2,0-0.3-0.1l0,0l-0.1,0l-0.2,0l-0.1,0l-0.2,0l-0.1,0h0
			c-0.1,0-0.3,0-0.4-0.1h0h0c-0.1,0-0.3,0-0.4,0h0h0c-0.2,0-0.5,0-0.7,0h0h0c-0.1,0-0.2,0-0.3,0h0h0c-0.1,0-0.2,0-0.3,0h0h0l-0.1,0
			l-0.1,0l-0.1,0l-0.1,0h0c-0.1,0-0.2,0-0.3,0.1l-0.1,0c-0.1,0-0.2,0.1-0.3,0.1c-0.1,0-0.1,0.1-0.2,0.1l0,0c0,0,0,0-0.1,0l0,0
			l-0.1,0c0,0-0.1,0-0.1,0.1l-0.1,0c0,0,0,0,0,0c0,0-0.1,0.1-0.1,0.1l0,0c0,0,0,0-0.1,0.1l0,0l0,0c0,0,0,0.1-0.1,0.1l0,0l0,0
			c0,0,0,0,0,0s0,0.1-0.1,0.1l0,0.1l0,0.1c0,0,0,0,0,0c0,0,0,0,0,0c0,0,0,0.1-0.1,0.1l0,0l-0.1,0.2c0,0,0,0.1-0.1,0.1l0,0.1
			c0,0.1-0.1,0.1-0.1,0.2c0,0,0,0.1,0,0.1s0,0,0,0c0,0,0,0.1-0.1,0.1l-0.1,0.1c0,0-0.1,0.1-0.1,0.1c0,0,0,0,0,0c0,0-0.1,0.1-0.1,0.1
			l0,0c0,0-0.1,0.1-0.1,0.1l0,0c0,0-0.1,0.1-0.1,0.1l-0.1,0c0,0-0.1,0.1-0.1,0.1l-0.1,0c-0.1,0-0.1,0.1-0.2,0.1l0,0l0,0l0,0l0,0l0,0
			l0,0l0,0l0,0l0,0l0,0l0,0l0,0l-0.1,0l0,0l-0.1,0c-0.2,0.1-0.5,0.2-0.7,0.3l-11.8-8l0.1,8.5l11.8,8c0.2-0.1,0.5-0.2,0.7-0.3
			l0.2-0.1l0,0l0.1,0h0l0.1,0l0,0l0,0l0,0l0,0l0,0l0,0l0,0l0,0l0,0l0,0c0.1,0,0.1-0.1,0.2-0.1l0.1,0c0,0,0.1-0.1,0.1-0.1
			c0,0,0,0,0,0l0,0c0,0,0.1-0.1,0.1-0.1l0,0c0.1,0,0.1-0.1,0.1-0.1l0,0l0,0c0,0,0.1-0.1,0.1-0.1l0,0c0,0,0.1-0.1,0.1-0.1l0,0l0,0
			c0,0,0.1-0.1,0.1-0.1l0,0c0,0,0-0.1,0-0.1l0,0c0-0.1,0.1-0.1,0.1-0.2l0-0.1l0.1-0.1c0-0.1,0.1-0.1,0.1-0.2c0,0,0,0,0,0
			c0,0,0-0.1,0.1-0.1l0-0.1l0-0.1l0-0.1c0,0,0-0.1,0.1-0.1s0,0,0-0.1l0,0c0,0,0-0.1,0.1-0.1s0,0,0,0c0,0,0.1-0.1,0.1-0.1l0,0
			c0,0,0.1-0.1,0.1-0.1c0,0,0,0,0.1,0s0.1,0,0.1-0.1l0.1,0c0,0,0.1,0,0.1-0.1l0,0c0.1,0,0.1-0.1,0.2-0.1c0.1,0,0.2-0.1,0.3-0.1
			l0.1,0C60.2,28.2,60.3,28.1,60.3,28.1z"/>
		<g id="Grupo_12741" transform="translate(28.517 19.242)">
			<path id="Trazado_12271" class="st37" d="M80.6,0l0.1,8.5L44.1,23.9L44,15.4L80.6,0z"/>
		</g>
		<g id="Grupo_12742">
			<path id="Trazado_12272" class="st38" d="M44,15.4L59.1,9c0.4,0.3,0.8,0.6,1.2,0.9c0.7,0.9-0.2,2.2,1,3c1.5,1,5.1,0.8,8-0.5
				l0.2-0.1c2.8-1.2,3.9-3,2.5-3.9c-0.9-0.6-2.5-0.6-3.7-0.8C67.7,7.5,67,7.3,66.4,7c-0.4-0.2-0.7-0.4-1-0.7L80.6,0l28.5,19.2
				L72.5,34.6l-11.8-8c0,0,0.1,0,0.1-0.1c0.5-0.2,1-0.4,1.6-0.6c1.8-0.4,4.1,0.1,5.7-0.6c1.9-0.8,1.5-2.7-0.8-4.3
				c-2.3-1.6-5.7-2.2-7.6-1.4c-1.2,0.5-1.1,1.3-1.6,2c-0.3,0.4-0.6,0.7-1,1c-0.1,0-0.3,0.1-0.5,0.3c-0.2,0.1-0.5,0.2-0.7,0.3
				L44,15.4z"/>
		</g>
	</g>
	<g id="Grupo_12746" transform="translate(733.203 462.559)">
		<g id="Grupo_12745" transform="translate(4.99)">
			<g id="Grupo_12744" transform="translate(53.275 8.552)">
				<path id="Trazado_12274" class="st25" d="M52.6,0C52.6,0,52.6,0,52.6,0c0,0.1,0,0.1,0,0.1s0,0,0,0.1s0,0,0,0.1s0,0,0,0.1
					s0,0,0,0s0,0,0,0.1s0,0,0,0c0,0,0,0,0,0c0,0.1,0,0.1-0.1,0.2l0,0c0,0.1-0.1,0.1-0.1,0.2l0,0c0,0.1-0.1,0.1-0.1,0.1l0,0l0,0
					c0,0,0,0,0,0l0,0l0,0c0,0-0.1,0-0.1,0.1l0,0c0,0-0.1,0-0.1,0.1l0,0c0,0-0.1,0-0.1,0l0,0c0,0-0.1,0-0.1,0.1
					c-0.2,0.1-0.4,0.1-0.6,0.2c-0.2,0-0.3,0.1-0.5,0.1c-0.2,0-0.3,0-0.5,0.1c-0.2,0-0.5,0-0.8,0c-0.6,0-1.1,0-1.7,0
					c-0.2,0-0.5,0-0.7,0l0.1,8.5c0.2,0,0.5,0,0.7,0c0.6,0,1.1,0,1.7,0c0.3,0,0.5,0,0.7,0c0.2,0,0.3,0,0.5-0.1s0.3-0.1,0.5-0.1
					c0.2,0,0.4-0.1,0.6-0.2c0,0,0.1,0,0.1-0.1l0,0c0,0,0.1,0,0.1-0.1h0l0,0c0,0,0.1,0,0.1-0.1l0,0c0,0,0.1,0,0.1-0.1l0,0l0,0l0,0
					c0,0,0,0,0,0l0,0l0,0l0,0c0,0,0.1-0.1,0.1-0.1l0,0l0,0c0-0.1,0.1-0.1,0.1-0.2l0,0l0,0c0-0.1,0.1-0.1,0.1-0.2l0,0v0
					c0,0,0,0,0-0.1s0,0,0-0.1s0,0,0-0.1s0,0,0,0v0c0,0,0,0,0-0.1s0,0,0,0s0,0,0-0.1s0,0,0,0v0L52.6,0z"/>
				<path id="Trazado_12275" class="st25" d="M45.7,2.1L45.7,2.1c-0.5,0.2-1,0.3-1.6,0.6c-0.1,0-0.1,0-0.2,0.1l0.1,8.5
					c0,0,0.1,0,0.2-0.1c0.5-0.2,1-0.4,1.5-0.6h0c0.1,0,0.3-0.1,0.4-0.1c0.2,0,0.3,0,0.5-0.1L46.6,2c-0.2,0-0.3,0-0.5,0.1
					C46,2,45.8,2.1,45.7,2.1z"/>
			</g>
			<path id="Trazado_12276" class="st39" d="M109.1,27.7l-0.1-8.5l-15.1,6.4l0.1,7.1c-1.4,0.3-2.9,0.1-4.2-0.5
				c-0.5-0.3-0.7-0.8-0.7-1.4c0-0.1,0-0.3,0-0.4c0-0.4-0.1-0.8-0.3-1.2c-0.4-0.3-0.8-0.6-1.2-0.9l-15.1,6.4l0.1,8.5l15.1-6.4
				c0.4,0.3,0.8,0.6,1.2,0.9c0.2,0.3,0.3,0.7,0.3,1.1v0.4c-0.1,0.6,0.2,1.2,0.7,1.5c1.5,1,5.1,0.8,8-0.5l0.2-0.1
				c2-0.9,3.1-2,3.1-2.9c0-2,0-4-0.1-6.1L109.1,27.7z"/>
			<path id="Trazado_12277" class="st25" d="M104.7,10.1l0.1,8.5c-1.6,0.7-4,0.2-5.7,0.6c-0.5,0.2-1,0.3-1.6,0.6
				c-0.1,0-0.1,0-0.2,0.1l-0.1-8.5c0,0,0.1,0,0.2-0.1c0.5-0.2,1-0.4,1.6-0.6C100.7,10.3,103.1,10.7,104.7,10.1z"/>
			<path id="Trazado_12278" class="st25" d="M72.5,34.6L44,15.4l0.1,8.5l28.5,19.2L72.5,34.6z"/>
			<path id="Trazado_12279" class="st24" d="M100.6,27.6c-0.9-0.6-2.5-0.6-3.7-0.8c-0.6-0.1-1.3-0.3-1.9-0.5c-0.4-0.2-0.7-0.4-1-0.7
				l15.1-6.4l-11.8-8c0,0,0.1,0,0.2-0.1c0.5-0.2,1-0.4,1.6-0.6c1.8-0.4,4.1,0.1,5.7-0.6c1.8-0.8,1.4-2.7-0.9-4.2
				c-2.3-1.6-5.7-2.2-7.6-1.4c-1.1,0.5-1.1,1.3-1.5,2c-0.3,0.4-0.6,0.7-1,1c-0.1,0-0.3,0.1-0.5,0.3c-0.2,0.1-0.5,0.2-0.7,0.3L80.6,0
				L44,15.4l28.5,19.2l15.1-6.4c0.4,0.3,0.8,0.6,1.2,0.9c0.7,0.9-0.2,2.2,1,3c1.5,1,5.1,0.8,8-0.5c0.1,0,0.2-0.1,0.2-0.1
				C100.9,30.3,102,28.6,100.6,27.6z"/>
		</g>
	</g>
	<g id="Grupo_12779" transform="translate(781.476 414.437)">
		<g id="Grupo_12778" transform="translate(0.734 0)">
			<g id="Grupo_12748" transform="translate(18.033 103.454)">
				<g id="Grupo_12747" transform="translate(0.503)">
					<path id="Trazado_12281" class="st2" d="M52.2,1.7c0,0,1.9-0.4,1.4,1.2c0,0-4.5,1.9-7.7,1.5c-1.1,0-2-0.9-1.9-2
						C44,2.3,44,2.1,44,2l0-2l3,0.6l-0.2,1.9L52.2,1.7z"/>
				</g>
				<path id="Trazado_12282" class="st40" d="M44.5,2c0,0.3,0.1,0.6,0.3,0.8c0.8,0.9,2.3,0.9,3.4,0.9c1.7-0.1,3.4-0.4,5.1-0.7
					c0.4-0.1,0.5-0.2,0.5-0.3c-0.2-0.5-0.6-0.8-1.2-0.9l1.6-0.2c0.9-0.1,1.8,0.1,2.6,0.5c0.4,1.2-1.6,2-1.6,2
					c-1.6,0.6-3.2,1-4.8,1.3c0,0-5.8,1.4-6.5-0.4L44.5,2z"/>
			</g>
			<g id="Grupo_12750" transform="translate(6.563 100.771)">
				<g id="Grupo_12749" transform="translate(0.503)">
					<path id="Trazado_12283" class="st2" d="M52.2,1.7c0,0,1.9-0.4,1.4,1.2c0,0-4.5,1.9-7.7,1.5c-1.1,0-2-0.9-1.9-2
						C44,2.3,44,2.1,44,2l0-2l3,0.6l-0.2,1.9L52.2,1.7z"/>
				</g>
				<path id="Trazado_12284" class="st40" d="M44.5,2c0,0.3,0.1,0.6,0.3,0.8c0.8,0.9,2.3,0.9,3.4,0.9c1.7-0.1,3.4-0.4,5.1-0.7
					c0.4-0.1,0.5-0.2,0.5-0.3c-0.2-0.5-0.6-0.8-1.2-0.9l1.6-0.2c0.9-0.1,1.8,0.1,2.6,0.5c0.4,1.2-1.6,2-1.6,2
					c-1.6,0.6-3.2,1-4.8,1.3c0,0-5.8,1.4-6.5-0.4L44.5,2z"/>
			</g>
			<g id="Grupo_12754" transform="translate(4.751 39.212)">
				<g id="Grupo_12751" transform="translate(0 5.612)">
					<path id="Trazado_12285" class="st41" d="M55,5.5c0,3-2.5,5.5-5.5,5.5S44,8.6,44,5.5S46.5,0,49.5,0c0,0,0,0,0,0
						C52.6,0,55,2.5,55,5.5z"/>
					<path id="Trazado_12286" class="st41" d="M46,32.1c0,0,0.1,1.4,2.6,1.4c0,0,2.4,0.8,3.4-2.3c2.4-8,3.4-16.4,3-24.7
						c0,0-5.7-3.2-10.9-1C44,5.5,44.9,21.4,46,32.1z"/>
				</g>
				<path id="Trazado_12287" class="st41" d="M52,36.8c0,0-1.9,26.1-2.1,27.1c-1.1,0.7-2.5,0.7-3.6,0c0-1.3-1.4-12-1.5-14
					c-0.2-3.4-0.7-7.8,1.5-12.8L52,36.8z"/>
				<g id="Grupo_12752" transform="translate(6.691 5.611)">
					<path id="Trazado_12288" class="st42" d="M55.3,32.9c0,0,0.5,1.3,2.9,0.5c0,0,2.5,0,2.4-3.3c-0.2-12.7-5.8-25.9-5.8-25.9
						s-6.3-0.6-10.5,3.2C44.3,7.3,50.7,23.2,55.3,32.9z"/>
					<path id="Trazado_12289" class="st42" d="M54.7,3.7c1,2.9-0.5,6-3.4,7c-2.9,1-6-0.5-7-3.4c-1-2.9,0.5-6,3.4-7c0,0,0,0,0,0
						C50.6-0.7,53.7,0.8,54.7,3.7z"/>
				</g>
				<path id="Trazado_12290" class="st42" d="M44,10.3c0.7-6.1,3.7-9,3.7-9L58.4,0c1.8,3.2,2.9,6.7,3.2,10.3
					c-1.3,3.5-5.8,4.5-5.8,4.5l-3.4,1C52.4,15.8,44.6,14.6,44,10.3z"/>
				<g id="Grupo_12753" transform="translate(13.587 35.541)">
					<path id="Trazado_12291" class="st42" d="M53.3,2.7c0,0-5.3,27.4-5.6,28.3c0.1-0.1-2.5,1.2-3.7-0.4c0.2-1.3,0.3-15.2,0.5-17.2
						c0.3-3.4,0.2-6.7,3.1-11.2C47.6,2.1,54.8-3,53.3,2.7z"/>
				</g>
			</g>
			<path id="Trazado_12292" class="st43" d="M62.3,97"/>
			<g id="Grupo_12757" transform="translate(0 14.674)">
				<g id="Grupo_12755" transform="translate(0.375 14.723)">
					<path id="Trazado_12293" class="st2" d="M47.6,0c0,0,1.9,2.3,5.8,7.8l-0.7,1.1c0,0-6.6-3.3-8.7-7.1L47.6,0z"/>
				</g>
				<g id="Grupo_12756">
					<path id="Trazado_12294" class="st2" d="M53.4,6.5c0,0-5,10.9-8,10.5c0,0-1,0.1-1.2-0.7c0,0-2.1-1.9,6.7-15.4
						c0.7-0.7,1.7-1.1,2.6-0.9C53.5,0,56.2,1.8,53.4,6.5z"/>
				</g>
			</g>
			<g id="Grupo_12758" transform="translate(12.099 12.714)">
				<rect id="Rectángulo_3015" x="44" y="0" class="st44" width="5.4" height="5.7"/>
			</g>
			<g id="Grupo_12759" transform="translate(9.202 0.795)">
				<path id="Trazado_12295" class="st4" d="M55.6,12l0.2-0.9l0.4-3.4c0-0.5,0-0.9-0.2-1.4C55.8,6,55.7,5.5,55.7,5
					c0.2-1.3-0.3-2.6-1.3-3.5C52.6-0.4,49,0.1,49,0.1c-1.8,0.2-3.3,1.2-4.2,2.7c-0.8,1.4-1,3.1-0.5,4.7c0.7,1.6,1.8,3,3.2,4.1
					c0.9,0.6,2,1,3,1.1c1.1,0.2,2.2,0.3,3.2,0.3C54.2,12.8,55.5,12.6,55.6,12z"/>
			</g>
			<g id="Grupo_12760" transform="translate(18.359 9.744)">
				<path id="Trazado_12296" class="st43" d="M44,0"/>
			</g>
			<g id="Grupo_12761" transform="translate(8.629)">
				<path id="Trazado_12297" class="st43" d="M53.7,9.7c-0.3-0.4-1.2-0.6-1.2-0.6c-1.2,0-1,1.6-1.1,2.2c0,0.2-0.1,0.4-0.1,0.7
					c-0.6,2-2.2,2-3.6,2.2c-0.1,0-0.1-0.1-0.2-0.1c-0.2-0.7-0.6-1.3-1.1-1.8c-2.1-2-2.9-5-2-7.8c0.3-0.8,0.7-1.6,1.3-2.2
					c1.2-1.2,2.7-2,4.4-2.3c1.7-0.3,7.6,0.5,6,4.1C56,4.2,53.6,7,53.7,9.7"/>
			</g>
			<g id="Grupo_12769" transform="translate(16.262 8.823)">
				<g id="Grupo_12765">
					<g id="Grupo_12762" transform="translate(0.129 0.109)">
						<path id="Trazado_12298" class="st45" d="M46,0.8c-0.2-0.6-0.7-0.9-1.3-0.8C44.2,0.2,44,0.6,44,1c0,0.1,0,0.2,0,0.3
							c0.2,0.6,0.6,1.2,1.3,1.4"/>
					</g>
					<g id="Grupo_12763" transform="translate(0.687 0.563)">
						<path id="Trazado_12299" class="st46" d="M44.2,0.1C44.3,0,44.4,0,44.5,0c0.4,0,0.7,0.6,0.3,0.7c-0.1,0.1-0.1,0.2,0,0.3
							c0.1,0.1,0.3,0.4,0.3,0.6c0,0.1-0.2,0.2-0.3,0.2c-0.1,0-0.1-0.1,0-0.1c0.1,0,0.1-0.1,0.1-0.1l0,0c0,0,0,0,0,0c0,0,0-0.1,0-0.1
							c-0.1,0.1-0.2,0.1-0.3,0c-0.1-0.1,0-0.2,0-0.3c0-0.1-0.1-0.1-0.1-0.2c-0.1-0.1-0.1-0.2,0-0.3c0,0,0.1-0.1,0.1-0.1
							c0,0,0.1,0,0.1,0c0.2-0.1,0-0.3-0.1-0.4c-0.1-0.1-0.3,0-0.3,0.1c-0.1,0.1-0.1,0.2-0.1,0.3c0,0.1,0,0.3,0.1,0.4
							c0,0.1,0.1,0.2,0.1,0.2s-0.1,0.1-0.1,0c-0.1-0.2-0.2-0.4-0.3-0.7C44,0.4,44,0.2,44.2,0.1z"/>
					</g>
					<g id="Grupo_12764">
						<path id="Trazado_12300" class="st46" d="M46.1,0.9c0,0,0-0.1-0.1-0.2c0-0.1-0.1-0.1-0.2-0.2c-0.1-0.1-0.2-0.1-0.2-0.2
							c-0.1-0.1-0.2-0.1-0.3-0.1c-0.1,0-0.3,0-0.4,0c-0.1,0-0.1,0-0.2,0.1c-0.1,0-0.1,0.1-0.2,0.1c-0.1,0.1-0.2,0.2-0.2,0.3
							c0,0.1,0,0.3,0,0.4l0,0.1v0c0,0,0,0,0,0v0l0,0l0,0.1c0,0.1,0,0.1,0.1,0.2c0,0.1,0.1,0.2,0.2,0.4c0.1,0.1,0.1,0.2,0.2,0.3
							c0.1,0.1,0.3,0.3,0.4,0.4c0.1,0.1,0.2,0.1,0.2,0.1c-0.1,0-0.1,0-0.2-0.1c-0.2-0.1-0.4-0.2-0.5-0.3c-0.1-0.1-0.2-0.2-0.3-0.3
							c-0.1-0.1-0.2-0.3-0.2-0.4c0-0.1-0.1-0.2-0.1-0.2l0-0.1l0,0v0v0v0l0-0.1c0-0.2,0-0.4,0-0.5c0.1-0.2,0.2-0.3,0.3-0.5
							c0,0,0.1-0.1,0.1-0.1l0.1-0.1c0.1,0,0.2-0.1,0.2-0.1c0.2,0,0.3,0,0.5,0c0.1,0,0.3,0.1,0.4,0.2c0.1,0.1,0.2,0.2,0.2,0.3
							C45.9,0.6,46,0.6,46,0.7C46.1,0.8,46.1,0.9,46.1,0.9z"/>
					</g>
				</g>
				<g id="Grupo_12768" transform="translate(1.424 2.228)">
					<g id="Grupo_12766">
						<path id="Trazado_12301" class="st26" d="M44,0.3c0,0.2,0.1,0.3,0.3,0.3s0.3-0.1,0.3-0.3c0-0.2-0.1-0.3-0.3-0.3l0,0
							C44.1,0,44,0.1,44,0.3z"/>
					</g>
					<g id="Grupo_12767">
						<path id="Trazado_12302" class="st47" d="M44.2,0.5c0.1,0,0.3-0.1,0.3-0.3c0-0.1-0.1-0.2-0.2-0.2l0,0c0.2,0,0.3,0.1,0.3,0.3
							s-0.1,0.3-0.3,0.3c-0.2,0-0.3-0.1-0.3-0.3c0,0,0,0,0,0c0,0,0,0,0,0C44,0.4,44.1,0.5,44.2,0.5z"/>
					</g>
				</g>
			</g>
			<g id="Grupo_12770" transform="translate(3.397 14.683)">
				<path id="Trazado_12303" class="st40" d="M44.1,28.4l5.9-8.5c0.1-1.3,0-2.5-0.3-3.7L47.8,3.1C48,1.6,48.1-0.3,50.1,0
					c0.9,0.1,1.8,0.4,2.6,0.7c-0.3,1.2,1.8,2,1.8,2c2.9,1.2,3.5,0.4,3.5,0.4c1.4,0.7,2.7,1.4,4,2.3c0.8,0.7,1.2,1.9,0.9,3l-2.1,12.4
					l0.4,3.1l3.8,9.6c-1.2-0.4-2.4-0.6-3.7-0.4c-1.2,0.1-2.2,0.8-3.4,1c-1.6,0.1-3.1-0.3-4.4-1.3c-1.8-0.4-3.5-1-5.1-1.8h-0.1
					c-1.3,0-2.8,0-3.8-1C44.4,29.7,43.8,28.8,44.1,28.4z"/>
			</g>
			<g id="Grupo_12771" transform="translate(17.977 20.104)">
				<path id="Trazado_12304" class="st4" d="M50,19.8l0-15C49.6,0.7,47.5,0,47.5,0C43.4-0.5,44,7.2,44,7.2l1.7,13"/>
			</g>
			<g id="Grupo_12772" transform="translate(25.549 15.721)">
				<path id="Trazado_12305" class="st48" d="M52.2,18.2L44,14.7L50.5,0l8.8,3.6L52.2,18.2z"/>
			</g>
			<g id="Grupo_12773" transform="translate(32.862 28.065)">
				<path id="Trazado_12306" class="st4" d="M47.8,0c-0.2,0.5-0.6,0.9-1,1.3c-0.5,0.4-1.3,0.3-1.7,0.6c-0.6,0.5-2.3,2.8,0.2,2.9
					c0.6,0,2.6,0,2.9-0.9c0.5-1,0.5-2.2-0.1-3.2L47.8,0z"/>
			</g>
			<g id="Grupo_12776" transform="translate(19.478 30.773)">
				<g id="Grupo_12774" transform="translate(0 8.117)">
					<path id="Trazado_12307" class="st45" d="M44,0"/>
				</g>
				<g id="Grupo_12775" transform="translate(0.082)">
					<path id="Trazado_12308" class="st4" d="M45.7,6.4L58.9,0c1.6,0.4,1.4,1.2,1.4,1.2l-8.1,6.5c-3.4,2.8-5.8,3.2-5.8,3.2
						s-2.1,0.8-2.3-2.3C44.1,7.5,44.7,6.7,45.7,6.4z"/>
				</g>
			</g>
			<g id="Grupo_12777" transform="translate(4.217 0.182)">
				<path id="Trazado_12309" class="st43" d="M59.3,8.6c-0.3,2.5,0,5.8-1.2,8.5c-0.6,1.2-1.2,1.8-0.8,3.2c0.3,1.2,0.8,2.2,1.1,3.4
					c0.7,2.6-0.2,5.2-3.3,4.3c-0.9-0.5-2.1-0.4-3,0.1c-1,0.5-2.3,0.5-3.3,0c-1.7-0.8-1.2-2.1-2.2-3.4c-0.7-1-1.8-1-2.3-2.3
					c-0.7-1.6,0.1-2.4,1-3.8c0.8-1.2,1.1-2.6,0.7-4c-0.2-1.2,0-2.4,0.6-3.4C47,10,46.8,8.8,47,7.5c0.5-2.6,1.9-6.2,4.7-7
					c1.4-0.5,3-0.6,4.4-0.2c1.8,0.7,3.8,1.3,3.7,3.5C59.7,5.4,59.6,7,59.3,8.6z"/>
			</g>
			<path id="Trazado_12310" class="st4" d="M77.7,30.2c0,0,0.7,0.9,1.2-0.3l-0.1-1.6c0-0.2-0.1-0.5-0.3-0.6c0,0-0.3,0-0.3,0.5
				L77.7,30.2z"/>
		</g>
	</g>
</g>
</svg>
