<svg xmlns="http://www.w3.org/2000/svg" viewBox="0 0 1746 1047.62"><defs><style>.cls-1{isolation:isolate;}.cls-2{fill:#f2f2f2;}.cls-3{opacity:0.35;}.cls-4{fill:#454545;}.cls-5{fill:#303030;}.cls-6{mix-blend-mode:screen;}.cls-7{fill:#adadad;}.cls-8{fill:#575757;}.cls-9{fill:#636363;}.cls-10{opacity:0.61;}.cls-11{fill:#bfbfbf;}.cls-12{fill:#3b3b3b;}.cls-13{fill:#ebcda9;}.cls-14{fill:#fadab4;}.cls-15{fill:#595959;}.cls-16{fill:#4c96e0;}.cls-17{fill:#cde3f0;}.cls-18{fill:#dbf2ff;}.cls-19{fill:#f5ce9d;}.cls-20{mix-blend-mode:multiply;}.cls-21{fill:#f5f5f5;}.cls-22{fill:#fff;}.cls-23{fill:gray;}.cls-24{fill:#815932;}.cls-25{fill:#cfcfcf;}.cls-26{fill:#f0f0f0;}.cls-27{opacity:0.5;}.cls-28{fill:#a7a9ac;}.cls-29{fill:#bababa;}.cls-30{fill:#f5755f;}.cls-31{fill:#7d7d7d;}.cls-32{fill:#4a4a4a;}.cls-33{fill:#a67f4b;}.cls-34{fill:#4fb083;}.cls-35{fill:#525252;}.cls-36{fill:#e8e8e8;}.cls-37{fill:#ebcea9;}.cls-38{fill:#a16b2b;}.cls-39{fill:#38332f;}.cls-40{fill:#a67245;}.cls-41{fill:#484848;}.cls-42{fill:#424242;}.cls-43{opacity:0.29;}</style></defs><g class="cls-1"><g id="Layer_1" data-name="Layer 1"><ellipse class="cls-2" cx="873" cy="934.12" rx="873" ry="113.5"/><g class="cls-3"><path class="cls-4" d="M1634.79,789.08a1.5,1.5,0,0,1-1.48-1.31,32.1,32.1,0,0,0-27.15-27.45,1.5,1.5,0,0,1,.42-3,35.1,35.1,0,0,1,29.7,30,1.51,1.51,0,0,1-1.29,1.69Z"/><path class="cls-4" d="M1568.38,788.71l-.22,0a1.5,1.5,0,0,1-1.27-1.7,35.09,35.09,0,0,1,30-29.69,1.5,1.5,0,1,1,.4,3,32.1,32.1,0,0,0-27.46,27.15A1.5,1.5,0,0,1,1568.38,788.71Z"/><path class="cls-4" d="M1596.75,826.7h-.21a35.1,35.1,0,0,1-29.7-30,1.5,1.5,0,0,1,3-.39A32.1,32.1,0,0,0,1597,823.72a1.5,1.5,0,0,1-.21,3Z"/><path class="cls-4" d="M1606,826.75a1.5,1.5,0,0,1-.2-3,32.08,32.08,0,0,0,27.46-27.14,1.5,1.5,0,1,1,3,.42,35.11,35.11,0,0,1-30,29.7Z"/><path class="cls-4" d="M1601.56,774.37a1.5,1.5,0,0,1-1.5-1.5v-17a1.5,1.5,0,1,1,3,0v17A1.5,1.5,0,0,1,1601.56,774.37Z"/><path class="cls-4" d="M1582.41,793.52h-17a1.5,1.5,0,1,1,0-3h17a1.5,1.5,0,1,1,0,3Z"/><path class="cls-4" d="M1601.56,829.69a1.5,1.5,0,0,1-1.5-1.5v-17a1.5,1.5,0,0,1,3,0v17A1.5,1.5,0,0,1,1601.56,829.69Z"/><path class="cls-4" d="M1637.73,793.52h-17a1.5,1.5,0,0,1,0-3h17a1.5,1.5,0,0,1,0,3Z"/><path class="cls-4" d="M1601.56,812.33A20.31,20.31,0,1,1,1621.87,792,20.33,20.33,0,0,1,1601.56,812.33Zm0-37.62A17.31,17.31,0,1,0,1618.87,792,17.32,17.32,0,0,0,1601.56,774.71Z"/><path class="cls-4" d="M1601.56,798a9.54,9.54,0,1,1,9.53-9.53A9.54,9.54,0,0,1,1601.56,798Zm0-16.07a6.54,6.54,0,1,0,6.53,6.54A6.54,6.54,0,0,0,1601.56,781.89Z"/><path class="cls-4" d="M1601.56,812.33a20.24,20.24,0,0,1-14.08-5.68,1.5,1.5,0,0,1-.26-1.82c2.14-3.74,7.9-6.24,14.34-6.24s12.2,2.5,14.34,6.24a1.5,1.5,0,0,1-.26,1.82A20.24,20.24,0,0,1,1601.56,812.33Zm-11-7a17.27,17.27,0,0,0,22.06,0c-2-2.26-6.35-3.76-11-3.76S1592.58,803.09,1590.53,805.35Z"/></g><g class="cls-3"><path class="cls-5" d="M203.27,624v8.69l-41.94-13.48V608.73l41.94-13.48v8.69l-8.39,2.7v14.67Zm-30.85-10.19v.3l15.27,4.8V609Z"/><path class="cls-5" d="M189.79,581.77c4.79,0,7.49-2.69,7.49-7.49s-2.7-7.49-7.49-7.49H161.33v-8.38h28.46c8.39,0,14.68,6.29,14.68,15.87s-6.29,15.88-14.68,15.88H161.33v-8.39Z"/><path class="cls-5" d="M203.27,534.44v13.48H161.33V534.44c0-10.48,7.79-18.27,21-18.27S203.27,524,203.27,534.44Zm-35.05,5.09h28.16v-5.09c0-5.39-4.19-9.58-14.08-9.58s-14.08,4.19-14.08,9.58Z"/><path class="cls-5" d="M203.27,499.69v8.39H161.33v-8.39Z"/><path class="cls-5" d="M161.33,488.91V461.35h6.89v19.17H179V467.64h6.89v12.88h10.48V461.05h6.89v27.86Z"/><path class="cls-5" d="M187.09,430.5H161.33v-8.39h41.94V431l-25.76,14.19v.3h25.76v8.39H161.33V445l25.76-14.19Z"/><path class="cls-5" d="M160.14,395.15c0-7.49,3.89-11.38,3.89-11.38l5.69,3.59a11.46,11.46,0,0,0-2.4,7.19c0,6.29,4.5,10.78,15,10.78s15-4.49,15-10.78a10.88,10.88,0,0,0-3-7.79l5.69-3.59a17,17,0,0,1,4.5,12c0,10.78-8.09,18.87-22.17,18.87S160.14,405.93,160.14,395.15Z"/><path class="cls-5" d="M161.33,376.58V349h6.89v19.17H179V355.31h6.89v12.88h10.48V348.72h6.89v27.86Z"/></g><g class="cls-6"><path class="cls-7" d="M1672.57,865.2a2,2,0,0,1-2-2,1.53,1.53,0,0,1,0-.3V850.74a2,2,0,0,1,4,0V863.2A2,2,0,0,1,1672.57,865.2Zm-12.55,0h-12.5a2,2,0,0,1,0-4H1660a2,2,0,0,1,0,4Zm-25,0h-12.5a2,2,0,0,1,0-4H1635a2,2,0,0,1,0,4Zm-25,0H1597.5a2,2,0,0,1,0-4H1610a2,2,0,0,1,0,4Zm-25,0h-12.5a2,2,0,0,1,0-4H1585a2,2,0,0,1,0,4Zm-25,0h-12.51a2,2,0,0,1,0-4H1560a2,2,0,0,1,0,4Zm-25,0h-12.5a2,2,0,0,1,0-4H1535a2,2,0,0,1,0,4Zm-25,0h-12.5a2,2,0,0,1,0-4H1510a2,2,0,0,1,0,4Zm162.59-25a2,2,0,0,1-2-2V825.73a2,2,0,0,1,4,0v12.51A2,2,0,0,1,1672.57,840.24Zm0-25a2,2,0,0,1-2-2v-12.5a2,2,0,0,1,4,0v12.5A2,2,0,0,1,1672.57,815.23Zm0-25a2,2,0,0,1-2-2V775.72a2,2,0,0,1,4,0v12.51A2,2,0,0,1,1672.57,790.23Zm0-25a2,2,0,0,1-2-2v-12.5a2,2,0,0,1,4,0v12.5A2,2,0,0,1,1672.57,765.22Zm0-25a2,2,0,0,1-2-2v-12.5a2,2,0,1,1,4,0v12.5A2,2,0,0,1,1672.57,740.21Zm0-25a2,2,0,0,1-2-2V700.7a2,2,0,0,1,4,0v12.51A2,2,0,0,1,1672.57,715.21Zm0-25a2,2,0,0,1-2-2V675.7a2,2,0,0,1,4,0v12.5A2,2,0,0,1,1672.57,690.2Zm0-25a2,2,0,0,1-2-2V650.69a2,2,0,0,1,4,0V663.2A2,2,0,0,1,1672.57,665.2Zm0-25a2,2,0,0,1-2-2v-12.5a2,2,0,0,1,4,0v12.5A2,2,0,0,1,1672.57,640.19Zm0-25a2,2,0,0,1-2-2v-12.5a2,2,0,0,1,4,0v12.5A2,2,0,0,1,1672.57,615.18Zm0-25a2,2,0,0,1-2-2V575.67a2,2,0,1,1,4,0v12.51A2,2,0,0,1,1672.57,590.18Zm0-25a2,2,0,0,1-2-2v-12.5a2,2,0,1,1,4,0v12.5A2,2,0,0,1,1672.57,565.17Zm0-25a2,2,0,0,1-2-2V525.66a2,2,0,0,1,4,0v12.51A2,2,0,0,1,1672.57,540.17Zm0-25a2,2,0,0,1-2-2v-12.5a2,2,0,0,1,4,0v12.5A2,2,0,0,1,1672.57,515.16Zm0-25a2,2,0,0,1-2-2v-12.5a2,2,0,1,1,4,0v12.5A2,2,0,0,1,1672.57,490.15Z"/></g><g class="cls-3"><g class="cls-6"><circle class="cls-8" cx="1704.72" cy="580.19" r="13.92" transform="translate(89.04 1375.36) rotate(-45)"/></g><g class="cls-6"><circle class="cls-8" cx="1704.72" cy="540.37" r="13.92" transform="translate(117.2 1363.69) rotate(-45)"/></g><g class="cls-6"><circle class="cls-8" cx="1704.72" cy="500.55" r="13.92" transform="translate(825.9 2044.67) rotate(-76.72)"/></g></g><g class="cls-6"><path class="cls-7" d="M666.78,697.1h-12.5a2,2,0,0,1,0-4h12.5a2,2,0,0,1,0,4Zm-25,0H629.27a2,2,0,0,1,0-4h12.51a2,2,0,0,1,0,4Zm-25,0h-12.5a2,2,0,0,1,0-4h12.5a2,2,0,0,1,0,4Zm-25,0H579.26a2,2,0,0,1,0-4h12.51a2,2,0,0,1,0,4Zm-25,0h-12.5a2,2,0,0,1,0-4h12.5a2,2,0,0,1,0,4Zm-25,0h-12.5a2,2,0,0,1,0-4h12.5a2,2,0,0,1,0,4Zm-25,0H508.1a2,2,0,0,1-2-2v-3.85a2,2,0,0,1,4,0v1.85h6.65a2,2,0,0,1,0,4Zm-8.65-16.35a2,2,0,0,1-2-2v-12.5a2,2,0,0,1,4,0v12.5A2,2,0,0,1,508.1,680.75Zm0-25a2,2,0,0,1-2-2v-12.5a2,2,0,0,1,4,0v12.5A2,2,0,0,1,508.1,655.74Zm0-25a2,2,0,0,1-2-2V616.23a2,2,0,0,1,4,0v12.51A2,2,0,0,1,508.1,630.74Z"/></g><g class="cls-3"><path class="cls-5" d="M485.16,754.28h-6.48V721.85h11.81c7.41,0,11.81,4.4,11.81,11.12s-4.4,11.12-11.81,11.12h-5.33Zm0-27.1v11.58h5.33c2.78,0,5.1-2.32,5.1-5.79s-2.32-5.79-5.1-5.79Z"/><path class="cls-5" d="M519.91,721.85c7.18,0,11.35,4.17,11.35,10.66,0,7.18-5.1,9.26-5.1,9.26V742l7.41,12.28h-7.18l-6.48-11.12h-5.33v11.12H508.1V721.85Zm-5.33,16h5.33c2.55,0,4.63-2.08,4.63-5.32s-2.08-5.33-4.63-5.33h-5.33Z"/><path class="cls-5" d="M550.48,755.2c-7.87,0-14.12-6.25-14.12-17.13s6.25-17.14,14.12-17.14,14.13,6.25,14.13,17.14S558.36,755.2,550.48,755.2Zm0-28.72c-3.93,0-7.41,3.48-7.41,11.59s3.48,11.58,7.41,11.58,7.42-3.48,7.42-11.58S554.42,726.48,550.48,726.48Z"/><path class="cls-5" d="M583.84,749.65l-5.56-15.29h-.23l-1.85,19.92h-6.72l3-32.43h7.18l6.49,17.84h.23l6.48-17.84h7.18l3,32.43h-6.71l-1.86-19.92h-.23l-5.56,15.29Z"/><path class="cls-5" d="M622.06,755.2c-7.88,0-14.13-6.25-14.13-17.13s6.25-17.14,14.13-17.14,14.13,6.25,14.13,17.14S629.93,755.2,622.06,755.2Zm0-28.72c-3.94,0-7.41,3.48-7.41,11.59s3.47,11.58,7.41,11.58,7.41-3.48,7.41-11.58S626,726.48,622.06,726.48Z"/><path class="cls-5" d="M662.36,721.85v5.33H654v27.1h-6.48v-27.1H639.2v-5.33Z"/><path class="cls-5" d="M673.94,754.28h-6.48V721.85h6.48Z"/><path class="cls-5" d="M694.33,755.2c-7.88,0-14.13-6.25-14.13-17.13s6.25-17.14,14.13-17.14,14.13,6.25,14.13,17.14S702.2,755.2,694.33,755.2Zm0-28.72c-3.94,0-7.41,3.48-7.41,11.59s3.47,11.58,7.41,11.58,7.41-3.48,7.41-11.58S698.27,726.48,694.33,726.48Z"/><path class="cls-5" d="M732.78,741.77V721.85h6.48v32.43h-6.85l-11-19.92h-.23v19.92h-6.49V721.85h6.86l11,19.92Z"/></g><g class="cls-6"><path class="cls-7" d="M1557.71,712.63a2,2,0,0,1-2-2V700.25a2,2,0,0,1,4,0v10.38A2,2,0,0,1,1557.71,712.63Zm0-22.88a2,2,0,0,1-2-2v-12.5a2,2,0,0,1,4,0v12.5A2,2,0,0,1,1557.71,689.75Zm0-25a2,2,0,0,1-2-2V650.24a2,2,0,1,1,4,0v12.51A2,2,0,0,1,1557.71,664.75Zm0-25a2,2,0,0,1-2-2v-12.5a2,2,0,1,1,4,0v12.5A2,2,0,0,1,1557.71,639.74Zm0-25a2,2,0,0,1-2-2v-12.5a2,2,0,0,1,4,0v12.5A2,2,0,0,1,1557.71,614.73Zm0-25a2,2,0,0,1-2-2V575.22a2,2,0,0,1,4,0v12.51A2,2,0,0,1,1557.71,589.73Zm0-25a2,2,0,0,1-2-2v-12.5a2,2,0,0,1,4,0v12.5A2,2,0,0,1,1557.71,564.72Zm0-25a2,2,0,0,1-2-2V525.21a2,2,0,0,1,4,0v12.51A2,2,0,0,1,1557.71,539.72Zm0-25a2,2,0,0,1-2-2v-12.5a2,2,0,0,1,4,0v12.5A2,2,0,0,1,1557.71,514.71Zm0-25a2,2,0,0,1-2-2V475.2a2,2,0,0,1,4,0v12.5A2,2,0,0,1,1557.71,489.7Z"/></g><g class="cls-6"><path class="cls-7" d="M1337.55,574.17a2,2,0,0,1-2-2v-12.5a2,2,0,1,1,4,0v12.5A2,2,0,0,1,1337.55,574.17Zm0-25a2,2,0,0,1-2-2v-12.5a2,2,0,1,1,4,0v12.5A2,2,0,0,1,1337.55,549.17Zm0-25a2,2,0,0,1-2-2v-12.5a2,2,0,0,1,4,0v12.5A2,2,0,0,1,1337.55,524.16Zm0-25a2,2,0,0,1-2-2V484.65a2,2,0,1,1,4,0v12.51A2,2,0,0,1,1337.55,499.16Zm0-25a2,2,0,0,1-2-2v-12.5a2,2,0,1,1,4,0v12.5A2,2,0,0,1,1337.55,474.15Zm0-25a2,2,0,0,1-2-2V434.64a2,2,0,0,1,4,0v12.51A2,2,0,0,1,1337.55,449.15Zm0-25a2,2,0,0,1-2-2v-12.5a2,2,0,0,1,4,0v12.5A2,2,0,0,1,1337.55,424.14Zm0-25a2,2,0,0,1-2-2v-12.5a2,2,0,1,1,4,0v12.5A2,2,0,0,1,1337.55,399.13Zm0-25a2,2,0,0,1-2-2V359.62a2,2,0,0,1,4,0v12.51A2,2,0,0,1,1337.55,374.13Zm0-25a2,2,0,0,1-2-2v-12.5a2,2,0,0,1,4,0v12.5A2,2,0,0,1,1337.55,349.12Zm0-25a2,2,0,0,1-2-2v-12.5a2,2,0,1,1,4,0v12.5A2,2,0,0,1,1337.55,324.11Zm0-25a2,2,0,0,1-2-2v-12.5a2,2,0,1,1,4,0v12.5A2,2,0,0,1,1337.55,299.11Zm168.93-18.62H1494a2,2,0,0,1,0-4h12.51a2,2,0,0,1,0,4Zm-25,0H1469a2,2,0,0,1,0-4h12.5a2,2,0,0,1,0,4Zm-25,0H1444a2,2,0,0,1,0-4h12.5a2,2,0,0,1,0,4Zm-25,0H1419a2,2,0,0,1,0-4h12.51a2,2,0,0,1,0,4Zm-25,0H1394a2,2,0,0,1,0-4h12.5a2,2,0,0,1,0,4Zm-25,0h-12.51a2,2,0,0,1,0-4h12.51a2,2,0,0,1,0,4Zm-25,0h-12.5a2,2,0,0,1,0-4h12.5a2,2,0,0,1,0,4Z"/></g><g class="cls-3"><path class="cls-9" d="M1566.46,424.26c7.55,0,13.59,6,13.59,16.3a17.88,17.88,0,0,1-5.44,13.29l-5.73-3.62a12.58,12.58,0,0,0,3.92-9.06c0-5.44-2.71-8.15-6.34-8.15-7.55,0-3.62,19-18.41,19-7,0-12.69-5.74-12.69-14.5,0-8.45,4.83-12.37,4.83-12.37l5.74,3.32a12.84,12.84,0,0,0-3.32,8.45c0,3.93,2.42,6.34,5.44,6.34C1555.9,443.28,1552.27,424.26,1566.46,424.26Z"/><path class="cls-9" d="M1536.57,416.71V388.93h7v19.33h10.87v-13h6.94v13h10.57V388.63h6.94v28.08Z"/><path class="cls-9" d="M1535.36,365.08c0-7.55,3.93-11.48,3.93-11.48l5.74,3.63a11.5,11.5,0,0,0-2.42,7.24c0,6.34,4.53,10.87,15.1,10.87s15.09-4.53,15.09-10.87a11,11,0,0,0-3-7.85l5.74-3.62a17.19,17.19,0,0,1,4.53,12.08c0,10.87-8.15,19-22.34,19S1535.36,376,1535.36,365.08Z"/><path class="cls-9" d="M1536.57,320.39h7v10.87h35.32v8.45h-35.32v10.87h-7Z"/><path class="cls-9" d="M1580.05,298c0,10.27-8.15,18.42-22.34,18.42s-22.35-8.15-22.35-18.42,8.16-18.41,22.35-18.41S1580.05,287.78,1580.05,298Zm-37.44,0c0,5.14,4.53,9.67,15.1,9.67s15.09-4.53,15.09-9.67-4.53-9.66-15.09-9.66S1542.61,292.91,1542.61,298Z"/><path class="cls-9" d="M1536.57,256.07c0-9.36,5.44-14.79,13.89-14.79,9.36,0,12.08,6.64,12.08,6.64h.3l16-9.66v9.36l-14.49,8.45V263h14.49v8.45h-42.27ZM1557.4,263v-6.95c0-3.32-2.71-6-6.94-6s-6.94,2.72-6.94,6V263Z"/></g><g class="cls-10"><path class="cls-11" d="M405.57,539.78a11.79,11.79,0,1,1,11.78,11.79A11.78,11.78,0,0,1,405.57,539.78Z"/><path class="cls-11" d="M143.23,890.51v-8.4h0A16.81,16.81,0,0,1,160,865.3h25.21l-8.4-109.22H151.63l-8.4-50.41h33.61v16.81H202V705.67h33.61v16.81h25.2V705.67h33.61l-8.4,50.41H260.85l-8.4,109.22h25.21a16.81,16.81,0,0,1,16.8,16.81h0v8.4h16.8V880.35h11.79V868.56A23.57,23.57,0,0,1,346.38,845a13,13,0,0,0,9.79-4.42c9.65-11.26,13.95-15.31,20.25-40.12,6.88-27.07,11-105.87,5.57-144.07H358.41a11.79,11.79,0,0,1,0-23.58H382a162.41,162.41,0,0,0-30.43-42.22l-4.93-4.93H370.2l12.28,6.14a35.32,35.32,0,0,1,69.75,0l12.28-6.14h23.57l-4.93,4.93a162.41,162.41,0,0,0-30.43,42.22H476.3a11.79,11.79,0,0,1,0,23.58H452.72c-5.46,38.2-1.31,117,5.57,144.07,6.3,24.81,10.59,28.86,20.25,40.12a13,13,0,0,0,9.79,4.42,23.57,23.57,0,0,1,23.33,23.57v11.79h11.79v35.36h-397v-25.2Z"/></g><path class="cls-12" d="M814.09,500.83a12.91,12.91,0,0,1-.87-10.48,21.87,21.87,0,0,0,1.2-7.32,19.87,19.87,0,0,0-4.5-12.75A11,11,0,0,1,808.13,460a22.25,22.25,0,0,0,.71-11,18.9,18.9,0,0,0-4-8.69,11.35,11.35,0,0,1-2.6-7.76,21.94,21.94,0,0,0-.67-6.2C800,420,795.41,415.14,790,414.1c-9.49-1.8-17.67,7.27-17.59,18.44.05,6.79,3.15,12.61,7.69,15.6a22.12,22.12,0,0,0-.73,5.76c.06,7.78,4.12,14.28,9.78,16.71A20.57,20.57,0,0,0,784.58,484c0,6.2,2.63,11.59,6.53,14.76a21.29,21.29,0,0,0-3.89,17.16c1.28,6.73,5.83,12,11.39,13.29,9.68,2.18,18.13-7,18-18.35A20.62,20.62,0,0,0,814.09,500.83Z"/><ellipse class="cls-12" cx="782.47" cy="483.34" rx="23.93" ry="17.41" transform="translate(267.42 1245.31) rotate(-87.65)"/><path class="cls-12" d="M747.49,433.31c-.08-11.25-8.52-19.86-18.06-17.28-5.51,1.48-10,6.88-11.33,13.57a22.33,22.33,0,0,0-.29,7.16,10.65,10.65,0,0,1-1.63,7.3A21.61,21.61,0,0,0,714,463.23a10.31,10.31,0,0,1-1.54,9.8,20.54,20.54,0,0,0-4.53,13.3,21.26,21.26,0,0,0,1.58,8,10.27,10.27,0,0,1-.54,9,21.75,21.75,0,0,0-2.47,15.09c1.28,6.73,5.83,12,11.4,13.29,9.67,2.18,18.12-7,18-18.35a19.9,19.9,0,0,0-4.48-12.76,20.07,20.07,0,0,0,6.32-15.15,19.71,19.71,0,0,0-4.77-13c5.62-2.78,9.58-9.53,9.53-17.31a21.39,21.39,0,0,0-1.15-6.79A20.11,20.11,0,0,0,747.49,433.31Z"/><ellipse class="cls-12" cx="739.6" cy="481.62" rx="20.49" ry="14.91" transform="translate(228.02 1200.82) rotate(-87.65)"/><path class="cls-13" d="M661.67,492.4a58.45,58.45,0,0,0-10.17-12.83c-3.78-3.46-10.27-6.34-17.36.28s-4.77,14.53-1.39,17.68A18.34,18.34,0,0,0,650,501.94S665,503,661.67,492.4Z"/><path class="cls-13" d="M661.32,492.26l1.2-14.61a3.12,3.12,0,0,0-2.86-3.36h0a3.13,3.13,0,0,0-3.37,2.85l-1.2,14.61a3.13,3.13,0,0,0,2.86,3.37h0A3.13,3.13,0,0,0,661.32,492.26Z"/><path class="cls-14" d="M791.28,725.69,772.76,903.13l9.26,5.61s-4.77,9-19.92,2.81c.56-4.49,0-204.94,0-204.94Z"/><path class="cls-14" d="M728.61,725.69l18.52,177.44-9.26,5.61s4.77,9,19.92,2.81c-.56-4.49,0-204.94,0-204.94Z"/><path class="cls-15" d="M782,908.74l18.3,6.39a11.07,11.07,0,0,1,7.42,10.45H782.61l-12-4.72h-3.27v4.72H762.1v-14C767,913.72,779,911.88,782,908.74Z"/><path class="cls-15" d="M737.87,908.74l-18.3,6.39a11.07,11.07,0,0,0-7.42,10.45h25.13l12-4.72h3.28v4.72h5.26v-14C753.62,913.19,743.8,912.63,737.87,908.74Z"/><path class="cls-16" d="M722.3,725.69h75.3l8.59-54.88c1.72-18.87-2.2-42.67-11.26-59.3l-7.43-13.66H732.37L725,611.51c-9.05,16.63-13,40.43-11.26,59.3Z"/><polygon class="cls-17" points="726.03 498.49 748.17 495.32 771.13 495.32 790.52 498.27 787.93 598.56 760.31 598.56 731.94 598.56 726.03 498.49"/><polygon class="cls-16" points="756.58 516.83 762.72 516.83 766.37 506.24 752.94 506.24 756.58 516.83"/><polygon class="cls-16" points="752.25 578.35 759.58 598.36 766.9 578.35 762.63 516.83 756.52 516.83 752.25 578.35"/><path class="cls-18" d="M748.17,495.32l-12.34,1.8,22.11,21.18,1.71-12.86S753.26,505.44,748.17,495.32Z"/><path class="cls-18" d="M771.13,495.32l12.34,1.8L761.36,518.3l-1.71-12.86S766,505.44,771.13,495.32Z"/><path class="cls-19" d="M749.05,486.34c3.75-3.33,7.22-5,10.6-5.2,3.38.17,6.84,1.87,10.6,5.2l.88,9c-2.76,5.45-7,9.52-11.48,10.12-4.45-.6-8.72-4.67-11.48-10.12Z"/><polygon class="cls-15" points="731.95 598.56 787.93 598.56 791.45 605.02 728.44 605.02 731.95 598.56"/><path class="cls-14" d="M805.45,606.4s-10.27-7.15-13.54-7.2-18.78,8.47-18.71,10.53,3.71,4.73,3.71,4.73l14.22-1.93,7.3,5.41,9.41-5.29Z"/><path class="cls-17" d="M712.59,506.2l-23.43,34a1.58,1.58,0,0,1-2.7-.15L662.14,492,646.58,503l30.23,54.08a12.5,12.5,0,0,0,20.85,2.53l35.26-42.39,5.61-16.77A21.13,21.13,0,0,0,712.59,506.2Z"/><path class="cls-17" d="M790.52,498.27l4.13,2.05a28.12,28.12,0,0,1,11.16,9.95L835,555.46a14.39,14.39,0,0,1,.33,15.09l-28.41,47.39-6.88-15,18.22-35.34a4.71,4.71,0,0,0-.42-4.67l-33.12-41.53Z"/><path class="cls-17" d="M797.82,545.9c0,8.83-6.7,12.21-15.54,12.21s1-7.16,1-16-10.3-19.47-1.47-19.47S797.82,537.07,797.82,545.9Z"/><g class="cls-20"><path class="cls-21" d="M751.55,477.07c3.79-2.89,7.18-4.27,10.4-4.19,3.19.39,6.35,2.25,9.68,5.65l.21,8.57c-3,5-7.32,8.53-11.57,8.79-4.18-.88-7.94-5-10.17-10.38Z"/></g><path class="cls-19" d="M767.36,407.5S790,418.21,792,435.15c0,0-1.11,25.33-2.07,29.15s-10,25.92-27.64,27.12h0c-17.71-.56-27.5-22.33-28.6-26.11s-3.11-29.06-3.11-29.06C728.2,413.87,767.36,407.5,767.36,407.5Z"/><path class="cls-8" d="M775.7,449a2.31,2.31,0,1,0,2.26-2.35A2.32,2.32,0,0,0,775.7,449Z"/><path class="cls-8" d="M748,450.06a2.88,2.88,0,1,0,2.83-2.94A2.87,2.87,0,0,0,748,450.06Z"/><path class="cls-8" d="M775.13,449.57a2.89,2.89,0,1,0,2.83-2.94A2.89,2.89,0,0,0,775.13,449.57Z"/><path class="cls-12" d="M747.14,416.15c7.93,17.1,44.69-1.75,44.62,42,9.79-15,16.7-83.19-48.55-65.58-25-2.63-40.41,57.69-15.75,76.36C724.59,430.66,742.52,432.44,747.14,416.15Z"/><path class="cls-22" d="M770.8,471.52a6.67,6.67,0,0,1-6.66,6.75,6.81,6.81,0,0,1-6.9-6.5Z"/><path class="cls-12" d="M769.68,437.41l.07,1.19,15.88.7S781.55,437.52,769.68,437.41Z"/><path class="cls-12" d="M757.13,437.63l0,1.19-15.85,1.27S745.27,438.17,757.13,437.63Z"/><path class="cls-19" d="M738.5,454.63c-.09,4.05-2.76,7.28-6,7.21s-7.47-7.13-5.83-12c1.07-3.16,5-2.78,8.16-2.71S738.58,450.59,738.5,454.63Z"/><path class="cls-23" d="M1014.85,906.55v16.33h61.81v-3.27c0-3.07-2-2.28-5-3.15l-36.38-9.4Z"/><path class="cls-23" d="M960.82,906.55v16.33H899v-3.27c0-3.07,2-2.28,5-3.15l32.66-9.4Z"/><polygon class="cls-15" points="1042.26 648.84 1035.3 907.06 1014.65 907.06 997.21 680.39 961.02 907.06 936.65 907.06 953.57 649.06 1042.26 648.84"/><rect class="cls-9" x="1014.85" y="922.88" width="61.81" height="2.7" transform="translate(2091.51 1848.46) rotate(180)"/><rect class="cls-9" x="899.01" y="922.88" width="61.81" height="2.7" transform="translate(1859.83 1848.46) rotate(180)"/><rect class="cls-24" x="1014.83" y="396" width="19.16" height="50.15" rx="9.58"/><path class="cls-24" d="M974.46,446.15h0a9.58,9.58,0,0,1-9.58-9.58V409.28a9.58,9.58,0,0,1,9.58-9.58h0a9.57,9.57,0,0,1,9.58,9.58v27.29A9.57,9.57,0,0,1,974.46,446.15Z"/><polygon class="cls-16" points="950.2 504.05 985.31 497.31 1010.81 497.31 1044.89 503.44 1042.3 650.78 953.61 650.78 950.2 504.05"/><path class="cls-25" d="M1010.81,497.31s-11.43,25-25.5,0c1.53.93,12.75,5.13,12.75,5.13Z"/><path class="cls-19" d="M985.31,497.31l1.21-10h22.87l1.42,10C1002,504.27,993.48,504,985.31,497.31Z"/><g class="cls-20"><path class="cls-26" d="M985.31,497.31l1.21-10h22.87l1.42,10C1002,504.27,993.48,504,985.31,497.31Z"/></g><path class="cls-19" d="M1023.26,443.31c0,4.24,2.72,7.67,6.08,7.67s7.65-9.32,6-14.43c-1-3.33-5.36-2.74-8.15-1S1023.26,439.07,1023.26,443.31Z"/><path class="cls-19" d="M972.42,443.31c0,4.24-2.72,7.67-6.08,7.67s-7.64-9.32-6-14.43c1-3.33,5.37-2.74,8.15-1S972.42,439.07,972.42,443.31Z"/><path class="cls-19" d="M998.1,410.41h0s-30.09,5.77-31.91,23.4c0,0,.61,26.25,1.52,30.24,5.92,26.12,27.52,27.66,27.52,27.66,22-.76,31.49-22,32.56-25.92s2.23-32,2.23-32C1032.11,410.51,1001.54,405.42,998.1,410.41Z"/><path class="cls-8" d="M984,446.15a3.12,3.12,0,1,1-3.12-3.12A3.12,3.12,0,0,1,984,446.15Z"/><path class="cls-8" d="M1010.61,446.15a3.13,3.13,0,1,1-3.12-3.12A3.13,3.13,0,0,1,1010.61,446.15Z"/><path class="cls-22" d="M987.37,472c0,3.74,3.89,5.76,7.16,5.76s7.16-2.19,7.16-5.76Z"/><path class="cls-24" d="M1000.58,436.82l.24,2.42h16.52S1012.91,436.39,1000.58,436.82Z"/><path class="cls-24" d="M988.48,436.82l-.24,2.42H971.72S976.15,436.39,988.48,436.82Z"/><polygon class="cls-24" points="965.31 422.81 966.54 448.26 967.24 449 968.87 419.64 965.31 422.81"/><polygon class="cls-24" points="1030.23 417.4 1029.77 448.26 1027.22 449 1027.22 415.58 1030.23 417.4"/><ellipse class="cls-24" cx="998.07" cy="410.98" rx="33.82" ry="21.31"/><polygon class="cls-22" points="985.12 497.15 997.55 502.44 992.34 517.82 967.59 500.71 985.12 497.15"/><polygon class="cls-22" points="1011.1 497.15 998.67 502.44 1003.88 517.82 1028.68 500.52 1011.1 497.15"/><path class="cls-13" d="M1139.65,495.94a62.48,62.48,0,0,1,12.63-12.13c4.5-3.11,11.79-5.23,18.36,2.82s2.95,16.08-1.09,18.93a19.63,19.63,0,0,1-18.94,2.17S1134.64,506.67,1139.65,495.94Z"/><path class="cls-13" d="M1140,495.84l.84-15.65a3.36,3.36,0,0,1,3.52-3.16h0a3.34,3.34,0,0,1,3.15,3.52l-.84,15.65a3.34,3.34,0,0,1-3.52,3.16h0A3.34,3.34,0,0,1,1140,495.84Z"/><path class="cls-16" d="M1050,507.44l46,46a3.63,3.63,0,0,0,5.61-.58l38.88-59.46c2.63,7.44,6.77,13.25,13.43,16.35l-38.28,60.41a19.14,19.14,0,0,1-29.32,5.07l-36.7-32.15-18-16.23a13.37,13.37,0,0,1-3.11-15.7h0A13.37,13.37,0,0,1,1050,507.44Z"/><path class="cls-13" d="M857.16,497.18a62.42,62.42,0,0,0-13-11.75c-4.6-3-11.94-4.88-18.27,3.36s-2.47,16.16,1.65,18.89a19.64,19.64,0,0,0,19,1.6S862.48,507.75,857.16,497.18Z"/><path class="cls-13" d="M856.76,497.09l-1.3-15.62a3.35,3.35,0,0,0-3.61-3.05h0A3.33,3.33,0,0,0,848.8,482l1.31,15.62a3.34,3.34,0,0,0,3.6,3.05h0A3.33,3.33,0,0,0,856.76,497.09Z"/><ellipse class="cls-14" cx="834.05" cy="494.46" rx="14.89" ry="11.28" transform="matrix(0.6, -0.8, 0.8, 0.6, -62.39, 863.94)"/><path class="cls-16" d="M947.06,506l-44.59,47.32a3.64,3.64,0,0,1-5.63-.41l-40.62-58.29c-2.41,7.52-6.37,13.45-12.94,16.74l40.05,59.26a19.14,19.14,0,0,0,29.46,4.19l35.73-33.22L966,524.84a13.37,13.37,0,0,0,2.65-15.78h0A13.38,13.38,0,0,0,947.06,506Z"/><g class="cls-27"><path class="cls-28" d="M1196.73,468.61a15,15,0,0,1-14.85-13C1163.68,318,1055.06,208.19,917.73,188.46a15,15,0,0,1,4.27-29.7,341.46,341.46,0,0,1,289.62,292.88,15,15,0,0,1-14.89,17Z"/><path class="cls-28" d="M549.77,465a14.24,14.24,0,0,1-2.15-.16,15,15,0,0,1-12.72-17A341.46,341.46,0,0,1,827.78,158.24,15,15,0,1,1,831.72,188C694.18,206.18,584.33,314.8,564.6,452.13A15,15,0,0,1,549.77,465Z"/><path class="cls-28" d="M826.15,835.11A15.65,15.65,0,0,1,824,835,341.46,341.46,0,0,1,534.38,542.08a15,15,0,0,1,29.74-3.94c18.2,137.54,126.82,247.39,264.15,267.12a15,15,0,0,1-2.12,29.85Z"/><path class="cls-28" d="M916.23,835.61a15,15,0,0,1-2-29.87c137.54-18.2,247.39-126.82,267.12-264.15a15,15,0,0,1,29.7,4.27A341.46,341.46,0,0,1,918.22,835.48,14.89,14.89,0,0,1,916.23,835.61Z"/><path class="cls-28" d="M873,293.49a15,15,0,0,1-15-15V144.9a15,15,0,1,1,30,0V278.49A15,15,0,0,1,873,293.49Z"/><path class="cls-28" d="M654.63,511.86H521a15,15,0,1,1,0-30H654.63a15,15,0,0,1,0,30Z"/><path class="cls-28" d="M873,863.82a15,15,0,0,1-15-15V715.17a15,15,0,0,1,30,0V848.82A15,15,0,0,1,873,863.82Z"/><path class="cls-28" d="M1225,511.86H1091.37a15,15,0,0,1,0-30H1225a15,15,0,0,1,0,30Z"/><path class="cls-28" d="M873,730.23a233.4,233.4,0,1,1,165-68.36A231.82,231.82,0,0,1,873,730.23Zm0-436.74c-112.14,0-203.37,91.23-203.37,203.37S760.86,700.23,873,700.23,1076.37,609,1076.37,496.86,985.14,293.49,873,293.49Z"/></g><path class="cls-14" d="M623.35,487.48c4.86,5.1,14.25,4,21-2.37s8.26-15.75,3.4-20.85-14.25-4-21,2.37S618.49,482.38,623.35,487.48Z"/><path class="cls-14" d="M1173.77,490c-2,5.88-10,8.47-17.77,5.77s-12.41-9.65-10.37-15.54,10-8.46,17.77-5.77S1175.81,484.14,1173.77,490Z"/><g class="cls-3"><path class="cls-11" d="M1449.45,905.61,1361.22,860a12.57,12.57,0,0,0-11.7.08l-87.61,46.82a12.57,12.57,0,0,1-18.33-13.13l16.13-98a12.58,12.58,0,0,0-3.69-11.1l-71.59-68.85a12.57,12.57,0,0,1,6.82-21.49l98.2-14.95a12.56,12.56,0,0,0,9.42-6.94L1342.23,583a12.57,12.57,0,0,1,22.54-.15l44.56,88.78a12.61,12.61,0,0,0,9.51,6.81l98.4,13.62a12.57,12.57,0,0,1,7.11,21.4l-70.66,69.81a12.57,12.57,0,0,0-3.54,11.15l17.45,97.79A12.57,12.57,0,0,1,1449.45,905.61Z"/></g><g class="cls-6"><path class="cls-29" d="M1421.21,127.12,1302,160.38a123.74,123.74,0,0,0,231.43,18.87Z"/></g><path class="cls-30" d="M1423.9,120.57l112.47,49.86a123.69,123.69,0,0,0-82.9-156.32Z"/><g class="cls-6"><path class="cls-5" d="M1516.35,85.41a4.5,4.5,0,0,1-4-2.4,104.83,104.83,0,0,0-51.88-47.82,4.5,4.5,0,1,1,3.53-8.27,113.66,113.66,0,0,1,56.3,51.88,4.5,4.5,0,0,1-4,6.61Z"/></g><path class="cls-16" d="M1418.58,118.63l20.94-92c-16.2-4.24-37.14-5-54.43-.17a97.76,97.76,0,0,0-67.89,120.45Z"/><g class="cls-6"><path class="cls-7" d="M1625.41,296a2,2,0,0,1-2-2V281.5a2,2,0,0,1,4,0V294A2,2,0,0,1,1625.41,296Zm0-25a2,2,0,0,1-2-2V256.5a2,2,0,0,1,4,0V269A2,2,0,0,1,1625.41,271Zm0-25a2,2,0,0,1-2-2v-12.5a2,2,0,0,1,4,0V244A2,2,0,0,1,1625.41,246Zm0-25a2,2,0,0,1-2-2v-12.5a2,2,0,0,1,4,0V219A2,2,0,0,1,1625.41,221Zm0-25a2,2,0,0,1-2-2v-12.5a2,2,0,0,1,4,0V194A2,2,0,0,1,1625.41,196Zm0-25a2,2,0,0,1-2-2V156.47a2,2,0,0,1,4,0V169A2,2,0,0,1,1625.41,171Zm0-25a2,2,0,0,1-2-2v-12.5a2,2,0,0,1,4,0V144A2,2,0,0,1,1625.41,146Zm0-25a2,2,0,0,1-1.89-1.33h-9.28a2,2,0,0,1,0-4h11.17a2,2,0,0,1,2,2V119A2,2,0,0,1,1625.41,121Zm-23.67-1.33h-12.5a2,2,0,0,1,0-4h12.5a2,2,0,0,1,0,4Zm-25,0h-12.5a2,2,0,0,1,0-4h12.5a2,2,0,0,1,0,4Z"/></g><g class="cls-6"><path class="cls-7" d="M1276,119.63h-10.21a2,2,0,0,1,0-4H1276a2,2,0,0,1,0,4Zm-22.72,0h-12.5a2,2,0,0,1,0-4h12.5a2,2,0,0,1,0,4Zm-25,0h-12.51a2,2,0,0,1,0-4h12.51a2,2,0,0,1,0,4Zm-25,0h-12.5a2,2,0,0,1,0-4h12.5a2,2,0,0,1,0,4Zm-25,0h-12.5a2,2,0,0,1,0-4h12.5a2,2,0,0,1,0,4Zm-25,0h-12.5a2,2,0,0,1,0-4h12.5a2,2,0,0,1,0,4Zm-25,0h-12.5a2,2,0,0,1,0-4h12.5a2,2,0,0,1,0,4Zm-25,0h-12.51a2,2,0,0,1,0-4h12.51a2,2,0,0,1,0,4Zm-25,0h-12.5a2,2,0,0,1,0-4h12.5a2,2,0,0,1,0,4Zm-25,0h-12.5a2,2,0,0,1,0-4h12.5a2,2,0,0,1,0,4Zm-25,0h-12.5a2,2,0,0,1,0-4h12.5a2,2,0,0,1,0,4Zm-25,0h-12.5a2,2,0,0,1,0-4h12.5a2,2,0,0,1,0,4Zm-25,0H965.71a2,2,0,0,1,0-4h12.51a2,2,0,0,1,0,4Z"/></g><g class="cls-6"><path class="cls-31" d="M588.2,1.88V12.67H571.31V67.56H558.18V12.67H541.29V1.88Z"/><path class="cls-31" d="M603.69,67.56H590.08L611.19,1.88h16.43l21.11,65.68H635.12L630.9,54.43h-23Zm15.95-48.32h-.47l-7.51,23.93h15.49Z"/><path class="cls-31" d="M681.1,1.88c14.55,0,23,8.44,23,21.58,0,14.55-10.32,18.77-10.32,18.77v.47l15,24.86H694.24L681.1,45H670.31V67.56H657.17V1.88ZM670.31,34.25H681.1c5.16,0,9.39-4.22,9.39-10.79s-4.23-10.79-9.39-10.79H670.31Z"/><path class="cls-31" d="M744,0C755.7,0,761.8,6.1,761.8,6.1L756.17,15a17.91,17.91,0,0,0-11.26-3.76c-9.85,0-16.89,7-16.89,23.46s7,23.46,16.89,23.46a21.51,21.51,0,0,0,6.1-.94V40.35H742.1V29.56h22V61.93A30.15,30.15,0,0,1,744,69.44c-16.89,0-29.55-12.67-29.55-34.72S727.08,0,744,0Z"/><path class="cls-31" d="M778.69,1.88h43.17V12.67h-30V29.56H812V40.35H791.83V56.77h30.5V67.56H778.69Z"/><path class="cls-31" d="M873.94,1.88V12.67H857.05V67.56H843.91V12.67H827V1.88Z"/><path class="cls-31" d="M929.3,0C941,0,947.13,6.1,947.13,6.1L941.5,15a17.91,17.91,0,0,0-11.26-3.76c-9.85,0-16.89,7-16.89,23.46s7,23.46,16.89,23.46a21.6,21.6,0,0,0,6.1-.94V40.35h-8.92V29.56h22.06V61.93a30.15,30.15,0,0,1-20.18,7.51c-16.89,0-29.56-12.67-29.56-34.72S912.41,0,929.3,0Z"/><path class="cls-31" d="M988,1.88c14.55,0,23,8.44,23,21.58,0,14.55-10.32,18.77-10.32,18.77v.47l15,24.86h-14.54L988,45H977.16V67.56H964V1.88ZM977.16,34.25H988c5.16,0,9.38-4.22,9.38-10.79S993.11,12.67,988,12.67H977.16Z"/><path class="cls-31" d="M1049.88,69.44c-16,0-28.62-12.67-28.62-34.72S1033.93,0,1049.88,0s28.62,12.67,28.62,34.72S1065.84,69.44,1049.88,69.44Zm0-58.18c-8,0-15,7-15,23.46s7,23.46,15,23.46,15-7,15-23.46S1057.86,11.26,1049.88,11.26Z"/><path class="cls-31" d="M1103.84,46.45c0,7.51,4.22,11.73,11.73,11.73S1127.3,54,1127.3,46.45V1.88h13.14V46.45c0,13.14-9.86,23-24.87,23s-24.87-9.85-24.87-23V1.88h13.14Z"/><path class="cls-31" d="M1170,67.56h-13.14V1.88h23.93c15,0,23.92,8.91,23.92,22.52s-8.91,22.52-23.92,22.52H1170Zm0-54.89V36.13h10.79c5.63,0,10.32-4.69,10.32-11.73s-4.69-11.73-10.32-11.73Z"/></g><g class="cls-3"><path class="cls-5" d="M1041.69,192.43h-7.42V155.35h13.51c8.48,0,13.51,5,13.51,12.71s-5,12.72-13.51,12.72h-6.09Zm0-31v13.25h6.09c3.18,0,5.83-2.65,5.83-6.63s-2.65-6.62-5.83-6.62Z"/><path class="cls-5" d="M1081.43,155.35c8.21,0,13,4.77,13,12.18,0,8.22-5.83,10.6-5.83,10.6v.26l8.47,14h-8.21l-7.41-12.71h-6.1v12.71h-7.41V155.35Zm-6.1,18.28h6.1c2.91,0,5.29-2.39,5.29-6.1s-2.38-6.09-5.29-6.09h-6.1Z"/><path class="cls-5" d="M1116.39,193.49c-9,0-16.15-7.15-16.15-19.6s7.15-19.6,16.15-19.6,16.16,7.15,16.16,19.6S1125.4,193.49,1116.39,193.49Zm0-32.84c-4.5,0-8.47,4-8.47,13.24s4,13.25,8.47,13.25,8.48-4,8.48-13.25S1120.9,160.65,1116.39,160.65Z"/><path class="cls-5" d="M1151.63,192.43h-11.92V155.35h11.92c9.27,0,16.16,6.89,16.16,18.54S1160.9,192.43,1151.63,192.43Zm-4.51-31v24.9h4.51c4.77,0,8.47-3.71,8.47-12.45s-3.7-12.45-8.47-12.45Z"/><path class="cls-5" d="M1182.09,180.51c0,4.24,2.39,6.63,6.62,6.63s6.63-2.39,6.63-6.63V155.35h7.41v25.16c0,7.42-5.56,13-14,13s-14-5.56-14-13V155.35h7.42Z"/><path class="cls-5" d="M1226.33,154.29c6.62,0,10.07,3.44,10.07,3.44l-3.18,5a10.15,10.15,0,0,0-6.36-2.12c-5.56,0-9.54,4-9.54,13.24s4,13.25,9.54,13.25a9.63,9.63,0,0,0,6.89-2.65l3.18,5a15.09,15.09,0,0,1-10.6,4c-9.54,0-16.69-7.15-16.69-19.6S1216.79,154.29,1226.33,154.29Z"/><path class="cls-5" d="M1265.54,155.35v6.09H1256v31h-7.42v-31h-9.53v-6.09Z"/></g><g class="cls-3"><path class="cls-9" d="M342.82,498.55V486c0-7.53,3.77-11.3,9.54-11.3a7,7,0,0,1,6.88,4.77h.3s1.36-6.78,8.39-6.78c6,0,10.05,4,10.05,11.8v14.07Zm10-16.58c-2.76,0-4.26,1.51-4.26,4v5.53h8.53V486C357.13,483.48,355.63,482,352.86,482Zm10.05,9.55h9.29v-7a4.22,4.22,0,0,0-4.52-4.52c-3,0-4.77,1.76-4.77,4.52Z"/><path class="cls-9" d="M366.68,459.62c4,0,6.27-2.26,6.27-6.28s-2.26-6.28-6.27-6.28H342.82v-7h23.86c7,0,12.3,5.28,12.3,13.31s-5.27,13.31-12.3,13.31H342.82v-7Z"/><path class="cls-9" d="M367.68,409.9c6.28,0,11.3,5,11.3,13.56a14.88,14.88,0,0,1-4.52,11.05l-4.77-3A10.43,10.43,0,0,0,373,424c0-4.52-2.26-6.78-5.27-6.78-6.28,0-3,15.82-15.32,15.82-5.77,0-10.54-4.77-10.54-12.05,0-7,4-10.3,4-10.3l4.77,2.76a10.71,10.71,0,0,0-2.76,7c0,3.27,2,5.28,4.52,5.28C358.89,425.72,355.88,409.9,367.68,409.9Z"/><path class="cls-9" d="M378,396.59v7H342.82v-7Z"/><path class="cls-9" d="M364.42,368h-21.6v-7H378v7.43l-21.6,11.9v.25H378v7H342.82v-7.44l21.6-11.9Z"/><path class="cls-9" d="M342.82,351.89V328.78h5.78v16.07h9V334.06h5.77v10.79h8.79V328.53H378v23.36Z"/><path class="cls-9" d="M367.68,301.16c6.28,0,11.3,5,11.3,13.56a14.88,14.88,0,0,1-4.52,11l-4.77-3a10.43,10.43,0,0,0,3.26-7.53c0-4.52-2.26-6.78-5.27-6.78-6.28,0-3,15.82-15.32,15.82-5.77,0-10.54-4.77-10.54-12.05,0-7,4-10.3,4-10.3l4.77,2.76a10.71,10.71,0,0,0-2.76,7c0,3.27,2,5.28,4.52,5.28C358.89,317,355.88,301.16,367.68,301.16Z"/><path class="cls-9" d="M367.68,273.53c6.28,0,11.3,5,11.3,13.56a14.86,14.86,0,0,1-4.52,11.05l-4.77-3A10.43,10.43,0,0,0,373,287.6c0-4.52-2.26-6.78-5.27-6.78-6.28,0-3,15.82-15.32,15.82-5.77,0-10.54-4.77-10.54-12.06,0-7,4-10.29,4-10.29l4.77,2.76a10.68,10.68,0,0,0-2.76,7c0,3.26,2,5.27,4.52,5.27C358.89,289.35,355.88,273.53,367.68,273.53Z"/></g><g class="cls-3"><path class="cls-32" d="M1645.88,263.28a12.2,12.2,0,0,1,2.85-8.32l4.16,2.63a8.38,8.38,0,0,0-1.75,5.26c0,4.6,3.29,7.88,10.95,7.88s11-3.28,11-7.88a8,8,0,0,0-2.19-5.7l4.16-2.63a12.47,12.47,0,0,1,3.29,8.76c0,7.89-5.92,13.81-16.22,13.81S1645.88,271.17,1645.88,263.28Z"/><path class="cls-32" d="M1678.31,238.31c0,7.45-5.92,13.36-16.22,13.36s-16.21-5.91-16.21-13.36,5.92-13.37,16.21-13.37S1678.31,230.86,1678.31,238.31Zm-27.17,0c0,3.72,3.29,7,10.95,7s11-3.29,11-7-3.29-7-11-7S1651.14,234.58,1651.14,238.31Z"/><path class="cls-32" d="M1665.6,201.94h-18.84V195.8h30.67v6.49l-18.84,10.38v.22h18.84V219h-30.67v-6.49l18.84-10.38Z"/><path class="cls-32" d="M1668.45,169.29c5.48,0,9.86,4.39,9.86,11.83a13,13,0,0,1-4,9.64l-4.16-2.63a9.1,9.1,0,0,0,2.85-6.57c0-3.94-2-5.91-4.6-5.91-5.48,0-2.63,13.8-13.37,13.8-5,0-9.2-4.16-9.2-10.52,0-6.13,3.51-9,3.51-9l4.16,2.41a9.32,9.32,0,0,0-2.41,6.13c0,2.85,1.75,4.61,3.94,4.61C1660.78,183.1,1658.15,169.29,1668.45,169.29Z"/><path class="cls-32" d="M1667.57,157.9c3.51,0,5.48-2,5.48-5.48s-2-5.47-5.48-5.47h-20.81v-6.14h20.81c6.14,0,10.74,4.6,10.74,11.61s-4.6,11.61-10.74,11.61h-20.81V157.9Z"/><path class="cls-32" d="M1673.05,120.87l-14.46,5.26v.22l18.84,1.75v6.36l-30.67-2.85v-6.79l16.87-6.14v-.22l-16.87-6.13v-6.79l30.67-2.85V109l-18.84,1.76V111l14.46,5.26Z"/><path class="cls-32" d="M1646.76,96.11V76h5V90h7.88V80.56h5V90h7.67V75.74h5V96.11Z"/><path class="cls-32" d="M1646.76,59.31c0-6.79,3.94-10.74,10.08-10.74,6.79,0,8.76,4.82,8.76,4.82h.22l11.61-7v6.79l-10.52,6.14v5h10.52v6.13h-30.67Zm15.12,5v-5c0-2.41-2-4.38-5-4.38s-5,2-5,4.38v5Z"/></g><g class="cls-3"><path class="cls-32" d="M1287.68,581.68c8.4,0,15.13,6.73,15.13,18.15a19.9,19.9,0,0,1-6,14.79l-6.39-4a14,14,0,0,0,4.37-10.08c0-6-3-9.08-7.06-9.08-8.4,0-4,21.18-20.5,21.18-7.73,0-14.12-6.39-14.12-16.14,0-9.41,5.38-13.78,5.38-13.78l6.39,3.7a14.31,14.31,0,0,0-3.7,9.41c0,4.37,2.69,7.06,6,7.06C1275.92,602.86,1271.88,581.68,1287.68,581.68Z"/><path class="cls-32" d="M1254.41,573.28V542.36h7.73v21.51h12.1V549.42H1282v14.45h11.76V542h7.73v31.26Z"/><path class="cls-32" d="M1254.41,534v-9.41h39.32V504.71h7.73V534Z"/><path class="cls-32" d="M1254.41,497.31V466.39h7.73V487.9h12.1V473.45H1282V487.9h11.76V466.06h7.73v31.25Z"/><path class="cls-32" d="M1253.06,439.84c0-8.41,4.37-12.78,4.37-12.78l6.39,4a12.82,12.82,0,0,0-2.69,8.06c0,7.06,5,12.1,16.8,12.1s16.81-5,16.81-12.1a12.17,12.17,0,0,0-3.36-8.73l6.38-4a19.13,19.13,0,0,1,5,13.45c0,12.1-9.08,21.17-24.88,21.17S1253.06,451.94,1253.06,439.84Z"/><path class="cls-32" d="M1254.41,390.09h7.73v12.1h39.32v9.41h-39.32v12.1h-7.73Z"/><path class="cls-32" d="M1301.46,373.28v9.41h-47v-9.41Z"/><path class="cls-32" d="M1302.81,343.7c0,11.43-9.08,20.51-24.88,20.51s-24.87-9.08-24.87-20.51,9.08-20.5,24.87-20.5S1302.81,332.27,1302.81,343.7Zm-41.68,0c0,5.72,5,10.76,16.8,10.76s16.81-5,16.81-10.76-5-10.75-16.81-10.75S1261.13,338,1261.13,343.7Z"/><path class="cls-32" d="M1283.31,287.91h-28.9v-9.42h47v9.95l-28.9,15.93v.34h28.9v9.41h-47v-9.95l28.9-15.93Z"/></g><g class="cls-3"><path class="cls-32" d="M118.3,400v11H84.12V400c0-8.55,6.35-14.89,17.09-14.89S118.3,391.45,118.3,400Zm-28.56,4.15h23V400c0-4.4-3.42-7.82-11.48-7.82S89.74,395.6,89.74,400Z"/><path class="cls-32" d="M84.12,378.51V356.05h5.62v15.63h8.79v-10.5h5.61v10.5h8.55V355.81h5.61v22.7Z"/><path class="cls-32" d="M113.42,336.28l-16.11,5.85v.25l21,1.95v7.08l-34.18-3.17v-7.57l18.8-6.84v-.24l-18.8-6.84v-7.56L118.3,316v7.08l-21,2v.25l16.11,5.86Z"/><path class="cls-32" d="M119.28,296c0,8.3-6.59,14.89-18.07,14.89S83.15,304.29,83.15,296s6.59-14.89,18.06-14.89S119.28,287.69,119.28,296ZM89,296c0,4.15,3.66,7.81,12.2,7.81s12.21-3.66,12.21-7.81-3.66-7.81-12.21-7.81S89,291.84,89,296Z"/><path class="cls-32" d="M83.15,261.32c0-6.1,3.17-9.27,3.17-9.27L91,255A9.31,9.31,0,0,0,89,260.83c0,5.13,3.66,8.79,12.2,8.79s12.21-3.66,12.21-8.79a11.24,11.24,0,0,0-.49-3.17h-8.79v4.64H98.53V250.82h16.84a15.69,15.69,0,0,1,3.91,10.5c0,8.79-6.59,15.38-18.07,15.38S83.15,270.11,83.15,261.32Z"/><path class="cls-32" d="M84.12,230.8c0-7.56,4.4-12,11.23-12,7.57,0,9.77,5.37,9.77,5.37h.24l12.94-7.81V224l-11.72,6.83v5.62H118.3v6.83H84.12ZM101,236.42V230.8c0-2.68-2.2-4.88-5.62-4.88s-5.61,2.2-5.61,4.88v5.62Z"/><path class="cls-32" d="M118.3,208.59v7.07l-34.18-11v-8.55l34.18-11v7.08l-6.83,2.2v12Zm-25.14-8.3v.24l12.45,3.91v-8.06Z"/><path class="cls-32" d="M118.3,173.92v6.83H84.12V168.3c0-7.81,4.64-12.45,11.72-12.45s11.72,4.64,11.72,12.45v5.62Zm-28.56,0H102V168.3c0-2.93-2.45-5.37-6.11-5.37s-6.1,2.44-6.1,5.37Z"/><path class="cls-32" d="M84.12,124.11H118.3V131H104.14v12H118.3v6.84H84.12v-6.84H98.53V131H84.12Z"/><path class="cls-32" d="M118.3,108.49v6.83H84.12v-6.83Z"/><path class="cls-32" d="M83.15,86.51c0-6.1,3.17-9.27,3.17-9.27L91,80.17A9.32,9.32,0,0,0,89,86c0,5.12,3.66,8.78,12.2,8.78s12.21-3.66,12.21-8.78A8.84,8.84,0,0,0,111,79.68l4.64-2.93a13.9,13.9,0,0,1,3.66,9.76c0,8.79-6.59,15.38-18.07,15.38S83.15,95.3,83.15,86.51Z"/><path class="cls-32" d="M108.29,50.62c6.11,0,11,4.89,11,13.19a14.44,14.44,0,0,1-4.4,10.74l-4.63-2.93a10.16,10.16,0,0,0,3.17-7.32c0-4.4-2.2-6.6-5.13-6.6-6.1,0-2.93,15.39-14.89,15.39-5.61,0-10.25-4.64-10.25-11.72,0-6.84,3.9-10,3.9-10L91.69,54A10.42,10.42,0,0,0,89,60.88C89,64.05,91,66,93.4,66,99.75,66,96.82,50.62,108.29,50.62Z"/></g><g class="cls-3"><path class="cls-32" d="M456.27,185.71h26.29v6.57H464.27v12.06h12.29v6.51H464.27v14.86h-8Z"/><path class="cls-32" d="M503.71,226.85c-9.72,0-17.44-7.71-17.44-21.14s7.72-21.15,17.44-21.15,17.43,7.72,17.43,21.15S513.42,226.85,503.71,226.85Zm0-35.43c-4.86,0-9.15,4.29-9.15,14.29S498.85,220,503.71,220s9.14-4.29,9.14-14.29S508.56,191.42,503.71,191.42Z"/><path class="cls-32" d="M544.29,184.56c7.14,0,10.85,3.72,10.85,3.72l-3.42,5.43a10.94,10.94,0,0,0-6.86-2.29c-6,0-10.29,4.29-10.29,14.29S538.86,220,544.86,220a10.36,10.36,0,0,0,7.43-2.86l3.43,5.43a16.27,16.27,0,0,1-11.43,4.28c-10.29,0-18-7.71-18-21.14S534,184.56,544.29,184.56Z"/><path class="cls-32" d="M569.72,212.85c0,4.57,2.57,7.15,7.14,7.15s7.15-2.58,7.15-7.15V185.71h8v27.14c0,8-6,14-15.15,14s-15.14-6-15.14-14V185.71h8Z"/><path class="cls-32" d="M626.3,214c0,7.14-5.71,12.85-15.43,12.85a16.91,16.91,0,0,1-12.57-5.14l3.43-5.43A11.86,11.86,0,0,0,610.3,220c5.14,0,7.72-2.58,7.72-6,0-7.15-18-3.43-18-17.44,0-6.57,5.43-12,13.72-12,8,0,11.71,4.57,11.71,4.57l-3.14,5.43a12.16,12.16,0,0,0-8-3.14c-3.71,0-6,2.29-6,5.14C608.3,204,626.3,200.56,626.3,214Z"/></g><g class="cls-3"><path class="cls-5" d="M1369.42,546.15V519.86H1376v18.29h12.06V525.87h6.51v12.28h14.86v8Z"/><path class="cls-5" d="M1410.57,498.72c0,9.71-7.72,17.43-21.15,17.43s-21.15-7.72-21.15-17.43,7.72-17.43,21.15-17.43S1410.57,489,1410.57,498.72Zm-35.44,0c0,4.85,4.29,9.14,14.29,9.14s14.29-4.29,14.29-9.14-4.29-9.15-14.29-9.15S1375.13,493.86,1375.13,498.72Z"/><path class="cls-5" d="M1368.27,458.14c0-7.15,3.72-10.86,3.72-10.86l5.43,3.43a10.9,10.9,0,0,0-2.29,6.85c0,6,4.29,10.29,14.29,10.29s14.29-4.28,14.29-10.29a10.39,10.39,0,0,0-2.86-7.43l5.43-3.42a16.25,16.25,0,0,1,4.29,11.43c0,10.28-7.72,18-21.15,18S1368.27,468.42,1368.27,458.14Z"/><path class="cls-5" d="M1396.56,432.7c4.58,0,7.15-2.57,7.15-7.14s-2.57-7.15-7.15-7.15h-27.14v-8h27.14c8,0,14,6,14,15.15s-6,15.14-14,15.14h-27.14v-8Z"/><path class="cls-5" d="M1397.71,376.12c7.14,0,12.86,5.71,12.86,15.43a16.9,16.9,0,0,1-5.15,12.57l-5.43-3.43a11.86,11.86,0,0,0,3.72-8.57c0-5.14-2.57-7.71-6-7.71-7.15,0-3.43,18-17.43,18-6.58,0-12-5.43-12-13.72,0-8,4.58-11.71,4.58-11.71l5.42,3.14a12.16,12.16,0,0,0-3.14,8c0,3.72,2.29,6,5.15,6C1387.7,394.12,1384.28,376.12,1397.71,376.12Z"/></g><g class="cls-3"><path class="cls-5" d="M1588.75,688.68V662.39h6.57v18.29h12.06V668.39h6.52v12.29h14.86v8Z"/><path class="cls-5" d="M1629.9,641.24c0,9.72-7.72,17.43-21.15,17.43s-21.14-7.71-21.14-17.43,7.71-17.43,21.14-17.43S1629.9,631.52,1629.9,641.24Zm-35.43,0c0,4.86,4.28,9.14,14.28,9.14s14.29-4.28,14.29-9.14-4.28-9.14-14.29-9.14S1594.47,636.38,1594.47,641.24Z"/><path class="cls-5" d="M1587.61,600.66c0-7.14,3.71-10.86,3.71-10.86l5.43,3.43a10.94,10.94,0,0,0-2.28,6.86c0,6,4.28,10.29,14.28,10.29s14.29-4.29,14.29-10.29a10.36,10.36,0,0,0-2.86-7.43l5.43-3.43a16.25,16.25,0,0,1,4.29,11.43c0,10.29-7.72,18-21.15,18S1587.61,611,1587.61,600.66Z"/><path class="cls-5" d="M1615.9,575.23c4.57,0,7.14-2.58,7.14-7.15s-2.57-7.14-7.14-7.14h-27.15v-8h27.15c8,0,14,6,14,15.14s-6,15.15-14,15.15h-27.15v-8Z"/><path class="cls-5" d="M1617,518.64c7.14,0,12.86,5.72,12.86,15.43a16.94,16.94,0,0,1-5.14,12.58l-5.43-3.43a11.9,11.9,0,0,0,3.71-8.57c0-5.15-2.57-7.72-6-7.72-7.14,0-3.43,18-17.43,18-6.57,0-12-5.43-12-13.71,0-8,4.57-11.72,4.57-11.72l5.43,3.14a12.19,12.19,0,0,0-3.14,8c0,3.72,2.28,6,5.14,6C1607,536.65,1603.61,518.64,1617,518.64Z"/></g><g class="cls-6"><path class="cls-7" d="M1202.75,380.49a2,2,0,0,1-2-2V366a2,2,0,0,1,4,0v12.5A2,2,0,0,1,1202.75,380.49Zm0-25a2,2,0,0,1-2-2V341a2,2,0,0,1,4,0v12.51A2,2,0,0,1,1202.75,355.49Zm0-25a2,2,0,0,1-2-2V316a2,2,0,0,1,4,0v12.5A2,2,0,0,1,1202.75,330.48Zm0-25a2,2,0,0,1-2-2V291a2,2,0,0,1,4,0v12.5A2,2,0,0,1,1202.75,305.47Zm0-25a2,2,0,0,1-2-2V266a2,2,0,0,1,4,0v12.51A2,2,0,0,1,1202.75,280.47Zm0-25a2,2,0,0,1-2-2V241a2,2,0,0,1,4,0v12.5A2,2,0,0,1,1202.75,255.46Zm0-25a2,2,0,0,1-2-2v-4.82h-3.67a2,2,0,0,1,0-4h5.67a2,2,0,0,1,2,2v6.82A2,2,0,0,1,1202.75,230.45Zm-18.17-6.82h-12.51a2,2,0,0,1,0-4h12.51a2,2,0,0,1,0,4Zm-25,0h-12.5a2,2,0,0,1,0-4h12.5a2,2,0,0,1,0,4Zm-25,0h-12.5a2,2,0,0,1,0-4h12.5a2,2,0,0,1,0,4Zm-25,0h-12.51a2,2,0,0,1,0-4h12.51a2,2,0,0,1,0,4Z"/></g><path class="cls-30" d="M232.21,173.8l21.89-21.89L310.19,208a44.84,44.84,0,0,0,63.42-63.42L317.52,88.49,339.4,66.61l56.09,56.09A75.79,75.79,0,0,1,288.31,229.89Z"/><rect class="cls-22" x="321.51" y="74.02" width="30.95" height="24.11" transform="translate(37.84 263.5) rotate(-45)"/><rect class="cls-22" x="236.21" y="159.32" width="30.95" height="24.11" transform="translate(-47.47 228.16) rotate(-45)"/><g class="cls-20"><path class="cls-21" d="M378,203.64a44.89,44.89,0,0,0,0-63.42L321.88,84.13l-4.36,4.36,56.09,56.09a44.87,44.87,0,0,1,2.07,61.13C376.46,205,377.24,204.37,378,203.64Z"/><path class="cls-21" d="M395.49,229.89c.74-.74,1.44-1.49,2.13-2.24a75.88,75.88,0,0,1-104.95-2.13l-56.09-56.09-4.37,4.37,56.1,56.09A75.87,75.87,0,0,0,395.49,229.89Z"/></g><g class="cls-6"><path class="cls-7" d="M308.31,439.17a2,2,0,0,1-2-2v-8.64a2,2,0,0,1,4,0v8.64A2,2,0,0,1,308.31,439.17Zm0-21.14a2,2,0,0,1-2-2V403.52a2,2,0,0,1,4,0V416A2,2,0,0,1,308.31,418Zm0-25a2,2,0,0,1-2-2v-12.5a2,2,0,0,1,4,0V391A2,2,0,0,1,308.31,393Zm0-25a2,2,0,0,1-2-2v-12.5a2,2,0,0,1,4,0V366A2,2,0,0,1,308.31,368Zm0-25a2,2,0,0,1-2-2v-12.5a2,2,0,0,1,4,0V341A2,2,0,0,1,308.31,343Zm0-25a2,2,0,0,1-2-2V303.5a2,2,0,0,1,4,0V316A2,2,0,0,1,308.31,318Zm0-25a2,2,0,0,1-2-2V278.49a2,2,0,0,1,4,0V291A2,2,0,0,1,308.31,293Z"/></g><g class="cls-6"><path class="cls-7" d="M715.18,161.33h-12.5a2,2,0,0,1,0-4h12.5a2,2,0,0,1,0,4Zm-25,0H677.67a2,2,0,0,1,0-4h12.51a2,2,0,0,1,0,4Zm-25,0h-12.5a2,2,0,0,1,0-4h12.5a2,2,0,0,1,0,4Zm-25,0h-12.5a2,2,0,0,1,0-4h12.5a2,2,0,0,1,0,4Zm-25,0h-12.5a2,2,0,0,1,0-4h12.5a2,2,0,0,1,0,4Zm-25,0h-12.5a2,2,0,0,1,0-4h12.5a2,2,0,0,1,0,4Zm-25,0H552.64a2,2,0,0,1,0-4h12.51a2,2,0,0,1,0,4Zm-25,0h-12.5a2,2,0,0,1,0-4h12.5a2,2,0,0,1,0,4Zm-25,0h-12.5a2,2,0,0,1,0-4h12.5a2,2,0,0,1,0,4Zm-25,0h-12.5a2,2,0,0,1,0-4h12.5a2,2,0,0,1,0,4Zm-25,0h-12.5a2,2,0,0,1,0-4h12.5a2,2,0,0,1,0,4Zm-25,0H440a2,2,0,0,1,0-4h.12a2,2,0,0,1,0,4Z"/></g><g class="cls-6"><path class="cls-7" d="M182.3,321.63a2,2,0,0,1-2-2V307.12a2,2,0,0,1,4,0v12.51A2,2,0,0,1,182.3,321.63Zm0-25a2,2,0,0,1-2-2v-12.5a2,2,0,0,1,4,0v12.5A2,2,0,0,1,182.3,296.62Zm0-25a2,2,0,0,1-2-2v-12.5a2,2,0,0,1,4,0v12.5A2,2,0,0,1,182.3,271.61Zm0-25a2,2,0,0,1-2-2v-12.5a2,2,0,0,1,4,0v12.5A2,2,0,0,1,182.3,246.61Zm0-25a2,2,0,0,1-2-2V207.1a2,2,0,1,1,4,0v12.5A2,2,0,0,1,182.3,221.6Zm0-25a2,2,0,0,1-2-2V182.09a2,2,0,1,1,4,0V194.6A2,2,0,0,1,182.3,196.6Zm0-25a2,2,0,0,1-2-2v-12.5a2,2,0,1,1,4,0v12.5A2,2,0,0,1,182.3,171.59Zm0-25a2,2,0,0,1-2-2v-12.5a2,2,0,1,1,4,0v12.5A2,2,0,0,1,182.3,146.58Zm0-25a2,2,0,0,1-2-2v-12.5a2,2,0,1,1,4,0v12.5A2,2,0,0,1,182.3,121.58Zm0-25a2,2,0,0,1-2-2v-.94a2,2,0,0,1,2-2h11.56a2,2,0,0,1,0,4H184A2,2,0,0,1,182.3,96.57Zm99.76-.94h-.68a2,2,0,0,1,0-4h.68a2,2,0,0,1,0,4Zm-13.18,0H256.37a2,2,0,0,1,0-4h12.51a2,2,0,0,1,0,4Zm-25,0h-12.5a2,2,0,0,1,0-4h12.5a2,2,0,0,1,0,4Zm-25,0h-12.5a2,2,0,0,1,0-4h12.5a2,2,0,0,1,0,4Z"/></g><g class="cls-6"><path class="cls-7" d="M77.33,778.61a2,2,0,0,1-2-2v-12.5a2,2,0,0,1,4,0v12.5A2,2,0,0,1,77.33,778.61Zm0-25a2,2,0,0,1-2-2V739.1a2,2,0,0,1,4,0v12.5A2,2,0,0,1,77.33,753.6Zm0-25a2,2,0,0,1-2-2V714.09a2,2,0,0,1,4,0V726.6A2,2,0,0,1,77.33,728.6Zm0-25a2,2,0,0,1-2-2v-12.5a2,2,0,0,1,4,0v12.5A2,2,0,0,1,77.33,703.59Zm0-25a2,2,0,0,1-2-2V664.08a2,2,0,0,1,4,0v12.51A2,2,0,0,1,77.33,678.59Zm0-25a2,2,0,0,1-2-2v-12.5a2,2,0,0,1,4,0v12.5A2,2,0,0,1,77.33,653.58Zm0-25a2,2,0,0,1-2-2v-12.5a2,2,0,0,1,4,0v12.5A2,2,0,0,1,77.33,628.57Zm0-25a2,2,0,0,1-2-2V589.06a2,2,0,0,1,4,0v12.51A2,2,0,0,1,77.33,603.57Zm0-25a2,2,0,0,1-2-2v-12.5a2,2,0,0,1,4,0v12.5A2,2,0,0,1,77.33,578.56Zm0-25a2,2,0,0,1-2-2v-12.5a2,2,0,0,1,4,0v12.5A2,2,0,0,1,77.33,553.55Zm0-25a2,2,0,0,1-2-2v-12.5a2,2,0,0,1,4,0v12.5A2,2,0,0,1,77.33,528.55Zm0-25a2,2,0,0,1-2-2V489a2,2,0,0,1,4,0v12.5A2,2,0,0,1,77.33,503.54Zm0-25a2,2,0,0,1-2-2V464a2,2,0,0,1,4,0v12.51A2,2,0,0,1,77.33,478.54Zm0-25a2,2,0,0,1-2-2V439a2,2,0,0,1,4,0v12.5A2,2,0,0,1,77.33,453.53Zm47.76-14.75h-12.5a2,2,0,0,1,0-4h12.5a2,2,0,1,1,0,4Zm-25,0H87.58a2,2,0,0,1,0-4h12.51a2,2,0,1,1,0,4Z"/></g><g class="cls-3"><g class="cls-6"><circle class="cls-8" cx="424.35" cy="287.45" r="13.92"/></g><g class="cls-6"><circle class="cls-8" cx="424.35" cy="327.27" r="13.92"/></g><g class="cls-6"><circle class="cls-8" cx="424.35" cy="367.09" r="13.92"/></g></g><g class="cls-3"><g class="cls-6"><circle class="cls-8" cx="261.94" cy="55.52" r="13.92" transform="translate(165.18 305.19) rotate(-80.78)"/></g><g class="cls-6"><circle class="cls-8" cx="222.12" cy="55.52" r="13.92" transform="translate(131.74 265.89) rotate(-80.78)"/></g><g class="cls-6"><circle class="cls-8" cx="182.3" cy="55.52" r="13.92" transform="translate(98.29 226.58) rotate(-80.78)"/></g></g><g class="cls-3"><g class="cls-6"><circle class="cls-8" cx="1461.83" cy="316.46" r="13.92"/></g><g class="cls-6"><circle class="cls-8" cx="1422.01" cy="316.46" r="13.92"/></g><g class="cls-6"><circle class="cls-8" cx="1382.19" cy="316.46" r="13.92"/></g></g><g class="cls-6"><circle class="cls-7" cx="77.33" cy="802.29" r="12"/></g><g class="cls-6"><circle class="cls-7" cx="1557.71" cy="736.72" r="12"/></g><g class="cls-6"><circle class="cls-7" cx="1672.57" cy="451.88" r="12"/></g><circle class="cls-22" cx="1653.84" cy="364.21" r="45.08"/><path class="cls-22" d="M1653.84,409.47a45.27,45.27,0,1,1,45.27-45.26A45.32,45.32,0,0,1,1653.84,409.47Zm0-90.16a44.9,44.9,0,1,0,44.9,44.9A44.95,44.95,0,0,0,1653.84,319.31Z"/><path class="cls-16" d="M1692.48,325.56l-36.13,36.14a3.56,3.56,0,0,1-5,0L1641,351.33a9.1,9.1,0,0,0-12.88,0h0a9.1,9.1,0,0,0,0,12.88l19.32,19.32a9.12,9.12,0,0,0,12.88,0l45.08-45.09a9.1,9.1,0,0,0,0-12.88h0A9.12,9.12,0,0,0,1692.48,325.56Z"/><path class="cls-14" d="M1517.41,760.78l8.79,170.08,9.51,5.77s-4.9,9.22-20.47,2.88c.58-4.61-18.83-198.33-18.83-198.33Z"/><path class="cls-14" d="M1453,760.78l19,170.08-9.51,5.77s4.9,9.22,20.47,2.88c-.58-4.61,0-198.33,0-198.33Z"/><path class="cls-15" d="M1535.71,936.63l18.8,6.56a11.38,11.38,0,0,1,7.62,10.73h-25.81l-12.3-4.84h-3.37v4.84h-5.41V939.51C1520.27,941.74,1532.57,939.86,1535.71,936.63Z"/><path class="cls-15" d="M1462.55,936.63l-18.8,6.56a11.38,11.38,0,0,0-7.62,10.73h25.81l12.3-4.84h3.37v4.84H1483V939.51C1478.73,941.2,1468.64,940.62,1462.55,936.63Z"/><path class="cls-15" d="M1521.16,643.48l-7.63-14H1456.9l-7.61,14c-9.3,17.09-8.33,41.54-6.57,60.92l29.34,226.46s7.9,2.66,10.8-.51c-.23-31.88,0-204.31.11-248.42h4.52c.11,44,26.86,216.32,26.63,248.45,4.43,4,12.08.48,12.08.48l1.53-226.46C1529.49,685,1530.47,660.57,1521.16,643.48Z"/><path class="cls-33" d="M1517.92,439.25l-30.23,18.05s-2.06,18.83-3.89,35.66c-.48-16.94-1.16-36.21-1.16-36.21l-30.48-15.33s-17.51,18.39,2.15,115.43c13.11,9.7,50.58,9.22,77.81,3.09C1533.46,507.51,1532.94,441.62,1517.92,439.25Z"/><path class="cls-14" d="M1451.46,532l-19.26,67.31-32.92,58.63,11,1.72,35-48.46a29,29,0,0,0,5-11.72l21-70-12.62-.91A4.94,4.94,0,0,0,1451.46,532Z"/><path class="cls-14" d="M1522.23,531.31l27.21,64.52,39.72,54.25-10.75,3-40.6-43.91a29.09,29.09,0,0,1-6.4-11l-29.27-66.93,12.42-2.42A4.94,4.94,0,0,1,1522.23,531.31Z"/><path class="cls-14" d="M1576.82,651.27l1.58,7.53a5.43,5.43,0,0,0,3,3.79c3,1.45,8,3.74,9.74,4,2.6.42-4.53-7.43-7.17-7.59l-5-9.51Z"/><path class="cls-14" d="M1584.94,644.19s15.22,5.14,18.34,6.81,10.42,17.53,9.27,19.44-6,2.52-6,2.52L1597,664l-13.77-6.36-6.41-6.39Z"/><path class="cls-34" d="M1516.15,528l-21.25-3h-20l-16.69,2.28a8.22,8.22,0,0,0-6.43,5.14l-4.19,52.11a16,16,0,0,0,3.25,4.35c2.71,17.44,6,40.54,6,40.54h56.63s.79-60.43,1.94-62.73C1515.13,564.13,1516.15,528,1516.15,528Z"/><g class="cls-6"><path class="cls-32" d="M1481.39,629.49c-.7-10.07-2.52-18.58-4.28-26.82a185.24,185.24,0,0,1-4.14-25.39c-.7-9.14,1.77-16.45,4.39-24.19,2.22-6.56,4.51-13.34,4.92-21.63l1,0c-.42,8.43-2.73,15.28-5,21.91-2.58,7.63-5,14.85-4.33,23.78a182.83,182.83,0,0,0,4.12,25.26c1.76,8.27,3.59,16.82,4.3,27Z"/></g><path class="cls-14" d="M1475.7,515.94c3.27-3.36,6.28-5.08,9.22-5.25,2.94.17,5.95,1.89,9.22,5.25l.76,9.09c-.65,1.23-8.25,5.85-12.12,6.45-3.49-1.15-7.84-6.45-7.84-6.45Z"/><g class="cls-20"><path class="cls-2" d="M1475.7,515.94c3.27-3.36,6.28-5.08,9.22-5.25,2.94.17,5.95,1.89,9.22,5.25l.76,9.09c-.65,1.23-8.25,5.85-12.12,6.45-3.49-1.15-7.84-6.45-7.84-6.45Z"/></g><path class="cls-14" d="M1505.93,482.78c-.45,4.14,1.85,7.78,5.13,8.13s8.55-6.28,7.52-11.43c-.67-3.36-4.69-3.48-8-3.83S1506.37,478.65,1505.93,482.78Z"/><path class="cls-14" d="M1488,441.14h0s21.34,27,27.46,33.15c-1.4,7.83-1.91,15.84-4.58,22.26-1.54,3.7-13.37,25-31.41,23.92l-1.9-.2c-17.85-2.82-23.09-25.88-23.71-29.85s.54-29.79.54-29.79C1454.79,437.67,1485.15,435.91,1488,441.14Z"/><path class="cls-33" d="M1506.73,450.31c-9.45,15.47-49.41,7.84-53.84,35.06-1.3.16-20.17-53.25,23.07-62.09,37-7.57,42,16,42,16C1532.34,451,1514,463,1506.73,450.31Z"/><path class="cls-34" d="M1440.76,573.33a14.26,14.26,0,0,0,28.52,0c0-7.88-3.51-22.43-11.39-22.43S1440.76,565.45,1440.76,573.33Z"/><path class="cls-14" d="M1411.67,657.61l-.67,7.66a5.43,5.43,0,0,1-2.49,4.12c-2.82,1.8-7.48,4.67-9.19,5.16-2.53.73,3.61-7.92,6.21-8.39.93-2.46,3.78-10,3.78-10Z"/><path class="cls-14" d="M1402.76,651.55s-14.5,6.93-17.4,9-1.78,17.88-.41,19.64,6.26,1.78,6.26,1.78l2-9.25,12.9-8,5.6-7.11Z"/><path class="cls-35" d="M1490,481.69a3.07,3.07,0,1,0,3.15-3A3.07,3.07,0,0,0,1490,481.69Z"/><path class="cls-35" d="M1463.23,481a3.07,3.07,0,1,0,3.15-3A3.07,3.07,0,0,0,1463.23,481Z"/><path class="cls-22" d="M1486.24,502.1c-.09,3.55-3.83,5.38-6.94,5.3s-6.75-2.25-6.66-5.63Z"/><path class="cls-33" d="M1487.77,470.11v1.17l14.29,1.33S1499.47,470.72,1487.77,470.11Z"/><path class="cls-33" d="M1472.69,469.73l-.07,1.18-14.34.62S1461,469.77,1472.69,469.73Z"/><polygon class="cls-34" points="1494.51 520.37 1500.01 525.75 1490.72 542.94 1482.78 531.48 1494.51 520.37"/><polygon class="cls-34" points="1475.39 520.37 1469.9 525.75 1474.04 540.79 1482.78 531.48 1475.39 520.37"/><g class="cls-6"><polygon class="cls-32" points="1494.51 520.37 1500.01 525.75 1490.72 542.94 1482.78 531.48 1494.51 520.37"/></g><g class="cls-6"><polygon class="cls-32" points="1475.39 520.37 1469.9 525.75 1474.04 540.79 1482.78 531.48 1475.39 520.37"/></g><path class="cls-14" d="M448.93,470.36l-49.17,58.71c-7.8,6.82-7.69,15.49-5,17.75l10,4.08c2.71,2.26,25.57-17.33,28.41-20.1l30.42-37Z"/><path class="cls-14" d="M469.12,484.18c5.62-17.11,14.71-87.08,14.71-87.08l-14.33,2.68s-17.7,57.33-20.57,70.58,7.52,26,7.52,26S464.44,498.4,469.12,484.18Z"/><path class="cls-14" d="M393.12,558.53s-12.34-8.76-3.52-22.28c9.43-14.44,40-42,40-42l6.18,30.5s-30.55,36.52-33.51,38.63S400.66,562.54,393.12,558.53Z"/><path class="cls-14" d="M305.25,549.69l-25.46,53.87a12.19,12.19,0,0,0,4.11,15.26l38.64,38.93-7.77,7,18,8.63-.22-26.56-32-38.13,26.86-43.2Z"/><path class="cls-30" d="M320.23,529.35s-8.67.4-15,11.77S291,566.71,291,566.71l30.18,23.85Z"/><path class="cls-22" d="M412.72,530.05l-25.16-4.82c-14.44,17-28.8,18.61-43.42,3.12l-20.38,1.7V680.84h81.3Z"/><g class="cls-20"><path class="cls-36" d="M412.72,530.05l-25.16-4.82c-14.44,17-28.17,17.2-42.78,1.7l-21,3.12V680.84h81.3Z"/></g><path class="cls-23" d="M384.2,937.51V953.4h60.16v-3.18c0-3-2-2.22-4.84-3.06L410,937.51Z"/><path class="cls-23" d="M349.87,937.51V953.4H289.72v-3.18c0-3,2-2.22,4.84-3.06l29.49-9.65Z"/><polygon class="cls-15" points="411.26 685.48 411.53 730.09 412.06 938.01 384.01 938.01 367.04 711.69 350.07 938.01 321.4 938.01 322.54 730.09 322.81 685.48 411.26 685.48"/><polygon class="cls-30" points="320.23 529.35 354.43 523.24 379.85 523.24 413.84 529.35 411.25 686.12 322.82 686.12 320.23 529.35"/><path class="cls-37" d="M354.43,523.24l1.21-10h22.79l1.42,10C371,530.18,362.57,530,354.43,523.24Z"/><rect class="cls-9" x="384.2" y="953.4" width="60.15" height="2.63" transform="translate(828.57 1909.43) rotate(180)"/><rect class="cls-9" x="289.72" y="953.4" width="60.15" height="2.63" transform="translate(639.6 1909.43) rotate(180)"/><path class="cls-14" d="M343.21,470c0,4.18-2.67,7.56-6,7.56s-7.85-7.18-6.27-12.21c1-3.27,5-3,8.35-3S343.21,465.85,343.21,470Z"/><path class="cls-14" d="M392.06,470c0,4.18,2.67,7.56,6,7.56s7.85-7.18,6.27-12.21c-1-3.27-5-3-8.35-3S392.06,465.85,392.06,470Z"/><path class="cls-14" d="M367.3,437.64h0s-29.62,5.69-31.41,23c0,0,.6,25.83,1.49,29.76,5.83,25.7,27.09,27.22,27.09,27.22,21.67-.75,31-21.62,32-25.51s2.19-31.47,2.19-31.47C400.76,437.75,370.68,432.74,367.3,437.64Z"/><path class="cls-38" d="M385.45,444.78s-28.92,17.62-51.17,17.88c-1.19.3-14.92-35.48,19.23-45.36,34.32-9.92,41.27,15.26,41.27,15.26s15.45,9.26,3.88,32.81C397.44,460.9,389.62,453.53,385.45,444.78Z"/><circle class="cls-8" cx="350.39" cy="475.9" r="3.07"/><circle class="cls-8" cx="376.53" cy="475.9" r="3.07" transform="translate(-219.48 590.01) rotate(-62.49)"/><path class="cls-22" d="M357.37,498.29c0,3.68,3.82,5.67,7,5.67s7-2.16,7-5.67Z"/><path class="cls-38" d="M369.74,464.85l.23,2.38h16.26S381.87,464.43,369.74,464.85Z"/><path class="cls-38" d="M357.82,464.85l-.23,2.38H341.33S345.69,464.43,357.82,464.85Z"/><polygon class="cls-38" points="335.77 461.42 336.23 474.89 336.92 475.63 336.92 459.63 335.77 461.42"/><polygon class="cls-38" points="398.92 461.42 398.46 474.89 395.95 475.63 395.95 459.63 398.92 461.42"/><path class="cls-38" d="M358.57,457.56s-23.17,12.43-36.49.95c9.75,1.83,21.33-8.85,25.85-14A21.09,21.09,0,0,1,358.57,457.56Z"/><path class="cls-38" d="M360.8,453.81s-23.17,12.43-36.49,1c9.75,1.82,21.33-8.86,25.85-14A21.12,21.12,0,0,1,360.8,453.81Z"/><path class="cls-30" d="M389.86,553.82s8.48,17.62,23.07,4.7,28.33-30.68,28.33-30.68l-26.33-27.29S387,530.41,385.5,534,383.77,546.88,389.86,553.82Z"/><path class="cls-14" d="M480.81,399.13s9.47-20.67,7-23.63c-9-10.6-20.13-.82-20.13-.82l-1.36,11.26,3.09,15.65Z"/><path class="cls-14" d="M470.76,401l-10.47-13.52s-1.34-9.45-.52-12.21,6.2,5.45,5.1,8.13c1.72,2.31,6.89,10.67,6.89,10.67Z"/><path class="cls-14" d="M468,388h0a2.85,2.85,0,0,1-2.62-3.06l1.95-24.8a2.85,2.85,0,0,1,3.06-2.62h0a2.86,2.86,0,0,1,2.62,3.06l-1.95,24.81A2.84,2.84,0,0,1,468,388Z"/><path class="cls-14" d="M474.49,385.69h0a2.85,2.85,0,0,1-2.49-3.17l2.95-24.7a2.84,2.84,0,0,1,3.17-2.49h0a2.85,2.85,0,0,1,2.49,3.16l-3,24.7A2.85,2.85,0,0,1,474.49,385.69Z"/><path class="cls-14" d="M477.94,386.92h0a2.85,2.85,0,0,1-2-3.5l6.57-24a2.85,2.85,0,0,1,3.5-2h0a2.85,2.85,0,0,1,2,3.5l-6.58,24A2.85,2.85,0,0,1,477.94,386.92Z"/><path class="cls-14" d="M481.11,399.7h0a2.85,2.85,0,0,1-2-3.5L488,363.66a2.84,2.84,0,0,1,3.5-2h0a2.84,2.84,0,0,1,2,3.5l-8.91,32.54A2.85,2.85,0,0,1,481.11,399.7Z"/><circle class="cls-39" cx="181.09" cy="470.58" r="49.04" transform="translate(-103.27 54.19) rotate(-13.28)"/><path class="cls-40" d="M46.76,596.46s-12.3-1.23-15.8-1.54S18.09,583,18.4,580.79s4.5-4.64,4.5-4.64l12.84,7.91,4.86-.21L49,587.19Z"/><path class="cls-40" d="M219.39,712.55,196.06,937.27l9.12,5.53s-4.7,8.83-19.61,2.76c.55-4.42,0-252.2,0-252.2Z"/><path class="cls-40" d="M147.73,714.1l23.11,223.17-9.11,5.53s4.69,8.83,19.6,2.76c-.55-4.42,0-252.2,0-252.2Z"/><path class="cls-41" d="M205.18,942.8l18,6.28a10.89,10.89,0,0,1,7.3,10.28H205.76L194,954.72h-3.23v4.64h-5.18v-13.8C190.39,947.69,202.17,945.89,205.18,942.8Z"/><path class="cls-41" d="M161.73,942.8l-18,6.28a10.88,10.88,0,0,0-7.3,10.28h24.73l11.78-4.64h3.22v4.64h5.18v-13.8C177.22,947.18,167.56,946.62,161.73,942.8Z"/><path class="cls-40" d="M217.35,539.92l19.15,66.91,32.72,58.28-11,1.71-34.83-48.17a29,29,0,0,1-5-11.65l-20.9-69.55,12.55-.9A4.9,4.9,0,0,1,217.35,539.92Z"/><path class="cls-40" d="M140.74,551.4,97,598.08,48.39,587.29l-8.72,6.22L90.6,614.72a14.66,14.66,0,0,0,15.79-3c17.23-16.56,58.14-58.94,58.14-58.94l-10.3-7.22C152.58,542.65,143,548.86,140.74,551.4Z"/><path class="cls-40" d="M49,587.19l-4.38-6.26a5.38,5.38,0,0,0-4.2-2.31c-3.32-.15-8.75-.3-10.47.13-2.54.63,7,5,9.52,4.14l8.25,6.76Z"/><path class="cls-30" d="M229,703.85l-.83,35.73H138.76l-.82-35.73c-1.69-18.57,2.17-47.74,11.08-64.11l7.29-13.44s-1.52-46.37-2.66-48.67c.34-2.57-.6-41.64-.6-41.64l21.12-3H194l16.59,2.26a8.21,8.21,0,0,1,6.4,5.11l4.16,51.81a16,16,0,0,1-3.23,4.32,166,166,0,0,1-7.36,29.78l7.31,13.44C226.8,656.11,230.65,685.28,229,703.85Z"/><path class="cls-40" d="M193.25,524c-3.25-3.34-6.24-5.06-9.16-5.23-2.92.17-5.91,1.89-9.16,5.23l-.76,9c.84,9.43,4,22.17,11.79,22.17s9.57-15.86,8-22.17Z"/><g class="cls-20"><path class="cls-2" d="M193.89,517.59c-3.25-3.34-6.24-5.06-9.16-5.23-2.92.17-5.92,1.89-9.16,5.23l-.76,9c2.38,5.48,7.94,9.78,11.79,10.38,3.85-.6,7.13-5.93,8.05-10.38Z"/></g><path class="cls-30" d="M228,583.9a14.18,14.18,0,0,1-28.36,0c0-7.83,3.5-22.29,11.33-22.29S228,576.07,228,583.9Z"/><path class="cls-40" d="M256.91,664.81l.66,7.62a5.4,5.4,0,0,0,2.48,4.09c2.8,1.79,7.43,4.64,9.13,5.13,2.52.73-3.58-7.87-6.17-8.34-.93-2.45-3.76-10-3.76-10Z"/><path class="cls-40" d="M265.76,658.79s14.41,6.89,17.29,8.91,9.5,13.54,8.13,15.29-6.22,1.77-6.22,1.77l-9.66-5-12.83-7.91-5.56-7.07Z"/><path class="cls-30" d="M154.78,537s-3.39-5-9-3.1-17.68,29-25.52,31.4c3.64,10.3,16.12,18.57,21.39,19,2.07-2.18,13.09-11.19,13.09-11.19Z"/><path class="cls-30" d="M209.24,536s4.25-4.23,9.38-1.37,11.94,31.82,19.21,35.61c-5.51,9.44-19.31,15.24-24.57,14.69-1.63-2.53-6.41-11.52-6.41-11.52Z"/><path class="cls-41" d="M214.59,612.87a139.47,139.47,0,0,1-4,13.43l2.77,5.1H153.55l2.76-5.1s-.19-5.82-.49-13.43Z"/><path class="cls-39" d="M194.67,425a4.93,4.93,0,1,0,4.93-4.93A4.93,4.93,0,0,0,194.67,425Z"/><path class="cls-39" d="M201.57,427.47a4.93,4.93,0,1,0,5.64-4.1A4.93,4.93,0,0,0,201.57,427.47Z"/><path class="cls-39" d="M208,431a4.92,4.92,0,1,0,6.2-3.16A4.92,4.92,0,0,0,208,431Z"/><path class="cls-39" d="M213.79,435.5a4.93,4.93,0,1,0,6.62-2.15A4.93,4.93,0,0,0,213.79,435.5Z"/><path class="cls-39" d="M218.81,440.86a4.92,4.92,0,1,0,6.87-1.09A4.9,4.9,0,0,0,218.81,440.86Z"/><circle class="cls-39" cx="226.41" cy="450.41" r="4.92"/><path class="cls-39" d="M226,453.56a4.93,4.93,0,1,0,6.88,1.09A4.93,4.93,0,0,0,226,453.56Z"/><path class="cls-39" d="M228.08,460.61a4.92,4.92,0,1,0,6.63,2.15A4.93,4.93,0,0,0,228.08,460.61Z"/><path class="cls-39" d="M229,467.89a4.92,4.92,0,1,0,6.2,3.16A4.92,4.92,0,0,0,229,467.89Z"/><circle class="cls-39" cx="229.53" cy="480.08" r="4.92" transform="translate(-181.44 142.05) rotate(-25.01)"/><circle class="cls-39" cx="227.38" cy="487.35" r="4.92"/><path class="cls-39" d="M224.89,489.32A4.93,4.93,0,1,0,229,495,4.91,4.91,0,0,0,224.89,489.32Z"/><path class="cls-39" d="M221.35,495.74a4.93,4.93,0,1,0,3.16,6.21A4.92,4.92,0,0,0,221.35,495.74Z"/><path class="cls-39" d="M216.85,501.54a4.92,4.92,0,1,0,2.15,6.62A4.91,4.91,0,0,0,216.85,501.54Z"/><path class="cls-39" d="M211.5,506.55a4.93,4.93,0,1,0,1.09,6.88A4.93,4.93,0,0,0,211.5,506.55Z"/><circle class="cls-39" cx="201.95" cy="514.15" r="4.92"/><path class="cls-39" d="M198.79,513.79a4.93,4.93,0,1,0-1.09,6.88A4.93,4.93,0,0,0,198.79,513.79Z"/><path class="cls-39" d="M191.75,515.83a4.93,4.93,0,1,0-2.15,6.62A4.93,4.93,0,0,0,191.75,515.83Z"/><path class="cls-39" d="M184.47,516.74a4.93,4.93,0,1,0-3.16,6.21A4.93,4.93,0,0,0,184.47,516.74Z"/><path class="cls-39" d="M177.14,516.51a4.93,4.93,0,1,0-4.09,5.63A4.93,4.93,0,0,0,177.14,516.51Z"/><path class="cls-39" d="M169.94,515.13a4.93,4.93,0,1,0-4.93,4.92A4.93,4.93,0,0,0,169.94,515.13Z"/><path class="cls-39" d="M163,512.64a4.93,4.93,0,1,0-5.64,4.09A4.94,4.94,0,0,0,163,512.64Z"/><path class="cls-39" d="M156.61,509.1a4.92,4.92,0,1,0-6.2,3.16A4.92,4.92,0,0,0,156.61,509.1Z"/><path class="cls-39" d="M150.82,504.6a4.93,4.93,0,1,0-6.62,2.15A4.92,4.92,0,0,0,150.82,504.6Z"/><path class="cls-39" d="M145.8,499.25a4.92,4.92,0,1,0-6.88,1.09A4.93,4.93,0,0,0,145.8,499.25Z"/><circle class="cls-39" cx="138.2" cy="489.7" r="4.92"/><path class="cls-39" d="M138.57,486.54a4.93,4.93,0,1,0-6.88-1.09A4.93,4.93,0,0,0,138.57,486.54Z"/><path class="cls-39" d="M136.53,479.5a4.93,4.93,0,1,0-6.63-2.16A4.94,4.94,0,0,0,136.53,479.5Z"/><circle class="cls-39" cx="134.09" cy="467.53" r="4.92" transform="translate(-338.51 582.51) rotate(-87.67)"/><path class="cls-39" d="M135.85,464.89a4.93,4.93,0,1,0-5.64-4.1A4.92,4.92,0,0,0,135.85,464.89Z"/><path class="cls-39" d="M137.23,457.68a4.93,4.93,0,1,0-4.93-4.92A4.92,4.92,0,0,0,137.23,457.68Z"/><path class="cls-39" d="M139.72,450.78a4.92,4.92,0,1,0-4.09-5.63A4.91,4.91,0,0,0,139.72,450.78Z"/><path class="cls-39" d="M143.26,444.36a4.93,4.93,0,1,0-3.16-6.21A4.92,4.92,0,0,0,143.26,444.36Z"/><path class="cls-39" d="M147.76,438.57a4.93,4.93,0,1,0-2.15-6.63A4.93,4.93,0,0,0,147.76,438.57Z"/><path class="cls-39" d="M153.11,433.55a4.93,4.93,0,1,0-1.09-6.88A4.93,4.93,0,0,0,153.11,433.55Z"/><circle class="cls-39" cx="162.66" cy="425.95" r="4.92"/><path class="cls-39" d="M165.82,426.32a4.92,4.92,0,1,0,1.09-6.88A4.92,4.92,0,0,0,165.82,426.32Z"/><path class="cls-39" d="M172.86,424.27a4.93,4.93,0,1,0,2.15-6.62A4.93,4.93,0,0,0,172.86,424.27Z"/><path class="cls-39" d="M180.14,423.36a4.93,4.93,0,1,0,3.16-6.2A4.92,4.92,0,0,0,180.14,423.36Z"/><path class="cls-39" d="M187.47,423.6a4.93,4.93,0,1,0,4.09-5.64A4.92,4.92,0,0,0,187.47,423.6Z"/><path class="cls-39" d="M202.71,429.32a4.93,4.93,0,1,0,4.92-4.92A4.93,4.93,0,0,0,202.71,429.32Z"/><path class="cls-40" d="M162.24,493.23c.48,4.1-1.76,7.74-5,8.13s-8.56-6.16-7.59-11.29c.63-3.35,4.62-3.5,7.88-3.89S161.75,489.12,162.24,493.23Z"/><path class="cls-40" d="M179.65,451.65h0s-21,27-27,33.23c1.47,7.77,2.06,15.72,4.78,22.08,1.57,3.67,13.55,24.67,31.47,23.46l1.89-.22c17.71-3,22.68-26,23.26-29.91s-.84-29.61-.84-29.61C212.61,447.87,182.41,446.42,179.65,451.65Z"/><path class="cls-39" d="M159.1,457.81c10.45,16.73,59.82-13.66,59,37.55,1.41.16,21.35-58.18-25.8-67.31-40.41-7.82-45.49,17.85-45.49,17.85C131.24,458.89,151.38,471.65,159.1,457.81Z"/><path class="cls-42" d="M178.06,492a3.05,3.05,0,1,1-3.15-3A3,3,0,0,1,178.06,492Z"/><path class="cls-42" d="M204.66,491.05a3.06,3.06,0,1,1-3.16-2.95A3.05,3.05,0,0,1,204.66,491.05Z"/><path class="cls-22" d="M182,512.23c.12,3.53,3.86,5.3,7,5.2s6.68-2.31,6.56-5.67Z"/><path class="cls-39" d="M180.16,480.44v1.17L166,483.07S168.54,481.17,180.16,480.44Z"/><path class="cls-39" d="M195.14,479.92l.08,1.16,14.26.47S206.79,479.83,195.14,479.92Z"/><g class="cls-3"><path class="cls-4" d="M495.24,71.09a1.49,1.49,0,0,1-1.48-1.3,39,39,0,0,0-33-33.38,1.5,1.5,0,0,1-1.27-1.7,1.52,1.52,0,0,1,1.7-1.27,42,42,0,0,1,35.55,36,1.5,1.5,0,0,1-1.29,1.68Z"/><path class="cls-4" d="M415.15,70.65l-.22,0a1.5,1.5,0,0,1-1.27-1.7,42,42,0,0,1,35.95-35.55,1.5,1.5,0,1,1,.4,3,39,39,0,0,0-33.38,33A1.5,1.5,0,0,1,415.15,70.65Z"/><path class="cls-4" d="M449.36,116.47l-.21,0A42,42,0,0,1,413.6,80.5a1.5,1.5,0,1,1,3-.39,39,39,0,0,0,33,33.37,1.5,1.5,0,0,1-.22,3Z"/><path class="cls-4" d="M460.52,116.53a1.5,1.5,0,0,1-.2-3,39,39,0,0,0,33.38-33,1.5,1.5,0,0,1,1.7-1.27A1.49,1.49,0,0,1,496.67,81a42,42,0,0,1-35.95,35.56Z"/><path class="cls-4" d="M455.16,53.36a1.51,1.51,0,0,1-1.5-1.5V31.33a1.5,1.5,0,1,1,3,0V51.86A1.5,1.5,0,0,1,455.16,53.36Z"/><path class="cls-4" d="M432.07,76.45H411.54a1.5,1.5,0,0,1,0-3h20.53a1.5,1.5,0,0,1,0,3Z"/><path class="cls-4" d="M455.16,120.07a1.5,1.5,0,0,1-1.5-1.5V98a1.5,1.5,0,0,1,3,0v20.53A1.5,1.5,0,0,1,455.16,120.07Z"/><path class="cls-4" d="M498.79,76.45H478.26a1.5,1.5,0,0,1,0-3h20.53a1.5,1.5,0,0,1,0,3Z"/><path class="cls-4" d="M455.16,99.14A24.19,24.19,0,1,1,479.35,75,24.21,24.21,0,0,1,455.16,99.14Zm0-45.38A21.19,21.19,0,1,0,476.35,75,21.21,21.21,0,0,0,455.16,53.76Z"/><path class="cls-4" d="M455.16,81.8a11.19,11.19,0,1,1,11.19-11.18A11.2,11.2,0,0,1,455.16,81.8Zm0-19.37a8.19,8.19,0,1,0,8.19,8.19A8.19,8.19,0,0,0,455.16,62.43Z"/><path class="cls-4" d="M455.16,99.14a24.08,24.08,0,0,1-16.76-6.77,1.48,1.48,0,0,1-.26-1.82c2.52-4.41,9.36-7.37,17-7.37s14.51,3,17,7.37a1.48,1.48,0,0,1-.26,1.82A24.09,24.09,0,0,1,455.16,99.14Zm-13.74-8.07a21.17,21.17,0,0,0,27.49,0c-2.45-2.92-7.86-4.89-13.75-4.89S443.87,88.15,441.42,91.07Z"/></g><g class="cls-43"><path class="cls-4" d="M307.37,498.29a1.51,1.51,0,0,1-1.49-1.31,32.09,32.09,0,0,0-27.15-27.45,1.5,1.5,0,0,1,.43-3,35.11,35.11,0,0,1,29.7,30,1.5,1.5,0,0,1-1.29,1.68Z"/><path class="cls-4" d="M241,497.91h-.21a1.5,1.5,0,0,1-1.27-1.7,35.11,35.11,0,0,1,30-29.7,1.5,1.5,0,0,1,.39,3,32.09,32.09,0,0,0-27.45,27.15A1.5,1.5,0,0,1,241,497.91Z"/><path class="cls-4" d="M269.33,535.91l-.22,0a35.1,35.1,0,0,1-29.7-30,1.5,1.5,0,0,1,3-.39,32.06,32.06,0,0,0,27.15,27.45,1.5,1.5,0,0,1-.21,3Z"/><path class="cls-4" d="M278.57,536a1.5,1.5,0,0,1-.19-3,32.06,32.06,0,0,0,27.45-27.15,1.5,1.5,0,0,1,3,.43,35.1,35.1,0,0,1-30,29.7Z"/><path class="cls-4" d="M274.14,483.58a1.5,1.5,0,0,1-1.5-1.5v-17a1.5,1.5,0,0,1,3,0v17A1.5,1.5,0,0,1,274.14,483.58Z"/><path class="cls-4" d="M255,502.73H238a1.5,1.5,0,0,1,0-3h17a1.5,1.5,0,0,1,0,3Z"/><path class="cls-4" d="M274.14,538.89a1.5,1.5,0,0,1-1.5-1.5v-17a1.5,1.5,0,0,1,3,0v17A1.5,1.5,0,0,1,274.14,538.89Z"/><path class="cls-4" d="M310.3,502.73h-17a1.5,1.5,0,0,1,0-3h17a1.5,1.5,0,0,1,0,3Z"/><path class="cls-4" d="M274.14,521.54a20.32,20.32,0,1,1,20.31-20.31A20.34,20.34,0,0,1,274.14,521.54Zm0-37.63a17.32,17.32,0,1,0,17.31,17.32A17.34,17.34,0,0,0,274.14,483.91Z"/><path class="cls-4" d="M274.14,507.17a9.54,9.54,0,1,1,9.53-9.54A9.55,9.55,0,0,1,274.14,507.17Zm0-16.07a6.54,6.54,0,1,0,6.53,6.53A6.54,6.54,0,0,0,274.14,491.1Z"/><path class="cls-4" d="M274.14,521.54a20.2,20.2,0,0,1-14.08-5.68,1.49,1.49,0,0,1-.26-1.83c2.13-3.73,7.89-6.24,14.34-6.24s12.2,2.51,14.34,6.24a1.5,1.5,0,0,1-.27,1.83A20.2,20.2,0,0,1,274.14,521.54Zm-11-7a17.27,17.27,0,0,0,22.06,0c-2.05-2.26-6.35-3.77-11-3.77S265.15,512.3,263.11,514.56Z"/></g><g class="cls-3"><path class="cls-4" d="M532,310.08H521.94a1.5,1.5,0,0,1-1.5-1.5V246.85a1.5,1.5,0,0,1,1.5-1.5H532a1.5,1.5,0,0,1,1.5,1.5v61.73A1.5,1.5,0,0,1,532,310.08Zm-8.57-3h7.07V248.35h-7.07Z"/><path class="cls-4" d="M521.94,310.08a1.5,1.5,0,0,1-1.32-.77h0c-.07-.13-7.47-12.82-31.46-12.82-26.34,0-28.39-14.37-28.39-18.77S462.82,259,489.16,259c24.13,0,31.39-12.69,31.46-12.82a1.5,1.5,0,0,1,2.82.72v61.73a1.51,1.51,0,0,1-1.13,1.46A1.61,1.61,0,0,1,521.94,310.08Zm-1.5-58.93C516.27,255.41,507,262,489.16,262c-22.92,0-25.39,11-25.39,15.77s2.47,15.77,25.39,15.77c17.83,0,27.11,6.54,31.28,10.8Z"/><path class="cls-4" d="M487.47,334.06h-7.81a5.71,5.71,0,0,1-5.71-5.71V293.21a1.5,1.5,0,0,1,3,0v35.14a2.72,2.72,0,0,0,2.71,2.71h7.81a1.75,1.75,0,0,0,1.5-2.65l-1.14-1.89a21,21,0,0,1-3-10.87V294.89a1.5,1.5,0,0,1,3,0v20.76A18,18,0,0,0,490.4,325l1.14,1.89a4.75,4.75,0,0,1-4.07,7.2Z"/><rect class="cls-4" x="471.39" y="307.08" width="5.56" height="12.71" rx="1.5"/><path class="cls-4" d="M494.49,296.78a1.5,1.5,0,0,1-1.5-1.5v-35a1.5,1.5,0,0,1,3,0v35A1.5,1.5,0,0,1,494.49,296.78Z"/></g><g class="cls-3"><path class="cls-4" d="M1171.57,793.52h-10.08a1.5,1.5,0,0,1-1.5-1.5V730.29a1.5,1.5,0,0,1,1.5-1.5h10.08a1.5,1.5,0,0,1,1.5,1.5V792A1.5,1.5,0,0,1,1171.57,793.52Zm-8.58-3h7.08V731.79H1163Z"/><path class="cls-4" d="M1161.49,793.52a1.51,1.51,0,0,1-1.31-.77h0c-.07-.13-7.48-12.83-31.47-12.83-26.34,0-28.38-14.36-28.38-18.77s2-18.77,28.38-18.77c24.13,0,31.4-12.69,31.47-12.82a1.5,1.5,0,0,1,2.81.73V792a1.5,1.5,0,0,1-1.12,1.45A1.65,1.65,0,0,1,1161.49,793.52Zm-1.5-58.94c-4.16,4.26-13.45,10.8-31.28,10.8-22.91,0-25.38,11-25.38,15.77s2.47,15.77,25.38,15.77c17.83,0,27.12,6.54,31.28,10.8Z"/><path class="cls-4" d="M1127,817.49h-7.81a5.71,5.71,0,0,1-5.71-5.71V776.65a1.5,1.5,0,1,1,3,0v35.13a2.71,2.71,0,0,0,2.71,2.71H1127a1.75,1.75,0,0,0,1.5-2.65l-1.14-1.88a21.1,21.1,0,0,1-3-10.88V778.33a1.5,1.5,0,0,1,3,0v20.75a18.06,18.06,0,0,0,2.6,9.33l1.13,1.88a4.75,4.75,0,0,1-4.06,7.2Z"/><rect class="cls-4" x="1110.95" y="790.52" width="5.56" height="12.71" rx="1.5"/><path class="cls-4" d="M1134.05,780.22a1.5,1.5,0,0,1-1.5-1.5V743.67a1.5,1.5,0,1,1,3,0v35.05A1.5,1.5,0,0,1,1134.05,780.22Z"/></g><g class="cls-3"><path class="cls-4" d="M1619.62,66.82H1611a1.5,1.5,0,0,1-1.5-1.5V12.5A1.5,1.5,0,0,1,1611,11h8.62a1.5,1.5,0,0,1,1.5,1.5V65.32A1.5,1.5,0,0,1,1619.62,66.82Zm-7.12-3h5.62V14h-5.62Z"/><path class="cls-4" d="M1611,66.82a1.52,1.52,0,0,1-1.32-.77c-.25-.46-6.36-10.87-26.73-10.87-22.73,0-24.5-12.45-24.5-16.27s1.77-16.27,24.5-16.27c20.38,0,26.48-10.42,26.73-10.87a1.51,1.51,0,0,1,2.82.73V65.32a1.51,1.51,0,0,1-1.13,1.45A1.64,1.64,0,0,1,1611,66.82Zm-1.5-50.12c-3.77,3.67-11.74,8.94-26.55,8.94-19.41,0-21.5,9.28-21.5,13.27s2.09,13.27,21.5,13.27c14.81,0,22.78,5.27,26.55,8.94Z"/><path class="cls-4" d="M1581.51,87.33h-6.68a5.11,5.11,0,0,1-5.1-5.11V52.16a1.5,1.5,0,0,1,3,0V82.22a2.11,2.11,0,0,0,2.1,2.11h6.68a1.29,1.29,0,0,0,1.1-1.94l-1-1.62a18.24,18.24,0,0,1-2.62-9.41V53.6a1.5,1.5,0,1,1,3,0V71.36a15.22,15.22,0,0,0,2.19,7.86l1,1.62a4.28,4.28,0,0,1-3.66,6.49Z"/><rect class="cls-4" x="1567.54" y="63.82" width="5.19" height="11.31" rx="1.5"/><path class="cls-4" d="M1587.52,55.44a1.5,1.5,0,0,1-1.5-1.5V24a1.5,1.5,0,0,1,3,0v30A1.5,1.5,0,0,1,1587.52,55.44Z"/></g></g></g></svg>